<svg xmlns="http://www.w3.org/2000/svg" xmlns:xlink="http://www.w3.org/1999/xlink" fill="none" version="1.1" width="290" height="190" viewBox="0 0 290 190"><g><g><g><path d="M219.29999396972656,79.97669677734375C219.29999396972656,79.97669677734375,138.99999396972657,86.37669677734375,162.60000396972657,74.87669677734375C176.89999396972655,67.87669677734375,185.09999396972657,54.37669677734375,186.79999396972656,47.37669677734375C187.49999396972657,44.57669677734375,186.29999396972656,41.77669677734375,183.99999396972657,40.17669677734375C183.99999396972657,40.17669677734375,191.69999396972656,42.17668677734375,205.39999396972655,57.77669677734375C214.59999396972657,68.27669677734374,219.29999396972656,79.97669677734375,219.29999396972656,79.97669677734375Z" fill="#FFFFFF" fill-opacity="1"/></g><g><path d="M189.39999389648438,81.57669677734376C197.49999389648437,77.37669677734375,204.6999938964844,71.97669677734375,210.6999938964844,64.67669677734375C216.29999389648438,72.77669677734374,219.1999938964844,79.97669677734375,219.1999938964844,79.97669677734375C219.1999938964844,79.97669677734375,204.39999389648438,81.17669677734375,189.39999389648438,81.57669677734376Z" fill="#EFEFEA" fill-opacity="1"/></g><g><g><path d="M219.1,79.9767C217.9,77.1767,179.5,79.3767,140.2,71.0767C112.2,65.1767,83.8,53.9767,67.9,31.876696C67,30.576696,65,30.87669,63.7,31.77669C60,34.376689999999996,52.3,40.376689999999996,41.5,50.0767C39.4,51.9767,36.9,54.4767,34.2,57.6767C34.2,57.6767,34.2,57.6767,34.1,57.776700000000005C28.6,64.2767,22.6,73.5767,18.2,86.2767C14.8,96.1767,12.5,107.4767,11,118.3767C8.7,135.377,8.1,151.17700000000002,8,158.277C8,158.277,237.1,158.277,237.1,158.277C236.5,152.277,235,139.777,232.1,125.5767C229.3,110.5767,225.1,93.5767,219.1,79.9767Z" fill="#FFF573" fill-opacity="1"/></g><g><path d="M66.78573,32.757348725585935Q66.64644,32.565289725585934,66.57322,32.33961772558594Q66.5,32.11394672558594,66.5,31.876693725585938Q66.5,31.80300342558594,66.50722,31.729667725585937Q66.51445,31.656332725585937,66.52882,31.584058725585937Q66.5432,31.51178372558594,66.56459,31.441266725585937Q66.58598,31.370749725585938,66.61418,31.30266872558594Q66.64238,31.23458772558594,66.67712,31.16959872558594Q66.71186,31.104609725585938,66.7528,31.043338725585937Q66.79374,30.982066725585938,66.84048,30.925103725585938Q66.88723,30.868143725585938,66.93934,30.81603372558594Q66.99145,30.763923725585936,67.04841,30.717173725585937Q67.105373,30.670433725585937,67.166645,30.629493725585938Q67.227916,30.58855372558594,67.292905,30.553813725585936Q67.357894,30.519073725585937,67.425975,30.49087372558594Q67.494056,30.462673725585937,67.564573,30.441283725585937Q67.63509,30.419893725585936,67.707365,30.405513725585937Q67.779639,30.391143725585938,67.852974,30.383913725585938Q67.9263097,30.376693725585938,68,30.376693725585938Q68.178421,30.376693725585938,68.351864,30.418543725585938Q68.525307,30.460403725585937,68.684093,30.541773725585937Q68.842878,30.623143725585937,68.978146,30.739493725585938Q69.11341,30.855843725585938,69.21761,31.000670725585938L69.21762,31.00066472558594Q89.2012,58.77649372558594,140.61,69.60909372558594Q164.1787,74.58669372558595,202.503,76.53679372558594Q211.585,76.99889372558593,214.511,77.28549372558594Q218.697,77.69559372558594,220.04,78.73419372558594Q220.217,78.85339372558593,220.353,79.01679372558593Q220.489,79.18019372558594,220.574,79.37499372558594Q220.575,79.37679372558594,220.576,79.37849372558594Q220.577,79.38219372558594,220.579,79.38579372558593Q220.7,79.66879372558594,220.7,79.97669372558593Q220.7,80.05039372558593,220.693,80.12369372558594Q220.686,80.19709372558594,220.671,80.26929372558594Q220.657,80.34159372558594,220.635,80.41209372558595Q220.614,80.48259372558593,220.586,80.55069372558594Q220.558,80.61879372558593,220.523,80.68379372558593Q220.488,80.74879372558594,220.447,80.81009372558594Q220.406,80.87129372558593,220.36,80.92829372558595Q220.313,80.98529372558593,220.261,81.03739372558593Q220.209,81.08949372558594,220.152,81.13619372558594Q220.095,81.18299372558593,220.033,81.22389372558594Q219.972,81.26479372558595,219.907,81.29959372558594Q219.842,81.33429372558594,219.774,81.36249372558594Q219.706,81.39069372558595,219.635,81.41209372558595Q219.565,81.43349372558595,219.493,81.44789372558594Q219.42,81.46229372558594,219.347,81.46949372558593Q219.274,81.47669372558593,219.2,81.47669372558593Q219.09,81.47669372558593,218.982,81.46079372558594Q218.874,81.44489372558593,218.769,81.41339372558593Q218.664,81.38199372558594,218.565,81.33559372558594Q218.466,81.28919372558593,218.374,81.22899372558594Q218.283,81.16869372558594,218.201,81.09579372558593Q218.119,81.02289372558593,218.049,80.93889372558593Q217.979,80.85489372558594,217.922,80.76149372558594Q217.864,80.66819372558594,217.821,80.56759372558594Q217.713,80.31459372558594,202.35,79.53289372558594Q163.79000000000002,77.57079372558593,139.99,72.54429372558593Q87.4493,61.473193725585936,66.78573,32.757348725585935Z" fill-rule="evenodd" fill="#FFAD76" fill-opacity="1"/></g></g><g><g><path d="M219.50000771118164,96.07670593261719C217.30000771118165,97.67670593261718,215.09999771118163,99.27669593261719,212.89999771118164,100.87669593261718C215.19999771118165,102.37669593261718,217.50000771118164,103.77668593261718,219.80000771118165,105.27668593261718C219.80000771118165,105.27668593261718,226.39999771118164,100.47669593261719,226.39999771118164,100.47669593261719C226.39999771118164,100.47669593261719,219.50000771118164,96.07670593261719,219.50000771118164,96.07670593261719Z" fill="#606060" fill-opacity="1"/></g><g><path d="M148.9999999182129,91.37669372558594C146.5999999182129,92.47669372558593,144.1000099182129,93.47670372558593,141.6000099182129,94.57670372558594C143.5000099182129,96.57670372558594,145.3999999182129,98.57670372558594,147.3999999182129,100.47670372558593C149.8999999182129,99.37670372558594,152.4000099182129,98.17670372558594,154.80000991821288,97.07670372558594C152.80000991821288,95.17670372558594,150.8999999182129,93.27669372558594,148.9999999182129,91.37669372558594Z" fill="#606060" fill-opacity="1"/></g><g><path d="M184.1000099182129,95.47669982910156C181.80000991821288,96.87669982910157,179.5000099182129,98.37667982910156,177.1000099182129,99.67667982910156C179.20000991821288,101.47667982910156,181.2999999182129,103.07668982910157,183.4999999182129,104.77668982910156C185.8999999182129,103.37668982910157,188.20000991821288,102.07669982910156,190.5000099182129,100.47669982910156C188.4000099182129,98.87669982910157,186.20000991821288,97.17669982910157,184.1000099182129,95.47669982910156Z" fill="#FFFFFF" fill-opacity="1"/></g><g><path d="M115.19999305175782,82.47669982910156C112.5999930517578,83.17669982910157,109.9000030517578,83.87669982910157,107.30000305175781,84.47669982910156C108.80000305175781,86.67669982910157,110.4000030517578,88.87667982910156,112.00000305175782,91.17667982910156C114.60000305175781,90.47667982910156,117.30000305175781,89.67669982910157,120.00000305175782,88.97669982910156C118.4000030517578,86.77669982910156,116.69999305175782,84.67669982910157,115.19999305175782,82.47669982910156Z" fill="#FFFFFF" fill-opacity="1"/></g><g><path d="M58.200000552978516,44.776689829101564C55.700000552978516,44.07668982910156,53.200000552978516,43.176699829101565,50.79999955297851,41.97669982910156C50.499999552978515,44.676699829101565,50.59999965297852,47.57668982910156,50.79999955297851,50.376689829101565C53.50000055297851,51.376689829101565,56.200000552978516,52.076699829101564,58.80000055297852,52.77669982910156C58.40000055297852,50.07668982910156,58.200000552978516,47.376689829101565,58.200000552978516,44.776689829101564Z" fill="#FFFFFF" fill-opacity="1"/></g><g><path d="M83.80000694824218,67.47669982910156C82.50000694824219,67.57669982910156,81.10000694824218,67.57670582910156,79.80000694824218,67.57670582910156C78.4000069482422,67.57670582910156,77.0999969482422,67.57670582910156,75.69999694824219,67.57670582910156C76.19999694824219,68.87670982910156,76.69999694824219,70.07668982910157,77.19999694824219,71.37668982910157C77.69999694824219,72.57668982910157,78.20000694824219,73.97667982910156,78.80000694824218,75.17667982910156C81.60000694824218,75.07667982910156,84.29999694824218,74.97668982910156,87.0999969482422,74.87668982910157C85.89999694824219,72.47668982910156,84.80000694824218,69.87669982910157,83.80000694824218,67.47669982910156Z" fill="#606060" fill-opacity="1"/></g></g><g><path d="M34.2000064239502,57.67669677734406C34.2000064239502,57.67669677734406,34.2000064239502,57.67668762058375,34.10000642395019,57.77668757734375C32.5000064239502,59.47668677734375,14.899996423950196,78.47669677734375,9.999999223950196,112.87669677734375C9.699999423950196,114.57669677734376,10.099999423950194,116.37669677734375,10.999996423950195,118.37669677734375C16.199996423950196,129.67669677734375,39.900006423950195,145.57669677734376,73.60000642395019,158.27669677734374C73.60000642395019,158.27669677734374,237.1005064239502,158.27669677734374,237.1005064239502,158.27669677734374C236.4995064239502,152.27669677734374,234.9995064239502,139.77669677734374,232.1995064239502,125.57669677734376C72.5000064239502,127.07669677734376,34.2000064239502,57.67669677734406,34.2000064239502,57.67669677734406Z" fill="#FFAD76" fill-opacity="1"/></g><g><path d="M73.30000305175781,60.076690673828125Q73.30000305175781,60.24853067382813,73.29160305175782,60.42016067382812Q73.28310305175782,60.591800673828125,73.26630305175782,60.76281067382813Q73.24940305175781,60.93382067382812,73.22420305175781,61.103800673828125Q73.19900305175781,61.27378067382813,73.16550305175781,61.44232067382812Q73.1320030517578,61.61086067382813,73.09020305175781,61.777550673828124Q73.04850305175782,61.944240673828126,72.99860305175781,62.108680673828125Q72.94870305175782,62.273120673828124,72.89080305175781,62.434920673828124Q72.83290305175781,62.59671067382813,72.76720305175782,62.75547067382813Q72.70140305175781,62.91423067382813,72.62790305175781,63.069570673828125Q72.55450305175782,63.22489067382813,72.47340305175781,63.37649067382812Q72.39240305175781,63.52799067382813,72.3041030517578,63.675390673828126Q72.21580305175782,63.82279067382812,72.12030305175782,63.96569067382812Q72.02480305175781,64.10859067382813,71.92250305175781,64.24659067382812Q71.82010305175781,64.38459067382813,71.71110305175782,64.51749067382812Q71.60210305175781,64.65029067382812,71.48670305175781,64.77759067382813Q71.37130305175782,64.90489067382812,71.24970305175782,65.02639067382813Q71.12820305175781,65.14799067382813,71.00090305175782,65.26339067382813Q70.87360305175781,65.37879067382812,70.74080305175781,65.48779067382813Q70.60790305175782,65.59679067382812,70.46990305175781,65.69919067382813Q70.33190305175782,65.80149067382813,70.18900305175781,65.89699067382813Q70.04610305175781,65.99249067382813,69.8987030517578,66.08079067382812Q69.75130305175782,66.16909067382812,69.59980305175782,66.25009067382813Q69.44820305175782,66.33119067382813,69.29288305175781,66.40459067382812Q69.13754305175782,66.47809067382812,68.97878305175782,66.54389067382813Q68.82002305175781,66.60959067382812,68.65823305175782,66.66749067382813Q68.4964330517578,66.72539067382813,68.33199305175782,66.77529067382812Q68.1675530517578,66.82519067382813,68.00086305175782,66.86689067382812Q67.83417305175782,66.90869067382812,67.66563305175781,66.94219067382812Q67.49709305175782,66.97569067382813,67.3271130517578,67.00089067382812Q67.15713305175781,67.02609067382812,66.98612305175782,67.04299067382813Q66.8151130517578,67.05979067382813,66.64347305175781,67.06829067382813Q66.47184305175782,67.07669067382812,66.30000305175781,67.07669067382812Q66.12816305175781,67.07669067382812,65.95653305175782,67.06829067382813Q65.78489305175782,67.05979067382813,65.61388305175781,67.04299067382813Q65.44287305175781,67.02609067382812,65.27289305175782,67.00089067382812Q65.10291305175781,66.97569067382813,64.93437305175782,66.94219067382812Q64.76583305175781,66.90869067382812,64.5991430517578,66.86689067382812Q64.43245305175782,66.82519067382813,64.2680130517578,66.77529067382812Q64.1035730517578,66.72539067382813,63.941773051757814,66.66749067382813Q63.77998305175781,66.60959067382812,63.62122305175781,66.54389067382813Q63.462463051757815,66.47809067382812,63.30711305175781,66.40459067382812Q63.151773051757814,66.33119067382813,63.000223051757814,66.25009067382813Q62.848673051757814,66.16909067382812,62.70128305175781,66.08079067382812Q62.55389305175781,65.99249067382813,62.41101305175781,65.89699067382813Q62.268133051757815,65.80149067382813,62.130103051757814,65.69919067382813Q61.99208305175781,65.59679067382812,61.85925305175781,65.48779067382813Q61.72641305175781,65.37879067382812,61.59909305175781,65.26339067382813Q61.47176305175781,65.14799067382813,61.35025305175781,65.02639067382813Q61.22874305175781,64.90489067382812,61.11334305175781,64.77759067382813Q60.997943051757815,64.65029067382812,60.88893305175781,64.51749067382812Q60.77991305175781,64.38459067382813,60.67755305175781,64.24659067382812Q60.57518305175781,64.10859067382813,60.47971305175781,63.96569067382812Q60.384243051757814,63.82279067382812,60.29590305175781,63.675390673828126Q60.20755905175781,63.52799067382813,60.126554051757815,63.37649067382812Q60.04554905175781,63.22489067382813,59.97207805175781,63.069570673828125Q59.898607051757814,62.91423067382813,59.83284605175781,62.75547067382813Q59.767086051757815,62.59671067382813,59.70919405175781,62.434920673828124Q59.651303051757814,62.273120673828124,59.60142105175781,62.108680673828125Q59.55153805175781,61.944240673828126,59.50978405175781,61.777550673828124Q59.468030051757815,61.61086067382813,59.434506051757815,61.44232067382812Q59.400982051757815,61.27378067382813,59.37576745175781,61.103800673828125Q59.350553251757816,60.93382067382812,59.33370995175781,60.76281067382813Q59.31686665175781,60.591800673828125,59.30843485175781,60.42016067382812Q59.30000305175781,60.24853067382813,59.30000305175781,60.076690673828125Q59.30000305175781,59.90485067382812,59.30843485175781,59.73322067382813Q59.31686665175781,59.561580673828125,59.33370995175781,59.39057067382812Q59.350553251757816,59.21956067382813,59.37576745175781,59.049580673828125Q59.400982051757815,58.87960067382812,59.434506051757815,58.71106067382812Q59.468030051757815,58.54252067382812,59.50978405175781,58.375830673828126Q59.55153805175781,58.209140673828124,59.60142105175781,58.044700673828125Q59.651303051757814,57.880260673828126,59.70919405175781,57.718460673828126Q59.767086051757815,57.55667067382812,59.83284605175781,57.39791067382812Q59.898607051757814,57.23915067382813,59.97207805175781,57.08380067382812Q60.04554905175781,56.92846067382813,60.126554051757815,56.77691067382813Q60.20755905175781,56.625360673828126,60.295902051757814,56.477970673828125Q60.384243051757814,56.33058067382812,60.47971305175781,56.187700673828125Q60.57518305175781,56.04482067382813,60.67755305175781,55.90679067382813Q60.77991305175781,55.76877067382812,60.88893305175781,55.635940673828124Q60.997943051757815,55.50310067382812,61.11334305175781,55.375780673828125Q61.22874305175781,55.248450673828124,61.35025305175781,55.12694067382812Q61.47176305175781,55.00543067382812,61.59909305175781,54.89003067382812Q61.72641305175781,54.77463067382813,61.85925305175781,54.66562067382812Q61.99208305175781,54.55660067382812,62.130103051757814,54.454240673828124Q62.268133051757815,54.351870673828124,62.41101305175781,54.256400673828125Q62.55389305175781,54.160930673828126,62.70128305175781,54.072590673828124Q62.848673051757814,53.984246673828125,63.000223051757814,53.90324167382813Q63.151773051757814,53.82223667382812,63.30711305175781,53.748765673828125Q63.462463051757815,53.67529467382813,63.62122305175781,53.609533673828125Q63.77998305175781,53.54377367382813,63.941773051757814,53.485881673828125Q64.1035730517578,53.42799067382813,64.2680130517578,53.37810867382812Q64.43245305175782,53.32822567382812,64.5991430517578,53.286471673828125Q64.76583305175781,53.24471767382813,64.93437305175782,53.21119367382813Q65.10291305175781,53.17766967382813,65.27289305175782,53.15245507382812Q65.44287305175781,53.12724087382813,65.61388305175781,53.11039757382812Q65.78489305175782,53.093554273828126,65.95653305175782,53.08512247382812Q66.12816305175781,53.076690673828125,66.30000305175781,53.076690673828125Q66.47184305175782,53.076690673828125,66.64347305175781,53.08512247382812Q66.8151130517578,53.093554273828126,66.98612305175782,53.11039757382812Q67.15713305175781,53.12724087382813,67.3271130517578,53.15245507382812Q67.49709305175782,53.17766967382813,67.66563305175781,53.21119367382813Q67.83417305175782,53.24471767382813,68.00086305175782,53.286471673828125Q68.1675530517578,53.32822567382812,68.33199305175782,53.37810867382812Q68.4964330517578,53.42799067382813,68.65823305175782,53.485881673828125Q68.82002305175781,53.54377367382813,68.97878305175782,53.609533673828125Q69.13754305175782,53.67529467382813,69.29288305175781,53.748765673828125Q69.44820305175782,53.82223667382812,69.59980305175782,53.90324167382813Q69.75130305175782,53.984246673828125,69.8987030517578,54.072589673828126Q70.04610305175781,54.160930673828126,70.18900305175781,54.256400673828125Q70.33190305175782,54.351870673828124,70.46990305175781,54.454240673828124Q70.60790305175782,54.55660067382812,70.74080305175781,54.66562067382812Q70.87360305175781,54.77463067382813,71.00090305175782,54.89003067382812Q71.12820305175781,55.00543067382812,71.24970305175782,55.12694067382812Q71.37130305175782,55.248450673828124,71.48670305175781,55.375780673828125Q71.60210305175781,55.50310067382812,71.71110305175782,55.635940673828124Q71.82010305175781,55.76877067382812,71.92250305175781,55.90679067382813Q72.02480305175781,56.04482067382813,72.12030305175782,56.187700673828125Q72.21580305175782,56.33058067382812,72.3041030517578,56.477970673828125Q72.39240305175781,56.625360673828126,72.47340305175781,56.77691067382813Q72.55450305175782,56.92846067382813,72.62790305175781,57.08380067382812Q72.70140305175781,57.23915067382813,72.76720305175782,57.39791067382812Q72.83290305175781,57.55667067382812,72.89080305175781,57.718460673828126Q72.94870305175782,57.880260673828126,72.99860305175781,58.044700673828125Q73.04850305175782,58.209140673828124,73.09020305175781,58.375830673828126Q73.1320030517578,58.54252067382812,73.16550305175781,58.71106067382812Q73.19900305175781,58.87960067382812,73.22420305175781,59.049580673828125Q73.24940305175781,59.21956067382813,73.26630305175782,59.39057067382812Q73.28310305175782,59.561580673828125,73.29160305175782,59.73322067382813Q73.30000305175781,59.90485067382812,73.30000305175781,60.076690673828125Z" fill="#FF6B57" fill-opacity="1"/></g><g><path d="M104.0999984741211,80.57670593261719Q104.0999984741211,80.74854593261719,104.0915984741211,80.92017593261718Q104.0830984741211,81.09181593261718,104.0662984741211,81.26282593261719Q104.04939847412109,81.43383593261719,104.02419847412109,81.60381593261718Q103.9989984741211,81.77379593261719,103.96549847412109,81.94233593261718Q103.93199847412109,82.11087593261719,103.89019847412109,82.2775659326172Q103.8484984741211,82.44425593261718,103.79859847412109,82.6086959326172Q103.7486984741211,82.77313593261718,103.6907984741211,82.9349359326172Q103.63289847412109,83.09672593261719,103.5671984741211,83.25548593261719Q103.50139847412109,83.41424593261719,103.4278984741211,83.56958593261719Q103.3544984741211,83.72490593261719,103.2733984741211,83.87650593261719Q103.19239847412109,84.02800593261719,103.10409847412109,84.17540593261718Q103.0157984741211,84.32280593261719,102.9202984741211,84.46570593261718Q102.8247984741211,84.6086059326172,102.7224984741211,84.74660593261719Q102.6200984741211,84.88460593261719,102.5110984741211,85.01750593261718Q102.40209847412109,85.15030593261719,102.2866984741211,85.27760593261719Q102.1712984741211,85.40490593261718,102.0496984741211,85.5264059326172Q101.92819847412109,85.6480059326172,101.8008984741211,85.76340593261719Q101.67359847412109,85.87880593261718,101.54079847412109,85.98780593261719Q101.4078984741211,86.09680593261719,101.26989847412109,86.19920593261719Q101.1318984741211,86.30150593261719,100.98899847412109,86.39700593261719Q100.84609847412109,86.49250593261719,100.69869847412109,86.58080593261718Q100.5512984741211,86.66910593261719,100.3997984741211,86.75010593261719Q100.2481984741211,86.8312059326172,100.0928784741211,86.90460593261719Q99.9375384741211,86.97810593261718,99.7787784741211,87.04390593261719Q99.6200184741211,87.10960593261719,99.4582284741211,87.16750593261719Q99.29642847412109,87.22540593261719,99.1319884741211,87.27530593261719Q98.96754847412109,87.3252059326172,98.8008584741211,87.36690593261719Q98.6341684741211,87.40870593261718,98.46562847412109,87.44220593261718Q98.2970884741211,87.47570593261719,98.12710847412109,87.50090593261719Q97.95712847412109,87.52610593261718,97.7861184741211,87.54300593261719Q97.61510847412109,87.5598059326172,97.44346847412109,87.56830593261719Q97.2718384741211,87.57670593261719,97.0999984741211,87.57670593261719Q96.92815847412109,87.57670593261719,96.7565284741211,87.56830593261719Q96.5848884741211,87.5598059326172,96.41387847412109,87.54300593261719Q96.2428684741211,87.52610593261718,96.0728884741211,87.50090593261719Q95.90290847412109,87.47570593261719,95.7343684741211,87.44220593261718Q95.56582847412109,87.40870593261718,95.39913847412109,87.36690593261719Q95.2324484741211,87.3252059326172,95.06800847412109,87.27530593261719Q94.90356847412109,87.22540593261719,94.74176847412109,87.16750593261719Q94.57997847412109,87.10960593261719,94.42121847412109,87.04390593261719Q94.26245847412109,86.97810593261718,94.10710847412109,86.90460593261719Q93.9517684741211,86.8312059326172,93.8002184741211,86.75010593261719Q93.6486684741211,86.66910593261719,93.5012784741211,86.58080593261718Q93.35388847412109,86.49250593261719,93.21100847412109,86.39700593261719Q93.0681284741211,86.30150593261719,92.9300984741211,86.19920593261719Q92.7920784741211,86.09680593261719,92.6592484741211,85.98780593261719Q92.5264084741211,85.87880593261718,92.3990884741211,85.76340593261719Q92.2717584741211,85.6480059326172,92.1502484741211,85.5264059326172Q92.0287384741211,85.40490593261718,91.91333847412109,85.27760593261719Q91.7979384741211,85.15030593261719,91.6889284741211,85.01750593261718Q91.5799084741211,84.88460593261719,91.4775484741211,84.74660593261719Q91.3751784741211,84.6086059326172,91.2797084741211,84.46570593261718Q91.18423847412109,84.32280593261719,91.0958984741211,84.17540593261718Q91.0075544741211,84.02800593261719,90.92654947412109,83.87650593261719Q90.8455444741211,83.72490593261719,90.7720734741211,83.56958593261719Q90.69860247412109,83.41424593261719,90.6328414741211,83.25548593261719Q90.5670814741211,83.09672593261719,90.5091894741211,82.9349359326172Q90.45129847412109,82.77313593261718,90.40141647412109,82.6086959326172Q90.3515334741211,82.44425593261718,90.3097794741211,82.2775659326172Q90.26802547412109,82.11087593261719,90.23450147412109,81.94233593261718Q90.20097747412109,81.77379593261719,90.17576287412109,81.60381593261718Q90.1505486741211,81.43383593261719,90.13370537412109,81.26282593261719Q90.11686207412109,81.09181593261718,90.10843027412109,80.92017593261718Q90.0999984741211,80.74854593261719,90.0999984741211,80.57670593261719Q90.0999984741211,80.40486593261718,90.10843027412109,80.23323593261719Q90.11686207412109,80.0615959326172,90.13370537412109,79.89058593261718Q90.1505486741211,79.71957593261719,90.17576287412109,79.5495959326172Q90.20097747412109,79.37961593261718,90.23450147412109,79.21107593261719Q90.26802547412109,79.04253593261718,90.3097794741211,78.87584593261718Q90.3515334741211,78.7091559326172,90.40141647412109,78.54471593261718Q90.45129847412109,78.38027593261718,90.5091894741211,78.21847593261718Q90.5670814741211,78.05668593261719,90.6328414741211,77.89792593261718Q90.69860247412109,77.73916593261718,90.7720734741211,77.58381593261718Q90.8455444741211,77.42847593261719,90.92654947412109,77.27692593261719Q91.0075544741211,77.12537593261719,91.09589747412109,76.97798593261719Q91.18423847412109,76.83059593261719,91.2797084741211,76.68771593261718Q91.3751784741211,76.54483593261719,91.4775484741211,76.40680593261719Q91.5799084741211,76.26878593261719,91.6889284741211,76.1359559326172Q91.7979384741211,76.00311593261719,91.91333847412109,75.8757959326172Q92.0287384741211,75.7484659326172,92.1502484741211,75.6269559326172Q92.2717584741211,75.50544593261719,92.3990884741211,75.39004593261718Q92.5264084741211,75.27464593261719,92.6592484741211,75.16563593261719Q92.7920784741211,75.05661593261719,92.9300984741211,74.95425593261719Q93.0681284741211,74.8518859326172,93.21100847412109,74.75641593261719Q93.35388847412109,74.66094593261718,93.5012784741211,74.5726059326172Q93.6486684741211,74.48426193261719,93.8002184741211,74.40325693261718Q93.9517684741211,74.32225193261719,94.10710847412109,74.2487809326172Q94.26245847412109,74.17530993261718,94.42121847412109,74.10954893261719Q94.57997847412109,74.04378893261719,94.74176847412109,73.9858969326172Q94.90356847412109,73.92800593261718,95.06800847412109,73.87812393261719Q95.2324484741211,73.82824093261719,95.39913847412109,73.7864869326172Q95.56582847412109,73.74473293261718,95.7343684741211,73.71120893261718Q95.90290847412109,73.67768493261718,96.0728884741211,73.65247033261718Q96.2428684741211,73.62725613261719,96.41387847412109,73.61041283261719Q96.5848884741211,73.59356953261718,96.7565284741211,73.58513773261718Q96.92815847412109,73.57670593261719,97.0999984741211,73.57670593261719Q97.2718384741211,73.57670593261719,97.44346847412109,73.58513773261718Q97.61510847412109,73.59356953261718,97.7861184741211,73.61041283261719Q97.95712847412109,73.62725613261719,98.12710847412109,73.65247033261718Q98.2970884741211,73.67768493261718,98.46562847412109,73.71120893261718Q98.6341684741211,73.74473293261718,98.8008584741211,73.7864869326172Q98.96754847412109,73.82824093261719,99.1319884741211,73.87812393261719Q99.29642847412109,73.92800593261718,99.4582284741211,73.9858969326172Q99.6200184741211,74.04378893261719,99.7787784741211,74.10954893261719Q99.9375384741211,74.17530993261718,100.0928784741211,74.2487809326172Q100.2481984741211,74.32225193261719,100.3997984741211,74.40325693261718Q100.5512984741211,74.48426193261719,100.69869847412109,74.57260493261718Q100.84609847412109,74.66094593261718,100.98899847412109,74.75641593261719Q101.1318984741211,74.8518859326172,101.26989847412109,74.95425593261719Q101.4078984741211,75.05661593261719,101.54079847412109,75.16563593261719Q101.67359847412109,75.27464593261719,101.8008984741211,75.39004593261718Q101.92819847412109,75.50544593261719,102.0496984741211,75.6269559326172Q102.1712984741211,75.7484659326172,102.2866984741211,75.8757959326172Q102.40209847412109,76.00311593261719,102.5110984741211,76.1359559326172Q102.6200984741211,76.26878593261719,102.7224984741211,76.40680593261719Q102.8247984741211,76.54483593261719,102.9202984741211,76.68771593261718Q103.0157984741211,76.83059593261719,103.10409847412109,76.97798593261719Q103.19239847412109,77.12537593261719,103.2733984741211,77.27692593261719Q103.3544984741211,77.42847593261719,103.4278984741211,77.58381593261718Q103.50139847412109,77.73916593261718,103.5671984741211,77.89792593261718Q103.63289847412109,78.05668593261719,103.6907984741211,78.21847593261718Q103.7486984741211,78.38027593261718,103.79859847412109,78.54471593261718Q103.8484984741211,78.7091559326172,103.89019847412109,78.87584593261718Q103.93199847412109,79.04253593261718,103.96549847412109,79.21107593261719Q103.9989984741211,79.37961593261718,104.02419847412109,79.5495959326172Q104.04939847412109,79.71957593261719,104.0662984741211,79.89058593261718Q104.0830984741211,80.0615959326172,104.0915984741211,80.23323593261719Q104.0999984741211,80.40486593261718,104.0999984741211,80.57670593261719Z" fill="#FF6B57" fill-opacity="1"/></g><g><path d="M137.6999969482422,92.37669372558594Q137.6999969482422,92.54853372558594,137.6915969482422,92.72016372558593Q137.6830969482422,92.89180372558593,137.66629694824218,93.06281372558594Q137.64939694824218,93.23382372558594,137.6241969482422,93.40380372558593Q137.5989969482422,93.57378372558594,137.56549694824218,93.74232372558593Q137.53199694824218,93.91086372558594,137.4901969482422,94.07755372558594Q137.4484969482422,94.24424372558593,137.3985969482422,94.40868372558595Q137.34869694824218,94.57312372558593,137.2907969482422,94.73492372558594Q137.2328969482422,94.89671372558594,137.16719694824218,95.05547372558594Q137.10139694824218,95.21423372558594,137.0278969482422,95.36957372558594Q136.9544969482422,95.52489372558594,136.8733969482422,95.67649372558594Q136.79239694824219,95.82799372558594,136.70409694824218,95.97539372558593Q136.61579694824218,96.12279372558594,136.5202969482422,96.26569372558593Q136.42479694824218,96.40859372558594,136.3224969482422,96.54659372558594Q136.2200969482422,96.68459372558594,136.1110969482422,96.81749372558593Q136.00209694824218,96.95029372558594,135.8866969482422,97.07759372558594Q135.7712969482422,97.20489372558593,135.6496969482422,97.32639372558594Q135.5281969482422,97.44799372558595,135.40089694824218,97.56339372558594Q135.2735969482422,97.67879372558593,135.14079694824218,97.78779372558594Q135.00789694824218,97.89679372558594,134.8698969482422,97.99919372558594Q134.7318969482422,98.10149372558594,134.5889969482422,98.19699372558594Q134.4460969482422,98.29249372558594,134.2986969482422,98.38079372558593Q134.1512969482422,98.46909372558594,133.9997969482422,98.55009372558594Q133.8481969482422,98.63119372558594,133.6928769482422,98.70459372558594Q133.53753694824218,98.77809372558593,133.37877694824218,98.84389372558594Q133.22001694824218,98.90959372558594,133.05822694824218,98.96749372558594Q132.89642694824218,99.02539372558594,132.7319869482422,99.07529372558594Q132.56754694824218,99.12519372558594,132.4008569482422,99.16689372558594Q132.23416694824218,99.20869372558593,132.0656269482422,99.24219372558593Q131.8970869482422,99.27569372558594,131.72710694824218,99.30089372558594Q131.5571269482422,99.32609372558593,131.38611694824218,99.34299372558594Q131.21510694824218,99.35979372558594,131.04346694824218,99.36829372558594Q130.8718369482422,99.37669372558594,130.6999969482422,99.37669372558594Q130.52815694824218,99.37669372558594,130.3565269482422,99.36829372558594Q130.1848869482422,99.35979372558594,130.0138769482422,99.34299372558594Q129.84286694824218,99.32609372558593,129.6728869482422,99.30089372558594Q129.50290694824218,99.27569372558594,129.33436694824218,99.24219372558593Q129.1658269482422,99.20869372558593,128.99913694824218,99.16689372558594Q128.8324469482422,99.12519372558594,128.66800694824218,99.07529372558594Q128.5035669482422,99.02539372558594,128.3417669482422,98.96749372558594Q128.1799769482422,98.90959372558594,128.0212169482422,98.84389372558594Q127.86245694824218,98.77809372558593,127.70710694824218,98.70459372558594Q127.55176694824219,98.63119372558594,127.40021694824219,98.55009372558594Q127.24866694824219,98.46909372558594,127.10127694824219,98.38079372558593Q126.95388694824219,98.29249372558594,126.81100694824218,98.19699372558594Q126.66812694824219,98.10149372558594,126.53009694824219,97.99919372558594Q126.39207694824219,97.89679372558594,126.2592469482422,97.78779372558594Q126.12640694824219,97.67879372558593,125.9990869482422,97.56339372558594Q125.8717569482422,97.44799372558595,125.7502469482422,97.32639372558594Q125.62873694824219,97.20489372558593,125.51333694824218,97.07759372558594Q125.39793694824219,96.95029372558594,125.28892694824219,96.81749372558593Q125.17990694824219,96.68459372558594,125.07754694824219,96.54659372558594Q124.9751769482422,96.40859372558594,124.87970694824219,96.26569372558593Q124.78423694824218,96.12279372558594,124.6958969482422,95.97539372558593Q124.60755294824219,95.82799372558594,124.52654794824218,95.67649372558594Q124.44554294824219,95.52489372558594,124.3720719482422,95.36957372558594Q124.29860094824218,95.21423372558594,124.23283994824219,95.05547372558594Q124.16707994824219,94.89671372558594,124.1091879482422,94.73492372558594Q124.05129694824218,94.57312372558593,124.00141494824219,94.40868372558595Q123.95153194824219,94.24424372558593,123.9097779482422,94.07755372558594Q123.86802394824218,93.91086372558594,123.83449994824218,93.74232372558593Q123.80097594824218,93.57378372558594,123.77576134824218,93.40380372558593Q123.75054714824219,93.23382372558594,123.73370384824219,93.06281372558594Q123.71686054824218,92.89180372558593,123.70842874824218,92.72016372558593Q123.69999694824219,92.54853372558594,123.69999694824219,92.37669372558594Q123.69999694824219,92.20485372558593,123.70842874824218,92.03322372558594Q123.71686054824218,91.86158372558594,123.73370384824219,91.69057372558593Q123.75054714824219,91.51956372558594,123.77576134824218,91.34958372558594Q123.80097594824218,91.17960372558593,123.83449994824218,91.01106372558594Q123.86802394824218,90.84252372558593,123.9097779482422,90.67583372558593Q123.95153194824219,90.50914372558594,124.00141494824219,90.34470372558593Q124.05129694824218,90.18026372558593,124.1091879482422,90.01846372558593Q124.16707994824219,89.85667372558594,124.23283994824219,89.69791372558593Q124.29860094824218,89.53915372558593,124.3720719482422,89.38380372558593Q124.44554294824219,89.22846372558594,124.52654794824218,89.07691372558594Q124.60755294824219,88.92536372558594,124.69589594824218,88.77797372558594Q124.78423694824218,88.63058372558594,124.87970694824219,88.48770372558593Q124.9751769482422,88.34482372558594,125.07754694824219,88.20679372558594Q125.17990694824219,88.06877372558594,125.28892694824219,87.93594372558594Q125.39793694824219,87.80310372558594,125.51333694824218,87.67578372558594Q125.62873694824219,87.54845372558594,125.7502469482422,87.42694372558594Q125.8717569482422,87.30543372558594,125.9990869482422,87.19003372558593Q126.12640694824219,87.07463372558594,126.2592469482422,86.96562372558594Q126.39207694824219,86.85660372558594,126.53009694824219,86.75424372558594Q126.66812694824219,86.65187372558594,126.81100694824218,86.55640372558594Q126.95388694824219,86.46093372558593,127.10127694824219,86.37259372558594Q127.24866694824219,86.28424972558594,127.40021694824219,86.20324472558593Q127.55176694824219,86.12223972558594,127.70710694824218,86.04876872558594Q127.86245694824218,85.97529772558593,128.0212169482422,85.90953672558594Q128.1799769482422,85.84377672558594,128.3417669482422,85.78588472558594Q128.5035669482422,85.72799372558593,128.66800694824218,85.67811172558594Q128.8324469482422,85.62822872558594,128.99913694824218,85.58647472558594Q129.1658269482422,85.54472072558593,129.33436694824218,85.51119672558593Q129.50290694824218,85.47767272558593,129.6728869482422,85.45245812558593Q129.84286694824218,85.42724392558594,130.0138769482422,85.41040062558594Q130.1848869482422,85.39355732558593,130.3565269482422,85.38512552558593Q130.52815694824218,85.37669372558594,130.6999969482422,85.37669372558594Q130.8718369482422,85.37669372558594,131.04346694824218,85.38512552558593Q131.21510694824218,85.39355732558593,131.38611694824218,85.41040062558594Q131.5571269482422,85.42724392558594,131.72710694824218,85.45245812558593Q131.8970869482422,85.47767272558593,132.0656269482422,85.51119672558593Q132.23416694824218,85.54472072558593,132.4008569482422,85.58647472558594Q132.56754694824218,85.62822872558594,132.7319869482422,85.67811172558594Q132.89642694824218,85.72799372558593,133.05822694824218,85.78588472558594Q133.22001694824218,85.84377672558594,133.37877694824218,85.90953672558594Q133.53753694824218,85.97529772558593,133.6928769482422,86.04876872558594Q133.8481969482422,86.12223972558594,133.9997969482422,86.20324472558593Q134.1512969482422,86.28424972558594,134.2986969482422,86.37259272558593Q134.4460969482422,86.46093372558593,134.5889969482422,86.55640372558594Q134.7318969482422,86.65187372558594,134.8698969482422,86.75424372558594Q135.00789694824218,86.85660372558594,135.14079694824218,86.96562372558594Q135.2735969482422,87.07463372558594,135.40089694824218,87.19003372558593Q135.5281969482422,87.30543372558594,135.6496969482422,87.42694372558594Q135.7712969482422,87.54845372558594,135.8866969482422,87.67578372558594Q136.00209694824218,87.80310372558594,136.1110969482422,87.93594372558594Q136.2200969482422,88.06877372558594,136.3224969482422,88.20679372558594Q136.42479694824218,88.34482372558594,136.5202969482422,88.48770372558593Q136.61579694824218,88.63058372558594,136.70409694824218,88.77797372558594Q136.79239694824219,88.92536372558594,136.8733969482422,89.07691372558594Q136.9544969482422,89.22846372558594,137.0278969482422,89.38380372558593Q137.10139694824218,89.53915372558593,137.16719694824218,89.69791372558593Q137.2328969482422,89.85667372558594,137.2907969482422,90.01846372558593Q137.34869694824218,90.18026372558593,137.3985969482422,90.34470372558593Q137.4484969482422,90.50914372558594,137.4901969482422,90.67583372558593Q137.53199694824218,90.84252372558593,137.56549694824218,91.01106372558594Q137.5989969482422,91.17960372558593,137.6241969482422,91.34958372558594Q137.64939694824218,91.51956372558594,137.66629694824218,91.69057372558593Q137.6830969482422,91.86158372558594,137.6915969482422,92.03322372558594Q137.6999969482422,92.20485372558593,137.6999969482422,92.37669372558594Z" fill="#FF6B57" fill-opacity="1"/></g><g><path d="M173.3000030517578,98.17668151855469Q173.3000030517578,98.34852151855469,173.29160305175782,98.52015151855468Q173.28310305175782,98.69179151855468,173.2663030517578,98.86280151855469Q173.2494030517578,99.03381151855469,173.22420305175783,99.20379151855468Q173.1990030517578,99.37377151855469,173.1655030517578,99.54231151855468Q173.1320030517578,99.71085151855469,173.0902030517578,99.8775415185547Q173.04850305175782,100.04423151855468,172.9986030517578,100.2086715185547Q172.9487030517578,100.37311151855468,172.8908030517578,100.5349115185547Q172.83290305175782,100.69670151855469,172.7672030517578,100.85546151855469Q172.7014030517578,101.01422151855469,172.6279030517578,101.16956151855469Q172.55450305175782,101.32488151855469,172.47340305175783,101.47648151855469Q172.3924030517578,101.62798151855469,172.3041030517578,101.77538151855468Q172.2158030517578,101.92278151855469,172.12030305175782,102.06568151855468Q172.0248030517578,102.2085815185547,171.92250305175781,102.34658151855469Q171.82010305175783,102.48458151855469,171.71110305175782,102.61748151855468Q171.6021030517578,102.75028151855469,171.48670305175781,102.87758151855469Q171.37130305175782,103.00488151855468,171.24970305175782,103.1263815185547Q171.12820305175782,103.2479815185547,171.0009030517578,103.36338151855469Q170.8736030517578,103.47878151855468,170.7408030517578,103.58778151855469Q170.6079030517578,103.69678151855469,170.46990305175783,103.79918151855469Q170.33190305175782,103.90148151855469,170.18900305175782,103.99698151855469Q170.04610305175783,104.09248151855469,169.89870305175782,104.18078151855468Q169.75130305175782,104.26908151855469,169.59980305175782,104.35008151855469Q169.44820305175782,104.4311815185547,169.29288305175783,104.50458151855469Q169.1375430517578,104.57808151855468,168.9787830517578,104.64388151855469Q168.8200230517578,104.70958151855469,168.6582330517578,104.76748151855469Q168.4964330517578,104.82538151855469,168.33199305175782,104.87528151855469Q168.1675530517578,104.9251815185547,168.00086305175782,104.96688151855469Q167.8341730517578,105.00868151855468,167.66563305175782,105.04218151855468Q167.49709305175782,105.07568151855469,167.3271130517578,105.10088151855469Q167.15713305175782,105.12608151855468,166.9861230517578,105.14298151855469Q166.8151130517578,105.1597815185547,166.6434730517578,105.16828151855469Q166.47184305175782,105.17668151855469,166.3000030517578,105.17668151855469Q166.1281630517578,105.17668151855469,165.95653305175782,105.16828151855469Q165.78489305175782,105.1597815185547,165.61388305175782,105.14298151855469Q165.4428730517578,105.12608151855468,165.27289305175782,105.10088151855469Q165.1029130517578,105.07568151855469,164.9343730517578,105.04218151855468Q164.76583305175782,105.00868151855468,164.5991430517578,104.96688151855469Q164.43245305175782,104.9251815185547,164.2680130517578,104.87528151855469Q164.10357305175782,104.82538151855469,163.94177305175782,104.76748151855469Q163.77998305175782,104.70958151855469,163.62122305175782,104.64388151855469Q163.46246305175782,104.57808151855468,163.30711305175782,104.50458151855469Q163.1517730517578,104.4311815185547,163.0002230517578,104.35008151855469Q162.8486730517578,104.26908151855469,162.7012830517578,104.18078151855468Q162.55389305175783,104.09248151855469,162.4110130517578,103.99698151855469Q162.26813305175781,103.90148151855469,162.1301030517578,103.79918151855469Q161.99208305175782,103.69678151855469,161.8592530517578,103.58778151855469Q161.72641305175782,103.47878151855468,161.59909305175782,103.36338151855469Q161.47176305175782,103.2479815185547,161.35025305175782,103.1263815185547Q161.22874305175782,103.00488151855468,161.11334305175782,102.87758151855469Q160.9979430517578,102.75028151855469,160.88893305175782,102.61748151855468Q160.7799130517578,102.48458151855469,160.67755305175783,102.34658151855469Q160.57518305175782,102.2085815185547,160.4797130517578,102.06568151855468Q160.3842430517578,101.92278151855469,160.29590305175782,101.77538151855468Q160.2075590517578,101.62798151855469,160.1265540517578,101.47648151855469Q160.0455490517578,101.32488151855469,159.97207805175782,101.16956151855469Q159.8986070517578,101.01422151855469,159.83284605175783,100.85546151855469Q159.76708605175781,100.69670151855469,159.7091940517578,100.5349115185547Q159.65130305175782,100.37311151855468,159.60142105175782,100.2086715185547Q159.5515380517578,100.04423151855468,159.5097840517578,99.8775415185547Q159.4680300517578,99.71085151855469,159.4345060517578,99.54231151855468Q159.4009820517578,99.37377151855469,159.3757674517578,99.20379151855468Q159.35055325175782,99.03381151855469,159.3337099517578,98.86280151855469Q159.3168666517578,98.69179151855468,159.30843485175782,98.52015151855468Q159.3000030517578,98.34852151855469,159.3000030517578,98.17668151855469Q159.3000030517578,98.00484151855468,159.30843485175782,97.83321151855469Q159.3168666517578,97.6615715185547,159.3337099517578,97.49056151855468Q159.35055325175782,97.31955151855469,159.3757674517578,97.1495715185547Q159.4009820517578,96.97959151855468,159.4345060517578,96.81105151855469Q159.4680300517578,96.64251151855468,159.5097840517578,96.47582151855468Q159.5515380517578,96.3091315185547,159.60142105175782,96.14469151855468Q159.65130305175782,95.98025151855468,159.7091940517578,95.81845151855468Q159.76708605175781,95.65666151855469,159.83284605175783,95.49790151855468Q159.8986070517578,95.33914151855468,159.97207805175782,95.18379151855468Q160.0455490517578,95.02845151855469,160.1265540517578,94.87690151855469Q160.2075590517578,94.72535151855469,160.29590205175782,94.57796151855469Q160.3842430517578,94.43057151855469,160.4797130517578,94.28769151855468Q160.57518305175782,94.14481151855469,160.67755305175783,94.00678151855469Q160.7799130517578,93.86876151855469,160.88893305175782,93.7359315185547Q160.9979430517578,93.60309151855469,161.11334305175782,93.4757715185547Q161.22874305175782,93.3484415185547,161.35025305175782,93.2269315185547Q161.47176305175782,93.10542151855469,161.59909305175782,92.99002151855468Q161.72641305175782,92.87462151855469,161.8592530517578,92.76561151855469Q161.99208305175782,92.65659151855469,162.1301030517578,92.55423151855469Q162.26813305175781,92.4518615185547,162.4110130517578,92.35639151855469Q162.55389305175783,92.26092151855468,162.7012830517578,92.1725815185547Q162.8486730517578,92.08423751855469,163.0002230517578,92.00323251855468Q163.1517730517578,91.92222751855469,163.30711305175782,91.8487565185547Q163.46246305175782,91.77528551855468,163.62122305175782,91.70952451855469Q163.77998305175782,91.64376451855469,163.94177305175782,91.5858725185547Q164.10357305175782,91.52798151855468,164.2680130517578,91.47809951855469Q164.43245305175782,91.42821651855469,164.5991430517578,91.3864625185547Q164.76583305175782,91.34470851855468,164.9343730517578,91.31118451855468Q165.1029130517578,91.27766051855468,165.27289305175782,91.25244591855468Q165.4428730517578,91.22723171855469,165.61388305175782,91.21038841855469Q165.78489305175782,91.19354511855468,165.95653305175782,91.18511331855468Q166.1281630517578,91.17668151855469,166.3000030517578,91.17668151855469Q166.47184305175782,91.17668151855469,166.6434730517578,91.18511331855468Q166.8151130517578,91.19354511855468,166.9861230517578,91.21038841855469Q167.15713305175782,91.22723171855469,167.3271130517578,91.25244591855468Q167.49709305175782,91.27766051855468,167.66563305175782,91.31118451855468Q167.8341730517578,91.34470851855468,168.00086305175782,91.3864625185547Q168.1675530517578,91.42821651855469,168.33199305175782,91.47809951855469Q168.4964330517578,91.52798151855468,168.6582330517578,91.5858725185547Q168.8200230517578,91.64376451855469,168.9787830517578,91.70952451855469Q169.1375430517578,91.77528551855468,169.29288305175783,91.8487565185547Q169.44820305175782,91.92222751855469,169.59980305175782,92.00323251855468Q169.75130305175782,92.08423751855469,169.89870305175782,92.17258051855468Q170.04610305175783,92.26092151855468,170.18900305175782,92.35639151855469Q170.33190305175782,92.4518615185547,170.46990305175783,92.55423151855469Q170.6079030517578,92.65659151855469,170.7408030517578,92.76561151855469Q170.8736030517578,92.87462151855469,171.0009030517578,92.99002151855468Q171.12820305175782,93.10542151855469,171.24970305175782,93.2269315185547Q171.37130305175782,93.3484415185547,171.48670305175781,93.4757715185547Q171.6021030517578,93.60309151855469,171.71110305175782,93.7359315185547Q171.82010305175783,93.86876151855469,171.92250305175781,94.00678151855469Q172.0248030517578,94.14481151855469,172.12030305175782,94.28769151855468Q172.2158030517578,94.43057151855469,172.3041030517578,94.57796151855469Q172.3924030517578,94.72535151855469,172.47340305175783,94.87690151855469Q172.55450305175782,95.02845151855469,172.6279030517578,95.18379151855468Q172.7014030517578,95.33914151855468,172.7672030517578,95.49790151855468Q172.83290305175782,95.65666151855469,172.8908030517578,95.81845151855468Q172.9487030517578,95.98025151855468,172.9986030517578,96.14469151855468Q173.04850305175782,96.3091315185547,173.0902030517578,96.47582151855468Q173.1320030517578,96.64251151855468,173.1655030517578,96.81105151855469Q173.1990030517578,96.97959151855468,173.22420305175783,97.1495715185547Q173.2494030517578,97.31955151855469,173.2663030517578,97.49056151855468Q173.28310305175782,97.6615715185547,173.29160305175782,97.83321151855469Q173.3000030517578,98.00484151855468,173.3000030517578,98.17668151855469Z" fill="#FF6B57" fill-opacity="1"/></g><g><path d="M209.6999969482422,100.37669372558594Q209.6999969482422,100.54853372558594,209.6915969482422,100.72016372558593Q209.6830969482422,100.89180372558593,209.66629694824218,101.06281372558594Q209.64939694824218,101.23382372558594,209.6241969482422,101.40380372558593Q209.5989969482422,101.57378372558594,209.56549694824218,101.74232372558593Q209.53199694824218,101.91086372558594,209.4901969482422,102.07755372558594Q209.4484969482422,102.24424372558593,209.3985969482422,102.40868372558595Q209.34869694824218,102.57312372558593,209.2907969482422,102.73492372558594Q209.2328969482422,102.89671372558594,209.16719694824218,103.05547372558594Q209.10139694824218,103.21423372558594,209.0278969482422,103.36957372558594Q208.9544969482422,103.52489372558594,208.8733969482422,103.67649372558594Q208.79239694824219,103.82799372558594,208.70409694824218,103.97539372558593Q208.61579694824218,104.12279372558594,208.5202969482422,104.26569372558593Q208.42479694824218,104.40859372558594,208.3224969482422,104.54659372558594Q208.2200969482422,104.68459372558594,208.1110969482422,104.81749372558593Q208.00209694824218,104.95029372558594,207.8866969482422,105.07759372558594Q207.7712969482422,105.20489372558593,207.6496969482422,105.32639372558594Q207.5281969482422,105.44799372558595,207.40089694824218,105.56339372558594Q207.2735969482422,105.67879372558593,207.14079694824218,105.78779372558594Q207.00789694824218,105.89679372558594,206.8698969482422,105.99919372558594Q206.7318969482422,106.10149372558594,206.5889969482422,106.19699372558594Q206.4460969482422,106.29249372558594,206.2986969482422,106.38079372558593Q206.1512969482422,106.46909372558594,205.9997969482422,106.55009372558594Q205.8481969482422,106.63119372558594,205.6928769482422,106.70459372558594Q205.53753694824218,106.77809372558593,205.37877694824218,106.84389372558594Q205.22001694824218,106.90959372558594,205.05822694824218,106.96749372558594Q204.89642694824218,107.02539372558594,204.7319869482422,107.07529372558594Q204.56754694824218,107.12519372558594,204.4008569482422,107.16689372558594Q204.23416694824218,107.20869372558593,204.0656269482422,107.24219372558593Q203.8970869482422,107.27569372558594,203.72710694824218,107.30089372558594Q203.5571269482422,107.32609372558593,203.38611694824218,107.34299372558594Q203.21510694824218,107.35979372558594,203.04346694824218,107.36829372558594Q202.8718369482422,107.37669372558594,202.6999969482422,107.37669372558594Q202.52815694824218,107.37669372558594,202.3565269482422,107.36829372558594Q202.1848869482422,107.35979372558594,202.0138769482422,107.34299372558594Q201.84286694824218,107.32609372558593,201.6728869482422,107.30089372558594Q201.50290694824218,107.27569372558594,201.33436694824218,107.24219372558593Q201.1658269482422,107.20869372558593,200.99913694824218,107.16689372558594Q200.8324469482422,107.12519372558594,200.66800694824218,107.07529372558594Q200.5035669482422,107.02539372558594,200.3417669482422,106.96749372558594Q200.1799769482422,106.90959372558594,200.0212169482422,106.84389372558594Q199.8624569482422,106.77809372558593,199.7071069482422,106.70459372558594Q199.55176694824218,106.63119372558594,199.4002169482422,106.55009372558594Q199.24866694824217,106.46909372558594,199.10127694824217,106.38079372558593Q198.9538869482422,106.29249372558594,198.81100694824218,106.19699372558594Q198.6681269482422,106.10149372558594,198.53009694824217,105.99919372558594Q198.3920769482422,105.89679372558594,198.25924694824218,105.78779372558594Q198.1264069482422,105.67879372558593,197.9990869482422,105.56339372558594Q197.8717569482422,105.44799372558595,197.7502469482422,105.32639372558594Q197.6287369482422,105.20489372558593,197.5133369482422,105.07759372558594Q197.39793694824218,104.95029372558594,197.2889269482422,104.81749372558593Q197.17990694824218,104.68459372558594,197.0775469482422,104.54659372558594Q196.9751769482422,104.40859372558594,196.8797069482422,104.26569372558593Q196.78423694824218,104.12279372558594,196.6958969482422,103.97539372558593Q196.6075529482422,103.82799372558594,196.52654794824218,103.67649372558594Q196.44554294824218,103.52489372558594,196.3720719482422,103.36957372558594Q196.29860094824218,103.21423372558594,196.2328399482422,103.05547372558594Q196.1670799482422,102.89671372558594,196.10918794824218,102.73492372558594Q196.0512969482422,102.57312372558593,196.0014149482422,102.40868372558595Q195.95153194824218,102.24424372558593,195.90977794824218,102.07755372558594Q195.86802394824218,101.91086372558594,195.83449994824218,101.74232372558593Q195.80097594824218,101.57378372558594,195.77576134824218,101.40380372558593Q195.7505471482422,101.23382372558594,195.7337038482422,101.06281372558594Q195.71686054824218,100.89180372558593,195.7084287482422,100.72016372558593Q195.6999969482422,100.54853372558594,195.6999969482422,100.37669372558594Q195.6999969482422,100.20485372558593,195.7084287482422,100.03322372558594Q195.71686054824218,99.86158372558594,195.7337038482422,99.69057372558593Q195.7505471482422,99.51956372558594,195.77576134824218,99.34958372558594Q195.80097594824218,99.17960372558593,195.83449994824218,99.01106372558594Q195.86802394824218,98.84252372558593,195.90977794824218,98.67583372558593Q195.95153194824218,98.50914372558594,196.0014149482422,98.34470372558593Q196.0512969482422,98.18026372558593,196.10918794824218,98.01846372558593Q196.1670799482422,97.85667372558594,196.2328399482422,97.69791372558593Q196.29860094824218,97.53915372558593,196.3720719482422,97.38380372558593Q196.44554294824218,97.22846372558594,196.52654794824218,97.07691372558594Q196.6075529482422,96.92536372558594,196.6958959482422,96.77797372558594Q196.78423694824218,96.63058372558594,196.8797069482422,96.48770372558593Q196.9751769482422,96.34482372558594,197.0775469482422,96.20679372558594Q197.17990694824218,96.06877372558594,197.2889269482422,95.93594372558594Q197.39793694824218,95.80310372558594,197.5133369482422,95.67578372558594Q197.6287369482422,95.54845372558594,197.7502469482422,95.42694372558594Q197.8717569482422,95.30543372558594,197.9990869482422,95.19003372558593Q198.1264069482422,95.07463372558594,198.25924694824218,94.96562372558594Q198.3920769482422,94.85660372558594,198.53009694824217,94.75424372558594Q198.6681269482422,94.65187372558594,198.81100694824218,94.55640372558594Q198.9538869482422,94.46093372558593,199.10127694824217,94.37259372558594Q199.24866694824217,94.28424972558594,199.4002169482422,94.20324472558593Q199.55176694824218,94.12223972558594,199.7071069482422,94.04876872558594Q199.8624569482422,93.97529772558593,200.0212169482422,93.90953672558594Q200.1799769482422,93.84377672558594,200.3417669482422,93.78588472558594Q200.5035669482422,93.72799372558593,200.66800694824218,93.67811172558594Q200.8324469482422,93.62822872558594,200.99913694824218,93.58647472558594Q201.1658269482422,93.54472072558593,201.33436694824218,93.51119672558593Q201.50290694824218,93.47767272558593,201.6728869482422,93.45245812558593Q201.84286694824218,93.42724392558594,202.0138769482422,93.41040062558594Q202.1848869482422,93.39355732558593,202.3565269482422,93.38512552558593Q202.52815694824218,93.37669372558594,202.6999969482422,93.37669372558594Q202.8718369482422,93.37669372558594,203.04346694824218,93.38512552558593Q203.21510694824218,93.39355732558593,203.38611694824218,93.41040062558594Q203.5571269482422,93.42724392558594,203.72710694824218,93.45245812558593Q203.8970869482422,93.47767272558593,204.0656269482422,93.51119672558593Q204.23416694824218,93.54472072558593,204.4008569482422,93.58647472558594Q204.56754694824218,93.62822872558594,204.7319869482422,93.67811172558594Q204.89642694824218,93.72799372558593,205.05822694824218,93.78588472558594Q205.22001694824218,93.84377672558594,205.37877694824218,93.90953672558594Q205.53753694824218,93.97529772558593,205.6928769482422,94.04876872558594Q205.8481969482422,94.12223972558594,205.9997969482422,94.20324472558593Q206.1512969482422,94.28424972558594,206.2986969482422,94.37259272558593Q206.4460969482422,94.46093372558593,206.5889969482422,94.55640372558594Q206.7318969482422,94.65187372558594,206.8698969482422,94.75424372558594Q207.00789694824218,94.85660372558594,207.14079694824218,94.96562372558594Q207.2735969482422,95.07463372558594,207.40089694824218,95.19003372558593Q207.5281969482422,95.30543372558594,207.6496969482422,95.42694372558594Q207.7712969482422,95.54845372558594,207.8866969482422,95.67578372558594Q208.00209694824218,95.80310372558594,208.1110969482422,95.93594372558594Q208.2200969482422,96.06877372558594,208.3224969482422,96.20679372558594Q208.42479694824218,96.34482372558594,208.5202969482422,96.48770372558593Q208.61579694824218,96.63058372558594,208.70409694824218,96.77797372558594Q208.79239694824219,96.92536372558594,208.8733969482422,97.07691372558594Q208.9544969482422,97.22846372558594,209.0278969482422,97.38380372558593Q209.10139694824218,97.53915372558593,209.16719694824218,97.69791372558593Q209.2328969482422,97.85667372558594,209.2907969482422,98.01846372558593Q209.34869694824218,98.18026372558593,209.3985969482422,98.34470372558593Q209.4484969482422,98.50914372558594,209.4901969482422,98.67583372558593Q209.53199694824218,98.84252372558593,209.56549694824218,99.01106372558594Q209.5989969482422,99.17960372558593,209.6241969482422,99.34958372558594Q209.64939694824218,99.51956372558594,209.66629694824218,99.69057372558593Q209.6830969482422,99.86158372558594,209.6915969482422,100.03322372558594Q209.6999969482422,100.20485372558593,209.6999969482422,100.37669372558594Z" fill="#FF6B57" fill-opacity="1"/></g></g></g></svg>