<svg xmlns="http://www.w3.org/2000/svg" xmlns:xlink="http://www.w3.org/1999/xlink" fill="none" version="1.1" width="290" height="190" viewBox="0 0 290 190"><g><g><path d="M166.29957697868346,27.318544387817383C164.59957697868347,27.918544387817384,162.89957697868348,28.318534387817383,161.19957697868347,28.71853438781738C161.19957697868347,28.71853438781738,161.99957697868348,32.01852438781738,161.99957697868348,32.01852438781738C162.39957697868348,33.518544387817386,163.19957697868347,35.018544387817386,164.39957697868348,36.018544387817386C166.49957697868348,39.518544387817386,170.59957697868347,50.31854438781738,169.29957697868346,56.918544387817384C167.19957697868347,67.21854438781739,153.59957697868347,73.41854438781738,130.69957697868347,64.11854438781738C106.99957697868348,54.518544387817386,95.59997697868347,30.21854438781738,92.59997697868347,22.818544387817383C80.79997697868347,23.918544387817384,55.69997697868347,27.618534387817384,36.39997697868347,40.11854438781738C26.099976978683472,46.71854438781738,-0.10003302131652836,80.41854438781738,2.4999619786834715,144.2185443878174C2.4999619786834715,144.2185443878174,255.79957697868346,149.81854438781738,255.79957697868346,149.81854438781738C255.79957697868346,149.81854438781738,245.49957697868348,83.01854438781739,235.19957697868347,62.918544387817384C225.19957697868347,43.418544387817384,208.19957697868347,32.018544387817386,166.29957697868346,27.318544387817383Z" fill="#474E51" fill-opacity="1"/></g><g><path d="M45.766175013427734,110.70163972265625Q46.603815013427734,114.56879572265625,47.58527501342773,132.38611572265626Q47.89036501342773,137.92461572265626,48.175065013427734,144.19431572265626Q48.35886501342773,148.24171572265624,48.398855013427735,149.35851572265625L48.39893501342773,149.36071572265627L48.39908501342774,149.36491572265624L48.39909501342773,149.36511572265624Q48.40005501342773,149.39181572265625,48.40005501342773,149.41861572265626Q48.40005501342773,149.49231572265626,48.39282501342773,149.56561572265625Q48.385605013427735,149.63901572265624,48.37122501342773,149.71121572265625Q48.35685501342773,149.78351572265626,48.335465013427736,149.85401572265624Q48.31407501342773,149.92451572265625,48.285875013427734,149.99261572265624Q48.257675013427736,150.06071572265625,48.22293501342774,150.12571572265625Q48.18819501342774,150.19071572265625,48.14725501342773,150.25191572265624Q48.10631501342773,150.31321572265625,48.059565013427736,150.37021572265624Q48.01281501342773,150.42711572265625,47.96071501342774,150.47931572265625Q47.90860501342773,150.53141572265625,47.851645013427735,150.57811572265626Q47.794675013427735,150.62491572265625,47.733405013427735,150.66581572265625Q47.672135013427734,150.70671572265624,47.60714501342773,150.74151572265626Q47.54215501342773,150.77621572265625,47.474075013427736,150.80441572265624Q47.405995013427734,150.83261572265624,47.33547501342773,150.85401572265624Q47.264965013427734,150.87541572265624,47.192685013427734,150.88981572265624Q47.12041501342773,150.90411572265626,47.04707501342774,150.91141572265624Q46.97374501342773,150.91861572265626,46.90005501342773,150.91861572265626Q46.82824501342773,150.91861572265626,46.75676501342773,150.91171572265625Q46.68528501342774,150.90491572265626,46.61479501342774,150.89121572265626Q46.544295013427735,150.87761572265626,46.47542501342773,150.85721572265624Q46.406555013427734,150.83691572265624,46.33994501342774,150.81011572265623Q46.27333501342773,150.78331572265625,46.209585013427734,150.75021572265626Q46.14584501342773,150.71721572265625,46.08554501342773,150.67821572265626Q46.025245013427735,150.63921572265625,45.968945013427735,150.59461572265624Q45.91265501342774,150.55011572265624,45.860865013427734,150.50031572265624Q45.80908501342773,150.45061572265627,45.76229501342773,150.39611572265625Q45.71550501342774,150.34161572265626,45.674125013427734,150.28291572265624Q45.63274501342774,150.22431572265626,45.597165013427734,150.16191572265626Q45.56158501342773,150.09951572265624,45.53212501342774,150.03401572265625Q45.502655013427734,149.96851572265626,45.47958501342774,149.90051572265625Q45.45651501342773,149.83251572265624,45.440045013427735,149.76271572265625Q45.42357501342774,149.69281572265623,45.413855013427735,149.62161572265626Q45.404135013427734,149.55051572265626,45.401255013427736,149.47871572265626L45.401005013427735,149.47211572265624Q45.361835013427736,148.37541572265624,45.17815601342773,144.33041572265626Q44.89411101342773,138.07521572265625,44.58981801342773,132.55111572265625Q43.621362013427735,114.96994572265625,42.83406501342773,111.33624572265624Q42.800045013427734,111.17925172265625,42.800045013427734,111.01861572265625Q42.800045013427734,110.94492542265625,42.80726501342773,110.87158972265625Q42.81449501342773,110.79825472265625,42.82886501342774,110.72598072265625Q42.84324501342773,110.65370572265626,42.86463501342774,110.58318872265625Q42.886025013427734,110.51267172265625,42.91422501342773,110.44459072265624Q42.94242501342774,110.37650972265625,42.97716501342774,110.31152072265625Q43.011905013427736,110.24653172265624,43.052845013427735,110.18526072265625Q43.093785013427734,110.12398872265625,43.140525013427734,110.06702572265625Q43.18727501342774,110.01006572265625,43.239385013427736,109.95795572265625Q43.291495013427735,109.90584572265625,43.34845501342773,109.85909572265625Q43.405418013427735,109.81235572265625,43.46669001342774,109.77141572265624Q43.527961013427735,109.73047572265625,43.59295001342773,109.69573572265625Q43.657939013427736,109.66099572265625,43.726020013427735,109.63279572265625Q43.794101013427735,109.60459572265626,43.86461801342774,109.58320572265625Q43.93513501342773,109.56181572265625,44.00741001342774,109.54743572265625Q44.07968401342774,109.53306572265625,44.15301901342774,109.52583572265625Q44.22635471342773,109.51861572265625,44.300045013427734,109.51861572265625Q44.42761001342773,109.51861572265625,44.553343013427735,109.54015572265625Q44.67907601342773,109.56169572265625,44.799366013427736,109.60416572265625Q44.91965601342773,109.64662572265625,45.031048013427736,109.70879572265625Q45.14243901342773,109.77095572265625,45.24173401342773,109.85104572265625Q45.34102501342773,109.93112572265625,45.42537501342773,110.02683072265626Q45.50971501342774,110.12253172265625,45.57669501342774,110.23110272265625Q45.643665013427736,110.33967272265625,45.691345013427735,110.45799272265624Q45.73901501342773,110.57631372265625,45.766025013427736,110.70098572265626L45.766175013427734,110.70163972265625Z" fill-rule="evenodd" fill="#544D4D" fill-opacity="1"/></g><g><path d="M225.598603515625,101.47969166640625Q225.599853515625,101.44911756640624,225.599853515625,101.41851806640625Q225.599853515625,101.34482776640625,225.592633515625,101.27149206640625Q225.585403515625,101.19815706640625,225.571033515625,101.12588306640625Q225.556653515625,101.05360806640626,225.535263515625,100.98309106640625Q225.513873515625,100.91257406640625,225.485673515625,100.84449306640624Q225.457473515625,100.77641206640625,225.422733515625,100.71142306640625Q225.387993515625,100.64643406640624,225.347053515625,100.58516306640625Q225.306113515625,100.52389106640625,225.259373515625,100.46692806640625Q225.212623515625,100.40996806640625,225.160513515625,100.35785806640625Q225.108403515625,100.30574806640625,225.051443515625,100.25899806640625Q224.994483515625,100.21225806640625,224.933203515625,100.17131806640624Q224.871933515625,100.13037806640625,224.806943515625,100.09563806640625Q224.741963515625,100.06089806640625,224.673873515625,100.03269806640625Q224.605793515625,100.00449806640626,224.535283515625,99.98310806640625Q224.464763515625,99.96171806640625,224.392483515625,99.94733806640625Q224.320213515625,99.93296806640625,224.246883515625,99.92573806640625Q224.173543515625,99.91851806640625,224.099853515625,99.91851806640625Q224.028083515625,99.91851806640625,223.956633515625,99.92536806640625Q223.885193515625,99.93222806640625,223.814723515625,99.94586806640625Q223.744263515625,99.95950806640624,223.675423515625,99.97981806640625Q223.606573515625,100.00012806640625,223.539993515625,100.02691806640625Q223.473403515625,100.05370806640624,223.409683515625,100.08672806640625Q223.345953515625,100.11975806640625,223.285673515625,100.15870806640625Q223.225393515625,100.19766806640625,223.169103515625,100.24220806640625Q223.112823515625,100.28673806640624,223.061043515625,100.33644806640625Q223.009273515625,100.38614806640625,222.962473515625,100.44057406640626Q222.915683515625,100.49499706640626,222.874303515625,100.55363806640625Q222.832913515625,100.61228006640626,222.797323515625,100.67460506640624Q222.761723515625,100.73693006640625,222.732243515625,100.80236906640626Q222.702763515625,100.86780706640624,222.679663515625,100.93576206640626Q222.656563515625,101.00371706640625,222.640053515625,101.07356706640626Q222.623553515625,101.14341706640624,222.613793515625,101.21452406640626Q222.604033515625,101.28563106640625,222.601103515625,101.35734446640625Q222.446913515625,105.13486806640626,221.798659515625,110.09314806640626Q221.419872515625,112.99031806640625,220.581224515625,118.21101806640625Q220.070593515625,121.38981806640625,219.894643515625,122.65971806640624Q219.599853515625,124.78721806640625,219.599853515625,125.81851806640626Q219.599853515625,128.10851806640625,221.113795215625,139.13511806640625Q221.864988515625,144.60621806640626,222.616283515625,149.63991806640627Q222.636023515625,149.77221806640625,222.678853515625,149.89891806640625Q222.721673515625,150.02561806640625,222.786233515625,150.14271806640625Q222.850793515625,150.25981806640624,222.935053515625,150.36361806640625Q223.019303515625,150.46751806640626,223.120603515625,150.55481806640626Q223.221903515625,150.64211806640625,223.337043515625,150.71011806640627Q223.452183515625,150.77811806640625,223.577543515625,150.82461806640626Q223.702893515625,150.87121806640624,223.834513515625,150.89481806640626Q223.966133515625,150.91851806640625,224.099853515625,150.91851806640625Q224.173543515625,150.91851806640625,224.246883515625,150.91131806640624Q224.320213515625,150.90411806640626,224.392483515625,150.88971806640626Q224.464763515625,150.87531806640624,224.535283515625,150.85391806640627Q224.605793515625,150.83251806640624,224.673873515625,150.80431806640627Q224.741963515625,150.77611806640624,224.806943515625,150.74141806640625Q224.871933515625,150.70661806640624,224.933203515625,150.66571806640624Q224.994483515625,150.62481806640625,225.051443515625,150.57801806640626Q225.108403515625,150.53131806640624,225.160513515625,150.47921806640625Q225.212623515625,150.42701806640625,225.259373515625,150.37011806640623Q225.306113515625,150.31311806640625,225.347053515625,150.25181806640626Q225.387993515625,150.19061806640624,225.422733515625,150.12561806640625Q225.457473515625,150.06061806640625,225.485673515625,149.99251806640626Q225.513873515625,149.92441806640625,225.535263515625,149.85391806640627Q225.556653515625,149.78341806640626,225.571033515625,149.71111806640624Q225.585403515625,149.63891806640623,225.592633515625,149.56551806640624Q225.599853515625,149.49221806640625,225.599853515625,149.41851806640625Q225.599853515625,149.30721806640625,225.583423515625,149.19711806640623Q224.834703515625,144.18071806640626,224.085913515625,138.72701806640626Q222.599853515625,127.90351806640625,222.599853515625,125.81851806640626Q222.599853515625,124.99401806640626,222.866253515625,123.07141806640625Q223.037763515625,121.83361806640625,223.543253515625,118.68691806640625Q224.388863515625,113.42281806640625,224.773343515625,110.48206806640624Q225.438863515625,105.39175806640625,225.598553515625,101.48085196640625L225.598603515625,101.47969166640625L225.598603515625,101.47969166640625Z" fill-rule="evenodd" fill="#544D4D" fill-opacity="1"/></g><g><path d="M76.39990234375,112.31854248046875C76.39990234375,112.31854248046875,76.39990234375,124.21854248046876,76.39990234375,124.21854248046876C81.89990234375,124.61854248046875,105.09990234375,124.01854248046875,105.09990234375,124.01854248046875C105.09990234375,124.01854248046875,76.39990234375,112.31854248046875,76.39990234375,112.31854248046875Z" fill="#FFFFFF" fill-opacity="1"/></g><g><path d="M69.2884,121.92801130859375Q78.6561,123.08811030859376,96.40469999999999,122.61844130859375Q101.9928,122.47057130859375,107.75280000000001,122.17478130859375Q110.56739999999999,122.03025130859375,112.3084,121.91432130859376Q112.4039,121.90359130859375,112.5,121.90359130859375Q112.5843,121.90359130859375,112.66810000000001,121.91185130859375Q112.7519,121.92011130859375,112.8346,121.93654130859375Q112.91720000000001,121.95298130859375,112.9978,121.97744130859375Q113.07849999999999,122.00189130859376,113.1563,122.03414130859375Q113.2341,122.06638130859375,113.3084,122.10610130859375Q113.3827,122.14581130859375,113.4528,122.19262130859374Q113.52279999999999,122.23943130859375,113.588,122.29288130859375Q113.6531,122.34633130859375,113.7127,122.40590130859376Q113.7723,122.46548130859375,113.8257,122.53061130859375Q113.8792,122.59573130859376,113.926,122.66578830859375Q113.9728,122.73584230859375,114.0125,122.81014630859374Q114.0522,122.88445030859376,114.0844,122.96228930859375Q114.11670000000001,123.04012830859375,114.1411,123.12075330859375Q114.1656,123.20137830859375,114.182,123.28401130859375Q114.1985,123.36664530859375,114.2067,123.45049230859375Q114.215,123.53433880859374,114.215,123.61859130859375Q114.215,123.70168430859376,114.207,123.78438830859375Q114.19890000000001,123.86709130859376,114.18289999999999,123.94863130859375Q114.167,124.03017130859375,114.14320000000001,124.10978330859375Q114.1194,124.18939530859375,114.088,124.26633330859374Q114.0566,124.34327230859375,114.0179,124.41681630859375Q113.97919999999999,124.49036030859375,113.9336,124.55982030859376Q113.888,124.62928130859375,113.83590000000001,124.69401130859374Q113.7838,124.75873130859375,113.7257,124.81812130859375Q113.6676,124.87751130859375,113.604,124.93100130859375Q113.5404,124.98449130859375,113.47200000000001,125.03158130859374Q113.40350000000001,125.07867130859375,113.33080000000001,125.11892130859376Q113.2581,125.15917130859376,113.1819,125.19221130859376Q113.10560000000001,125.22525130859376,113.0265,125.25076130859375Q112.94749999999999,125.27627130859375,112.8663,125.29402130859376Q112.7851,125.31176130859374,112.70259999999999,125.32158130859375Q112.62010000000001,125.33140130859375,112.537,125.33319130859375Q110.7697,125.45087130859375,107.9285,125.59677130859374Q102.126,125.89474130859375,96.4953,126.04374130859375Q78.48887,126.52023130859375,68.865326,125.32829130859375Q68.785543,125.32201130859374,68.706692,125.30832130859375Q68.627842,125.29464130859375,68.550608,125.27366130859374Q68.473374,125.25269130859375,68.39843,125.22462130859375Q68.323485,125.19655130859375,68.251479,125.16162130859375Q68.179474,125.12669130859375,68.111035,125.08521130859376Q68.042596,125.04372130859375,67.97832,124.99605130859375Q67.91404,124.94837130859375,67.85448,124.89492130859375Q67.79492,124.84146130859375,67.7406,124.78269130859375Q67.68628,124.72392130859375,67.63766,124.66035130859375Q67.58905,124.59677530859375,67.54657,124.52895130859375Q67.50408,124.46112730859375,67.4681,124.38964230859375Q67.43212,124.31815630859376,67.40296,124.24363130859375Q67.37379,124.16910530859376,67.35169,124.09218730859375Q67.32959,124.01526930859374,67.31475,123.93662730859376Q67.29991,123.85798530859375,67.29245,123.77830330859375Q67.285,123.69862130859374,67.285,123.61859130859375Q67.285,123.53433880859374,67.29326,123.45049230859375Q67.30152,123.36664530859375,67.31795,123.28401130859375Q67.33439,123.20137830859375,67.35885,123.12075330859375Q67.3833,123.04012830859375,67.41555,122.96228930859375Q67.44779,122.88445030859376,67.48751,122.81014630859374Q67.52722,122.73584230859375,67.57403,122.66578830859375Q67.62084,122.59573130859376,67.67429,122.53061130859375Q67.72774,122.46548130859375,67.78731,122.40590130859376Q67.84689,122.34633130859375,67.91202,122.29288130859375Q67.97714,122.23943130859375,68.047197,122.19262130859374Q68.117251,122.14581130859375,68.191555,122.10610130859375Q68.265859,122.06638130859375,68.343698,122.03414130859375Q68.421537,122.00189130859376,68.502162,121.97744130859375Q68.582787,121.95298130859375,68.66542,121.93654130859375Q68.748054,121.92011130859375,68.831901,121.91185130859375Q68.9157475,121.90359130859375,69,121.90359130859375Q69.145234,121.90359130859375,69.2884,121.92801130859375Z" fill-rule="evenodd" fill="#544D4D" fill-opacity="1"/></g><g><path d="M187.899951171875,154.31861572265626C187.899951171875,154.31861572265626,172.899951171875,180.51861572265625,172.899951171875,181.11861572265624C172.899951171875,181.71861572265624,141.199951171875,160.11861572265624,141.199951171875,160.11861572265624C141.199951171875,160.11861572265624,144.799961171875,85.51861572265625,144.799961171875,85.51861572265625C161.499951171875,85.61861572265624,164.499951171875,82.51861572265625,164.499951171875,82.51861572265625C164.499951171875,82.51861572265625,187.899951171875,154.31861572265626,187.899951171875,154.31861572265626Z" fill="#D85656" fill-opacity="1"/></g><g><path d="M166.39984921875,83.61861953735351C159.49984921875,89.81861953735351,144.19985921875,86.61861953735351,144.19985921875,86.61861953735351C144.19985921875,86.61861953735351,134.69985921875,81.21861953735352,136.49986321875,77.81861953735351C138.29985921875,74.41861953735352,151.99984921875,61.518619537353516,151.99984921875,61.518619537353516C151.99984921875,61.518619537353516,168.79984921875,71.21862953735352,169.49984921875,75.21861953735352C170.29984921875,79.31861953735351,166.39984921875,83.61861953735351,166.39984921875,83.61861953735351Z" fill="#EA6363" fill-opacity="1"/></g><g><path d="M82.899983875,23.918568801879882C81.899983875,29.11856880187988,82.299977775,34.61856880187988,84.299976875,39.61856880187988C93.699946875,63.61856880187988,116.699946875,82.41856880187989,125.299946875,88.81856880187988C127.099946875,90.11856880187989,129.599946875,89.81856880187988,130.999946875,88.01856880187988C130.999946875,88.01856880187988,151.999946875,61.51856880187988,151.999946875,61.51856880187988C118.199946875,50.71856880187988,94.699946875,22.61856880187988,90.999976875,10.718568801879883C90.999976875,10.718568801879883,89.699966875,11.018556801879884,89.699966875,11.018556801879884C86.899976875,11.618556801879883,84.699966875,13.918578801879882,84.199966875,16.818578801879884C84.199966875,16.818578801879884,82.899983875,23.918568801879882,82.899983875,23.918568801879882Z" fill="#FFFFFF" fill-opacity="1"/></g><g><path d="M172.79990234375,24.718568801879883C169.19990234375,26.418568801879882,165.29990234375,27.718558801879883,161.19989234375,28.61855880187988C164.19990234375,49.818568801879884,151.89990234375,61.51856880187988,151.89990234375,61.51856880187988C151.89990234375,61.51856880187988,172.99990234375,81.21856880187988,172.99990234375,81.21856880187988C175.49990234375,83.51856880187988,179.39990234375,82.21856880187988,179.99990234375,78.91856880187989C183.59990234375,58.51856880187988,179.29990234375,41.418568801879886,175.89990234375,32.118558801879885C174.29990234375,27.61855880187988,172.89990234375,24.918568801879882,172.79990234375,24.718568801879883Z" fill="#FFFFFF" fill-opacity="1"/></g></g></svg>