<svg xmlns="http://www.w3.org/2000/svg" xmlns:xlink="http://www.w3.org/1999/xlink" fill="none" version="1.1" width="290" height="190" viewBox="0 0 290 190"><defs><mask id="master_svg0_0_973" style="mask-type:alpha" maskUnits="objectBoundingBox"><g><path d="M168.287158203125,26.299999155273436C167.687158203125,26.499999155273436,167.187158203125,26.700009155273438,166.587158203125,26.900009155273438C164.787158203125,27.50000915527344,162.987158203125,28.00000915527344,161.087158203125,28.400009155273438C161.087158203125,28.400009155273438,161.887158203125,31.700009155273438,161.887158203125,31.700009155273438C162.287158203125,33.200009155273435,163.087158203125,34.700009155273435,164.287158203125,35.700009155273435C166.387158203125,39.200009155273435,163.087158203125,40.700009155273435,161.787158203125,47.300009155273436C159.687158203125,57.60000915527344,151.687158203125,61.300009155273436,128.787158203125,52.00000915527344C100.687158203125,40.700009155273435,91.587158203125,20.299999155273436,91.587158203125,20.299999155273436C91.587158203125,19.800003155273437,91.487158203125,19.400009155273438,91.487158203125,18.900009155273438C87.487158203125,20.00000915527344,82.287158203125,21.499999155273436,76.587158203125,23.499999155273436C56.387158203125,30.700009155273438,29.287158203125,44.60000915527344,17.787158203125,69.60000915527344C2.587158203125,102.70000915527343,1.087158203125,149.10000915527343,1.087158203125,149.10000915527343C1.087158203125,149.10000915527343,253.887158203125,149.10000915527343,253.887158203125,149.10000915527343C253.887158203125,149.10000915527343,249.287158203125,78.70000915527343,223.487158203125,57.00000915527344C200.587158203125,37.800009155273436,181.187158203125,29.700009155273438,168.287158203125,26.299999155273436Z" fill="#FFFFFF" fill-opacity="1"/></g></mask></defs><g><g><g><path d="M168.2869140625,26.299999155273436C167.6869140625,26.499999155273436,167.1869140625,26.700009155273438,166.5869140625,26.900009155273438C164.7869140625,27.50000915527344,162.9869140625,28.00000915527344,161.0869140625,28.400009155273438C161.0869140625,28.400009155273438,161.8869140625,31.700009155273438,161.8869140625,31.700009155273438C162.2869140625,33.200009155273435,163.0869140625,34.700009155273435,164.2869140625,35.700009155273435C166.3869140625,39.200009155273435,163.0869140625,40.700009155273435,161.7869140625,47.300009155273436C159.6869140625,57.60000915527344,151.6869140625,61.300009155273436,128.7869140625,52.00000915527344C100.6869140625,40.700009155273435,91.5869140625,20.299999155273436,91.5869140625,20.299999155273436C91.5869140625,19.800003155273437,91.4869140625,19.400009155273438,91.4869140625,18.900009155273438C87.4869140625,20.00000915527344,82.2869140625,21.499999155273436,76.5869140625,23.499999155273436C56.3869140625,30.700009155273438,29.2869140625,44.60000915527344,17.7869140625,69.60000915527344C2.5869140625,102.70000915527343,1.0869140625,149.10000915527343,1.0869140625,149.10000915527343C1.0869140625,149.10000915527343,253.8869140625,149.10000915527343,253.8869140625,149.10000915527343C253.8869140625,149.10000915527343,249.2869140625,78.70000915527343,223.4869140625,57.00000915527344C200.5869140625,37.800009155273436,181.1869140625,29.700009155273438,168.2869140625,26.299999155273436Z" fill="#CC5292" fill-opacity="1"/></g><g mask="url(#master_svg0_0_973)"><g><g><g><path d="M21.205825390625,112.80750610351564Q29.345525390625,109.90000610351562,33.032925390625,102.02350610351563Q36.711625390625,94.16550610351563,33.799825390625,85.99640610351562Q31.619825390625003,79.77913610351563,26.163125390625,75.93612610351562Q20.716225390625,72.10000610351562,14.086925390625002,72.10000610351562Q10.372425390625,72.10000610351562,6.974025390625,73.39025710351562Q-1.1522946093749997,76.21826610351563,-4.871619609375,84.16410610351562Q-8.595614609375,92.11990610351563,-5.621091609375,100.21720610351562Q-3.4459646093750003,106.42090610351562,2.0107053906249996,110.26390610351562Q7.457625390624999,114.10000610351562,14.086925390625002,114.10000610351562Q17.804625390625,114.10000610351562,21.205825390625,112.80750610351564ZM30.315925390624997,100.75150610351562Q27.155825390624997,107.50180610351563,20.183325390625,109.98710610351563L20.152925390625,109.99830610351563Q17.260825390625,111.10000610351562,14.086925390625002,111.10000610351562Q8.407925390625,111.10000610351562,3.738125390624999,107.81110610351563Q-0.9329246093750001,104.52140610351563,-2.805084609375,99.18280610351562Q-5.348431609375,92.25920610351562,-2.154544609375,85.43590610351562Q1.0326153906249997,78.62697610351563,7.978525390625,76.21715610351562Q7.999825390625,76.20976610351562,8.020925390625,76.20174610351563Q10.913025390624998,75.10000610351562,14.086925390625002,75.10000610351562Q19.765825390625,75.10000610351562,24.435725390625,78.38888610351563Q29.106725390625,81.67859610351563,30.974025390625002,87.00360610351562Q33.471525390625,94.01070610351562,30.315925390624997,100.75150610351562Z" fill-rule="evenodd" fill="#6F2696" fill-opacity="1"/></g><g><path d="M5.286914007263183,96.2999958984375C6.986919007263184,101.19999589843749,12.486919007263182,103.7999958984375,17.386909007263185,101.9999958984375C22.286909007263183,100.2999958984375,24.886909007263185,94.7999958984375,23.086909007263184,89.8999858984375C21.286909007263183,84.9999858984375,15.886909007263183,82.4000058984375,10.986919007263182,84.2000038984375C6.086919007263184,85.9000058984375,3.4869190072631833,91.4000058984375,5.286914007263183,96.2999958984375Z" fill="#FFFFFF" fill-opacity="1"/></g><g><path d="M36.586925390625,66.5Q40.146025390625,66.5,43.689225390625,65.21340000000001Q51.823725390625,62.3869,55.545425390625,54.435900000000004Q59.269425390625,46.4801,56.294925390625,38.3828Q54.119825390625,32.17915,48.663125390625,28.33613Q43.216225390625,24.5,36.586925390625,24.5Q32.872425390625,24.5,29.474025390625002,25.790247Q21.347705390625002,28.61826,17.628378390625,36.564099999999996Q13.904385390625,44.5199,16.878909390625,52.6172Q19.054035390625,58.8209,24.510705390625,62.6639Q29.957625390624997,66.5,36.586925390625,66.5ZM52.828425390625,53.164100000000005Q49.641225390625,59.973,42.695225390625,62.3829L42.674325390625,62.3903Q39.622625390625004,63.5,36.586925390625,63.5Q30.907925390625,63.5,26.238125390625,60.2111Q21.567075390625,56.9214,19.694915390625,51.5828Q17.151569390625,44.6592,20.345445390625,37.8359Q23.532615390625,31.02697,30.478525390625002,28.61715Q30.499825390625,28.60976,30.520925390625003,28.60174Q33.413025390624995,27.5,36.586925390625,27.5Q42.265825390625,27.5,46.935725390624995,30.78888Q51.606725390625,34.07861,53.478925390625,39.4172Q56.022225390625,46.3408,52.828425390625,53.164100000000005Z" fill-rule="evenodd" fill="#6F2696" fill-opacity="1"/></g><g><path d="M27.686912672119142,48.69999665527344C29.38691767211914,53.599996655273436,34.88691767211914,56.19999665527344,39.78690767211914,54.39999665527344C44.68690767211914,52.69999665527344,47.28690767211914,47.19999665527344,45.486907672119145,42.300006655273435C43.68690767211914,37.300006655273435,38.28690767211914,34.800006655273435,33.38691767211914,36.60000765527344C28.48691767211914,38.300006655273435,25.88691767211914,43.80001665527344,27.686912672119142,48.69999665527344Z" fill="#FFFFFF" fill-opacity="1"/></g><g><path d="M65.80579047851563,18.207500000000003Q62.404690478515626,19.5,58.68689047851562,19.5Q52.05759047851562,19.5,46.610700478515625,15.663899999999998Q41.15403047851562,11.820900000000002,38.973984478515625,5.6036Q36.06223047851562,-2.5655,39.74090547851562,-10.4235Q43.43172047851562,-18.30741,51.55289047851562,-21.201719Q54.96089047851562,-22.5,58.68689047851562,-22.5Q65.31629047851563,-22.5,70.76309047851562,-18.66387Q76.21979047851562,-14.82085,78.39989047851563,-8.6036Q81.31159047851563,-0.4344999999999999,77.63289047851563,7.423500000000001Q73.94559047851563,15.3001,65.80579047851563,18.207500000000003ZM74.91589047851562,6.151499999999999Q71.75579047851562,12.901800000000001,64.78329047851562,15.387099999999997L64.75289047851562,15.398299999999999Q61.86089047851563,16.5,58.68689047851562,16.5Q53.00799047851562,16.5,48.33812047851563,13.211100000000002Q43.667070478515626,9.921399999999998,41.79984047851563,4.596399999999999Q39.302256578515625,-2.4106999999999985,42.45791047851562,-9.1515Q45.61803047851563,-15.901810000000001,52.620890478515626,-18.39826Q55.512990478515626,-19.5,58.68689047851562,-19.5Q64.36589047851562,-19.5,69.03569047851562,-16.21112Q73.70679047851561,-12.92139,75.57399047851563,-7.596399999999999Q78.07159047851562,-0.5893000000000015,74.91589047851562,6.151499999999999Z" fill-rule="evenodd" fill="#6F2696" fill-opacity="1"/></g><g><path d="M49.7869159609375,1.700005053710937C51.4869199609375,6.600005053710937,56.9869099609375,9.200005053710939,61.8869099609375,7.400005053710938C66.78690996093749,5.700005053710939,69.3869099609375,0.20000505371093702,67.5869099609375,-4.6999949462890624C65.8869099609375,-9.599994946289062,60.3869099609375,-12.199984946289062,55.4869099609375,-10.399988946289062C50.5869099609375,-8.699984946289062,47.9869199609375,-3.199984946289063,49.7869159609375,1.700005053710937Z" fill="#FFFFFF" fill-opacity="1"/></g><g><path d="M78.59992310180664,113.00971831054687Q75.20142310180664,114.30001831054688,71.48692310180664,114.30001831054688Q64.85752310180663,114.30001831054688,59.41069310180664,110.46391831054687Q53.954033101806644,106.62081831054687,51.77890810180664,100.41721831054687Q48.80438310180664,92.31991831054688,52.52837510180664,84.36411831054687Q56.24771310180664,76.41824831054687,64.37402310180664,73.59023331054688Q67.77232310180665,72.30001831054688,71.48692310180664,72.30001831054688Q78.11622310180664,72.30001831054688,83.56312310180664,76.13613831054687Q89.01982310180665,79.97915831054688,91.19492310180664,86.18281831054688Q94.16942310180664,94.28011831054687,90.44542310180664,102.23591831054688Q86.72612310180665,110.18171831054687,78.59992310180664,113.00971831054687ZM87.72832310180664,100.96411831054688Q84.54122310180665,107.77301831054687,77.59522310180664,110.18291831054688Q77.57392310180664,110.19021831054687,77.55292310180664,110.19831831054688Q74.66082310180664,111.30001831054688,71.48692310180664,111.30001831054688Q65.80792310180664,111.30001831054688,61.13812310180664,108.01111831054688Q56.46707310180664,104.72141831054688,54.59491310180664,99.38271831054688Q52.05156610180664,92.45921831054687,55.24544310180664,85.63591831054687Q58.43261310180664,78.82695831054687,65.37852310180664,76.41713831054687Q65.39982310180665,76.40974831054687,65.42092310180664,76.40172831054687Q68.31292310180663,75.30001831054688,71.48692310180664,75.30001831054688Q77.16582310180664,75.30001831054688,81.83572310180664,78.58889831054688Q86.50672310180664,81.87860831054688,88.37892310180663,87.21721831054687Q90.92222310180665,94.14081831054688,87.72832310180664,100.96411831054688Z" fill-rule="evenodd" fill="#6F2696" fill-opacity="1"/></g><g><path d="M62.58691038330078,96.49996918945313C64.28691538330078,101.39996918945312,69.78691538330078,103.99996918945313,74.68690538330078,102.19996918945313C79.58690538330077,100.49996918945313,82.18690538330078,94.99996918945313,80.38690538330079,90.09997918945312C78.58690538330077,85.09997918945312,73.18690538330078,82.59997918945312,68.28691538330078,84.39998018945313C63.38691538330078,86.09997918945312,60.78691538330078,91.59998918945313,62.58691038330078,96.49996918945313Z" fill="#FFFFFF" fill-opacity="1"/></g><g><path d="M100.99992844238281,65.30970610351562Q97.60152844238281,66.60000610351562,93.88692844238281,66.60000610351562Q87.2575284423828,66.60000610351562,81.81070844238282,62.76390610351562Q76.35403844238282,58.92090610351563,74.17891044238281,52.71720610351562Q71.20437844238282,44.619906103515625,74.92838444238281,36.66410610351562Q78.64770844238281,28.718256103515625,86.77402844238281,25.890241103515624Q90.17242844238281,24.600006103515625,93.88692844238281,24.600006103515625Q100.51622844238281,24.600006103515625,105.96312844238281,28.436126103515626Q111.41982844238282,32.27914610351563,113.59492844238281,38.48280610351563Q116.56942844238282,46.580106103515625,112.84542844238281,54.53590610351563Q109.12612844238282,62.48170610351563,100.99992844238281,65.30970610351562ZM110.12842844238281,53.26410610351563Q106.94122844238282,60.073006103515624,99.99522844238281,62.482906103515624Q99.97392844238281,62.49030610351563,99.95292844238281,62.498306103515624Q97.06092844238282,63.600006103515625,93.88692844238281,63.600006103515625Q88.20792844238281,63.600006103515625,83.53812844238281,60.31110610351563Q78.86707844238282,57.02140610351562,76.99491844238281,51.682806103515624Q74.45156864238281,44.75920610351562,77.64545844238282,37.93590610351563Q80.83262844238281,31.126956103515624,87.77862844238281,28.717136103515625Q87.79982844238282,28.709756103515623,87.82092844238281,28.701736103515625Q90.7129284423828,27.600006103515625,93.88692844238281,27.600006103515625Q99.56582844238281,27.600006103515625,104.23572844238281,30.888886103515624Q108.90672844238281,34.17859610351562,110.7789284423828,39.517206103515626Q113.32222844238282,46.44080610351563,110.12842844238281,53.26410610351563Z" fill-rule="evenodd" fill="#6F2696" fill-opacity="1"/></g><g><path d="M85.08691038330078,48.800011157226564C86.78691538330078,53.70001115722656,92.28691538330078,56.300011157226564,97.18690538330078,54.50001115722657C102.08690538330077,52.800011157226564,104.68690538330078,47.300011157226564,102.88690538330079,42.40000115722656C101.08690538330077,37.50000115722656,95.68690538330078,34.90002115722656,90.78691538330078,36.70001915722656C85.88691538330077,38.40002115722656,83.28691538330078,43.90002115722656,85.08691038330078,48.800011157226564Z" fill="#FFFFFF" fill-opacity="1"/></g><g><path d="M56.10579353027344,160.60749389648439Q52.70469353027344,161.89999389648438,48.986893530273434,161.89999389648438Q42.357593530273434,161.89999389648438,36.91070353027344,158.0638938964844Q31.45403353027344,154.22089389648437,29.273987530273438,148.00359389648438Q26.362233530273436,139.8344938964844,30.040908530273438,131.97649389648439Q33.731723530273435,124.09258389648437,41.852893530273434,121.19827489648438Q45.260893530273435,119.89999389648438,48.986893530273434,119.89999389648438Q55.61629353027344,119.89999389648438,61.063093530273434,123.73612389648437Q66.51979353027343,127.57914389648437,68.69989353027344,133.79639389648437Q71.61159353027344,141.96549389648436,67.93289353027345,149.82349389648436Q64.24559353027344,157.70009389648436,56.10579353027344,160.60749389648439ZM65.21589353027343,148.55149389648437Q62.05579353027344,155.30179389648438,55.08329353027344,157.78709389648438L55.05289353027344,157.79829389648438Q52.16089353027344,158.89999389648438,48.986893530273434,158.89999389648438Q43.307993530273436,158.89999389648438,38.63812353027344,155.61109389648436Q33.96707353027344,152.32139389648438,32.09984353027344,146.99639389648436Q29.602259630273437,139.98929389648438,32.757913530273434,133.24849389648438Q35.91803353027344,126.49818389648438,42.92089353027344,124.00173389648438Q45.81299353027344,122.89999389648438,48.986893530273434,122.89999389648438Q54.665893530273436,122.89999389648438,59.33569353027344,126.18887389648438Q64.00679353027343,129.47860389648437,65.87399353027344,134.8035938964844Q68.37159353027343,141.81069389648437,65.21589353027343,148.55149389648437Z" fill-rule="evenodd" fill="#6F2696" fill-opacity="1"/></g><g><path d="M40.18691267211914,144.09998369140624C41.88691767211914,148.99998369140624,47.38691767211914,151.59998369140624,52.28690767211914,149.79998369140625C57.18690767211914,148.09998369140624,59.78690767211914,142.59998369140624,57.986907672119145,137.70000369140624C56.18690767211914,132.80000369140626,50.78690767211914,130.19998369140626,45.88691767211914,131.99998769140626C40.98691767211914,133.69998369140626,38.38691767211914,139.19999369140626,40.18691267211914,144.09998369140624Z" fill="#FFFFFF" fill-opacity="1"/></g><g><path d="M123.222725390625,18.301406103515625Q120.028725390625,19.600006103515625,116.086925390625,19.600006103515625Q109.457525390625,19.600006103515625,104.010705390625,15.763906103515623Q98.554035390625,11.920906103515627,96.378910390625,5.717206103515625Q93.404375390625,-2.380093896484375,97.128377390625,-10.335893896484375Q100.847715390625,-18.281753896484375,108.974025390625,-21.109763896484374Q112.372425390625,-22.399993896484375,116.086925390625,-22.399993896484375Q122.716225390625,-22.399993896484375,128.163125390625,-18.563873896484374Q133.619825390625,-14.720853896484375,135.79982539062502,-8.503593896484375Q138.711625390625,-0.3344938964843749,135.032925390625,7.523506103515626Q131.34942539062502,15.391906103515623,123.222725390625,18.301406103515625ZM132.315925390625,6.251506103515624Q129.155825390625,13.001806103515626,122.183325390625,15.487106103515622Q122.150825390625,15.498606103515627,122.11892539062501,15.511706103515628Q119.458625390625,16.600006103515625,116.086925390625,16.600006103515625Q110.407925390625,16.600006103515625,105.738125390625,13.311106103515627Q101.067075390625,10.021406103515623,99.194915390625,4.682806103515624Q96.651565590625,-2.2407938964843765,99.845445390625,-9.064093896484374Q103.032615390625,-15.873043896484376,109.978525390625,-18.282863896484375Q109.999825390625,-18.290243896484377,110.020925390625,-18.298263896484375Q112.91292539062499,-19.399993896484375,116.086925390625,-19.399993896484375Q121.765825390625,-19.399993896484375,126.435725390625,-16.111113896484376Q131.106725390625,-12.821403896484375,132.974025390625,-7.496393896484374Q135.471525390625,-0.4892938964843765,132.315925390625,6.251506103515624Z" fill-rule="evenodd" fill="#6F2696" fill-opacity="1"/></g><g><path d="M107.18691748681641,1.800011157226562C108.8869214868164,6.700011157226562,114.3869114868164,9.300011157226564,119.28691148681641,7.500011157226563C124.1869114868164,5.800011157226564,126.78691148681641,0.300011157226562,124.98691148681641,-4.5999888427734374C123.1869114868164,-9.499988842773437,117.78691148681641,-12.099978842773437,112.8869114868164,-10.299982842773437C107.98691148681641,-8.599978842773437,105.3869214868164,-3.0999888427734374,107.18691748681641,1.800011157226562Z" fill="#FFFFFF" fill-opacity="1"/></g><g><path d="M115.199925390625,157.10969389648437Q111.801525390625,158.39999389648438,108.086925390625,158.39999389648438Q101.457525390625,158.39999389648438,96.010705390625,154.5638938964844Q90.554035390625,150.72089389648437,88.378910390625,144.51719389648437Q85.404385390625,136.41989389648438,89.128377390625,128.46409389648437Q92.847715390625,120.51825389648438,100.974025390625,117.69023889648437Q104.372425390625,116.39999389648438,108.086925390625,116.39999389648438Q114.716225390625,116.39999389648438,120.163125390625,120.23613389648438Q125.61982539062501,124.07915389648437,127.794925390625,130.28279389648438Q130.769425390625,138.38009389648437,127.045425390625,146.33589389648438Q123.32612539062501,154.28169389648437,115.199925390625,157.10969389648437ZM124.328425390625,145.06409389648437Q121.14122539062501,151.87309389648436,114.195225390625,154.28289389648438Q114.173925390625,154.29029389648437,114.152925390625,154.29829389648438Q111.260925390625,155.39999389648438,108.086925390625,155.39999389648438Q102.407925390625,155.39999389648438,97.738125390625,152.11109389648436Q93.067075390625,148.82139389648438,91.194915390625,143.48279389648437Q88.651568390625,136.55919389648437,91.845445390625,129.73589389648438Q95.032615390625,122.92696389648438,101.978525390625,120.51714389648437Q101.999825390625,120.50975389648437,102.020925390625,120.50173389648438Q104.913025390625,119.39999389648438,108.086925390625,119.39999389648438Q113.765825390625,119.39999389648438,118.435725390625,122.68888389648437Q123.106725390625,125.97861389648438,124.978925390625,131.3172938964844Q127.52222539062501,138.24079389648438,124.328425390625,145.06409389648437Z" fill-rule="evenodd" fill="#6F2696" fill-opacity="1"/></g><g><path d="M99.18691748681641,140.59998369140624C100.8869214868164,145.49998369140624,106.3869114868164,148.09998369140624,111.28691148681641,146.29998369140625C116.1869114868164,144.59998369140624,118.78691148681641,139.09998369140624,116.98691148681641,134.20000369140624C115.28691148681641,129.30000369140626,109.78691148681641,126.69998369140625,104.8869114868164,128.49998769140626C99.98691148681641,130.19998369140626,97.3869214868164,135.69999369140626,99.18691748681641,140.59998369140624Z" fill="#FFFFFF" fill-opacity="1"/></g><g><path d="M130.58689963378907,110.80001831054688Q134.14599963378907,110.80001831054688,137.68919963378906,109.51341831054688Q145.82369963378906,106.68691831054687,149.54549963378906,98.73591831054688Q153.26939963378908,90.78011831054687,150.29489963378907,82.68281831054688Q148.11979963378906,76.47915831054688,142.66309963378907,72.63613831054687Q137.21629963378905,68.80001831054688,130.58689963378907,68.80001831054688Q126.86079963378906,68.80001831054688,123.45289963378906,70.09826831054687Q115.33173963378906,72.99257831054688,111.64091763378906,80.87651831054687Q107.96223963378907,88.73451831054687,110.87399063378906,96.90361831054688Q113.05403963378906,103.12081831054687,118.51069963378906,106.96391831054687Q123.95759963378906,110.80001831054688,130.58689963378907,110.80001831054688ZM146.82839963378905,97.46411831054688Q143.64119963378906,104.27301831054687,136.69529963378906,106.68291831054688L136.67429963378908,106.69031831054687Q133.62259963378906,107.80001831054688,130.58689963378907,107.80001831054688Q124.90799963378906,107.80001831054688,120.23812963378906,104.51111831054688Q115.56707963378906,101.22141831054688,113.69984963378906,95.89641831054688Q111.20226383378906,88.88921831054688,114.35792963378907,82.14851831054688Q117.51803963378906,75.39817831054688,124.52089963378906,72.90172831054687Q127.41289963378907,71.80001831054688,130.58689963378907,71.80001831054688Q136.26589963378905,71.80001831054688,140.93569963378906,75.08889831054688Q145.60679963378905,78.37860831054688,147.47889963378907,83.71721831054687Q150.02229963378906,90.64081831054688,146.82839963378905,97.46411831054688Z" fill-rule="evenodd" fill="#6F2696" fill-opacity="1"/></g><g><path d="M121.68692511621094,92.99996918945313C123.38692911621094,97.89996918945312,128.88691911621095,100.49996918945313,133.78691911621092,98.69996918945313C138.68691911621093,96.99996918945313,141.28691911621092,91.49996918945313,139.48691911621094,86.59998918945313C137.68691911621093,81.59998918945313,132.28691911621092,79.09997918945312,127.38691911621093,80.89997818945312C122.48691911621094,82.59997918945312,119.88692911621094,88.09998918945313,121.68692511621094,92.99996918945313Z" fill="#FFFFFF" fill-opacity="1"/></g><g><path d="M159.80579047851563,62.507503051757816Q156.40469047851562,63.80000305175781,152.68689047851564,63.80000305175781Q146.05759047851564,63.80000305175781,140.61070047851564,59.96390305175781Q135.15403047851564,56.120903051757814,132.97398447851563,49.90360305175781Q130.06223047851563,41.73450305175781,133.74090547851563,33.87650305175781Q137.43172047851562,25.992573051757812,145.55289047851562,23.098268051757813Q148.96089047851564,21.800003051757812,152.68689047851564,21.800003051757812Q159.3162904785156,21.800003051757812,164.76309047851564,25.636133051757813Q170.21979047851562,29.479153051757812,172.39989047851563,35.69640305175781Q175.31159047851563,43.86550305175781,171.63289047851563,51.72350305175782Q167.9455904785156,59.60010305175781,159.80579047851563,62.507503051757816ZM168.91589047851562,50.45150305175781Q165.75579047851562,57.201803051757814,158.78329047851562,59.68710305175781L158.7528904785156,59.69830305175781Q155.8608904785156,60.80000305175781,152.68689047851564,60.80000305175781Q147.00799047851564,60.80000305175781,142.33812047851563,57.511103051757814Q137.66707047851563,54.22140305175781,135.79984047851562,48.896403051757815Q133.30225657851562,41.889303051757814,136.45791047851563,35.148503051757814Q139.61803047851564,28.398173051757812,146.62089047851563,25.901733051757812Q149.51289047851563,24.800003051757812,152.68689047851564,24.800003051757812Q158.3658904785156,24.800003051757812,163.03569047851562,28.08888305175781Q167.70679047851561,31.37861305175781,169.5739904785156,36.70360305175781Q172.07159047851562,43.71070305175781,168.91589047851562,50.45150305175781Z" fill-rule="evenodd" fill="#6F2696" fill-opacity="1"/></g><g><path d="M143.7869139609375,45.99999970703125C145.4869099609375,50.89999970703125,150.9869199609375,53.49999970703125,155.8869099609375,51.69999970703125C160.7869099609375,49.99999970703125,163.3869099609375,44.49999970703125,161.5869099609375,39.60000970703125C159.8869099609375,34.60000970703125,154.3869099609375,32.10000970703125,149.4869299609375,33.90001070703125C144.5869299609375,35.60000970703125,141.9869099609375,41.09999970703125,143.7869139609375,45.99999970703125Z" fill="#FFFFFF" fill-opacity="1"/></g><g><path d="M172.62269353027344,157.2015Q169.42869353027345,158.5,165.48689353027345,158.5Q158.85759353027345,158.5,153.41070353027345,154.6639Q147.95403353027345,150.8209,145.77398753027344,144.6036Q142.86223353027344,136.4345,146.54090853027344,128.5765Q150.23172353027343,120.69259,158.35289353027343,117.798281Q161.76089353027345,116.5,165.48689353027345,116.5Q172.11629353027342,116.5,177.56309353027345,120.33612Q183.01979353027343,124.17914,185.19979353027344,130.3964Q188.11159353027344,138.5655,184.43289353027345,146.4235Q180.74939353027344,154.2919,172.62269353027344,157.2015ZM181.71589353027343,145.1515Q178.55579353027343,151.9018,171.58329353027344,154.3871Q171.55079353027344,154.3987,171.51899353027343,154.4117Q168.85869353027343,155.5,165.48689353027345,155.5Q159.80799353027345,155.5,155.13812353027345,152.2111Q150.46707353027344,148.9214,148.59984353027343,143.5964Q146.10225963027344,136.5893,149.25791353027344,129.8485Q152.41803353027345,123.09819,159.42089353027345,120.60174Q162.31299353027345,119.5,165.48689353027345,119.5Q171.16589353027342,119.5,175.83569353027343,122.78887Q180.50669353027342,126.07859,182.37399353027342,131.4036Q184.87159353027343,138.4107,181.71589353027343,145.1515Z" fill-rule="evenodd" fill="#6F2696" fill-opacity="1"/></g><g><path d="M156.58691901269532,140.69998979492186C158.28692301269533,145.59998979492187,163.78692301269533,148.19998979492186,168.6869130126953,146.39998979492188C173.5869130126953,144.69998979492186,176.1869130126953,139.19998979492186,174.38691301269532,134.30000979492186C172.5869130126953,129.40000979492189,167.1869130126953,126.79998979492187,162.28691301269532,128.5999937949219C157.38691301269532,130.29998979492188,154.78692301269533,135.7999997949219,156.58691901269532,140.69998979492186Z" fill="#FFFFFF" fill-opacity="1"/></g><g><path d="M194.99988742675782,109.60969389648437Q191.6014874267578,110.89999389648438,187.88688742675782,110.89999389648438Q181.25758742675782,110.89999389648438,175.81069742675783,107.06389389648437Q170.35402742675782,103.22089389648437,168.17398142675782,97.00359389648438Q165.26222742675782,88.83449389648437,168.94090242675782,80.97649389648437Q172.6317174267578,73.09258389648437,180.7528874267578,70.19827489648438Q184.16088742675782,68.89999389648438,187.88688742675782,68.89999389648438Q194.5162874267578,68.89999389648438,199.96308742675782,72.73613389648438Q205.4197874267578,76.57915389648437,207.59488742675782,82.78279389648438Q210.5694874267578,90.88009389648437,206.8454874267578,98.83589389648438Q203.1261874267578,106.78169389648437,194.99988742675782,109.60969389648437ZM204.1283874267578,97.56409389648438Q200.9411874267578,104.37309389648438,193.9952874267578,106.78289389648438Q193.97398742675782,106.79029389648437,193.9528874267578,106.79829389648438Q191.0608874267578,107.89999389648438,187.88688742675782,107.89999389648438Q182.20798742675782,107.89999389648438,177.53811742675782,104.61109389648438Q172.8670674267578,101.32139389648438,170.9998374267578,95.99639389648438Q168.5022535267578,88.98929389648438,171.65790742675782,82.24849389648438Q174.81802742675782,75.49818389648438,181.82088742675782,73.00173389648438Q184.71298742675782,71.89999389648438,187.88688742675782,71.89999389648438Q193.5658874267578,71.89999389648438,198.2356874267578,75.18888389648437Q202.9067874267578,78.47861389648438,204.77888742675782,83.81729389648437Q207.3222874267578,90.74079389648438,204.1283874267578,97.56409389648438Z" fill-rule="evenodd" fill="#6F2696" fill-opacity="1"/></g><g><path d="M178.98692816796876,93.09998369140625C180.68693216796876,97.99998369140624,186.18692216796876,100.59998369140625,191.08692216796874,98.79998369140625C195.98692216796874,97.09998369140625,198.58692216796874,91.59998369140625,196.78692216796875,86.70000369140625C195.08692216796874,81.80000369140625,189.58692216796874,79.19998369140625,184.68692216796876,80.99998769140625C179.78692216796875,82.69998369140625,177.18693216796876,88.19999369140625,178.98692816796876,93.09998369140625Z" fill="#FFFFFF" fill-opacity="1"/></g><g><path d="M150.10579353027344,204.90751220703126Q146.70469353027343,206.20001220703125,142.98689353027345,206.20001220703125Q136.35759353027345,206.20001220703125,130.91070353027345,202.36391220703126Q125.45403353027343,198.52091220703124,123.27398753027343,192.30361220703125Q120.36223353027344,184.13451220703126,124.04090853027344,176.27651220703126Q127.73172353027344,168.39257220703124,135.85289353027343,165.49826220703125Q139.26079353027345,164.20001220703125,142.98689353027345,164.20001220703125Q149.61629353027342,164.20001220703125,155.06309353027345,168.03613220703124Q160.51979353027343,171.87915220703124,162.69979353027344,178.09641220703125Q165.61159353027344,186.26551220703124,161.93289353027345,194.12351220703124Q158.24559353027342,202.00001220703126,150.10579353027344,204.90751220703126ZM159.21589353027343,192.85151220703125Q156.05579353027343,199.60181220703126,149.08329353027344,202.08711220703125L149.05289353027342,202.09831220703126Q146.16079353027345,203.20001220703125,142.98689353027345,203.20001220703125Q137.30799353027345,203.20001220703125,132.63812353027345,199.91111220703124Q127.96707353027344,196.62141220703126,126.09984353027343,191.29641220703124Q123.60225873027343,184.28931220703126,126.75791353027344,177.54851220703125Q129.91803353027345,170.79817220703126,136.92089353027345,168.30172220703125Q139.81289353027344,167.20001220703125,142.98689353027345,167.20001220703125Q148.66589353027342,167.20001220703125,153.33569353027343,170.48888220703125Q158.00669353027342,173.77860220703124,159.87399353027342,179.10361220703126Q162.37159353027343,186.11071220703124,159.21589353027343,192.85151220703125Z" fill-rule="evenodd" fill="#6F2696" fill-opacity="1"/></g><g><path d="M134.08691901269532,188.3999936035156C135.78692301269533,193.29999360351562,141.28692301269533,195.8999936035156,146.1869130126953,194.09999360351563C151.0869130126953,192.3999936035156,153.6869130126953,186.8999936035156,151.88691301269532,181.99998360351563C150.1869130126953,176.99998360351563,144.6869130126953,174.50000360351564,139.78691301269532,176.3000066035156C134.88691301269532,178.00000360351564,132.28692301269533,183.49998360351563,134.08691901269532,188.3999936035156Z" fill="#FFFFFF" fill-opacity="1"/></g><g><path d="M217.01513454589843,62.60430915527344Q213.75903454589843,63.90000915527344,209.98693454589844,63.90000915527344Q203.35763454589843,63.90000915527344,197.91071454589843,60.063909155273436Q192.45404454589843,56.220809155273436,190.27891954589845,50.017209155273434Q187.30439454589845,41.91990915527344,191.02838654589843,33.964109155273434Q194.74772454589845,26.018249155273438,202.87403454589844,23.19023915527344Q206.27243454589845,21.900009155273438,209.98693454589844,21.900009155273438Q216.61623454589844,21.900009155273438,222.06313454589844,25.73612915527344Q227.51983454589845,29.579139155273438,229.69983454589845,35.79640915527344Q232.61563454589844,43.97670915527344,228.91893454589842,51.82660915527344Q225.21133454589844,59.69990915527344,217.01513454589843,62.60430915527344ZM226.20483454589845,50.54840915527343Q223.02453454589843,57.301909155273435,215.98773454589843,59.78550915527344Q215.95853454589843,59.79580915527344,215.92983454589844,59.80730915527344Q213.19803454589845,60.90000915527344,209.98693454589844,60.90000915527344Q204.30803454589844,60.90000915527344,199.63814454589843,57.61110915527344Q194.96709454589845,54.321409155273436,193.09492454589844,48.982809155273436Q190.55157754589843,42.059209155273436,193.74545454589844,35.23590915527344Q196.93262454589845,28.426959155273437,203.87853454589845,26.017139155273437Q203.89983454589844,26.009759155273436,203.92093454589843,26.001739155273437Q206.81293454589843,24.900009155273438,209.98693454589844,24.900009155273438Q215.66583454589843,24.900009155273438,220.33573454589845,28.188879155273437Q225.00673454589844,31.478599155273436,226.87403454589844,36.803609155273435Q229.37423454589845,43.818209155273436,226.20483454589845,50.54840915527343Z" fill-rule="evenodd" fill="#6F2696" fill-opacity="1"/></g><g><path d="M201.18692511621094,46.099998950195314C202.88692911621095,50.99999895019531,208.38692911621095,53.599998950195314,213.28691911621092,51.79999895019532C218.18691911621093,50.099998950195314,220.78691911621092,44.599998950195314,218.98691911621094,39.700018950195314C217.18691911621093,34.800018950195316,211.78691911621092,32.199998950195315,206.88691911621095,34.00000295019531C201.98691911621094,35.699998950195315,199.38692911621095,41.20000895019531,201.18692511621094,46.099998950195314Z" fill="#FFFFFF" fill-opacity="1"/></g></g></g></g><g><path d="M152.7869110625,59.80000615527344C152.6869109625,59.700006155273435,152.6869140625,59.700009155273435,152.5869140625,59.60000915527344C152.5869140625,59.50000915527344,152.6869109625,59.50000915527344,152.7869110625,59.60000915527344C152.7869110625,59.60000915527344,152.7869110625,59.700006155273435,152.7869110625,59.80000615527344Z" fill="#FFFFFF" fill-opacity="1"/></g><g><path d="M44.5978840625,112.28110410351563Q44.5869140625,112.19088750351563,44.5869140625,112.10000610351562Q44.5869140625,112.02631580351563,44.5941340625,111.95298010351563Q44.6013640625,111.87964510351563,44.6157340625,111.80737110351562Q44.6301140625,111.73509610351563,44.6515040625,111.66457910351562Q44.6728940625,111.59406210351563,44.7010940625,111.52598110351562Q44.7292940625,111.45790010351563,44.7640340625,111.39291110351563Q44.7987740625,111.32792210351562,44.8397140625,111.26665110351563Q44.8806540625,111.20537910351563,44.9273940625,111.14841610351563Q44.9741440625,111.09145610351563,45.0262540625,111.03934610351563Q45.0783640625,110.98723610351563,45.1353240625,110.94048610351562Q45.1922870625,110.89374610351562,45.2535590625,110.85280610351562Q45.3148300625,110.81186610351563,45.3798190625,110.77712610351563Q45.4448080625,110.74238610351563,45.5128890625,110.71418610351563Q45.5809700625,110.68598610351563,45.6514870625,110.66459610351562Q45.7220040625,110.64320610351562,45.7942790625,110.62882610351562Q45.8665530625,110.61445610351562,45.9398880625,110.60722610351563Q46.0132237625,110.60000610351562,46.0869140625,110.60000610351562Q46.1549185625,110.60000610351562,46.2226440625,110.60615610351563Q46.2903690625,110.61231610351562,46.3572600625,110.62456610351562Q46.4241510625,110.63682610351563,46.4896590625,110.65508610351563Q46.5551660625,110.67334610351563,46.6187520625,110.69745610351562Q46.6823390625,110.72156610351563,46.7434830625,110.75133610351563Q46.8046260625,110.78109610351562,46.8628260625,110.81627610351562Q46.9210260625,110.85145610351563,46.9758030625,110.89175610351562Q47.0305810625,110.93205610351562,47.0814870625,110.97714610351562Q47.1323940625,111.02223610351562,47.1790140625,111.07174610351562Q47.2256340625,111.12125610351562,47.2675740625,111.17478210351562Q47.3095240625,111.22830910351563,47.3464540625,111.28541210351563Q47.3833840625,111.34251510351562,47.4149940625,111.40272510351562Q47.4466040625,111.46293510351562,47.4726440625,111.52575910351563Q47.4986740625,111.58858310351563,47.5189140625,111.65350510351563Q47.5391640625,111.71842710351562,47.5534440625,111.78491410351562Q47.5677340625,111.85140110351563,47.5759440625,111.91890810351562L52.0759440625,148.9189061035156Q52.0869140625,149.00910610351562,52.0869140625,149.10000610351562Q52.0869140625,149.17370610351563,52.079694062499996,149.24700610351562Q52.0724640625,149.3204061035156,52.058094062500004,149.39260610351562Q52.0437140625,149.46490610351563,52.0223240625,149.53540610351564Q52.0009340625,149.60590610351562,51.9727340625,149.67400610351564Q51.9445340625,149.74210610351562,51.9097940625,149.80710610351562Q51.8750540625,149.87210610351562,51.8341140625,149.9334061035156Q51.7931740625,149.99460610351562,51.7464340625,150.0516061035156Q51.6996840625,150.10860610351563,51.6475740625,150.16070610351562Q51.5954640625,150.21280610351562,51.5385040625,150.25950610351563Q51.4815440625,150.30630610351562,51.4202640625,150.34720610351562Q51.3589940625,150.3881061035156,51.2940040625,150.42290610351563Q51.2290240625,150.45760610351562,51.1609340625,150.48580610351564Q51.0928540625,150.5140061035156,51.0223440625,150.53540610351564Q50.9518240625,150.5568061035156,50.8795440625,150.57120610351564Q50.8072740625,150.58560610351563,50.7339440625,150.5928061035156Q50.6606040625,150.60000610351562,50.5869140625,150.60000610351562Q50.5189040625,150.60000610351562,50.4511840625,150.59380610351562Q50.3834540625,150.58770610351561,50.3165640625,150.57540610351563Q50.2496740625,150.56320610351563,50.1841640625,150.54490610351561Q50.1186640625,150.5267061035156,50.0550740625,150.50250610351563Q49.9914840625,150.47840610351562,49.9303440625,150.44870610351563Q49.8692040625,150.4189061035156,49.8110040625,150.38370610351564Q49.7528040625,150.34850610351563,49.6980240625,150.30830610351563Q49.6432440625,150.26800610351563,49.5923440625,150.22290610351564Q49.5414340625,150.17780610351562,49.4948140625,150.12830610351563Q49.4481940625,150.07870610351563,49.4062540625,150.02520610351561Q49.3643040625,149.97170610351563,49.3273740625,149.9146061035156Q49.2904440625,149.85750610351562,49.2588340625,149.7973061035156Q49.2272240625,149.73710610351563,49.2011840625,149.67420610351562Q49.1751540625,149.61140610351563,49.1549140625,149.54650610351564Q49.1346640625,149.48160610351562,49.1203840625,149.41510610351563Q49.1060940625,149.34860610351564,49.0978840625,149.28110610351564L44.5978840625,112.28110410351563Z" fill-rule="evenodd" fill="#544D4D" fill-opacity="1"/></g><g><path d="M226.5743271142578,99.97016289648438Q226.68691711425782,99.69619489648437,226.68691711425782,99.39999389648438Q226.68691711425782,99.32630359648438,226.6796971142578,99.25296789648438Q226.67247711425782,99.17963289648438,226.6580971142578,99.10735889648437Q226.6437171142578,99.03508389648438,226.6223271142578,98.96456689648437Q226.60093711425782,98.89404989648438,226.57273711425782,98.82596889648437Q226.54453711425782,98.75788789648438,226.50979711425782,98.69289889648438Q226.47506711425783,98.62790989648437,226.43412711425782,98.56663889648438Q226.3931871142578,98.50536689648438,226.3464371142578,98.44840389648438Q226.2996871142578,98.39144389648438,226.2475771142578,98.33933389648438Q226.1954771142578,98.28722389648438,226.1385071142578,98.24047389648437Q226.0815471142578,98.19373389648437,226.02027711425782,98.15279389648437Q225.95900711425782,98.11185389648438,225.89401711425782,98.07711389648438Q225.82902711425783,98.04237389648438,225.76094711425782,98.01417389648438Q225.6928671142578,97.98597389648438,225.62234711425782,97.96458389648437Q225.5518271142578,97.94319389648437,225.4795571142578,97.92881389648437Q225.40727711425782,97.91444389648437,225.33394711425782,97.90721389648438Q225.26060711425782,97.89999389648438,225.18691711425782,97.89999389648438Q225.0760071142578,97.89999389648438,224.9663071142578,97.91630389648438Q224.85660711425783,97.93261389648437,224.75049711425783,97.96488389648438Q224.64438711425782,97.99715389648438,224.54417711425782,98.04468389648437Q224.44396711425782,98.09220389648438,224.35182711425782,98.15395389648438Q224.25969711425782,98.21569389648438,224.1776471142578,98.29032389648438Q224.0956071142578,98.36494389648438,224.0254271142578,98.45082389648438Q223.9552371142578,98.53670489648438,223.8984571142578,98.63197289648437Q223.8416681142578,98.72724089648437,223.7995101142578,98.82982489648437Q223.0034771142578,100.76683389648437,222.33850811425782,103.62228389648438Q221.0030971142578,109.35669389648437,221.59818711425783,114.18349389648438Q221.7283871142578,115.23959389648438,222.0673061142578,117.54979389648437Q222.61297911425783,121.26929389648437,222.84468041425782,123.40839389648437Q223.23783711425781,127.03819389648437,223.3024551142578,130.4234938964844Q223.47195011425782,139.30329389648438,221.4208471142578,148.78279389648438Q221.3869171142578,148.93959389648438,221.3869171142578,149.09999389648436Q221.3869171142578,149.17369389648437,221.3941371142578,149.24699389648438Q221.40136711425782,149.32039389648438,221.4157371142578,149.39259389648439Q221.43011711425783,149.46489389648437,221.45150711425782,149.53539389648438Q221.47289711425782,149.6059938964844,221.50109711425782,149.67399389648438Q221.52929711425782,149.7420938964844,221.56403711425781,149.8070938964844Q221.5987771142578,149.8720938964844,221.63971711425782,149.93339389648438Q221.68065711425783,149.9945938964844,221.72739711425783,150.05159389648438Q221.7741471142578,150.10859389648436,221.8262571142578,150.16069389648436Q221.8783671142578,150.21279389648438,221.9353271142578,150.25949389648437Q221.9922901142578,150.30629389648436,222.0535621142578,150.34719389648438Q222.1148331142578,150.38819389648438,222.1798221142578,150.42289389648437Q222.2448111142578,150.45759389648438,222.3128921142578,150.48579389648438Q222.3809731142578,150.51399389648438,222.4514901142578,150.53539389648438Q222.5220071142578,150.55679389648438,222.59428211425782,150.57119389648437Q222.66655611425782,150.58559389648437,222.7398911142578,150.59279389648438Q222.8132268142578,150.59999389648436,222.8869171142578,150.59999389648436Q223.0145091142578,150.59999389648436,223.14026711425782,150.57849389648436Q223.26602511425781,150.55689389648438,223.3863371142578,150.51439389648436Q223.5066491142578,150.47189389648437,223.61805811425782,150.40979389648436Q223.7294661142578,150.34759389648437,223.82876911425782,150.26749389648438Q223.9280771142578,150.1872938964844,224.0124171142578,150.09159389648437Q224.0967671142578,149.99589389648438,224.16372711425782,149.88729389648438Q224.23068711425782,149.77869389648438,224.27834711425783,149.66029389648438Q224.3260071142578,149.54189389648437,224.35298711425781,149.41719389648438L224.3532471142578,149.41609389648437Q226.4780671142578,139.59529389648438,226.3019071142578,130.36629389648436Q226.2347471142578,126.84769389648437,225.8272371142578,123.08539389648438Q225.5894371142578,120.88989389648438,225.0355371142578,117.11429389648438Q224.7016171142578,114.83819389648437,224.5756471142578,113.81649389648437Q224.0457371142578,109.51829389648438,225.26032711425782,104.30271389648438Q225.64274711425782,102.66057389648438,226.1546971142578,101.13069389648437Q226.40593711425782,100.37992889648437,226.5743271142578,99.97016289648438Z" fill-rule="evenodd" fill="#544D4D" fill-opacity="1"/></g><g><path d="M127.98696138916016,62C112.08696138916015,59.3,98.18696138916016,50.3,91.48691138916016,43.4C87.28691138916015,39.1,84.88691838916016,33.3,84.78691808916015,27.3C84.68691808916016,22.8,84.68691358916016,17.7,85.08691338916016,14.5C85.88691138916016,7.9,90.58691138916015,7.5,90.58691138916015,7.5C90.58691138916015,7.5,90.68692138916016,9,90.68692138916016,9C90.78692138916016,10.7,91.78692138916016,12.200009999999999,93.18692138916016,13.100010000000001C98.68696138916016,16.40001,113.98696138916016,24.5,136.28686138916015,28C162.68696138916016,32.1,176.38696138916015,22.4,176.38696138916015,22.4C176.38696138916015,22.4,176.08696138916014,32.4,176.38696138916015,42.8C176.68696138916016,51.7,166.28696138916015,68.4,127.98696138916016,62Z" fill="#CC5292" fill-opacity="1"/></g><g><path d="M83.28712864013671,27.22500870703125Q83.28691864013672,27.21251130703125,83.28691864013672,27.20001220703125Q83.28691864013672,27.12632190703125,83.29413864013672,27.05298620703125Q83.30136864013672,26.97965120703125,83.31573864013671,26.90737720703125Q83.33011864013672,26.83510220703125,83.35150864013671,26.76458520703125Q83.37289864013673,26.69406820703125,83.40109864013672,26.62598720703125Q83.42929864013672,26.55790620703125,83.46403864013672,26.49291720703125Q83.49877864013672,26.42792820703125,83.53971864013671,26.36665720703125Q83.58065864013672,26.30538520703125,83.62739864013672,26.24842220703125Q83.67414864013672,26.19146220703125,83.72625864013672,26.13935220703125Q83.77836864013672,26.08724220703125,83.83532864013672,26.04049220703125Q83.89229164013672,25.99375220703125,83.95356364013672,25.95281220703125Q84.01483464013671,25.91187220703125,84.07982364013672,25.87713220703125Q84.14481264013672,25.84239220703125,84.21289364013671,25.81419220703125Q84.28097464013672,25.78599220703125,84.35149164013671,25.76460220703125Q84.42200864013672,25.74321220703125,84.49428364013671,25.72883220703125Q84.56655764013672,25.71446220703125,84.63989264013672,25.70723220703125Q84.71322834013672,25.70001220703125,84.78691864013672,25.70001220703125Q84.85982584013672,25.70001220703125,84.93238964013672,25.70708220703125Q85.00495264013672,25.71415220703125,85.07648864013672,25.72823220703125Q85.14802464013673,25.74230220703125,85.21785864013673,25.76325220703125Q85.28769164013671,25.78419220703125,85.35516464013672,25.81181220703125Q85.42263864013673,25.83943220703125,85.48711464013672,25.87346220703125Q85.55159164013672,25.90750220703125,85.61246364013672,25.94762220703125Q85.67333564013671,25.98775220703125,85.73002964013672,26.03359220703125Q85.78672364013671,26.07943220703125,85.83870864013672,26.13055220703125Q85.89068864013672,26.18167220703125,85.93745864013673,26.23759520703125Q85.98423864013672,26.29351620703125,86.02537864013672,26.35371220703125Q86.06650864013672,26.41390720703125,86.10160864013672,26.47780720703125Q86.13671864013672,26.54170720703125,86.16545864013672,26.60871120703125Q86.19419864013672,26.67571520703125,86.21629864013671,26.74518920703125Q86.23840864013673,26.81466420703125,86.25366864013672,26.88595620703125Q86.26893864013672,26.95724720703125,86.27721864013672,27.02968320703125Q86.28549864013672,27.10211860703125,86.28670864013672,27.17501570703125Q86.43344864013672,35.979502207031246,92.56305864013672,42.25501220703125Q98.15021864013671,48.00901220703125,107.00741864013672,52.85931220703125Q117.48001864013672,58.59431220703125,128.23411864013673,60.42051220703125Q153.08011864013673,64.57231220703125,165.88031864013672,56.75731220703125Q175.16711864013672,51.08721220703125,174.88791864013672,42.753412207031246L174.88781864013671,42.75051220703125Q174.8869186401367,42.72531220703125,174.8869186401367,42.70001220703125Q174.8869186401367,42.62631220703125,174.89411864013672,42.55301220703125Q174.9013186401367,42.47961220703125,174.91571864013673,42.40741220703125Q174.9301186401367,42.33511220703125,174.95151864013673,42.26461220703125Q174.97291864013673,42.19411220703125,175.00111864013672,42.12601220703125Q175.02931864013672,42.05791220703125,175.06401864013674,41.99291220703125Q175.0988186401367,41.92791220703125,175.13971864013672,41.86661220703125Q175.18061864013671,41.80541220703125,175.2274186401367,41.74841220703125Q175.27411864013672,41.69141220703125,175.32621864013672,41.63931220703125Q175.3783186401367,41.58721220703125,175.4353186401367,41.54051220703125Q175.49231864013672,41.49371220703125,175.5535186401367,41.45281220703125Q175.61481864013672,41.41191220703125,175.67981864013672,41.377112207031246Q175.7448186401367,41.34241220703125,175.81291864013673,41.31421220703125Q175.88101864013672,41.28601220703125,175.95151864013673,41.26461220703125Q176.0220186401367,41.24321220703125,176.09431864013672,41.228812207031254Q176.1665186401367,41.21441220703125,176.23991864013672,41.20721220703125Q176.3132186401367,41.20001220703125,176.3869186401367,41.20001220703125Q176.45901864013672,41.20001220703125,176.53081864013672,41.20691220703125Q176.6026186401367,41.21381220703125,176.67341864013673,41.22761220703125Q176.74421864013672,41.241412207031246,176.8133186401367,41.26191220703125Q176.8825186401367,41.28241220703125,176.9493186401367,41.30941220703125Q177.0162186401367,41.33651220703125,177.0802186401367,41.36981220703125Q177.14411864013672,41.40311220703125,177.20461864013672,41.44251220703125Q177.2650186401367,41.481812207031254,177.32151864013673,41.52671220703125Q177.37791864013673,41.57161220703125,177.4297186401367,41.62181220703125Q177.4815186401367,41.67191220703125,177.52831864013672,41.72681220703125Q177.57511864013674,41.78171220703125,177.61641864013671,41.84081220703125Q177.65771864013672,41.89991220703125,177.6932186401367,41.96271220703125Q177.72871864013672,42.02561220703125,177.75791864013672,42.09151220703125Q177.7872186401367,42.15741220703125,177.81001864013672,42.225812207031254Q177.83281864013674,42.29421220703125,177.84891864013673,42.364512207031254Q177.86501864013673,42.43481220703125,177.87431864013672,42.50631220703125Q177.88371864013672,42.57791220703125,177.88611864013671,42.65001220703125L177.88641864013672,42.65941220703125Q178.22071864013674,52.737812207031254,167.44351864013672,59.31771220703125Q153.68881864013673,67.71571220703126,127.73971864013672,63.37951220703125Q116.48091864013672,61.46761220703125,105.56641864013672,55.49061220703125Q96.31281864013673,50.42321220703125,90.41077864013671,44.34491220703125Q83.45374864013672,37.22231220703125,83.28712864013671,27.22500870703125Q83.28833864013671,27.29790580703125,83.29661864013671,27.37034120703125Q83.30489864013671,27.44277720703125,83.32016864013671,27.51406820703125Q83.33542864013671,27.58536020703125,83.35753864013672,27.65483520703125Q83.37963864013672,27.72430920703125,83.40837864013672,27.79131320703125Q83.43711864013672,27.85831720703125,83.47222864013672,27.92221720703125Q83.50732864013672,27.98611720703125,83.54845864013672,28.04631220703125Q83.58959864013671,28.10650820703125,83.63637864013671,28.16242920703125Q83.68314864013672,28.21835220703125,83.73512864013672,28.26947220703125Q83.78711364013672,28.32059220703125,83.84380764013672,28.36643220703125Q83.90050164013672,28.41227220703125,83.96137364013671,28.45240220703125Q84.02224564013672,28.49252220703125,84.08672264013671,28.52656220703125Q84.15119864013671,28.56059220703125,84.21867264013672,28.58821220703125Q84.28614564013672,28.61583220703125,84.35597864013671,28.63677220703125Q84.42581264013671,28.65772220703125,84.49734864013672,28.67179220703125Q84.56888464013672,28.68587220703125,84.64144764013672,28.69294220703125Q84.71401144013672,28.70001220703125,84.78691864013672,28.70001220703125Q84.86060894013671,28.70001220703125,84.93394464013672,28.69279220703125Q85.00727964013672,28.68556220703125,85.07955364013672,28.67119220703125Q85.15182864013671,28.65681220703125,85.22234564013672,28.63542220703125Q85.29286264013672,28.61403220703125,85.36094364013672,28.58583220703125Q85.42902464013672,28.55763220703125,85.49401364013671,28.52289220703125Q85.55900264013673,28.48815220703125,85.62027364013672,28.44721220703125Q85.68154564013672,28.40627220703125,85.73850864013671,28.35953220703125Q85.79546864013672,28.31278220703125,85.84757864013672,28.26067220703125Q85.89968864013672,28.20856220703125,85.94643864013672,28.15160220703125Q85.99317864013672,28.09463920703125,86.03411864013673,28.03336720703125Q86.07505864013672,27.97209620703125,86.10979864013672,27.90710720703125Q86.14453864013672,27.84211820703125,86.17273864013671,27.77403720703125Q86.20093864013671,27.70595620703125,86.22232864013672,27.63543920703125Q86.24371864013672,27.56492220703125,86.25809864013672,27.49264720703125Q86.27246864013672,27.42037320703125,86.27969864013671,27.34703820703125Q86.28691864013672,27.27370250703125,86.28691864013672,27.20001220703125Q86.28691864013672,27.18751310703125,86.28670864013672,27.17501570703125L83.28712864013671,27.22500870703125Z" fill-rule="evenodd" fill="#993665" fill-opacity="1"/></g><g><path d="M150.2660200625,27.51073Q150.9228930625,27.58916,151.8336040625,27.86673Q153.6205540625,28.411355,155.1059940625,29.422529Q159.9290740625,32.705709999999996,159.7865640625,39.332300000000004Q159.5874040625,48.5929,159.9862040625,61.4535Q159.9869240625,61.4767,159.9869240625,61.5Q159.9869240625,61.5737,159.9797040625,61.647Q159.9724740625,61.7204,159.9581040625,61.7926Q159.9437240625,61.8649,159.9223340625,61.9354Q159.9009440625,62.0059,159.8727440625,62.074Q159.8445440625,62.1421,159.8098040625,62.2071Q159.7750640625,62.2721,159.7341240625,62.3334Q159.6931840625,62.3946,159.6464340625,62.4516Q159.5996840625,62.5085,159.5475840625,62.5607Q159.4954740625,62.6128,159.4385140625,62.6595Q159.3815440625,62.7063,159.3202740625,62.7472Q159.2590040625,62.7881,159.1940140625,62.8229Q159.1290240625,62.8576,159.0609440625,62.8858Q158.9928640625,62.914,158.9223540625,62.9354Q158.8518340625,62.9568,158.7795540625,62.9712Q158.7072840625,62.9855,158.6339540625,62.9928Q158.5606140625,63,158.4869240625,63Q158.4146940625,63,158.3427940625,62.9931Q158.2708940625,62.9861,158.1999940625,62.9723Q158.1290940625,62.9585,158.0598440625,62.9379Q157.9906040625,62.9173,157.9236540625,62.8902Q157.8567040625,62.8631,157.7926740625,62.8297Q157.7286440625,62.7962,157.6681240625,62.7568Q157.6076040625,62.7174,157.5511440625,62.6723Q157.4946940625,62.6272,157.4428340625,62.577Q157.3909640625,62.5267,157.3441740625,62.4717Q157.2973840625,62.4166,157.2560940625,62.3574Q157.2148140625,62.2981,157.1794140625,62.2351Q157.1440140625,62.1722,157.1148240625,62.1061Q157.0856340625,62.04,157.0629340625,61.9714Q157.0402340625,61.9029,157.0242240625,61.8324Q157.0082140625,61.762,156.9990440625,61.6903Q156.9898840625,61.6187,156.9876440625,61.5465Q156.5864140625,48.6071,156.7872540625,39.2678Q156.8947540625,34.26929,153.4178340625,31.90247Q152.3095240625,31.14802,150.9589780625,30.7364Q150.3021660625,30.53622,149.9095950625,30.48948Q149.8419490625,30.48143,149.7753120625,30.46728Q149.7086740625,30.45313,149.6435940625,30.43299Q149.5785130625,30.41286,149.5155260625,30.38691Q149.4525380625,30.36096,149.3921620625,30.32941Q149.3317860625,30.29785,149.2745190625,30.26096Q149.2172510625,30.22406,149.1635640625,30.18213Q149.1098770625,30.14019,149.0602140625,30.09356Q149.0105440625,30.04694,148.9653140625,29.995998Q148.9200740625,29.945059,148.8796440625,29.89023Q148.8392140625,29.835402,148.8039240625,29.777133Q148.7686340625,29.718866,148.7387640625,29.657638Q148.7088940625,29.596411,148.6847040625,29.532728Q148.6605040625,29.469046,148.6421840625,29.403432Q148.6238640625,29.337819,148.6115640625,29.270814Q148.5992640625,29.20381,148.5930840625,29.135967Q148.5869140625,29.0681237,148.5869140625,29Q148.5869140625,28.9263097,148.5941340625,28.852974Q148.6013640625,28.779639,148.6157340625,28.707365Q148.6301140625,28.63509,148.6515040625,28.564573Q148.6728940625,28.494056,148.7010940625,28.425975Q148.7292940625,28.357894,148.7640340625,28.292905Q148.7987740625,28.227916,148.8397140625,28.166645Q148.8806540625,28.105373,148.9273940625,28.04841Q148.9741440625,27.99145,149.0262540625,27.93934Q149.0783640625,27.88723,149.1353240625,27.84048Q149.1922870625,27.79374,149.2535590625,27.7528Q149.3148300625,27.71186,149.3798190625,27.67712Q149.4448080625,27.64238,149.5128890625,27.61418Q149.5809700625,27.58598,149.6514870625,27.56459Q149.7220040625,27.5432,149.7942790625,27.52882Q149.8665530625,27.51445,149.9398880625,27.50722Q150.0132237625,27.5,150.0869140625,27.5Q150.1758864625,27.5,150.2642350625,27.51052L150.2660200625,27.51073Z" fill-rule="evenodd" fill="#993665" fill-opacity="1"/></g><g><path d="M148.78691321777345,41.10000220703125Q148.78691321777345,41.29160220703125,148.76813321777342,41.48227220703125Q148.74935321777343,41.67294220703125,148.71197321777345,41.86085220703125Q148.67459321777343,42.04877220703125,148.61898321777343,42.23211220703125Q148.56336321777343,42.41546220703125,148.49004321777343,42.59247220703125Q148.41672321777344,42.76948220703125,148.32640321777345,42.93845220703125Q148.23608321777343,43.10742220703125,148.12964321777343,43.26672220703125Q148.02320321777344,43.42603220703125,147.90165321777343,43.57413220703125Q147.78010321777344,43.72224220703125,147.64463321777345,43.85772220703125Q147.50915321777345,43.99319220703125,147.36104321777344,44.11474220703125Q147.21294321777344,44.23629220703125,147.05363321777344,44.34273220703125Q146.89433321777344,44.44917220703125,146.72536321777343,44.53949220703125Q146.55639321777343,44.62981220703125,146.37938321777344,44.70313220703125Q146.20237321777344,44.77645220703125,146.01902321777345,44.83207220703125Q145.83568321777344,44.88768220703125,145.64776321777344,44.92506220703125Q145.45985321777343,44.96244220703125,145.26918321777345,44.98122220703125Q145.07851321777343,45.00000220703125,144.88691321777344,45.00000220703125Q144.69532321777345,45.00000220703125,144.50465321777344,44.98122220703125Q144.31398321777343,44.96244220703125,144.12606321777344,44.92506220703125Q143.93815321777345,44.88768220703125,143.75481321777343,44.83207220703125Q143.57146321777344,44.77645220703125,143.39445321777345,44.70313220703125Q143.21744321777345,44.62981220703125,143.04847321777345,44.53949220703125Q142.87950321777345,44.44917220703125,142.72019321777344,44.34273220703125Q142.56089321777344,44.23629220703125,142.41278321777344,44.11474220703125Q142.26468321777344,43.99319220703125,142.12920321777344,43.85772220703125Q141.99372321777344,43.72224220703125,141.87218121777343,43.57413220703125Q141.75063521777344,43.42603220703125,141.64419021777343,43.26672220703125Q141.53774621777345,43.10742220703125,141.44742921777345,42.93845220703125Q141.35711221777345,42.76948220703125,141.28379221777342,42.59247220703125Q141.21047221777343,42.41546220703125,141.15485521777345,42.23211220703125Q141.09923821777343,42.04877220703125,141.06186051777343,41.86085220703125Q141.02448231777345,41.67294220703125,141.00570271777343,41.48227220703125Q140.98692321777344,41.29160220703125,140.98692321777344,41.10000220703125Q140.98692321777344,40.90841220703125,141.00570271777343,40.71774220703125Q141.02448231777345,40.52707220703125,141.06186051777343,40.33915220703125Q141.09923821777343,40.15124220703125,141.15485521777345,39.96790220703125Q141.21047221777343,39.78455220703125,141.28379221777342,39.60754220703125Q141.35711221777345,39.43053220703125,141.44742921777345,39.26156220703125Q141.53774621777345,39.09259220703125,141.64419021777343,38.93328220703125Q141.75063521777344,38.77398220703125,141.87218121777343,38.62587220703125Q141.99372321777344,38.47777220703125,142.12920321777344,38.34229220703125Q142.26468321777344,38.20681220703125,142.41278321777344,38.08527020703125Q142.56089321777344,37.96372420703125,142.72019321777344,37.85727920703125Q142.87950321777345,37.75083520703125,143.04847321777345,37.66051820703125Q143.21744321777345,37.57020120703125,143.39445321777345,37.49688120703125Q143.57146321777344,37.42356120703125,143.75481321777343,37.36794420703125Q143.93815321777345,37.31232720703125,144.12606321777344,37.27494950703125Q144.31398321777343,37.23757130703125,144.50465321777344,37.21879170703125Q144.69532321777345,37.20001220703125,144.88691321777344,37.20001220703125Q145.07851321777343,37.20001220703125,145.26918321777345,37.21879170703125Q145.45985321777343,37.23757130703125,145.64776321777344,37.27494950703125Q145.83568321777344,37.31232720703125,146.01902321777345,37.36794420703125Q146.20237321777344,37.42356120703125,146.37938321777344,37.49688120703125Q146.55639321777343,37.57020120703125,146.72536321777343,37.66051820703125Q146.89433321777344,37.75083520703125,147.05363321777344,37.85727920703125Q147.21294321777344,37.96372420703125,147.36104321777344,38.08527020703125Q147.50915321777345,38.20681220703125,147.64463321777345,38.34229220703125Q147.78010321777344,38.47777220703125,147.90165321777343,38.62587220703125Q148.02320321777344,38.77398220703125,148.12964321777343,38.93328220703125Q148.23608321777343,39.09259220703125,148.32640321777345,39.26156220703125Q148.41672321777344,39.43053220703125,148.49004321777343,39.60754220703125Q148.56336321777343,39.78455220703125,148.61898321777343,39.96790220703125Q148.67459321777343,40.15124220703125,148.71197321777345,40.33915220703125Q148.74935321777343,40.52707220703125,148.76813321777342,40.71774220703125Q148.78691321777345,40.90841220703125,148.78691321777345,41.10000220703125Z" fill="#FFFFFF" fill-opacity="1"/></g><g><path d="M148.78691321777345,53.70000305175781Q148.78691321777345,53.89160305175781,148.76813321777342,54.08227305175781Q148.74935321777343,54.272943051757814,148.71197321777345,54.46085305175781Q148.67459321777343,54.648773051757814,148.61898321777343,54.832113051757815Q148.56336321777343,55.01546305175781,148.49004321777343,55.192473051757815Q148.41672321777344,55.36948305175781,148.32640321777345,55.53845305175781Q148.23608321777343,55.707423051757814,148.12964321777343,55.86673305175781Q148.02320321777344,56.026033051757814,147.90165321777343,56.17414305175781Q147.78010321777344,56.32224305175781,147.64463321777345,56.45772305175781Q147.50915321777345,56.59320305175781,147.36104321777344,56.714743051757814Q147.21294321777344,56.83629305175781,147.05363321777344,56.94273305175781Q146.89433321777344,57.049183051757815,146.72536321777343,57.13950305175781Q146.55639321777343,57.229813051757816,146.37938321777344,57.30313305175781Q146.20237321777344,57.376453051757814,146.01902321777345,57.43207305175781Q145.83568321777344,57.487693051757816,145.64776321777344,57.52506305175781Q145.45985321777343,57.56244305175781,145.26918321777345,57.58122305175781Q145.07851321777343,57.60000305175781,144.88691321777344,57.60000305175781Q144.69532321777345,57.60000305175781,144.50465321777344,57.58122305175781Q144.31398321777343,57.56244305175781,144.12606321777344,57.52506305175781Q143.93815321777345,57.487693051757816,143.75481321777343,57.43207305175781Q143.57146321777344,57.376453051757814,143.39445321777345,57.30313305175781Q143.21744321777345,57.229813051757816,143.04847321777345,57.13950305175781Q142.87950321777345,57.049183051757815,142.72019321777344,56.94273305175781Q142.56089321777344,56.83629305175781,142.41278321777344,56.714743051757814Q142.26468321777344,56.59320305175781,142.12920321777344,56.45772305175781Q141.99372321777344,56.32224305175781,141.87218121777343,56.17414305175781Q141.75063521777344,56.026033051757814,141.64419021777343,55.86673305175781Q141.53774621777345,55.707423051757814,141.44742921777345,55.53845305175781Q141.35711221777345,55.36948305175781,141.28379221777342,55.192473051757815Q141.21047221777343,55.01546305175781,141.15485521777345,54.832113051757815Q141.09923821777343,54.648773051757814,141.06186051777343,54.46085305175781Q141.02448231777345,54.272943051757814,141.00570271777343,54.08227305175781Q140.98692321777344,53.89160305175781,140.98692321777344,53.70000305175781Q140.98692321777344,53.50841305175781,141.00570271777343,53.31773305175781Q141.02448231777345,53.127063051757816,141.06186051777343,52.93915305175781Q141.09923821777343,52.75124305175781,141.15485521777345,52.567893051757814Q141.21047221777343,52.38455305175781,141.28379221777342,52.20754305175781Q141.35711221777345,52.03052305175781,141.44742921777345,51.86155305175781Q141.53774621777345,51.692583051757815,141.64419021777343,51.53328305175781Q141.75063521777344,51.373973051757815,141.87218121777343,51.225873051757816Q141.99372321777344,51.07776305175781,142.12920321777344,50.94228305175781Q142.26468321777344,50.806813051757814,142.41278321777344,50.685263051757815Q142.56089321777344,50.563716051757815,142.72019321777344,50.45727205175781Q142.87950321777345,50.35082705175781,143.04847321777345,50.26051005175781Q143.21744321777345,50.17019305175781,143.39445321777345,50.09687305175781Q143.57146321777344,50.023553051757816,143.75481321777343,49.96793605175781Q143.93815321777345,49.91231905175781,144.12606321777344,49.874940451757816Q144.31398321777343,49.837562151757815,144.50465321777344,49.818782651757815Q144.69532321777345,49.80000305175781,144.88691321777344,49.80000305175781Q145.07851321777343,49.80000305175781,145.26918321777345,49.818782651757815Q145.45985321777343,49.837562151757815,145.64776321777344,49.874940451757816Q145.83568321777344,49.91231905175781,146.01902321777345,49.96793605175781Q146.20237321777344,50.023553051757816,146.37938321777344,50.09687305175781Q146.55639321777343,50.17019305175781,146.72536321777343,50.26051005175781Q146.89433321777344,50.35082705175781,147.05363321777344,50.45727205175781Q147.21294321777344,50.563716051757815,147.36104321777344,50.685263051757815Q147.50915321777345,50.806813051757814,147.64463321777345,50.94228305175781Q147.78010321777344,51.07776305175781,147.90165321777343,51.225873051757816Q148.02320321777344,51.373973051757815,148.12964321777343,51.53328305175781Q148.23608321777343,51.692583051757815,148.32640321777345,51.86155305175781Q148.41672321777344,52.03052305175781,148.49004321777343,52.20754305175781Q148.56336321777343,52.38455305175781,148.61898321777343,52.567893051757814Q148.67459321777343,52.75124305175781,148.71197321777345,52.93915305175781Q148.74935321777343,53.127063051757816,148.76813321777342,53.31773305175781Q148.78691321777345,53.50841305175781,148.78691321777345,53.70000305175781Z" fill="#FFFFFF" fill-opacity="1"/></g></g></g></svg>