<svg xmlns="http://www.w3.org/2000/svg" xmlns:xlink="http://www.w3.org/1999/xlink" fill="none" version="1.1" width="290" height="190" viewBox="0 0 290 190"><g><g><g><path d="M163.95959375,85.778173828125C208.25959375,83.478173828125,206.75959375,61.078173828125,206.75959375,61.078173828125C229.35959375,86.078173828125,235.75959375,160.978173828125,235.75959375,160.978173828125C235.75959375,160.978173828125,7.559454713,160.978173828125,7.559454713,160.978173828125C7.559454713,160.978173828125,7.25945575,115.578173828125,17.85949375,85.078173828125C28.45949375,54.578173828125,47.85949375,43.878173828125,47.85949375,43.878173828125C47.85949375,43.878173828125,63.85949375,57.378173828125,65.05949375,65.778173828125C66.35949375,73.978173828125,119.65959375,88.078173828125,163.95959375,85.778173828125Z" fill="#FFFFFF" fill-opacity="1"/></g><g><path d="M206.6594551086426,61.178200000000004C204.55945510864257,53.4782,198.25945510864258,48.2782,195.55945510864257,48.4782C195.6594551086426,48.7782,195.6594551086426,49.0782,195.75945510864258,49.2782C200.05945510864257,64.2782,193.1594551086426,73.2782,177.85945510864258,76.6782C161.95945510864257,80.1782,148.6594551086426,80.6782,116.75945510864258,77.4782C93.35945510864258,75.1782,71.35945510864258,64.1782,60.159455108642575,43.47819C59.05945510864258,41.378190000000004,57.75945510864258,39.37818,56.35945510864258,37.37818C55.55945510864258,36.77818,54.05945510864258,36.878189,52.95945510864258,37.778189C50.25945510864258,40.07819,47.85945510864258,41.67819,47.85945510864258,43.97819C53.25945510864258,52.9782,58.35945510864258,67.2782,56.159455108642575,88.07820000000001C55.95945510864258,89.9782,55.659455108642575,92.07820000000001,55.35945510864258,94.1782C47.75945110864258,140.078,49.85945510864258,165.578,49.85945510864258,165.578C49.85945510864258,165.578,153.25945510864258,191.778,216.05945510864257,162.77800000000002C216.05945510864257,162.77800000000002,216.1594551086426,126.9782,211.85945510864258,92.07820000000001C210.55945510864257,81.37819999999999,208.85945510864258,70.6782,206.6594551086426,61.178200000000004Z" fill="#444444" fill-opacity="1"/></g><g><path d="M162.15945129394532,88.67817298339844Q162.15945129394532,88.84520298339844,162.1430812939453,89.01143298339844Q162.1267112939453,89.17766298339843,162.0941212939453,89.34148298339844Q162.0615412939453,89.50530298339844,162.01305129394532,89.66514298339844Q161.9645612939453,89.82498298339844,161.9006412939453,89.97929298339844Q161.83672129394532,90.13361298339844,161.7579812939453,90.28092298339844Q161.6792512939453,90.42823298339843,161.58645129394532,90.56711298339843Q161.4936512939453,90.70599298339843,161.38769129394532,90.83511298339843Q161.2817212939453,90.96422298339844,161.1636212939453,91.08233298339843Q161.0455112939453,91.20044298339843,160.9163912939453,91.30640298339844Q160.7872712939453,91.41237298339844,160.6483912939453,91.50516298339844Q160.5095112939453,91.59796298339843,160.3622012939453,91.67670298339844Q160.2148912939453,91.75544298339844,160.06058129394532,91.81936298339843Q159.9062612939453,91.88328298339843,159.7464212939453,91.93176298339844Q159.5865812939453,91.98025298339844,159.4227612939453,92.01284298339844Q159.25894129394533,92.04542298339844,159.0927112939453,92.06180298339844Q158.9264812939453,92.07817298339843,158.75945129394532,92.07817298339843Q158.5924212939453,92.07817298339843,158.42619129394532,92.06180298339844Q158.2599712939453,92.04542298339844,158.09614129394532,92.01284298339844Q157.9323212939453,91.98025298339844,157.7724812939453,91.93176298339844Q157.6126412939453,91.88328298339843,157.45833129394532,91.81936298339843Q157.3040112939453,91.75544298339844,157.1567012939453,91.67670298339844Q157.0093912939453,91.59796298339843,156.8705112939453,91.50516298339844Q156.7316312939453,91.41237298339844,156.60251129394533,91.30640298339844Q156.4734012939453,91.20044298339843,156.3552882939453,91.08233298339843Q156.2371792939453,90.96422298339844,156.1312162939453,90.83511298339843Q156.0252522939453,90.70599298339843,155.9324542939453,90.56711298339843Q155.83965729394532,90.42823298339843,155.7609192939453,90.28092298339844Q155.68218129394532,90.13361298339844,155.61826129394532,89.97929298339844Q155.5543412939453,89.82498298339844,155.5058542939453,89.66514298339844Q155.45736759394532,89.50530298339844,155.42478139394532,89.34148298339844Q155.39219519394533,89.17766298339843,155.3758231939453,89.01143298339844Q155.3594512939453,88.84520298339844,155.3594512939453,88.67817298339844Q155.3594512939453,88.51114298339844,155.3758231939453,88.34492298339843Q155.39219519394533,88.17869298339843,155.42478139394532,88.01487298339843Q155.45736759394532,87.85105298339843,155.5058542939453,87.69121298339844Q155.5543412939453,87.53137298339844,155.61826129394532,87.37705298339844Q155.68218129394532,87.22274298339843,155.7609192939453,87.07543298339844Q155.83965729394532,86.92812298339844,155.9324542939453,86.78924298339844Q156.0252522939453,86.65036298339844,156.1312162939453,86.52124298339844Q156.2371792939453,86.39212298339844,156.3552882939453,86.27401798339844Q156.4734012939453,86.15590898339843,156.60251129394533,86.04994598339843Q156.7316312939453,85.94398298339844,156.8705112939453,85.85118498339844Q157.0093912939453,85.75838798339844,157.1567012939453,85.67964998339843Q157.3040112939453,85.60091198339843,157.45833129394532,85.53699198339844Q157.6126412939453,85.47307198339844,157.7724812939453,85.42458598339844Q157.9323212939453,85.37609908339844,158.09614129394532,85.34351288339843Q158.2599712939453,85.31092678339844,158.42619129394532,85.29455488339843Q158.5924212939453,85.27818298339844,158.75945129394532,85.27818298339844Q158.9264812939453,85.27818298339844,159.0927112939453,85.29455488339843Q159.25894129394533,85.31092678339844,159.4227612939453,85.34351288339843Q159.5865812939453,85.37609908339844,159.7464212939453,85.42458598339844Q159.9062612939453,85.47307198339844,160.06058129394532,85.53699198339844Q160.2148912939453,85.60091198339843,160.3622012939453,85.67964998339843Q160.5095112939453,85.75838798339844,160.6483912939453,85.85118498339844Q160.7872712939453,85.94398298339844,160.9163912939453,86.04994598339843Q161.0455112939453,86.15590898339843,161.1636212939453,86.27401798339844Q161.2817212939453,86.39212298339844,161.38769129394532,86.52124298339844Q161.4936512939453,86.65036298339844,161.58645129394532,86.78924298339844Q161.6792512939453,86.92812298339844,161.7579912939453,87.07543298339844Q161.83672129394532,87.22274298339843,161.9006412939453,87.37705298339844Q161.9645612939453,87.53137298339844,162.01305129394532,87.69121298339844Q162.0615412939453,87.85105298339843,162.0941212939453,88.01487298339843Q162.1267112939453,88.17869298339843,162.1430812939453,88.34492298339843Q162.15945129394532,88.51114298339844,162.15945129394532,88.67817298339844Z" fill="#FFFFFF" fill-opacity="1"/></g><g><path d="M162.95945434570314,101.27817908691407Q162.95945434570314,101.44520908691406,162.9430843457031,101.61143908691406Q162.92671434570312,101.77766908691406,162.89412434570312,101.94148908691406Q162.86154434570312,102.10530908691406,162.81305434570314,102.26514908691406Q162.76456434570312,102.42498908691407,162.70064434570313,102.57929908691406Q162.63672434570313,102.73361908691406,162.55798434570312,102.88092908691407Q162.4792543457031,103.02823908691406,162.38645434570313,103.16711908691406Q162.29365434570312,103.30599908691406,162.18769434570314,103.43511908691406Q162.08172434570312,103.56422908691407,161.96362434570312,103.68233908691406Q161.84551434570312,103.80044908691406,161.71639434570312,103.90640908691407Q161.58727434570312,104.01237908691407,161.44839434570312,104.10516908691406Q161.30951434570312,104.19796908691406,161.16220434570312,104.27670908691407Q161.0148943457031,104.35544908691406,160.86058434570313,104.41936908691406Q160.70626434570312,104.48328908691406,160.54642434570312,104.53176908691407Q160.3865843457031,104.58025908691407,160.22276434570313,104.61284908691407Q160.05894434570314,104.64542908691406,159.89271434570313,104.66180908691406Q159.7264843457031,104.67817908691406,159.55945434570313,104.67817908691406Q159.39242434570312,104.67817908691406,159.22619434570314,104.66180908691406Q159.05997434570313,104.64542908691406,158.89614434570314,104.61284908691407Q158.73232434570312,104.58025908691407,158.57248434570312,104.53176908691407Q158.41264434570311,104.48328908691406,158.25833434570313,104.41936908691406Q158.10401434570312,104.35544908691406,157.95670434570312,104.27670908691407Q157.8093943457031,104.19796908691406,157.6705143457031,104.10516908691406Q157.5316343457031,104.01237908691407,157.40251434570314,103.90640908691407Q157.2734043457031,103.80044908691406,157.15529134570312,103.68233908691406Q157.03718234570312,103.56422908691407,156.9312193457031,103.43511908691406Q156.8252553457031,103.30599908691406,156.73245734570312,103.16711908691406Q156.63966034570313,103.02823908691406,156.56092234570312,102.88092908691407Q156.48218434570313,102.73361908691406,156.41826434570314,102.57929908691406Q156.3543443457031,102.42498908691407,156.30585734570312,102.26514908691406Q156.25737064570313,102.10530908691406,156.22478444570314,101.94148908691406Q156.19219824570314,101.77766908691406,156.17582624570312,101.61143908691406Q156.15945434570312,101.44520908691406,156.15945434570312,101.27817908691407Q156.15945434570312,101.11114908691407,156.17582624570312,100.94492908691406Q156.19219824570314,100.77869908691406,156.22478444570314,100.61487908691406Q156.25737064570313,100.45105908691406,156.30585734570312,100.29121908691407Q156.3543443457031,100.13137908691407,156.41826434570314,99.97705908691407Q156.48218434570313,99.82274908691406,156.56092234570312,99.67543908691407Q156.63966034570313,99.52812908691406,156.73245734570312,99.38924908691406Q156.8252553457031,99.25036908691406,156.9312193457031,99.12124908691406Q157.03718234570312,98.99212908691406,157.15529134570312,98.87402408691406Q157.2734043457031,98.75591508691406,157.40251434570314,98.64995208691406Q157.5316343457031,98.54398908691407,157.6705143457031,98.45119108691406Q157.8093943457031,98.35839408691406,157.95670434570312,98.27965608691406Q158.10401434570312,98.20091808691406,158.25833434570313,98.13699808691406Q158.41264434570311,98.07307808691407,158.57248434570312,98.02459208691407Q158.73232434570312,97.97610518691407,158.89614434570314,97.94351898691406Q159.05997434570313,97.91093288691407,159.22619434570314,97.89456098691406Q159.39242434570312,97.87818908691406,159.55945434570313,97.87818908691406Q159.7264843457031,97.87818908691406,159.89271434570313,97.89456098691406Q160.05894434570314,97.91093288691407,160.22276434570313,97.94351898691406Q160.3865843457031,97.97610518691407,160.54642434570312,98.02459208691407Q160.70626434570312,98.07307808691407,160.86058434570313,98.13699808691406Q161.0148943457031,98.20091808691406,161.16220434570312,98.27965608691406Q161.30951434570312,98.35839408691406,161.44839434570312,98.45119108691406Q161.58727434570312,98.54398908691407,161.71639434570312,98.64995208691406Q161.84551434570312,98.75591508691406,161.96362434570312,98.87402408691406Q162.08172434570312,98.99212908691406,162.18769434570314,99.12124908691406Q162.29365434570312,99.25036908691406,162.38645434570313,99.38924908691406Q162.4792543457031,99.52812908691406,162.55799434570312,99.67543908691407Q162.63672434570313,99.82274908691406,162.70064434570313,99.97705908691407Q162.76456434570312,100.13137908691407,162.81305434570314,100.29121908691407Q162.86154434570312,100.45105908691406,162.89412434570312,100.61487908691406Q162.92671434570312,100.77869908691406,162.9430843457031,100.94492908691406Q162.95945434570314,101.11114908691407,162.95945434570314,101.27817908691407Z" fill="#FFFFFF" fill-opacity="1"/></g></g></g></svg>