<svg xmlns="http://www.w3.org/2000/svg" xmlns:xlink="http://www.w3.org/1999/xlink" fill="none" version="1.1" width="290" height="190" viewBox="0 0 290 190"><g><g><g><path d="M106.6578155517578,80.9145C106.6578155517578,80.9145,94.25781555175782,76.7145,94.25781555175782,76.7145C91.85781555175781,51.314499999999995,75.55781555175781,27.01451,75.55781555175781,27.01451C78.6578155517578,23.614512,81.55780555175781,24.0145125,81.45780555175782,24.0145125C98.25781555175782,43.314499999999995,106.6578155517578,80.9145,106.6578155517578,80.9145Z" fill="#423232" fill-opacity="1"/></g><g><path d="M175.85781555175782,34.31450981933594C171.35781855175782,32.11451381933594,170.5578155517578,32.91452081933594,170.5578155517578,32.91452081933594C183.45781555175782,51.11448981933594,181.7578155517578,76.91448981933594,181.7578155517578,76.91448981933594C182.85781555175782,77.01448981933594,189.45781555175782,74.81448981933593,189.35781555175782,74.81448981933593C188.45781555175782,48.71448981933594,179.0578155517578,35.81450981933594,175.85781555175782,34.31450981933594Z" fill="#423232" fill-opacity="1"/></g><g><path d="M7.7578125,157.61432507324218C7.9578125,146.0143250732422,9.3578125,110.8145250732422,18.0578125,85.61452507324219C28.6578125,55.11452507324219,48.0578125,44.414515073242185,48.0578125,44.414515073242185C48.0578125,42.21451507324219,50.3578125,40.51450507324219,53.1578125,38.21450507324219C54.2578125,37.31450507324219,55.7578125,37.214511073242186,56.5578125,37.81451107324219C57.9578125,39.71451507324219,59.2578125,41.81451507324219,60.3578125,43.914515073242185C71.5578125,64.61452507324219,93.5578125,75.61452507324219,116.9578125,77.91452507324219C148.8578125,81.11452507324219,162.1578125,80.61452507324219,178.0578125,77.11452507324219C193.2578125,73.81452507324218,200.1578125,64.81452507324218,195.9578125,49.714525073242186C195.8578125,49.41452507324219,195.8578125,49.11452507324219,195.7578125,48.91452507324219C198.4578125,48.81452507324219,204.7578125,54.01452507324218,206.8578125,61.61452507324219C226.4578125,83.21452507324219,233.8578125,142.11432507324218,235.5578125,157.61432507324218C235.5578125,157.61432507324218,7.7578125,157.61432507324218,7.7578125,157.61432507324218Z" fill="#FFF573" fill-opacity="1"/></g><g><g><g><path d="M44.657814025878906,70.21450805664062Q44.657814025878906,70.48450805664062,44.644514025878905,70.75420805664062Q44.63131402587891,71.02400805664062,44.60481402587891,71.29270805664062Q44.57841402587891,71.56140805664063,44.5387140258789,71.82850805664063Q44.49911402587891,72.09560805664063,44.44641402587891,72.36050805664063Q44.39381402587891,72.62530805664062,44.328114025878904,72.88730805664062Q44.26251402587891,73.14920805664062,44.184114025878905,73.40760805664063Q44.10581402587891,73.66600805664062,44.014814025878906,73.92030805664062Q43.923814025878904,74.17450805664063,43.82051402587891,74.42400805664063Q43.71711402587891,74.67350805664063,43.601714025878906,74.91760805664063Q43.48621402587891,75.16170805664062,43.3589140258789,75.39990805664063Q43.231614025878905,75.63800805664063,43.09281402587891,75.86960805664063Q42.954014025878905,76.10120805664063,42.80401402587891,76.32580805664062Q42.653914025878905,76.55030805664063,42.49311402587891,76.76720805664063Q42.332214025878905,76.98410805664062,42.16091402587891,77.19280805664063Q41.98961402587891,77.40160805664063,41.80831402587891,77.60160805664063Q41.626914025878904,77.80170805664062,41.436014025878904,77.99270805664062Q41.2450140258789,78.18360805664062,41.04491402587891,78.36500805664062Q40.84491402587891,78.54630805664063,40.63611402587891,78.71760805664063Q40.4274140258789,78.88890805664062,40.21051402587891,79.04980805664063Q39.993614025878905,79.21060805664062,39.769114025878906,79.36070805664062Q39.54451402587891,79.51070805664062,39.31291402587891,79.64950805664063Q39.08131402587891,79.78830805664063,38.84321402587891,79.91560805664062Q38.60501402587891,80.04290805664063,38.360914025878905,80.15840805664062Q38.11681402587891,80.27380805664063,37.867314025878905,80.37720805664063Q37.61781402587891,80.48050805664062,37.3636140258789,80.57150805664062Q37.1093140258789,80.66250805664063,36.85091402587891,80.74080805664062Q36.592514025878906,80.81920805664063,36.33061402587891,80.88480805664062Q36.06861402587891,80.95050805664063,35.80381402587891,81.00310805664063Q35.53891402587891,81.05580805664063,35.27181402587891,81.09540805664062Q35.004714025878904,81.13510805664063,34.73601402587891,81.16150805664063Q34.467314025878906,81.18800805664063,34.1975140258789,81.20120805664062Q33.9278140258789,81.21450805664062,33.657814025878906,81.21450805664062Q33.38781402587891,81.21450805664062,33.11811402587891,81.20120805664062Q32.848314025878906,81.18800805664063,32.57962402587891,81.16150805664063Q32.31089402587891,81.13510805664063,32.0437740258789,81.09540805664062Q31.776664025878908,81.05580805664063,31.511814025878905,81.00310805664063Q31.246974025878906,80.95050805664063,30.985034025878907,80.88480805664062Q30.723084025878904,80.81920805664063,30.464684025878906,80.74080805664062Q30.206274025878905,80.66250805664063,29.952024025878906,80.57150805664062Q29.697774025878907,80.48050805664062,29.448294025878905,80.37720805664063Q29.198814025878907,80.27380805664063,28.954704025878907,80.15840805664062Q28.710604025878908,80.04290805664063,28.472454025878907,79.91560805664062Q28.234304025878906,79.78830805664063,28.002684025878906,79.64950805664063Q27.771064025878907,79.51070805664062,27.546544025878905,79.36070805664062Q27.322014025878907,79.21060805664062,27.105124025878908,79.04980805664063Q26.888224025878905,78.88890805664062,26.679484025878907,78.71760805664063Q26.470744025878908,78.54630805664063,26.270664025878908,78.36500805664062Q26.070584025878908,78.18360805664062,25.879644025878907,77.99270805664062Q25.688694025878906,77.80170805664062,25.507354025878907,77.60160805664063Q25.326004025878905,77.40160805664063,25.154694025878907,77.19280805664063Q24.983394025878905,76.98410805664062,24.822534025878905,76.76720805664063Q24.661674025878906,76.55030805664063,24.511644025878905,76.32580805664062Q24.361624025878907,76.10120805664063,24.222804025878908,75.86960805664063Q24.083974025878906,75.63800805664063,23.956684025878907,75.39990805664063Q23.829384025878905,75.16170805664062,23.713934025878906,74.91760805664063Q23.598477025878907,74.67350805664063,23.495139025878906,74.42400805664063Q23.391801025878905,74.17450805664063,23.300829025878905,73.92030805664062Q23.209857025878907,73.66600805664062,23.131470025878905,73.40760805664063Q23.053083025878905,73.14920805664062,22.987470025878906,72.88730805664062Q22.921857025878907,72.62530805664062,22.869176025878907,72.36050805664063Q22.816495025878908,72.09560805664063,22.776872025878905,71.82850805664063Q22.737250025878907,71.56140805664063,22.710782025878906,71.29270805664062Q22.684314025878905,71.02400805664062,22.671064025878906,70.75420805664062Q22.657814025878906,70.48450805664062,22.657814025878906,70.21450805664062Q22.657814025878906,69.94450805664063,22.671064025878906,69.67480805664063Q22.684314025878905,69.40500805664063,22.710782025878906,69.13631805664062Q22.737250025878907,68.86758805664063,22.776872025878905,68.60046805664062Q22.816495025878908,68.33335805664062,22.869176025878907,68.06850805664062Q22.921857025878907,67.80366805664062,22.987470025878906,67.54172805664062Q23.053083025878905,67.27977805664062,23.131470025878905,67.02137805664063Q23.209857025878907,66.76296805664063,23.300829025878905,66.50871805664062Q23.391801025878905,66.25446805664062,23.495139025878906,66.00498805664063Q23.598477025878907,65.75550805664062,23.713934025878906,65.51139805664063Q23.829384025878905,65.26729805664063,23.956684025878907,65.02914805664062Q24.083974025878906,64.79099805664063,24.222804025878908,64.55937805664063Q24.361624025878907,64.32775805664062,24.511644025878905,64.10323805664062Q24.661674025878906,63.878708056640626,24.822534025878905,63.66181805664063Q24.983394025878905,63.444918056640624,25.154694025878907,63.236178056640625Q25.326004025878905,63.02743805664063,25.507354025878907,62.82735805664063Q25.688694025878906,62.62727805664063,25.879644025878907,62.43633805664062Q26.070584025878908,62.24538805664062,26.270664025878908,62.06404805664062Q26.470744025878908,61.88269805664063,26.679484025878907,61.71138805664062Q26.888224025878905,61.54008805664063,27.105124025878908,61.37922805664063Q27.322014025878907,61.21836805664063,27.546544025878905,61.06833805664063Q27.771064025878907,60.91831805664062,28.002684025878906,60.77949805664063Q28.234304025878906,60.64066805664063,28.472454025878907,60.513378056640626Q28.710604025878908,60.38607805664063,28.954704025878907,60.270628056640625Q29.198814025878907,60.155171056640626,29.448294025878905,60.051833056640625Q29.697774025878907,59.948495056640624,29.952024025878906,59.85752305664062Q30.206274025878905,59.76655105664062,30.464684025878906,59.68816405664062Q30.723084025878904,59.609777056640624,30.985034025878907,59.544164056640625Q31.246974025878906,59.478551056640626,31.511814025878905,59.425870056640626Q31.776664025878908,59.373189056640626,32.0437740258789,59.33356605664063Q32.31089402587891,59.293944056640626,32.57962402587891,59.267476056640625Q32.848314025878906,59.241008056640624,33.11811402587891,59.227758056640624Q33.38781402587891,59.214508056640625,33.657814025878906,59.214508056640625Q33.9278140258789,59.214508056640625,34.1975140258789,59.227758056640624Q34.467314025878906,59.241008056640624,34.73601402587891,59.267476056640625Q35.004714025878904,59.293944056640626,35.27181402587891,59.33356605664063Q35.53891402587891,59.373189056640626,35.80381402587891,59.425870056640626Q36.06861402587891,59.478551056640626,36.33061402587891,59.544164056640625Q36.592514025878906,59.609777056640624,36.85091402587891,59.68816405664062Q37.1093140258789,59.76655105664062,37.3636140258789,59.85752305664062Q37.61781402587891,59.948495056640624,37.867314025878905,60.051833056640625Q38.11681402587891,60.155171056640626,38.360914025878905,60.270628056640625Q38.60501402587891,60.38607805664063,38.84321402587891,60.513378056640626Q39.08131402587891,60.64066805664063,39.31291402587891,60.77949805664063Q39.54451402587891,60.91831805664062,39.769114025878906,61.06833805664063Q39.993614025878905,61.21836805664063,40.21051402587891,61.37922805664063Q40.4274140258789,61.54008805664063,40.63611402587891,61.71138805664062Q40.84491402587891,61.88269805664063,41.04491402587891,62.06404805664062Q41.2450140258789,62.24538805664062,41.436014025878904,62.43633805664062Q41.626914025878904,62.62727805664063,41.80831402587891,62.82735805664063Q41.98961402587891,63.02743805664063,42.16091402587891,63.236178056640625Q42.332214025878905,63.444918056640624,42.49311402587891,63.66181805664063Q42.653914025878905,63.878708056640626,42.80401402587891,64.10323805664062Q42.954014025878905,64.32775805664062,43.09281402587891,64.55937805664063Q43.231614025878905,64.79099805664063,43.3589140258789,65.02914805664062Q43.48621402587891,65.26729805664063,43.601714025878906,65.51139805664063Q43.71711402587891,65.75550805664062,43.82051402587891,66.00498805664063Q43.923814025878904,66.25446805664062,44.014814025878906,66.50871805664062Q44.10581402587891,66.76296805664063,44.184114025878905,67.02137805664063Q44.26251402587891,67.27977805664062,44.328114025878904,67.54172805664062Q44.39381402587891,67.80366805664062,44.44641402587891,68.06850805664062Q44.49911402587891,68.33335805664062,44.5387140258789,68.60046805664062Q44.57841402587891,68.86758805664063,44.60481402587891,69.13631805664062Q44.63131402587891,69.40500805664063,44.644514025878905,69.67480805664063Q44.657814025878906,69.94450805664063,44.657814025878906,70.21450805664062Z" fill="#423232" fill-opacity="1"/></g><g><path d="M87.95781555175782,80.314511953125Q87.95781555175782,80.503541953125,87.94851555175781,80.692331953125Q87.93921555175781,80.88113195312499,87.92071555175781,81.069251953125Q87.90221555175782,81.257361953125,87.87451555175781,81.444341953125Q87.84671555175781,81.631321953125,87.80981555175781,81.816711953125Q87.77301555175781,82.002101953125,87.72701555175782,82.185461953125Q87.68111555175781,82.368821953125,87.62621555175781,82.549711953125Q87.57141555175781,82.730601953125,87.50771555175781,82.908601953125Q87.44401555175781,83.086501953125,87.37171555175782,83.261201953125Q87.29931555175781,83.43580195312501,87.21851555175782,83.606701953125Q87.13771555175781,83.777601953125,87.04861555175782,83.944301953125Q86.95951555175782,84.111001953125,86.86231555175782,84.273101953125Q86.76511555175782,84.435201953125,86.66011555175781,84.592401953125Q86.55511555175781,84.749601953125,86.44251555175781,84.901401953125Q86.32991555175781,85.053201953125,86.2100155517578,85.199301953125Q86.0901155517578,85.345501953125,85.96311555175781,85.485501953125Q85.83621555175782,85.625601953125,85.70251555175781,85.759201953125Q85.56891555175781,85.892901953125,85.42881555175781,86.019801953125Q85.28871555175782,86.14680195312499,85.14261555175781,86.266701953125Q84.99651555175781,86.386601953125,84.84471555175782,86.499201953125Q84.6929155517578,86.611801953125,84.53571555175782,86.716801953125Q84.37851555175781,86.821901953125,84.21641555175782,86.919001953125Q84.05431555175781,87.016201953125,83.88751555175782,87.10530195312501Q83.72081555175781,87.194401953125,83.55001555175781,87.275201953125Q83.37911555175782,87.356101953125,83.20451555175781,87.428401953125Q83.0298155517578,87.500701953125,82.85181555175781,87.564401953125Q82.67391555175782,87.628101953125,82.49300555175782,87.683001953125Q82.31211555175781,87.737801953125,82.12875555175782,87.78380195312499Q81.94539555175781,87.829701953125,81.76000555175781,87.866601953125Q81.57461555175782,87.903401953125,81.38763555175781,87.931201953125Q81.20065555175782,87.95890195312501,81.01254555175781,87.977401953125Q80.82442555175781,87.996001953125,80.63563555175782,88.005201953125Q80.44683555175781,88.014501953125,80.25781555175782,88.014501953125Q80.06878555175781,88.014501953125,79.87999555175782,88.005201953125Q79.69119555175781,87.996001953125,79.5030855517578,87.977401953125Q79.31496555175781,87.95890195312501,79.12798555175782,87.931201953125Q78.94100555175781,87.903401953125,78.75561555175781,87.866601953125Q78.57022555175782,87.829701953125,78.38686555175781,87.78380195312499Q78.20350555175781,87.737801953125,78.02262555175781,87.683001953125Q77.84173555175781,87.628101953125,77.66376555175782,87.564401953125Q77.48578555175781,87.500701953125,77.31114555175782,87.428401953125Q77.13651555175781,87.356101953125,76.96563555175781,87.275201953125Q76.79476555175782,87.194401953125,76.62805555175781,87.10530195312501Q76.46135555175782,87.016201953125,76.29922555175781,86.919001953125Q76.13709555175781,86.821901953125,75.97992555175782,86.716801953125Q75.82275555175781,86.611801953125,75.67092555175782,86.499201953125Q75.51910555175782,86.386601953125,75.37298555175781,86.266701953125Q75.22686555175781,86.14680195312499,75.0868055517578,86.019801953125Q74.94675555175782,85.892901953125,74.81309555175781,85.759201953125Q74.67943555175782,85.625601953125,74.55249555175781,85.485501953125Q74.4255455517578,85.345501953125,74.30563555175782,85.199301953125Q74.18571555175781,85.053201953125,74.07311555175781,84.901401953125Q73.96051555175781,84.749601953125,73.85549555175781,84.592401953125Q73.75048555175782,84.435201953125,73.65330555175781,84.273101953125Q73.55612655175781,84.111001953125,73.46702155175781,83.944301953125Q73.37791555175781,83.777601953125,73.29709755175782,83.606701953125Q73.21627955175781,83.43580195312501,73.14394255175782,83.261201953125Q73.07160655175781,83.086501953125,73.00792555175781,82.908601953125Q72.94424555175782,82.730601953125,72.88937455175781,82.549711953125Q72.8345035517578,82.368821953125,72.78857455175782,82.185461953125Q72.74264555175782,82.002101953125,72.70576855175781,81.816711953125Q72.66889155175781,81.631321953125,72.64115635175781,81.444341953125Q72.61342075175781,81.257361953125,72.59489315175782,81.069251953125Q72.57636555175782,80.88113195312499,72.56709053175781,80.692331953125Q72.55781555175781,80.503541953125,72.55781555175781,80.314511953125Q72.55781555175781,80.12549195312499,72.56709053175781,79.936691953125Q72.57636555175782,79.747891953125,72.59489315175782,79.559781953125Q72.61342075175781,79.371661953125,72.64115635175781,79.184691953125Q72.66889155175781,78.997711953125,72.70576855175781,78.812311953125Q72.74264555175782,78.626921953125,72.78857455175782,78.443561953125Q72.8345035517578,78.260201953125,72.88937455175781,78.079321953125Q72.94424555175782,77.898431953125,73.00792555175781,77.720461953125Q73.07160655175781,77.542481953125,73.14394255175782,77.367841953125Q73.21627955175781,77.193211953125,73.29709755175782,77.022331953125Q73.37791555175781,76.851461953125,73.46702155175781,76.684751953125Q73.55612655175781,76.518051953125,73.65330555175781,76.355911953125Q73.75048555175782,76.193781953125,73.85549555175781,76.036611953125Q73.96051555175781,75.879451953125,74.07311555175781,75.727621953125Q74.18571555175781,75.575791953125,74.30563555175782,75.429681953125Q74.4255455517578,75.283561953125,74.55249555175781,75.143501953125Q74.67943555175782,75.003441953125,74.81309555175781,74.869781953125Q74.94675555175782,74.73612195312501,75.0868055517578,74.609181953125Q75.22686555175781,74.482241953125,75.37298555175781,74.362321953125Q75.51910555175782,74.242411953125,75.67092555175782,74.129801953125Q75.82275555175781,74.017201953125,75.97992555175782,73.912191953125Q76.13709555175781,73.807171953125,76.29922555175781,73.709991953125Q76.46135555175782,73.612814953125,76.62805555175781,73.523709953125Q76.79476555175782,73.434603953125,76.96563555175781,73.353785953125Q77.13651555175781,73.272966953125,77.31114555175782,73.200629953125Q77.48578555175781,73.128293953125,77.66376555175782,73.064612953125Q77.84173555175781,73.000932953125,78.02262555175781,72.946061953125Q78.20350555175781,72.891190953125,78.38686555175781,72.845261953125Q78.57022555175782,72.799331953125,78.75561555175781,72.762455953125Q78.94100555175781,72.725578953125,79.12798555175782,72.697842953125Q79.31496555175781,72.670107253125,79.5030855517578,72.651579653125Q79.69119555175781,72.633051953125,79.87999555175782,72.623776953125Q80.06878555175781,72.614501953125,80.25781555175782,72.614501953125Q80.44683555175781,72.614501953125,80.63563555175782,72.623776953125Q80.82442555175781,72.633051953125,81.01254555175781,72.651579653125Q81.20065555175782,72.670107253125,81.38763555175781,72.697842953125Q81.57461555175782,72.725578953125,81.76000555175781,72.762455953125Q81.94539555175781,72.799331953125,82.12875555175782,72.845261953125Q82.31211555175781,72.891190953125,82.49300555175782,72.946061953125Q82.67391555175782,73.000932953125,82.85181555175781,73.064612953125Q83.0298155517578,73.128293953125,83.20451555175781,73.200629953125Q83.37911555175782,73.272966953125,83.55001555175781,73.353784953125Q83.72081555175781,73.434603953125,83.88751555175782,73.523709953125Q84.05431555175781,73.612814953125,84.21641555175782,73.709991953125Q84.37851555175781,73.807171953125,84.53571555175782,73.912191953125Q84.6929155517578,74.017201953125,84.84471555175782,74.129801953125Q84.99651555175781,74.242411953125,85.14261555175781,74.362321953125Q85.28871555175782,74.482241953125,85.42881555175781,74.609181953125Q85.56891555175781,74.73612195312501,85.70251555175781,74.869781953125Q85.83621555175782,75.003441953125,85.96311555175781,75.143501953125Q86.0901155517578,75.283561953125,86.2100155517578,75.429681953125Q86.32991555175781,75.575791953125,86.44251555175781,75.727621953125Q86.55511555175781,75.879451953125,86.66011555175781,76.036611953125Q86.76511555175782,76.193781953125,86.86231555175782,76.355911953125Q86.95951555175782,76.518051953125,87.04861555175782,76.684751953125Q87.13771555175781,76.851461953125,87.21851555175782,77.022331953125Q87.29931555175781,77.193211953125,87.37171555175782,77.367841953125Q87.44401555175781,77.542481953125,87.50771555175781,77.720461953125Q87.57141555175781,77.898431953125,87.62621555175781,78.079321953125Q87.68111555175781,78.260201953125,87.72701555175782,78.443561953125Q87.77301555175781,78.626921953125,87.80981555175781,78.812311953125Q87.84671555175781,78.997711953125,87.87451555175781,79.184681953125Q87.90221555175782,79.371661953125,87.92071555175781,79.559781953125Q87.93921555175781,79.747891953125,87.94851555175781,79.936691953125Q87.95781555175782,80.12549195312499,87.95781555175782,80.314511953125Z" fill="#423232" fill-opacity="1"/></g><g><path d="M126.55780944824218,110.11451416015625Q126.55780944824218,110.34282416015625,126.54660944824218,110.57084416015626Q126.53540944824219,110.79887416015625,126.51300944824219,111.02611416015625Q126.4906094482422,111.25331416015625,126.45710944824219,111.47911416015626Q126.42360944824219,111.70491416015625,126.37910944824219,111.92881416015625Q126.33460944824219,112.15281416015625,126.2791094482422,112.37421416015624Q126.22360944824219,112.59571416015625,126.15740944824219,112.81421416015625Q126.09110944824218,113.03261416015624,126.01420944824218,113.24761416015625Q125.93730944824219,113.46251416015625,125.84990944824219,113.67351416015624Q125.76250944824218,113.88441416015625,125.66490944824218,114.09081416015626Q125.56730944824218,114.29711416015626,125.4597094482422,114.49851416015625Q125.35210944824219,114.69981416015625,125.23470944824219,114.89571416015625Q125.1173094482422,115.09151416015625,124.9905094482422,115.28131416015626Q124.86360944824219,115.47111416015625,124.72760944824219,115.65451416015625Q124.5916094482422,115.83791416015625,124.44680944824219,116.01441416015625Q124.30200944824219,116.19081416015625,124.14870944824219,116.36001416015625Q123.99530944824218,116.52921416015624,123.83390944824218,116.69061416015624Q123.67250944824218,116.85201416015624,123.50330944824219,117.00541416015625Q123.33410944824219,117.15871416015625,123.15770944824219,117.30351416015625Q122.98120944824218,117.44831416015626,122.79780944824219,117.58431416015625Q122.61440944824218,117.72031416015625,122.4246094482422,117.84721416015626Q122.23480944824219,117.97401416015626,122.03900944824218,118.09141416015625Q121.84310944824219,118.20881416015625,121.64180944824218,118.31641416015626Q121.44040944824219,118.42401416015625,121.2341094482422,118.52161416015625Q121.02770944824219,118.61921416015625,120.81680944824218,118.70661416015625Q120.60580944824218,118.79401416015625,120.39090944824218,118.87091416015625Q120.17590944824218,118.94781416015624,119.95750944824219,119.01411416015625Q119.73900944824219,119.08031416015625,119.51750944824218,119.13581416015626Q119.29610944824219,119.19131416015625,119.07210944824219,119.23581416015625Q118.84820944824219,119.28031416015625,118.6224094482422,119.31381416015626Q118.39660944824219,119.34731416015626,118.16940944824219,119.36971416015625Q117.94216944824218,119.39211416015625,117.7141394482422,119.40331416015624Q117.48611944824219,119.41451416015624,117.25780944824218,119.41451416015624Q117.02950944824218,119.41451416015624,116.80147944824219,119.40331416015624Q116.57345944824219,119.39211416015625,116.34624944824219,119.36971416015625Q116.11904944824218,119.34731416015626,115.89321944824219,119.31381416015626Q115.66738944824219,119.28031416015625,115.44346944824218,119.23581416015625Q115.2195594482422,119.19131416015625,114.99809944824219,119.13581416015626Q114.7766394482422,119.08031416015625,114.5581594482422,119.01411416015625Q114.33968944824218,118.94781416015624,114.12473944824218,118.87091416015625Q113.90977944824219,118.79401416015625,113.69884944824219,118.70661416015625Q113.48792944824218,118.61921416015625,113.28154944824219,118.52161416015625Q113.07516944824219,118.42401416015625,112.87381944824219,118.31641416015626Q112.67247944824219,118.20881416015625,112.47665944824219,118.09141416015625Q112.28082944824219,117.97401416015626,112.09100944824219,117.84721416015626Q111.90117944824219,117.72031416015625,111.71780944824219,117.58431416015625Q111.5344294482422,117.44831416015626,111.35794944824218,117.30351416015625Q111.18146944824218,117.15871416015625,111.01230944824219,117.00541416015625Q110.84314944824219,116.85201416015624,110.68171944824219,116.69061416015624Q110.52027944824219,116.52921416015624,110.36696944824219,116.36001416015625Q110.2136494482422,116.19081416015625,110.06880944824219,116.01441416015625Q109.92397944824219,115.83791416015625,109.78797944824218,115.65451416015625Q109.65197944824219,115.47111416015625,109.52513944824219,115.28131416015626Q109.39830944824219,115.09151416015625,109.28092944824219,114.89571416015625Q109.16355944824218,114.69981416015625,109.05593944824219,114.49851416015625Q108.94832144824218,114.29711416015626,108.85070944824218,114.09081416015626Q108.75309744824219,113.88441416015625,108.66572944824219,113.67351416015624Q108.57836244824219,113.46251416015625,108.50144944824218,113.24761416015625Q108.42453744824219,113.03261416015624,108.35826444824218,112.81421416015625Q108.29199144824219,112.59571416015625,108.2365184482422,112.37421416015624Q108.18104544824219,112.15281416015625,108.13650644824219,111.92881416015625Q108.09196644824219,111.70491416015625,108.05846744824218,111.47911416015626Q108.02496904824218,111.25331416015625,108.0025915482422,111.02611416015625Q107.98021394824218,110.79887416015625,107.96901174824218,110.57084416015626Q107.95780944824219,110.34282416015625,107.95780944824219,110.11451416015625Q107.95780944824219,109.88621416015624,107.96901174824218,109.65818416015625Q107.98021394824218,109.43016416015625,108.0025915482422,109.20295416015625Q108.02496904824218,108.97575416015624,108.05846744824218,108.74992416015625Q108.09196644824219,108.52409416015625,108.13650644824219,108.30017416015625Q108.18104544824219,108.07626416015626,108.2365184482422,107.85480416015625Q108.29199144824219,107.63334416015626,108.35826444824218,107.41486416015626Q108.42453744824219,107.19639416015625,108.50144944824218,106.98144416015624Q108.57836244824219,106.76648416015625,108.66572944824219,106.55555416015625Q108.75309744824219,106.34463416015625,108.85070944824218,106.13825416015625Q108.94832144824218,105.93187416015626,109.05593944824219,105.73052416015625Q109.16355944824218,105.52918416015625,109.28092944824219,105.33336416015625Q109.39830944824219,105.13753416015625,109.52513944824219,104.94771416015625Q109.65197944824219,104.75788416015625,109.78797944824218,104.57451416015626Q109.92397944824219,104.39113416015626,110.06880944824219,104.21465416015624Q110.2136494482422,104.03817416015625,110.36695944824218,103.86901416015625Q110.52027944824219,103.69985416015625,110.68171944824219,103.53842416015625Q110.84314944824219,103.37698416015625,111.01230944824219,103.22367416015625Q111.18146944824218,103.07035416015626,111.35794944824218,102.92551416015625Q111.5344294482422,102.78068416015626,111.71780944824219,102.64468416015625Q111.90117944824219,102.50868416015625,112.09100944824219,102.38184416015625Q112.28082944824219,102.25501416015625,112.47665944824219,102.13763416015625Q112.67247944824219,102.02026416015624,112.87381944824219,101.91264416015625Q113.07516944824219,101.80502616015625,113.28154944824219,101.70741416015625Q113.48792944824218,101.60980216015625,113.69884944824219,101.52243416015625Q113.90977944824219,101.43506716015625,114.12473944824218,101.35815416015625Q114.33968944824218,101.28124216015625,114.5581594482422,101.21496916015624Q114.7766394482422,101.14869616015625,114.99809944824219,101.09322316015626Q115.2195594482422,101.03775016015625,115.44346944824218,100.99321116015625Q115.66738944824219,100.94867116015625,115.89321944824219,100.91517216015625Q116.11904944824218,100.88167376015625,116.34624944824219,100.85929626015626Q116.57345944824219,100.83691866015624,116.80147944824219,100.82571646015624Q117.02950944824218,100.81451416015625,117.25780944824218,100.81451416015625Q117.48611944824219,100.81451416015625,117.7141394482422,100.82571646015624Q117.94216944824218,100.83691866015624,118.16940944824219,100.85929626015626Q118.39660944824219,100.88167376015625,118.6224094482422,100.91517216015625Q118.84820944824219,100.94867116015625,119.07210944824219,100.99321116015625Q119.29610944824219,101.03775016015625,119.51750944824218,101.09322316015626Q119.73900944824219,101.14869616015625,119.95750944824219,101.21496916015624Q120.17590944824218,101.28124216015625,120.39090944824218,101.35815416015625Q120.60580944824218,101.43506716015625,120.81680944824218,101.52243416015625Q121.02770944824219,101.60980216015625,121.2341094482422,101.70741416015625Q121.44040944824219,101.80502616015625,121.64180944824218,101.91264416015625Q121.84310944824219,102.02026416015624,122.03900944824218,102.13763416015625Q122.23480944824219,102.25501416015625,122.4246094482422,102.38184416015625Q122.61440944824218,102.50868416015625,122.79780944824219,102.64468416015625Q122.98120944824218,102.78068416015626,123.15770944824219,102.92551416015625Q123.33410944824219,103.07035416015626,123.50330944824219,103.22366416015625Q123.67250944824218,103.37698416015625,123.83390944824218,103.53842416015625Q123.99530944824218,103.69985416015625,124.14870944824219,103.86901416015625Q124.30200944824219,104.03817416015625,124.44680944824219,104.21465416015624Q124.5916094482422,104.39113416015626,124.72760944824219,104.57451416015626Q124.86360944824219,104.75788416015625,124.9905094482422,104.94771416015625Q125.1173094482422,105.13753416015625,125.23470944824219,105.33336416015625Q125.35210944824219,105.52918416015625,125.4597094482422,105.73052416015625Q125.56730944824218,105.93187416015626,125.66490944824218,106.13825416015625Q125.76250944824218,106.34463416015625,125.84990944824219,106.55555416015625Q125.93730944824219,106.76648416015625,126.01420944824218,106.98144416015624Q126.09110944824218,107.19639416015625,126.15740944824219,107.41486416015626Q126.22360944824219,107.63334416015626,126.2791094482422,107.85480416015625Q126.33460944824219,108.07626416015626,126.37910944824219,108.30017416015625Q126.42360944824219,108.52409416015625,126.45710944824219,108.74992416015625Q126.4906094482422,108.97575416015624,126.51300944824219,109.20295416015625Q126.53540944824219,109.43016416015625,126.54660944824218,109.65818416015625Q126.55780944824218,109.88621416015624,126.55780944824218,110.11451416015625Z" fill="#423232" fill-opacity="1"/></g><g><path d="M170.65780181884764,95.1145163671875Q170.65780181884764,95.2888163671875,170.64920181884764,95.4628963671875Q170.64070181884765,95.6369863671875,170.62360181884765,95.8104363671875Q170.60650181884765,95.9838963671875,170.58090181884765,96.1563063671875Q170.55540181884766,96.3287063671875,170.52140181884766,96.4996563671875Q170.48740181884764,96.6706063671875,170.44500181884766,96.83967636718751Q170.40270181884765,97.0087463671875,170.35210181884764,97.1755363671875Q170.30150181884767,97.3423263671875,170.24280181884765,97.5064263671875Q170.18400181884766,97.6705363671875,170.11730181884766,97.8315663671875Q170.05060181884767,97.9925963671875,169.97610181884767,98.1501263671875Q169.90160181884767,98.3077263671875,169.81940181884767,98.4614263671875Q169.73730181884767,98.6151263671875,169.64770181884765,98.7646263671875Q169.55810181884766,98.91412636718749,169.46120181884766,99.0590263671875Q169.36440181884765,99.2040263671875,169.26060181884765,99.34392636718749Q169.15670181884767,99.48392636718751,169.04620181884766,99.6187263671875Q168.93560181884766,99.7534263671875,168.81850181884766,99.8826263671875Q168.70150181884765,100.01172636718749,168.57830181884765,100.1349263671875Q168.45500181884765,100.2582263671875,168.32590181884765,100.3752263671875Q168.19670181884766,100.4923263671875,168.06200181884765,100.60292636718751Q167.92730181884767,100.7134263671875,167.78730181884765,100.8173263671875Q167.64730181884767,100.9211263671875,167.50230181884766,101.0179263671875Q167.35740181884765,101.1147263671875,167.20790181884766,101.2044263671875Q167.05840181884764,101.2940263671875,166.90470181884766,101.3761263671875Q166.75100181884767,101.4583263671875,166.59340181884767,101.5328263671875Q166.43588181884766,101.6073263671875,166.27485181884765,101.6740263671875Q166.11382181884767,101.7407263671875,165.94971181884765,101.7994263671875Q165.78561181884766,101.8582263671875,165.61882181884766,101.9088263671875Q165.45203181884764,101.9594263671875,165.28296181884767,102.0017263671875Q165.11389181884766,102.0441263671875,164.94294181884766,102.0781263671875Q164.77199181884765,102.1121263671875,164.59958181884767,102.1376263671875Q164.42718181884766,102.1632263671875,164.25372181884765,102.1803263671875Q164.08026181884765,102.1974263671875,163.90618181884764,102.2059263671875Q163.73209181884766,102.2145263671875,163.55780181884765,102.2145263671875Q163.38350181884766,102.2145263671875,163.20942181884766,102.2059263671875Q163.03533181884765,102.1974263671875,162.86188181884765,102.1803263671875Q162.68842181884764,102.1632263671875,162.51601181884766,102.1376263671875Q162.34360181884765,102.1121263671875,162.17266181884764,102.0781263671875Q162.00171181884767,102.0441263671875,161.83264181884766,102.0017263671875Q161.66357181884766,101.9594263671875,161.49678181884767,101.9088263671875Q161.32999181884765,101.8582263671875,161.16588181884765,101.7994263671875Q161.00177181884766,101.7407263671875,160.84075181884765,101.6740263671875Q160.67972181884767,101.6073263671875,160.52216181884765,101.5328263671875Q160.36460181884766,101.4583263671875,160.21088181884767,101.3761263671875Q160.05717181884765,101.2940263671875,159.90767181884766,101.2044263671875Q159.75817181884764,101.1147263671875,159.61325181884766,101.0179263671875Q159.46833181884764,100.9211263671875,159.32833181884766,100.8173263671875Q159.18834181884765,100.7134263671875,159.05361181884766,100.60292636718751Q158.91888181884767,100.4923263671875,158.78973181884766,100.3752263671875Q158.66059181884765,100.2582263671875,158.53734181884766,100.1349263671875Q158.41410181884766,100.01172636718749,158.29705181884765,99.8826263671875Q158.18000181884764,99.7534263671875,158.06943181884765,99.6187263671875Q157.95885181884765,99.48392636718751,157.85503181884766,99.34392636718749Q157.75120181884765,99.2040263671875,157.65437181884766,99.0590263671875Q157.55753181884765,98.91412636718749,157.46793181884766,98.7646263671875Q157.37832281884766,98.6151263671875,157.29616081884765,98.4614263671875Q157.21399881884764,98.3077263671875,157.13947781884767,98.1501263671875Q157.06495681884766,97.9925963671875,156.99825681884766,97.8315663671875Q156.93155681884767,97.6705363671875,156.87283881884767,97.5064363671875Q156.81412081884767,97.3423263671875,156.76352481884766,97.1755363671875Q156.71292981884767,97.0087463671875,156.67057981884764,96.83967636718751Q156.62822981884764,96.6706063671875,156.59422581884766,96.4996563671875Q156.56022281884765,96.3287063671875,156.53464851884766,96.1562963671875Q156.50907411884765,95.9838963671875,156.49199021884766,95.8104363671875Q156.47490631884764,95.6369863671875,156.46635407884764,95.4628963671875Q156.45780181884766,95.2888163671875,156.45780181884766,95.1145163671875Q156.45780181884766,94.9402263671875,156.46635407884764,94.7661363671875Q156.47490631884764,94.5920563671875,156.49199021884766,94.4185963671875Q156.50907411884765,94.2451363671875,156.53464851884766,94.0727363671875Q156.56022281884765,93.9003263671875,156.59422581884766,93.7293763671875Q156.62822981884764,93.5584363671875,156.67057981884764,93.3893563671875Q156.71292981884767,93.2202863671875,156.76352581884765,93.0534963671875Q156.81412081884767,92.8867063671875,156.87283881884767,92.7226063671875Q156.93155681884767,92.5584963671875,156.99825681884766,92.3974663671875Q157.06495681884766,92.2364363671875,157.13947781884767,92.0788763671875Q157.21399881884764,91.9213163671875,157.29616081884765,91.7676063671875Q157.37832281884766,91.6138863671875,157.46793181884766,91.4643963671875Q157.55753181884765,91.3148963671875,157.65437181884766,91.1699763671875Q157.75120181884765,91.0250563671875,157.85503181884766,90.8850563671875Q157.95885181884765,90.7450663671875,158.06943181884765,90.6103263671875Q158.18000181884764,90.4755963671875,158.29705181884765,90.3464563671875Q158.41410181884766,90.2173063671875,158.53734181884766,90.0940663671875Q158.66059181884765,89.9708163671875,158.78973181884766,89.8537663671875Q158.91888181884767,89.7367263671875,159.05361181884766,89.6261463671875Q159.18834181884765,89.5155763671875,159.32833181884766,89.4117463671875Q159.46833181884764,89.3079263671875,159.61325181884766,89.2110863671875Q159.75817181884764,89.1142563671875,159.90767181884766,89.0246563671875Q160.05717181884765,88.9350463671875,160.21088181884767,88.8528843671875Q160.36460181884766,88.7707223671875,160.52216181884765,88.6962013671875Q160.67972181884767,88.6216803671875,160.84075181884765,88.5549813671875Q161.00177181884766,88.4882813671875,161.16588181884765,88.4295633671875Q161.32999181884765,88.3708443671875,161.49678181884767,88.3202493671875Q161.66357181884766,88.2696543671875,161.83264181884766,88.2273043671875Q162.00171181884767,88.1849543671875,162.17266181884764,88.1509503671875Q162.34360181884765,88.1169473671875,162.51601181884766,88.0913730671875Q162.68842181884764,88.0657986671875,162.86188181884765,88.0487147671875Q163.03533181884765,88.0316308671875,163.20942181884766,88.0230786171875Q163.38350181884766,88.0145263671875,163.55780181884765,88.0145263671875Q163.73209181884766,88.0145263671875,163.90618181884764,88.0230786171875Q164.08026181884765,88.0316308671875,164.25372181884765,88.0487147671875Q164.42718181884766,88.0657986671875,164.59958181884767,88.0913730671875Q164.77199181884765,88.1169473671875,164.94294181884766,88.1509503671875Q165.11389181884766,88.1849543671875,165.28296181884767,88.2273043671875Q165.45203181884764,88.2696543671875,165.61882181884766,88.3202493671875Q165.78561181884766,88.3708443671875,165.94971181884765,88.4295633671875Q166.11382181884767,88.4882813671875,166.27485181884765,88.5549813671875Q166.43588181884766,88.6216803671875,166.59340181884767,88.6962013671875Q166.75100181884767,88.7707223671875,166.90470181884766,88.8528843671875Q167.05840181884764,88.9350463671875,167.20790181884766,89.0246563671875Q167.35740181884765,89.1142563671875,167.50230181884766,89.2110863671875Q167.64730181884767,89.3079263671875,167.78730181884765,89.4117463671875Q167.92730181884767,89.5155763671875,168.06200181884765,89.6261463671875Q168.19670181884766,89.7367263671875,168.32590181884765,89.8537663671875Q168.45500181884765,89.9708163671875,168.57830181884765,90.0940663671875Q168.70150181884765,90.2173063671875,168.81850181884766,90.3464563671875Q168.93560181884766,90.4755963671875,169.04620181884766,90.6103263671875Q169.15670181884767,90.7450663671875,169.26060181884765,90.8850563671875Q169.36440181884765,91.0250563671875,169.46120181884766,91.1699763671875Q169.55810181884766,91.3148963671875,169.64770181884765,91.4643963671875Q169.73730181884767,91.6138863671875,169.81940181884767,91.7676063671875Q169.90160181884767,91.9213163671875,169.97610181884767,92.0788763671875Q170.05060181884767,92.2364363671875,170.11730181884766,92.3974663671875Q170.18400181884766,92.5584963671875,170.24280181884765,92.7226063671875Q170.30150181884767,92.8867063671875,170.35210181884764,93.0534963671875Q170.40270181884765,93.2202863671875,170.44500181884766,93.3893563671875Q170.48740181884764,93.5584363671875,170.52140181884766,93.7293763671875Q170.55540181884766,93.9003263671875,170.58090181884765,94.0727363671875Q170.60650181884765,94.2451363671875,170.62360181884765,94.4185963671875Q170.64070181884765,94.5920563671875,170.64920181884764,94.7661363671875Q170.65780181884764,94.9402263671875,170.65780181884764,95.1145163671875Z" fill="#423232" fill-opacity="1"/></g><g><path d="M207.05782012939454,106.014501953125Q207.05782012939454,106.282101953125,207.04472012939453,106.549301953125Q207.03152012939452,106.816601953125,207.00532012939453,107.082901953125Q206.97912012939452,107.349201953125,206.93982012939452,107.613901953125Q206.90062012939453,107.878601953125,206.84842012939453,108.141001953125Q206.79622012939453,108.403401953125,206.73112012939453,108.663001953125Q206.66612012939453,108.922601953125,206.58842012939454,109.178601953125Q206.51082012939452,109.434701953125,206.42062012939454,109.686601953125Q206.33052012939453,109.938501953125,206.22812012939454,110.18580195312501Q206.12572012939452,110.433001953125,206.01132012939453,110.674901953125Q205.89692012939452,110.916701953125,205.77072012939453,111.152701953125Q205.64462012939453,111.38870195312501,205.50702012939453,111.618201953125Q205.36952012939452,111.847701953125,205.22082012939453,112.07020195312501Q205.07222012939454,112.292701953125,204.91282012939453,112.507601953125Q204.75342012939453,112.72260195312501,204.58362012939455,112.929401953125Q204.41392012939454,113.136201953125,204.23422012939454,113.334501953125Q204.05452012939452,113.532801953125,203.86532012939455,113.722001953125Q203.67612012939452,113.911201953125,203.47782012939453,114.090901953125Q203.27952012939454,114.270601953125,203.07272012939453,114.440301953125Q202.86582012939454,114.610101953125,202.65092012939454,114.769501953125Q202.43602012939454,114.928901953125,202.21352012939454,115.077501953125Q201.99102012939454,115.226201953125,201.76152012939454,115.363801953125Q201.53202012939454,115.501301953125,201.29602012939452,115.627501953125Q201.06002012939453,115.753601953125,200.81822012939452,115.868001953125Q200.57632012939453,115.98240195312499,200.32902012939454,116.08480195312501Q200.08182012939454,116.187201953125,199.82992012939454,116.277301953125Q199.57802012939453,116.367501953125,199.32192012939453,116.44520195312501Q199.06582012939452,116.522801953125,198.80632012939452,116.587901953125Q198.54672012939454,116.652901953125,198.28432012939453,116.705101953125Q198.02182012939454,116.757301953125,197.75722012939454,116.796501953125Q197.49252012939453,116.835801953125,197.22622012939453,116.862001953125Q196.95992012939453,116.888301953125,196.69262012939453,116.901401953125Q196.42542012939452,116.914501953125,196.15782012939454,116.914501953125Q195.89022012939452,116.914501953125,195.62302012939452,116.901401953125Q195.35572012939454,116.888301953125,195.08943012939454,116.862001953125Q194.82314012939452,116.835801953125,194.55846012939452,116.796501953125Q194.29377012939455,116.757301953125,194.03134012939452,116.705101953125Q193.76890012939452,116.652901953125,193.50934012939453,116.587901953125Q193.24978012939454,116.522801953125,192.99372012939452,116.44520195312501Q192.73766012939453,116.367501953125,192.48572012939454,116.277301953125Q192.23378012939452,116.187201953125,191.98657012939452,116.08480195312501Q191.73936012939453,115.98240195312499,191.49747012939454,115.868001953125Q191.25558012939453,115.753601953125,191.01960012939452,115.627501953125Q190.78361012939453,115.501301953125,190.55410012939453,115.363801953125Q190.32459012939452,115.226201953125,190.10210012939453,115.077501953125Q189.87962012939454,114.928901953125,189.66470012939453,114.769501953125Q189.44978012939453,114.610101953125,189.24293012939452,114.440301953125Q189.03609012939452,114.270601953125,188.83783012939452,114.090901953125Q188.63956012939454,113.911201953125,188.45036012939454,113.722001953125Q188.26115012939454,113.532801953125,188.08145012939454,113.334501953125Q187.90176012939452,113.136201953125,187.73201012939452,112.929401953125Q187.56226012939453,112.72260195312501,187.40286012939453,112.507601953125Q187.24346012939452,112.292701953125,187.09480012939454,112.07020195312501Q186.94614012939454,111.847701953125,186.80858012939453,111.618201953125Q186.67101012939452,111.38870195312501,186.54488012939453,111.152701953125Q186.41874012939454,110.916701953125,186.30434012939452,110.674901953125Q186.18993212939452,110.433001953125,186.08753312939453,110.18580195312501Q185.98513512939454,109.938501953125,185.89499012939453,109.686601953125Q185.80484512939452,109.434701953125,185.72717012939452,109.178601953125Q185.64949612939452,108.922601953125,185.58447912939454,108.663001953125Q185.51946312939452,108.403401953125,185.46726012939453,108.141001953125Q185.41505812939454,107.878601953125,185.37579612939453,107.613901953125Q185.33653402939453,107.349201953125,185.31030662939452,107.082901953125Q185.28407922939454,106.816601953125,185.27094962939452,106.549301953125Q185.25782012939453,106.282101953125,185.25782012939453,106.014501953125Q185.25782012939453,105.746901953125,185.27094962939452,105.479701953125Q185.28407922939454,105.212401953125,185.31030662939452,104.946121953125Q185.33653402939453,104.679831953125,185.37579612939453,104.415141953125Q185.41505812939454,104.150461953125,185.46726012939453,103.888021953125Q185.51946312939452,103.62558195312499,185.58447912939454,103.366021953125Q185.64949612939452,103.106461953125,185.72717012939452,102.850401953125Q185.80484512939452,102.594351953125,185.89499012939453,102.342411953125Q185.98513512939454,102.090471953125,186.08753312939453,101.843261953125Q186.18993212939452,101.596041953125,186.30434012939452,101.354151953125Q186.41874012939454,101.112261953125,186.54488012939453,100.876281953125Q186.67101012939452,100.640291953125,186.80858012939453,100.410781953125Q186.94614012939454,100.181271953125,187.09480012939454,99.958791953125Q187.24346012939452,99.73630195312501,187.40286012939453,99.521381953125Q187.56226012939453,99.306461953125,187.73201012939452,99.099621953125Q187.90176012939452,98.892771953125,188.08145012939454,98.694511953125Q188.26115012939454,98.496251953125,188.45036012939454,98.307041953125Q188.63956012939454,98.117831953125,188.83783012939452,97.938131953125Q189.03609012939452,97.758441953125,189.24293012939452,97.588691953125Q189.44978012939453,97.418941953125,189.66470012939453,97.259541953125Q189.87962012939454,97.100141953125,190.10210012939453,96.951481953125Q190.32459012939452,96.802821953125,190.55410012939453,96.665261953125Q190.78361012939453,96.527701953125,191.01960012939452,96.401561953125Q191.25558012939453,96.275421953125,191.49747012939454,96.161021953125Q191.73936012939453,96.046613953125,191.98657012939452,95.944215953125Q192.23378012939452,95.841816953125,192.48572012939454,95.751671953125Q192.73766012939453,95.661526953125,192.99372012939452,95.583852953125Q193.24978012939454,95.506177953125,193.50934012939453,95.441161953125Q193.76890012939452,95.376144953125,194.03134012939452,95.323942953125Q194.29377012939455,95.271739953125,194.55846012939452,95.232477953125Q194.82314012939452,95.193215953125,195.08943012939454,95.166988453125Q195.35572012939454,95.140761053125,195.62302012939452,95.127631453125Q195.89022012939452,95.114501953125,196.15782012939454,95.114501953125Q196.42542012939452,95.114501953125,196.69262012939453,95.127631453125Q196.95992012939453,95.140761053125,197.22622012939453,95.166988453125Q197.49252012939453,95.193215953125,197.75722012939454,95.232477953125Q198.02182012939454,95.271739953125,198.28432012939453,95.323942953125Q198.54672012939454,95.376144953125,198.80632012939452,95.441161953125Q199.06582012939452,95.506177953125,199.32192012939453,95.583852953125Q199.57802012939453,95.661526953125,199.82992012939454,95.751671953125Q200.08182012939454,95.841816953125,200.32902012939454,95.944215953125Q200.57632012939453,96.046613953125,200.81812012939454,96.161021953125Q201.06002012939453,96.275421953125,201.29602012939452,96.401561953125Q201.53202012939454,96.527701953125,201.76152012939454,96.665261953125Q201.99102012939454,96.802821953125,202.21352012939454,96.951481953125Q202.43602012939454,97.100141953125,202.65092012939454,97.259541953125Q202.86582012939454,97.418941953125,203.07272012939453,97.588691953125Q203.27952012939454,97.758441953125,203.47782012939453,97.938131953125Q203.67612012939452,98.117831953125,203.86532012939455,98.307041953125Q204.05452012939452,98.496251953125,204.23422012939454,98.694511953125Q204.41392012939454,98.892771953125,204.58362012939455,99.099621953125Q204.75342012939453,99.306461953125,204.91282012939453,99.521381953125Q205.07222012939454,99.73630195312501,205.22082012939453,99.958791953125Q205.36952012939452,100.181271953125,205.50702012939453,100.410781953125Q205.64462012939453,100.640301953125,205.77072012939453,100.876281953125Q205.89692012939452,101.112261953125,206.01132012939453,101.354151953125Q206.12572012939452,101.596041953125,206.22812012939454,101.843261953125Q206.33052012939453,102.090471953125,206.42062012939454,102.342411953125Q206.51082012939452,102.594351953125,206.58852012939454,102.850401953125Q206.66612012939453,103.106461953125,206.73112012939453,103.366021953125Q206.79622012939453,103.62558195312499,206.84842012939453,103.888021953125Q206.90062012939453,104.150461953125,206.93982012939452,104.415141953125Q206.97912012939452,104.679831953125,207.00532012939453,104.946121953125Q207.03152012939452,105.212401953125,207.04472012939453,105.479701953125Q207.05782012939454,105.746901953125,207.05782012939454,106.014501953125Z" fill="#423232" fill-opacity="1"/></g><g><path d="M229.25782623291016,80.314511953125Q229.25782623291016,80.503541953125,229.24852623291017,80.692331953125Q229.23922623291014,80.88113195312499,229.22072623291015,81.069251953125Q229.20222623291016,81.257361953125,229.17452623291015,81.444341953125Q229.14672623291017,81.631321953125,229.10982623291017,81.816711953125Q229.07302623291017,82.002101953125,229.02702623291015,82.185461953125Q228.98112623291016,82.368821953125,228.92622623291015,82.549711953125Q228.87142623291015,82.730601953125,228.80772623291017,82.908601953125Q228.74402623291016,83.086501953125,228.67172623291015,83.261201953125Q228.59932623291016,83.43580195312501,228.51852623291015,83.606701953125Q228.43772623291017,83.777601953125,228.34862623291016,83.944301953125Q228.25952623291016,84.111001953125,228.16232623291015,84.273101953125Q228.06512623291016,84.435201953125,227.96012623291017,84.592401953125Q227.85512623291015,84.749601953125,227.74252623291017,84.901401953125Q227.62992623291015,85.053201953125,227.51002623291015,85.199301953125Q227.39012623291015,85.345501953125,227.26312623291017,85.485501953125Q227.13622623291016,85.625601953125,227.00252623291016,85.759201953125Q226.86892623291016,85.892901953125,226.72882623291017,86.019801953125Q226.58872623291015,86.14680195312499,226.44262623291016,86.266701953125Q226.29652623291017,86.386601953125,226.14472623291016,86.499201953125Q225.99292623291015,86.611801953125,225.83572623291016,86.716801953125Q225.67852623291014,86.821901953125,225.51642623291016,86.919001953125Q225.35432623291015,87.016201953125,225.18752623291016,87.10530195312501Q225.02082623291017,87.194401953125,224.85002623291015,87.275201953125Q224.67912623291016,87.356101953125,224.50452623291017,87.428401953125Q224.32982623291016,87.500701953125,224.15182623291017,87.564401953125Q223.97392623291015,87.628101953125,223.79301623291016,87.683001953125Q223.61212623291016,87.737801953125,223.42876623291016,87.78380195312499Q223.24540623291017,87.829701953125,223.06001623291016,87.866601953125Q222.87462623291015,87.903401953125,222.68764623291017,87.931201953125Q222.50066623291016,87.95890195312501,222.31255623291017,87.977401953125Q222.12443623291017,87.996001953125,221.93564623291016,88.005201953125Q221.74684623291014,88.014501953125,221.55782623291014,88.014501953125Q221.36879623291014,88.014501953125,221.18000623291016,88.005201953125Q220.99120623291014,87.996001953125,220.80309623291015,87.977401953125Q220.61497623291015,87.95890195312501,220.42799623291015,87.931201953125Q220.24101623291017,87.903401953125,220.05562623291016,87.866601953125Q219.87023623291014,87.829701953125,219.68687623291015,87.78380195312499Q219.50351623291016,87.737801953125,219.32263623291016,87.683001953125Q219.14174623291015,87.628101953125,218.96377623291016,87.564401953125Q218.78579623291014,87.500701953125,218.61115623291016,87.428401953125Q218.43652623291015,87.356101953125,218.26564623291014,87.275201953125Q218.09477623291016,87.194401953125,217.92806623291017,87.10530195312501Q217.76136623291015,87.016201953125,217.59923623291016,86.919001953125Q217.43710623291017,86.821901953125,217.27993623291016,86.716801953125Q217.12276623291015,86.611801953125,216.97093623291016,86.499201953125Q216.81911623291015,86.386601953125,216.67299623291015,86.266701953125Q216.52687623291015,86.14680195312499,216.38681623291015,86.019801953125Q216.24676623291015,85.892901953125,216.11310623291016,85.759201953125Q215.97944623291016,85.625601953125,215.85250623291014,85.485501953125Q215.72555623291015,85.345501953125,215.60564623291015,85.199301953125Q215.48572623291017,85.053201953125,215.37312623291015,84.901401953125Q215.26052623291017,84.749601953125,215.15550623291017,84.592401953125Q215.05049623291015,84.435201953125,214.95331623291017,84.273101953125Q214.85613723291016,84.111001953125,214.76703223291017,83.944301953125Q214.67792623291015,83.777601953125,214.59710823291016,83.606701953125Q214.51629023291017,83.43580195312501,214.44395323291016,83.261201953125Q214.37161723291015,83.086501953125,214.30793623291015,82.908601953125Q214.24425623291015,82.730601953125,214.18938523291015,82.549711953125Q214.13451423291016,82.368821953125,214.08858523291016,82.185461953125Q214.04265623291016,82.002101953125,214.00577923291016,81.816711953125Q213.96890223291015,81.631321953125,213.94116703291016,81.444341953125Q213.91343143291016,81.257361953125,213.89490383291016,81.069251953125Q213.87637623291016,80.88113195312499,213.86710121291014,80.692331953125Q213.85782623291016,80.503541953125,213.85782623291016,80.314511953125Q213.85782623291016,80.12549195312499,213.86710121291014,79.936691953125Q213.87637623291016,79.747891953125,213.89490383291016,79.559781953125Q213.91343143291016,79.371661953125,213.94116703291016,79.184691953125Q213.96890223291015,78.997711953125,214.00577923291016,78.812311953125Q214.04265623291016,78.626921953125,214.08858523291016,78.443561953125Q214.13451423291016,78.260201953125,214.18938523291015,78.079321953125Q214.24425623291015,77.898431953125,214.30793623291015,77.720461953125Q214.37161723291015,77.542481953125,214.44395323291016,77.367841953125Q214.51629023291017,77.193211953125,214.59710823291016,77.022331953125Q214.67792623291015,76.851461953125,214.76703223291017,76.684751953125Q214.85613723291016,76.518051953125,214.95331623291017,76.355911953125Q215.05049623291015,76.193781953125,215.15550623291017,76.036611953125Q215.26052623291017,75.879451953125,215.37312623291015,75.727621953125Q215.48572623291017,75.575791953125,215.60564623291015,75.429681953125Q215.72555623291015,75.283561953125,215.85250623291014,75.143501953125Q215.97944623291016,75.003441953125,216.11310623291016,74.869781953125Q216.24676623291015,74.73612195312501,216.38681623291015,74.609181953125Q216.52687623291015,74.482241953125,216.67299623291015,74.362321953125Q216.81911623291015,74.242411953125,216.97093623291016,74.129801953125Q217.12276623291015,74.017201953125,217.27993623291016,73.912191953125Q217.43710623291017,73.807171953125,217.59923623291016,73.709991953125Q217.76136623291015,73.612814953125,217.92806623291017,73.523709953125Q218.09477623291016,73.434603953125,218.26564623291014,73.353785953125Q218.43652623291015,73.272966953125,218.61115623291016,73.200629953125Q218.78579623291014,73.128293953125,218.96377623291016,73.064612953125Q219.14174623291015,73.000932953125,219.32263623291016,72.946061953125Q219.50351623291016,72.891190953125,219.68687623291015,72.845261953125Q219.87023623291014,72.799331953125,220.05562623291016,72.762455953125Q220.24101623291017,72.725578953125,220.42799623291015,72.697842953125Q220.61497623291015,72.670107253125,220.80309623291015,72.651579653125Q220.99120623291014,72.633051953125,221.18000623291016,72.623776953125Q221.36879623291014,72.614501953125,221.55782623291014,72.614501953125Q221.74684623291014,72.614501953125,221.93564623291016,72.623776953125Q222.12443623291017,72.633051953125,222.31255623291017,72.651579653125Q222.50066623291016,72.670107253125,222.68764623291017,72.697842953125Q222.87462623291015,72.725578953125,223.06001623291016,72.762455953125Q223.24540623291017,72.799331953125,223.42876623291016,72.845261953125Q223.61212623291016,72.891190953125,223.79301623291016,72.946061953125Q223.97392623291015,73.000932953125,224.15182623291017,73.064612953125Q224.32982623291016,73.128293953125,224.50452623291017,73.200629953125Q224.67912623291016,73.272966953125,224.85002623291015,73.353784953125Q225.02082623291017,73.434603953125,225.18752623291016,73.523709953125Q225.35432623291015,73.612814953125,225.51642623291016,73.709991953125Q225.67852623291014,73.807171953125,225.83572623291016,73.912191953125Q225.99292623291015,74.017201953125,226.14472623291016,74.129801953125Q226.29652623291017,74.242411953125,226.44262623291016,74.362321953125Q226.58872623291015,74.482241953125,226.72882623291017,74.609181953125Q226.86892623291016,74.73612195312501,227.00252623291016,74.869781953125Q227.13622623291016,75.003441953125,227.26312623291017,75.143501953125Q227.39012623291015,75.283561953125,227.51002623291015,75.429681953125Q227.62992623291015,75.575791953125,227.74252623291017,75.727621953125Q227.85512623291015,75.879451953125,227.96012623291017,76.036611953125Q228.06512623291016,76.193781953125,228.16232623291015,76.355911953125Q228.25952623291016,76.518051953125,228.34862623291016,76.684751953125Q228.43772623291017,76.851461953125,228.51852623291015,77.022331953125Q228.59932623291016,77.193211953125,228.67172623291015,77.367841953125Q228.74402623291016,77.542481953125,228.80772623291017,77.720461953125Q228.87142623291015,77.898431953125,228.92622623291015,78.079321953125Q228.98112623291016,78.260201953125,229.02702623291015,78.443561953125Q229.07302623291017,78.626921953125,229.10982623291017,78.812311953125Q229.14672623291017,78.997711953125,229.17452623291015,79.184681953125Q229.20222623291016,79.371661953125,229.22072623291015,79.559781953125Q229.23922623291014,79.747891953125,229.24852623291017,79.936691953125Q229.25782623291016,80.12549195312499,229.25782623291016,80.314511953125Z" fill="#423232" fill-opacity="1"/></g></g></g><g><path d="M195.75781173706054,48.91452507324219C195.85781173706056,49.214525073242186,195.85781173706056,49.51452507324219,195.95781173706055,49.714525073242186C200.25781173706054,64.71452507324219,193.35781173706056,73.71452507324219,178.05781173706055,77.11452507324219C162.15781173706054,80.61452507324219,148.85781173706056,81.11452507324219,116.95781173706055,77.91452507324219C93.55781173706055,75.61452507324219,71.55781173706055,64.61452507324219,60.357811737060544,43.914515073242185C59.25781173706055,41.81451507324219,57.957811737060545,39.81451507324219,56.55781173706055,37.81451107324219C55.75781173706055,37.214511073242186,54.25781173706055,37.31450507324219,53.15781173706055,38.21450507324219C50.357811737060544,40.51450507324219,48.05781173706055,42.21451507324219,48.05781173706055,44.414515073242185C48.15781173706055,44.71451507324219,49.357811737060544,48.61452507324219,52.65781173706055,54.11452507324219C57.55781173706055,62.31452507324219,67.45781173706055,73.5145250732422,85.15781173706054,82.11452507324219C113.25781173706055,95.71452507324219,167.75781173706054,95.0145250732422,184.15781173706054,88.0145250732422C209.85781173706056,77.11452507324219,206.85781173706056,61.61452507324219,206.85781173706056,61.61452507324219C204.75781173706054,53.91452507324219,198.45781173706055,48.714525073242186,195.75781173706054,48.91452507324219Z" fill="#FFFFFF" fill-opacity="1"/></g></g></g></svg>