<svg xmlns="http://www.w3.org/2000/svg" xmlns:xlink="http://www.w3.org/1999/xlink" fill="none" version="1.1" width="290" height="209.199951171875" viewBox="0 0 290 209.199951171875"><g><g><g><path d="M167.859765625,26.599986948242186C167.259765625,26.799986948242186,166.759765625,26.999996948242188,166.159765625,27.199996948242188C164.359765625,27.79999694824219,162.559765625,28.29999694824219,160.659765625,28.699996948242188C160.659765625,28.699996948242188,161.459765625,31.999996948242188,161.459765625,31.999996948242188C161.859765625,33.499996948242185,162.659765625,34.999996948242185,163.859765625,35.999996948242185C165.959765625,39.499996948242185,170.059765625,50.29999694824219,168.759765625,56.89999694824219C166.659765625,67.19999694824219,153.059765625,73.39999694824219,130.159765625,64.0999969482422C102.059765625,52.69999694824219,91.259765625,20.599986948242186,91.259765625,20.599986948242186C91.259765625,20.099990948242187,91.159765625,19.699996948242188,91.159765625,19.199996948242188C87.159765625,20.29999694824219,81.959765625,21.799986948242186,76.259765625,23.799986948242186C56.059765625,30.999996948242188,28.959765625,44.89999694824219,17.459765625,69.89999694824219C2.259765625,102.99999694824218,0.759765625,149.39999694824218,0.759765625,149.39999694824218C0.759765625,149.39999694824218,253.559765625,149.39999694824218,253.559765625,149.39999694824218C253.559765625,149.39999694824218,248.959765625,78.99999694824218,223.059765625,57.29999694824219C200.159765625,38.099996948242186,180.759765625,29.999996948242188,167.859765625,26.599986948242186Z" fill="#444444" fill-opacity="1"/></g><g><path d="M166.25977342529296,27.2C164.45977342529295,27.8,161.45977342529295,28.5,159.55977342529297,28.9C159.55977342529297,28.9,165.65977342529297,37.4,163.95977342529295,48.9C162.45977342529295,59.3,148.65977342529297,65.2,125.75977342529296,55.9C97.65977342529297,44.5,91.15977342529297,19.79999,91.15977342529297,19.29999C91.05977342529297,17.79999,90.65977342529297,13.4,90.55977342529297,12C88.75977342529296,12.6,86.55977342529297,13.69999,84.55976342529297,14.899989999999999C80.95976342529296,16.99999,78.05976342529297,20,76.25976342529297,23.7C76.15976342529297,23.8,76.15976442529296,23.9,76.15976442529296,23.9C73.55976342529297,31.4,86.95977342529297,59.1,121.45977342529297,74.6C157.15977342529297,90.6,179.25957342529296,71.9,176.85957342529298,51.8C175.15977342529297,37.8,170.65977342529297,32.5,166.25977342529296,27.2Z" fill="#444444" fill-opacity="1"/></g><g><path d="M44.270735625,112.58109189648438Q44.259765625,112.49087529648438,44.259765625,112.39999389648438Q44.259765625,112.32630359648438,44.266985625,112.25296789648438Q44.274215625,112.17963289648438,44.288585625,112.10735889648437Q44.302965625,112.03508389648438,44.324355625,111.96456689648437Q44.345745625,111.89404989648438,44.373945625,111.82596889648437Q44.402145625,111.75788789648438,44.436885625,111.69289889648438Q44.471625625,111.62790989648437,44.512565625,111.56663889648438Q44.553505625,111.50536689648438,44.600245625,111.44840389648438Q44.646995625,111.39144389648438,44.699105625,111.33933389648438Q44.751215625,111.28722389648438,44.808175625,111.24047389648437Q44.865138625,111.19373389648437,44.926410625,111.15279389648437Q44.987681625,111.11185389648438,45.052670625,111.07711389648438Q45.117659625,111.04237389648438,45.185740625,111.01417389648438Q45.253821625,110.98597389648438,45.324338625,110.96458389648437Q45.394855625,110.94319389648437,45.467130625,110.92881389648437Q45.539404625,110.91444389648437,45.612739625,110.90721389648438Q45.686075325,110.89999389648438,45.759765625,110.89999389648438Q45.827770125,110.89999389648438,45.895495625,110.90614389648438Q45.963220625,110.91230389648437,46.030111625,110.92455389648437Q46.097002625,110.93681389648438,46.162510625,110.95507389648438Q46.228017625,110.97333389648438,46.291603625,110.99744389648437Q46.355190625,111.02155389648438,46.416334625,111.05132389648438Q46.477477625,111.08108389648437,46.535677625,111.11626389648437Q46.593877625,111.15144389648438,46.648654625,111.19174389648437Q46.703432625,111.23204389648437,46.754338625,111.27713389648437Q46.805245625,111.32222389648437,46.851865625,111.37173389648437Q46.898485625,111.42124389648437,46.940425625,111.47476989648437Q46.982375625,111.52829689648438,47.019305625,111.58539989648438Q47.056235625,111.64250289648437,47.087845625,111.70271289648437Q47.119455625,111.76292289648437,47.145495625,111.82574689648438Q47.171525625,111.88857089648438,47.191765625,111.95349289648438Q47.212015625,112.01841489648437,47.226295625,112.08490189648437Q47.240585625,112.15138889648438,47.248795625,112.21889589648437L51.748795625,149.21889389648436Q51.759765625,149.30909389648437,51.759765625,149.39999389648438Q51.759765625,149.47369389648438,51.752545624999996,149.54699389648437Q51.745315625,149.62039389648436,51.730945625000004,149.69259389648437Q51.716565625,149.76489389648438,51.695175625,149.8353938964844Q51.673785625,149.90589389648437,51.645585625,149.9739938964844Q51.617385625,150.04209389648437,51.582645625,150.10709389648437Q51.547905625,150.17209389648437,51.506965625,150.23339389648436Q51.466025625,150.29459389648437,51.419285625,150.35159389648436Q51.372535625,150.40859389648438,51.320425625,150.46069389648437Q51.268315625,150.51279389648437,51.211355625,150.55949389648438Q51.154395625,150.60629389648437,51.093115625,150.64719389648437Q51.031845625,150.68809389648436,50.966855625,150.72289389648438Q50.901875625,150.75759389648437,50.833785625,150.7857938964844Q50.765705625,150.81399389648436,50.695195625,150.8353938964844Q50.624675625,150.85679389648436,50.552395625,150.87119389648439Q50.480125625,150.88559389648438,50.406795625,150.89279389648436Q50.333455625,150.89999389648438,50.259765625,150.89999389648438Q50.191755625,150.89999389648438,50.124035625,150.89379389648437Q50.056305625,150.88769389648436,49.989415625,150.87539389648438Q49.922525625,150.86319389648438,49.857015625,150.84489389648436Q49.791515625,150.82669389648436,49.727925625,150.80249389648438Q49.664335625,150.77839389648437,49.603195625,150.74869389648438Q49.542055625,150.71889389648436,49.483855625,150.68369389648439Q49.425655625,150.64849389648438,49.370875625,150.60829389648438Q49.316095625,150.56799389648438,49.265195625,150.5228938964844Q49.214285625,150.47779389648437,49.167665625,150.42829389648438Q49.121045625,150.37869389648438,49.079105625,150.32519389648436Q49.037155625,150.27169389648438,49.000225625,150.21459389648436Q48.963295625,150.15749389648437,48.931685625,150.09729389648436Q48.900075625,150.03709389648438,48.874035625,149.97419389648437Q48.848005625,149.91139389648438,48.827765625,149.8464938964844Q48.807515625,149.78159389648437,48.793235625,149.71509389648438Q48.778945625,149.64859389648439,48.770735625,149.5810938964844L44.270735625,112.58109189648438Z" fill-rule="evenodd" fill="#544D4D" fill-opacity="1"/></g><g><path d="M226.2471786767578,100.27015068945313Q226.35976867675782,99.99618268945312,226.35976867675782,99.69998168945312Q226.35976867675782,99.62629138945313,226.3525486767578,99.55295568945313Q226.34532867675782,99.47962068945313,226.3309486767578,99.40734668945312Q226.3165686767578,99.33507168945313,226.2951786767578,99.26455468945312Q226.27378867675782,99.19403768945313,226.24558867675782,99.12595668945312Q226.21738867675782,99.05787568945313,226.18264867675782,98.99288668945313Q226.14791867675783,98.92789768945312,226.10697867675782,98.86662668945313Q226.0660386767578,98.80535468945313,226.0192886767578,98.74839168945313Q225.9725386767578,98.69143168945313,225.9204286767578,98.63932168945313Q225.8683286767578,98.58721168945313,225.8113586767578,98.54046168945312Q225.7543986767578,98.49372168945312,225.69312867675782,98.45278168945312Q225.63185867675782,98.41184168945313,225.56686867675782,98.37710168945313Q225.50187867675783,98.34236168945313,225.43379867675782,98.31416168945313Q225.3657186767578,98.28596168945313,225.29519867675782,98.26457168945312Q225.2246786767578,98.24318168945312,225.1524086767578,98.22880168945312Q225.08012867675782,98.21443168945312,225.00679867675782,98.20720168945313Q224.93345867675782,98.19998168945312,224.85976867675782,98.19998168945312Q224.7488586767578,98.19998168945312,224.6391586767578,98.21629168945313Q224.52945867675783,98.23260168945312,224.42334867675783,98.26487168945313Q224.31723867675782,98.29714168945313,224.21702867675782,98.34467168945312Q224.11681867675782,98.39219168945313,224.02467867675782,98.45394168945313Q223.93254867675782,98.51568168945313,223.8504986767578,98.59031168945313Q223.7684586767578,98.66493168945313,223.6982786767578,98.75081168945313Q223.6280886767578,98.83669268945313,223.5713086767578,98.93196068945312Q223.5145196767578,99.02722868945312,223.4723616767578,99.12981268945312Q222.6763286767578,101.06682168945312,222.01135967675782,103.92227168945313Q220.6759486767578,109.65668168945312,221.27103867675783,114.48348168945313Q221.4012386767578,115.53958168945313,221.7401576767578,117.84978168945312Q222.28583067675783,121.56928168945312,222.51753197675782,123.70838168945312Q222.91068867675781,127.33818168945312,222.9753066767578,130.72348168945314Q223.14480167675782,139.60328168945313,221.0936986767578,149.08278168945313Q221.0597686767578,149.23958168945313,221.0597686767578,149.3999816894531Q221.0597686767578,149.47368168945312,221.0669886767578,149.54698168945313Q221.07421867675782,149.62038168945313,221.0885886767578,149.69258168945314Q221.10296867675783,149.76488168945312,221.12435867675782,149.83538168945313Q221.14574867675782,149.90598168945314,221.17394867675782,149.97398168945313Q221.20214867675782,150.04208168945314,221.23688867675781,150.10708168945314Q221.2716286767578,150.17208168945314,221.31256867675782,150.23338168945313Q221.35350867675783,150.29458168945314,221.40024867675783,150.35158168945313Q221.4469986767578,150.40858168945311,221.4991086767578,150.4606816894531Q221.5512186767578,150.51278168945313,221.6081786767578,150.55948168945312Q221.6651416767578,150.6062816894531,221.7264136767578,150.64718168945313Q221.7876846767578,150.68818168945313,221.8526736767578,150.72288168945312Q221.9176626767578,150.75758168945313,221.9857436767578,150.78578168945313Q222.0538246767578,150.81398168945313,222.1243416767578,150.83538168945313Q222.1948586767578,150.85678168945313,222.26713367675782,150.87118168945312Q222.33940767675782,150.88558168945312,222.4127426767578,150.89278168945313Q222.4860783767578,150.8999816894531,222.5597686767578,150.8999816894531Q222.6873606767578,150.8999816894531,222.81311867675782,150.8784816894531Q222.93887667675781,150.85688168945313,223.0591886767578,150.8143816894531Q223.1795006767578,150.77188168945312,223.29090967675782,150.7097816894531Q223.4023176767578,150.64758168945312,223.50162067675782,150.56748168945313Q223.6009286767578,150.48728168945314,223.6852686767578,150.39158168945312Q223.7696186767578,150.29588168945313,223.83657867675782,150.18728168945313Q223.90353867675782,150.07868168945313,223.95119867675783,149.96028168945313Q223.9988586767578,149.84188168945312,224.02583867675781,149.71718168945313L224.0260986767578,149.71608168945312Q226.1509186767578,139.89528168945313,225.9747586767578,130.66628168945311Q225.9075986767578,127.14768168945312,225.5000886767578,123.38538168945313Q225.2622886767578,121.18988168945313,224.7083886767578,117.41428168945313Q224.3744686767578,115.13818168945312,224.2484986767578,114.11648168945312Q223.7185886767578,109.81828168945313,224.93317867675782,104.60270168945313Q225.31559867675782,102.96056168945313,225.8275486767578,101.43068168945312Q226.07878867675782,100.67991668945312,226.2471786767578,100.27015068945313Z" fill-rule="evenodd" fill="#544D4D" fill-opacity="1"/></g><g><path d="M95.5696814453125,29.46253694824219Q95.7283814453125,29.36072694824219,95.8569814453125,29.222796948242188Q95.9855814453125,29.084865948242186,96.0759814453125,28.919406948242187Q96.16638144531251,28.753946948242188,96.2130814453125,28.571252948242186Q96.2597814453125,28.388557948242187,96.2597814453125,28.199996948242188Q96.2597814453125,28.12630664824219,96.2525814453125,28.052970948242187Q96.2452814453125,27.979635948242187,96.2309814453125,27.907361948242187Q96.2165814453125,27.83508694824219,96.1951814453125,27.764569948242187Q96.1737814453125,27.694052948242188,96.1455814453125,27.62597194824219Q96.1173814453125,27.55789094824219,96.0826814453125,27.49290194824219Q96.0478814453125,27.427912948242188,96.0069814453125,27.366641948242187Q95.96598144531251,27.305369948242188,95.91928144531249,27.248406948242188Q95.8725814453125,27.191446948242188,95.8203814453125,27.13933694824219Q95.76828144531251,27.087226948242186,95.7113814453125,27.040476948242187Q95.65438144531251,26.993736948242187,95.59308144531249,26.952796948242188Q95.53188144531251,26.91185694824219,95.46688144531251,26.877116948242186Q95.4018814453125,26.842376948242187,95.3337814453125,26.81417694824219Q95.26568144531251,26.785976948242187,95.1951814453125,26.764586948242187Q95.12468144531249,26.743196948242186,95.0523814453125,26.728816948242187Q94.98008144531249,26.714446948242188,94.9067814453125,26.707216948242188Q94.8334814453125,26.699996948242188,94.7597814453125,26.699996948242188Q94.5443814453125,26.699996948242188,94.3377814453125,26.76058694824219Q94.1310814453125,26.821176948242186,93.94978144531251,26.937456948242186Q88.3690814453125,30.517556948242188,85.0441814453125,41.51979694824219Q75.8970814453125,44.64529694824219,66.9444814453125,53.894296948242186Q48.3866914453125,73.06639694824219,48.9600014453125,106.12599694824219Q49.8595354453125,157.9989969482422,48.9600114453125,207.6729969482422Q48.9597714453125,207.68599694824218,48.9597714453125,207.6999969482422Q48.9597714453125,207.7739969482422,48.9669914453125,207.84699694824218Q48.9742114453125,207.9199969482422,48.9885914453125,207.9929969482422Q49.0029714453125,208.0649969482422,49.0243614453125,208.1349969482422Q49.0457514453125,208.2059969482422,49.0739514453125,208.2739969482422Q49.1021514453125,208.34199694824218,49.1368814453125,208.40699694824218Q49.1716214453125,208.47199694824218,49.2125614453125,208.5329969482422Q49.2535014453125,208.5949969482422,49.3002514453125,208.65199694824219Q49.3470014453125,208.70899694824217,49.3991114453125,208.7609969482422Q49.4512144453125,208.8129969482422,49.5081784453125,208.85899694824218Q49.5651414453125,208.90599694824218,49.626412445312496,208.9469969482422Q49.6876834453125,208.9879969482422,49.7526724453125,209.0229969482422Q49.8176624453125,209.0579969482422,49.8857434453125,209.08599694824218Q49.9538234453125,209.11399694824217,50.0243414453125,209.1349969482422Q50.0948584453125,209.15699694824218,50.1671324453125,209.1709969482422Q50.2394064453125,209.18599694824218,50.3127424453125,209.19299694824218Q50.3860777453125,209.1999969482422,50.4597680453125,209.1999969482422Q50.5326116453125,209.1999969482422,50.6051124453125,209.19299694824218Q50.6776134453125,209.18599694824218,50.7490884453125,209.1719969482422Q50.8205644453125,209.1579969482422,50.8903424453125,209.1369969482422Q50.9601204453125,209.11599694824218,51.0275444453125,209.0879969482422Q51.0949674453125,209.06099694824218,51.1594024453125,209.02699694824219Q51.2238374453125,208.9929969482422,51.2846764453125,208.95299694824217Q51.3455154453125,208.91299694824218,51.4021864453125,208.8669969482422Q51.4588614453125,208.8209969482422,51.5108314453125,208.76999694824218Q51.5628014453125,208.7189969482422,51.6095814453125,208.66299694824218Q51.6563614453125,208.6069969482422,51.6975114453125,208.5469969482422Q51.7386614453125,208.4869969482422,51.7737914453125,208.4229969482422Q51.8089214453125,208.35999694824218,51.8377014453125,208.29299694824218Q51.8664814453125,208.2259969482422,51.8886514453125,208.15599694824218Q51.9108114453125,208.0869969482422,51.9261514453125,208.0159969482422Q51.9414814453125,207.9449969482422,51.9498514453125,207.87199694824218Q51.9582114453125,207.79999694824218,51.9595214453125,207.72699694824217L51.9595614453125,207.7249969482422Q52.8599814453125,157.9989969482422,51.9595514453125,106.07399694824218Q51.4078364453125,74.25869694824219,69.1000814453125,55.98079694824219Q74.6075814453125,50.29089694824219,81.2636814453125,46.621396948242186Q84.5582814453125,44.80509694824219,86.70828144531251,44.131396948242184Q86.8856814453125,44.075796948242186,87.0440814453125,43.978596948242185Q87.2024814453125,43.881396948242184,87.33248144531251,43.74849694824219Q87.4623814453125,43.615596948242185,87.55588144531251,43.45499694824219Q87.6494814453125,43.29429694824219,87.7009814453125,43.11569694824219L87.7010814453125,43.11549694824219Q90.74718144531249,32.556226948242184,95.5696814453125,29.46253694824219Z" fill-rule="evenodd" fill="#FFFFFF" fill-opacity="1"/></g><g><path d="M114.26188651123047,49.797119896484375Q114.40698651123047,49.602775896484374,114.48338651123046,49.372632896484376Q114.55978651123047,49.14248989648438,114.55978651123047,48.899993896484375Q114.55978651123047,48.82630359648437,114.55258651123047,48.75296789648438Q114.54528651123047,48.67963289648438,114.53098651123047,48.60735889648438Q114.51658651123047,48.53508389648437,114.49518651123047,48.46456689648438Q114.47378651123047,48.394049896484375,114.44558651123047,48.325968896484376Q114.41738651123046,48.25788789648438,114.38268651123047,48.19289889648437Q114.34788651123047,48.127909896484375,114.30698651123046,48.06663889648438Q114.26598651123047,48.005366896484375,114.21928651123046,47.94840389648437Q114.17248651123046,47.891443896484375,114.12038651123046,47.839333896484376Q114.06828651123047,47.78722389648438,114.01138651123047,47.740473896484374Q113.95438651123047,47.693733896484375,113.89308651123046,47.652793896484376Q113.83188651123046,47.61185389648438,113.76688651123047,47.57711389648438Q113.70188651123047,47.54237389648438,113.63378651123047,47.51417389648437Q113.56568651123047,47.485973896484374,113.49518651123047,47.46458389648438Q113.42468651123048,47.443193896484374,113.35238651123046,47.42881389648438Q113.28008651123046,47.41444389648437,113.20678651123046,47.40721389648437Q113.13348651123047,47.399993896484375,113.05978651123047,47.399993896484375Q112.88468651123047,47.399993896484375,112.71428651123047,47.44032389648437Q112.54388651123047,47.48066389648437,112.38738651123046,47.559153896484375Q112.23078651123046,47.63765389648437,112.09658651123047,47.75009389648437Q111.96238651123048,47.86253389648437,111.85758651123047,48.002867896484375Q108.55958651123046,52.42225389648438,107.13518651123047,57.77688389648438Q106.68818651123047,59.45729389648437,106.48178651123047,61.038693896484375Q106.46258651123047,61.18579389648438,106.44608651123048,61.32729389648438Q105.16418651123047,62.053893896484375,103.79887651123047,64.00809389648438Q100.30079651123047,69.01519389648438,97.76840651123047,80.77159389648438Q89.82839651123047,117.63229389648437,93.46090651123046,207.75799389648438L93.46098551123048,207.7599938964844Q93.46387651123047,207.83199389648436,93.47360651123047,207.90299389648436Q93.48333751123047,207.9739938964844,93.49981651123046,208.04399389648438Q93.51629651123046,208.11399389648437,93.53937551123047,208.18199389648439Q93.56245451123047,208.24999389648437,93.59192151123047,208.31599389648437Q93.62138851123046,208.38099389648437,93.65697451123047,208.44299389648438Q93.69255951123047,208.50599389648437,93.73393851123046,208.56399389648436Q93.77531721123047,208.6229938964844,93.82211091123047,208.67799389648437Q93.86890461123046,208.73199389648437,93.92068531123047,208.78199389648438Q93.97246651123046,208.83199389648436,94.02876051123047,208.87599389648437Q94.08505451123047,208.92099389648436,94.14534751123047,208.95999389648438Q94.20564151123047,208.99899389648436,94.26938151123046,209.03199389648438Q94.33312251123047,209.06499389648437,94.39972851123046,209.09199389648438Q94.46633351123047,209.11799389648436,94.53519551123047,209.13899389648438Q94.60405651123047,209.15899389648436,94.67454451123047,209.17299389648437Q94.74503151123047,209.18599389648438,94.81650151123047,209.19299389648438Q94.88796651123047,209.1999938964844,94.95976651123047,209.1999938964844Q95.03345651123047,209.1999938964844,95.10679651123047,209.19299389648438Q95.18012651123047,209.18599389648438,95.25240651123048,209.17099389648436Q95.32467651123046,209.15699389648438,95.39519651123047,209.1349938964844Q95.46571651123047,209.11399389648437,95.53379651123046,209.08599389648438Q95.60187651123047,209.05799389648436,95.66686651123047,209.02299389648437Q95.73185651123048,208.98799389648437,95.79312651123047,208.94699389648437Q95.85439651123046,208.90599389648438,95.91135651123047,208.85899389648438Q95.96831651123047,208.8129938964844,96.02042651123047,208.76099389648436Q96.07253651123047,208.70899389648437,96.11928651123047,208.65199389648438Q96.16603651123047,208.59499389648437,96.20697651123047,208.53299389648438Q96.24791651123047,208.47199389648438,96.28264651123047,208.40699389648438Q96.31738651123047,208.34199389648438,96.34558651123047,208.27399389648437Q96.37378651123046,208.2059938964844,96.39517651123047,208.1349938964844Q96.41656651123047,208.06499389648437,96.43094651123047,207.99299389648436Q96.44532651123046,207.91999389648439,96.45254651123047,207.84699389648438Q96.45976651123047,207.77399389648437,96.45976651123047,207.6999938964844Q96.45976651123047,207.66999389648439,96.45854651123047,207.63999389648438Q92.84120651123047,117.89229389648438,100.70113651123047,81.40339389648437Q103.10624651123047,70.23789389648438,106.25818651123046,65.72619389648438Q107.12638651123046,64.48349389648438,107.87498651123047,64.00539389648438L107.97178651123048,63.89579389648438Q108.08898651123047,63.88699389648438,108.20338651123046,63.86009389648437Q108.31778651123047,63.833193896484374,108.42658651123047,63.78879389648438Q108.53538651123047,63.744393896484375,108.63598651123047,63.683593896484375Q108.73648651123047,63.62269389648438,108.82638651123047,63.54699389648437Q108.91628651123047,63.471293896484376,108.99328651123047,63.38239389648437Q109.07018651123047,63.293593896484374,109.13248651123047,63.193893896484376Q109.19468651123047,63.09419389648438,109.24058651123048,62.98599389648437Q109.28648651123046,62.87779389648438,109.31498651123047,62.76379389648437Q109.33848651123047,62.669693896484375,109.37378651123046,62.20919389648438Q109.40118651123046,61.85109389648437,109.45648651123047,61.426993896484376Q109.63758651123047,60.03949389648437,110.03438651123047,58.548093896484374Q111.30998651123048,53.752723896484376,114.26188651123047,49.797119896484375Z" fill-rule="evenodd" fill="#FFFFFF" fill-opacity="1"/></g><g><path d="M135.28144257324217,59.65408089648437Q135.2597655732422,59.52796189648438,135.2597655732422,59.399993896484375Q135.2597655732422,59.32630359648437,135.2669885732422,59.25296789648438Q135.27421157324218,59.17963289648438,135.28858757324218,59.10735889648438Q135.30296357324218,59.03508389648437,135.3243555732422,58.96456689648438Q135.3457465732422,58.894049896484375,135.3739465732422,58.825968896484376Q135.4021465732422,58.75788789648438,135.4368835732422,58.69289889648437Q135.47162157324217,58.627909896484375,135.51256157324218,58.56663889648438Q135.5535015732422,58.505366896484375,135.6002495732422,58.44840389648437Q135.6469985732422,58.391443896484375,135.69910557324218,58.339333896484376Q135.75121257324219,58.28722389648438,135.80817557324218,58.240473896484374Q135.86513907324218,58.193733896484375,135.9264102732422,58.152793896484376Q135.9876814732422,58.11185389648438,136.0526704732422,58.07711389648438Q136.11765957324218,58.04237389648438,136.18574057324219,58.01417389648437Q136.2538215732422,57.985973896484374,136.3243385732422,57.96458389648438Q136.39485557324218,57.943193896484374,136.46712957324218,57.92881389648438Q136.5394045732422,57.91444389648437,136.61273957324218,57.90721389648437Q136.6860755732422,57.899993896484375,136.7597655732422,57.899993896484375Q136.8914065732422,57.899993896484375,137.0210325732422,57.92292389648438Q137.1506625732422,57.94585389648437,137.2743225732422,57.991013896484375Q137.39797257324219,58.036163896484375,137.5118725732422,58.10217389648437Q137.62576257324218,58.168173896484376,137.7264225732422,58.253013896484376Q137.8270825732422,58.33784389648437,137.9114325732422,58.438918896484374Q137.9957725732422,58.53998989648437,138.0612225732422,58.65420789648437Q138.1266825732422,58.768424896484376,138.17123257324218,58.892296896484375Q138.2157925732422,59.016167896484376,138.2380925732422,59.14590689648438Q138.9617725732422,63.356433896484376,138.26283257324218,69.46799389648437Q137.93118257324218,72.36789389648438,137.4657925732422,74.53379389648438Q137.69460257324218,80.68729389648438,137.97942257324218,90.36049389648437Q138.5578525732422,110.00499389648436,138.8470725732422,128.16359389648437Q139.7735425732422,186.33099389648436,137.4511125732422,207.8609938964844Q137.4437425732422,207.92899389648437,137.43018257324218,207.99599389648438Q137.4166125732422,208.06399389648436,137.39696257324218,208.1289938964844Q137.3773125732422,208.19499389648436,137.35173257324217,208.25899389648438Q137.32615257324218,208.32299389648438,137.2948625732422,208.38399389648438Q137.2635725732422,208.44499389648436,137.22683257324218,208.50299389648438Q137.1901025732422,208.56099389648438,137.14822257324218,208.61499389648438Q137.1063425732422,208.66999389648439,137.05967257324218,208.71999389648437Q137.0129925732422,208.76999389648438,136.9619225732422,208.81599389648437Q136.9108485732422,208.86199389648436,136.8558005732422,208.90299389648436Q136.8007515732422,208.9439938964844,136.74218857324217,208.9799938964844Q136.68362557324218,209.0159938964844,136.62203657324218,209.04599389648436Q136.56044857324218,209.07599389648436,136.49634957324218,209.10099389648437Q136.4322505732422,209.12499389648437,136.3661775732422,209.14399389648437Q136.30010357324218,209.16199389648438,136.23260757324218,209.17499389648438Q136.1651115732422,209.18699389648438,136.0967575732422,209.1939938964844Q136.0284035732422,209.1999938964844,135.9597625732422,209.1999938964844Q135.88607227324218,209.1999938964844,135.81273657324218,209.19299389648438Q135.7394015732422,209.18599389648438,135.6671275732422,209.17099389648436Q135.59485257324218,209.15699389648438,135.52433557324218,209.1349938964844Q135.4538185732422,209.11399389648437,135.38573757324218,209.08599389648438Q135.31765657324217,209.05799389648436,135.25266757324218,209.02299389648437Q135.18767857324218,208.98799389648437,135.12640757324218,208.94699389648437Q135.06513557324217,208.90599389648438,135.00817257324218,208.85999389648438Q134.95121257324217,208.8129938964844,134.89910257324217,208.76099389648436Q134.84699257324218,208.70899389648437,134.8002425732422,208.65199389648438Q134.7535025732422,208.59499389648437,134.7125625732422,208.53299389648438Q134.6716225732422,208.47199389648438,134.6368825732422,208.40699389648438Q134.6021425732422,208.34199389648438,134.5739425732422,208.27399389648437Q134.5457425732422,208.2059938964844,134.5243525732422,208.1349938964844Q134.5029625732422,208.06499389648437,134.48858257324218,207.99299389648436Q134.4742125732422,207.91999389648439,134.46698257324218,207.84699389648438Q134.4597625732422,207.77399389648437,134.4597625732422,207.6999938964844Q134.4597625732422,207.61899389648437,134.46841257324218,207.53899389648439L134.4687525732422,207.53599389648437Q136.7709085732422,186.18899389648436,135.84745257324218,128.21139389648437Q135.55854957324217,110.07299389648438,134.98072457324218,90.44879389648437Q134.69183257324218,80.63759389648438,134.46081257324218,74.45599389648437Q134.45363257324217,74.26399389648438,134.4950725732422,74.07639389648438L134.4950825732422,74.07639389648438Q134.95364257324218,72.00049389648437,135.2822565732422,69.12712389648438Q135.93245567324217,63.44179389648438,135.28144257324217,59.65408089648437Z" fill-rule="evenodd" fill="#FFFFFF" fill-opacity="1"/></g><g><path d="M161.107612625,54.662593896484374Q164.876855625,57.245223896484376,167.042165625,63.11864389648437Q167.32517562499999,63.886293896484375,168.361585625,68.02289389648438Q173.477165625,76.71389389648438,177.990565625,98.31829389648438Q187.052765625,141.69619389648437,184.359065625,207.74899389648436Q184.358765625,207.75499389648436,184.358565625,207.76099389648436L184.358565625,207.76099389648436L181.361065625,207.63899389648438L181.361665625,207.62399389648436Q184.039865625,141.94459389648438,175.053965625,98.93169389648438Q170.593165625,77.57929389648437,165.673185625,69.37119389648437Q165.558605625,69.17999389648438,165.504545625,68.96379389648438L165.475165625,68.81449389648438Q165.486065625,68.88989389648438,165.504545625,68.96379389648438Q164.461385625,64.79114389648437,164.227355625,64.15635389648438Q162.392675625,59.179763896484374,159.411918625,57.137393896484376Q159.599158625,57.265683896484376,159.815973625,57.33284389648438Q160.032788625,57.399993896484375,160.259765625,57.399993896484375Q160.333455925,57.399993896484375,160.406791625,57.39277389648438Q160.480126625,57.38554389648438,160.552400625,57.37117389648437Q160.624675625,57.356793896484376,160.695192625,57.33540389648437Q160.765709625,57.314013896484376,160.833790625,57.28581389648438Q160.901871625,57.25761389648437,160.966860625,57.22287389648437Q161.031849625,57.18813389648437,161.093120625,57.147193896484374Q161.154392625,57.106253896484375,161.211355625,57.059513896484376Q161.268315625,57.01276389648437,161.320425625,56.960653896484374Q161.372535625,56.908543896484375,161.419285625,56.85158389648438Q161.466025625,56.794620896484375,161.506965625,56.73334889648437Q161.547905625,56.672077896484375,161.582645625,56.60708889648438Q161.617385625,56.54209989648437,161.645585625,56.474018896484374Q161.673785625,56.405937896484375,161.695175625,56.33542089648437Q161.716565625,56.26490389648438,161.730945625,56.19262889648437Q161.745315625,56.12035489648437,161.752545625,56.04701989648437Q161.759765625,55.97368419648438,161.759765625,55.899993896484375Q161.759765625,55.71720689648438,161.715865625,55.539768896484375Q161.671975625,55.362329896484376,161.586745625,55.20062689648437Q161.501525625,55.03892289648437,161.379965625,54.90241789648437Q161.258399625,54.76591389648438,161.107612625,54.662593896484374Q160.920372625,54.534303896484374,160.703557625,54.46714389648437Q160.486742625,54.399993896484375,160.259765625,54.399993896484375Q160.186075325,54.399993896484375,160.112739625,54.40721389648437Q160.039404625,54.41444389648437,159.967130625,54.42881389648438Q159.894855625,54.443193896484374,159.824338625,54.46458389648438Q159.753821625,54.485973896484374,159.685740625,54.51417389648437Q159.617659625,54.54237389648438,159.552670625,54.57711389648438Q159.487681625,54.61185389648438,159.426410625,54.652793896484376Q159.365138625,54.693733896484375,159.308175625,54.740473896484374Q159.251215625,54.78722389648438,159.199105625,54.839333896484376Q159.146995625,54.891443896484375,159.100245625,54.94840389648437Q159.053505625,55.005366896484375,159.012565625,55.06663889648438Q158.971625625,55.127909896484375,158.936885625,55.19289889648437Q158.902145625,55.25788789648438,158.873945625,55.325968896484376Q158.845745625,55.394049896484375,158.824355625,55.46456689648438Q158.802965625,55.53508389648437,158.788585625,55.60735889648438Q158.774215625,55.67963289648438,158.766985625,55.75296789648438Q158.759765625,55.82630359648437,158.759765625,55.899993896484375Q158.759765625,56.08278089648437,158.803665625,56.260218896484375Q158.847555625,56.437657896484374,158.932785625,56.59936089648438Q159.018005625,56.76106489648438,159.139565625,56.89756989648438Q159.261131625,57.03407389648437,159.411918625,57.137393896484376L161.107612625,54.662593896484374Z" fill-rule="evenodd" fill="#FFFFFF" fill-opacity="1"/></g><g><path d="M172.92292257324218,41.05453651367188Q168.11776257324217,36.11050651367187,163.3676291732422,36.40281651367187Q163.2969605732422,36.407166513671875,163.2270155732422,36.418156513671875Q163.15706957324218,36.42913651367188,163.08847057324218,36.44666651367187Q163.0198715732422,36.46419651367187,162.95322757324217,36.48809651367188Q162.88658457324217,36.51200651367188,162.8224895732422,36.542086513671876Q162.75839457324219,36.572166513671874,162.69741757324218,36.60815651367187Q162.6364405732422,36.644136513671874,162.57912457324218,36.685706513671875Q162.5218085732422,36.727276513671875,162.4686625732422,36.77405651367187Q162.41551257324218,36.82083651367188,162.3670125732422,36.87241651367187Q162.31851257324217,36.923996513671874,162.2750825732422,36.97991551367188Q162.2316525732422,37.03583451367187,162.1936825732422,37.09559651367187Q162.1557125732422,37.15535751367187,162.1235425732422,37.21842951367187Q162.09137257324218,37.28150051367187,162.0652825732422,37.34732251367188Q162.0392025732422,37.413144513671874,162.0194325732422,37.48113051367187Q161.99966257324218,37.549116513671876,161.9863825732422,37.61866251367187Q161.9731025732422,37.68820951367187,161.9664325732422,37.75869651367187Q161.9597625732422,37.82918461367188,161.9597625732422,37.89998721367188Q161.9597625732422,37.97367751367187,161.96698257324218,38.04701251367187Q161.9742125732422,38.12034851367188,161.98858257324218,38.19262251367188Q162.0029625732422,38.26489651367187,162.0243525732422,38.33541451367188Q162.0457425732422,38.405931513671874,162.0739425732422,38.47401251367187Q162.1021425732422,38.54209351367187,162.1368825732422,38.60708251367188Q162.1716225732422,38.672071513671874,162.2125625732422,38.73334251367187Q162.2535025732422,38.79461351367188,162.3002425732422,38.85157751367188Q162.34699257324218,38.908536513671876,162.39910257324217,38.960646513671875Q162.45121257324217,39.012756513671874,162.50817257324218,39.05950651367188Q162.56513557324217,39.10624651367188,162.62640757324218,39.147186513671876Q162.68767857324218,39.18813651367188,162.75266757324218,39.222866513671875Q162.81765657324217,39.257606513671874,162.88573757324218,39.28580651367187Q162.9538185732422,39.31400651367188,163.02433557324218,39.335396513671874Q163.09485257324218,39.35678651367188,163.1671275732422,39.371166513671874Q163.2394015732422,39.38553651367187,163.31273657324218,39.39276651367187Q163.38607227324218,39.39998651367188,163.4597625732422,39.39998651367188Q163.50587277324217,39.39998651367188,163.55189597324218,39.397156513671874Q166.9267625732422,39.189466513671874,170.77160257324218,43.145436513671875Q172.81038257324218,45.243126513671875,174.0697625732422,47.365466513671876Q174.1955625732422,47.57748651367187,174.3826625732422,47.738086513671874Q174.5697625732422,47.89867651367187,174.79836257324217,47.990976513671875Q182.8015625732422,51.22117651367188,192.11696257324218,60.89067651367188Q210.88146257324217,80.36837651367188,216.98586257324217,112.67847651367188Q223.1398625732422,145.25117651367188,221.67426257324217,179.6221765136719Q220.9418625732422,196.79617651367187,218.9845625732422,207.42817651367187Q218.9597625732422,207.56317651367186,218.9597625732422,207.70017651367186Q218.9597625732422,207.77417651367188,218.9669625732422,207.84717651367188Q218.97416257324218,207.92017651367186,218.98856257324218,207.99217651367186Q219.0029625732422,208.06517651367187,219.02436257324217,208.13517651367187Q219.0457625732422,208.20617651367186,219.07396257324217,208.27417651367188Q219.1021625732422,208.3421765136719,219.13686257324218,208.40717651367189Q219.1716625732422,208.47217651367188,219.2125625732422,208.53317651367186Q219.2534625732422,208.59417651367187,219.30026257324218,208.65117651367189Q219.3469625732422,208.70817651367187,219.3990625732422,208.76017651367187Q219.4511625732422,208.81317651367186,219.5081625732422,208.85917651367188Q219.5651625732422,208.90617651367188,219.6263625732422,208.94717651367188Q219.6876625732422,208.98817651367187,219.7526625732422,209.02317651367187Q219.8176625732422,209.05717651367186,219.88576257324218,209.0861765136719Q219.9538625732422,209.11417651367188,220.02436257324217,209.13517651367187Q220.09486257324218,209.15717651367189,220.1671625732422,209.17117651367187Q220.2393625732422,209.18517651367188,220.3127625732422,209.1931765136719Q220.38606257324219,209.20017651367186,220.4597625732422,209.20017651367186Q220.59026257324217,209.20017651367186,220.71886257324218,209.17717651367187Q220.84736257324218,209.15517651367188,220.9701625732422,209.1101765136719Q221.0928625732422,209.06617651367188,221.20606257324218,209.00117651367188Q221.31926257324218,208.93617651367188,221.4195625732422,208.85317651367188Q221.5198625732422,208.76917651367188,221.60426257324218,208.66917651367189Q221.6886625732422,208.57017651367187,221.7545625732422,208.45717651367187Q221.8204625732422,208.34517651367187,221.8658625732422,208.22217651367188Q221.91136257324217,208.10017651367187,221.9349625732422,207.97117651367188Q223.9302625732422,197.13317651367188,224.6714625732422,179.75017651367187Q226.1518625732422,145.03417651367187,219.9336625732422,112.12147651367188Q213.66316257324218,78.93167651367187,194.2775625732422,58.809276513671875Q184.7808625732422,48.951776513671874,176.3852625732422,45.40081651367188Q175.0046625732422,43.19643651367188,172.92292257324218,41.05453651367188Z" fill-rule="evenodd" fill="#FFFFFF" fill-opacity="1"/></g><g><path d="M33.961006387939456,46.66085224472656Q33.95976638793945,46.63043404472656,33.95976638793945,46.59999084472656Q33.95976638793945,46.52630054472656,33.96698638793945,46.452964844726566Q33.97421638793945,46.379629844726566,33.988586387939456,46.307355844726565Q34.00296638793945,46.23508084472656,34.024356387939456,46.164563844726565Q34.04574638793945,46.09404684472656,34.07394638793945,46.025965844726564Q34.102146387939456,45.957884844726564,34.136886387939455,45.89289584472656Q34.171626387939455,45.82790684472656,34.212566387939454,45.766635844726565Q34.25350638793945,45.70536384472656,34.30024638793945,45.64840084472656Q34.346996387939456,45.59144084472656,34.399106387939455,45.539330844726564Q34.45121638793945,45.487220844726565,34.50817638793945,45.44047084472656Q34.56513938793945,45.39373084472656,34.626411387939456,45.35279084472656Q34.687682387939454,45.311850844726564,34.75267138793945,45.277110844726565Q34.817660387939455,45.242370844726565,34.885741387939454,45.21417084472656Q34.953822387939454,45.18597084472656,35.024339387939456,45.164580844726565Q35.09485638793945,45.14319084472656,35.167131387939456,45.128810844726566Q35.239405387939456,45.11444084472656,35.312740387939456,45.10721084472656Q35.38607608793945,45.09999084472656,35.45976638793945,45.09999084472656Q35.531648987939455,45.09999084472656,35.603202387939454,45.10686084472656Q35.674755387939456,45.113740844726564,35.74532338793945,45.127420844726565Q35.81589138793945,45.14111084472656,35.88482738793945,45.16148084472656Q35.95376338793945,45.18185084472656,36.020436387939455,45.20871084472656Q36.08710838793945,45.23558084472656,36.15090638793945,45.26870084472656Q36.214704387939456,45.301820844726564,36.27504238793945,45.34089084472656Q36.33538038793945,45.37996084472656,36.39170538793945,45.42462084472656Q36.44803138793945,45.46928084472656,36.49982638793945,45.519120844726565Q36.55162638793945,45.568970844726564,36.59841638793945,45.62353284472656Q36.645216387939456,45.67809984472656,36.68657638793945,45.73688984472656Q36.72793638793945,45.79568084472656,36.76348638793945,45.85815784472656Q36.79903638793945,45.92063384472656,36.82844638793945,45.98622384472656Q36.85785638793946,46.05181284472656,36.880866387939456,46.119914844726566Q36.903876387939455,46.18801684472656,36.920266387939456,46.25800584472656Q36.936646387939454,46.327995844726566,36.94626638793945,46.399231844726565Q36.955896387939454,46.47046684472656,36.958656387939456,46.54229674472656Q37.14334638793945,51.06699084472656,40.03013638793945,55.664890844726564Q45.791366387939455,64.84109084472657,59.466266387939456,64.89999084472656Q59.578866387939456,64.90049084472656,59.69006638793945,64.91779084472657Q59.80136638793945,64.93509084472656,59.90876638793945,64.96879084472656Q60.01626638793945,65.00249084472657,60.11746638793945,65.05189084472656Q60.21866638793945,65.10119084472656,60.31136638793946,65.16519084472657Q60.40406638793945,65.22909084472656,60.48616638793945,65.30609084472655Q60.56826638793945,65.38319084472656,60.63796638793946,65.47159084472656Q60.707666387939454,65.56009084472656,60.763366387939456,65.65789084472657Q60.81906638793946,65.75579084472656,60.85956638793945,65.86089084472655Q63.47726638793945,72.65729084472656,69.39646638793945,78.87859084472656Q81.08456638793945,91.16299084472656,97.28336638793945,88.12569084472656Q97.39376638793945,88.10499084472656,97.50606638793946,88.10099084472657Q97.61826638793946,88.09699084472656,97.72996638793946,88.10969084472657Q97.84156638793945,88.12239084472657,97.95006638793944,88.15169084472656Q98.05846638793946,88.18089084472656,98.16136638793945,88.22599084472657Q98.26436638793945,88.27099084472655,98.35936638793945,88.33089084472655Q98.45446638793945,88.39079084472655,98.53946638793946,88.46419084472656Q98.62456638793945,88.53759084472657,98.69776638793945,88.62279084472655Q98.77096638793945,88.70799084472657,98.83066638793946,88.80319084472657L98.83066638793946,88.80329084472656Q102.72556638793945,95.01529084472656,109.36126638793945,99.16949084472657Q122.33106638793946,107.28929084472657,135.75276638793946,97.10499084472656Q135.84176638793946,97.03759084472657,135.93976638793947,96.98409084472655Q136.03776638793946,96.93059084472657,136.14276638793945,96.89209084472657Q136.24676638793946,96.85359084472657,136.35576638793947,96.83099084472656Q136.46576638793945,96.80849084472656,136.57676638793947,96.80229084472657Q136.68776638793946,96.79609084472656,136.79876638793945,96.80649084472657Q136.90976638793944,96.81689084472657,137.01876638793945,96.84349084472656Q137.12676638793945,96.87019084472657,137.22976638793943,96.91259084472657Q137.33276638793944,96.95499084472655,137.42876638793945,97.01219084472656L137.42976638793945,97.01239084472655Q143.58976638793945,100.69129084472655,151.31076638793945,101.86899084472657Q166.34776638793946,104.16259084472657,173.88476638793946,92.00939084472657Q173.94776638793945,91.90769084472656,174.02676638793946,91.81729084472656Q174.10476638793946,91.72689084472657,174.19676638793945,91.64999084472656Q174.28876638793946,91.57319084472655,174.39076638793946,91.51189084472657Q174.49376638793944,91.45059084472656,174.60476638793946,91.40629084472656Q174.71676638793946,91.36209084472657,174.83276638793944,91.33599084472655Q174.94976638793946,91.30989084472657,175.06976638793947,91.30269084472656Q175.18876638793947,91.29549084472657,175.30776638793947,91.30729084472657Q175.42676638793947,91.31919084472656,175.54276638793945,91.34969084472655L175.54276638793945,91.34979084472656Q181.72476638793944,92.98189084472656,188.21676638793946,91.54649084472656Q200.85076638793944,88.75339084472657,202.36776638793944,73.65019084472657Q202.37876638793946,73.53239084472656,202.40876638793947,73.41789084472657Q202.43976638793944,73.30339084472656,202.48676638793944,73.19509084472656Q202.53476638793944,73.08679084472656,202.59876638793946,72.98729084472656Q202.66276638793946,72.88779084472657,202.74176638793946,72.79959084472657Q202.82076638793944,72.71139084472657,202.91276638793946,72.63659084472656Q203.00476638793944,72.56189084472656,203.10676638793944,72.50249084472657Q203.20976638793945,72.44309084472656,203.31976638793947,72.40049084472656Q203.43076638793946,72.35789084472657,203.54576638793947,72.33309084472657Q206.75176638793945,71.64789084472656,209.74276638793944,68.75859084472657Q215.79676638793944,62.91079084472656,214.27276638793944,51.60026084472656Q214.25976638793946,51.500580844726564,214.25976638793946,51.39999084472656Q214.25976638793946,51.32630084472656,214.26676638793944,51.25297084472656Q214.27376638793945,51.17963084472656,214.28876638793946,51.107360844726564Q214.30276638793944,51.035080844726565,214.32476638793946,50.964570844726566Q214.34576638793945,50.894050844726564,214.37376638793944,50.82597084472656Q214.40176638793946,50.75789084472656,214.43676638793946,50.692900844726566Q214.47176638793945,50.627910844726564,214.51276638793945,50.566640844726564Q214.55376638793945,50.50537084472656,214.59976638793944,50.448400844726564Q214.64676638793946,50.39144084472656,214.69876638793946,50.33933084472656Q214.75076638793945,50.287230844726565,214.80776638793947,50.24048084472656Q214.86476638793945,50.19373084472656,214.92676638793947,50.15279084472656Q214.98776638793944,50.11185084472656,215.05276638793944,50.07711084472656Q215.11776638793944,50.04237084472656,215.18576638793945,50.014170844726564Q215.25376638793946,49.985970844726566,215.32476638793946,49.96458084472656Q215.39476638793946,49.943190844726566,215.46676638793946,49.92882084472656Q215.53976638793947,49.91444084472656,215.61276638793944,49.90722084472656Q215.68576638793945,49.89999084472656,215.75976638793946,49.89999084472656Q215.89476638793946,49.89999084472656,216.02776638793947,49.92412084472656Q216.16076638793945,49.94825084472656,216.28676638793945,49.99574084472656Q216.41376638793946,50.04322084472656,216.52976638793945,50.112530844726564Q216.64576638793946,50.181840844726565,216.74676638793946,50.270750844726564Q216.84876638793946,50.35965084472656,216.93276638793947,50.46529084472656Q217.01676638793944,50.570940844726564,217.08076638793946,50.68991084472656Q217.14476638793946,50.80889084472656,217.18676638793946,50.93738084472656Q217.22876638793946,51.06587084472656,217.24676638793946,51.19973084472656Q218.97276638793946,64.01429084472656,211.82676638793944,70.91639084472656Q208.69476638793947,73.94179084472657,205.23376638793945,74.99269084472657Q203.16776638793945,91.31359084472656,188.86476638793945,94.47579084472656Q182.21776638793946,95.94519084472657,175.84276638793946,94.51079084472656Q167.27676638793946,107.33899084472657,150.85776638793945,104.83469084472657Q143.09276638793943,103.65029084472656,136.76076638793944,100.09189084472656Q122.10076638793946,110.68459084472656,107.76926638793945,101.71229084472657Q101.00706638793946,97.47879084472656,96.84046638793944,91.24849084472656Q79.67526638793944,94.03389084472656,67.22306638793945,80.94649084472655Q61.300166387939456,74.72139084472656,58.439466387939454,67.88389084472657Q43.90646638793945,67.48079084472656,37.48939638793945,57.26009084472656Q34.17718638793945,51.984600844726565,33.96099638793945,46.660852444726565L33.961006387939456,46.66085224472656Z" fill-rule="evenodd" fill="#FFFFFF" fill-opacity="1"/></g><g><path d="M60.197133934326175,31.87929694824219Q60.359763934326175,31.559114948242186,60.359763934326175,31.199996948242188Q60.359763934326175,31.12630664824219,60.35254393432617,31.052970948242187Q60.345323934326174,30.979635948242187,60.33094393432617,30.907361948242187Q60.31657393432617,30.83508694824219,60.29517393432617,30.764569948242187Q60.273783934326175,30.694052948242188,60.24558393432617,30.62597194824219Q60.21738393432617,30.55789094824219,60.18265393432617,30.49290194824219Q60.14791393432617,30.427912948242188,60.10697393432617,30.366641948242187Q60.06603393432617,30.305369948242188,60.01928393432617,30.248406948242188Q59.97253393432617,30.191446948242188,59.92042393432617,30.13933694824219Q59.86832393432617,30.087226948242186,59.81135393432617,30.040476948242187Q59.754393934326174,29.993736948242187,59.693123934326174,29.952796948242188Q59.63185393432617,29.91185694824219,59.56686393432617,29.877116948242186Q59.50187393432617,29.842376948242187,59.433793934326175,29.81417694824219Q59.36571393432617,29.785976948242187,59.29519393432617,29.764586948242187Q59.22467393432617,29.743196948242186,59.15240393432617,29.728816948242187Q59.08013393432617,29.714446948242188,59.00679393432617,29.707216948242188Q58.933453934326174,29.699996948242188,58.859763934326175,29.699996948242188Q58.50566393432617,29.699996948242188,58.18894393432617,29.85835694824219Q57.971226934326175,29.96721694824219,57.799106234326175,30.13933694824219Q57.64510703432617,30.293337948242186,57.54126193432617,30.484773948242186Q57.104537934326174,31.218976148242188,56.67542393432617,32.955856948242186Q55.95103393432617,35.88792694824219,56.347853934326174,38.87268694824219Q57.562809934326175,48.01129694824219,68.49286393432617,54.159296948242186Q69.37406393432617,58.96469694824219,73.42816393432616,64.14899694824219Q81.90616393432617,74.9904969482422,99.55136393432616,77.79289694824219Q100.29406393432618,78.66219694824218,101.91476393432617,80.16539694824219Q105.40186393432617,83.3996969482422,109.48666393432617,85.75009694824219Q122.41126393432617,93.18689694824218,136.38256393432619,89.2823969482422Q143.30746393432617,91.97619694824219,151.15786393432617,92.48479694824218Q167.36506393432617,93.53479694824219,172.93006393432617,82.17529694824219Q178.3800639343262,81.91949694824218,183.40606393432617,79.03889694824218Q194.30506393432617,72.7917969482422,192.24106393432618,57.75069694824219Q194.01406393432617,55.506896948242186,195.02806393432618,51.90699694824219Q197.28606393432617,43.89839694824219,192.90106393432617,35.12916694824219Q192.85506393432618,35.036176948242186,192.79606393432618,34.95049694824219Q192.73706393432616,34.864816948242186,192.66706393432617,34.788076948242185Q192.59706393432617,34.711336948242185,192.51706393432616,34.64499694824219Q192.43706393432618,34.57866694824219,192.34806393432618,34.52400694824219Q192.26006393432618,34.469356948242186,192.16506393432618,34.427426948242186Q192.07006393432619,34.38548694824219,191.97006393432616,34.35707694824219Q191.87006393432617,34.32866694824219,191.76706393432616,34.31432694824219Q191.66406393432618,34.299986948242186,191.56006393432617,34.299986948242186Q191.48606393432618,34.299986948242186,191.41306393432617,34.30720694824219Q191.33906393432616,34.31443694824219,191.26706393432616,34.32880694824219Q191.19506393432619,34.343186948242185,191.12406393432616,34.36457694824219Q191.05406393432617,34.385966948242185,190.98606393432618,34.41416694824219Q190.91806393432617,34.44236694824219,190.85306393432617,34.47710694824219Q190.78806393432617,34.51184694824219,190.72606393432616,34.552786948242186Q190.66506393432618,34.593726948242185,190.60806393432617,34.64047694824219Q190.55106393432618,34.68721694824219,190.49906393432616,34.73932694824219Q190.44706393432617,34.791436948242186,190.40006393432617,34.84839694824219Q190.35306393432617,34.905356948242186,190.31206393432618,34.96663694824219Q190.27206393432618,35.02790694824219,190.23706393432616,35.092896948242185Q190.20206393432616,35.15787694824219,190.17406393432617,35.22596694824219Q190.14606393432618,35.29404694824219,190.12406393432616,35.36455694824219Q190.10306393432617,35.435076948242184,190.08906393432616,35.50734694824219Q190.07406393432618,35.579626948242186,190.06706393432617,35.652956948242185Q190.06006393432617,35.72629694824219,190.06006393432617,35.799986948242186Q190.06006393432617,36.15408694824219,190.21806393432618,36.470806948242185Q194.08406393432617,44.20169694824219,192.14106393432618,51.09299694824219Q191.18606393432617,54.479896948242185,189.54706393432616,56.29429694824219Q189.43506393432617,56.41839694824219,189.35306393432617,56.56409694824219Q189.27106393432618,56.709796948242186,189.22306393432618,56.86999694824219Q189.17506393432618,57.03019694824219,189.16306393432617,57.19699694824219Q189.15206393432618,57.36379694824218,189.17706393432618,57.52899694824219Q191.27006393432617,71.07339694824219,181.91406393432618,76.43609694824218Q177.13206393432617,79.17679694824218,171.95306393432617,79.19999694824219Q171.84506393432616,79.20049694824219,171.73706393432616,79.21659694824218Q171.6300639343262,79.23259694824219,171.52606393432617,79.26399694824218Q171.42206393432616,79.2952969482422,171.32406393432618,79.34129694824219Q171.2260639343262,79.38719694824218,171.13506393432618,79.4467969482422Q171.04506393432615,79.50639694824218,170.9640639343262,79.57839694824219Q170.88306393432617,79.65049694824219,170.81306393432618,79.73339694824219Q170.7430639343262,79.81629694824218,170.68606393432617,79.90839694824218Q170.62806393432618,80.00059694824219,170.58506393432617,80.0999969482422Q166.07006393432619,90.44459694824218,151.35186393432616,89.49109694824219Q143.70676393432618,88.99579694824219,137.01946393432615,86.30829694824219L137.01906393432617,86.30819694824218Q136.78456393432617,86.2138969482422,136.53216393432618,86.20169694824219Q136.27976393432618,86.18949694824218,136.03726393432618,86.26069694824218Q123.02726393432617,90.08019694824219,110.98286393432616,83.14989694824219Q107.19276393432617,80.9689969482422,103.95486393432617,77.96589694824219Q102.06866393432617,76.21639694824219,101.80396393432616,75.92069694824218Q101.71206393432618,75.68689694824218,101.52656393432616,75.45729694824219Q101.34956393432617,75.23829694824218,101.10516393432617,75.0982969482422Q100.86076393432617,74.95839694824218,100.58226393432616,74.91659694824219Q83.67326393432617,72.38019694824219,75.79136393432617,62.30099694824219Q71.91856393432617,57.348496948242186,71.34696393432617,53.004296948242185Q71.32376393432617,52.827896948242184,71.25986393432618,52.661796948242184Q71.19606393432618,52.495696948242184,71.09506393432618,52.34909694824219Q70.99416393432617,52.20259694824219,70.86176393432618,52.08369694824219Q70.72926393432617,51.964896948242185,70.57276393432618,51.88029694824219Q60.370863934326174,46.36889694824219,59.321683934326174,38.47731694824219Q58.99975393432617,36.055826948242185,59.58785393432617,33.67539694824219Q59.76980393432617,32.93893694824219,60.01689393432617,32.30306694824219L59.92042393432617,32.260656948242186Q60.089103934326175,32.09197994824219,60.197133934326175,31.87929694824219ZM99.19416393432617,77.34169694824219Q99.02036393432617,77.09759694824218,98.95806393432616,76.9339969482422Q98.68276393432618,76.2113969482422,99.11166393432617,75.56789694824218Q98.50026393432617,76.48519694824219,99.19296393432617,77.34269694824218L99.19416393432617,77.34169694824219Z" fill-rule="evenodd" fill="#FFFFFF" fill-opacity="1"/></g><g><path d="M77.73407979492187,24.07642179296875Q77.75976979492188,23.93939879296875,77.75976979492188,23.79998779296875Q77.75976979492188,23.72629749296875,77.75254979492188,23.65296179296875Q77.74531979492187,23.57962679296875,77.73094979492187,23.50735279296875Q77.71656979492188,23.43507779296875,77.69517979492187,23.36456079296875Q77.67378979492187,23.29404379296875,77.64558979492188,23.22596279296875Q77.61738979492188,23.15788179296875,77.58264979492188,23.09289279296875Q77.54790979492188,23.02790379296875,77.50696979492187,22.96663279296875Q77.46602979492188,22.90536079296875,77.41928979492188,22.84839779296875Q77.37253979492188,22.79143779296875,77.32042979492188,22.73932779296875Q77.26831979492188,22.68721779296875,77.21135979492188,22.64046779296875Q77.15439979492187,22.59372779296875,77.09312479492188,22.55278779296875Q77.03185379492187,22.51184779296875,76.96686479492188,22.47710779296875Q76.90187579492188,22.44236779296875,76.83379479492187,22.41416779296875Q76.76571379492188,22.38596779296875,76.69519579492187,22.36457779296875Q76.62467879492188,22.34318779296875,76.55240479492187,22.32880779296875Q76.48013079492188,22.31443779296875,76.40679479492188,22.30720779296875Q76.33345979492188,22.29998779296875,76.25976979492188,22.29998779296875Q76.12955775492188,22.29998779296875,76.00129379492188,22.32242779296875Q75.87302979492188,22.34486779296875,75.75055179492188,22.38906779296875Q75.62807279492188,22.43326779296875,75.51504279492187,22.49791779296875Q75.40201379492187,22.56256779296875,75.30181479492188,22.64572779296875Q75.20161579492188,22.72888779296875,75.11724979492188,22.82806279296875Q75.03286979492188,22.92724279296875,74.96685979492187,23.03947779296875Q74.90083979492188,23.15171279296875,74.85514979492187,23.27364479296875Q74.80945979492188,23.39557679296875,74.78545979492188,23.52355779296875Q74.19789979492188,26.657207792968748,75.28510079492187,30.74778779296875Q77.35184979492188,38.52388779296875,84.93042979492188,43.56128779296875Q85.36302979492187,47.07388779296875,88.06343979492188,51.13468779296875Q93.80873979492188,59.77418779296875,106.93813979492188,63.69278779296875Q109.45513979492188,67.13408779296876,114.10013979492187,70.31288779296875Q123.83583979492187,76.97548779296875,135.86093979492188,75.92458779296875Q141.66823979492187,78.02108779296876,148.44723979492187,78.36058779296874Q162.58193979492188,79.06868779296875,168.15923979492186,69.69368779296875Q171.5524397949219,67.64498779296875,174.28733979492188,63.86708779296875Q180.01003979492188,55.96228779296875,176.80503979492187,46.382287792968754Q177.26703979492186,43.59198779296875,176.75803979492187,39.902887792968755Q175.66263979492186,31.98148779296875,170.12043979492188,26.43933779296875Q170.01593979492188,26.33487779296875,169.89313979492186,26.25279779296875Q169.77023979492188,26.170717792968752,169.6337397949219,26.11417779296875Q169.49733979492186,26.05764779296875,169.35243979492188,26.02881779296875Q169.20753979492187,25.99999779296875,169.05973979492188,25.99999779296875Q168.98603979492188,25.99999779296875,168.9127397949219,26.00722779296875Q168.83943979492187,26.01444779296875,168.7671397949219,26.02881779296875Q168.69483979492188,26.04319779296875,168.62433979492187,26.06458779296875Q168.55383979492188,26.085977792968748,168.48573979492187,26.11417779296875Q168.41763979492185,26.14237779296875,168.35263979492186,26.17711779296875Q168.28763979492186,26.21185779296875,168.22643979492187,26.25279779296875Q168.16513979492186,26.29373779296875,168.10813979492187,26.34048779296875Q168.05123979492186,26.38723779296875,167.99913979492186,26.43933779296875Q167.94703979492186,26.49144779296875,167.90023979492187,26.54840779296875Q167.85353979492186,26.60537779296875,167.81253979492186,26.66664779296875Q167.7716397949219,26.72791779296875,167.73683979492188,26.792907792968748Q167.7021397949219,26.85789779296875,167.67393979492186,26.92597779296875Q167.6457397949219,26.99405779296875,167.62433979492187,27.06457779296875Q167.6029397949219,27.13508779296875,167.58853979492187,27.20736779296875Q167.57423979492188,27.27963779296875,167.5669397949219,27.35297779296875Q167.55973979492188,27.42630779296875,167.55973979492188,27.49999779296875Q167.55973979492188,27.64773779296875,167.58863979492187,27.79263779296875Q167.6174397949219,27.93753779296875,167.67393979492186,28.07402779296875Q167.7304397949219,28.21051779296875,167.81253979492186,28.333357792968748Q167.8946397949219,28.45619779296875,167.99913979492186,28.56065779296875Q172.82883979492186,33.39035779296875,173.78583979492186,40.31368779296875Q174.26473979492187,43.77808779296875,173.78783979492187,46.211087792968755L173.7877397949219,46.211487792968754Q173.70923979492187,46.61228779296875,173.84473979492188,46.99768779296875Q176.77203979492188,55.31918779296875,171.8572397949219,62.10788779296875Q169.3595397949219,65.55818779296875,166.31553979492188,67.29768779296876Q166.13993979492187,67.39798779296875,165.99713979492188,67.54138779296875Q165.85433979492188,67.68468779296876,165.75463979492187,67.86068779296875Q161.14813979492186,75.99308779296875,148.59733979492188,75.36438779296876Q142.09033979492187,75.03838779296875,136.58173979492187,72.99368779296876Q136.25883979492187,72.87388779296876,135.91603979492186,72.90688779296875Q124.77033979492188,73.97978779296875,115.79443979492189,67.83708779296876Q111.31213979492188,64.76968779296875,109.09533979492187,61.54948779296875Q108.94773979492187,61.33508779296875,108.73663979492187,61.18298779296875Q108.52553979492188,61.03088779296875,108.27553979492188,60.95878779296875Q95.80753979492188,57.36228779296875,90.56153979492187,49.473487792968754Q88.01283979492187,45.640887792968755,87.85783979492187,42.623487792968746L87.85783979492187,42.62308779296875Q87.84853979492188,42.443087792968754,87.79693979492187,42.27048779296875Q87.74533979492188,42.097787792968745,87.65433979492187,41.94228779296875Q87.56333979492187,41.78678779296875,87.43803979492188,41.65718779296875Q87.31273979492187,41.52768779296875,87.16033979492187,41.43148779296875Q80.03322979492188,36.93318779296875,78.18443979492187,29.97719779296875Q77.27163979492188,26.54276779296875,77.73407979492187,24.07642179296875Z" fill-rule="evenodd" fill="#FFFFFF" fill-opacity="1"/></g><g><g transform="matrix(0.011626319959759712,-0.9998999834060669,0.9998999834060669,0.011626319959759712,58.05292209512589,242.57533753152632)"><path d="M162.13355102539063,97.02573021484375Q162.13355102539063,97.15092021484375,162.12725102539062,97.27597021484375Q162.1210510253906,97.40102021484375,162.10855102539062,97.52561021484375Q162.09605102539064,97.65021021484375,162.07725102539064,97.77405021484375Q162.0585510253906,97.89790021484374,162.0336510253906,98.02069021484375Q162.00875102539064,98.14348021484375,161.97775102539063,98.26493021484374Q161.94675102539063,98.38637021484375,161.90965102539062,98.50618021484375Q161.87255102539064,98.62599021484375,161.82955102539063,98.74387021484375Q161.78655102539062,98.86174021484375,161.73775102539062,98.97741021484374Q161.68888102539063,99.09308021484375,161.6343010253906,99.20626021484375Q161.57972102539063,99.31944021484375,161.51955102539063,99.42985021484375Q161.45937102539062,99.54027021484374,161.39374102539063,99.64765021484375Q161.32812102539063,99.75504021484375,161.25720102539063,99.85914021484375Q161.18628102539063,99.96323021484375,161.11024102539062,100.06379021484375Q161.0341910253906,100.16436021484375,160.95321102539063,100.26113021484375Q160.87223102539062,100.35791021484376,160.78650102539063,100.45068021484374Q160.70078102539063,100.54345021484374,160.61051102539062,100.63197021484375Q160.52025102539062,100.72050021484375,160.42566102539064,100.80458021484375Q160.33108102539063,100.88866021484375,160.23240102539063,100.96808021484375Q160.13372102539063,101.04751021484375,160.03119102539063,101.12209021484375Q159.92866102539062,101.19667021484375,159.8225210253906,101.26622021484376Q159.71638102539063,101.33578021484375,159.60689102539064,101.40015021484375Q159.49740102539062,101.46451021484376,159.38482102539064,101.52353021484375Q159.27224102539063,101.58255021484375,159.15684102539063,101.63608021484374Q159.0414410253906,101.68961021484375,158.92351102539064,101.73752021484376Q158.80557102539063,101.78543021484376,158.68538102539063,101.82761021484374Q158.56519102539062,101.86979021484375,158.4430410253906,101.90613021484376Q158.32088102539063,101.94252021484375,158.19705102539064,101.97292021484375Q158.07322102539064,102.00332021484375,157.94802102539063,102.02772021484375Q157.82282102539062,102.05212021484375,157.69655102539062,102.07052021484375Q157.5702810253906,102.08892021484375,157.44324102539062,102.10122021484375Q157.31621102539063,102.11342021484376,157.18871102539063,102.11962021484375Q157.06121102539063,102.12572021484375,156.9335510253906,102.12572021484375Q156.80590102539063,102.12572021484375,156.67840102539063,102.11962021484375Q156.55090102539063,102.11342021484376,156.42386102539064,102.10122021484375Q156.29683102539062,102.08892021484375,156.1705610253906,102.07052021484375Q156.04428102539063,102.05212021484375,155.91908102539062,102.02772021484375Q155.79388102539062,102.00332021484375,155.67006102539062,101.97292021484375Q155.54623102539063,101.94252021484375,155.42407102539062,101.90613021484376Q155.3019210253906,101.86979021484375,155.18173102539063,101.82761021484374Q155.06153102539062,101.78543021484376,154.94360102539062,101.73752021484376Q154.82566102539062,101.68961021484375,154.71027102539063,101.63608021484374Q154.59487102539063,101.58255021484375,154.48229102539062,101.52353021484375Q154.36971102539061,101.46451021484376,154.26022102539062,101.40015021484375Q154.15073102539063,101.33578021484375,154.04459102539062,101.26622021484376Q153.93845102539063,101.19667021484375,153.83592102539063,101.12209021484375Q153.73338102539063,101.04751021484375,153.63471102539063,100.96808021484375Q153.53603102539063,100.88866021484375,153.44144102539062,100.80458021484375Q153.34686102539064,100.72050021484375,153.25660102539064,100.63197021484375Q153.16633102539063,100.54345021484374,153.08061102539062,100.45068021484374Q152.9948810253906,100.35791021484376,152.91390102539063,100.26113021484375Q152.83291102539062,100.16436021484375,152.75687102539064,100.06379021484375Q152.68083002539063,99.96324021484375,152.60991002539063,99.85914021484375Q152.53899002539063,99.75504021484375,152.47336302539063,99.64765021484375Q152.40773602539062,99.54027021484374,152.34756102539063,99.42985021484375Q152.28738602539062,99.31944021484375,152.23280702539063,99.20626021484375Q152.17822802539064,99.09308021484375,152.12937802539062,98.97741021484374Q152.08052702539064,98.86174021484375,152.03752202539061,98.74387021484375Q151.99451702539062,98.62599021484375,151.95746102539061,98.50618021484375Q151.92040602539063,98.38637021484375,151.8893890253906,98.26493021484374Q151.85837102539062,98.14348021484375,151.83346762539063,98.02069021484375Q151.80856382539062,97.89790021484374,151.78983322539062,97.77405021484375Q151.77110262539063,97.65021021484375,151.75859042539062,97.52561021484375Q151.7460783253906,97.40102021484375,151.73981465539063,97.27597021484375Q151.73355102539062,97.15092021484375,151.73355102539062,97.02573021484375Q151.73355102539062,96.90053021484376,151.73981465539063,96.77548021484375Q151.7460783253906,96.65043021484375,151.75859042539062,96.52584021484375Q151.77110262539063,96.40124021484375,151.78983322539062,96.27740021484375Q151.80856382539062,96.15356021484375,151.83346762539063,96.03076021484375Q151.85837102539062,95.90797021484374,151.8893890253906,95.78653021484375Q151.92040602539063,95.66508021484375,151.95746102539061,95.54527021484375Q151.99451702539062,95.42546021484375,152.03752202539061,95.30759021484376Q152.08052702539064,95.18971021484376,152.12937802539062,95.07404021484375Q152.17822802539064,94.95837021484375,152.23280702539063,94.84519021484375Q152.28738602539062,94.73201021484375,152.34756102539063,94.62160021484375Q152.40773602539062,94.51118021484375,152.47336302539063,94.40380021484376Q152.53899002539063,94.29641021484375,152.60991002539063,94.19231021484374Q152.68083002539063,94.08822021484374,152.75687102539064,93.98766021484374Q152.83291102539062,93.88710021484376,152.91390102539063,93.79032021484375Q152.9948810253906,93.69354021484375,153.08061102539062,93.60077021484375Q153.16633102539063,93.50801021484375,153.25660102539064,93.41948021484374Q153.34686102539064,93.33095021484375,153.44144102539062,93.24687021484375Q153.53603102539063,93.16279021484375,153.63471102539063,93.08337021484375Q153.73338102539063,93.00394021484375,153.83592102539063,92.92936021484375Q153.93845102539063,92.85478221484375,154.04459102539062,92.78522621484375Q154.15073102539063,92.71567021484375,154.26022102539062,92.65130521484375Q154.36971102539061,92.58694021484375,154.48229102539062,92.52792221484376Q154.59487102539063,92.46890421484375,154.71027102539063,92.41537521484375Q154.82566102539062,92.36184621484375,154.94360102539062,92.31393521484375Q155.06153102539062,92.26602421484375,155.18173102539063,92.22384621484375Q155.3019210253906,92.18166821484375,155.42407102539062,92.14532521484375Q155.54623102539063,92.10898121484375,155.67006102539062,92.07856121484375Q155.79388102539062,92.04814021484376,155.91908102539062,92.02371541484375Q156.04428102539063,91.99929041484376,156.1705610253906,91.98092011484376Q156.29683102539062,91.96254971484375,156.42386102539064,91.95027811484375Q156.55090102539063,91.93800661484374,156.67840102539063,91.93186339484375Q156.80590102539063,91.92572021484375,156.9335510253906,91.92572021484375Q157.06121102539063,91.92572021484375,157.18871102539063,91.93186339484375Q157.31621102539063,91.93800661484374,157.44324102539062,91.95027811484375Q157.5702810253906,91.96254971484375,157.69655102539062,91.98092011484376Q157.82282102539062,91.99929041484376,157.94802102539063,92.02371541484375Q158.07322102539064,92.04814021484376,158.19705102539064,92.07856121484375Q158.32088102539063,92.10898121484375,158.4430410253906,92.14532521484375Q158.56519102539062,92.18166821484375,158.68538102539063,92.22384621484375Q158.80557102539063,92.26602421484375,158.92351102539064,92.31393521484375Q159.0414410253906,92.36184621484375,159.15684102539063,92.41537521484375Q159.27224102539063,92.46890421484375,159.38482102539064,92.52792221484376Q159.49740102539062,92.58694021484375,159.60689102539064,92.65130521484375Q159.71638102539063,92.71567021484375,159.8225210253906,92.78522621484375Q159.92866102539062,92.85478221484375,160.03119102539063,92.92936021484375Q160.13372102539063,93.00394021484375,160.23240102539063,93.08337021484375Q160.33108102539063,93.16279021484375,160.42566102539064,93.24687021484375Q160.52025102539062,93.33095021484375,160.61051102539062,93.41948021484374Q160.70078102539063,93.50801021484375,160.78650102539063,93.60077021484375Q160.87223102539062,93.69354021484375,160.95321102539063,93.79032021484375Q161.0341910253906,93.88710021484376,161.11024102539062,93.98766021484374Q161.18628102539063,94.08822021484374,161.25720102539063,94.19231021484374Q161.32812102539063,94.29641021484375,161.39374102539063,94.40380021484376Q161.45937102539062,94.51118021484375,161.51955102539063,94.62160021484375Q161.57972102539063,94.73201021484375,161.6343010253906,94.84519021484375Q161.68888102539063,94.95837021484375,161.73775102539062,95.07404021484375Q161.78655102539062,95.18971021484376,161.82955102539063,95.30759021484376Q161.87255102539064,95.42546021484375,161.90965102539062,95.54527021484375Q161.94675102539063,95.66508021484375,161.97775102539063,95.78653021484375Q162.00875102539064,95.90797021484374,162.0336510253906,96.03076021484375Q162.0585510253906,96.15356021484375,162.07725102539064,96.27740021484375Q162.09605102539064,96.40124021484375,162.10855102539062,96.52584021484375Q162.1210510253906,96.65043021484375,162.12725102539062,96.77548021484375Q162.13355102539063,96.90053021484376,162.13355102539063,97.02573021484375Z" fill="#FFFFFF" fill-opacity="1"/></g><g><path d="M149.75976208847655,102.69999848632813C150.45976168847656,108.09999848632813,155.05976568847657,111.89999848632813,160.05975568847657,111.19999848632813C165.05975568847657,110.59999848632813,168.55975568847657,105.69999848632813,167.85975568847655,100.39999848632813C167.15975568847657,95.09998848632813,162.25975568847656,88.69998548632813,157.25976568847656,89.39998588632812C152.25976568847656,90.09998548632812,149.05976168847656,97.39997848632812,149.75976208847655,102.69999848632813Z" fill="#FFFFFF" fill-opacity="1"/></g><g><g><g><g><path d="M154.55981372070312,93.89998779296874C154.55981372070312,93.89998779296874,154.45971372070312,93.89998779296874,154.45971372070312,93.89998779296874C154.35971372070313,93.99998779296875,154.05981372070312,93.99998779296875,153.85981372070313,93.99998779296875C153.6598137207031,93.99998779296875,153.35981372070313,93.99998779296875,153.1598137207031,93.99998779296875C152.75981372070314,93.99998779296875,152.25971372070313,93.99998779296875,151.75971372070313,93.89998779296874C150.75976372070312,93.79998779296875,149.8597637207031,93.69998779296876,148.8597637207031,93.49998779296875C147.95976372070314,93.29998779296875,146.95976372070314,93.19998779296876,146.05976372070313,92.89998779296874C145.65976372070313,92.69998779296876,145.15976372070313,92.59998779296875,144.75976372070312,92.39998779296874C144.55976372070313,92.29998779296875,144.35977372070312,92.19998779296876,144.15977372070313,92.09998779296875C144.15977372070313,91.99998779296875,144.05976372070313,91.89998779296874,144.05976372070313,91.89998779296874C143.95976372070314,91.79998779296875,143.95975372070313,91.69998779296876,143.95975372070313,91.59998779296875C143.75975372070312,89.79999779296875,144.15976372070313,87.79997779296875,144.3597637207031,85.89997779296876C144.3597637207031,85.89997779296876,145.25976372070312,80.09999379296875,145.25976372070312,80.09999379296875C145.25976372070312,80.09999379296875,145.15977372070313,79.99998779296875,145.15977372070313,79.99998779296875C145.05977372070313,79.89998779296874,144.95975372070313,79.89998779296874,144.95975372070313,79.99998779296875C144.95975372070313,79.99998779296875,144.95975372070313,80.09999379296875,144.95975372070313,80.09999379296875C143.55975372070313,81.79999779296875,142.65975372070312,83.69999779296874,141.95975372070313,85.59999779296875C141.6597577207031,86.49999779296876,141.35977072070312,87.49998779296875,141.15977072070314,88.49998779296875C141.0597707207031,88.99998779296875,141.05975772070312,89.49999779296876,140.95975812070313,90.09998779296875C140.95975812070313,90.69998779296876,140.85975812070313,91.29998779296875,140.95975812070313,92.09998779296875C140.95975812070313,92.49998779296875,141.15976072070313,92.79998779296875,141.25976072070313,93.19998779296876C141.45976072070312,93.39998779296874,141.65976772070312,93.79998779296875,141.85976772070313,93.99998779296875C142.05976372070313,94.09998779296875,142.15976372070313,94.29998779296875,142.3597637207031,94.39998779296874C142.8597637207031,94.79998779296875,143.25976372070312,94.99998779296875,143.55976372070313,95.09998779296875C144.25976372070312,95.39998779296874,144.75976372070312,95.49998779296875,145.3597637207031,95.59998779296875C146.45976372070314,95.79998779296875,147.55976372070313,95.79998779296875,148.55976372070313,95.79998779296875C149.55976372070313,95.69998779296876,150.65977372070313,95.59998779296875,151.6598137207031,95.39998779296874C152.25981372070314,95.29998779296875,152.75971372070313,95.19998779296876,153.25971372070313,94.99998779296875C153.55971372070312,94.89998779296874,153.75971372070313,94.79998779296875,154.05981372070312,94.69998779296876C154.1598137207031,94.59998779296875,154.35971372070313,94.59998779296875,154.45971372070312,94.49998779296875C154.55971372070312,94.39998779296874,154.6598137207031,94.29998779296875,154.85981372070313,94.09998779296875C154.85981372070313,93.99998779296875,154.85971372070313,93.99998779296875,154.75971372070313,93.99998779296875C154.75971372070313,93.89998779296874,154.6598137207031,93.89998779296874,154.55981372070312,93.89998779296874Z" fill="#FFFFFF" fill-opacity="1"/></g></g><g><g><path d="M154.05977346191406,99.60000389648438C152.05977346191406,100.00000389648437,149.95977346191407,100.19999389648437,147.95977346191407,100.39999389648438C145.95977346191407,100.59999389648438,143.85977346191407,100.69999389648437,141.85977346191407,100.39999389648438C139.85977346191407,100.09999389648438,138.45976346191406,98.39998389648437,137.45976346191406,96.69998389648437C136.95976346191406,95.79998389648438,136.55977346191406,94.89999389648438,136.15977346191406,93.89999389648438C135.75977346191405,92.99999389648437,135.45977246191407,92.00000389648437,135.15977246191406,90.99999989648437C135.15977246191406,90.99999989648437,135.15976646191407,90.89999389648438,135.05976646191405,90.89999389648438C134.95976646191406,90.89999389648438,134.85976946191406,90.89999999851437,134.85976946191406,90.99999989648437C134.85976946191406,90.99999989648437,134.85976946191406,91.10000589648438,134.85976946191406,91.10000589648438C134.35976946191406,93.40000389648438,134.55976976191405,95.69999389648437,135.35976946191406,97.89999389648438C135.75977346191405,98.99999389648437,136.35977346191407,100.19998389648437,137.35977346191407,101.19999389648437C137.55977346191406,101.39999389648438,137.85977346191407,101.69999389648437,138.15977346191406,101.89999389648438C138.15977346191406,101.89999389648438,138.55976346191406,102.29999389648438,138.55976346191406,102.29999389648438C138.55976346191406,102.29999389648438,139.05976346191406,102.59999389648438,139.05976346191406,102.59999389648438C139.45976346191406,102.79999389648438,139.85976346191407,102.99999389648437,140.25976346191408,103.09999389648438C140.25976346191408,103.09999389648438,140.85977346191407,103.29999389648438,140.85977346191407,103.29999389648438C140.85977346191407,103.29999389648438,141.15977346191406,103.39999389648438,141.15977346191406,103.39999389648438C141.15977346191406,103.39999389648438,141.35977346191407,103.39999389648438,141.35977346191407,103.39999389648438C143.75977346191405,103.69999389648437,145.95977346191407,103.39999389648438,148.05977346191406,102.79999389648438C150.15977346191406,102.19999389648437,152.25977346191405,101.29999389648438,154.05977346191406,99.89999389648438C154.15977346191406,99.79999389648438,154.25977346191405,99.79998389648438,154.25977346191405,99.69998389648437C154.25977346191405,99.59998389648437,154.15977346191406,99.60000389648438,154.05977346191406,99.60000389648438Z" fill="#FFFFFF" fill-opacity="1"/></g></g><g><g><path d="M152.65981484375,104.60001119921876C150.45976484375,104.50001119921875,148.15976484375,104.69999869921875,146.05976484375,105.39999869921876C145.05976484375,105.79999669921875,144.05976484375,106.30000669921876,143.15976484375,107.10000669921875C142.25976484375,107.80000669921876,141.65976484375,108.90000669921875,141.35976484375,110.00000669921874C140.75976484375,112.30000669921876,141.05976794375,114.59996669921875,141.65976784375,116.69996669921875C142.25976484375,118.89996669921875,143.15976484375,120.89996669921875,144.35976484374999,122.79996669921874C144.35976484374999,122.89996669921875,144.35975484375,122.89996669921875,144.45975484375,122.89996669921875C144.45975484375,122.79996669921874,144.55976484375,122.79996669921874,144.55976484375,122.69996669921875C144.55976484375,122.69996669921875,144.55976484375,122.59996669921875,144.55976484375,122.59996669921875C144.45976484375,120.19996669921875,144.15975484375,118.09996669921875,143.95975484375,116.09996669921875C143.85975484375,114.10000669921875,143.85975484375,112.29999669921875,144.25975484375,110.89999669921875C144.35975484375,110.79999669921875,144.35976484374999,110.70000669921875,144.35976484374999,110.60000669921875C144.35976484374999,110.60000669921875,144.45975484375,110.39999669921875,144.45975484375,110.39999669921875C144.55975484375,110.29999669921875,144.55976484375,110.10000669921875,144.65976484375,110.00000669921874C144.75976484375,109.90000669921875,144.75976484375,109.70000669921875,144.85976484374999,109.60000669921875C144.95976484375,109.50000669921874,145.05976484375,109.29998669921875,145.15976484375,109.19998669921875C145.55976484375,108.69998669921875,146.15975484375,108.19998669921875,146.95975484375,107.69998669921875C148.55975484375,106.69998669921875,150.55975484375,105.89999669921875,152.75971484375,104.89999869921876C152.85971484375,104.79999869921875,152.85971484375,104.79998669921875,152.75971484375,104.69998669921875C152.75971484375,104.69998669921875,152.75981484375,104.60001119921876,152.65981484375,104.60001119921876Z" fill="#FFFFFF" fill-opacity="1"/></g></g><g><g><path d="M155.45975892578124,107.69998168945312C155.35975892578125,107.69998168945312,155.35975892578125,107.69998168945312,155.25975892578126,107.69998168945312C154.15975892578126,108.69998168945312,153.15975892578126,109.99999168945313,152.45975492578125,111.39999168945313C152.05975492578125,112.09999168945312,151.85976412578125,112.89998168945313,151.85976412578125,113.69998168945312C151.75976412578126,114.49998168945312,152.05976392578125,115.30000168945313,152.35976392578124,116.00000168945313C153.05976892578124,117.40000168945312,153.85976892578125,118.69998168945312,154.65976892578124,119.99998168945312C155.55976892578124,121.29998168945312,156.45976892578125,122.59998168945313,157.35976892578125,123.79998168945312C157.35976892578125,123.89998168945313,157.45975892578124,123.89998168945313,157.45975892578124,123.89998168945313C157.45975892578124,123.89998168945313,157.55975892578124,123.89998168945313,157.55975892578124,123.79998168945312C157.55975892578124,123.79998168945312,157.55975892578124,123.69998168945312,157.55975892578124,123.69998168945312C157.45975892578124,121.79998168945312,157.05976892578124,120.29998168945312,156.65976892578124,118.79998168945312C156.15976892578124,117.39999168945313,155.65975892578126,115.99999168945313,155.05975892578124,114.79999168945312C155.05975892578124,114.79999168945312,154.85976892578125,114.39999168945313,154.85976892578125,114.39999168945313C154.75976892578126,114.29999168945312,154.75975892578126,114.29998168945312,154.75975892578126,114.19998168945312C154.65975892578126,114.09998168945313,154.65976892578124,114.10000168945312,154.65976892578124,114.00000168945313C154.55976892578124,114.00000168945313,154.55975892578124,113.89999168945313,154.55975892578124,113.79999168945312C154.45975892578124,113.49999168945313,154.35975892578125,112.99999168945313,154.45975892578124,112.39999168945313C154.55975892578124,111.19999168945313,154.95975892578124,109.80000168945313,155.25975892578126,107.99999968945312C155.25975892578126,107.99999968945312,155.45975892578124,107.79998768945312,155.45975892578124,107.79998768945312C155.45975892578124,107.79998768945312,155.45975892578124,107.69998168945312,155.45975892578124,107.69998168945312Z" fill="#FFFFFF" fill-opacity="1"/></g></g></g><g><g><g><path d="M160.85977478027343,93.09999389648438C161.15977478027344,93.29999389648438,161.25977478027343,93.19999389648437,161.35977478027343,93.19999389648437C161.55977478027344,93.09999389648438,161.65976878027342,93.09999389648438,161.75976878027345,93.09999389648438C161.95976478027345,92.99999389648437,162.25976478027343,92.99999389648437,162.45976478027345,92.89999389648438C162.95976478027345,92.79999389648438,163.35977478027343,92.69999389648437,163.85977478027343,92.49999389648437C164.75977478027343,92.19999389648437,165.65977478027344,91.79999389648438,166.55977478027344,91.39999389648438C167.45977478027345,90.99999389648437,168.25977478027343,90.59999389648438,169.15977478027344,90.09999389648438C169.65977478027344,89.89999389648438,170.05976478027344,89.59999389648438,170.45976478027345,89.29999389648438C170.65976478027343,89.19999389648437,170.85977478027343,88.99999389648437,171.05977478027344,88.79999389648438C171.15977478027344,88.69999389648437,171.15977478027344,88.59999389648438,171.25977478027343,88.39999389648438C171.25977478027343,88.19999389648437,171.25977478027343,88.09999389648438,171.25977478027343,87.89999389648438C171.05977478027344,86.79999389648438,170.65977478027344,85.90000389648438,170.35977478027343,85.00000389648437C170.05977478027344,84.10000389648438,169.65976478027343,83.19998389648437,169.25976478027343,82.29998389648438C168.45976478027345,80.49998389648438,167.65976478027343,78.70000389648438,166.75976478027343,76.99999989648437C166.75976478027343,76.89999999851437,166.75977478027343,76.89999389648438,166.65977478027344,76.89999389648438C166.65977478027344,76.89999389648438,166.55977478027344,76.89999999851437,166.55977478027344,76.99999989648437C166.55977478027344,76.99999989648437,166.55977478027344,77.10000589648438,166.55977478027344,77.10000589648438C166.45977478027345,79.30000389648437,166.75977478027343,81.29998389648438,167.15977478027344,83.19998389648437C167.35977478027343,84.19998389648437,167.65977478027344,85.10000389648438,167.85977478027343,86.00000389648437C167.85977478027343,86.00000389648437,168.15977478027344,87.29999389648438,168.15977478027344,87.29999389648438C168.25977478027343,87.69999389648437,168.35977478027343,88.09999389648438,168.35977478027343,88.19999389648437C168.25977478027343,87.99999389648437,168.25977478027343,87.89999389648438,168.35977478027343,87.69999389648437C168.35977478027343,87.59999389648438,168.45976478027345,87.49999389648437,168.45976478027345,87.39999389648438C168.45976478027345,87.29999389648438,168.55977478027344,87.19999389648437,168.55977478027344,87.19999389648437C168.55977478027344,87.09999389648438,168.65977478027344,86.99999389648437,168.65977478027344,86.99999389648437C168.75977478027343,86.80000389648437,168.65977478027344,86.89999389648438,168.55977478027344,86.99999389648437C168.35977478027343,87.19999389648437,167.95977478027345,87.49999389648437,167.65977478027344,87.69999389648437C167.65977478027344,87.69999389648437,165.45976478027345,89.29999389648438,165.45976478027345,89.29999389648438C164.65976478027343,89.89999389648438,163.95977478027345,90.49999389648437,163.15977478027344,91.09999389648438C163.15977478027344,91.09999389648438,162.05977478027344,92.09999389648438,162.05977478027344,92.09999389648438C162.05977478027344,92.09999389648438,161.45976578027344,92.59999389648438,161.45976578027344,92.59999389648438C161.25976578027343,92.79999389648438,161.05976578027344,92.99999389648437,160.95976578027344,93.09999389648438C160.85976558027343,92.99999389648437,160.75977478027343,92.99999389648437,160.85977478027343,92.89999389648438C160.75977478027343,92.99999389648437,160.75977478027343,92.99999389648437,160.85977478027343,93.09999389648438Z" fill="#FFFFFF" fill-opacity="1"/></g></g><g><g><path d="M162.75976558027344,98.59999389648438C164.85976478027345,98.49999389648437,166.85976478027345,98.19999389648437,168.95976478027345,97.89999389648438C171.05976478027344,97.49999389648437,173.05977478027344,97.09999389648438,175.05977478027344,96.29999389648438C176.05977478027344,95.79999389648438,176.95977478027345,94.99999389648437,177.45977478027345,94.10000389648438C178.05977478027344,93.20000389648438,178.35977478027343,92.19998389648437,178.65977478027344,91.19998389648437C179.25977478027343,89.19998389648437,179.35977478027343,87.10000389648438,179.25977478027343,84.99999989648437C179.25977478027343,84.99999989648437,179.15977478027344,84.89999389648438,179.15977478027344,84.89999389648438C179.05977478027344,84.89999389648438,178.95977478027345,84.89999999851437,178.95977478027345,84.99999989648437C178.95977478027345,84.99999989648437,178.95977478027345,85.10000589648438,178.95977478027345,85.10000589648438C177.95977478027345,87.10000389648438,177.15977478027344,89.09998389648437,176.35977478027343,90.69998389648437C175.95977478027345,91.59998389648437,175.45977478027345,92.29998389648438,175.05977478027344,92.79998389648438C174.95977478027345,92.89998389648437,174.85977478027343,93.00000389648437,174.75977478027343,93.10000389648438C174.75977478027343,93.10000389648438,174.65977478027344,93.29998389648438,174.65977478027344,93.29998389648438C174.65977478027344,93.29998389648438,174.55977478027344,93.39999389648438,174.55977478027344,93.39999389648438C174.55977478027344,93.49999389648437,174.45977478027345,93.60000389648438,174.35977478027343,93.60000389648438C174.35977478027343,93.70000389648438,174.25977478027343,93.69998389648437,174.25977478027343,93.69998389648437C174.25977478027343,93.69998389648437,174.15977478027344,93.69998389648437,174.15977478027344,93.69998389648437C174.15977478027344,93.69998389648437,174.05977478027344,93.79998389648438,174.05977478027344,93.79998389648438C172.55976478027344,94.39998389648437,170.65976478027343,94.99999389648437,168.75976478027343,95.69999389648437C166.85976478027345,96.39999389648438,164.95976478027345,97.19999389648437,162.95976278027345,98.39999389648438C162.85976278027343,98.49999389648437,162.85977478027343,98.49999389648437,162.65977478027378,98.49999389648437C162.65977478027378,98.49999389648437,162.65976562351344,98.59999389648438,162.75976558027344,98.59999389648438Z" fill="#FFFFFF" fill-opacity="1"/></g></g><g><g><path d="M165.659777625,103.199969453125C166.659775625,102.899969453125,167.759775625,102.699999453125,168.859775625,102.599999453125C169.859775625,102.499999453125,170.959775625,102.399989453125,172.059775625,102.499989453125C173.159775625,102.599989453125,174.259775625,102.799979453125,175.159775625,103.299979453125C176.159765625,103.799979453125,176.859765625,104.599989453125,177.359765625,105.499989453125C178.459765625,107.299989453125,178.759765625,109.499969453125,178.759765625,111.699939453125C178.759765625,112.799939453125,178.659765625,113.899939453125,178.559765625,115.000039453125C178.459765625,116.099939453125,178.259765625,117.099939453125,177.959765625,118.199939453125C177.859765625,118.199939453125,177.959765625,118.299939453125,177.959765625,118.299939453125C178.059765625,118.399939453125,178.059765625,118.399939453125,178.159765625,118.299939453125C179.759765625,116.499939453125,180.659765625,114.199939453125,181.059765625,111.799939453125C181.259765625,110.599939453125,181.359765625,109.299989453125,181.159765625,107.999989453125C180.959765625,106.699989453125,180.659765625,105.399999453125,179.859765625,104.099999453125C179.759765625,103.899999453125,179.659765625,103.799999453125,179.559765625,103.599999453125C179.559765625,103.599999453125,179.159765625,103.099999453125,179.159765625,103.099999453125C178.959765625,102.799999453125,178.659765625,102.499969453125,178.359765625,102.199969453125C177.959765625,101.899969453125,177.659765625,101.599979453125,177.359765625,101.399979453125C177.059765625,101.199979453125,176.759765625,100.999977453125,176.359765625,100.799977453125C174.859775625,100.199977453125,173.459775625,99.999996053125,172.159775625,100.099996053125C169.559775625,100.299996453125,167.259765625,101.199979453125,165.459765625,102.899979453125C165.359765625,102.899979453125,165.359765625,102.999999453125,165.459765625,103.099999453125C165.459765625,103.199999453125,165.559777625,103.199969453125,165.659777625,103.199969453125Z" fill="#FFFFFF" fill-opacity="1"/></g></g><g><g><path d="M164.0597717285156,106.89999227148438C165.35977172851562,107.69999327148437,166.55976172851564,108.69998327148437,167.45976172851562,109.79998327148438C167.95976172851562,110.29998327148438,168.25976172851563,110.99998327148438,168.45976172851562,111.69998327148437C168.65976172851563,112.39998327148437,168.65976172851563,112.99998327148438,168.45976172851562,113.79998327148438C168.15976172851563,115.29998327148438,167.75977172851563,116.70000327148438,167.35977172851562,118.20000327148438C166.95977172851562,119.70000327148438,166.45976172851562,121.20000327148438,165.95976172851562,122.60000327148438C165.95976172851562,122.60000327148438,165.95976172851562,122.70000327148438,165.95976172851562,122.70000327148438C166.05976172851564,122.70000327148438,166.05978172851562,122.70000327148438,166.1597817285156,122.70000327148438C166.1597817285156,122.70000327148438,166.25977172851563,122.70000327148438,166.25977172851563,122.70000327148438C167.75977172851563,121.60000327148438,168.75978172851563,120.30000327148437,169.6597817285156,118.90000327148438C170.45978172851562,117.50000327148437,171.0597717285156,115.99998327148438,171.35977172851562,114.29998327148438C171.35977172851562,114.29998327148438,171.45976172851562,113.60000327148437,171.45976172851562,113.60000327148437C171.45976172851562,113.40000327148438,171.45976172851562,112.99998327148438,171.45976172851562,112.69998327148437C171.45976172851562,112.39998327148437,171.45977172851562,112.09998327148438,171.35977172851562,111.79998327148438C171.35977172851562,111.49998327148438,171.25978172851563,111.19999327148437,171.1597817285156,110.89999327148438C170.75978172851563,109.69999327148437,170.0597717285156,108.79998327148438,169.25977172851563,108.19998327148437C167.65977172851564,106.99998027148438,165.95977172851562,106.40000427148438,164.0597717285156,106.60000447148437C163.95977172851562,106.60000447148437,163.95977172851562,106.59997997148437,164.0597717285156,106.69998027148438C163.95977172851562,106.79998027148437,163.95977172851562,106.89999227148438,164.0597717285156,106.89999227148438Z" fill="#FFFFFF" fill-opacity="1"/></g></g></g></g></g></g></g></svg>