<svg xmlns="http://www.w3.org/2000/svg" xmlns:xlink="http://www.w3.org/1999/xlink" fill="none" version="1.1" width="291.513671875" height="195" viewBox="0 0 291.513671875 195"><defs><mask id="master_svg0_0_918" style="mask-type:alpha" maskUnits="objectBoundingBox"><g><path d="M173.299609375,27C172.799609375,27.2,168.599609375,28.9,167.999609375,29.1C166.199609375,29.7,164.399609375,30.2,162.499609375,30.6C162.499609375,30.6,160.899609375,40.9,144.399609375,40C108.799609375,38.1,92.999609375,22.60001,92.999609375,22.60001C92.999609375,22.20001,92.699609375,18.5,92.699609375,18C88.599609375,19.1,84.199609375,21.3,78.499609375,23.3C58.399609375,30.5,30.799609375,47,19.299609375,72C4.099609375,105.1,2.599609375,151.5,2.599609375,151.5C2.599609375,151.5,255.399609375,151.5,255.399609375,151.5C255.399609375,151.5,250.799609375,81.1,224.899609375,59.2C201.999609375,40,186.199609375,30.4,173.299609375,27Z" fill="#FFFFFF" fill-opacity="1"/></g></mask></defs><g><g><g><path d="M92.80000305175781,18.100003051757813C92.80000305175781,18.100003051757813,92.60000305175781,15.800003051757812,92.60000305175781,15.800003051757812C89.9000030517578,16.000003051757812,75.30000305175781,21.800003051757812,75.30000305175781,21.800003051757812C75.30000305175781,21.800003051757812,79.9000030517578,24.599993051757814,80.50000305175782,23.89999305175781C81.20000305175782,23.099993051757814,92.80000305175781,18.100003051757813,92.80000305175781,18.100003051757813Z" fill="#7E5D6D" fill-opacity="1"/></g><g><path d="M173.2999994277954,27C172.7999994277954,27.2,168.5999994277954,28.9,167.99999942779542,29.1C166.1999994277954,29.7,164.39999942779542,30.2,162.49999942779542,30.6C162.49999942779542,30.6,160.89999942779542,40.9,144.39999942779542,40C108.79999942779541,38.1,92.99999942779542,22.60001,92.99999942779542,22.60001C92.99999942779542,22.20001,92.6999994277954,18.5,92.6999994277954,18C88.59999942779541,19.1,84.1999994277954,21.3,78.49999942779542,23.3C58.39999942779541,30.5,30.79999942779541,47,19.29999942779541,72C4.09999942779541,105.1,2.59999942779541,151.5,2.59999942779541,151.5C2.59999942779541,151.5,255.39999942779542,151.5,255.39999942779542,151.5C255.39999942779542,151.5,250.7999994277954,81.1,224.89999942779542,59.2C201.99999942779542,40,186.1999994277954,30.4,173.2999994277954,27Z" fill="#423232" fill-opacity="1"/></g><g mask="url(#master_svg0_0_918)"><g><g><path d="M93.797258125,14.430545405273438Q97.394238125,11.961535405273438,107.859878125,11.479205405273436Q117.636678125,11.028625405273438,129.355778125,12.353315405273438Q158.704078125,15.670735405273437,167.624278125,25.190665405273435Q173.13357812499999,31.05656540527344,173.772978125,40.998865405273435Q174.313778125,49.40716540527344,171.357578125,58.70726540527344Q168.571578125,67.47196540527344,164.008878125,73.15566540527344Q158.623978125,79.86366540527344,153.240678125,78.85746540527344Q136.98897812500002,75.73776540527344,117.322378125,61.51316540527344Q99.730478125,48.78926540527344,90.761048125,36.146565405273435Q87.234208125,31.263465405273436,86.823808125,26.962465405273438Q86.117348125,19.558675405273437,93.797258125,14.430545405273438ZM91.801208125,26.487565405273436Q91.378028125,22.052615405273436,96.586758125,18.58012540527344L96.621718125,18.556395405273438Q99.029918125,16.891465405273436,108.090078125,16.473905405273438Q117.469978125,16.041625405273436,128.794178125,17.32167540527344Q156.313778125,20.432385405273436,163.975678125,28.609365405273437Q168.259178125,33.17016540527344,168.78327812499998,41.31986540527343Q169.263678125,48.78916540527344,166.592478125,57.19266540527344Q164.088878125,65.06896540527345,160.109878125,70.02556540527344Q156.599378125,74.39866540527345,154.159378125,73.94256540527343Q139.02067812500002,71.03646540527345,120.252678125,57.46176540527344Q103.330278125,45.22216540527344,94.839008125,33.25346540527344Q92.082618125,29.436765405273437,91.801208125,26.487565405273436Z" fill-rule="evenodd" fill="#FFFF8D" fill-opacity="1"/></g></g></g><g><g><path d="M218.4,38.09999389648438Q218.4,38.387193896484376,218.3859,38.67409389648438Q218.3718,38.960993896484375,218.3437,39.24679389648438Q218.3155,39.53259389648437,218.2734,39.81679389648438Q218.2312,40.10089389648438,218.1752,40.38259389648437Q218.1191,40.664293896484374,218.0494,40.94289389648438Q217.9796,41.221493896484375,217.8962,41.496293896484374Q217.8128,41.77119389648438,217.7161,42.04159389648437Q217.6193,42.311993896484374,217.5094,42.577393896484374Q217.3995,42.84279389648437,217.2767,43.10239389648437Q217.1539,43.36199389648438,217.0185,43.615293896484374Q216.8831,43.86869389648437,216.7354,44.11499389648438Q216.58780000000002,44.36139389648437,216.4282,44.60019389648437Q216.2686,44.838993896484375,216.0975,45.069693896484374Q215.9264,45.30039389648438,215.7442,45.522393896484374Q215.562,45.744393896484375,215.3691,45.95719389648438Q215.1762,46.170093896484374,214.9731,46.37319389648437Q214.77,46.57629389648437,214.5572,46.76909389648438Q214.3444,46.96199389648437,214.1224,47.144193896484374Q213.9004,47.326393896484376,213.6697,47.49749389648437Q213.439,47.668593896484374,213.2002,47.82819389648438Q212.9614,47.987793896484376,212.715,48.13539389648437Q212.4686,48.283093896484374,212.2153,48.41849389648438Q211.962,48.553893896484375,211.7024,48.67669389648438Q211.4427,48.79949389648438,211.1774,48.909393896484374Q210.912,49.01929389648437,210.6416,49.11609389648437Q210.3712,49.21279389648437,210.09629999999999,49.296193896484375Q209.82150000000001,49.37959389648438,209.5429,49.449393896484374Q209.2643,49.519193896484374,208.9826,49.57519389648438Q208.7009,49.631193896484376,208.4167,49.67339389648437Q208.1326,49.715493896484375,207.8468,49.74369389648437Q207.561,49.771793896484375,207.2741,49.785893896484374Q206.9872,49.799993896484374,206.7,49.799993896484374Q206.4128,49.799993896484374,206.1259,49.785893896484374Q205.839,49.771793896484375,205.5532,49.74369389648437Q205.2674,49.715493896484375,204.98325,49.67339389648437Q204.69914,49.631193896484376,204.41744,49.57519389648438Q204.13574,49.519193896484374,203.85713,49.449393896484374Q203.57852,49.37959389648438,203.30367,49.296193896484375Q203.02882,49.21279389648437,202.75839,49.11609389648437Q202.48796,49.01929389648437,202.2226,48.909393896484374Q201.95725,48.79949389648438,201.6976,48.67669389648438Q201.43796,48.553893896484375,201.18466,48.41849389648438Q200.93135,48.283093896484374,200.685,48.13539389648437Q200.43864,47.987793896484376,200.19983,47.82819389648438Q199.96101,47.668593896484374,199.73032,47.49749389648437Q199.49962,47.326393896484376,199.2776,47.144193896484374Q199.05557,46.96199389648437,198.84276,46.76909389648438Q198.62994,46.57629389648437,198.42685,46.37319389648437Q198.22376,46.170093896484374,198.03087,45.95719389648438Q197.83799,45.744393896484375,197.65578,45.522393896484374Q197.47357,45.30039389648438,197.30247,45.069693896484374Q197.13138,44.838993896484375,196.9718,44.60019389648437Q196.81223,44.36139389648437,196.66457,44.11499389648438Q196.51691,43.86869389648437,196.38152,43.615293896484374Q196.24613,43.36199389648438,196.12332,43.10239389648437Q196.00052,42.84279389648437,195.890609,42.577393896484374Q195.780695,42.311993896484374,195.683934,42.04159389648437Q195.587173,41.77119389648438,195.503798,41.496293896484374Q195.420423,41.221493896484375,195.350634,40.94289389648438Q195.280846,40.664293896484374,195.224812,40.38259389648437Q195.168779,40.10089389648438,195.126635,39.81679389648438Q195.084491,39.53259389648437,195.0563387,39.24679389648438Q195.0281863,38.960993896484375,195.0140932,38.67409389648438Q195,38.387193896484376,195,38.09999389648438Q195,37.81279389648438,195.0140932,37.52589389648438Q195.0281863,37.238993896484374,195.0563387,36.95319389648438Q195.084491,36.66739389648438,195.126635,36.383253896484376Q195.168779,36.09914389648438,195.224812,35.81744389648438Q195.280846,35.53574389648438,195.350634,35.25712389648437Q195.420423,34.97851389648437,195.503798,34.70366389648437Q195.587173,34.42881389648437,195.683934,34.158383896484374Q195.780695,33.887953896484376,195.890609,33.62260389648438Q196.00052,33.35724389648438,196.12332,33.09760389648437Q196.24613,32.83795389648438,196.38152,32.584653896484376Q196.51691,32.33134389648438,196.66457,32.08499389648438Q196.81223,31.838633896484374,196.9718,31.599823896484374Q197.13138,31.361013896484376,197.30247,31.130313896484374Q197.47357,30.899613896484375,197.65578,30.677593896484375Q197.83799,30.455573896484374,198.03087,30.242753896484373Q198.22376,30.029943896484376,198.42685,29.826843896484377Q198.62994,29.623753896484374,198.84276,29.430863896484375Q199.05557,29.237983896484376,199.2776,29.055773896484375Q199.49962,28.873563896484374,199.73032,28.702463896484375Q199.96101,28.531373896484375,200.19983,28.371803896484376Q200.43864,28.212233896484374,200.685,28.064573896484376Q200.93135,27.916913896484374,201.18466,27.781513896484377Q201.43796,27.646123896484376,201.6976,27.523323896484374Q201.95725,27.400513896484377,202.2226,27.290603896484374Q202.48796,27.180689896484374,202.75839,27.083928896484373Q203.02882,26.987167896484376,203.30367,26.903791896484375Q203.57852,26.820416896484375,203.85713,26.750627896484374Q204.13574,26.680839896484375,204.41744,26.624805896484375Q204.69914,26.568772896484376,204.98325,26.526628896484375Q205.2674,26.484484996484376,205.5532,26.456332596484376Q205.839,26.428180196484377,206.1259,26.414087096484376Q206.4128,26.399993896484375,206.7,26.399993896484375Q206.9872,26.399993896484375,207.2741,26.414087096484376Q207.561,26.428180196484377,207.8468,26.456332596484376Q208.1326,26.484484996484376,208.4167,26.526628896484375Q208.7009,26.568772896484376,208.9826,26.624805896484375Q209.2643,26.680839896484375,209.5429,26.750627896484374Q209.82150000000001,26.820416896484375,210.09629999999999,26.903791896484375Q210.3712,26.987167896484376,210.6416,27.083928896484373Q210.912,27.180689896484374,211.1774,27.290603896484374Q211.4427,27.400513896484377,211.7024,27.523323896484374Q211.962,27.646123896484376,212.2153,27.781513896484377Q212.4686,27.916913896484374,212.715,28.064573896484376Q212.9614,28.212233896484374,213.2002,28.371803896484376Q213.439,28.531373896484375,213.6697,28.702463896484375Q213.9004,28.873563896484374,214.1224,29.055773896484375Q214.3444,29.237983896484376,214.5572,29.430863896484375Q214.77,29.623753896484374,214.9731,29.826843896484377Q215.1762,30.029943896484376,215.3691,30.242753896484373Q215.562,30.455573896484374,215.7442,30.677593896484375Q215.9264,30.899613896484375,216.0975,31.130313896484374Q216.2686,31.361013896484376,216.4282,31.599823896484374Q216.58780000000002,31.838633896484374,216.7354,32.08499389648438Q216.8831,32.33134389648438,217.0185,32.584653896484376Q217.1539,32.83795389648438,217.2767,33.09760389648437Q217.3995,33.35724389648438,217.5094,33.62260389648438Q217.6193,33.887953896484376,217.7161,34.158383896484374Q217.8128,34.42881389648437,217.8962,34.70366389648437Q217.9796,34.97851389648437,218.0494,35.25712389648437Q218.1191,35.53574389648438,218.1752,35.81744389648438Q218.2312,36.09914389648438,218.2734,36.383253896484376Q218.3155,36.66739389648438,218.3437,36.95319389648438Q218.3718,37.238993896484374,218.3859,37.52589389648438Q218.4,37.81279389648438,218.4,38.09999389648438Z" fill="#FFFF8D" fill-opacity="1"/></g></g><g><path d="M46.110968474121094,114.681098Q46.099998474121094,114.5908814,46.099998474121094,114.5Q46.099998474121094,114.4263097,46.10721847412109,114.352974Q46.11444847412109,114.279639,46.1288184741211,114.207365Q46.14319847412109,114.13509,46.164588474121096,114.064573Q46.18597847412109,113.994056,46.21417847412109,113.925975Q46.2423784741211,113.857894,46.277118474121096,113.792905Q46.311858474121095,113.727916,46.352798474121094,113.666645Q46.39373847412109,113.605373,46.44047847412109,113.54841Q46.487228474121096,113.49145,46.539338474121095,113.43934Q46.591448474121094,113.38723,46.64840847412109,113.34048Q46.705371474121094,113.29374,46.766643474121096,113.2528Q46.827914474121094,113.21186,46.89290347412109,113.17712Q46.957892474121095,113.14238,47.025973474121095,113.11418Q47.094054474121094,113.08598,47.1645714741211,113.06459Q47.23508847412109,113.0432,47.3073634741211,113.02882Q47.3796374741211,113.01445,47.4529724741211,113.00722Q47.52630817412109,113,47.599998474121094,113Q47.668002974121094,113,47.735728474121096,113.00615Q47.80345347412109,113.01231,47.8703444741211,113.02456Q47.937235474121096,113.03682,48.0027434741211,113.05508Q48.06825047412109,113.07334,48.131836474121094,113.09745Q48.19542347412109,113.12156,48.25656747412109,113.15133Q48.31771047412109,113.18109,48.37591047412109,113.21627Q48.43411047412109,113.25145,48.48888747412109,113.29175Q48.54366547412109,113.33205,48.594571474121096,113.37714Q48.64547847412109,113.42223,48.692098474121096,113.47174Q48.73871847412109,113.52125,48.7806584741211,113.574776Q48.8226084741211,113.628303,48.859538474121095,113.685406Q48.89646847412109,113.742509,48.928078474121094,113.802719Q48.959688474121094,113.862929,48.985728474121096,113.925753Q49.011758474121095,113.988577,49.031998474121096,114.053499Q49.05224847412109,114.118421,49.06652847412109,114.184908Q49.080818474121095,114.251395,49.08902847412109,114.318902L53.58902847412109,151.31889999999999Q53.599998474121094,151.4091,53.599998474121094,151.5Q53.599998474121094,151.5737,53.59277847412109,151.647Q53.5855484741211,151.72039999999998,53.5711784741211,151.7926Q53.556798474121095,151.8649,53.53540847412109,151.93540000000002Q53.514018474121094,152.0059,53.485818474121096,152.074Q53.45761847412109,152.1421,53.42287847412109,152.2071Q53.38813847412109,152.2721,53.34719847412109,152.33339999999998Q53.306258474121094,152.3946,53.259518474121094,152.45159999999998Q53.21276847412109,152.5086,53.16065847412109,152.5607Q53.10854847412109,152.6128,53.0515884741211,152.6595Q52.99462847412109,152.7063,52.9333484741211,152.7472Q52.872078474121096,152.7881,52.807088474121095,152.8229Q52.742108474121096,152.8576,52.67401847412109,152.88580000000002Q52.605938474121096,152.914,52.53542847412109,152.93540000000002Q52.464908474121096,152.9568,52.392628474121096,152.9712Q52.32035847412109,152.9856,52.247028474121095,152.9928Q52.17368847412109,153,52.099998474121094,153Q52.03198847412109,153,51.96426847412109,152.9938Q51.896538474121094,152.9877,51.82964847412109,152.9754Q51.76275847412109,152.9632,51.697248474121096,152.9449Q51.631748474121096,152.92669999999998,51.56815847412109,152.9025Q51.50456847412109,152.8784,51.44342847412109,152.8487Q51.3822884741211,152.81889999999999,51.32408847412109,152.7837Q51.26588847412109,152.7485,51.21110847412109,152.7083Q51.156328474121096,152.668,51.10542847412109,152.62290000000002Q51.054518474121096,152.5778,51.00789847412109,152.5283Q50.961278474121094,152.4787,50.91933847412109,152.4252Q50.87738847412109,152.3717,50.84045847412109,152.31459999999998Q50.803528474121094,152.2575,50.771918474121094,152.19729999999998Q50.74030847412109,152.1371,50.71426847412109,152.0742Q50.68823847412109,152.0114,50.66799847412109,151.94650000000001Q50.647748474121094,151.8816,50.633468474121095,151.8151Q50.61917847412109,151.7486,50.610968474121094,151.68110000000001L46.110968474121094,114.681098Z" fill-rule="evenodd" fill="#544D4D" fill-opacity="1"/></g><g><path d="M228.08740389648437,102.37015679296876Q228.1999938964844,102.09618879296875,228.1999938964844,101.79998779296875Q228.1999938964844,101.72629749296875,228.19277389648437,101.65296179296875Q228.18555389648438,101.57962679296875,228.17117389648436,101.50735279296875Q228.15679389648437,101.43507779296876,228.13540389648438,101.36456079296875Q228.11401389648438,101.29404379296875,228.08581389648438,101.22596279296874Q228.05761389648438,101.15788179296875,228.02287389648438,101.09289279296875Q227.9881438964844,101.02790379296874,227.94720389648438,100.96663279296875Q227.90626389648438,100.90536079296875,227.85951389648437,100.84839779296875Q227.81276389648437,100.79143779296875,227.76065389648437,100.73932779296875Q227.70855389648437,100.68721779296875,227.65158389648437,100.64046779296875Q227.59462389648436,100.59372779296875,227.53335389648439,100.55278779296874Q227.47208389648438,100.51184779296875,227.40709389648438,100.47710779296875Q227.3421038964844,100.44236779296875,227.27402389648438,100.41416779296875Q227.20594389648437,100.38596779296876,227.13542389648438,100.36457779296875Q227.06490389648437,100.34318779296875,226.99263389648436,100.32880779296875Q226.9203538964844,100.31443779296875,226.8470238964844,100.30720779296875Q226.77368389648439,100.29998779296875,226.6999938964844,100.29998779296875Q226.58908389648437,100.29998779296875,226.47938389648436,100.31629779296875Q226.3696838964844,100.33260779296874,226.2635738964844,100.36487779296876Q226.1574638964844,100.39714779296875,226.05725389648438,100.44467779296875Q225.95704389648438,100.49219779296875,225.86490389648438,100.55394779296876Q225.77277389648438,100.61568779296876,225.69072389648437,100.69031779296876Q225.60868389648437,100.76493779296875,225.53850389648437,100.85081779296875Q225.46831389648437,100.93669879296876,225.41153389648437,101.03196679296875Q225.35474489648436,101.12723479296875,225.31258689648436,101.22981879296874Q224.51655389648437,103.16682779296875,223.85158489648438,106.02227779296875Q222.51617389648436,111.75668779296875,223.1112638964844,116.58348779296875Q223.24146389648436,117.63958779296875,223.58038289648437,119.94978779296875Q224.1260558964844,123.66928779296875,224.35775719648439,125.80838779296874Q224.75091389648438,129.43818779296876,224.81553189648437,132.82348779296876Q224.98502689648438,141.70328779296875,222.93392389648437,151.18278779296875Q222.89999389648438,151.33958779296876,222.89999389648438,151.49998779296874Q222.89999389648438,151.57368779296874,222.90721389648436,151.64698779296876Q222.91444389648439,151.72038779296875,222.92881389648437,151.79258779296876Q222.9431938964844,151.86488779296874,222.96458389648438,151.93538779296875Q222.98597389648438,152.00598779296877,223.01417389648438,152.07398779296875Q223.04237389648438,152.14208779296877,223.07711389648438,152.20708779296876Q223.11185389648438,152.27208779296876,223.15279389648438,152.33338779296875Q223.1937338964844,152.39458779296876,223.2404738964844,152.45158779296875Q223.28722389648436,152.50858779296874,223.33933389648436,152.56068779296874Q223.39144389648436,152.61278779296876,223.44840389648436,152.65948779296875Q223.50536689648436,152.70628779296874,223.56663889648436,152.74718779296876Q223.62790989648437,152.78818779296876,223.69289889648437,152.82288779296874Q223.75788789648436,152.85758779296876,223.82596889648437,152.88578779296876Q223.89404989648438,152.91398779296875,223.96456689648437,152.93538779296875Q224.03508389648437,152.95678779296875,224.10735889648439,152.97118779296875Q224.17963289648438,152.98558779296874,224.25296789648436,152.99278779296876Q224.32630359648437,152.99998779296874,224.39999389648438,152.99998779296874Q224.52758589648437,152.99998779296874,224.6533438964844,152.97848779296874Q224.77910189648438,152.95688779296876,224.89941389648436,152.91438779296874Q225.01972589648437,152.87188779296875,225.13113489648438,152.80978779296873Q225.24254289648437,152.74758779296874,225.3418458964844,152.66748779296876Q225.44115389648437,152.58728779296877,225.52549389648436,152.49158779296874Q225.60984389648436,152.39588779296875,225.6768038964844,152.28728779296875Q225.74376389648438,152.17868779296876,225.7914238964844,152.06028779296875Q225.83908389648437,151.94188779296874,225.86606389648438,151.81718779296875L225.86632389648437,151.81608779296874Q227.99114389648437,141.99528779296875,227.81498389648436,132.76628779296874Q227.74782389648436,129.24768779296875,227.34031389648436,125.48538779296875Q227.10251389648437,123.28988779296876,226.54861389648437,119.51428779296876Q226.21469389648436,117.23818779296874,226.08872389648437,116.21648779296875Q225.55881389648437,111.91828779296875,226.77340389648438,106.70270779296875Q227.15582389648438,105.06056779296875,227.66777389648436,103.53068779296875Q227.9190138964844,102.77992279296875,228.08740389648437,102.37015679296876Z" fill-rule="evenodd" fill="#544D4D" fill-opacity="1"/></g><g><path d="M0,162.3004100341797C0,162.3004100341797,97.1,166.90041003417969,97.1,166.90041003417969C97.1,166.90041003417969,101.8,114.70001003417968,98.7,85.70001003417968C94.8,48.60001003417969,85.4,29.899990034179687,81.5,23.49999003417969C80.5,21.799995034179688,77.2,21.19999803417969,75.3,21.799998034179687C41.5,33.40001003417969,19.7,47.80001003417969,11.4,79.90001003417969C2.9,113.00001003417968,0,162.3004100341797,0,162.3004100341797Z" fill="#FFFFFF" fill-opacity="1"/></g><g><path d="M249.09998779296876,68.50000305175782C264.09998779296876,102.00000305175782,264.3999877929688,163.60000305175782,264.3999877929688,163.60000305175782C264.3999877929688,163.60000305175782,197.69998779296876,163.60000305175782,197.69998779296876,163.60000305175782C206.69998779296876,86.00000305175782,175.79998779296875,27.89999305175781,175.79998779296875,27.89999305175781C178.29998779296875,26.89999305175781,181.59998779296876,25.300003051757812,181.59998779296876,25.300003051757812C181.59998779296876,25.300003051757812,234.09998779296876,35.10000305175781,249.09998779296876,68.50000305175782Z" fill="#FFFFFF" fill-opacity="1"/></g><g><path d="M185.79999389648438,27C184.09999389648436,26.2,179.29998389648438,24,179.29998389648438,24C179.29998389648438,24,178.39999389648438,24.5,178.39999389648438,24.5C176.89999389648438,25.5,173.39999389648438,27.2,173.39999389648438,27.2C173.39999389648438,27.2,175.79998389648438,27.89999,175.79998389648438,27.89999C176.0999838964844,27.89999,179.89999389648438,31.5,179.89999389648438,31.5C179.89999389648438,31.5,187.49999389648437,27.8,185.79999389648438,27Z" fill="#7E5D6D" fill-opacity="1"/></g><g><path d="M97.59999710693359,76.30000610351563C103.2999971069336,115.90000610351562,98.2999971069336,150.90000610351564,98.2999971069336,150.90000610351564C98.2999971069336,150.90000610351564,55.799997106933596,86.40000610351562,54.499998106933596,76.10000610351562C53.199997106933594,65.80000610351563,66.99999710693359,56.100006103515625,66.99999710693359,56.100006103515625C74.59999710693359,58.100006103515625,80.99999710693359,61.80000610351563,85.99999710693359,65.30000610351563C93.49999710693359,70.80000610351563,97.59999710693359,76.30000610351563,97.59999710693359,76.30000610351563Z" fill="#AD7E5A" fill-opacity="1"/></g><g><path d="M193.69999679296876,81.80000305175781C193.69999679296876,81.80000305175781,193.29998779296875,80.00000305175782,193.29998779296875,80.00000305175782C193.29998779296875,80.00000305175782,194.19999379296874,72.9000030517578,200.89999779296875,66.60000305175781C203.89998779296874,63.70000305175781,208.09998779296876,61.000003051757815,213.99998779296874,59.30000305175781C213.99998779296874,59.30000305175781,228.79998779296875,69.70000305175782,228.39998779296874,76.10000305175781C227.99998779296874,82.50000305175782,198.69999779296876,152.9000030517578,198.69999779296876,152.9000030517578C198.69999779296876,152.9000030517578,200.79999779296875,112.70000305175782,193.69999679296876,81.80000305175781Z" fill="#AD7E5A" fill-opacity="1"/></g><g><path d="M93.00000125732421,22.6C93.00000125732421,22.6,93.00000125732421,22.5,93.00000125732421,22.5C92.50000125732421,15.4,91.90000125732422,8.7,91.20000125732422,2.7C91.10000125732421,2.5,91.10000125732421,2.4,91.10000125732421,2.2C91.10000125732421,1.9,91.00000125732421,1.6,91.00000125732421,1.3C90.90000125732422,1.1,90.90000125732422,0.899997,90.90000125732422,0.699997C90.90000125732422,0.499997,90.90000125732422,0.400003,90.90000125732422,0.300003C90.90000125732422,0.200003,90.90000125732422,0.1,90.90000125732422,0C68.90000125732422,7.1,35.70000025732422,28,35.90000066132422,38C36.20000025732422,46.9,63.500001257324215,52.2,82.10000125732421,63.7C90.50000125732421,68.9,97.50000125732421,76.3,97.50000125732421,76.3C96.00000125732421,62.4,92.60000125732421,52.6,91.70000125732422,47C88.40000125732422,24.1,93.00000125732421,22.6,93.00000125732421,22.6Z" fill="#AD7E5A" fill-opacity="1"/></g><g><path d="M191.7,12.300003051757812C189.6,15.000003051757812,187.1,17.69999305175781,184,20.39999305175781C180.9,23.100003051757813,177.4,25.400003051757814,173.5,27.20000305175781C173.8,27.70000305175781,179.99999,37.000003051757815,183.29999,45.20000305175781C186.6,53.500003051757815,193.3,79.50000305175782,193.3,79.50000305175782C199.5,55.60000305175781,238.4,56.20000305175781,236.6,46.10000305175781C235,36.80000305175781,202.9,18.20000305175781,191.7,12.300003051757812Z" fill="#AD7E5A" fill-opacity="1"/></g><g><path d="M168.9,82.40001220703125Q168.9,82.68721220703125,168.8859,82.97411220703125Q168.8718,83.26101220703126,168.8437,83.54681220703125Q168.8155,83.83261220703125,168.7734,84.11681220703124Q168.7312,84.40091220703125,168.6752,84.68261220703126Q168.6191,84.96431220703126,168.5494,85.24291220703125Q168.4796,85.52151220703125,168.3962,85.79631220703125Q168.3128,86.07121220703125,168.2161,86.34161220703125Q168.1193,86.61201220703126,168.0094,86.87741220703126Q167.8995,87.14281220703126,167.7767,87.40241220703125Q167.6539,87.66201220703125,167.5185,87.91531220703125Q167.3831,88.16871220703125,167.2354,88.41501220703125Q167.08780000000002,88.66141220703125,166.9282,88.90021220703125Q166.7686,89.13901220703124,166.5975,89.36971220703126Q166.4264,89.60041220703125,166.2442,89.82241220703125Q166.062,90.04441220703126,165.8691,90.25721220703124Q165.6762,90.47011220703125,165.4731,90.67321220703124Q165.27,90.87631220703125,165.0572,91.06911220703125Q164.8444,91.26201220703125,164.6224,91.44421220703126Q164.4004,91.62641220703125,164.1697,91.79751220703125Q163.939,91.96861220703124,163.7002,92.12821220703125Q163.4614,92.28781220703125,163.215,92.43541220703125Q162.9686,92.58311220703125,162.7153,92.71851220703125Q162.462,92.85391220703124,162.2024,92.97671220703126Q161.9427,93.09951220703125,161.6774,93.20941220703125Q161.412,93.31931220703125,161.1416,93.41611220703125Q160.8712,93.51281220703125,160.59629999999999,93.59621220703124Q160.32150000000001,93.67961220703125,160.0429,93.74941220703124Q159.7643,93.81921220703126,159.4826,93.87521220703125Q159.2009,93.93121220703125,158.9167,93.97341220703125Q158.6326,94.01551220703125,158.3468,94.04371220703125Q158.061,94.07181220703126,157.7741,94.08591220703124Q157.4872,94.10001220703126,157.2,94.10001220703126Q156.9128,94.10001220703126,156.6259,94.08591220703124Q156.339,94.07181220703126,156.0532,94.04371220703125Q155.7674,94.01551220703125,155.48325,93.97341220703125Q155.19914,93.93121220703125,154.91744,93.87521220703125Q154.63574,93.81921220703126,154.35713,93.74941220703124Q154.07852,93.67961220703125,153.80367,93.59621220703124Q153.52882,93.51281220703125,153.25839,93.41611220703125Q152.98796,93.31931220703125,152.7226,93.20941220703125Q152.45725,93.09951220703125,152.1976,92.97671220703126Q151.93796,92.85391220703124,151.68466,92.71851220703125Q151.43135,92.58311220703125,151.185,92.43541220703125Q150.93864,92.28781220703125,150.69983,92.12821220703125Q150.46101,91.96861220703124,150.23032,91.79751220703125Q149.99962,91.62641220703125,149.7776,91.44421220703126Q149.55557,91.26201220703125,149.34276,91.06911220703125Q149.12994,90.87631220703125,148.92685,90.67321220703124Q148.72376,90.47011220703125,148.53087,90.25721220703124Q148.33799,90.04441220703126,148.15578,89.82241220703125Q147.97357,89.60041220703125,147.80247,89.36971220703126Q147.63138,89.13901220703124,147.4718,88.90021220703125Q147.31223,88.66141220703125,147.16457,88.41501220703125Q147.01691,88.16871220703125,146.88152,87.91531220703125Q146.74613,87.66201220703125,146.62332,87.40241220703125Q146.50052,87.14281220703126,146.390609,86.87741220703126Q146.280695,86.61201220703126,146.183934,86.34161220703125Q146.087173,86.07121220703125,146.003798,85.79631220703125Q145.920423,85.52151220703125,145.850634,85.24291220703125Q145.780846,84.96431220703126,145.724812,84.68261220703126Q145.668779,84.40091220703125,145.626635,84.11681220703124Q145.584491,83.83261220703125,145.5563387,83.54681220703125Q145.5281863,83.26101220703126,145.5140932,82.97411220703125Q145.5,82.68721220703125,145.5,82.40001220703125Q145.5,82.11281220703125,145.5140932,81.82591220703125Q145.5281863,81.53901220703125,145.5563387,81.25321220703125Q145.584491,80.96741220703124,145.626635,80.68327220703125Q145.668779,80.39916220703125,145.724812,80.11746220703125Q145.780846,79.83576220703125,145.850634,79.55714220703125Q145.920423,79.27853220703125,146.003798,79.00368220703125Q146.087173,78.72883220703125,146.183934,78.45840220703126Q146.280695,78.18797220703125,146.390609,77.92262220703125Q146.50052,77.65726220703125,146.62332,77.39762220703125Q146.74613,77.13797220703125,146.88152,76.88467220703124Q147.01691,76.63136220703124,147.16457,76.38501220703125Q147.31223,76.13865220703126,147.4718,75.89984220703126Q147.63138,75.66103220703125,147.80247,75.43033220703126Q147.97357,75.19963220703124,148.15578,74.97761220703126Q148.33799,74.75559220703126,148.53087,74.54277220703125Q148.72376,74.32996220703124,148.92685,74.12686220703125Q149.12994,73.92377220703125,149.34276,73.73088220703124Q149.55557,73.53800220703125,149.7776,73.35579220703124Q149.99962,73.17358220703125,150.23032,73.00248220703125Q150.46101,72.83139220703126,150.69983,72.67182220703125Q150.93864,72.51225220703125,151.185,72.36459220703125Q151.43135,72.21693220703125,151.68466,72.08153220703124Q151.93796,71.94614220703124,152.1976,71.82334220703125Q152.45725,71.70053220703124,152.7226,71.59062220703125Q152.98796,71.48070820703126,153.25839,71.38394720703126Q153.52882,71.28718620703125,153.80367,71.20381020703125Q154.07852,71.12043520703125,154.35713,71.05064620703125Q154.63574,70.98085820703125,154.91744,70.92482420703125Q155.19914,70.86879120703125,155.48325,70.82664720703124Q155.7674,70.78450330703124,156.0532,70.75635090703125Q156.339,70.72819850703125,156.6259,70.71410540703125Q156.9128,70.70001220703125,157.2,70.70001220703125Q157.4872,70.70001220703125,157.7741,70.71410540703125Q158.061,70.72819850703125,158.3468,70.75635090703125Q158.6326,70.78450330703124,158.9167,70.82664720703124Q159.2009,70.86879120703125,159.4826,70.92482420703125Q159.7643,70.98085820703125,160.0429,71.05064620703125Q160.32150000000001,71.12043520703125,160.59629999999999,71.20381020703125Q160.8712,71.28718620703125,161.1416,71.38394720703126Q161.412,71.48070820703126,161.6774,71.59062220703125Q161.9427,71.70053220703124,162.2024,71.82334220703125Q162.462,71.94614220703124,162.7153,72.08153220703124Q162.9686,72.21693220703125,163.215,72.36459220703125Q163.4614,72.51225220703125,163.7002,72.67182220703125Q163.939,72.83139220703126,164.1697,73.00248220703125Q164.4004,73.17358220703125,164.6224,73.35579220703124Q164.8444,73.53800220703125,165.0572,73.73088220703124Q165.27,73.92377220703125,165.4731,74.12686220703125Q165.6762,74.32996220703124,165.8691,74.54277220703125Q166.062,74.75559220703126,166.2442,74.97761220703126Q166.4264,75.19963220703124,166.5975,75.43033220703126Q166.7686,75.66103220703125,166.9282,75.89984220703126Q167.08780000000002,76.13865220703126,167.2354,76.38501220703125Q167.3831,76.63136220703124,167.5185,76.88467220703124Q167.6539,77.13797220703125,167.7767,77.39762220703125Q167.8995,77.65726220703125,168.0094,77.92262220703125Q168.1193,78.18797220703125,168.2161,78.45840220703126Q168.3128,78.72883220703125,168.3962,79.00368220703125Q168.4796,79.27853220703125,168.5494,79.55714220703125Q168.6191,79.83576220703125,168.6752,80.11746220703125Q168.7312,80.39916220703125,168.7734,80.68327220703125Q168.8155,80.96741220703124,168.8437,81.25321220703125Q168.8718,81.53901220703125,168.8859,81.82591220703125Q168.9,82.11281220703125,168.9,82.40001220703125Z" fill="#FFFF8D" fill-opacity="1"/></g><g><path d="M163.1999969482422,82.39999389648438Q163.1999969482422,82.54728389648437,163.19279694824218,82.69440389648437Q163.1854969482422,82.84151389648437,163.1710969482422,82.98809389648437Q163.1566969482422,83.13468389648438,163.1350969482422,83.28037389648438Q163.11339694824218,83.42607389648438,163.0846969482422,83.57053389648438Q163.05599694824218,83.71499389648437,163.0201969482422,83.85787389648438Q162.9843969482422,84.00075389648437,162.9415969482422,84.14170389648437Q162.8988969482422,84.28265389648438,162.8492969482422,84.42133389648437Q162.7995969482422,84.56001389648438,162.74329694824218,84.69609389648437Q162.68689694824218,84.83217389648438,162.6238969482422,84.96532389648438Q162.56099694824218,85.09847389648438,162.49149694824217,85.22837389648437Q162.4220969482422,85.35827389648438,162.3463969482422,85.48461389648438Q162.2705969482422,85.61094389648437,162.18879694824219,85.73341389648438Q162.1069969482422,85.85588389648437,162.01919694824218,85.97419389648438Q161.9314969482422,86.09249389648437,161.8380969482422,86.20635389648437Q161.7445969482422,86.32021389648438,161.64569694824218,86.42939389648437Q161.5467969482422,86.53849389648437,161.4425969482422,86.64259389648437Q161.33849694824218,86.74679389648438,161.2293969482422,86.84569389648438Q161.1202169482422,86.94459389648438,161.0063569482422,87.03809389648437Q160.89249694824218,87.13149389648437,160.77418694824217,87.21919389648437Q160.6558869482422,87.30699389648437,160.53341694824218,87.38879389648437Q160.41094694824218,87.47059389648437,160.2846169482422,87.54639389648437Q160.1582769482422,87.62209389648437,160.0283769482422,87.69149389648437Q159.89847694824218,87.76099389648438,159.76532694824218,87.82389389648438Q159.63217694824218,87.88689389648438,159.49609694824218,87.94329389648438Q159.3600169482422,87.99959389648437,159.2213369482422,88.04929389648437Q159.08265694824217,88.09889389648437,158.9417069482422,88.14159389648438Q158.8007569482422,88.18439389648438,158.65787694824218,88.22019389648437Q158.51499694824219,88.25599389648437,158.37053694824218,88.28469389648437Q158.2260769482422,88.31339389648437,158.0803769482422,88.33509389648438Q157.9346869482422,88.35669389648437,157.78809694824218,88.37109389648438Q157.64151694824218,88.38549389648438,157.4944069482422,88.39279389648438Q157.34728694824219,88.39999389648438,157.1999969482422,88.39999389648438Q157.0527069482422,88.39999389648438,156.9055869482422,88.39279389648438Q156.7584769482422,88.38549389648438,156.6118969482422,88.37109389648438Q156.4653069482422,88.35669389648437,156.31961694824219,88.33509389648438Q156.17391694824218,88.31339389648437,156.0294569482422,88.28469389648437Q155.8849969482422,88.25599389648437,155.7421169482422,88.22019389648437Q155.59923694824218,88.18439389648438,155.45828694824218,88.14159389648438Q155.3173369482422,88.09889389648437,155.17865694824218,88.04929389648437Q155.03997694824218,87.99959389648437,154.9038969482422,87.94329389648438Q154.7678169482422,87.88689389648438,154.6346669482422,87.82389389648438Q154.5015169482422,87.76099389648438,154.37161694824218,87.69149389648437Q154.24171694824219,87.62209389648437,154.1153769482422,87.54639389648437Q153.9890469482422,87.47059389648437,153.8665769482422,87.38879389648437Q153.74410694824218,87.30699389648437,153.6257969482422,87.21919389648437Q153.5074969482422,87.13149389648437,153.39363694824218,87.03809389648437Q153.2797769482422,86.94459389648438,153.1706469482422,86.84569389648438Q153.0615069482422,86.74679389648438,152.9573569482422,86.64259389648437Q152.8532069482422,86.53849389648437,152.7542869482422,86.42939389648437Q152.65537694824218,86.32021389648438,152.5619369482422,86.20635389648437Q152.46849694824218,86.09249389648437,152.38074694824218,85.97418389648438Q152.29300694824218,85.85588389648437,152.21117694824218,85.73341389648438Q152.12934794824218,85.61094389648437,152.05362494824217,85.48461389648438Q151.9779019482422,85.35827389648438,151.9084689482422,85.22837389648437Q151.83903694824218,85.09847389648438,151.7760609482422,84.96532389648438Q151.7130859482422,84.83217389648438,151.6567199482422,84.69609389648437Q151.6003539482422,84.56001389648438,151.5507329482422,84.42133389648437Q151.5011109482422,84.28265389648438,151.45835494824217,84.14170389648437Q151.41559794824218,84.00075389648437,151.3798089482422,83.85787389648438Q151.3440199482422,83.71499389648437,151.31528494824218,83.57053389648438Q151.2865500482422,83.42607389648438,151.2649378482422,83.28037389648438Q151.2433257482422,83.13468389648438,151.2288885482422,82.98809389648437Q151.2144514482422,82.84151389648437,151.2072242082422,82.69440389648437Q151.1999969482422,82.54728389648437,151.1999969482422,82.39999389648438Q151.1999969482422,82.25270389648438,151.2072242082422,82.10558389648438Q151.2144514482422,81.95847389648438,151.2288885482422,81.81189389648438Q151.2433257482422,81.66530389648437,151.2649378482422,81.51961389648437Q151.2865500482422,81.37391389648437,151.31528494824218,81.22945389648437Q151.3440199482422,81.08499389648438,151.3798089482422,80.94211389648437Q151.41559794824218,80.79923389648438,151.45835494824217,80.65828389648438Q151.5011109482422,80.51733389648437,151.5507329482422,80.37865389648438Q151.6003539482422,80.23997389648437,151.6567199482422,80.10389389648438Q151.7130859482422,79.96781389648437,151.7760609482422,79.83466389648437Q151.83903694824218,79.70151389648437,151.9084689482422,79.57161389648438Q151.9779019482422,79.44171389648437,152.05362494824217,79.31537389648437Q152.12934794824218,79.18904389648438,152.21117694824218,79.06657389648437Q152.29300694824218,78.94410389648438,152.38074694824218,78.82579389648437Q152.46849694824218,78.70749389648438,152.5619369482422,78.59363389648438Q152.65537694824218,78.47977389648437,152.7542869482422,78.37064389648438Q152.8532069482422,78.26150389648437,152.9573569482422,78.15735389648438Q153.0615069482422,78.05320389648438,153.1706469482422,77.95428389648437Q153.2797769482422,77.85537389648438,153.39363694824218,77.76193389648438Q153.5074969482422,77.66849389648438,153.6257969482422,77.58074389648438Q153.74410694824218,77.49300389648438,153.8665769482422,77.41117389648437Q153.9890469482422,77.32934489648437,154.1153769482422,77.25362189648438Q154.24171694824219,77.17789889648438,154.37161694824218,77.10846589648438Q154.5015169482422,77.03903389648437,154.6346669482422,76.97605789648438Q154.7678169482422,76.91308289648437,154.9038969482422,76.85671689648437Q155.03997694824218,76.80035089648437,155.17865694824218,76.75072989648437Q155.3173369482422,76.70110789648437,155.45828694824218,76.65835189648438Q155.59923694824218,76.61559489648438,155.7421169482422,76.57980589648437Q155.8849969482422,76.54401689648438,156.0294569482422,76.51528189648438Q156.17391694824218,76.48654699648438,156.31961694824219,76.46493479648437Q156.4653169482422,76.44332269648437,156.6118969482422,76.42888549648437Q156.7584769482422,76.41444839648437,156.9055869482422,76.40722115648437Q157.0527069482422,76.39999389648438,157.1999969482422,76.39999389648438Q157.34728694824219,76.39999389648438,157.4944069482422,76.40722115648437Q157.64151694824218,76.41444839648437,157.78809694824218,76.42888549648437Q157.9346869482422,76.44332269648437,158.0803769482422,76.46493479648437Q158.2260769482422,76.48654699648438,158.37053694824218,76.51528189648438Q158.51499694824219,76.54401689648438,158.65787694824218,76.57980589648437Q158.8007569482422,76.61559489648438,158.9417069482422,76.65835189648438Q159.08265694824217,76.70110789648437,159.2213369482422,76.75072989648437Q159.3600169482422,76.80035089648437,159.49609694824218,76.85671689648437Q159.63217694824218,76.91308289648437,159.76532694824218,76.97605789648438Q159.89847694824218,77.03903389648437,160.0283769482422,77.10846589648438Q160.1582769482422,77.17789889648438,160.2846169482422,77.25362189648438Q160.41094694824218,77.32934489648437,160.53341694824218,77.41117389648437Q160.6558869482422,77.49300389648438,160.77419694824218,77.58074389648438Q160.89249694824218,77.66849389648438,161.0063569482422,77.76193389648438Q161.1202169482422,77.85537389648438,161.2293969482422,77.95428389648437Q161.33849694824218,78.05320389648438,161.4425969482422,78.15735389648438Q161.5467969482422,78.26150389648437,161.64569694824218,78.37064389648438Q161.7445969482422,78.47977389648437,161.8380969482422,78.59363389648438Q161.9314969482422,78.70749389648438,162.01919694824218,78.82579389648437Q162.1069969482422,78.94410389648438,162.18879694824219,79.06657389648437Q162.2705969482422,79.18904389648438,162.3463969482422,79.31537389648437Q162.4220969482422,79.44171389648437,162.49149694824217,79.57161389648438Q162.56099694824218,79.70151389648437,162.6238969482422,79.83466389648437Q162.68689694824218,79.96781389648437,162.74329694824218,80.10389389648438Q162.7995969482422,80.23997389648437,162.8492969482422,80.37865389648438Q162.8988969482422,80.51733389648437,162.9415969482422,80.65828389648438Q162.9843969482422,80.79923389648438,163.0201969482422,80.94211389648437Q163.05599694824218,81.08499389648438,163.0846969482422,81.22945389648437Q163.11339694824218,81.37391389648437,163.1350969482422,81.51961389648437Q163.1566969482422,81.66531389648438,163.1710969482422,81.81189389648438Q163.1854969482422,81.95847389648438,163.19279694824218,82.10558389648438Q163.1999969482422,82.25270389648438,163.1999969482422,82.39999389648438Z" fill="#FFBE71" fill-opacity="1"/></g><g><path d="M214.41528779296874,60.741363051757816Q214.53178779296874,60.707803051757814,214.64138779296874,60.65597305175781Q214.75098779296874,60.60413305175781,214.85078779296876,60.535373051757816Q214.95058779296875,60.466623051757814,215.03808779296875,60.382723051757814Q215.12558779296876,60.29882105175781,215.19848779296876,60.20195905175781Q215.27138779296874,60.105098051757814,215.32778779296876,59.997788051757816Q215.38418779296876,59.89047805175781,215.42268779296876,59.77550505175781Q215.46108779296875,59.66053205175781,215.48048779296874,59.54088005175781Q215.49998779296874,59.421228051757815,215.49998779296874,59.30000305175781Q215.49998779296874,59.22631275175781,215.49278779296876,59.152977051757816Q215.48558779296874,59.079642051757816,215.47118779296875,59.007368051757815Q215.45678779296875,58.93509305175781,215.43538779296875,58.864576051757815Q215.41398779296875,58.79405905175781,215.38578779296876,58.725978051757814Q215.35758779296876,58.657897051757814,215.32288779296874,58.59290805175781Q215.28818779296876,58.52791905175781,215.24718779296876,58.466648051757815Q215.20628779296874,58.40537605175781,215.15948779296875,58.34841305175781Q215.11278779296876,58.29145305175781,215.06068779296874,58.239343051757814Q215.00858779296874,58.187233051757815,214.95158779296875,58.14048305175781Q214.89458779296876,58.09374305175781,214.83338779296875,58.05280305175781Q214.77208779296876,58.011863051757814,214.70708779296876,57.977123051757815Q214.64208779296874,57.942383051757815,214.57398779296875,57.91418305175781Q214.50598779296874,57.88598305175781,214.43538779296875,57.864593051757815Q214.36488779296874,57.84320305175781,214.29258779296876,57.828823051757816Q214.22038779296875,57.81445305175781,214.14698779296876,57.80722305175781Q214.07368779296874,57.80000305175781,213.99998779296874,57.80000305175781Q213.78818779296876,57.80000305175781,213.58468779296874,57.85864305175781Q205.32158779296876,60.23953805175781,199.87245779296876,65.50722305175782Q192.77969879296876,72.1765030517578,191.81189779296875,79.81140305175781Q191.79998779296875,79.90530305175781,191.79998779296875,80.00000305175782Q191.79998779296875,80.07370305175782,191.80720779296874,80.14700305175782Q191.81443779296876,80.22040305175781,191.82880779296875,80.29260305175781Q191.84318779296876,80.3649030517578,191.86457779296876,80.43540305175782Q191.88596779296876,80.50590305175781,191.91416779296875,80.57400305175781Q191.94236779296875,80.64210305175781,191.97710779296875,80.70710305175781Q192.01184779296875,80.77210305175781,192.05278779296876,80.83340305175781Q192.09372779296876,80.89460305175781,192.14046779296876,80.95160305175781Q192.18721779296874,81.00860305175782,192.23932779296874,81.06070305175781Q192.29143779296874,81.11280305175781,192.34839779296874,81.15950305175781Q192.40536079296874,81.20630305175781,192.46663279296874,81.24720305175781Q192.52790379296874,81.28810305175782,192.59289279296874,81.3229030517578Q192.65788179296874,81.35760305175782,192.72596279296874,81.38580305175782Q192.79404379296875,81.41400305175782,192.86456079296875,81.43540305175782Q192.93507779296874,81.45680305175782,193.00735279296876,81.47120305175781Q193.07962679296875,81.4856030517578,193.15296179296874,81.49280305175782Q193.22629749296874,81.50000305175782,193.29998779296875,81.50000305175782Q193.43579879296874,81.50000305175782,193.56940079296874,81.47560305175782Q193.70300279296876,81.45120305175782,193.83005079296876,81.40320305175781Q193.95709879296874,81.35520305175781,194.07346179296874,81.2852030517578Q194.18982379296875,81.21520305175781,194.29171579296874,81.12540305175781Q194.39360779296874,81.03560305175782,194.47771779296875,80.92900305175782Q194.56182779296876,80.82230305175781,194.62540779296876,80.70230305175781Q194.68899779296876,80.5823030517578,194.72999779296876,80.45280305175781Q194.77099779296876,80.32340305175781,194.78807779296875,80.18860305175781Q195.62028779296875,73.62350305175781,201.92752779296876,67.69278305175781Q206.86888779296874,62.916323051757814,214.41268779296874,60.74210305175781L214.41528779296874,60.741363051757816L214.41528779296874,60.741363051757816Z" fill-rule="evenodd" fill="#894B33" fill-opacity="1"/></g><g><path d="M67.2952425258789,54.55301Q77.64930152587891,57.37697,86.78810152587891,64.09118Q94.4683015258789,69.7233,98.7026015258789,75.40350000000001Q98.84740152587891,75.5977,98.9237015258789,75.8277Q99.0000015258789,76.0577,99.0000015258789,76.3Q99.0000015258789,76.3737,98.9928015258789,76.447Q98.9856015258789,76.52029999999999,98.97120152587891,76.5926Q98.95680152587892,76.6649,98.93540152587892,76.7354Q98.91400152587892,76.80590000000001,98.8858015258789,76.874Q98.8576015258789,76.9421,98.8229015258789,77.00710000000001Q98.78810152587891,77.0721,98.7472015258789,77.13329999999999Q98.7063015258789,77.19460000000001,98.65950152587891,77.2516Q98.61280152587891,77.3085,98.5607015258789,77.3606Q98.5085015258789,77.4128,98.45160152587891,77.45949999999999Q98.3946015258789,77.5062,98.33330152587891,77.5472Q98.27210152587891,77.5881,98.2071015258789,77.6229Q98.1421015258789,77.6576,98.07400152587891,77.6858Q98.0059015258789,77.714,97.9354015258789,77.7354Q97.8649015258789,77.7568,97.79260152587891,77.7712Q97.72040152587891,77.7855,97.6470015258789,77.7928Q97.5737015258789,77.8,97.5000015258789,77.8Q97.32480152587891,77.8,97.1543015258789,77.7596Q96.9838015258789,77.7192,96.8272015258789,77.6406Q96.67060152587891,77.5621,96.5364015258789,77.4495Q96.4021015258789,77.337,96.29740152587891,77.1965Q92.33170152587891,71.8767,85.0119015258789,66.50880000000001Q76.3220115258789,60.12442,66.5053255258789,57.44715Q66.38707152587891,57.41489,66.2756225258789,57.36387Q66.16417352587891,57.31285,66.06248552587891,57.24441Q65.9607985258789,57.17598,65.8715715258789,57.09194Q65.7823415258789,57.0079,65.70794152587891,56.910491Q65.63354152587891,56.813081,65.5759415258789,56.704885Q65.51834152587891,56.59669,65.47907152587891,56.480578Q65.4398015258789,56.364466,65.41990152587891,56.243519Q65.4000015258789,56.122573,65.4000015258789,56Q65.4000015258789,55.9263097,65.40722152587891,55.852974Q65.4144515258789,55.779639,65.4288215258789,55.707365Q65.4432015258789,55.63509,65.4645915258789,55.564573Q65.48598152587891,55.494056,65.51418152587891,55.425975Q65.54238152587891,55.357894,65.57712152587891,55.292905Q65.61186152587891,55.227916,65.6528015258789,55.166645Q65.6937415258789,55.105373,65.7404815258789,55.04841Q65.78723152587891,54.99145,65.83934152587891,54.93934Q65.8914515258789,54.88723,65.94841152587891,54.84048Q66.0053745258789,54.79374,66.06664652587891,54.7528Q66.1279175258789,54.71186,66.19290652587891,54.67712Q66.25789552587891,54.64238,66.3259765258789,54.61418Q66.3940575258789,54.58598,66.4645745258789,54.56459Q66.53509152587891,54.5432,66.6073665258789,54.52882Q66.67964052587891,54.51445,66.75297552587891,54.50722Q66.82631122587891,54.5,66.9000015258789,54.5Q67.10090652587891,54.5,67.2947295258789,54.55287L67.2952425258789,54.55301Z" fill-rule="evenodd" fill="#894B33" fill-opacity="1"/></g></g></g></svg>