<svg xmlns="http://www.w3.org/2000/svg" xmlns:xlink="http://www.w3.org/1999/xlink" fill="none" version="1.1" width="296" height="190" viewBox="0 0 296 190"><g><g><g><path d="M175.204,27.401153564453125C174.304,27.201153564453126,173.404,27.001143564453123,172.504,26.801143564453124C170.704,27.301143564453124,169.004,27.801153564453124,167.204,28.201153564453126C167.204,28.201153564453126,168.004,31.501153564453126,168.004,31.501153564453126C168.404,33.001153564453126,169.204,34.501153564453126,170.404,35.501153564453126C172.504,39.001153564453126,176.604,49.801153564453124,175.304,56.401153564453125C173.204,66.70115356445312,159.604,72.90115356445312,136.704,63.60115356445313C110.104,52.801153564453124,99.0036,23.401153564453125,97.9036,20.401153564453125C94.5036,21.301153564453124,90.4036,22.801153564453124,85.7036,24.101153564453124C67.5036,29.401153564453125,37.8036,35.10115356445313,21.5036,56.60115356445313C-0.796415,85.90115356445312,0.00358537,148.90115356445312,0.00358537,148.90115356445312C0.00358537,148.90115356445312,260.204,148.90115356445312,260.204,148.90115356445312C260.204,148.90115356445312,263.404,71.60115356445313,237.304,50.001153564453126C214.904,31.101153564453124,188.104,30.501153564453126,175.204,27.401153564453125Z" fill="#444444" fill-opacity="1"/></g><g><path d="M174.30356943359374,26.3011C173.80356943359374,26.5011,173.20356943359377,26.6011,172.70356943359377,26.8011C171.00356943359375,27.3011,129.50356943359375,34.5011,97.00356943359375,9.101148C97.00356943359375,9.101148,97.00356943359375,9.00115756,97.00356943359375,9.00115756C95.20356943359374,8.9011576,89.50357943359376,15.30115,87.00357943359376,20.101100000000002C84.10358343359376,25.6011,82.40357943359375,37.0011,91.60357943359375,49.3011C114.00356943359375,79.2011,157.20356943359377,82.2012,163.60356943359375,81.0012C168.20356943359377,79.6012,185.70366943359375,68.30109999999999,186.40366943359373,50.1011C186.90366943359373,37.2011,180.00356943359375,29.5011,174.30356943359374,26.3011Z" fill="#FFFFFF" fill-opacity="1"/></g><g><path d="M149.20356088867186,94.00112211914063C138.90356088867188,93.60112211914063,138.90356088867188,82.20112211914062,138.90356088867188,82.20112211914062C137.80356088867188,85.60112211914063,132.70356088867186,94.70112211914062,125.40356088867188,90.80112211914063C118.10356088867186,86.90112211914062,120.50356088867187,76.20112211914062,120.50356088867187,76.20112211914062C120.50356088867187,76.20112211914062,114.70356088867187,86.50112211914063,107.20356088867187,82.60112211914063C99.70356088867187,78.70112211914062,104.20356088867187,68.20112211914062,104.20356088867187,68.20112211914062C104.20356088867187,68.20112211914062,95.90356088867188,75.10112211914063,88.80356088867188,68.20112211914062C81.70356088867187,61.30112211914062,90.10356088867188,52.101122119140626,90.10356088867188,52.101122119140626C90.10356088867188,52.101122119140626,80.50356088867187,56.20112211914063,77.50358088867188,49.101122119140626C74.50358088867188,42.001122119140625,82.90356088867188,37.501122119140625,82.90356088867188,37.501122119140625C77.70358088867188,39.501122119140625,66.60358088867187,36.901122119140624,71.50358088867188,29.401152119140626C76.40358088867187,21.901151119140625,87.00356088867187,22.701153719140624,87.00356088867187,22.701153719140624C87.00356088867187,22.701153719140624,158.40356088867188,74.90112211914062,158.40356088867188,74.90112211914062C158.40356088867188,74.90112211914062,159.50356088867187,94.40112211914062,149.20356088867186,94.00112211914063Z" fill="#FFFFFF" fill-opacity="1"/></g><g><path d="M175.20358581542968,27.40114820078125C188.10358581542968,26.80114780078125,197.3035858154297,32.00114080078125,197.0035858154297,37.601120800781246C196.70358581542968,43.201120800781254,189.8035858154297,43.701120800781254,189.8035858154297,43.701120800781254C189.8035858154297,43.701120800781254,197.8035858154297,44.601120800781246,198.3035858154297,51.701120800781254C198.8035858154297,58.80112080078125,189.5035858154297,58.30112080078125,189.5035858154297,58.30112080078125C192.70358581542968,59.50112080078125,197.9035858154297,68.40112080078126,192.10358581542968,72.10112080078125C186.4035858154297,75.80112080078125,180.9035858154297,72.10112080078125,180.9035858154297,72.10112080078125C183.8035858154297,78.30112080078125,182.20358581542968,85.60112080078125,175.70358581542968,85.90112080078126C169.20358581542968,86.30112080078125,166.0035858154297,78.70112080078124,166.0035858154297,78.70112080078124C166.0035858154297,78.70112080078124,171.20358581542968,69.50112080078125,175.3035858154297,56.50112080078125C179.60358581542968,43.30112080078125,175.20358581542968,27.40114820078125,175.20358581542968,27.40114820078125Z" fill="#FFFFFF" fill-opacity="1"/></g><g><path d="M80.40357512695313,15.901150512695313C86.40357512695313,12.101153612135313,93.50355512695313,12.101150512695312,93.50355512695313,12.101150512695312C93.50355512695313,12.101150512695312,100.00355512695313,23.401150512695313,89.10355512695313,26.701150512695314C78.20358512695313,30.00115051269531,72.80357512695312,20.601150512695312,80.40357512695313,15.901150512695313Z" fill="#FFFFFF" fill-opacity="1"/></g><g><path d="M182.2035778955078,22.40114658984375C183.4036178955078,21.70114658984375,189.4036178955078,23.40113958984375,191.0036178955078,26.30113958984375C192.60361789550782,29.40113958984375,185.20361789550782,30.60113958984375,185.20361789550782,30.60113958984375C183.10361789550782,32.101139589843754,166.6035778955078,28.60113958984375,174.3035778955078,26.10113958984375C177.2035778955078,25.20113958984375,180.00357789550782,23.70114958984375,182.2035778955078,22.40114658984375Z" fill="#FFFFFF" fill-opacity="1"/></g><g><path d="M163.9910224609375,74.45205356445312L163.9900724609375,74.45180356445313Q163.8001424609375,74.40115356445312,163.6035724609375,74.40115356445312Q163.2782224609375,74.40115356445312,162.9821024609375,74.53595356445312L161.6955024609375,69.18771356445312L161.9037524609375,82.72421356445312Q162.0022324609375,89.12525356445312,161.3137224609375,95.01445356445312Q160.7291224609375,100.01495356445312,159.6801424609375,102.27825356445312Q159.2097924609375,103.29305356445312,158.7969224609375,103.51165356445313Q158.6254224609375,103.60255356445313,158.2127224609375,103.33815356445312Q155.0896925609375,101.33745356445313,157.5685324609375,89.78605356445313Q158.8944924609375,83.60713356445312,161.0082724609375,77.92728356445312Q161.0087924609375,77.92589356445312,161.0093124609375,77.92450356445312L161.0093524609375,77.92439356445313Q161.1035724609375,77.67125356445312,161.1035724609375,77.40115356445312Q161.1035724609375,77.32746356445313,161.0963524609375,77.25412356445312Q161.0891324609375,77.18079356445313,161.0747524609375,77.10851356445312Q161.0603724609375,77.03624356445313,161.0389824609375,76.96572356445313Q161.0175924609375,76.89520956445313,160.9893924609375,76.82712856445312Q160.9611924609375,76.75904756445313,160.9264524609375,76.69405856445313Q160.8917224609375,76.62906956445312,160.8507824609375,76.56779856445313Q160.8098424609375,76.50652656445313,160.76309246093751,76.44956356445313Q160.7163424609375,76.39260056445312,160.6642324609375,76.34049356445313Q160.6121324609375,76.28838656445312,160.5551624609375,76.24163756445313Q160.4982024609375,76.19488956445312,160.4369324609375,76.15394956445313Q160.3756624609375,76.11300856445312,160.3106724609375,76.07827156445312Q160.2456824609375,76.04353456445313,160.1776024609375,76.01533456445313Q160.1095224609375,75.98713416445312,160.0390024609375,75.96574306445312Q159.9684824609375,75.94435186445313,159.8962124609375,75.92997566445312Q159.8239324609375,75.91559936445313,159.7506024609375,75.90837647445312Q159.6772624609375,75.90115356445312,159.6035724609375,75.90115356445312Q159.4895024609375,75.90115356445312,159.3767524609375,75.91840286445313Q159.2639924609375,75.93565206445312,159.1551424609375,75.96975386445312Q159.0462824609375,76.00385556445312,158.9438424609375,76.05402556445313Q158.8414024609375,76.10419556445312,158.7477224609375,76.16927956445312Q158.6540424609375,76.23436456445313,158.5712824609375,76.31286656445313Q158.4885224609375,76.39136856445313,158.4185824609375,76.48148156445312Q158.3486424609375,76.57159556445312,158.2931424609375,76.67124956445312Q158.2376324609375,76.77090256445312,158.1978324609375,76.87780356445313L158.1977824609375,76.87793256445312Q156.0073024609375,82.76319356445313,154.6353124609375,89.15665356445312Q151.7200724609375,102.74155356445313,156.5944424609375,105.86425356445312Q158.4817324609375,107.07325356445313,160.2008624609375,106.16285356445313Q161.5067424609375,105.47135356445312,162.4020124609375,103.53975356445312Q163.6530324609375,100.84055356445313,164.2934324609375,95.36285356445313Q164.5192324609375,93.43145356445312,164.6631524609375,91.44835356445313Q165.1156224609375,92.55045356445312,165.6152224609375,93.63925356445313Q170.7497224609375,104.82905356445312,177.1297224609375,103.03935356445312Q181.3620224609375,101.78535356445312,179.7241224609375,96.20675356445312Q178.6637224609375,92.59515356445313,174.9969224609375,87.16205356445312Q166.9535224609375,75.24408156445313,163.9912924609375,74.45213356445312L163.9910224609375,74.45205356445312ZM163.7915424609375,77.90068356445312Q164.5507324609375,78.71394356445313,166.2861224609375,80.72734356445312Q169.7366224609375,84.73060356445312,172.51022246093748,88.84025356445312Q175.9164224609375,93.88735356445312,176.8456224609375,97.05185356445313Q177.6404224609375,99.75915356445313,176.2774224609375,100.16295356445312Q172.4074224609375,101.24825356445312,168.3419224609375,92.38805356445312Q166.1028224609375,87.50835356445313,164.8619724609375,82.35029356445312L163.7915424609375,77.90068356445312Z" fill-rule="evenodd" fill="#FFFFFF" fill-opacity="1"/></g><g><path d="M5.003588931121826,98.50120532226562C62.00359893112183,93.90120532226562,55.40359893112183,33.30115532226562,55.40359893112183,33.30115532226562C55.40359893112183,33.30115532226562,29.303598931121826,23.701155322265624,13.203598931121826,45.101105322265624C-4.196411068878174,68.10110532226562,5.003588931121826,98.50120532226562,5.003588931121826,98.50120532226562Z" fill="#D8D8D8" fill-opacity="1"/></g><g><path d="M3.0035853385925293,71.10111467285157C4.003585338592529,62.601114672851566,6.90358533859253,53.40111467285156,13.103585338592529,45.101114672851566C24.70358533859253,29.801144672851564,41.20358533859253,30.301146672851562,49.80358533859253,31.901146672851564C47.80358533859253,47.20111467285156,39.90358533859253,61.101114672851566,25.20358533859253,66.70111467285156C18.00358533859253,69.50111467285157,10.50358533859253,70.80111467285155,3.0035853385925293,71.10111467285157Z" fill="#D8D8D8" fill-opacity="1"/></g><g><path d="M13.10358543395996,45.00119536132813C22.90358543395996,32.10116536132813,36.20358543395996,30.501158361328123,45.30358543395996,31.201158361328126C42.603585433959964,38.501155361328124,37.40358543395996,44.50119536132813,31.20358543395996,48.601195361328124C24.40358543395996,52.90119536132812,16.10358543395996,55.701195361328125,9.403585433959961,50.701195361328125C10.50358543395996,48.801195361328126,11.703585433959962,46.90119536132812,13.10358543395996,45.00119536132813Z" fill="#F7F7F7" fill-opacity="1"/></g><g><path d="M3.003585750579834,71.10115356445313C10.603585750579834,70.90115356445312,18.003585750579834,69.50115356445312,25.203585750579833,66.70115356445312C39.903585750579836,61.20115356445312,47.803585750579835,47.301153564453124,49.803585750579835,31.901153564453125C53.303585750579835,32.501153564453126,55.403585750579836,33.30114356445313,55.403585750579836,33.30114356445313C55.403585750579836,33.30114356445313,62.00358575057983,93.90115356445312,4.903585750579834,98.50115356445312C4.903585750579834,98.50115356445312,1.1035857505798339,86.10115356445313,3.003585750579834,71.10115356445313Z" fill="#A8A8A8" fill-opacity="1"/></g><g><path d="M257.80357971191404,96.20114016113281C245.90357971191406,90.40114016113282,237.50357971191406,82.50114016113281,229.60357971191405,72.40114016113282C217.30357971191407,56.60114016113281,211.40357971191406,35.30115016113281,211.40357971191406,35.30115016113281C211.40357971191406,35.30115016113281,236.00357971191406,27.60116016113281,252.10357971191405,51.20114016113281C263.7035797119141,68.1011401611328,257.80357971191404,96.20114016113281,257.80357971191404,96.20114016113281Z" fill="#D8D8D8" fill-opacity="1"/></g><g><path d="M258.7035797119141,70.50115356445312C260.40357971191406,83.80115356445313,257.80357971191404,96.20115356445312,257.80357971191404,96.20115356445312C245.90357971191406,90.40115356445312,237.50357971191406,82.50115356445312,229.60357971191405,72.40115356445312C217.30357971191407,56.60115356445313,211.40357971191406,35.301147564453125,211.40357971191406,35.301147564453125C211.40357971191406,35.301147564453125,213.10358971191405,34.801153564453124,216.00358971191406,34.401153564453125C218.80358971191407,45.301153564453124,227.60357971191405,54.501153564453126,237.20357971191407,60.60115356445313C243.70357971191407,64.90115356445312,251.00357971191406,68.20115356445312,258.7035797119141,70.50115356445312Z" fill="#A8A8A8" fill-opacity="1"/></g><g><path d="M258.7035858154297,70.50116252441407C251.0035858154297,68.20116252441406,243.70358581542968,64.80116252441407,237.20358581542968,60.601162524414065C227.60358581542968,54.50116252441406,218.70358581542968,45.30116252441406,216.0035858154297,34.401158524414065C223.9035858154297,33.401158524414065,240.3035858154297,33.90116352441406,252.10358581542968,51.20116252441406C255.9035858154297,56.90116252441406,257.90358581542966,63.80116252441407,258.7035858154297,70.50116252441407Z" fill="#D8D8D8" fill-opacity="1"/></g><g><path d="M223.60357666015625,34.20115661621094C228.50357666015626,44.80115661621094,239.40357666015626,49.501156616210935,250.60357666015625,49.20115661621094C242.10357666015625,38.001156616210935,231.60357666015625,34.80115661621094,223.60357666015625,34.20115661621094Z" fill="#F7F7F7" fill-opacity="1"/></g><g><path d="M93.98449532226563,12.881706512695313Q94.09195532226562,12.705348512695313,94.14776532226563,12.506510512695312Q94.20357532226562,12.307672512695312,94.20357532226562,12.101150512695312Q94.20357532226562,12.027460212695312,94.19635532226563,11.954124512695312Q94.18913532226563,11.880789512695312,94.17475532226563,11.808515512695312Q94.16038532226563,11.736240512695312,94.13898532226563,11.665723512695312Q94.11759532226563,11.595206512695313,94.08939532226563,11.527125512695312Q94.06119532226563,11.459044512695312,94.02646532226562,11.394055512695312Q93.99172532226562,11.329066512695313,93.95078532226563,11.267795512695313Q93.90984532226562,11.206523512695313,93.86309532226562,11.149560512695313Q93.81634532226562,11.092600512695313,93.76423532226562,11.040490512695312Q93.71213532226562,10.988380512695313,93.65516532226563,10.941630512695312Q93.59820532226563,10.894890512695312,93.53693532226562,10.853950512695313Q93.47566532226563,10.813010512695312,93.41067532226563,10.778270512695313Q93.34568532226562,10.743530512695312,93.27760532226563,10.715330512695312Q93.20952532226562,10.687130512695312,93.13900532226563,10.665740512695312Q93.06848532226563,10.644350512695313,92.99621532226563,10.629970512695312Q92.92394532226562,10.615600512695313,92.85060532226562,10.608370512695313Q92.77726532226562,10.601150512695312,92.70357532226562,10.601150512695312Q92.51061532226562,10.601150512695312,92.32393532226563,10.649990512695313Q92.13725532226563,10.698830512695313,91.96901532226562,10.793320512695313Q91.80077532226562,10.887820512695313,91.66192532226563,11.021820512695312Q91.52307532226563,11.155818512695312,91.42266532226563,11.320597512695313L91.42202532226563,11.321655512695312Q87.32378532226562,18.047460512695313,87.00539532226563,24.62745051269531Q86.68787532226563,31.083750512695314,95.68387532226562,42.93315051269531Q106.26375532226562,56.868750512695314,121.51515532226563,64.73385051269531Q136.86665532226561,72.6633505126953,151.46895532226563,74.72395051269531Q158.84725532226562,75.76515051269531,163.20065532226562,75.18815051269532L163.44395532226562,75.15585051269531L163.66425532226563,75.0478505126953Q167.78935532226564,73.02415051269531,172.48205532226564,69.24435051269532Q181.94575532226563,61.62145051269531,185.02545532226563,52.578950512695315Q189.88195532226564,38.12655051269532,182.1164553222656,24.07565051269531Q182.06805532226562,23.988050512695313,182.0084553222656,23.907650512695312Q181.94885532226562,23.827250512695315,181.87905532226563,23.75545051269531Q181.80925532226564,23.683750512695312,181.73055532226562,23.62185051269531Q181.65195532226562,23.560050512695312,181.56575532226563,23.509150512695314Q181.47955532226564,23.45835051269531,181.38735532226562,23.41935051269531Q181.29515532226563,23.38045051269531,181.19855532226563,23.354050512695313Q181.10205532226564,23.32775051269531,181.00285532226565,23.314450512695313Q180.90365532226562,23.301150512695312,180.80355532226562,23.301150512695312Q180.72985532226562,23.301150512695312,180.65655532226563,23.308350512695313Q180.58325532226564,23.31555051269531,180.51095532226563,23.329950512695312Q180.43865532226562,23.344350512695314,180.36815532226564,23.365750512695314Q180.29765532226563,23.387150512695314,180.22955532226564,23.415350512695312Q180.16145532226562,23.44355051269531,180.09645532226563,23.47825051269531Q180.03145532226563,23.51305051269531,179.97025532226564,23.553950512695312Q179.90895532226563,23.594850512695313,179.8519553222656,23.641650512695314Q179.79505532226563,23.688350512695312,179.74295532226563,23.74045051269531Q179.69085532226563,23.792550512695314,179.64405532226561,23.849550512695313Q179.59735532226563,23.90655051269531,179.55635532226563,23.96775051269531Q179.5154553222656,24.029050512695314,179.48065532226562,24.09405051269531Q179.4459553222656,24.159050512695313,179.41775532226563,24.22715051269531Q179.3895553222656,24.29525051269531,179.36815532226564,24.365750512695314Q179.3467553222656,24.436250512695313,179.33235532226564,24.508550512695315Q179.31805532226562,24.58075051269531,179.31085532226564,24.654150512695313Q179.30355532226562,24.727450512695313,179.30355532226562,24.801150512695312Q179.30355532226562,25.188050512695312,179.4907553222656,25.526650512695312Q186.61725532226563,38.422250512695314,182.1816553222656,51.62335051269531Q179.38645532226562,59.830850512695314,170.6001553222656,66.90795051269532Q166.29615532226563,70.37475051269531,162.56485532226563,72.24445051269532Q158.64895532226564,72.70745051269532,151.88815532226562,71.7533505126953Q137.79055532226562,69.76395051269532,122.89195532226563,62.068450512695314Q108.24245532226563,54.51375051269531,98.07328532226562,41.11915051269531Q89.73792532226562,30.13995051269531,90.00177532226563,24.774850512695313Q90.28336532226562,18.95537051269531,93.98449532226563,12.881706512695313Z" fill-rule="evenodd" fill="#D8D8D8" fill-opacity="1"/></g><g><path d="M159.62967666015626,29.5797504609375Q159.60357666015625,29.4416714609375,159.60357666015625,29.3011474609375Q159.60357666015625,29.2274571609375,159.61079666015624,29.1541214609375Q159.61802666015626,29.0807864609375,159.63239666015625,29.0085124609375Q159.64677666015626,28.9362374609375,159.66816666015626,28.8657204609375Q159.68955666015626,28.7952034609375,159.71775666015625,28.7271224609375Q159.74595666015625,28.6590414609375,159.78069666015625,28.5940524609375Q159.81543666015625,28.5290634609375,159.85637666015626,28.4677924609375Q159.89731666015626,28.4065204609375,159.94405666015626,28.3495574609375Q159.99080666015624,28.2925974609375,160.04291666015624,28.2404874609375Q160.09502666015624,28.1883774609375,160.15198666015624,28.1416274609375Q160.20894966015624,28.0948874609375,160.27022166015624,28.0539474609375Q160.33149266015624,28.0130074609375,160.39648166015624,27.9782674609375Q160.46147066015624,27.9435274609375,160.52955166015624,27.9153274609375Q160.59763266015625,27.8871274609375,160.66814966015625,27.8657374609375Q160.73866666015624,27.8443474609375,160.81094166015626,27.8299674609375Q160.88321566015625,27.8155974609375,160.95655066015624,27.8083674609375Q161.02988636015624,27.8011474609375,161.10357666015625,27.8011474609375Q161.23364866015626,27.8011474609375,161.36177966015626,27.8235374609375Q161.48991066015626,27.8459274609375,161.61227466015626,27.8900374609375Q161.73463866015624,27.9341474609375,161.84758266015626,27.9986674609375Q161.96052766015626,28.0631874609375,162.06068066015624,28.1461774609375Q162.16083666015626,28.2291774609375,162.24520666015624,28.3281704609375Q162.32957666015625,28.4271664609375,162.39564666015625,28.5392084609375Q162.46171666015624,28.6512504609375,162.50751666015626,28.7729924609375Q162.55331666015624,28.8947354609375,162.57747666015624,29.0225444609375Q164.53886666015626,39.3989474609375,164.76585666015626,57.6244474609375Q164.83659666015626,63.3039474609375,164.72688666015625,69.0906474609375Q164.67196666015624,71.9874474609375,164.60242666015625,73.7599474609375L164.60241666015625,73.7600474609375Q164.59959666015624,73.8318474609375,164.58993666015624,73.9030474609375Q164.58026666015624,73.9741474609375,164.56383666015626,74.0441474609375Q164.54740666015624,74.1140474609375,164.52436666015626,74.1821474609375Q164.50132666015625,74.2501474609375,164.47189666015626,74.3157474609375Q164.44245666015624,74.3812474609375,164.40689666015626,74.4436474609375Q164.37132666015626,74.5061474609375,164.32995666015626,74.5648474609375Q164.28858666015626,74.6235474609375,164.24179666015624,74.67814746093751Q164.19500666015625,74.7326474609375,164.14321666015624,74.7824474609375Q164.09142666015626,74.83224746093751,164.03510666015626,74.8768474609375Q163.97879666015626,74.9214474609375,163.91847666015624,74.9604474609375Q163.85815666015625,74.99954746093749,163.79438666015625,75.0326474609375Q163.73061666015624,75.0656474609375,163.66397666015624,75.09254746093751Q163.59732666015626,75.11934746093749,163.52842666015624,75.1397474609375Q163.45952666015626,75.1600474609375,163.38898666015626,75.1737474609375Q163.31845666015624,75.1874474609375,163.24693666015625,75.1942474609375Q163.17542666015626,75.2011474609375,163.10357666015625,75.2011474609375Q163.02988666015625,75.2011474609375,162.95654666015625,75.1939474609375Q162.88321666015625,75.18664746093751,162.81093666015624,75.1723474609375Q162.73866666015624,75.15794746093749,162.66814666015625,75.13654746093749Q162.59763666015624,75.1151474609375,162.52954666015626,75.0869474609375Q162.46146666015625,75.0587474609375,162.39647666015625,75.02404746093751Q162.33149666015626,74.98924746093749,162.27021666015625,74.9483474609375Q162.20894666015624,74.9074474609375,162.15198666015624,74.8606474609375Q162.09502366015624,74.8139474609375,162.04291666015624,74.7617474609375Q161.99080966015626,74.7096474609375,161.94406066015625,74.65274746093749Q161.89731266015625,74.5957474609375,161.85637166015624,74.5344474609375Q161.81543166015626,74.4732474609375,161.78069466015626,74.4082474609375Q161.74595766015625,74.3432474609375,161.71775766015625,74.27514746093749Q161.68955766015625,74.2070474609375,161.66816666015626,74.13654746093749Q161.64677466015624,74.0660474609375,161.63239866015624,73.9937474609375Q161.61802266015624,73.92154746093749,161.61079966015626,73.8481474609375Q161.60357666015625,73.77484746093751,161.60357666015625,73.7011474609375Q161.60357666015625,73.6717474609375,161.60473066015626,73.6423474609375L161.60473366015626,73.6422474609375Q161.67308766015626,71.90014746093749,161.72742866015625,69.03374746093749Q161.83624266015624,63.2942474609375,161.76609266015626,57.6618474609375Q161.54236666015626,39.6985474609375,159.62967666015626,29.5797504609375Z" fill-rule="evenodd" fill="#D8D8D8" fill-opacity="1"/></g><g><path d="M167.5035827636719,42.101156616210936Q167.5035827636719,42.22144661621094,167.4976827636719,42.34158661621094Q167.49178276367186,42.461736616210935,167.47999276367187,42.58144661621094Q167.46820276367188,42.701146616210934,167.45055276367188,42.82013661621094Q167.43290276367188,42.939126616210935,167.40943276367187,43.05709661621094Q167.38596276367187,43.17507661621094,167.3567427636719,43.29175661621094Q167.32751276367188,43.40844661621094,167.29259276367188,43.52355661621094Q167.25767276367188,43.63865661621094,167.21715276367186,43.751916616210934Q167.17662276367187,43.86517661621094,167.13059276367187,43.976306616210934Q167.08456276367187,44.08743661621094,167.0331327636719,44.196176616210934Q166.98170276367188,44.30491661621094,166.92500276367187,44.41100661621094Q166.8682927636719,44.51708661621094,166.80645276367187,44.62026661621094Q166.74461276367188,44.72343661621094,166.67778276367187,44.82345661621094Q166.6109527636719,44.92346661621094,166.53930276367188,45.02008661621094Q166.46764276367188,45.11669661621094,166.39133276367187,45.20968661621094Q166.31502276367186,45.302666616210935,166.2342427636719,45.39179661621094Q166.15346276367188,45.48092661621094,166.0684127636719,45.565986616210935Q165.98335276367186,45.65103661621094,165.89422276367188,45.731816616210935Q165.80509276367187,45.81259661621094,165.71211276367188,45.88890661621094Q165.61912276367187,45.96521661621094,165.52251276367187,46.03687661621094Q165.42589276367187,46.10852661621094,165.32588276367187,46.175356616210934Q165.22586276367187,46.24218661621094,165.12269276367186,46.30402661621093Q165.01951276367188,46.36586661621094,164.91343276367186,46.42257661621094Q164.80734276367187,46.47927661621094,164.6986027636719,46.530706616210935Q164.58986276367187,46.58213661621094,164.47873276367187,46.62816661621093Q164.36760276367187,46.674196616210935,164.25434276367187,46.71472661621094Q164.14108276367188,46.75524661621094,164.02598276367186,46.79016661621094Q163.91087276367188,46.82508661621094,163.79418276367187,46.85431661621094Q163.67750276367187,46.88353661621094,163.55952276367188,46.907006616210936Q163.44155276367187,46.93047661621094,163.32256276367187,46.948126616210935Q163.20357276367187,46.96577661621094,163.08387276367188,46.977566616210936Q162.96416276367188,46.98935661621094,162.84401276367188,46.99525661621094Q162.72387276367186,47.001156616210935,162.60358276367188,47.001156616210935Q162.48329276367187,47.001156616210935,162.36315276367188,46.99525661621094Q162.24301276367189,46.98935661621094,162.1233027636719,46.977566616210936Q162.00359276367186,46.96577661621094,161.88460276367186,46.948126616210935Q161.76562276367187,46.93047661621094,161.64764276367188,46.907006616210936Q161.52966276367187,46.88353661621094,161.41298276367186,46.85431661621094Q161.2962927636719,46.82508661621094,161.18119276367187,46.79016661621094Q161.0660827636719,46.75524661621094,160.95282276367186,46.71472661621094Q160.83956276367186,46.674196616210935,160.72843276367186,46.62816661621093Q160.6173027636719,46.58213661621094,160.50856276367188,46.530706616210935Q160.39982276367186,46.47927661621094,160.29374276367187,46.42257661621094Q160.18765276367188,46.36586661621094,160.08448276367187,46.30402661621093Q159.98130276367186,46.24218661621094,159.88129276367187,46.175356616210934Q159.78127276367186,46.10852661621094,159.68465276367186,46.03687661621094Q159.58804276367187,45.96521661621094,159.49505276367188,45.88890661621094Q159.40207276367187,45.81259661621094,159.31294276367188,45.731816616210935Q159.22381276367187,45.65103661621094,159.13876276367188,45.565986616210935Q159.05370276367188,45.48092661621094,158.97292276367187,45.39179661621094Q158.89214276367187,45.302666616210935,158.81583276367186,45.20968661621094Q158.73952276367189,45.11669661621094,158.66786576367187,45.02008661621094Q158.59621076367188,44.92346661621094,158.52938176367186,44.82345661621094Q158.46255276367188,44.72343661621094,158.40071276367186,44.62026661621094Q158.33887176367188,44.51708661621094,158.28216876367188,44.41100661621094Q158.22546476367188,44.30491661621094,158.17403576367187,44.196176616210934Q158.12260576367188,44.08743661621094,158.07657276367186,43.976306616210934Q158.03054076367187,43.86517661621094,157.9900167636719,43.751916616210934Q157.94949276367188,43.63865661621094,157.91457476367188,43.52355661621094Q157.87965776367187,43.40844661621094,157.85042976367188,43.29175661621094Q157.82120176367187,43.17507661621094,157.79773486367188,43.05709661621094Q157.77426786367187,42.939126616210935,157.75661786367186,42.82013661621094Q157.73896796367188,42.701146616210934,157.7271775636719,42.58144661621094Q157.7153872636719,42.461736616210935,157.70948503367188,42.34158661621094Q157.70358276367188,42.22144661621094,157.70358276367188,42.101156616210936Q157.70358276367188,41.98086661621094,157.70948503367188,41.86072661621094Q157.7153872636719,41.74058661621094,157.7271775636719,41.620876616210936Q157.73896796367188,41.50116661621094,157.75661786367186,41.38217661621094Q157.77426786367187,41.263196616210934,157.79773486367188,41.14521661621094Q157.82120176367187,41.027236616210935,157.85042976367188,40.91055661621094Q157.87965776367187,40.793866616210934,157.91457476367188,40.678766616210936Q157.94949276367188,40.563656616210935,157.9900167636719,40.45039661621094Q158.03054076367187,40.33713661621094,158.07657276367186,40.22600661621094Q158.12260576367188,40.114876616210935,158.17403576367187,40.00613661621094Q158.22546476367188,39.89739661621094,158.28216876367188,39.791316616210935Q158.33887176367188,39.68522661621094,158.40071276367186,39.582056616210934Q158.46255276367188,39.47887661621094,158.52938176367186,39.378866616210935Q158.59621076367188,39.278846616210934,158.66786576367187,39.18222661621094Q158.73952276367189,39.085616616210935,158.81583276367186,38.992626616210934Q158.89214276367187,38.89964661621094,158.97292276367187,38.81051661621094Q159.05370276367188,38.721386616210935,159.13876276367188,38.63633661621094Q159.22381276367187,38.551276616210934,159.31294276367188,38.47049661621094Q159.40207276367187,38.38971661621094,159.49505276367188,38.31340661621094Q159.58804276367187,38.237096616210934,159.68465276367186,38.16543961621094Q159.78127276367186,38.09378461621094,159.88129276367187,38.02695561621094Q159.98130276367186,37.960126616210935,160.08448276367187,37.89828661621094Q160.18765276367188,37.83644561621094,160.29374276367187,37.77974261621094Q160.39982276367186,37.723038616210935,160.50856276367188,37.67160961621094Q160.6173027636719,37.62017961621094,160.72843276367186,37.57414661621094Q160.83956276367186,37.528114616210935,160.95282276367186,37.48759061621094Q161.0660827636719,37.44706661621094,161.18119276367187,37.412148616210935Q161.2962927636719,37.377231616210935,161.41298276367186,37.34800361621094Q161.52966276367187,37.318775616210935,161.64764276367188,37.29530871621094Q161.76562276367187,37.271841716210936,161.88460276367186,37.25419171621094Q162.00359276367186,37.23654181621094,162.1233027636719,37.224751416210935Q162.24301276367189,37.212961116210934,162.36315276367188,37.20705888621094Q162.48329276367187,37.20115661621094,162.60358276367188,37.20115661621094Q162.72387276367186,37.20115661621094,162.84401276367188,37.20705888621094Q162.96416276367188,37.212961116210934,163.08387276367188,37.224751416210935Q163.20357276367187,37.23654181621094,163.32256276367187,37.25419171621094Q163.44155276367187,37.271841716210936,163.55952276367188,37.29530871621094Q163.67750276367187,37.318775616210935,163.79418276367187,37.34800361621094Q163.91087276367188,37.377231616210935,164.02598276367186,37.412148616210935Q164.14108276367188,37.44706661621094,164.25434276367187,37.48759061621094Q164.36760276367187,37.528114616210935,164.47873276367187,37.57414661621094Q164.58986276367187,37.62017961621094,164.6986027636719,37.67160961621094Q164.80734276367187,37.723038616210935,164.91343276367186,37.77974261621094Q165.01951276367188,37.83644561621094,165.12269276367186,37.89828661621094Q165.22586276367187,37.960126616210935,165.32588276367187,38.02695561621094Q165.42589276367187,38.09378461621094,165.52251276367187,38.16543961621094Q165.61912276367187,38.237096616210934,165.71211276367188,38.31340661621094Q165.80509276367187,38.38971661621094,165.89422276367188,38.47049661621094Q165.98335276367186,38.551276616210934,166.0684127636719,38.63633661621094Q166.15346276367188,38.721386616210935,166.2342427636719,38.81051661621094Q166.31502276367186,38.89964661621094,166.39133276367187,38.992626616210934Q166.46764276367188,39.085616616210935,166.53930276367188,39.18222661621094Q166.6109527636719,39.278846616210934,166.67778276367187,39.378866616210935Q166.74461276367188,39.47887661621094,166.80645276367187,39.582056616210934Q166.8682927636719,39.68522661621094,166.92500276367187,39.791316616210935Q166.98170276367188,39.89739661621094,167.0331327636719,40.00613661621094Q167.08456276367187,40.114876616210935,167.13059276367187,40.22600661621094Q167.17662276367187,40.33713661621094,167.21715276367186,40.45039661621094Q167.25767276367188,40.563656616210935,167.29259276367188,40.678766616210936Q167.32751276367188,40.793866616210934,167.3567427636719,40.91055661621094Q167.38596276367187,41.027236616210935,167.40943276367187,41.14521661621094Q167.43290276367188,41.263196616210934,167.45055276367188,41.38217661621094Q167.46820276367188,41.50116661621094,167.47999276367187,41.620876616210936Q167.49178276367186,41.74058661621094,167.4976827636719,41.86072661621094Q167.5035827636719,41.98086661621094,167.5035827636719,42.101156616210936Z" fill="#F4D16C" fill-opacity="1"/></g><g><path d="M168.1035888671875,57.101156616210936Q168.1035888671875,57.22144661621094,168.09768886718751,57.34158661621094Q168.0917888671875,57.461736616210935,168.0799988671875,57.58144661621094Q168.0682088671875,57.701146616210934,168.0505588671875,57.82013661621094Q168.0329088671875,57.939126616210935,168.0094388671875,58.05709661621094Q167.9859688671875,58.17507661621094,167.9567488671875,58.29175661621094Q167.9275188671875,58.40844661621094,167.8925988671875,58.52355661621094Q167.8576788671875,58.63865661621094,167.8171588671875,58.751916616210934Q167.7766288671875,58.86517661621094,167.7305988671875,58.976306616210934Q167.6845688671875,59.08743661621094,167.6331388671875,59.196176616210934Q167.5817088671875,59.30491661621094,167.5250088671875,59.41100661621094Q167.4682988671875,59.51708661621094,167.4064588671875,59.62026661621094Q167.3446188671875,59.72343661621094,167.2777888671875,59.82345661621094Q167.21095886718751,59.92346661621094,167.1393088671875,60.02008661621094Q167.0676488671875,60.11669661621094,166.9913388671875,60.20968661621094Q166.9150288671875,60.302666616210935,166.8342488671875,60.39179661621094Q166.7534688671875,60.48092661621094,166.6684188671875,60.565986616210935Q166.58335886718748,60.65103661621094,166.4942288671875,60.731816616210935Q166.4050988671875,60.81259661621094,166.3121188671875,60.88890661621094Q166.2191288671875,60.96521661621094,166.1225188671875,61.03687661621094Q166.0258988671875,61.10852661621094,165.9258888671875,61.175356616210934Q165.8258688671875,61.24218661621094,165.7226988671875,61.30402661621093Q165.6195188671875,61.36586661621094,165.5134388671875,61.42257661621094Q165.4073488671875,61.47927661621094,165.2986088671875,61.530706616210935Q165.1898688671875,61.58213661621094,165.0787388671875,61.62816661621093Q164.9676088671875,61.674196616210935,164.8543488671875,61.71472661621094Q164.7410888671875,61.75524661621094,164.6259888671875,61.79016661621094Q164.5108788671875,61.82508661621094,164.3941888671875,61.85431661621094Q164.2775088671875,61.88353661621094,164.1595288671875,61.907006616210936Q164.0415588671875,61.93047661621094,163.9225688671875,61.948126616210935Q163.8035788671875,61.96577661621094,163.6838788671875,61.977566616210936Q163.5641688671875,61.98935661621094,163.4440188671875,61.99525661621094Q163.3238788671875,62.001156616210935,163.2035888671875,62.001156616210935Q163.0832988671875,62.001156616210935,162.9631588671875,61.99525661621094Q162.8430188671875,61.98935661621094,162.7233088671875,61.977566616210936Q162.6035988671875,61.96577661621094,162.4846088671875,61.948126616210935Q162.3656288671875,61.93047661621094,162.2476488671875,61.907006616210936Q162.1296688671875,61.88353661621094,162.0129888671875,61.85431661621094Q161.8962988671875,61.82508661621094,161.7811988671875,61.79016661621094Q161.6660888671875,61.75524661621094,161.5528288671875,61.71472661621094Q161.4395688671875,61.674196616210935,161.3284388671875,61.62816661621093Q161.2173088671875,61.58213661621094,161.1085688671875,61.530706616210935Q160.9998288671875,61.47927661621094,160.8937488671875,61.42257661621094Q160.7876588671875,61.36586661621094,160.6844888671875,61.30402661621093Q160.5813088671875,61.24218661621094,160.4812988671875,61.175356616210934Q160.3812788671875,61.10852661621094,160.2846588671875,61.03687661621094Q160.1880488671875,60.96521661621094,160.0950588671875,60.88890661621094Q160.0020788671875,60.81259661621094,159.9129488671875,60.731816616210935Q159.8238188671875,60.65103661621094,159.7387688671875,60.565986616210935Q159.6537088671875,60.48092661621094,159.5729288671875,60.39179661621094Q159.4921488671875,60.302666616210935,159.4158388671875,60.20968661621094Q159.3395288671875,60.11669661621094,159.2678718671875,60.02008661621094Q159.1962168671875,59.92346661621094,159.1293878671875,59.82345661621094Q159.0625588671875,59.72343661621094,159.0007188671875,59.62026661621094Q158.9388778671875,59.51708661621094,158.8821748671875,59.41100661621094Q158.8254708671875,59.30491661621094,158.7740418671875,59.196176616210934Q158.7226118671875,59.08743661621094,158.6765788671875,58.976306616210934Q158.6305468671875,58.86517661621094,158.5900228671875,58.751916616210934Q158.5494988671875,58.63865661621094,158.5145808671875,58.52355661621094Q158.4796638671875,58.40844661621094,158.4504358671875,58.29175661621094Q158.4212078671875,58.17507661621094,158.3977409671875,58.05709661621094Q158.3742739671875,57.939126616210935,158.3566239671875,57.82013661621094Q158.3389740671875,57.701146616210934,158.3271836671875,57.58144661621094Q158.3153933671875,57.461736616210935,158.3094911371875,57.34158661621094Q158.3035888671875,57.22144661621094,158.3035888671875,57.101156616210936Q158.3035888671875,56.98086661621094,158.3094911371875,56.86072661621094Q158.3153933671875,56.74058661621094,158.3271836671875,56.620876616210936Q158.3389740671875,56.50116661621094,158.3566239671875,56.38217661621094Q158.3742739671875,56.263196616210934,158.3977409671875,56.14521661621094Q158.4212078671875,56.027236616210935,158.4504358671875,55.91055661621094Q158.4796638671875,55.793866616210934,158.5145808671875,55.678766616210936Q158.5494988671875,55.563656616210935,158.5900228671875,55.45039661621094Q158.6305468671875,55.33713661621094,158.6765788671875,55.22600661621094Q158.7226118671875,55.114876616210935,158.7740418671875,55.00613661621094Q158.8254708671875,54.89739661621094,158.8821748671875,54.791316616210935Q158.9388778671875,54.68522661621094,159.0007188671875,54.582056616210934Q159.0625588671875,54.47887661621094,159.1293878671875,54.378866616210935Q159.1962168671875,54.278846616210934,159.2678718671875,54.18222661621094Q159.3395288671875,54.085616616210935,159.4158388671875,53.992626616210934Q159.4921488671875,53.89964661621094,159.5729288671875,53.81051661621094Q159.6537088671875,53.721386616210935,159.7387688671875,53.63633661621094Q159.8238188671875,53.551276616210934,159.9129488671875,53.47049661621094Q160.0020788671875,53.38971661621094,160.0950588671875,53.31340661621094Q160.1880488671875,53.237096616210934,160.2846588671875,53.16543961621094Q160.3812788671875,53.09378461621094,160.4812988671875,53.02695561621094Q160.5813088671875,52.960126616210935,160.6844888671875,52.89828661621094Q160.7876588671875,52.83644561621094,160.8937488671875,52.77974261621094Q160.9998288671875,52.723038616210935,161.1085688671875,52.67160961621094Q161.2173088671875,52.62017961621094,161.3284388671875,52.57414661621094Q161.4395688671875,52.528114616210935,161.5528288671875,52.48759061621094Q161.6660888671875,52.44706661621094,161.7811988671875,52.412148616210935Q161.8962988671875,52.377231616210935,162.0129888671875,52.34800361621094Q162.1296688671875,52.318775616210935,162.2476488671875,52.29530871621094Q162.3656288671875,52.271841716210936,162.4846088671875,52.25419171621094Q162.6035988671875,52.23654181621094,162.7233088671875,52.224751416210935Q162.8430188671875,52.212961116210934,162.9631588671875,52.20705888621094Q163.0832988671875,52.20115661621094,163.2035888671875,52.20115661621094Q163.3238788671875,52.20115661621094,163.4440188671875,52.20705888621094Q163.5641688671875,52.212961116210934,163.6838788671875,52.224751416210935Q163.8035788671875,52.23654181621094,163.9225688671875,52.25419171621094Q164.0415588671875,52.271841716210936,164.1595288671875,52.29530871621094Q164.2775088671875,52.318775616210935,164.3941888671875,52.34800361621094Q164.5108788671875,52.377231616210935,164.6259888671875,52.412148616210935Q164.7410888671875,52.44706661621094,164.8543488671875,52.48759061621094Q164.9676088671875,52.528114616210935,165.0787388671875,52.57414661621094Q165.1898688671875,52.62017961621094,165.2986088671875,52.67160961621094Q165.4073488671875,52.723038616210935,165.5134388671875,52.77974261621094Q165.6195188671875,52.83644561621094,165.7226988671875,52.89828661621094Q165.8258688671875,52.960126616210935,165.9258888671875,53.02695561621094Q166.0258988671875,53.09378461621094,166.1225188671875,53.16543961621094Q166.2191288671875,53.237096616210934,166.3121188671875,53.31340661621094Q166.4050988671875,53.38971661621094,166.4942288671875,53.47049661621094Q166.58335886718748,53.551276616210934,166.6684188671875,53.63633661621094Q166.7534688671875,53.721386616210935,166.8342488671875,53.81051661621094Q166.9150288671875,53.89964661621094,166.9913388671875,53.992626616210934Q167.0676488671875,54.085616616210935,167.1393088671875,54.18222661621094Q167.21095886718751,54.278846616210934,167.2777888671875,54.378866616210935Q167.3446188671875,54.47887661621094,167.4064588671875,54.582056616210934Q167.4682988671875,54.68522661621094,167.5250088671875,54.791316616210935Q167.5817088671875,54.89739661621094,167.6331388671875,55.00613661621094Q167.6845688671875,55.114876616210935,167.7305988671875,55.22600661621094Q167.7766288671875,55.33713661621094,167.8171588671875,55.45039661621094Q167.8576788671875,55.563656616210935,167.8925988671875,55.678766616210936Q167.9275188671875,55.793866616210934,167.9567488671875,55.91055661621094Q167.9859688671875,56.027236616210935,168.0094388671875,56.14521661621094Q168.0329088671875,56.263196616210934,168.0505588671875,56.38217661621094Q168.0682088671875,56.50116661621094,168.0799988671875,56.620876616210936Q168.0917888671875,56.74058661621094,168.09768886718751,56.86072661621094Q168.1035888671875,56.98086661621094,168.1035888671875,57.101156616210936Z" fill="#F4D16C" fill-opacity="1"/></g></g></g></svg>