<svg xmlns="http://www.w3.org/2000/svg" xmlns:xlink="http://www.w3.org/1999/xlink" fill="none" version="1.1" width="290" height="190" viewBox="0 0 290 190"><g><g><path d="M89.77266998291016,0C85.87267998291016,0.3,76.57266998291016,2.5,76.57266998291016,2.5C76.67266998291015,5.3,91.07266998291016,10.8,90.97266998291016,10.9C90.97266998291016,10.9,89.77266998291016,0,89.77266998291016,0Z" fill="#544646" fill-opacity="1"/></g><g><g><path d="M168.27276561260223,26.39999C165.97276561260225,27.29999,163.57276561260224,28,161.07276561260224,28.5C161.07276561260224,28.5,161.87276561260222,31.8,161.87276561260222,31.8C162.27276561260223,33.3,163.07276561260224,34.8,164.27276561260223,35.8C166.37276561260222,39.3,170.47276561260225,50.1,169.17276561260223,56.7C167.07276561260224,67,153.47276561260225,73.2,130.57276561260224,63.9C102.47276561260223,52.5,91.67276561260223,20.39999,91.67276561260223,20.39999C91.67276561260223,19.899994,91.57276561260224,19.5,91.57276561260224,19C72.97276561260223,23.8,32.672765612602234,37.7,17.872765612602233,69.7C2.672765612602234,102.8,1.1727656126022339,149.2,1.1727656126022339,149.2C1.1727656126022339,149.2,253.97276561260225,149.2,253.97276561260225,149.2C253.97276561260225,149.2,249.37276561260222,78.7,223.47276561260225,57.1C200.57276561260224,37.9,181.17276561260223,29.8,168.27276561260223,26.39999Z" fill="#544646" fill-opacity="1"/></g><g><path d="M44.68367561260224,112.28062310351562Q44.672765612602234,112.19064440351562,44.672765612602234,112.10000610351562Q44.672765612602234,112.02631580351563,44.67998561260223,111.95298010351563Q44.68721561260223,111.87964510351563,44.70158561260224,111.80737110351562Q44.71596561260223,111.73509610351563,44.73735561260224,111.66457910351562Q44.75874561260223,111.59406210351563,44.78694561260223,111.52598110351562Q44.81514561260224,111.45790010351563,44.849885612602236,111.39291110351563Q44.884625612602235,111.32792210351562,44.925565612602234,111.26665110351563Q44.966505612602234,111.20537910351563,45.01324561260223,111.14841610351563Q45.059995612602236,111.09145610351563,45.112105612602235,111.03934610351563Q45.164215612602234,110.98723610351563,45.22117561260223,110.94048610351562Q45.278138612602234,110.89374610351562,45.33941061260224,110.85280610351562Q45.400681612602234,110.81186610351563,45.46567061260223,110.77712610351563Q45.530659612602236,110.74238610351563,45.598740612602235,110.71418610351563Q45.666821612602234,110.68598610351563,45.73733861260224,110.66459610351562Q45.80785561260223,110.64320610351562,45.88013061260224,110.62882610351562Q45.95240461260224,110.61445610351562,46.02573961260224,110.60722610351563Q46.09907531260223,110.60000610351562,46.172765612602234,110.60000610351562Q46.24078521260223,110.60000610351562,46.30852561260223,110.60616610351562Q46.37626661260224,110.61231610351562,46.443171612602235,110.62457610351562Q46.510076612602234,110.63684610351562,46.57559761260223,110.65510610351562Q46.641118612602234,110.67337610351562,46.70471761260223,110.69749610351562Q46.76831561260224,110.72161610351563,46.829470612602236,110.75139610351563Q46.89062461260223,110.78117610351562,46.94883261260223,110.81636610351562Q47.00704161260224,110.85156610351562,47.061825612602235,110.89187610351563Q47.11660961260223,110.93219610351562,47.16752061260223,110.97730610351563Q47.218435612602235,111.02241610351562,47.265045612602236,111.07194610351563Q47.31166561260223,111.12147410351562,47.35361561260223,111.17502110351562Q47.39555561260224,111.22856810351563,47.432485612602235,111.28569210351563Q47.46941561260223,111.34281610351563,47.50101561260223,111.40304710351562Q47.532615612602235,111.46327810351562,47.558645612602234,111.52612310351563Q47.58466561260224,111.58896810351563,47.604895612602235,111.65391010351563Q47.62512561260223,111.71885210351563,47.639395612602236,111.78535810351562Q47.65366561260223,111.85186410351562,47.66185561260223,111.91938910351563L52.16185561260223,149.01940610351562Q52.172765612602234,149.10930610351562,52.172765612602234,149.20000610351562Q52.172765612602234,149.27370610351562,52.16554561260223,149.34700610351564Q52.15831561260224,149.42030610351563,52.14394561260224,149.49260610351564Q52.129565612602235,149.56490610351563,52.10817561260223,149.63540610351563Q52.086785612602235,149.70590610351562,52.058585612602236,149.77400610351563Q52.03038561260223,149.84210610351562,51.99564561260223,149.90710610351562Q51.96090561260223,149.9721061035156,51.91996561260223,150.03330610351563Q51.879025612602234,150.09460610351562,51.832285612602234,150.15160610351563Q51.78553561260223,150.20850610351562,51.73342561260223,150.2606061035156Q51.68131561260223,150.3127061035156,51.62435561260224,150.35950610351563Q51.56739561260223,150.40620610351561,51.50611561260224,150.4472061035156Q51.444845612602236,150.48810610351563,51.379855612602235,150.52290610351562Q51.314875612602236,150.55760610351564,51.24678561260223,150.5858061035156Q51.178705612602236,150.61400610351564,51.10819561260223,150.63540610351563Q51.037675612602236,150.65680610351563,50.96539561260224,150.67120610351563Q50.89312561260223,150.68550610351562,50.819795612602235,150.69280610351564Q50.74645561260223,150.70000610351562,50.672765612602234,150.70000610351562Q50.60474561260224,150.70000610351562,50.537005612602236,150.6938061035156Q50.469265612602236,150.6877061035156,50.40236561260223,150.67540610351563Q50.33545561260223,150.66310610351562,50.26993561260223,150.6449061035156Q50.20441561260223,150.62660610351563,50.14081561260223,150.60250610351562Q50.07721561260223,150.57840610351562,50.01606561260223,150.54860610351562Q49.95490561260223,150.51880610351563,49.89669561260224,150.48360610351563Q49.838485612602234,150.44840610351562,49.78370561260223,150.40810610351562Q49.72892561260223,150.36780610351562,49.67801561260224,150.32270610351563Q49.627105612602236,150.2776061035156,49.58048561260223,150.2280061035156Q49.533865612602234,150.17850610351562,49.491915612602234,150.12500610351563Q49.44997561260223,150.07140610351564,49.41304561260223,150.01430610351562Q49.37612561260224,149.95720610351563,49.34451561260224,149.89690610351562Q49.31291561260223,149.8367061035156,49.286885612602234,149.77390610351563Q49.26086561260223,149.71100610351561,49.24063561260223,149.64610610351562Q49.220405612602235,149.58110610351562,49.20613561260223,149.51460610351563Q49.191865612602236,149.4481061035156,49.18367561260224,149.38060610351562L44.68367561260224,112.28062310351562Z" fill-rule="evenodd" fill="#FFFFFF" fill-opacity="1"/></g><g><path d="M226.660203405571,100.070117Q226.77277340557097,99.796172,226.77277340557097,99.5Q226.77277340557097,99.4263097,226.76555340557098,99.352974Q226.758323405571,99.279639,226.74395340557098,99.207365Q226.729573405571,99.13509,226.708183405571,99.064573Q226.686793405571,98.994056,226.658593405571,98.925975Q226.63039340557097,98.857894,226.59565340557097,98.792905Q226.56091340557097,98.727916,226.519973405571,98.666645Q226.479033405571,98.605373,226.43228340557098,98.54841Q226.38554340557098,98.49145,226.333433405571,98.43934Q226.281323405571,98.38723,226.22436340557098,98.34048Q226.16739340557098,98.29374,226.106123405571,98.2528Q226.044853405571,98.21186,225.979863405571,98.17712Q225.91487340557097,98.14238,225.846793405571,98.11418Q225.77871340557098,98.08598,225.708203405571,98.06459Q225.63768340557098,98.0432,225.56540340557098,98.02882Q225.49313340557097,98.01445,225.41979340557097,98.00722Q225.34646340557097,98,225.27277340557097,98Q225.16186340557098,98,225.05216340557098,98.01631Q224.94245340557097,98.03262,224.83634340557097,98.06489Q224.73023340557097,98.09716,224.630023405571,98.14469Q224.529813405571,98.19221,224.437683405571,98.25396Q224.345553405571,98.3157,224.263503405571,98.39033Q224.18145340557098,98.46495,224.11127340557098,98.550831Q224.041093405571,98.636711,223.98430340557098,98.73198Q223.927518405571,98.827248,223.885361405571,98.929832L223.885337405571,98.929889L223.88499440557098,98.930724Q223.088620405571,100.86905,222.423793405571,103.72472Q221.089083405571,109.45779,221.68403340557097,114.2836Q221.81423340557097,115.3396,222.15315240557098,117.6498Q222.698827405571,121.3693,222.930525305571,123.5084Q223.323680405571,127.13810000000001,223.388296405571,130.5235Q223.557788405571,139.4033,221.50668340557098,148.8828Q221.47275340557098,149.0396,221.47275340557098,149.2Q221.47275340557098,149.2737,221.47997340557097,149.347Q221.487203405571,149.4203,221.50157340557098,149.4926Q221.515953405571,149.5649,221.537343405571,149.6354Q221.558733405571,149.70589999999999,221.586933405571,149.774Q221.615133405571,149.84210000000002,221.649873405571,149.9071Q221.68461340557099,149.9721,221.725553405571,150.0333Q221.766493405571,150.0946,221.813233405571,150.1516Q221.85998340557097,150.20850000000002,221.91209340557097,150.2606Q221.96420340557097,150.3127,222.02116340557097,150.3595Q222.07812640557097,150.4062,222.13939840557097,150.4472Q222.20066940557098,150.4881,222.26565840557097,150.5229Q222.33064740557097,150.5576,222.39872840557098,150.5858Q222.46680940557098,150.614,222.53732640557098,150.6354Q222.60784340557097,150.6568,222.680118405571,150.6712Q222.752392405571,150.6855,222.82572740557097,150.6928Q222.89906310557097,150.7,222.97275340557098,150.7Q223.10034540557098,150.7,223.226103405571,150.6784Q223.351861405571,150.6569,223.47217340557097,150.6144Q223.59248540557098,150.5719,223.703894405571,150.5097Q223.81530240557097,150.4475,223.914605405571,150.3674Q224.01391340557097,150.28730000000002,224.09825340557097,150.1916Q224.18260340557097,150.0958,224.249563405571,149.9872Q224.316523405571,149.8786,224.364183405571,149.7603Q224.41184340557098,149.6419,224.438823405571,149.5172L224.43904340557097,149.5162Q226.563913405571,139.6954,226.38775340557098,130.46620000000001Q226.32059340557097,126.9476,225.91308340557097,123.1854Q225.67528340557098,120.9899,225.12138340557098,117.21430000000001Q224.78747340557098,114.9383,224.66149340557098,113.9165Q224.131703405571,109.6193,225.34565340557097,104.40496Q225.727963405571,102.76279,226.239893405571,101.23265Q226.49138340557099,100.48097,226.660183405571,100.07017L226.660203405571,100.070117L226.660203405571,100.070117Z" fill-rule="evenodd" fill="#FFFFFF" fill-opacity="1"/></g></g><g><path d="M177.37276382446288,23.100093242187498C177.27276382446288,22.8000932421875,177.1727638244629,22.5000732421875,176.9727638244629,22.2000732421875C172.27276382446288,25.1000732421875,166.87276382446288,27.3000732421875,161.1727638244629,28.5000732421875C161.1727638244629,28.5000732421875,161.9727638244629,31.8000732421875,161.9727638244629,31.8000732421875C162.37276382446288,33.3000732421875,163.1727638244629,34.8000732421875,164.37276382446288,35.8000732421875C166.4727638244629,39.3000732421875,170.5727638244629,50.1000732421875,169.27276382446288,56.7000732421875C167.1727638244629,67.0000732421875,153.5727638244629,73.2000732421875,130.6727638244629,63.9000732421875C102.5727638244629,52.5000732421875,91.77276382446288,20.4000832421875,91.77276382446288,20.4000832421875C91.47276382446289,15.7000856399875,91.8727638244629,20.0000732421875,91.47276382446289,15.7000732421875C91.47276382446289,15.7000732421875,68.97276382446289,19.6000932421875,66.47276382446289,23.0000932421875C62.37276382446289,28.6000732421875,53.67276382446289,34.0000732421875,53.67276382446289,34.0000732421875C53.67276382446289,34.0000732421875,67.5727638244629,66.5000732421875,122.8727638244629,82.5000732421875C179.1727638244629,98.8000732421875,199.27276382446288,64.4000732421875,185.87276382446288,32.8000732421875C185.87276382446288,32.8000732421875,179.4727638244629,28.2000732421875,177.37276382446288,23.100093242187498Z" fill="#544646" fill-opacity="1"/></g><g><path d="M211.67284766601563,44.900038632812496C212.37285766601562,45.0000386328125,232.67285766601563,61.9999986328125,234.77285766601562,63.9999986328125C236.87285766601562,65.99999863281249,234.9728576660156,76.7999986328125,234.9728576660156,76.7999986328125C234.9728576660156,76.7999986328125,236.57285766601564,80.0000986328125,239.07285766601564,78.60009863281249C241.67285766601563,77.10009863281249,241.77285766601562,65.3000986328125,239.57285766601564,61.600098632812504C237.4728576660156,57.9000986328125,215.57285766601564,40.2000256328125,210.97283766601564,39.7000258328125C206.3728376660156,39.2000256328125,201.77285766601562,41.4000386328125,201.77285766601562,41.4000386328125C201.77285766601562,41.4000386328125,207.17284766601563,48.0000486328125,207.17284766601563,48.0000486328125C207.17284766601563,48.0000486328125,210.97284766601564,44.8000386328125,211.67284766601563,44.900038632812496Z" fill="#544646" fill-opacity="1"/></g><g><path d="M37.17282432556152,42.5000121875C35.57282432556153,42.5000121875,19.572824325561523,56.9000421875,18.572824325561523,61.1000421875C17.572824325561523,65.3000421875,20.772824325561523,75.90004218749999,20.772824325561523,75.90004218749999C20.772824325561523,75.90004218749999,16.272824325561523,83.0000421875,16.272824325561523,83.0000421875C16.272824325561523,83.0000421875,9.872824325561524,69.10004218750001,11.772821325561523,61.4000421875C13.672824325561523,53.7000421875,33.872824325561524,36.2999891875,37.77282432556152,35.6999894875C41.67282432556152,35.0999891875,50.67282432556152,38.9000021875,50.67282432556152,38.9000021875C50.67282432556152,38.9000021875,48.372824325561524,46.8000421875,48.372824325561524,46.8000421875C48.372824325561524,46.8000421875,38.77282432556152,42.5000121875,37.17282432556152,42.5000121875Z" fill="#544646" fill-opacity="1"/></g><g><path d="M153.17286529541016,98.9999755859375C121.07286529541015,87.4999755859375,101.87286529541015,62.9999755859375,92.27286529541016,44.5999755859375C118.37286529541015,60.3999755859375,147.27286529541016,59.8999755859375,176.07286529541017,53.5999755859375C180.27286529541016,74.4999755859375,182.07286529541017,109.3999755859375,153.17286529541016,98.9999755859375Z" fill="#443F3F" fill-opacity="1"/></g><g><path d="M84.97271215478516,24.8999755859375C83.67271615478515,15.6999655859375,91.07270615478515,11.5999755859375,91.07270615478515,11.5999755859375C91.37270615478516,14.4999755859375,91.57271615478516,17.3999655859375,91.77271615478516,20.3999655859375C91.77271615478516,20.3999655859375,97.57269615478515,37.7999755859375,111.97269615478515,51.4999755859375C108.17269615478516,41.9999755859375,107.57269615478515,33.9999755859375,115.67269615478516,34.3999755859375C115.67269615478516,34.3999755859375,142.47269615478515,45.9999755859375,165.17269615478517,37.1999755859375C164.87269615478516,36.5999755859375,164.57269615478515,36.0999755859375,164.37269615478516,35.6999755859375C163.17269615478517,34.6999755859375,162.37269615478516,33.2999755859375,161.97269615478515,31.6999755859375C161.97269615478515,31.6999755859375,161.17269615478517,28.3999755859375,161.17269615478517,28.3999755859375C162.47269615478515,28.0999755859375,163.77269615478514,27.7999755859375,165.07269615478515,27.3999755859375C167.77269615478514,30.9999755859375,170.77269615478514,35.7999755859375,172.77269615478514,41.1999755859375C173.67269615478517,43.6999755859375,174.97269615478515,48.1999755859375,176.07269615478515,53.6999755859375C147.27269615478517,59.8999755859375,118.37269615478516,60.3999755859375,92.37270615478516,44.5999755859375C87.87270615478516,36.0999755859375,85.57271215478515,28.7999755859375,84.97271215478516,24.8999755859375Z" fill="#E26076" fill-opacity="1"/></g><g><path d="M103.67266998291015,78.6C128.37266998291017,108.2,169.87266998291017,109.4,169.47266998291016,104.3C169.07266998291016,99.2,128.37266998291017,59,126.27266998291016,51.1C124.67266998291015,45,122.77266998291016,29.1,122.07266998291016,22.3C121.87266998291015,20.4,120.47266998291016,18.8,118.67266998291015,18.3C99.87266998291015,13.3,76.57266998291016,2.5,76.57266998291016,2.5C76.57266998291016,15.2,80.77267998291016,43.6,80.77267998291016,43.6C80.77267998291016,43.6,78.87267998291016,49,103.67266998291015,78.6Z" fill="#544646" fill-opacity="1"/></g><g><path d="M162.27274891601562,34.5000732421875C164.37274891601564,41.3000732421875,168.17273891601562,52.1000732421875,169.07273891601562,56.7000732421875C169.77268891601562,60.2000732421875,169.37278891601562,86.7000732421875,162.37273891601563,99.1000732421875C153.47273891601563,114.8000732421875,165.57273891601562,130.7000732421875,165.57273891601562,130.7000732421875C165.57273891601562,130.7000732421875,185.37278891601562,69.0000732421875,185.77278891601563,59.4000732421875C186.0727889160156,51.8000732421875,193.27278891601563,29.9000732421875,196.17278891601563,21.100093242187498C196.87278891601562,19.0000932421875,195.87278891601562,16.7000832421875,193.87278891601562,15.900083242187499C193.87278891601562,15.900083242187499,187.4726889160156,13.2000732421875,187.4726889160156,13.2000732421875C174.77268891601562,26.2000732421875,160.97274891601563,28.5000732421875,160.97274891601563,28.5000732421875C160.97274891601563,28.5000732421875,161.17274891601562,30.8000732421875,162.27274891601562,34.5000732421875Z" fill="#544646" fill-opacity="1"/></g><g><path d="M115.97276763916015,26.3Q115.97276763916015,26.46212,115.95880763916016,26.62346Q115.94483763916016,26.7848,115.91704763916016,26.9438Q115.88925763916015,27.102809999999998,115.84789763916015,27.257939999999998Q115.80653763916015,27.41308,115.75201763916016,27.56286Q115.69749763916016,27.71264,115.63033763916016,27.85561Q115.56318763916016,27.99859,115.48402763916016,28.13339Q115.40487763916016,28.26818,115.31449763916015,28.3935Q115.22411763916016,28.518819999999998,115.12337763916015,28.63346Q115.02263763916015,28.74809,114.91250763916015,28.85094Q114.80237763916016,28.953789999999998,114.68392763916016,29.04385Q114.56546763916016,29.13392,114.43981763916015,29.21035Q114.31417763916015,29.28677,114.18254763916016,29.34881Q114.05092763916015,29.41085,113.91459763916015,29.45791Q113.77825763916016,29.50497,113.63852763916016,29.5366Q113.49879763916016,29.56823,113.35701763916016,29.58412Q113.21523763916015,29.60001,113.07276763916016,29.60001Q112.93029763916016,29.60001,112.78851763916016,29.58412Q112.64673763916015,29.56823,112.50700763916015,29.5366Q112.36727763916015,29.50497,112.23094763916015,29.45791Q112.09460763916016,29.41085,111.96298763916016,29.34881Q111.83136763916016,29.28677,111.70571763916016,29.21035Q111.58006763916016,29.13392,111.46161763916015,29.04385Q111.34315763916015,28.953789999999998,111.23302763916016,28.85094Q111.12289863916016,28.74809,111.02215863916015,28.63346Q110.92141863916015,28.518819999999998,110.83103763916016,28.3935Q110.74065663916015,28.26818,110.66150563916015,28.13339Q110.58235463916016,27.99859,110.51519563916015,27.85561Q110.44803763916016,27.71264,110.39351663916015,27.56286Q110.33899663916016,27.41308,110.29764063916015,27.257939999999998Q110.25628443916015,27.102809999999998,110.22849033916016,26.9438Q110.20069623916015,26.7848,110.18673193916015,26.62346Q110.17276763916016,26.46212,110.17276763916016,26.3Q110.17276763916016,26.13788,110.18673193916015,25.97655Q110.20069623916015,25.81521,110.22849033916016,25.6562Q110.25628443916015,25.4972,110.29764063916015,25.34206Q110.33899663916016,25.18692,110.39351663916015,25.03715Q110.44803763916016,24.88737,110.51519563916015,24.74439Q110.58235463916016,24.60142,110.66150563916015,24.46662Q110.74065663916015,24.33182,110.83103763916016,24.2065Q110.92141863916015,24.08118,111.02215863916015,23.966548Q111.12289863916016,23.851913,111.23302763916016,23.749066Q111.34315763916015,23.646219,111.46161763916015,23.556151Q111.58006763916016,23.466082,111.70571763916016,23.38966Q111.83136763916016,23.313238,111.96298763916016,23.251198Q112.09460763916016,23.189158,112.23094763916015,23.142097Q112.36727763916015,23.0950364,112.50700763916015,23.0634086Q112.64673763916015,23.0317808,112.78851763916016,23.0158904Q112.93029763916016,23,113.07276763916016,23Q113.21523763916015,23,113.35701763916016,23.0158904Q113.49879763916016,23.0317808,113.63852763916016,23.0634086Q113.77825763916016,23.0950364,113.91459763916015,23.142097Q114.05092763916015,23.189158,114.18254763916016,23.251198Q114.31417763916015,23.313238,114.43981763916015,23.38966Q114.56546763916016,23.466082,114.68392763916016,23.556151Q114.80237763916016,23.646219,114.91250763916015,23.749066Q115.02263763916015,23.851913,115.12337763916015,23.966548Q115.22411763916016,24.08118,115.31449763916015,24.2065Q115.40487763916016,24.33182,115.48402763916016,24.46662Q115.56318763916016,24.60142,115.63033763916016,24.74439Q115.69749763916016,24.88737,115.75201763916016,25.03715Q115.80653763916015,25.18692,115.84789763916015,25.34206Q115.88925763916015,25.4972,115.91704763916016,25.6562Q115.94483763916016,25.81521,115.95880763916016,25.97655Q115.97276763916015,26.13788,115.97276763916015,26.3Z" fill="#FFFFFF" fill-opacity="1"/></g><g><path d="M79.66303763916015,22.829451L80.72368763916016,32.086Q82.76575763916016,35.2121,87.73251763916015,39.3472Q98.25976763916016,48.1117,114.23396763916016,53.2726Q120.81666763916016,55.3598,126.20476763916015,58.9519Q130.80906763916016,61.9967,142.91406763916015,72.89789999999999Q154.65776763916017,83.4738,160.36796763916016,89.575Q160.46466763916015,89.6783,160.54026763916016,89.7979Q160.61596763916015,89.9174,160.66786763916014,90.049Q160.71986763916016,90.1806,160.74636763916016,90.3196Q160.77276763916015,90.4585,160.77276763916015,90.6Q160.77276763916015,90.6737,160.76556763916017,90.747Q160.75836763916016,90.8204,160.74396763916016,90.8926Q160.72956763916017,90.9649,160.70816763916014,91.0354Q160.68676763916017,91.1059,160.65856763916014,91.174Q160.63036763916017,91.2421,160.59566763916015,91.3071Q160.56086763916016,91.3721,160.51996763916014,91.4334Q160.47906763916015,91.4946,160.43226763916016,91.5516Q160.38556763916017,91.6086,160.33346763916018,91.6607Q160.28136763916015,91.7128,160.22436763916016,91.7595Q160.16736763916015,91.8063,160.10606763916016,91.8472Q160.04486763916015,91.8881,159.97986763916015,91.9229Q159.91486763916015,91.9576,159.84676763916016,91.9858Q159.77866763916018,92.014,159.70816763916014,92.0354Q159.63766763916016,92.0568,159.56536763916017,92.0712Q159.49316763916016,92.0856,159.41976763916017,92.0928Q159.34646763916015,92.1,159.27276763916015,92.1Q159.11876763916015,92.1,158.96796763916015,92.0687Q158.81716763916017,92.0374,158.67586763916017,91.9761Q158.53456763916017,91.9148,158.40866763916017,91.8261Q158.28286763916014,91.7374,158.17756763916015,91.625Q152.55476763916016,85.61699999999999,140.90646763916016,75.1271Q128.96756763916017,64.3755,124.54066763916015,61.4481Q119.50556763916015,58.0913,113.31166763916016,56.1273Q96.78576763916016,50.7882,85.81302763916015,41.6528Q80.25127763916015,37.0223,77.99817063916015,33.3908Q77.82081963916016,33.105000000000004,77.78252463916016,32.770759999999996L76.68254763916016,23.170968L76.68251763916015,23.170759Q76.67276763916016,23.0856577,76.67276763916016,23Q76.67276763916016,22.9263097,76.67998763916016,22.852974Q76.68721763916015,22.779639,76.70158763916015,22.707365Q76.71596763916016,22.63509,76.73735763916015,22.564573Q76.75874763916016,22.494056,76.78694763916016,22.425975Q76.81514763916016,22.357894,76.84988763916016,22.292905Q76.88462763916016,22.227916,76.92556763916015,22.166645Q76.96650763916016,22.105373,77.01324763916016,22.04841Q77.05999763916016,21.99145,77.11210763916016,21.93934Q77.16421763916016,21.88723,77.22117763916016,21.84048Q77.27814063916016,21.79374,77.33941263916016,21.7528Q77.40068363916015,21.71186,77.46567263916016,21.67712Q77.53066163916016,21.64238,77.59874263916015,21.61418Q77.66682363916016,21.58598,77.73734063916015,21.56459Q77.80785763916016,21.5432,77.88013263916015,21.52882Q77.95240663916016,21.51445,78.02574163916016,21.50722Q78.09907733916016,21.5,78.17276763916016,21.5Q78.24109813916016,21.5,78.30914563916015,21.50621Q78.37719263916016,21.51242,78.44439363916015,21.5248Q78.51159463916015,21.53717,78.57739263916015,21.5556Q78.64318963916016,21.57404,78.70703863916016,21.59837Q78.77088763916015,21.62271,78.83225963916016,21.65275Q78.89363163916016,21.6828,78.95201863916016,21.71829Q79.01040463916016,21.75379,79.06532163916016,21.79445Q79.12023863916015,21.83511,79.17123163916015,21.88059Q79.22222763916015,21.92608,79.26886763916016,21.97601Q79.31551763916016,22.025941,79.35742763916015,22.079907Q79.39934763916015,22.133873,79.43617763916015,22.191426Q79.47300763916016,22.248979,79.50445763916015,22.309642Q79.53590763916016,22.370306,79.56170763916016,22.433577Q79.58751763916015,22.496849,79.60745763916016,22.562204Q79.62739763916015,22.627559,79.64131763916015,22.694457Q79.65523763916016,22.761355000000002,79.66301763916016,22.829241L79.66303763916015,22.829451Z" fill-rule="evenodd" fill="#443F3F" fill-opacity="1"/></g><g><path d="M165.44317000976562,96.3965285859375Q165.47278000976561,96.2497295859375,165.47278000976561,96.0999755859375Q165.47278000976561,96.0262852859375,165.46555000976562,95.9529495859375Q165.45833000976563,95.8796145859375,165.44395000976562,95.8073405859375Q165.42958000976563,95.7350655859375,165.40819000976563,95.6645485859375Q165.38680000976564,95.5940315859375,165.35859000976563,95.5259505859375Q165.33039000976564,95.4578695859375,165.2956600097656,95.3928805859375Q165.2609200097656,95.3278915859375,165.21998000976564,95.2666205859375Q165.17904000976563,95.2053485859375,165.13229000976563,95.1483855859375Q165.08554000976562,95.0914255859375,165.03344000976563,95.0393155859375Q164.98133000976563,94.9872055859375,164.92437000976562,94.9404555859375Q164.86740000976562,94.8937155859375,164.80613000976564,94.8527755859375Q164.74486000976563,94.8118355859375,164.67987000976564,94.7770955859375Q164.6148800097656,94.7423555859375,164.54680000976563,94.7141555859375Q164.47872000976562,94.6859555859375,164.40820000976564,94.6645655859375Q164.33769000976562,94.6431755859375,164.26541000976562,94.6287955859375Q164.1931400097656,94.6144255859375,164.1198000097656,94.6071955859375Q164.0464700097656,94.5999755859375,163.97278000976561,94.5999755859375Q163.84386000976562,94.5999755859375,163.71682000976563,94.6219755859375Q163.58979000976564,94.6439755859375,163.46838000976564,94.6873255859375Q163.3469700097656,94.7306755859375,163.23473200976562,94.7941055859375Q163.12249600976563,94.8575455859375,163.02273000976564,94.9391955859375Q162.92296400976562,95.0208455859375,162.83859400976561,95.1183285859375Q162.75422400976564,95.2158075859375,162.68772500976561,95.3262545859375Q162.62122600976562,95.4367015859375,162.57454800976564,95.5568745859375Q162.52787000976562,95.6770485859375,162.50238200976563,95.8034255859375Q161.89179800976564,98.8308955859375,161.40998100976563,102.5839655859375Q160.43126000976562,110.2075755859375,161.09458000976562,114.0547755859375Q161.70599700976564,117.60107558593751,162.3508650097656,127.6212755859375Q162.67499600976564,132.6577755859375,162.87437100976564,136.9692755859375Q162.87767500976562,137.0406755859375,162.88776100976563,137.1114755859375Q162.89784700976563,137.1822755859375,162.91462400976562,137.2518755859375Q162.93140100976564,137.32137558593752,162.95471600976563,137.3889755859375Q162.97803200976563,137.45657558593751,163.00767400976562,137.5216755859375Q163.03731700976562,137.58677558593752,163.07301700976564,137.6486755859375Q163.10871700976563,137.7106755859375,163.15015200976563,137.76897558593748Q163.19158600976562,137.8272755859375,163.23837900976562,137.8813755859375Q163.28517200976563,137.9354755859375,163.33690000976563,137.98487558593752Q163.38863000976562,138.0342755859375,163.44482000976564,138.0784755859375Q163.50101000976562,138.1227755859375,163.5611500097656,138.1613755859375Q163.62130000976563,138.2000755859375,163.68485000976563,138.2328755859375Q163.74841000976562,138.26567558593752,163.81479000976563,138.2922755859375Q163.88118000976561,138.3189755859375,163.94980000976562,138.3390755859375Q164.01841000976563,138.3592755859375,164.0886400097656,138.3727755859375Q164.15886000976562,138.38637558593751,164.23006000976562,138.3931755859375Q164.30125000976562,138.3999755859375,164.37277000976562,138.3999755859375Q164.44646000976562,138.3999755859375,164.51980000976562,138.3927755859375Q164.59313000976562,138.3854755859375,164.66541000976562,138.3711755859375Q164.73768000976563,138.3567755859375,164.8082000097656,138.3353755859375Q164.87871000976563,138.3139755859375,164.94679000976564,138.2857755859375Q165.01488000976562,138.2575755859375,165.07986000976564,138.22287558593752Q165.14485000976563,138.1880755859375,165.2061200097656,138.1471755859375Q165.26740000976562,138.1062755859375,165.32436000976563,138.0594755859375Q165.38132000976563,138.0127755859375,165.43343000976563,137.9605755859375Q165.48554000976563,137.9084755859375,165.53229000976563,137.8515755859375Q165.57903000976563,137.7945755859375,165.61997000976564,137.7332755859375Q165.66091000976562,137.6720755859375,165.69565000976561,137.6070755859375Q165.7303900097656,137.5420755859375,165.7585900097656,137.4739755859375Q165.78679000976564,137.4058755859375,165.80818000976564,137.3353755859375Q165.82957000976563,137.2648755859375,165.84395000976562,137.1925755859375Q165.85832000976563,137.1202755859375,165.86555000976563,137.0469755859375Q165.87277000976562,136.97367558593749,165.87277000976562,136.8999755859375Q165.87277000976562,136.8652755859375,165.87117000976562,136.8306755859375Q165.67054000976563,132.4921755859375,165.34467000976562,127.4285755859375Q164.68954000976564,117.2488755859375,164.05096000976562,113.5450755859375Q163.4642700097656,110.1422755859375,164.3855600097656,102.9659655859375Q164.85375000976563,99.3190655859375,165.44317000976562,96.3965285859375Z" fill-rule="evenodd" fill="#443F3F" fill-opacity="1"/></g><g><path d="M193.01526235351562,36.211145828125Q193.07266235351562,36.009609828125,193.07266235351562,35.800048828125Q193.07266235351562,35.726358528125,193.0654623535156,35.653022828125Q193.05826235351563,35.579687828125,193.04386235351564,35.507413828125Q193.0294623535156,35.435138828125,193.00806235351564,35.364621828125Q192.9866623535156,35.294104828125,192.9584623535156,35.226023828125Q192.93026235351562,35.157942828125,192.89556235351563,35.092953828125Q192.8607623535156,35.027964828125,192.81986235351562,34.966693828125Q192.77896235351562,34.905421828125,192.73216235351563,34.848458828125Q192.68546235351562,34.791498828125,192.63336235351562,34.739388828125Q192.58126235351563,34.687278828125,192.5242623535156,34.640528828125Q192.46726235351562,34.593788828125,192.40606235351564,34.552848828125Q192.34476235351562,34.511908828125,192.27976235351562,34.477168828125Q192.21476235351562,34.442428828125,192.14666235351564,34.414228828125Q192.07856235351562,34.386028828125,192.00806235351564,34.364638828125Q191.93756235351563,34.343248828125,191.86526235351562,34.328868828125Q191.79306235351564,34.314498828125,191.71966235351562,34.307268828125Q191.64636235351563,34.300048828125,191.57266235351562,34.300048828125Q191.45116235351563,34.300048828125,191.33116235351562,34.319608828125Q191.21126235351562,34.339168828125,191.09606235351563,34.377778828125Q190.98086235351562,34.416388828125,190.87336235351563,34.473048828125Q190.76586235351562,34.529698828125,190.66886235351564,34.602918828125Q190.57186235351563,34.676138828125,190.48796235351563,34.764018828125Q190.40396235351562,34.851891828125,190.33526235351562,34.952131828125Q190.2666623535156,35.052372828125,190.21496235351563,35.162362828125Q190.16326235351562,35.272352828125,190.13006235351563,35.389224828125Q190.1296623535156,35.390380828125,190.12936235351563,35.391684828125Q185.23986235351563,52.554548828125,182.95816235351563,59.300848828125Q181.68496235351563,62.908248828125,174.04053235351563,74.252448828125Q168.09332305351563,83.077948828125,166.71216235351562,86.06834882812501Q166.71166235351564,86.06944882812499,166.71117235351562,86.070448828125L166.71072235351562,86.071448828125Q166.57266235351562,86.37054882812501,166.57266235351562,86.700048828125Q166.57266235351562,86.77374882812501,166.57988235351561,86.847048828125Q166.58711235351564,86.92044882812499,166.60148235351562,86.992648828125Q166.61586235351564,87.064948828125,166.63725235351563,87.13544882812499Q166.65864235351563,87.205948828125,166.68684235351563,87.27404882812499Q166.71504235351563,87.342148828125,166.74978235351563,87.407148828125Q166.78452235351563,87.472148828125,166.82546235351563,87.533348828125Q166.86640235351564,87.594648828125,166.91314235351564,87.65164882812499Q166.9598923535156,87.708548828125,167.0120023535156,87.760748828125Q167.0641123535156,87.812848828125,167.12107235351561,87.859548828125Q167.1780353535156,87.906348828125,167.2393073535156,87.947248828125Q167.30057835351562,87.98814882812499,167.36556735351562,88.02294882812501Q167.4305563535156,88.057648828125,167.49863735351562,88.085848828125Q167.56671835351563,88.114048828125,167.63723535351562,88.13544882812499Q167.70775235351562,88.15684882812499,167.78002735351564,88.171248828125Q167.85230135351563,88.185648828125,167.9256363535156,88.192848828125Q167.99897205351562,88.200048828125,168.07266235351562,88.200048828125Q168.1795663535156,88.200048828125,168.28539035351562,88.184848828125Q168.39121435351564,88.169748828125,168.49381935351562,88.139748828125Q168.59642335351563,88.109648828125,168.69373335351563,88.065448828125Q168.79104435351562,88.021148828125,168.88109335351564,87.963548828125Q168.97114235351563,87.90594882812499,169.05211035351562,87.836148828125Q169.13308235351562,87.76634882812499,169.20333235351563,87.685748828125Q169.27358235351562,87.60514882812501,169.33169235351562,87.515448828125Q169.38980235351562,87.42564882812499,169.43460235351563,87.328648828125Q169.43536235351561,87.326948828125,169.43612235351563,87.325348828125Q169.4366123535156,87.32424882812501,169.43711235351563,87.323148828125Q170.71864235351563,84.550448828125,176.5283923535156,75.928848828125Q184.38666235351562,64.267348828125,185.7871623535156,60.299248828125Q188.10516235351562,53.446548828125,193.01476235351564,36.212786828125L193.01526235351562,36.211020828125L193.01526235351562,36.211145828125Z" fill-rule="evenodd" fill="#443F3F" fill-opacity="1"/></g><g><path d="M181.77277000976562,91.3999655859375Q181.77277000976562,91.5620855859375,181.75688000976564,91.7234155859375Q181.74099000976562,91.8847555859375,181.70936000976562,92.0437555859375Q181.67773000976564,92.2027655859375,181.63067000976562,92.3578955859375Q181.58361000976564,92.5130355859375,181.52157000976564,92.6628155859375Q181.45953000976561,92.8125955859375,181.38311000976563,92.9555655859375Q181.3066800097656,93.0985455859375,181.21661000976562,93.2333355859375Q181.12655000976562,93.3681355859375,181.02370000976563,93.4934555859375Q180.92085000976562,93.6187755859375,180.80622000976564,93.7334055859375Q180.69158000976563,93.8480455859375,180.5662600097656,93.9508855859375Q180.44094000976563,94.0537355859375,180.30615000976562,94.1438055859375Q180.17135000976563,94.2338655859375,180.02837000976564,94.3102955859375Q179.88540000976562,94.3867155859375,179.73562000976563,94.4487555859375Q179.58584000976563,94.5107955859375,179.43070000976562,94.5578555859375Q179.27557000976563,94.6049155859375,179.11656000976564,94.6365455859375Q178.95756000976561,94.6681655859375,178.79622000976562,94.6840555859375Q178.63488000976562,94.6999555859375,178.47276000976564,94.6999555859375Q178.31064000976562,94.6999555859375,178.14931000976563,94.6840555859375Q177.98797000976563,94.6681655859375,177.82896000976564,94.6365455859375Q177.66996000976562,94.6049155859375,177.51482000976563,94.5578555859375Q177.3596800097656,94.5107955859375,177.20991000976562,94.4487555859375Q177.06013000976563,94.3867155859375,176.91715000976563,94.3102955859375Q176.77418000976562,94.2338655859375,176.63938000976563,94.1438055859375Q176.50458000976562,94.0537355859375,176.37926000976563,93.9508855859375Q176.2539400097656,93.8480455859375,176.1393080097656,93.7334055859375Q176.02467300976562,93.6187755859375,175.92182600976562,93.4934555859375Q175.81897900976563,93.3681355859375,175.72891100976562,93.2333355859375Q175.63884200976563,93.0985455859375,175.56242000976562,92.9555655859375Q175.48599800976564,92.8125955859375,175.4239580097656,92.6628155859375Q175.36191800976562,92.5130355859375,175.31485700976563,92.3578955859375Q175.26779640976562,92.2027655859375,175.23616860976563,92.0437555859375Q175.20454080976563,91.8847555859375,175.18865040976561,91.7234155859375Q175.17276000976562,91.5620855859375,175.17276000976562,91.3999655859375Q175.17276000976562,91.2378455859375,175.18865040976561,91.0765055859375Q175.20454080976563,90.9151755859375,175.23616860976563,90.7561655859375Q175.26779640976562,90.5971655859375,175.31485700976563,90.4420255859375Q175.36191800976562,90.2868855859375,175.4239580097656,90.1371155859375Q175.48599800976564,89.9873355859375,175.56242000976562,89.8443555859375Q175.63884200976563,89.7013855859375,175.72891100976562,89.5665855859375Q175.81897900976563,89.4317955859375,175.92182600976562,89.3064755859375Q176.02467300976562,89.1811555859375,176.1393080097656,89.0665195859375Q176.2539400097656,88.9518845859375,176.37926000976563,88.8490385859375Q176.50458000976562,88.7461915859375,176.63938000976563,88.6561235859375Q176.77418000976562,88.5660555859375,176.91715000976563,88.4896335859375Q177.06013000976563,88.4132115859375,177.20991000976562,88.3511725859375Q177.3596800097656,88.2891325859375,177.51482000976563,88.2420715859375Q177.66996000976562,88.1950115859375,177.82896000976564,88.1633838859375Q177.98797000976563,88.1317562859375,178.14931000976563,88.1158658859375Q178.31064000976562,88.0999755859375,178.47276000976564,88.0999755859375Q178.63488000976562,88.0999755859375,178.79622000976562,88.1158658859375Q178.95756000976561,88.1317562859375,179.11656000976564,88.1633838859375Q179.27557000976563,88.1950115859375,179.43070000976562,88.2420715859375Q179.58584000976563,88.2891325859375,179.73562000976563,88.3511725859375Q179.88540000976562,88.4132115859375,180.02837000976564,88.4896335859375Q180.17135000976563,88.5660555859375,180.30615000976562,88.6561235859375Q180.44094000976563,88.7461915859375,180.5662600097656,88.8490385859375Q180.69158000976563,88.9518845859375,180.80622000976564,89.0665195859375Q180.92085000976562,89.1811555859375,181.02370000976563,89.3064755859375Q181.12655000976562,89.4317955859375,181.21661000976562,89.5665855859375Q181.3066800097656,89.7013855859375,181.38311000976563,89.8443555859375Q181.45953000976561,89.9873355859375,181.52157000976564,90.1371155859375Q181.58361000976564,90.2868855859375,181.63067000976562,90.4420255859375Q181.67773000976564,90.5971655859375,181.70936000976562,90.7561655859375Q181.74099000976562,90.9151755859375,181.75688000976564,91.0765055859375Q181.77277000976562,91.2378455859375,181.77277000976562,91.3999655859375Z" fill="#FFFFFF" fill-opacity="1"/></g></g></svg>