<svg xmlns="http://www.w3.org/2000/svg" xmlns:xlink="http://www.w3.org/1999/xlink" fill="none" version="1.1" width="290" height="190" viewBox="0 0 290 190"><g><g><path d="M168.34514520168304,26.489375986328124C167.74514520168304,26.689375986328123,167.24514520168304,26.889385986328126,166.64514520168305,27.089385986328125C164.84514520168304,27.689385986328126,163.04514520168306,28.189385986328126,161.14514520168305,28.589385986328125C161.14514520168305,28.589385986328125,161.94514520168303,31.889385986328126,161.94514520168303,31.889385986328126C162.34514520168304,33.38938598632812,163.14514520168305,34.88938598632812,164.34514520168304,35.88938598632812C166.44514520168303,39.38938598632812,170.54514520168306,50.189385986328126,169.24514520168304,56.78938598632813C167.14514520168305,67.08938598632812,153.54514520168306,73.28938598632813,130.64514520168305,63.989385986328124C102.54514520168304,52.589385986328125,91.74514520168304,20.489375986328124,91.74514520168304,20.489375986328124C91.74514520168304,19.989379986328125,91.64514520168305,19.589385986328125,91.64514520168305,19.089385986328125C87.64514520168305,20.189385986328126,82.44514520168305,21.689395986328126,76.74514520168304,23.689395986328126C56.54514520168304,30.889385986328126,29.445145201683044,44.78938598632813,17.945145201683044,69.78938598632813C2.7451452016830444,102.88938598632812,1.2451452016830444,149.2893859863281,1.2451452016830444,149.2893859863281C1.2451452016830444,149.2893859863281,254.04514520168306,149.2893859863281,254.04514520168306,149.2893859863281C254.04514520168306,149.2893859863281,249.44514520168303,78.78938598632813,223.54514520168306,57.189385986328126C200.64514520168305,37.989385986328124,181.24514520168304,29.889385986328126,168.34514520168304,26.489375986328124Z" fill="#BEE3EB" fill-opacity="1"/></g><g><path d="M166.74504106445312,27.089338111877442C164.9450410644531,27.68933811187744,161.9450410644531,28.389338111877443,160.04504106445313,28.78933811187744C160.04504106445313,28.78933811187744,166.54504106445313,37.08933811187744,164.84504106445314,48.58933811187744C163.34504106445314,58.989338111877444,149.14504106445312,65.08933811187744,126.24504106445312,55.78933811187744C98.14504106445312,44.38933811187744,91.74504106445312,20.48934811187744,91.74504106445312,20.48934811187744C91.74504106445312,19.98934811187744,91.64504106445312,19.58935811187744,91.64504106445312,19.08935811187744C91.54504106445313,17.58935811187744,91.14504106445312,13.189338111877442,91.04504106445313,11.789338111877441C89.24504106445312,12.389338111877441,87.04504106445313,13.489358111877442,85.04504106445313,14.689358111877441C81.44504106445312,16.78935811187744,78.54504106445313,19.78934811187744,76.74503806445313,23.48933811187744C76.64503806445312,23.589338111877442,76.64503206445312,23.68933811187744,76.64503206445312,23.68933811187744C74.04503106445313,31.18933811187744,87.44504106445312,58.88933811187744,121.94504106445312,74.38933811187744C157.64504106445312,90.48933811187744,179.7448410644531,71.78933811187744,177.34484106445314,51.68933811187744C175.64504106445312,37.68933811187744,171.14504106445312,32.38933811187744,166.74504106445312,27.089338111877442Z" fill="#FFFFFF" fill-opacity="1"/></g><g><path d="M44.75605389038086,112.36997857226562Q44.74514389038086,112.27999987226562,44.74514389038086,112.18936157226562Q44.74514389038086,112.11567127226563,44.752363890380856,112.04233557226563Q44.759593890380856,111.96900057226563,44.77396389038086,111.89672657226562Q44.78834389038086,111.82445157226563,44.80973389038086,111.75393457226562Q44.83112389038086,111.68341757226563,44.85932389038086,111.61533657226562Q44.88752389038086,111.54725557226563,44.92226389038086,111.48226657226563Q44.95700389038086,111.41727757226562,44.99794389038086,111.35600657226563Q45.03888389038086,111.29473457226563,45.08562389038086,111.23777157226563Q45.13237389038086,111.18081157226563,45.18448389038086,111.12870157226563Q45.23659389038086,111.07659157226563,45.293553890380856,111.02984157226562Q45.35051689038086,110.98310157226562,45.41178889038086,110.94216157226562Q45.47305989038086,110.90122157226563,45.53804889038086,110.86648157226563Q45.60303789038086,110.83174157226563,45.67111889038086,110.80354157226563Q45.73919989038086,110.77534157226563,45.80971689038086,110.75395157226562Q45.88023389038086,110.73256157226562,45.95250889038086,110.71818157226562Q46.02478289038086,110.70381157226562,46.09811789038086,110.69658157226563Q46.17145359038086,110.68936157226562,46.24514389038086,110.68936157226562Q46.31316349038086,110.68936157226562,46.38090389038086,110.69552157226562Q46.44864489038086,110.70167157226562,46.51554989038086,110.71393157226562Q46.58245489038086,110.72620157226562,46.647975890380856,110.74446157226562Q46.71349689038086,110.76273157226562,46.777095890380856,110.78685157226562Q46.84069389038086,110.81097157226563,46.90184889038086,110.84075157226563Q46.96300289038086,110.87053157226562,47.02121089038086,110.90572157226562Q47.07941989038086,110.94092157226562,47.13420389038086,110.98123157226563Q47.18898789038086,111.02155157226562,47.23989889038086,111.06666157226563Q47.29081389038086,111.11177157226562,47.33742389038086,111.16130157226563Q47.38404389038086,111.21082957226562,47.42599389038086,111.26437657226562Q47.46793389038086,111.31792357226563,47.50486389038086,111.37504757226563Q47.54179389038086,111.43217157226563,47.573393890380856,111.49240257226562Q47.60499389038086,111.55263357226562,47.63102389038086,111.61547857226563Q47.65704389038086,111.67832357226563,47.67727389038086,111.74326557226563Q47.69750389038086,111.80820757226563,47.71177389038086,111.87471357226562Q47.72604389038086,111.94121957226562,47.73423389038086,112.00874457226563L52.23423389038086,149.10876157226562Q52.24514389038086,149.19866157226562,52.24514389038086,149.28936157226562Q52.24514389038086,149.36306157226562,52.237923890380856,149.43636157226564Q52.23069389038086,149.50966157226563,52.21632389038086,149.58196157226564Q52.20194389038086,149.65426157226563,52.18055389038086,149.72476157226563Q52.15916389038086,149.79526157226562,52.13096389038086,149.86336157226563Q52.10276389038086,149.93146157226562,52.06802389038086,149.99646157226562Q52.03328389038086,150.0614615722656,51.99234389038086,150.12266157226563Q51.95140389038086,150.18396157226562,51.90466389038086,150.24096157226563Q51.85791389038086,150.29786157226562,51.80580389038086,150.3499615722656Q51.75369389038086,150.4020615722656,51.69673389038086,150.44886157226563Q51.63977389038086,150.49556157226561,51.57849389038086,150.5365615722656Q51.51722389038086,150.57746157226563,51.45223389038086,150.61226157226562Q51.38725389038086,150.64696157226564,51.31916389038086,150.6751615722656Q51.25108389038086,150.70336157226564,51.180573890380856,150.72476157226563Q51.11005389038086,150.74616157226563,51.03777389038086,150.76056157226563Q50.96550389038086,150.77486157226562,50.89217389038086,150.78216157226564Q50.81883389038086,150.78936157226562,50.74514389038086,150.78936157226562Q50.67712389038086,150.78936157226562,50.60938389038086,150.7831615722656Q50.54164389038086,150.7770615722656,50.47474389038086,150.76476157226563Q50.40783389038086,150.75246157226562,50.34231389038086,150.7342615722656Q50.27679389038086,150.71596157226563,50.21319389038086,150.69186157226562Q50.14959389038086,150.66776157226562,50.08844389038086,150.63796157226562Q50.02728389038086,150.60816157226563,49.96907389038086,150.57296157226563Q49.91086389038086,150.53776157226562,49.85608389038086,150.49746157226562Q49.80130389038086,150.45716157226562,49.75039389038086,150.41206157226563Q49.69948389038086,150.3669615722656,49.65286389038086,150.3173615722656Q49.60624389038086,150.26786157226562,49.56429389038086,150.21436157226563Q49.522353890380856,150.16076157226564,49.48542389038086,150.10366157226562Q49.44850389038086,150.04656157226563,49.41689389038086,149.98626157226562Q49.38529389038086,149.9260615722656,49.35926389038086,149.86326157226563Q49.33324389038086,149.80036157226561,49.31301389038086,149.73546157226562Q49.29278389038086,149.67046157226562,49.27851389038086,149.60396157226563Q49.26424389038086,149.5374615722656,49.25605389038086,149.46996157226562L44.75605389038086,112.36997857226562Z" fill-rule="evenodd" fill="#544D4D" fill-opacity="1"/></g><g><path d="M226.73264653320314,100.15950298632812Q226.84521653320311,99.88555798632812,226.84521653320311,99.58938598632812Q226.84521653320311,99.51569568632813,226.83799653320312,99.44235998632813Q226.83076653320313,99.36902498632813,226.81639653320312,99.29675098632812Q226.80201653320313,99.22447598632813,226.78062653320313,99.15395898632812Q226.75923653320314,99.08344198632813,226.73103653320314,99.01536098632812Q226.7028365332031,98.94727998632813,226.6680965332031,98.88229098632813Q226.6333565332031,98.81730198632812,226.59241653320314,98.75603098632813Q226.55147653320313,98.69475898632813,226.50472653320313,98.63779598632813Q226.45798653320313,98.58083598632813,226.40587653320313,98.52872598632813Q226.35376653320313,98.47661598632813,226.29680653320312,98.42986598632812Q226.23983653320312,98.38312598632812,226.17856653320314,98.34218598632812Q226.11729653320313,98.30124598632813,226.05230653320314,98.26650598632813Q225.9873165332031,98.23176598632813,225.91923653320313,98.20356598632813Q225.85115653320312,98.17536598632813,225.78064653320314,98.15397598632812Q225.71012653320312,98.13258598632812,225.63784653320312,98.11820598632812Q225.5655765332031,98.10383598632812,225.4922365332031,98.09660598632813Q225.4189065332031,98.08938598632812,225.34521653320311,98.08938598632812Q225.23430653320312,98.08938598632812,225.12460653320312,98.10569598632813Q225.0148965332031,98.12200598632812,224.9087865332031,98.15427598632813Q224.8026765332031,98.18654598632813,224.70246653320314,98.23407598632812Q224.60225653320313,98.28159598632813,224.51012653320313,98.34334598632813Q224.41799653320314,98.40508598632813,224.33594653320313,98.47971598632813Q224.25389653320312,98.55433598632813,224.18371653320312,98.64021698632813Q224.11353653320313,98.72609698632813,224.05674653320312,98.82136598632812Q223.99996153320313,98.91663398632812,223.95780453320313,99.01921798632813L223.95778053320313,99.01927498632813L223.95743753320312,99.02010998632812Q223.16106353320313,100.95843598632813,222.49623653320313,103.81410598632813Q221.16152653320313,109.54717598632813,221.7564765332031,114.37298598632813Q221.88667653320312,115.42898598632813,222.22559553320312,117.73918598632812Q222.77127053320314,121.45868598632812,223.00296843320314,123.59778598632812Q223.39612353320314,127.22748598632813,223.46073953320314,130.61288598632814Q223.63023153320313,139.49268598632813,221.57912653320312,148.97218598632813Q221.54519653320312,149.12898598632813,221.54519653320312,149.2893859863281Q221.54519653320312,149.36308598632812,221.55241653320311,149.43638598632813Q221.55964653320314,149.50968598632812,221.57401653320312,149.58198598632814Q221.58839653320314,149.65428598632812,221.60978653320313,149.72478598632813Q221.63117653320313,149.7952859863281,221.65937653320313,149.86338598632813Q221.68757653320313,149.93148598632814,221.72231653320313,149.99648598632814Q221.75705653320313,150.06148598632814,221.79799653320313,150.12268598632812Q221.83893653320314,150.18398598632814,221.88567653320314,150.24098598632813Q221.9324265332031,150.29788598632814,221.9845365332031,150.34998598632814Q222.0366465332031,150.40208598632813,222.09360653320311,150.44888598632812Q222.1505695332031,150.49558598632814,222.2118415332031,150.53658598632813Q222.27311253320312,150.57748598632813,222.33810153320312,150.61228598632812Q222.4030905332031,150.64698598632813,222.47117153320312,150.67518598632813Q222.53925253320313,150.70338598632813,222.60976953320312,150.72478598632813Q222.68028653320312,150.74618598632813,222.75256153320314,150.76058598632812Q222.82483553320313,150.77488598632812,222.8981705332031,150.78218598632813Q222.97150623320312,150.7893859863281,223.04519653320312,150.7893859863281Q223.17278853320312,150.7893859863281,223.29854653320314,150.76778598632814Q223.42430453320313,150.74628598632813,223.5446165332031,150.7037859863281Q223.66492853320312,150.66128598632812,223.77633753320313,150.59908598632813Q223.88774553320312,150.53688598632812,223.98704853320314,150.45678598632813Q224.08635653320312,150.37668598632814,224.1706965332031,150.28098598632812Q224.2550465332031,150.18518598632812,224.32200653320314,150.07658598632813Q224.38896653320313,149.96798598632813,224.43662653320314,149.84968598632813Q224.48428653320312,149.73128598632812,224.51126653320313,149.60658598632813L224.5114865332031,149.60558598632812Q226.63635653320313,139.78478598632813,226.46019653320312,130.55558598632814Q226.39303653320312,127.03698598632812,225.9855265332031,123.27478598632813Q225.74772653320312,121.07928598632813,225.19382653320312,117.30368598632813Q224.85991653320312,115.02768598632812,224.73393653320312,114.00588598632812Q224.20414653320313,109.70868598632812,225.4180965332031,104.49434598632813Q225.80040653320313,102.85217598632812,226.31233653320314,101.32203598632813Q226.56382653320313,100.57035598632812,226.73262653320313,100.15955598632813L226.73264653320314,100.15950298632812L226.73264653320314,100.15950298632812Z" fill-rule="evenodd" fill="#544D4D" fill-opacity="1"/></g></g></svg>