<svg xmlns="http://www.w3.org/2000/svg" xmlns:xlink="http://www.w3.org/1999/xlink" fill="none" version="1.1" width="290" height="190" viewBox="0 0 290 190"><g><g><g><g><path d="M183.25046179294586,31.71250474319458C194.55046179294587,36.51250474319458,208.35046179294585,44.41250474319458,223.65046179294586,57.31250474319458C249.45046179294587,78.91250474319457,254.05046179294587,149.4129047431946,254.05046179294587,149.4129047431946C254.05046179294587,149.4129047431946,1.1504617929458618,149.4129047431946,1.1504617929458618,149.4129047431946C1.1504617929458618,149.4129047431946,2.5504617929458617,103.01240474319458,17.750461792945863,69.91240474319457C33.850461792945865,35.11240474319458,79.95046179294586,21.71246474319458,95.75046179294586,18.11246454319458C99.15046179294586,17.41246474319458,101.15046179294586,29.81250474319458,101.15046179294586,29.81250474319458C101.15046179294586,29.81250474319458,141.15046179294586,38.01240474319458,148.85046179294585,38.41240474319458C153.15046179294586,38.71240474319458,168.25046179294586,25.31247474319458,183.25046179294586,31.71250474319458Z" fill="#544D4D" fill-opacity="1"/></g><g><path d="M44.661371792945864,112.49309840335083Q44.65046179294586,112.40311970335082,44.65046179294586,112.31248140335083Q44.65046179294586,112.23879110335083,44.65768179294586,112.16545540335083Q44.66491179294586,112.09212040335083,44.679281792945865,112.01984640335083Q44.69366179294586,111.94757140335084,44.715051792945864,111.87705440335083Q44.73644179294586,111.80653740335083,44.76464179294586,111.73845640335082Q44.792841792945865,111.67037540335083,44.827581792945864,111.60538640335083Q44.86232179294586,111.54039740335082,44.90326179294586,111.47912640335083Q44.94420179294586,111.41785440335083,44.99094179294586,111.36089140335083Q45.037691792945864,111.30393140335083,45.08980179294586,111.25182140335083Q45.14191179294586,111.19971140335083,45.19887179294586,111.15296140335083Q45.25583479294586,111.10622140335083,45.317106792945864,111.06528140335082Q45.37837779294586,111.02434140335083,45.44336679294586,110.98960140335083Q45.50835579294586,110.95486140335083,45.57643679294586,110.92666140335083Q45.64451779294586,110.89846140335084,45.715034792945865,110.87707140335083Q45.78555179294586,110.85568140335083,45.857826792945865,110.84130140335083Q45.930100792945865,110.82693140335083,46.003435792945865,110.81970140335083Q46.07677149294586,110.81248140335083,46.15046179294586,110.81248140335083Q46.21848139294586,110.81248140335083,46.28622179294586,110.81864140335082Q46.353962792945865,110.82479140335083,46.42086779294586,110.83705140335083Q46.48777279294586,110.84932140335083,46.55329379294586,110.86758140335083Q46.61881479294586,110.88585140335083,46.68241379294586,110.90997140335082Q46.746011792945865,110.93409140335083,46.807166792945864,110.96387140335084Q46.86832079294586,110.99365140335082,46.92652879294586,111.02884140335082Q46.984737792945864,111.06404140335083,47.03952179294586,111.10435140335083Q47.09430579294586,111.14467140335083,47.14521679294586,111.18978140335084Q47.19613179294586,111.23489140335083,47.242741792945864,111.28442140335083Q47.28936179294586,111.33394940335083,47.33131179294586,111.38749640335082Q47.373251792945865,111.44104340335083,47.41018179294586,111.49816740335083Q47.44711179294586,111.55529140335084,47.47871179294586,111.61552240335082Q47.51031179294586,111.67575340335083,47.53634179294586,111.73859840335084Q47.562361792945865,111.80144340335083,47.58259179294586,111.86638540335083Q47.60282179294586,111.93132740335083,47.617091792945864,111.99783340335082Q47.63136179294586,112.06433940335083,47.63955179294586,112.13186440335083L52.13955179294586,149.23188140335083Q52.15046179294586,149.32178140335083,52.15046179294586,149.41248140335082Q52.15046179294586,149.48618140335083,52.14324179294586,149.55948140335084Q52.136011792945865,149.63278140335083,52.121641792945866,149.70508140335085Q52.10726179294586,149.77738140335083,52.08587179294586,149.84788140335084Q52.06448179294586,149.91838140335082,52.036281792945864,149.98648140335084Q52.00808179294586,150.05458140335082,51.97334179294586,150.11958140335082Q51.93860179294586,150.18458140335082,51.89766179294586,150.24578140335083Q51.85672179294586,150.30708140335082,51.80998179294586,150.36408140335084Q51.76323179294586,150.42098140335082,51.71112179294586,150.47308140335082Q51.65901179294586,150.5251814033508,51.602051792945865,150.57198140335083Q51.54509179294586,150.61868140335082,51.483811792945865,150.65968140335082Q51.422541792945864,150.70058140335084,51.35755179294586,150.73538140335083Q51.292571792945864,150.77008140335084,51.22448179294586,150.7982814033508Q51.156401792945864,150.82648140335084,51.08589179294586,150.84788140335084Q51.015371792945864,150.86928140335084,50.943091792945864,150.88368140335083Q50.87082179294586,150.89798140335083,50.79749179294586,150.90528140335084Q50.72415179294586,150.91248140335082,50.65046179294586,150.91248140335082Q50.582441792945865,150.91248140335082,50.514701792945864,150.90628140335082Q50.446961792945864,150.9001814033508,50.38006179294586,150.88788140335083Q50.31315179294586,150.87558140335082,50.24763179294586,150.85738140335081Q50.18211179294586,150.83908140335083,50.11851179294586,150.81498140335083Q50.05491179294586,150.79088140335082,49.99376179294586,150.76108140335083Q49.93260179294586,150.73128140335083,49.874391792945865,150.69608140335083Q49.81618179294586,150.66088140335083,49.76140179294586,150.62058140335083Q49.70662179294586,150.58028140335082,49.655711792945866,150.53518140335083Q49.604801792945864,150.4900814033508,49.55818179294586,150.44048140335082Q49.51156179294586,150.39098140335082,49.46961179294586,150.33748140335084Q49.42767179294586,150.28388140335085,49.39074179294586,150.22678140335083Q49.353821792945865,150.16968140335084,49.322211792945865,150.10938140335082Q49.29061179294586,150.04918140335081,49.26458179294586,149.98638140335083Q49.23856179294586,149.92348140335082,49.21833179294586,149.85858140335083Q49.19810179294586,149.79358140335083,49.18383179294586,149.72708140335084Q49.16956179294586,149.66058140335082,49.161371792945864,149.59308140335082L44.661371792945864,112.49309840335083Z" fill-rule="evenodd" fill="#FFFFFF" fill-opacity="1"/></g><g><path d="M226.63789958591462,100.2825922998352Q226.7504695859146,100.0086472998352,226.7504695859146,99.7124752998352Q226.7504695859146,99.63878499983521,226.7432495859146,99.56544929983521Q226.73601958591462,99.49211429983521,226.7216495859146,99.4198402998352Q226.70726958591462,99.34756529983521,226.68587958591462,99.2770482998352Q226.66448958591462,99.2065312998352,226.63628958591462,99.1384502998352Q226.6080895859146,99.0703692998352,226.5733495859146,99.00538029983521Q226.5386095859146,98.9403912998352,226.49766958591462,98.87912029983521Q226.45672958591462,98.8178482998352,226.4099795859146,98.76088529983521Q226.3632395859146,98.7039252998352,226.3111295859146,98.6518152998352Q226.25901958591461,98.59970529983521,226.2020595859146,98.5529552998352Q226.1450895859146,98.5062152998352,226.08381958591463,98.4652752998352Q226.02254958591462,98.4243352998352,225.95755958591462,98.38959529983521Q225.8925695859146,98.35485529983521,225.82448958591462,98.32665529983521Q225.7564095859146,98.29845529983521,225.68589958591463,98.2770652998352Q225.6153795859146,98.2556752998352,225.5430995859146,98.2412952998352Q225.4708295859146,98.2269252998352,225.3974895859146,98.21969529983521Q225.3241595859146,98.2124752998352,225.2504695859146,98.2124752998352Q225.1395595859146,98.2124752998352,225.0298595859146,98.22878529983521Q224.9201495859146,98.2450952998352,224.8140395859146,98.27736529983521Q224.7079295859146,98.30963529983521,224.60771958591462,98.3571652998352Q224.50750958591462,98.40468529983521,224.41537958591462,98.46643529983521Q224.32324958591462,98.52817529983521,224.24119958591461,98.60280529983521Q224.1591495859146,98.6774252998352,224.0889695859146,98.76330629983521Q224.01878958591462,98.84918629983521,223.9619995859146,98.9444552998352Q223.90521458591462,99.0397232998352,223.86305758591462,99.14230729983521L223.86303358591462,99.14236429983521L223.8626905859146,99.1431992998352Q223.06631658591462,101.0815252998352,222.40148958591462,103.93719529983521Q221.06677958591462,109.67026529983521,221.6617295859146,114.49607529983521Q221.7919295859146,115.55207529983521,222.1308485859146,117.8622752998352Q222.67652358591462,121.5817752998352,222.90822148591462,123.7208752998352Q223.30137658591462,127.35057529983521,223.36599258591463,130.73597529983522Q223.53548458591462,139.6157752998352,221.4843795859146,149.0952752998352Q221.4504495859146,149.2520752998352,221.4504495859146,149.4124752998352Q221.4504495859146,149.4861752998352,221.4576695859146,149.5594752998352Q221.46489958591462,149.6327752998352,221.4792695859146,149.70507529983522Q221.49364958591462,149.7773752998352,221.51503958591462,149.8478752998352Q221.53642958591462,149.9183752998352,221.56462958591462,149.9864752998352Q221.59282958591461,150.05457529983522,221.6275695859146,150.11957529983522Q221.6623095859146,150.18457529983522,221.70324958591462,150.2457752998352Q221.74418958591463,150.30707529983522,221.79092958591463,150.3640752998352Q221.8376795859146,150.42097529983522,221.8897895859146,150.47307529983522Q221.9418995859146,150.5251752998352,221.9988595859146,150.5719752998352Q222.0558225859146,150.61867529983522,222.1170945859146,150.65967529983521Q222.1783655859146,150.7005752998352,222.2433545859146,150.7353752998352Q222.3083435859146,150.7700752998352,222.3764245859146,150.7982752998352Q222.4445055859146,150.8264752998352,222.5150225859146,150.8478752998352Q222.5855395859146,150.8692752998352,222.65781458591462,150.8836752998352Q222.73008858591461,150.8979752998352,222.8034235859146,150.9052752998352Q222.8767592859146,150.9124752998352,222.9504495859146,150.9124752998352Q223.0780415859146,150.9124752998352,223.20379958591462,150.89087529983522Q223.3295575859146,150.8693752998352,223.4498695859146,150.8268752998352Q223.5701815859146,150.7843752998352,223.68159058591462,150.72217529983521Q223.7929985859146,150.6599752998352,223.89230158591462,150.5798752998352Q223.9916095859146,150.49977529983522,224.0759495859146,150.4040752998352Q224.1602995859146,150.3082752998352,224.22725958591462,150.1996752998352Q224.29421958591462,150.0910752998352,224.34187958591463,149.9727752998352Q224.3895395859146,149.8543752998352,224.4165195859146,149.7296752998352L224.4167395859146,149.7286752998352Q226.5416095859146,139.9078752998352,226.3654495859146,130.67867529983522Q226.2982895859146,127.1600752998352,225.8907795859146,123.3978752998352Q225.6529795859146,121.20237529983521,225.0990795859146,117.42677529983521Q224.7651695859146,115.1507752998352,224.6391895859146,114.1289752998352Q224.10939958591462,109.8317752998352,225.3233495859146,104.61743529983521Q225.70565958591462,102.9752652998352,226.21758958591462,101.44512529983521Q226.4690795859146,100.6934452998352,226.63787958591462,100.28264529983521L226.63789958591462,100.2825922998352L226.63789958591462,100.2825922998352Z" fill-rule="evenodd" fill="#FFFFFF" fill-opacity="1"/></g></g><g><path d="M146.25051660251617,33.41244663772583C152.05051660251615,33.21244663772583,156.55051660251615,32.41244663772583,160.25051660251617,31.41244663772583C172.25051660251617,28.11244663772583,174.45001660251617,22.31244663772583,177.6500166025162,25.11244663772583C182.75001660251615,29.51244663772583,183.95001660251617,32.71244663772583,187.75001660251615,44.11244663772583C189.6500166025162,50.01244663772583,192.05001660251617,58.31244663772583,188.05001660251617,76.61244663772582C183.85001660251618,95.61244663772582,153.75051660251617,104.81244663772583,126.45051660251617,94.71244663772583C90.45051660251617,81.41244663772584,68.65047660251618,58.81244663772583,73.25047460251618,44.11244663772583C74.85047660251618,38.81244663772583,72.75046860251618,32.11244663772583,73.65046660251618,28.01244663772583C75.65046660251618,18.31244663772583,79.25047660251617,14.31247663772583,79.25047660251617,14.31247663772583C79.25047660251617,14.31247663772583,79.85046660251618,13.41245663772583,81.15046660251618,12.01245663772583C82.45046660251617,10.612456637725831,89.65051660251618,8.01245423772583,89.65051660251618,8.01245423772583C90.05051660251618,7.81245463772583,90.65051660251618,8.41245363772583,91.95051660251617,9.51245663772583C97.15051660251618,15.112456637725831,111.75051660251617,34.71244663772583,146.25051660251617,33.41244663772583Z" fill="#FFFFFF" fill-opacity="1"/></g><g><path d="M92.74984179294586,8.39198698928833Q93.14209179294586,8.81441798928833,94.07047179294587,9.858998989288331Q102.24076179294586,19.051946989288332,110.51606179294586,23.83085698928833Q125.65966179294585,32.57595698928833,145.89396179294584,31.81355698928833Q153.29116179294587,31.55845698928833,159.55906179294587,29.864456989288332Q159.75136179294586,29.81245698928833,159.95046179294587,29.81245698928833Q160.02416179294585,29.81245698928833,160.09746179294586,29.81965698928833Q160.17086179294586,29.82695698928833,160.24306179294587,29.84125698928833Q160.31536179294585,29.85565698928833,160.38586179294586,29.87705698928833Q160.45636179294587,29.89845698928833,160.52446179294586,29.92665698928833Q160.59256179294584,29.95485698928833,160.65756179294584,29.98955698928833Q160.72256179294587,30.02435698928833,160.78376179294588,30.06525698928833Q160.84506179294584,30.10625698928833,160.90206179294586,30.15295698928833Q160.95906179294587,30.19975698928833,161.01116179294587,30.25185698928833Q161.06326179294587,30.30395698928833,161.10996179294585,30.36085698928833Q161.15676179294587,30.41785698928833,161.19766179294587,30.47915698928833Q161.23856179294586,30.54035698928833,161.27336179294588,30.60535698928833Q161.30806179294586,30.67035698928833,161.33626179294586,30.73845698928833Q161.36446179294586,30.80655698928833,161.38586179294586,30.87705698928833Q161.40726179294586,30.94755698928833,161.42166179294586,31.01985698928833Q161.43606179294585,31.09215698928833,161.44326179294586,31.16545698928833Q161.45046179294587,31.23875698928833,161.45046179294587,31.31245698928833Q161.45046179294587,31.43525698928833,161.43046179294586,31.55645698928833Q161.41056179294586,31.67755698928833,161.37116179294586,31.79385698928833Q161.33166179294585,31.91015698928833,161.27396179294587,32.01845698928833Q161.21616179294585,32.12685698928833,161.14146179294585,32.22435698928833Q161.06686179294587,32.321856989288335,160.97736179294586,32.40585698928833Q160.88786179294584,32.48995698928833,160.78586179294587,32.55835698928833Q160.68386179294586,32.62675698928833,160.57216179294585,32.677556989288334Q160.46036179294586,32.72845698928833,160.34186179294585,32.76055698928833Q153.74016179294586,34.54475698928833,146.00696179294584,34.81145698928833Q124.90836179294587,35.60645698928833,109.01586179294586,26.42875698928833Q100.32052179294587,21.40735698928833,91.82808979294586,11.85192698928833Q90.92122079294586,10.83153698928833,90.55127179294587,10.43313698928833Q90.35805179294586,10.22504798928833,90.25425179294587,9.96073398928833Q90.15046179294586,9.69641998928833,90.15046179294586,9.41245698928833Q90.15046179294586,9.33876668928833,90.15768179294587,9.26543098928833Q90.16491179294586,9.19209598928833,90.17928179294586,9.11982198928833Q90.19366179294586,9.04754698928833,90.21505179294586,8.97702998928833Q90.23644179294587,8.90651298928833,90.26464179294587,8.83843198928833Q90.29284179294586,8.77035098928833,90.32758179294586,8.70536198928833Q90.36232179294586,8.64037298928833,90.40326179294586,8.579101989288331Q90.44420179294586,8.51782998928833,90.49094179294586,8.46086698928833Q90.53769179294586,8.40390698928833,90.58980179294586,8.35179698928833Q90.64191179294586,8.29968698928833,90.69887179294587,8.25293698928833Q90.75583479294586,8.20619698928833,90.81710679294586,8.16525698928833Q90.87837779294586,8.12431698928833,90.94336679294587,8.08957698928833Q91.00835579294586,8.05483698928833,91.07643679294586,8.02663698928833Q91.14451779294586,7.99843698928833,91.21503479294586,7.97704698928833Q91.28555179294587,7.95565698928833,91.35782679294586,7.94127698928833Q91.43010079294586,7.92690698928833,91.50343579294587,7.91967698928833Q91.57677149294587,7.91245698928833,91.65046179294586,7.91245698928833Q91.80521079294586,7.91245698928833,91.95670079294587,7.94404698928833Q92.10818979294586,7.975646989288331,92.25003879294586,8.03749698928833Q92.39188779294587,8.09935698928833,92.51811979294587,8.18886698928833Q92.64435279294587,8.27837698928833,92.74965179294585,8.39177698928833L92.74974179294585,8.39187698928833L92.74984179294586,8.39198698928833Z" fill-rule="evenodd" fill="#CCCCCC" fill-opacity="1"/></g><g><path d="M169.65047429294586,59.31246309280395C169.25047429294585,68.11246309280395,166.45047429294587,79.81246309280395,158.75049429294586,96.11246309280395C156.25049429294586,101.41246309280396,154.75048019294587,112.71246309280396,154.85048024294585,119.21246309280396C154.95048029294585,125.81246309280395,159.95048429294587,131.21246309280394,163.85048429294585,132.11246309280395C164.35048429294585,132.21246309280394,164.75048429294586,132.21246309280394,165.15047429294586,132.21246309280394C167.15047429294586,132.01246309280396,169.05047429294586,132.81246309280397,169.85047429294588,134.61246309280395C170.65047429294586,136.51246309280396,171.75047429294585,137.61246309280395,173.15047429294586,137.41246309280396C173.35047429294588,137.41246309280396,173.45047429294587,137.41246309280396,173.65047429294586,137.31246309280397C175.65047429294586,136.61246309280395,177.65047429294586,137.11246309280395,179.05047429294586,138.41246309280396C179.65047429294586,139.01246309280396,180.35047429294588,139.41246309280396,181.25047429294585,139.41246309280396C181.75047429294585,139.41246309280396,182.15047429294586,139.21246309280394,182.55047429294586,138.91246309280396C184.05047429294586,137.71246309280394,185.95047429294587,137.21246309280394,187.65047429294586,137.71246309280394C188.05047429294586,137.81246309280397,188.65047429294586,137.91246309280396,189.25047429294585,137.71246309280394C190.15047429294586,137.51246309280396,190.75047429294585,137.01246309280396,191.25047429294585,136.31246309280397C192.55047429294586,134.51246309280396,194.85047429294588,133.31246309280397,196.95047429294587,133.81246309280397C197.55047429294586,133.91246309280396,198.25047429294585,133.91246309280396,198.85047429294588,133.51246309280396C199.55047429294586,133.11246309280395,200.05047429294586,132.61246309280395,200.35047429294588,131.91246309280396C201.15047429294586,130.31246309280397,202.75047429294585,129.51246309280396,204.45047429294587,129.11246309280395C204.85047429294588,129.01246309280396,205.35047429294588,128.71246309280394,205.75047429294585,128.11246309280395C208.15047429294586,124.61246309280395,197.45047429294587,115.51246309280396,199.35047429294588,93.51246309280396C203.15047429294586,49.012463092803955,187.35047429294588,29.112463092803956,178.25047429294585,21.512463092803955C178.25047429294585,21.512463092803955,171.45047429294587,26.412463092803954,161.25049429294586,28.512463092803955C160.25049429294586,28.812463092803956,170.45047429294587,43.21246309280396,169.65047429294586,59.31246309280395Z" fill="#FFFFFF" fill-opacity="1"/></g><g><path d="M163.30963179294585,30.077913299835206Q163.46918179294588,30.418751299835204,163.84706179294585,31.211254299835204Q167.04636179294587,37.921105299835205,168.59832179294585,42.790175299835205Q171.42286179294587,51.65177529983521,171.04866179294586,59.384975299835205Q170.34486179294586,74.86857529983521,160.00674179294586,96.7531752998352Q159.96144179294586,96.8490752998352,159.90309179294587,96.9376752998352Q159.84474179294585,97.0262752998352,159.77451179294587,97.1056752998352Q159.70428179294586,97.18517529983521,159.62356579294587,97.2539752998352Q159.54284979294587,97.3227752998352,159.45325379294587,97.37957529983521Q159.36365779294587,97.4363752998352,159.26696579294585,97.4798752998352Q159.17027379294586,97.52347529983521,159.06840879294586,97.5530752998352Q158.96654479294585,97.5825752998352,158.86153579294586,97.5975752998352Q158.75652679294586,97.61247529983521,158.65046179294586,97.61247529983521Q158.57677149294585,97.61247529983521,158.50343579294585,97.6052752998352Q158.43010079294586,97.5980752998352,158.35782679294587,97.5836752998352Q158.28555179294585,97.56927529983521,158.21503479294586,97.54787529983521Q158.14451779294586,97.5264752998352,158.07643679294586,97.4982752998352Q158.00835579294585,97.4700752998352,157.94336679294585,97.4353752998352Q157.87837779294586,97.40057529983521,157.81710679294585,97.3596752998352Q157.75583479294585,97.31877529983521,157.69887179294585,97.2719752998352Q157.64191179294585,97.2252752998352,157.58980179294585,97.1730752998352Q157.53769179294585,97.12097529983521,157.49094179294588,97.06407529983521Q157.44420179294588,97.00707529983521,157.40326179294587,96.9457752998352Q157.36232179294586,96.8845752998352,157.32758179294586,96.81957529983521Q157.29284179294586,96.75457529983521,157.26464179294587,96.68647529983521Q157.23644179294587,96.61837529983521,157.21505179294587,96.54787529983521Q157.19366179294587,96.4773752998352,157.17928179294586,96.4050752998352Q157.16491179294587,96.33287529983521,157.15768179294585,96.2594752998352Q157.15046179294586,96.1861752998352,157.15046179294586,96.11247529983521Q157.15046179294586,95.77597529983521,157.29418179294586,95.4717752998352Q167.37533179294587,74.1311752998352,168.05221179294585,59.23997529983521Q168.40024179294585,52.047275299835206,165.74000179294586,43.70117529983521Q164.25026179294585,39.027345299835204,161.13912179294587,32.50241529983521Q160.75591179294585,31.698718299835207,160.59193179294587,31.348385299835204Q160.45046179294587,31.046165299835206,160.45046179294587,30.712475299835205Q160.45046179294587,30.638784999835206,160.45769179294587,30.565449299835205Q160.46491179294586,30.492114299835205,160.47928179294587,30.419840299835204Q160.49366179294586,30.347565299835207,160.51505179294585,30.277048299835204Q160.53644179294585,30.206531299835206,160.56464179294585,30.138450299835206Q160.59284179294588,30.070369299835207,160.62758179294588,30.005380299835206Q160.66232179294587,29.940391299835206,160.70326179294585,29.879120299835204Q160.74420179294586,29.817848299835205,160.79095179294586,29.760885299835206Q160.83770179294586,29.703925299835205,160.88980179294586,29.651815299835206Q160.94191179294586,29.599705299835204,160.99887179294586,29.552955299835205Q161.05584179294587,29.506215299835205,161.11711179294585,29.465275299835206Q161.17838179294586,29.424335299835207,161.24337179294585,29.389595299835204Q161.30836179294587,29.354855299835204,161.37644179294585,29.326655299835206Q161.44452179294586,29.298455299835204,161.51504179294585,29.277065299835204Q161.58555179294586,29.255675299835204,161.65783179294587,29.241295299835205Q161.73010179294587,29.226925299835205,161.80344179294588,29.219695299835205Q161.87677179294587,29.212475299835205,161.95046179294587,29.212475299835205Q162.05686179294585,29.212475299835205,162.16219179294586,29.227495299835205Q162.26752179294587,29.242515299835205,162.36968179294587,29.272245299835205Q162.47184179294587,29.301985299835206,162.56878179294586,29.345845299835204Q162.66571179294587,29.389695299835203,162.75549179294586,29.446805299835205Q162.84527179294585,29.503905299835203,162.92608179294587,29.573105299835206Q163.00690179294585,29.642305299835204,163.07714179294587,29.722223299835203Q163.14738179294585,29.802140299835205,163.20564179294587,29.891171299835204Q163.26389179294586,29.980202299835206,163.30900179294585,30.076565299835206L163.30947179294586,30.077579299835204L163.30963179294585,30.077913299835206Z" fill-rule="evenodd" fill="#CCCCCC" fill-opacity="1"/></g><g><path d="M171.04886818943024,59.38059280335083Q171.05046818943023,59.34655470335083,171.05046818943023,59.31248140335083Q171.05046818943023,59.23879110335083,171.04326818943025,59.16545540335083Q171.03596818943024,59.09212040335083,171.02166818943024,59.01984640335083Q171.00726818943025,58.94757140335083,170.98586818943025,58.87705440335083Q170.96446818943025,58.80653740335083,170.93626818943022,58.73845640335083Q170.90806818943022,58.67037540335083,170.87336818943024,58.60538640335083Q170.83856818943025,58.54039740335083,170.79766818943023,58.47912640335083Q170.75676818943023,58.41785440335083,170.70996818943024,58.36089140335083Q170.66326818943023,58.30393140335083,170.61116818943023,58.25182140335083Q170.55896818943023,58.19971140335083,170.50206818943025,58.15296140335083Q170.44506818943023,58.10622140335083,170.38376818943024,58.06528140335083Q170.32256818943023,58.02434140335083,170.25756818943023,57.98960140335083Q170.19256818943023,57.95486140335083,170.12446818943025,57.92666140335083Q170.05636818943023,57.89846140335083,169.98586818943025,57.87707140335083Q169.91536818943024,57.85568140335083,169.84306818943023,57.84130140335083Q169.77086818943025,57.82693140335083,169.69746818943023,57.81970140335083Q169.62416818943024,57.81248140335083,169.55046818943023,57.81248140335083Q169.47886818943024,57.81248140335083,169.40766818943024,57.81929140335083Q169.33646818943024,57.82610140335083,169.26616818943023,57.83966140335083Q169.19596818943023,57.85323140335083,169.12726818943023,57.87341140335083Q169.05866818943025,57.89360140335083,168.99216818943023,57.92023140335083Q168.92576818943024,57.94686140335083,168.86216818943024,57.97969140335083Q168.79866818943023,58.01253140335083,168.73846818943025,58.05126140335083Q168.67826818943024,58.09000140335083,168.62206818943025,58.13428140335083Q168.56586818943023,58.17857140335083,168.51416818943022,58.22801140335083Q168.46246818943024,58.27744140335083,168.41566818943025,58.33157940335083Q168.36886818943023,58.38571440335083,168.32736818943025,58.44405940335083Q168.28596818943024,58.50240340335083,168.25026818943024,58.56442640335083Q168.21466818943023,58.62644940335083,168.18496818943024,58.69158740335083Q168.15536818943025,58.75672540335083,168.13206818943024,58.82438740335083Q168.10876818943024,58.89204940335083,168.09206818943022,58.96162040335083Q168.07536818943024,59.03119140335083,168.06526818943024,59.10203940335083Q168.05526818943025,59.17288740335083,168.05196818943023,59.24437000335083Q167.37536818943025,74.13118140335084,157.29418818943023,95.47178140335083Q155.42960318943022,99.42468140335083,154.24361818943024,106.97988140335083Q153.16755818943022,113.83478140335083,153.25064818943025,119.23558140335084Q153.25177818943024,119.30848140335084,153.25996818943023,119.38098140335083Q153.26816818943024,119.45348140335082,153.28336818943023,119.52488140335083Q153.29856818943023,119.59628140335083,153.32061818943023,119.66578140335082Q153.34266818943024,119.73538140335083,153.37136818943023,119.80248140335084Q153.40006818943024,119.86958140335082,153.43514818943024,119.93348140335084Q153.47021818943023,119.99748140335083,153.51133818943023,120.05778140335083Q153.55245818943024,120.11808140335083,153.59923818943022,120.17408140335084Q153.64601818943024,120.23008140335082,153.69800818943023,120.28128140335083Q153.74999618943025,120.33248140335084,153.80671018943025,120.37838140335083Q153.86342518943025,120.42428140335083,153.92432818943024,120.46448140335083Q153.98523118943024,120.50468140335083,154.04974718943024,120.53878140335084Q154.11426318943023,120.57278140335083,154.18178318943023,120.60048140335083Q154.24930318943024,120.62818140335082,154.31919018943023,120.64918140335084Q154.38907618943023,120.67008140335082,154.46066818943024,120.68418140335083Q154.53226118943024,120.69828140335083,154.60488418943024,120.70538140335083Q154.67750688943025,120.71248140335084,154.75047421943023,120.71248140335084Q154.82416448943025,120.71248140335084,154.89750018943025,120.70528140335082Q154.97083518943023,120.69798140335084,155.04310918943023,120.68368140335083Q155.11538418943024,120.66928140335082,155.18590118943024,120.64788140335082Q155.25641818943024,120.62648140335082,155.32449918943024,120.59828140335082Q155.39258018943025,120.57008140335083,155.45756918943025,120.53538140335084Q155.52255818943024,120.50058140335082,155.58382918943025,120.45968140335083Q155.64510118943025,120.41878140335083,155.70206418943025,120.37198140335083Q155.75902818943024,120.32528140335083,155.81113818943024,120.27318140335083Q155.86323818943023,120.22098140335083,155.90998818943024,120.16408140335082Q155.95673818943024,120.10708140335083,155.99767818943025,120.04578140335083Q156.03861818943022,119.98458140335083,156.07335818943022,119.91958140335083Q156.10809818943022,119.85458140335083,156.13629818943025,119.78648140335082Q156.16449818943025,119.71838140335083,156.18588818943024,119.64788140335082Q156.20727818943024,119.57738140335083,156.22164818943023,119.50508140335083Q156.23602818943024,119.43288140335082,156.24324818943023,119.35948140335083Q156.25047818943023,119.28618140335084,156.25047818943023,119.21248140335084Q156.25047818943023,119.20098140335082,156.25029818943023,119.18938140335084Q156.17116818943023,114.04578140335083,157.20732818943023,107.44508140335083Q158.32654818943024,100.31518140335083,160.00675818943023,96.75318140335082Q170.34496818943023,74.86848140335083,171.04886818943024,59.38059280335083Z" fill-rule="evenodd" fill="#CCCCCC" fill-opacity="1"/></g></g><g><path d="M114.15438294580078,71.01538915527344Q126.32655694580077,80.20539915527344,146.11845694580077,82.43440915527344Q152.3365569458008,83.13470915527344,158.56655694580078,83.04550915527344Q161.6660569458008,83.00110915527344,163.50325694580079,82.81980915527343Q163.57675694580078,82.81250915527343,163.6505569458008,82.81250915527343Q163.7242569458008,82.81250915527343,163.79755694580078,82.81970915527344Q163.87095694580077,82.82700915527343,163.94315694580078,82.84130915527344Q164.0154569458008,82.85570915527344,164.08595694580077,82.87710915527344Q164.15645694580078,82.89850915527344,164.22455694580077,82.92670915527344Q164.2926569458008,82.95490915527344,164.35765694580078,82.98960915527344Q164.42265694580078,83.02440915527343,164.48385694580077,83.06530915527344Q164.54515694580078,83.10620915527343,164.60215694580077,83.15300915527344Q164.65905694580078,83.19970915527344,164.71125694580078,83.25180915527343Q164.76335694580078,83.30400915527343,164.8100569458008,83.36090915527343Q164.85685694580079,83.41790915527343,164.89775694580078,83.47920915527344Q164.93865694580077,83.54040915527344,164.9734569458008,83.60540915527343Q165.00815694580078,83.67040915527343,165.03635694580078,83.73850915527343Q165.06455694580077,83.80660915527343,165.08595694580077,83.87710915527344Q165.10735694580077,83.94760915527344,165.12175694580077,84.01990915527344Q165.1360569458008,84.09210915527343,165.14335694580078,84.16550915527344Q165.1505569458008,84.23880915527344,165.1505569458008,84.31250915527343Q165.1505569458008,84.38160915527344,165.14415694580077,84.45040915527343Q165.1378569458008,84.51920915527344,165.12515694580077,84.58710915527344Q165.11255694580078,84.65500915527343,165.09375694580078,84.72150915527344Q165.07485694580078,84.78800915527344,165.04995694580077,84.85250915527344Q165.02515694580077,84.91690915527343,164.99445694580078,84.97880915527344Q164.96375694580078,85.04070915527343,164.92745694580077,85.09950915527344Q164.8912569458008,85.15840915527343,164.84975694580078,85.21360915527343Q164.8082569458008,85.26880915527343,164.7618569458008,85.32000915527344Q164.71545694580078,85.37120915527343,164.6644569458008,85.41790915527343Q164.61355694580078,85.46460915527344,164.55855694580077,85.50640915527345Q164.50355694580077,85.54830915527344,164.44495694580078,85.58490915527344Q164.3863569458008,85.62150915527344,164.32465694580077,85.65250915527344Q164.2629569458008,85.68360915527344,164.1985569458008,85.70880915527344Q164.1342569458008,85.73400915527344,164.06795694580077,85.75330915527344Q164.0015569458008,85.77250915527344,163.93375694580078,85.78550915527345Q163.86585694580077,85.79860915527344,163.7970569458008,85.80530915527343L163.79385694580077,85.80560915527343Q161.83185694580078,85.99900915527344,158.6095569458008,86.04520915527344Q152.18955694580077,86.13720915527344,145.7826569458008,85.41560915527344Q125.17495694580079,83.09470915527343,112.34720294580079,73.40998915527344Q112.54238594580079,73.55722915527343,112.77422494580078,73.63486915527344Q113.00606294580078,73.71250915527344,113.25055694580078,73.71250915527344Q113.32424724580078,73.71250915527344,113.39758294580078,73.70528915527343Q113.47091794580078,73.69805915527344,113.54319194580079,73.68368915527344Q113.61546694580078,73.66930915527344,113.68598394580079,73.64791915527344Q113.75650094580078,73.62652915527343,113.82458194580079,73.59832915527343Q113.89266294580078,73.57012915527343,113.95765194580078,73.53538915527344Q114.02264094580079,73.50064915527344,114.08391194580078,73.45970915527344Q114.14518394580078,73.41876915527344,114.20214694580078,73.37202915527344Q114.25910694580078,73.32527915527344,114.31121694580078,73.27316915527344Q114.36332694580078,73.22105915527344,114.41007694580078,73.16409915527343Q114.45681694580078,73.10713615527344,114.49775694580079,73.04586415527343Q114.53869694580078,72.98459315527344,114.57343694580078,72.91960415527343Q114.60817694580078,72.85461515527344,114.63637694580078,72.78653415527344Q114.66457694580077,72.71845315527344,114.68596694580079,72.64793615527344Q114.70735694580078,72.57741915527343,114.72173694580079,72.50514415527344Q114.73610694580078,72.43287015527343,114.74333694580078,72.35953515527343Q114.75055694580078,72.28619945527343,114.75055694580078,72.21250915527344Q114.75055694580078,72.03846515527344,114.71070694580078,71.86904515527344Q114.67085694580078,71.69962515527344,114.59326694580078,71.54383115527344Q114.51567694580078,71.38803715527344,114.40448694580078,71.25414815527344Q114.29328694580079,71.12025915527343,114.15438294580078,71.01538915527344Q113.95913694580078,70.86797915527343,113.72716894580078,70.79023915527344Q113.49520194580079,70.71250915527344,113.25055694580078,70.71250915527344Q113.17686664580079,70.71250915527344,113.10353094580078,70.71972915527344Q113.03019594580078,70.72695915527343,112.95792194580078,70.74132915527343Q112.88564694580079,70.75570915527344,112.81512994580078,70.77709915527343Q112.74461294580078,70.79848915527344,112.67653194580078,70.82668915527344Q112.60845094580078,70.85488915527344,112.54346194580079,70.88962915527344Q112.47847294580077,70.92436915527344,112.41720194580078,70.96530915527343Q112.35592994580078,71.00624915527344,112.29896694580079,71.05298915527344Q112.24200694580078,71.09973915527344,112.18989694580078,71.15184915527344Q112.13778694580078,71.20395915527344,112.09103694580078,71.26091915527344Q112.04429694580078,71.31788215527344,112.00335694580077,71.37915415527344Q111.96241694580078,71.44042515527343,111.92767694580078,71.50541415527344Q111.89293694580078,71.57040315527344,111.86473694580079,71.63848415527343Q111.83653694580079,71.70656515527344,111.81514694580078,71.77708215527343Q111.79375694580078,71.84759915527344,111.77937694580078,71.91987415527343Q111.76500694580078,71.99214815527344,111.75777694580079,72.06548315527344Q111.75055694580078,72.13881885527344,111.75055694580078,72.21250915527344Q111.75055694580078,72.38655315527343,111.79040694580078,72.55597315527343Q111.83025694580078,72.72539315527344,111.90784694580078,72.88118715527344Q111.98543694580079,73.03698115527344,112.09662694580078,73.17087015527343Q112.20782694580078,73.30475915527344,112.34673094580079,73.40962915527344L114.15438294580078,71.01538915527344Z" fill-rule="evenodd" fill="#CCCCCC" fill-opacity="1"/></g><g><path d="M173.0901422314453,30.767726754638673Q179.1312822314453,39.61418975463867,180.1414622314453,48.94672975463867Q180.14169223144532,48.94882975463867,180.1419222314453,48.95092975463867L180.14196223144532,48.95132975463867Q180.15065223144532,49.031729754638675,180.15065223144532,49.11252975463867Q180.15065223144532,49.186229754638674,180.1434222314453,49.25952975463867Q180.1362022314453,49.33292975463867,180.12182223144532,49.40512975463867Q180.1074522314453,49.47742975463867,180.0860622314453,49.54792975463867Q180.06467223144531,49.61842975463867,180.03647223144532,49.68652975463867Q180.00827223144532,49.75462975463867,179.97353223144532,49.81962975463867Q179.93879223144532,49.88462975463867,179.8978522314453,49.94592975463867Q179.8569122314453,50.00712975463867,179.8101622314453,50.06412975463867Q179.7634122314453,50.12112975463867,179.7113122314453,50.17322975463867Q179.6592022314453,50.22532975463867,179.6022422314453,50.27202975463867Q179.54527223144532,50.31882975463867,179.48400223144532,50.35972975463867Q179.4227322314453,50.40062975463867,179.35774223144531,50.435429754638676Q179.29275223144532,50.47012975463868,179.2246722314453,50.498329754638675Q179.1565922314453,50.52652975463867,179.0860722314453,50.54792975463867Q179.0155622314453,50.56932975463867,178.94328223144532,50.58372975463867Q178.87101223144532,50.59812975463868,178.79767223144532,50.605329754638674Q178.72434223144532,50.61252975463867,178.65065223144532,50.61252975463867Q178.5820222314453,50.61252975463867,178.5136722314453,50.606229754638676Q178.44533223144532,50.60002975463867,178.3778422314453,50.58752975463867Q178.3103622314453,50.57502975463867,178.2442922314453,50.55642975463867Q178.17823223144532,50.53782975463867,178.1141422314453,50.513329754638676Q178.0500522314453,50.48872975463867,177.9884622314453,50.45842975463867Q177.92688223144532,50.428129754638675,177.86833223144532,50.39232975463867Q177.80977223144532,50.35652975463867,177.7547222314453,50.315529754638675Q177.6996822314453,50.27462975463867,177.64861223144533,50.22872975463867Q177.59754223144532,50.18292975463867,177.5508722314453,50.13252975463867Q177.5042022314453,50.082229754638675,177.4623222314453,50.02792975463868Q177.42043223144532,49.973529754638676,177.3836922314453,49.91552975463867Q177.3469522314453,49.857529754638676,177.31566223144532,49.79652975463867Q177.2843622314453,49.73542975463867,177.2587822314453,49.671729754638676Q177.23319223144532,49.60802975463867,177.2135322314453,49.54232975463867Q177.1938722314453,49.476529754638676,177.18029223144532,49.40922975463867Q177.1667122314453,49.34202975463867,177.15934223144532,49.27372975463867Q176.23096223144532,40.68629975463867,170.61196223144532,32.45847175463867Q170.48429223144532,32.27152175463867,170.41747223144532,32.05521875463867Q170.3506622314453,31.838915754638673,170.3506622314453,31.612529754638672Q170.3506622314453,31.538839454638673,170.3578822314453,31.46550375463867Q170.36511223144532,31.39216875463867,170.3794822314453,31.31989475463867Q170.39386223144533,31.247619754638674,170.41525223144532,31.17710275463867Q170.43664223144532,31.106585754638672,170.46484223144532,31.038504754638673Q170.49304223144532,30.970423754638674,170.52778223144531,30.905434754638673Q170.5625222314453,30.840445754638672,170.60346223144532,30.77917475463867Q170.64440223144533,30.717902754638672,170.69114223144533,30.660939754638672Q170.7378922314453,30.603979754638672,170.7900022314453,30.551869754638673Q170.8421122314453,30.49975975463867,170.8990722314453,30.45300975463867Q170.9560352314453,30.40626975463867,171.0173072314453,30.365329754638672Q171.0785782314453,30.324389754638673,171.1435672314453,30.28964975463867Q171.2085562314453,30.25490975463867,171.2766372314453,30.226709754638673Q171.3447182314453,30.19850975463867,171.4152352314453,30.17711975463867Q171.4857522314453,30.15572975463867,171.55802723144532,30.14134975463867Q171.63030123144532,30.126979754638672,171.7036362314453,30.119749754638672Q171.7769719314453,30.112529754638672,171.8506622314453,30.112529754638672Q172.0337422314453,30.112529754638672,172.2114472314453,30.15656975463867Q172.3891532314453,30.200599754638674,172.55105023144532,30.28607975463867Q172.7129472314453,30.37156975463867,172.8495302314453,30.49347975463867Q172.9861122314453,30.615399754638673,173.0893622314453,30.76658775463867L173.0894622314453,30.76673275463867L173.0901422314453,30.767726754638673Z" fill-rule="evenodd" fill="#CCCCCC" fill-opacity="1"/></g><g><path d="M185.9807318408203,66.41130356933594Q185.95067184082032,66.26343056933594,185.95067184082032,66.11253356933594Q185.95067184082032,66.03884326933594,185.9578918408203,65.96550756933594Q185.9651218408203,65.89217256933594,185.97949184082032,65.81989856933593Q185.9938718408203,65.74762356933594,186.0152618408203,65.67710656933593Q186.03665184082033,65.60658956933594,186.06485184082032,65.53850856933593Q186.09305184082032,65.47042756933594,186.12779184082032,65.40543856933594Q186.16253184082032,65.34044956933593,186.2034718408203,65.27917856933594Q186.2444118408203,65.21790656933594,186.2911518408203,65.16094356933594Q186.3379018408203,65.10398356933594,186.3900118408203,65.05187356933594Q186.4421218408203,64.99976356933594,186.4990818408203,64.95301356933594Q186.5560418408203,64.90627356933594,186.61731184082032,64.86533356933593Q186.6785918408203,64.82439356933594,186.74358184082033,64.78965356933594Q186.80856184082032,64.75491356933594,186.8766418408203,64.72671356933594Q186.9447318408203,64.69851356933594,187.01524184082032,64.67712356933593Q187.0857618408203,64.65573356933594,187.1580318408203,64.64135356933593Q187.23031184082032,64.62698356933593,187.30365184082032,64.61975356933594Q187.37698184082032,64.61253356933594,187.45067184082032,64.61253356933594Q187.57945184082033,64.61253356933594,187.7063418408203,64.63448356933594Q187.8332418408203,64.65643356933593,187.95453184082032,64.69969356933593Q188.0758318408203,64.74295356933594,188.18797184082032,64.80624356933593Q188.3001218408203,64.86954356933593,188.3998418408203,64.95103356933593Q188.49956184082032,65.03252356933594,188.5839318408203,65.12981656933594Q188.6682918408203,65.22710856933594,188.7348418408203,65.33735756933594Q188.80139184082032,65.44760656933593,188.8481818408203,65.56758656933594Q188.89496184082032,65.68756556933593,188.9206118408203,65.81376356933593Q189.5768918408203,69.04261356933594,189.52562184082032,75.39962356933594Q189.4243818408203,87.95363356933593,186.01686184082033,103.72923356933595Q182.8821078408203,118.17373356933594,184.1281718408203,129.20203356933592Q184.51210184082032,132.60003356933595,185.2736718408203,135.23843356933594Q185.6373218408203,136.49833356933595,185.90492184082032,137.06753356933592Q185.90599184082032,137.06983356933594,185.90705184082032,137.07203356933593L185.90723184082032,137.07243356933594Q186.05068184082032,137.37633356933594,186.05068184082032,137.71253356933593Q186.05068184082032,137.78623356933593,186.04345184082032,137.85953356933595Q186.0362318408203,137.93293356933594,186.02185184082032,138.00513356933595Q186.0074818408203,138.07743356933594,185.9860918408203,138.14793356933592Q185.9647018408203,138.21843356933596,185.9365018408203,138.28653356933594Q185.90830184082031,138.35463356933593,185.87356184082032,138.41963356933593Q185.83882184082032,138.48463356933593,185.7978818408203,138.54593356933594Q185.7569418408203,138.60713356933593,185.7101918408203,138.66413356933595Q185.66344184082033,138.72113356933593,185.6113418408203,138.77323356933596Q185.5592318408203,138.82533356933595,185.5022718408203,138.87203356933594Q185.44530184082032,138.91883356933593,185.3840318408203,138.95973356933592Q185.3227618408203,139.00063356933595,185.2577718408203,139.03543356933594Q185.19278184082032,139.07013356933595,185.1247018408203,139.09833356933592Q185.0566218408203,139.12653356933595,184.9861018408203,139.14793356933592Q184.91559184082033,139.16933356933595,184.84331184082032,139.18373356933594Q184.77104184082032,139.19813356933594,184.69770184082032,139.20533356933595Q184.62437184082032,139.21253356933593,184.55068184082032,139.21253356933593Q184.44460184082033,139.21253356933593,184.3395818408203,139.19763356933595Q184.2345618408203,139.18263356933593,184.1326818408203,139.15313356933592Q184.03080184082032,139.12353356933593,183.93410184082032,139.07993356933594Q183.83740184082032,139.03633356933594,183.7478018408203,138.97963356933593Q183.6582018408203,138.92283356933592,183.57748184082033,138.85393356933594Q183.4967618408203,138.78513356933593,183.4265218408203,138.70563356933593Q183.35629184082032,138.62613356933593,183.2979518408203,138.53753356933595Q183.2396048408203,138.44893356933594,183.19430884082033,138.35303356933593L183.1941258408203,138.35263356933592Q182.8232098408203,137.56663356933592,182.3913418408203,136.07043356933593Q181.5595138408203,133.18853356933593,181.14714184082032,129.53883356933594Q179.84565184082032,118.01993356933593,183.0844918408203,103.09583356933594Q186.4269718408203,87.62143356933593,186.52572184082032,75.37543356933594Q186.55634184082032,71.57920356933593,186.2639518408203,68.57009356933594Q186.1214818408203,67.10380256933594,185.9807318408203,66.41130356933594Z" fill-rule="evenodd" fill="#CCCCCC" fill-opacity="1"/></g><g><path d="M72.10210811767578,33.66968516870117Q71.95050811767578,33.35860716870117,71.95050811767578,33.01255416870117Q71.95050811767578,32.93886386870117,71.95772811767579,32.865528168701175Q71.96495811767578,32.792193168701175,71.97932811767578,32.719919168701175Q71.99370811767578,32.64764416870117,72.01509811767578,32.577127168701175Q72.03648811767579,32.50661016870117,72.06468811767579,32.43852916870117Q72.09288811767578,32.370448168701174,72.12762811767578,32.30545916870117Q72.16236811767578,32.24047016870117,72.20330811767577,32.179199168701174Q72.24424811767578,32.11792716870117,72.29098811767578,32.06096416870117Q72.33773811767578,32.00400416870117,72.38984811767578,31.951894168701173Q72.44195811767578,31.89978416870117,72.49891811767579,31.85303416870117Q72.55588111767578,31.80629416870117,72.61715311767578,31.765354168701172Q72.67842411767577,31.724414168701173,72.74341311767579,31.68967416870117Q72.80840211767578,31.65493416870117,72.87648311767578,31.626734168701173Q72.94456411767578,31.59853416870117,73.01508111767578,31.57714416870117Q73.08559811767579,31.55575416870117,73.15787311767578,31.54137416870117Q73.23014711767578,31.527004168701172,73.30348211767578,31.519774168701172Q73.37681781767579,31.512554168701172,73.45050811767578,31.512554168701172Q73.55556811767578,31.512554168701172,73.65960211767577,31.52720416870117Q73.76363611767579,31.54184416870117,73.86461311767579,31.57084416870117Q73.96559011767579,31.59985416870117,74.06153811767578,31.64264416870117Q74.15748611767579,31.68544416870117,74.24653111767579,31.74119416870117Q74.33557711767578,31.796954168701173,74.41598211767578,31.86457416870117Q74.49638811767578,31.932194168701173,74.56657811767577,32.01036416870117Q74.63676811767579,32.08853316870117,74.69538811767578,32.17572416870117Q74.75399811767578,32.26291516870117,74.79987811767577,32.35742516870117Q76.43819811767578,35.731874168701175,79.08079811767578,39.910864168701174Q84.31890811767578,48.19445416870117,89.18040811767578,52.03565416870117Q89.31370811767579,52.14095416870117,89.42010811767578,52.273354168701175Q89.52640811767579,52.40585416870117,89.60050811767579,52.55865416870117Q89.67450811767579,52.71155416870117,89.71250811767578,52.87715416870117Q89.75050811767578,53.042654168701176,89.75050811767578,53.212554168701175Q89.75050811767578,53.28625416870118,89.74330811767578,53.35955416870117Q89.73610811767578,53.43295416870117,89.72170811767577,53.50515416870117Q89.70730811767578,53.57745416870117,89.68590811767578,53.647954168701176Q89.66450811767578,53.718554168701175,89.63630811767578,53.78655416870117Q89.60810811767578,53.854654168701174,89.57340811767578,53.91965416870117Q89.53860811767578,53.98465416870117,89.49770811767578,54.04595416870117Q89.45680811767578,54.10715416870117,89.41000811767579,54.164154168701174Q89.36330811767579,54.221154168701176,89.31120811767578,54.27325416870117Q89.25910811767578,54.32535416870117,89.20210811767578,54.37205416870117Q89.14510811767578,54.41885416870117,89.08390811767578,54.45975416870117Q89.02260811767579,54.50075416870117,88.95760811767578,54.53545416870117Q88.89260811767578,54.57015416870117,88.82450811767578,54.59835416870117Q88.75640811767578,54.626554168701176,88.68590811767578,54.647954168701176Q88.61540811767578,54.669354168701176,88.54310811767579,54.68375416870117Q88.47090811767578,54.69815416870117,88.39750811767578,54.70535416870117Q88.32420811767578,54.712554168701175,88.25050811767578,54.712554168701175Q87.99720811767578,54.712554168701175,87.75800811767579,54.62945416870117Q87.51880811767577,54.54625416870117,87.32020811767578,54.38915416870117Q87.31780811767578,54.38735416870117,87.31540811767579,54.38545416870117Q82.05441811767578,50.22645416870117,76.54521811767579,41.51425416870117Q73.81360511767578,37.19448416870117,72.10210811767578,33.66968516870117Z" fill-rule="evenodd" fill="#CCCCCC" fill-opacity="1"/></g><g><path d="M136.89332423144532,60.81410534057617Q145.0429122314453,63.97663534057617,157.65146223144532,64.61441534057617Q161.61386223144532,64.81485534057617,165.54196223144532,64.73468534057618Q167.49656223144532,64.69479534057618,168.6482622314453,64.61599534057618Q168.6994622314453,64.61249534057617,168.75066223144532,64.61249534057617Q168.82436223144532,64.61249534057617,168.8976622314453,64.61972534057617Q168.9710622314453,64.62694534057617,169.0432622314453,64.64132534057617Q169.11556223144532,64.65569534057617,169.1860622314453,64.67708534057617Q169.25656223144532,64.69847534057617,169.3246622314453,64.72667534057618Q169.39276223144532,64.75487534057618,169.45776223144532,64.78961534057618Q169.5227622314453,64.82435534057618,169.58406223144533,64.86529534057617Q169.64526223144532,64.90623534057617,169.7022622314453,64.95298534057618Q169.75926223144532,64.99973534057617,169.81136223144532,65.05183534057618Q169.8634622314453,65.10394534057617,169.91016223144533,65.16090534057618Q169.95696223144532,65.21787534057617,169.9978622314453,65.27914534057618Q170.0388622314453,65.34041534057617,170.07356223144532,65.40540534057617Q170.1082622314453,65.47039534057618,170.1364622314453,65.53847534057617Q170.1646622314453,65.60655534057616,170.1860622314453,65.67707534057617Q170.2074622314453,65.74758534057617,170.2218622314453,65.81986534057617Q170.23626223144532,65.89213534057617,170.2434622314453,65.96547534057618Q170.25066223144532,66.03880534057618,170.25066223144532,66.11249534057617Q170.25066223144532,66.18303534057617,170.2440622314453,66.25325534057617Q170.2374622314453,66.32347534057617,170.22426223144532,66.39276534057618Q170.2110622314453,66.46205534057617,170.1914622314453,66.52980534057617Q170.17186223144532,66.59755534057618,170.1459622314453,66.66316534057617Q170.1200622314453,66.72877534057618,170.08806223144532,66.79166534057617Q170.0561622314453,66.85455534057617,170.0184622314453,66.91416534057618Q169.9807622314453,66.97378534057617,169.9376622314453,67.02959534057618Q169.89456223144532,67.08541534057618,169.8463622314453,67.13693534057617Q169.7981622314453,67.18845534057617,169.7453622314453,67.23523534057617Q169.69256223144532,67.28200534057618,169.6356622314453,67.32361534057617Q169.57866223144532,67.36523534057618,169.5180622314453,67.40131534057618Q169.4574622314453,67.43740534057618,169.39376223144532,67.46764534057617Q169.3300622314453,67.49788534057618,169.2637622314453,67.52201534057617Q169.19746223144531,67.54613534057617,169.1292622314453,67.56394534057617Q169.0609622314453,67.58174534057618,168.99136223144532,67.59306534057617Q168.9217622314453,67.60437534057617,168.8513622314453,67.60911534057617L168.84396223144532,67.60962534057617Q167.62216223144532,67.69285534057617,165.6031622314453,67.73406534057617Q161.5686622314453,67.81639534057618,157.49986223144532,67.61058534057616Q144.4084022314453,66.94837534057618,135.8080002314453,63.610905340576174Q136.0698202314453,63.71250534057617,136.3506622314453,63.71250534057617Q136.42435253144532,63.71250534057617,136.49768823144532,63.705285340576175Q136.5710232314453,63.698055340576175,136.6432972314453,63.68368534057617Q136.71557223144532,63.66930534057617,136.78608923144532,63.64791534057617Q136.8566062314453,63.62652534057617,136.92468723144532,63.598325340576174Q136.99276823144533,63.57012534057617,137.05775723144532,63.53538534057617Q137.12274623144532,63.50064534057617,137.18401723144532,63.45970534057617Q137.24528923144533,63.41876534057617,137.30225223144532,63.37202534057617Q137.35921223144533,63.32527534057617,137.41132223144533,63.27316534057617Q137.46343223144532,63.22105534057617,137.5101822314453,63.164095340576175Q137.5569222314453,63.10713234057617,137.5978622314453,63.04586034057617Q137.6388022314453,62.98458934057617,137.6735422314453,62.919600340576174Q137.7082822314453,62.85461134057617,137.7364822314453,62.78653034057617Q137.7646822314453,62.71844934057617,137.7860722314453,62.64793234057617Q137.8074622314453,62.577415340576174,137.82184223144532,62.50514034057617Q137.8362122314453,62.43286634057617,137.84344223144532,62.35953134057617Q137.8506622314453,62.286195640576175,137.8506622314453,62.21250534057617Q137.8506622314453,62.099735340576174,137.8338022314453,61.988232340576175Q137.81694223144532,61.87672934057617,137.78360223144531,61.769001340576175Q137.7502522314453,61.66127234057617,137.7011822314453,61.55974034057617Q137.65210223144533,61.45820834057617,137.58840223144531,61.36515434057617Q137.5246922314453,61.27210134057617,137.4477922314453,61.189615340576175Q137.3708922314453,61.10713534057617,137.2825252314453,61.03707534057617Q137.1941572314453,60.967015340576175,137.0963062314453,60.91096534057617Q136.99845623144532,60.854905340576174,136.89332423144532,60.81410534057617ZM136.89332423144532,60.81410534057617Q136.63150423144532,60.71250534057617,136.3506622314453,60.71250534057617Q136.2769719314453,60.71250534057617,136.2036362314453,60.71972534057617Q136.13030123144532,60.72695534057617,136.05802723144532,60.741325340576175Q135.9857522314453,60.75570534057617,135.9152352314453,60.777095340576174Q135.8447182314453,60.79848534057617,135.7766372314453,60.82668534057617Q135.7085562314453,60.854885340576175,135.6435672314453,60.889625340576174Q135.5785782314453,60.92436534057617,135.5173072314453,60.96530534057617Q135.4560352314453,61.00624534057617,135.3990722314453,61.05298534057617Q135.3421122314453,61.099735340576174,135.2900022314453,61.15184534057617Q135.2378922314453,61.20395534057617,135.19114223144533,61.26091534057617Q135.14440223144533,61.31787834057617,135.10346223144532,61.379150340576174Q135.0625222314453,61.44042134057617,135.02778223144531,61.50541034057617Q134.99304223144532,61.570399340576174,134.96484223144532,61.63848034057617Q134.93664223144532,61.70656134057617,134.91525223144532,61.777078340576175Q134.89386223144533,61.84759534057617,134.8794822314453,61.919870340576175Q134.86511223144532,61.992144340576175,134.8578822314453,62.065479340576175Q134.8506622314453,62.13881504057617,134.8506622314453,62.21250534057617Q134.8506622314453,62.32527534057617,134.86752223144532,62.43677834057617Q134.8843822314453,62.548281340576175,134.9177222314453,62.65600934057617Q134.95107223144532,62.763738340576175,135.00014223144532,62.865270340576174Q135.0492222314453,62.96680234057617,135.1129222314453,63.059856340576175Q135.17663223144532,63.15290934057617,135.25353223144532,63.23539534057617Q135.33043223144531,63.31787534057617,135.41879923144532,63.38793534057617Q135.50716723144532,63.45799534057617,135.6050182314453,63.514045340576175Q135.7028682314453,63.57010534057617,135.8080002314453,63.610905340576174L136.89332423144532,60.81410534057617Z" fill-rule="evenodd" fill="#CCCCCC" fill-opacity="1"/></g></g></svg>