<svg xmlns="http://www.w3.org/2000/svg" xmlns:xlink="http://www.w3.org/1999/xlink" fill="none" version="1.1" width="290" height="190" viewBox="0 0 290 190"><g><g><path d="M169.12064316272736,27.886045455932617C168.22064316272736,27.686045455932618,167.32064316272735,27.486035455932615,166.42064316272734,27.286035455932616C164.62064316272736,27.786035455932616,162.92064316272734,28.286035455932616,161.12064316272736,28.68603545593262C161.12064316272736,28.68603545593262,161.92064316272734,31.98604545593262,161.92064316272734,31.98604545593262C162.32064316272735,33.48604545593262,163.12064316272736,34.98604545593262,164.32064316272735,35.98604545593262C166.42064316272734,39.48604545593262,170.52064316272737,50.286045455932616,169.22064316272736,56.88604545593262C167.12064316272736,67.18604545593261,153.52064316272737,73.38604545593262,130.62064316272736,64.08604545593262C104.02064316272735,53.286045455932616,92.92064316272736,23.886045455932617,91.82064316272735,20.886045455932617C88.42064316272736,21.786045455932616,84.22064316272736,22.986025455932616,79.62064316272736,24.586025455932617C59.02064316272735,31.686045455932618,29.420643162727355,45.58604545593262,17.920643162727355,69.98604545593261C2.320643162727356,102.88604545593262,1.220643162727356,149.4860454559326,1.220643162727356,149.4860454559326C1.220643162727356,149.4860454559326,254.02064316272737,149.4860454559326,254.02064316272737,149.4860454559326C254.02064316272737,149.4860454559326,249.42064316272734,78.98604545593261,223.52064316272737,57.38604545593262C201.12064316272736,38.48604545593262,182.02064316272737,30.98604545593262,169.12064316272736,27.886045455932617Z" fill="#FFDE55" fill-opacity="1"/></g><g><path d="M169.02068896484377,27.985965596008302C168.72068896484376,27.5859655960083,168.32068896484375,27.1860655960083,168.02068896484377,26.7860655960083C167.52068896484377,26.986065596008302,166.92068896484375,27.0860655960083,166.42068896484375,27.2860655960083C164.62058896484376,27.7860655960083,162.92068896484375,28.2859655960083,161.12058896484376,28.6859655960083C161.12058896484376,28.6859655960083,161.92068896484375,31.985965596008302,161.92068896484375,31.985965596008302C162.32068896484375,33.4859655960083,163.12068896484374,34.9859655960083,164.32068896484375,35.9859655960083C166.42068896484375,39.4859655960083,168.72068896484376,47.2860655960083,167.42068896484375,53.8860655960083C165.42068896484375,64.18606559600829,153.52058896484374,73.3859655960083,130.62058896484376,64.0859655960083C116.52058896484375,58.3859655960083,106.42068896484375,46.4859655960083,100.02068896484374,36.5859655960083C94.82068896484375,28.485965596008302,91.72068896484375,19.1860055960083,90.82068896484375,9.5860075960083C90.82068896484375,9.5860075960083,90.82068896484375,9.4860016230083,90.82068896484375,9.4860016230083C89.02064896484374,9.3860015960083,81.82064896484376,18.2860055960083,80.82064896484376,20.5859655960083C80.52064896484374,21.285965596008303,79.92063296484375,22.5859655960083,79.62063296484375,24.5859655960083C78.92063296484375,28.8859655960083,79.12063596484376,36.7860655960083,85.42063896484375,49.7860655960083C96.82058896484375,73.4860655960083,119.32058896484375,88.5860655960083,128.12058896484376,89.8860655960083C136.12058896484376,91.0860655960083,152.32058896484375,72.78596559600831,154.62058896484376,70.1859655960083C157.12058896484376,72.3859655960083,169.32068896484375,85.08596559600831,172.82068896484375,84.08596559600831C176.72068896484376,82.8859655960083,184.12068896484374,68.4859655960083,180.02068896484377,50.5859655960083C177.62058896484376,39.385965596008305,173.22068896484376,32.785965596008296,169.02068896484377,27.985965596008302Z" fill="#423232" fill-opacity="1"/></g><g><path d="M155.06893174609374,68.28591853515626Q157.00590974609375,69.40063453515624,158.90300974609374,70.96866853515625Q163.08656974609374,74.42657853515625,162.91828974609376,77.37158853515625Q162.80236974609375,79.40012853515626,163.77788974609376,85.66779853515625Q164.27411974609376,88.85609853515625,164.79463974609376,91.60719853515624Q164.82073974609375,91.74539853515626,164.82073974609375,91.88599853515625Q164.82073974609375,91.95969853515625,164.81353974609374,92.03299853515625Q164.80633974609376,92.10639853515625,164.79193974609376,92.17859853515625Q164.77753974609374,92.25089853515625,164.75613974609374,92.32139853515625Q164.73473974609374,92.39199853515625,164.70653974609374,92.45999853515625Q164.67833974609374,92.52809853515625,164.64363974609375,92.59309853515626Q164.60883974609374,92.65809853515626,164.56793974609374,92.71939853515624Q164.52703974609375,92.78059853515626,164.48023974609376,92.83759853515625Q164.43353974609374,92.89459853515625,164.38143974609375,92.94669853515626Q164.32933974609375,92.99879853515625,164.27232974609376,93.04549853515624Q164.21536974609376,93.09229853515625,164.15408974609375,93.13319853515625Q164.09281974609374,93.17419853515625,164.02782974609374,93.20889853515625Q163.96284974609375,93.24359853515625,163.89475974609374,93.27179853515625Q163.82667974609376,93.29999853515625,163.75616974609375,93.32139853515625Q163.68564974609376,93.34279853515625,163.61336974609375,93.35719853515624Q163.54109974609375,93.37159853515625,163.46776974609375,93.37879853515625Q163.39442974609375,93.38599853515625,163.32073974609375,93.38599853515625Q163.19067974609374,93.38599853515625,163.06256974609374,93.36359853515626Q162.93444974609375,93.34119853515625,162.81209974609374,93.29709853515625Q162.68973974609375,93.25299853515625,162.57680974609374,93.18849853515624Q162.46386974609374,93.12399853515625,162.36371974609375,93.04109853515625Q162.26357974609374,92.95809853515625,162.17919974609376,92.85909853515625Q162.09482974609375,92.76009853515625,162.02875974609375,92.64809853515625Q161.96267974609376,92.53609853515624,161.91686974609374,92.41439853515625Q161.87105974609375,92.29259853515626,161.84687974609375,92.16479853515625L161.84633974609375,92.16199853515624Q161.31707974609375,89.36419853515625,160.81357974609375,86.12919853515625Q159.78908974609374,79.54688853515626,159.92316974609375,77.20043853515625Q160.00482974609375,75.77149853515625,156.99172974609374,73.28103853515626Q155.29059574609374,71.87496853515626,153.57389974609376,70.88685853515625L153.57269674609375,70.88616853515624L153.57255374609375,70.88607853515624Q153.48722774609374,70.83697853515625,153.40905174609375,70.77713853515625Q153.33087574609374,70.71730853515625,153.26118974609375,70.64776853515625Q153.19150974609374,70.57822853515626,153.13150974609374,70.50017753515625Q153.07150974609374,70.42212753515625,153.02222974609376,70.33690453515625Q152.97293974609374,70.25168153515625,152.93521974609374,70.16074853515624Q152.89749974609376,70.06981553515625,152.87198974609376,69.97473253515625Q152.84646974609376,69.87964953515625,152.83360974609374,69.78204753515625Q152.82073974609375,69.68444513515625,152.82073974609375,69.58599853515625Q152.82073974609375,69.51230823515625,152.82795974609374,69.43897253515625Q152.83518974609376,69.36563753515625,152.84955974609375,69.29336353515625Q152.86393974609376,69.22108853515626,152.88532974609376,69.15057153515625Q152.90671974609376,69.08005453515625,152.93491974609375,69.01197353515624Q152.96311974609375,68.94389253515625,152.99785974609375,68.87890353515625Q153.03259974609375,68.81391453515624,153.07353974609376,68.75264353515625Q153.11447974609376,68.69137153515625,153.16121974609376,68.63440853515625Q153.20796974609374,68.57744853515625,153.26007974609374,68.52533853515625Q153.31218974609374,68.47322853515625,153.36914974609374,68.42647853515625Q153.42611274609374,68.37973853515625,153.48738474609374,68.33879853515624Q153.54865574609374,68.29785853515625,153.61364474609374,68.26311853515625Q153.67863374609374,68.22837853515625,153.74671474609374,68.20017853515625Q153.81479574609375,68.17197853515626,153.88531274609375,68.15058853515625Q153.95582974609374,68.12919853515625,154.02810474609376,68.11481853515625Q154.10037874609375,68.10044853515625,154.17371374609374,68.09321853515625Q154.24704944609374,68.08599853515625,154.32073974609375,68.08599853515625Q154.72145374609374,68.08599853515625,155.06878374609374,68.28582853515626L155.06893174609374,68.28591853515626Z" fill-rule="evenodd" fill="#423232" fill-opacity="1"/></g><g><path d="M156.62072974609376,80.48600853515624Q156.62072974609376,80.60390853515625,156.60916974609376,80.72124853515625Q156.59760974609375,80.83858853515625,156.57460974609376,80.95422853515625Q156.55160974609376,81.06986853515625,156.51737974609375,81.18268853515625Q156.48315974609375,81.29551853515625,156.43803974609375,81.40444853515625Q156.39291974609375,81.51337853515625,156.33733974609376,81.61736853515625Q156.28175974609374,81.72134853515625,156.21625974609375,81.81937853515625Q156.15074974609374,81.91741853515624,156.07594974609376,82.00855853515625Q156.00115974609375,82.09969853515625,155.91778974609375,82.18306853515625Q155.83440974609374,82.26643853515625,155.74326974609374,82.34123853515625Q155.65212974609375,82.41603853515625,155.55409974609375,82.48153853515625Q155.45606974609376,82.54704853515625,155.35207974609375,82.60262853515626Q155.24809974609374,82.65820853515625,155.13916974609376,82.70332853515625Q155.03023974609374,82.74844853515626,154.91741974609374,82.78266853515625Q154.80458974609374,82.81689853515626,154.68894974609375,82.83989853515625Q154.57330974609374,82.86290853515625,154.45596974609376,82.87445853515625Q154.33863974609375,82.88601853515625,154.22072974609375,82.88601853515625Q154.10282974609376,82.88601853515625,153.98548974609375,82.87445853515625Q153.86815974609374,82.86290853515625,153.75251974609375,82.83989853515625Q153.63687974609374,82.81689853515626,153.52404974609374,82.78266853515625Q153.41121974609376,82.74844853515626,153.30229974609375,82.70332853515625Q153.19336974609374,82.65820853515625,153.08937974609375,82.60262853515626Q152.98539974609375,82.54704853515625,152.88736974609375,82.48153853515625Q152.78933474609374,82.41603853515625,152.69819374609375,82.34123853515625Q152.60705274609376,82.26643853515625,152.52368174609376,82.18306853515625Q152.44031074609376,82.09969853515625,152.36551374609374,82.00855853515625Q152.29071574609375,81.91741853515624,152.22521174609375,81.81937853515625Q152.15970774609374,81.72134853515625,152.10412774609375,81.61736853515625Q152.04854874609376,81.51337853515625,152.00342874609376,81.40444853515625Q151.95830874609376,81.29551853515625,151.92408274609375,81.18268853515625Q151.88985694609374,81.06986853515625,151.86685494609375,80.95422853515625Q151.84385304609376,80.83858853515625,151.83229634609376,80.72124853515625Q151.82073974609375,80.60390853515625,151.82073974609375,80.48600853515624Q151.82073974609375,80.36809853515625,151.83229634609376,80.25076853515625Q151.84385304609376,80.13342853515626,151.86685494609375,80.01778853515626Q151.88985694609374,79.90214853515624,151.92408274609375,79.78931853515626Q151.95830874609376,79.67649853515626,152.00342874609376,79.56756853515625Q152.04854874609376,79.45863853515625,152.10412774609375,79.35464853515624Q152.15970774609374,79.25066853515625,152.22521174609375,79.15263853515626Q152.29071574609375,79.05459953515626,152.36551374609374,78.96345753515625Q152.44031074609376,78.87231653515624,152.52368174609376,78.78894453515625Q152.60705274609376,78.70557353515625,152.69819374609375,78.63077553515625Q152.78933474609374,78.55597753515625,152.88736974609375,78.49047253515624Q152.98539974609375,78.42496853515625,153.08937974609375,78.36938853515625Q153.19336974609374,78.31380853515626,153.30229974609375,78.26868853515624Q153.41121974609376,78.22356853515625,153.52404974609374,78.18934253515626Q153.63687974609374,78.15511613515625,153.75251974609375,78.13211403515625Q153.86815974609374,78.10911193515625,153.98548974609375,78.09755523515625Q154.10282974609376,78.08599853515625,154.22072974609375,78.08599853515625Q154.33863974609375,78.08599853515625,154.45596974609376,78.09755523515625Q154.57330974609374,78.10911193515625,154.68894974609375,78.13211403515625Q154.80458974609374,78.15511613515625,154.91741974609374,78.18934253515626Q155.03023974609374,78.22356853515625,155.13916974609376,78.26868853515624Q155.24809974609374,78.31380853515626,155.35207974609375,78.36938853515625Q155.45606974609376,78.42496853515625,155.55409974609375,78.49047253515624Q155.65212974609375,78.55597753515625,155.74326974609374,78.63077553515625Q155.83440974609374,78.70557353515625,155.91778974609375,78.78894453515625Q156.00115974609375,78.87231653515624,156.07594974609376,78.96345753515625Q156.15074974609374,79.05459953515626,156.21624974609375,79.15263853515626Q156.28175974609374,79.25066853515625,156.33733974609376,79.35464853515624Q156.39291974609375,79.45863853515625,156.43803974609375,79.56756853515625Q156.48315974609375,79.67649853515626,156.51737974609375,79.78931853515626Q156.55160974609376,79.90214853515624,156.57460974609376,80.01778853515626Q156.59760974609375,80.13342853515626,156.60916974609376,80.25076853515625Q156.62072974609376,80.36809853515625,156.62072974609376,80.48600853515624Z" fill="#423232" fill-opacity="1"/></g><g><path d="M157.52064208984376,89.88603294921874Q157.52064208984376,90.00393294921875,157.50909208984376,90.12127294921875Q157.49753208984376,90.23861294921875,157.47453208984376,90.35425294921875Q157.45153208984374,90.46989294921875,157.41730208984376,90.58271294921875Q157.38307208984375,90.69554294921875,157.33795208984375,90.80447294921875Q157.29283208984376,90.91340294921875,157.23725208984376,91.01739294921875Q157.18167208984374,91.12137294921875,157.11617208984376,91.21940294921875Q157.05067208984374,91.31744294921874,156.97587208984376,91.40858294921875Q156.90107208984375,91.49972294921875,156.81770208984375,91.58309294921875Q156.73433208984375,91.66646294921875,156.64319208984375,91.74126294921875Q156.55204208984375,91.81606294921875,156.45401208984376,91.88156294921875Q156.35598208984376,91.94707294921875,156.25199208984375,92.00265294921876Q156.14801208984375,92.05823294921875,156.03908208984376,92.10335294921875Q155.93015208984374,92.14847294921876,155.81732208984374,92.18269294921875Q155.70450208984374,92.21692294921876,155.58886208984376,92.23992294921875Q155.47322208984374,92.26293294921875,155.35588208984376,92.27448294921875Q155.23855208984375,92.28604294921875,155.12064208984376,92.28604294921875Q155.00274208984376,92.28604294921875,154.88540208984375,92.27448294921875Q154.76806208984374,92.26293294921875,154.65242208984375,92.23992294921875Q154.53679208984374,92.21692294921876,154.42396208984374,92.18269294921875Q154.31113208984374,92.14847294921876,154.20220208984375,92.10335294921875Q154.09327208984374,92.05823294921875,153.98929208984376,92.00265294921876Q153.88531208984375,91.94707294921875,153.78727208984375,91.88156294921875Q153.68924008984374,91.81606294921875,153.59809908984374,91.74126294921875Q153.50695708984375,91.66646294921875,153.42358608984375,91.58309294921875Q153.34021508984375,91.49972294921875,153.26541708984374,91.40858294921875Q153.19061908984375,91.31744294921874,153.12511508984375,91.21940294921875Q153.05961108984374,91.12137294921875,153.00403108984375,91.01739294921875Q152.94845108984376,90.91340294921875,152.90333108984376,90.80447294921875Q152.85821108984376,90.69554294921875,152.82398508984375,90.58271294921875Q152.78975948984376,90.46989294921875,152.76675738984375,90.35425294921875Q152.74375538984376,90.23861294921875,152.73219878984375,90.12127294921875Q152.72064208984375,90.00393294921875,152.72064208984375,89.88603294921874Q152.72064208984375,89.76812294921875,152.73219878984375,89.65079294921875Q152.74375538984376,89.53345294921876,152.76675738984375,89.41781294921876Q152.78975948984376,89.30217294921874,152.82398508984375,89.18934294921876Q152.85821108984376,89.07652294921876,152.90333108984376,88.96759294921875Q152.94845108984376,88.85866294921875,153.00403108984375,88.75467294921874Q153.05961108984374,88.65069294921875,153.12511508984375,88.55266294921876Q153.19061908984375,88.45462394921876,153.26541708984374,88.36348194921875Q153.34021508984375,88.27234094921874,153.42358608984375,88.18896894921875Q153.50695708984375,88.10559794921875,153.59809908984374,88.03079994921875Q153.68924008984374,87.95600194921875,153.78727208984375,87.89049694921874Q153.88531208984375,87.82499294921875,153.98929208984376,87.76941294921875Q154.09327208984374,87.71383294921876,154.20220208984375,87.66871294921874Q154.31113208984374,87.62359294921875,154.42396208984374,87.58936694921876Q154.53679208984374,87.55514054921875,154.65242208984375,87.53213844921875Q154.76806208984374,87.50913634921875,154.88540208984375,87.49757964921875Q155.00274208984376,87.48602294921875,155.12064208984376,87.48602294921875Q155.23855208984375,87.48602294921875,155.35588208984376,87.49757964921875Q155.47322208984374,87.50913634921875,155.58886208984376,87.53213844921875Q155.70450208984374,87.55514054921875,155.81732208984374,87.58936694921876Q155.93015208984374,87.62359294921875,156.03908208984376,87.66871294921874Q156.14801208984375,87.71383294921876,156.25199208984375,87.76941294921875Q156.35598208984376,87.82499294921875,156.45401208984376,87.89049694921874Q156.55204208984375,87.95600194921875,156.64319208984375,88.03079994921875Q156.73433208984375,88.10559794921875,156.81770208984375,88.18896894921875Q156.90107208984375,88.27234094921874,156.97587208984376,88.36348194921875Q157.05066208984374,88.45462394921876,157.11617208984376,88.55266294921876Q157.18167208984374,88.65069294921875,157.23725208984376,88.75467294921874Q157.29283208984376,88.85866294921875,157.33795208984375,88.96759294921875Q157.38307208984375,89.07652294921876,157.41730208984376,89.18934294921876Q157.45153208984374,89.30217294921874,157.47453208984376,89.41781294921876Q157.49753208984376,89.53345294921876,157.50909208984376,89.65079294921875Q157.52064208984376,89.76812294921875,157.52064208984376,89.88603294921874Z" fill="#423232" fill-opacity="1"/></g><g><path d="M44.73155208984375,112.56666436328125Q44.72064208984375,112.47668566328124,44.72064208984375,112.38604736328125Q44.72064208984375,112.31235706328125,44.72786208984375,112.23902136328125Q44.73509208984375,112.16568636328125,44.74946208984375,112.09341236328125Q44.76384208984375,112.02113736328126,44.78523208984375,111.95062036328125Q44.80662208984375,111.88010336328125,44.83482208984375,111.81202236328124Q44.86302208984375,111.74394136328125,44.89776208984375,111.67895236328125Q44.93250208984375,111.61396336328124,44.97344208984375,111.55269236328125Q45.01438208984375,111.49142036328125,45.06112208984375,111.43445736328125Q45.10787208984375,111.37749736328125,45.15998208984375,111.32538736328125Q45.21209208984375,111.27327736328125,45.26905208984375,111.22652736328125Q45.32601508984375,111.17978736328125,45.38728708984375,111.13884736328124Q45.44855808984375,111.09790736328125,45.51354708984375,111.06316736328125Q45.57853608984375,111.02842736328125,45.64661708984375,111.00022736328125Q45.71469808984375,110.97202736328126,45.78521508984375,110.95063736328125Q45.85573208984375,110.92924736328125,45.92800708984375,110.91486736328125Q46.00028108984375,110.90049736328125,46.07361608984375,110.89326736328125Q46.14695178984375,110.88604736328125,46.22064208984375,110.88604736328125Q46.28866168984375,110.88604736328125,46.35640208984375,110.89220736328124Q46.42414308984375,110.89835736328125,46.49104808984375,110.91061736328125Q46.55795308984375,110.92288736328125,46.62347408984375,110.94114736328125Q46.68899508984375,110.95941736328125,46.75259408984375,110.98353736328124Q46.81619208984375,111.00765736328125,46.87734708984375,111.03743736328126Q46.93850108984375,111.06721736328124,46.99670908984375,111.10240736328124Q47.05491808984375,111.13760736328125,47.10970208984375,111.17791736328125Q47.16448608984375,111.21823736328125,47.21539708984375,111.26334736328126Q47.26631208984375,111.30845736328125,47.31292208984375,111.35798736328125Q47.35954208984375,111.40751536328125,47.40149208984375,111.46106236328124Q47.44343208984375,111.51460936328125,47.48036208984375,111.57173336328125Q47.51729208984375,111.62885736328126,47.54889208984375,111.68908836328124Q47.58049208984375,111.74931936328124,47.60652208984375,111.81216436328125Q47.63254208984375,111.87500936328125,47.65277208984375,111.93995136328125Q47.67300208984375,112.00489336328125,47.68727208984375,112.07139936328124Q47.70154208984375,112.13790536328125,47.70973208984375,112.20543036328125L52.20973208984375,149.30544736328125Q52.22064208984375,149.39534736328125,52.22064208984375,149.48604736328124Q52.22064208984375,149.55974736328125,52.213422089843746,149.63304736328126Q52.20619208984375,149.70634736328125,52.191822089843754,149.77864736328127Q52.17744208984375,149.85094736328125,52.15605208984375,149.92144736328126Q52.13466208984375,149.99194736328124,52.10646208984375,150.06004736328126Q52.07826208984375,150.12814736328124,52.04352208984375,150.19314736328124Q52.00878208984375,150.25814736328124,51.96784208984375,150.31934736328125Q51.92690208984375,150.38064736328124,51.88016208984375,150.43764736328126Q51.83341208984375,150.49454736328124,51.78130208984375,150.54664736328124Q51.72919208984375,150.59874736328123,51.67223208984375,150.64554736328125Q51.61527208984375,150.69224736328124,51.55399208984375,150.73324736328124Q51.49272208984375,150.77414736328126,51.42773208984375,150.80894736328125Q51.36275208984375,150.84364736328126,51.29466208984375,150.87184736328123Q51.22658208984375,150.90004736328126,51.15607208984375,150.92144736328126Q51.08555208984375,150.94284736328126,51.01327208984375,150.95724736328125Q50.94100208984375,150.97154736328125,50.86767208984375,150.97884736328126Q50.79433208984375,150.98604736328124,50.72064208984375,150.98604736328124Q50.65262208984375,150.98604736328124,50.58488208984375,150.97984736328124Q50.51714208984375,150.97374736328123,50.45024208984375,150.96144736328125Q50.38333208984375,150.94914736328124,50.31781208984375,150.93094736328123Q50.25229208984375,150.91264736328125,50.18869208984375,150.88854736328125Q50.12509208984375,150.86444736328124,50.06394208984375,150.83464736328125Q50.00278208984375,150.80484736328125,49.94457208984375,150.76964736328125Q49.88636208984375,150.73444736328125,49.83158208984375,150.69414736328125Q49.77680208984375,150.65384736328124,49.725892089843754,150.60874736328125Q49.67498208984375,150.56364736328123,49.62836208984375,150.51404736328124Q49.58174208984375,150.46454736328124,49.53979208984375,150.41104736328126Q49.49785208984375,150.35744736328127,49.46092208984375,150.30034736328125Q49.42400208984375,150.24324736328126,49.39239208984375,150.18294736328124Q49.36079208984375,150.12274736328123,49.33476208984375,150.05994736328125Q49.30874208984375,149.99704736328124,49.28851208984375,149.93214736328125Q49.26828208984375,149.86714736328125,49.25401208984375,149.80064736328126Q49.23974208984375,149.73414736328124,49.23155208984375,149.66664736328124L44.73155208984375,112.56666436328125Z" fill-rule="evenodd" fill="#544D4D" fill-opacity="1"/></g><g><path d="M226.70814091796876,100.35606670703125Q226.82071091796874,100.08212170703125,226.82071091796874,99.78594970703125Q226.82071091796874,99.71225940703125,226.81349091796875,99.63892370703125Q226.80626091796876,99.56558870703125,226.79189091796874,99.49331470703125Q226.77751091796875,99.42103970703126,226.75612091796876,99.35052270703125Q226.73473091796876,99.28000570703125,226.70653091796876,99.21192470703124Q226.67833091796874,99.14384370703125,226.64359091796874,99.07885470703125Q226.60885091796874,99.01386570703124,226.56791091796876,98.95259470703125Q226.52697091796875,98.89132270703125,226.48022091796875,98.83435970703125Q226.43348091796875,98.77739970703125,226.38137091796875,98.72528970703125Q226.32926091796875,98.67317970703125,226.27230091796875,98.62642970703125Q226.21533091796874,98.57968970703125,226.15406091796876,98.53874970703124Q226.09279091796876,98.49780970703125,226.02780091796876,98.46306970703125Q225.96281091796874,98.42832970703125,225.89473091796876,98.40012970703125Q225.82665091796875,98.37192970703126,225.75614091796876,98.35053970703125Q225.68562091796875,98.32914970703125,225.61334091796874,98.31476970703125Q225.54107091796874,98.30039970703125,225.46773091796874,98.29316970703125Q225.39440091796874,98.28594970703125,225.32071091796874,98.28594970703125Q225.20980091796875,98.28594970703125,225.10010091796875,98.30225970703125Q224.99039091796874,98.31856970703124,224.88428091796874,98.35083970703126Q224.77817091796874,98.38310970703125,224.67796091796876,98.43063970703125Q224.57775091796876,98.47815970703125,224.48562091796876,98.53990970703126Q224.39349091796876,98.60164970703126,224.31144091796875,98.67627970703126Q224.22939091796874,98.75089970703125,224.15921091796875,98.83678070703125Q224.08903091796876,98.92266070703126,224.03224091796875,99.01792970703124Q223.97545591796876,99.11319770703125,223.93329891796876,99.21578170703125L223.93327491796876,99.21583870703125L223.93293191796874,99.21667370703125Q223.13655791796876,101.15499970703125,222.47173091796876,104.01066970703125Q221.13702091796875,109.74373970703125,221.73197091796874,114.56954970703126Q221.86217091796874,115.62554970703125,222.20108991796874,117.93574970703125Q222.74676491796876,121.65524970703125,222.97846281796876,123.79434970703124Q223.37161791796876,127.42404970703126,223.43623391796876,130.80944970703126Q223.60572591796875,139.68924970703125,221.55462091796875,149.16874970703125Q221.52069091796875,149.32554970703126,221.52069091796875,149.48594970703124Q221.52069091796875,149.55964970703124,221.52791091796874,149.63294970703126Q221.53514091796876,149.70624970703125,221.54951091796875,149.77854970703126Q221.56389091796876,149.85084970703124,221.58528091796876,149.92134970703125Q221.60667091796876,149.99184970703124,221.63487091796875,150.05994970703125Q221.66307091796875,150.12804970703127,221.69781091796875,150.19304970703126Q221.73255091796875,150.25804970703126,221.77349091796876,150.31924970703125Q221.81443091796876,150.38054970703126,221.86117091796876,150.43754970703125Q221.90792091796874,150.49444970703127,221.96003091796874,150.54654970703126Q222.01214091796874,150.59864970703126,222.06910091796874,150.64544970703125Q222.12606391796874,150.69214970703126,222.18733591796874,150.73314970703126Q222.24860691796874,150.77404970703125,222.31359591796874,150.80884970703124Q222.37858491796874,150.84354970703126,222.44666591796874,150.87174970703126Q222.51474691796875,150.89994970703125,222.58526391796875,150.92134970703125Q222.65578091796874,150.94274970703125,222.72805591796876,150.95714970703125Q222.80032991796875,150.97144970703124,222.87366491796874,150.97874970703126Q222.94700061796874,150.98594970703124,223.02069091796875,150.98594970703124Q223.14828291796874,150.98594970703124,223.27404091796876,150.96434970703126Q223.39979891796875,150.94284970703126,223.52011091796874,150.90034970703124Q223.64042291796875,150.85784970703125,223.75183191796876,150.79564970703126Q223.86323991796874,150.73344970703124,223.96254291796876,150.65334970703125Q224.06185091796874,150.57324970703127,224.14619091796874,150.47754970703124Q224.23054091796874,150.38174970703125,224.29750091796876,150.27314970703125Q224.36446091796876,150.16454970703126,224.41212091796876,150.04624970703125Q224.45978091796874,149.92784970703124,224.48676091796875,149.80314970703125L224.48698091796874,149.80214970703125Q226.61185091796875,139.98134970703126,226.43569091796874,130.75214970703126Q226.36853091796874,127.23354970703124,225.96102091796874,123.47134970703125Q225.72322091796875,121.27584970703126,225.16932091796875,117.50024970703126Q224.83541091796874,115.22424970703125,224.70943091796875,114.20244970703125Q224.17964091796875,109.90524970703125,225.39359091796874,104.69090970703125Q225.77590091796876,103.04873970703125,226.28783091796876,101.51859970703126Q226.53932091796875,100.76691970703125,226.70812091796876,100.35611970703125L226.70814091796876,100.35606670703125L226.70814091796876,100.35606670703125Z" fill-rule="evenodd" fill="#544D4D" fill-opacity="1"/></g></g></svg>