<svg xmlns="http://www.w3.org/2000/svg" xmlns:xlink="http://www.w3.org/1999/xlink" fill="none" version="1.1" width="290" height="190" viewBox="0 0 290 190"><g><g><g><path d="M93.59016723632813,83.2C58.490167236328126,68,56.390167236328125,37.3,56.390167236328125,37.3C71.99016723632812,25.4,91.29016723632813,20,91.29016723632813,20C91.29016723632813,20,110.39016723632812,44.6,139.79016723632813,47.6C177.69016723632814,51.5,164.79016723632813,30.5,164.79016723632813,30.5C180.0901672363281,34,195.5901672363281,48.5,195.5901672363281,48.5C198.49016723632812,51.7,200.79016723632813,71.3,189.19016723632814,81.1C177.5901672363281,90.9,128.69016723632814,98.4,93.59016723632813,83.2Z" fill="#444444" fill-opacity="1"/></g><g><path d="M163.89,85.9C208.19,83.6,205.39,57.8,205.39,57.8C212.89,61.3,223.39,72.3,227.19,79.1C243.39,108.4,241.49,161.1,241.49,161.1C241.49,161.1,7.49017,161.1,7.49017,161.1C7.49017,161.1,-2.80983,115.7,7.79017,85.2C18.3902,54.7,47.7902,44,47.7902,44C47.7902,44,63.7902,57.5,64.9902,65.9C66.2902,74.1,119.59,88.2,163.89,85.9Z" fill="#FFFFFF" fill-opacity="1"/></g><g><path d="M206.59016876220704,61.300026171875004C204.49016876220702,53.600026171875,198.19016876220704,48.400026171875,195.49016876220702,48.600026171875C195.59016876220704,48.900026171875,195.59016876220704,49.200026171875,195.69016876220704,49.400026171875C199.99016876220702,64.400026171875,193.09016876220704,73.400026171875,177.79016876220703,76.800026171875C161.89016876220703,80.300026171875,148.59016876220704,80.800026171875,116.69016876220704,77.600026171875C93.29016876220703,75.300026171875,71.29016876220703,64.300026171875,60.09016876220703,43.600016171875C58.990168762207034,41.500016171875004,57.69016876220703,39.500006171875,56.29016876220703,37.500006171875C55.490168762207034,36.900006171875,53.990168762207034,37.000015171875,52.89016876220703,37.900015171875C50.19016876220703,40.200016171875,47.79016876220703,41.800016171875,47.79016876220703,44.100016171875C53.19016876220703,53.100026171875,58.29016876220703,67.400026171875,56.09016876220703,88.20002617187501C55.89016876220703,90.100026171875,55.59016876220703,92.20002617187501,55.29016876220703,94.300026171875C47.69016476220703,140.199826171875,49.79016876220703,165.699826171875,49.79016876220703,165.699826171875C49.79016876220703,165.699826171875,153.19016876220704,191.899826171875,215.99016876220702,162.89982617187502C215.99016876220702,162.89982617187502,216.09016876220704,127.100026171875,211.79016876220703,92.20002617187501C210.49016876220702,81.50002617187499,208.79016876220703,70.800026171875,206.59016876220704,61.300026171875004Z" fill="#444444" fill-opacity="1"/></g><g><path d="M69.74650418457031,28.766780103515625Q69.59016418457031,28.451722103515625,69.59016418457031,28.100006103515625Q69.59016418457031,28.026315803515626,69.59738418457032,27.952980103515625Q69.60461418457031,27.879645103515625,69.61898418457031,27.807371103515624Q69.63336418457031,27.735096103515627,69.65475418457031,27.664579103515624Q69.67614418457032,27.594062103515625,69.70434418457032,27.525981103515626Q69.73254418457032,27.457900103515627,69.76728418457031,27.392911103515626Q69.80202418457031,27.327922103515625,69.8429641845703,27.266651103515624Q69.88390418457031,27.205379103515625,69.93064418457031,27.148416103515626Q69.97739418457031,27.091456103515625,70.02950418457031,27.039346103515626Q70.08161418457031,26.987236103515624,70.13857418457032,26.940486103515624Q70.19553718457031,26.893746103515625,70.25680918457032,26.852806103515626Q70.3180801845703,26.811866103515626,70.38306918457032,26.777126103515624Q70.44805818457031,26.742386103515624,70.5161391845703,26.714186103515626Q70.58422018457031,26.685986103515624,70.65473718457031,26.664596103515624Q70.72525418457032,26.643206103515624,70.79752918457031,26.628826103515625Q70.86980318457032,26.614456103515625,70.94313818457032,26.607226103515625Q71.01647388457032,26.600006103515625,71.09016418457031,26.600006103515625Q71.19441518457032,26.600006103515625,71.29766318457031,26.614426103515626Q71.40091218457032,26.628846103515624,71.50117218457031,26.657416103515626Q71.60143318457031,26.685976103515625,71.69677918457032,26.728136103515624Q71.79212418457031,26.770296103515626,71.88072118457032,26.825246103515624Q71.96931718457031,26.880186103515626,72.04946218457032,26.946856103515625Q72.12960418457031,27.013526103515623,72.19975418457031,27.090646103515624Q72.26990418457031,27.167765103515624,72.32871418457032,27.253845103515626Q72.38752418457031,27.339925103515625,72.43386418457031,27.433312103515625Q77.2277241845703,37.09518610351562,86.20346418457031,49.44300610351563Q104.13606418457032,74.11280610351562,124.90336418457031,87.33950610351562Q126.71556418457031,88.50870610351564,128.8545641845703,88.11260610351562Q130.98706418457033,87.71770610351562,132.2997641845703,85.98740610351562L150.6997641845703,61.987406103515625Q150.7342641845703,61.94230610351563,150.77216418457033,61.90000610351562Q150.8212641845703,61.84500610351562,150.8755641845703,61.795206103515625Q150.9298641845703,61.74540610351563,150.9887641845703,61.70110610351563Q151.0476641845703,61.65680610351563,151.1105641845703,61.61850610351563Q151.1735641845703,61.58020610351563,151.2399641845703,61.548206103515625Q151.30636418457033,61.516306103515625,151.3755641845703,61.49100610351562Q151.4448641845703,61.46570610351562,151.5161641845703,61.447406103515625Q151.5875641845703,61.429006103515626,151.6603641845703,61.41770610351563Q151.7331641845703,61.40640610351562,151.8067641845703,61.40230610351563Q151.8803641845703,61.398206103515626,151.9539641845703,61.401406103515626Q152.0275641845703,61.40450610351562,152.10056418457032,61.41480610351562Q152.17346418457032,61.42520610351563,152.2450641845703,61.44260610351562Q152.3166641845703,61.460006103515624,152.3862641845703,61.484406103515624Q152.4557641845703,61.508806103515624,152.5225641845703,61.53980610351562Q152.58946418457032,61.570906103515625,152.65286418457032,61.60840610351563Q152.7163641845703,61.64590610351563,152.7758641845703,61.68940610351562Q152.8352641845703,61.732906103515624,152.89016418457032,61.78200610351563L174.7061641845703,81.29610610351563Q175.9401641845703,82.43170610351562,177.57916418457032,81.91850610351563Q179.23116418457033,81.40140610351563,179.62716418457032,79.76910610351563Q184.1531641845703,59.757306103515624,175.9701641845703,35.78456610351562Q175.89016418457032,35.54895610351562,175.89016418457032,35.30000610351563Q175.89016418457032,35.22631610351563,175.89716418457033,35.15297610351563Q175.9041641845703,35.07964610351563,175.91916418457032,35.00736610351562Q175.93316418457033,34.935096103515626,175.95516418457032,34.864576103515624Q175.9761641845703,34.79405610351562,176.0041641845703,34.72597610351563Q176.03216418457032,34.657896103515625,176.06716418457032,34.592906103515624Q176.1021641845703,34.52791610351562,176.1431641845703,34.46664610351563Q176.1841641845703,34.40537610351562,176.2301641845703,34.348416103515625Q176.27716418457032,34.291446103515625,176.32916418457032,34.23934610351562Q176.3811641845703,34.18723610351562,176.43816418457033,34.14048610351563Q176.4951641845703,34.093736103515624,176.5571641845703,34.052796103515625Q176.61816418457033,34.011856103515626,176.68316418457033,33.97711610351563Q176.74816418457033,33.942386103515624,176.8161641845703,33.914186103515625Q176.8841641845703,33.88598610351563,176.95516418457032,33.86459610351562Q177.02516418457031,33.84320610351563,177.09716418457032,33.828826103515624Q177.1701641845703,33.81444610351562,177.24316418457033,33.807226103515625Q177.3161641845703,33.80000610351563,177.39016418457032,33.80000610351563Q177.5071641845703,33.80000610351563,177.6221641845703,33.818036103515624Q177.7371641845703,33.83607610351562,177.8481641845703,33.871716103515624Q177.9591641845703,33.907356103515625,178.0641641845703,33.959736103515624Q178.16816418457032,34.01212610351563,178.26316418457031,34.079996103515626Q178.3581641845703,34.147866103515625,178.4411641845703,34.22958610351562Q178.5241641845703,34.31131610351562,178.59416418457033,34.40492610351563Q178.6631641845703,34.498536103515626,178.7181641845703,34.60178610351562Q178.77216418457033,34.705036103515624,178.8101641845703,34.81543610351562Q187.26716418457033,59.591406103515624,182.5531641845703,80.43090610351562Q181.7471641845703,83.75750610351562,178.4761641845703,84.78150610351562Q175.18316418457033,85.81210610351562,172.67416418457032,83.50390610351562L152.0960641845703,65.09670610351563L134.6805641845703,87.81270610351562Q132.67526418457032,90.45600610351562,129.4007641845703,91.06240610351563Q126.09026418457032,91.67550610351563,123.27696418457032,89.86040610351563Q102.04426418457031,76.33720610351563,83.77686418457031,51.207006103515624Q74.65312418457032,38.65550610351563,69.74703418457031,28.767838103515626L69.74646418457031,28.766700103515625L69.74650418457031,28.766780103515625Z" fill-rule="evenodd" fill="#FFFFFF" fill-opacity="1"/></g><g><path d="M150.40300723632814,63.195819Q150.39016723632812,63.0983301,150.39016723632812,63Q150.39016723632812,62.9263097,150.39738723632811,62.852974Q150.40461723632814,62.779639,150.41898723632812,62.707365Q150.43336723632814,62.63509,150.45475723632813,62.564573Q150.47614723632813,62.494056,150.50434723632813,62.425975Q150.53254723632813,62.357894,150.56728723632813,62.292905Q150.60202723632813,62.227916,150.64296723632813,62.166645Q150.68390723632814,62.105373,150.73064723632814,62.04841Q150.7773972363281,61.99145,150.8295072363281,61.93934Q150.8816172363281,61.88723,150.93857723632811,61.84048Q150.9955402363281,61.79374,151.0568122363281,61.7528Q151.11808323632812,61.71186,151.18307223632812,61.67712Q151.2480612363281,61.64238,151.31614223632812,61.61418Q151.38422323632813,61.58598,151.45474023632812,61.56459Q151.52525723632812,61.5432,151.59753223632814,61.52882Q151.66980623632813,61.51445,151.7431412363281,61.50722Q151.81647693632812,61.5,151.89016723632812,61.5Q152.02552123632813,61.5,152.15868923632812,61.52423Q152.29185623632813,61.54846,152.41853523632813,61.59614Q152.54521423632812,61.64382,152.66131223632811,61.7134Q152.7774092363281,61.78299,152.87917523632814,61.87223Q152.98093723632812,61.96147,153.0650872363281,62.067494Q153.14922723632813,62.173514,153.21303723632812,62.292885Q153.27684723632814,62.412256,153.31825723632812,62.541121Q153.35965723632813,62.669985,153.3773272363281,62.804181Q153.84154723632813,66.32973,154.49615723632812,72.07873000000001Q155.80476723632813,83.57130000000001,156.75968723632812,94.7094Q159.82075723632812,130.4134,158.18452723632814,149.2299Q158.17849723632813,149.29930000000002,158.16606723632813,149.3678Q158.1536472363281,149.43630000000002,158.13492723632814,149.5033Q158.11620723632814,149.5704,158.09135723632812,149.6354Q158.06650723632814,149.7004,158.03573723632812,149.7629Q158.00497723632813,149.8253,157.96855723632814,149.8847Q157.93213723632812,149.94400000000002,157.89038723632814,149.99970000000002Q157.84862723632813,150.05540000000002,157.80189723632813,150.107Q157.75515723632813,150.1586,157.70384723632813,150.2056Q157.65252723632813,150.2527,157.59707723632812,150.2948Q157.5416272363281,150.3369,157.48252723632814,150.3736Q157.42341723632813,150.41039999999998,157.36114723632812,150.4416Q157.2988872363281,150.4727,157.23400723632813,150.49790000000002Q157.16912723632814,150.5232,157.10219723632812,150.5423Q157.03525723632814,150.5614,156.96683723632813,150.5743Q156.89841723632813,150.58710000000002,156.82909723632812,150.59359999999998Q156.75978723632812,150.6,156.69016723632814,150.6Q156.61647723632814,150.6,156.54314723632814,150.5928Q156.46980723632814,150.5855,156.39753723632813,150.5712Q156.32525723632813,150.5568,156.25474723632811,150.53539999999998Q156.18422723632813,150.514,156.11614723632812,150.48579999999998Q156.04806723632814,150.4576,155.9830772363281,150.4229Q155.91808723632812,150.3881,155.8568172363281,150.3472Q155.79554723632813,150.3063,155.73857723632813,150.2595Q155.68161723632812,150.21280000000002,155.62950723632812,150.1606Q155.57740723632813,150.1086,155.53065723632812,150.0516Q155.48390723632812,149.9946,155.44296723632812,149.9333Q155.40202723632814,149.8721,155.36728723632814,149.8071Q155.33254723632814,149.7421,155.3043472363281,149.674Q155.27614723632811,149.60590000000002,155.25475723632812,149.53539999999998Q155.23336723632812,149.4649,155.21898723632813,149.39260000000002Q155.20461723632812,149.3204,155.19739723632813,149.247Q155.19016723632814,149.1737,155.19016723632814,149.1Q155.19016723632814,149.0349,155.19580723632814,148.9701Q155.19620723632812,148.96550000000002,155.19659723632813,148.96089999999998Q156.80884723632812,130.4028,153.77064723632813,94.9656Q152.8193082363281,83.8692,151.51542323632813,72.41814Q150.86378723632814,66.69527,150.40300723632814,63.195819Z" fill-rule="evenodd" fill="#FFFFFF" fill-opacity="1"/></g><g><g><path d="M171.0901672363281,92.30000694824218Q171.0901672363281,92.47685694824219,171.07282723632812,92.65286694824219Q171.05549723632814,92.8288669482422,171.02098723632812,93.00232694824219Q170.98648723632812,93.17578694824219,170.93514723632813,93.3450269482422Q170.88380723632812,93.51426694824218,170.81612723632813,93.67766694824219Q170.74844723632813,93.84105694824218,170.66507723632813,93.99703694824218Q170.58170723632813,94.1530069482422,170.48345723632812,94.30005694824219Q170.3851972363281,94.4471069482422,170.27299723632814,94.58381694824219Q170.16080723632814,94.72053694824218,170.03574723632812,94.84558694824219Q169.91068723632813,94.97064694824219,169.77397723632814,95.08284694824219Q169.6372672363281,95.19503694824219,169.49021723632814,95.29329694824219Q169.34316723632813,95.39155694824218,169.18719723632813,95.47492694824219Q169.03121723632813,95.55829694824219,168.86782723632814,95.62597694824218Q168.70442723632812,95.6936569482422,168.5351872363281,95.74499694824219Q168.3659472363281,95.79633694824219,168.19248723632813,95.8308369482422Q168.01903723632813,95.86533694824219,167.8430272363281,95.88267694824219Q167.66702723632812,95.9000069482422,167.49016723632812,95.9000069482422Q167.31330723632811,95.9000069482422,167.13730723632813,95.88267694824219Q166.96129723632814,95.86533694824219,166.78783723632813,95.8308369482422Q166.61438723632813,95.79633694824219,166.44513723632812,95.74499694824219Q166.27589723632812,95.6936569482422,166.11250723632813,95.62597694824218Q165.94910723632813,95.55829694824219,165.79313723632814,95.47492694824219Q165.63716723632814,95.39155694824218,165.49011723632813,95.29329694824219Q165.34306723632812,95.19503694824219,165.20634723632813,95.08284694824219Q165.06963723632813,94.97064694824219,164.94458723632812,94.84558694824219Q164.81952623632813,94.72053694824218,164.70732923632812,94.58381694824219Q164.5951322363281,94.4471069482422,164.49687623632812,94.30005694824219Q164.39862023632813,94.1530069482422,164.31525023632813,93.99703694824218Q164.23188123632812,93.84105694824218,164.16420123632813,93.67766694824219Q164.09652023632813,93.51426694824218,164.04518223632812,93.3450269482422Q163.99384323632813,93.17578694824219,163.95934023632813,93.00232694824219Q163.92483723632813,92.8288669482422,163.90750223632813,92.65286694824219Q163.89016723632812,92.47685694824219,163.89016723632812,92.30000694824218Q163.89016723632812,92.1231469482422,163.90750223632813,91.94713694824219Q163.92483723632813,91.77113694824219,163.95934023632813,91.59767694824218Q163.99384323632813,91.42421694824219,164.04518223632812,91.25497694824219Q164.09652023632813,91.08573694824219,164.16420123632813,90.92233694824219Q164.23188123632812,90.75894694824218,164.31525023632813,90.60296694824218Q164.39862023632813,90.44699694824219,164.49687623632812,90.2999469482422Q164.5951322363281,90.15289694824219,164.70732923632812,90.0161869482422Q164.81952623632813,89.87946694824218,164.94458723632812,89.75441694824218Q165.06963723632813,89.62935794824219,165.20634723632813,89.51716094824219Q165.34306723632812,89.40496394824218,165.49011723632813,89.3067069482422Q165.63716723632814,89.20845094824219,165.79313723632814,89.12508094824219Q165.94910723632813,89.04171094824218,166.11250723632813,88.97403094824219Q166.27589723632812,88.90635094824219,166.44513723632812,88.8550119482422Q166.61438723632813,88.80367294824218,166.78783723632813,88.76917004824219Q166.96129723632814,88.7346669482422,167.13730723632813,88.71733194824219Q167.31330723632811,88.69999694824219,167.49016723632812,88.69999694824219Q167.66702723632812,88.69999694824219,167.8430272363281,88.71733194824219Q168.01903723632813,88.7346669482422,168.19248723632813,88.76917004824219Q168.3659472363281,88.80367294824218,168.5351872363281,88.8550119482422Q168.70442723632812,88.90635094824219,168.86782723632814,88.97403094824219Q169.03121723632813,89.04171094824218,169.18719723632813,89.12508094824219Q169.34316723632813,89.20845094824219,169.49021723632814,89.3067069482422Q169.6372672363281,89.40496394824218,169.77397723632814,89.51716094824219Q169.91068723632813,89.62935794824219,170.03574723632812,89.75441694824218Q170.16080723632814,89.87946694824218,170.27299723632814,90.0161869482422Q170.3851972363281,90.15289694824219,170.48345723632812,90.2999469482422Q170.58170723632813,90.44699694824219,170.66507723632813,90.60296694824218Q170.74844723632813,90.75894694824218,170.81612723632813,90.92233694824219Q170.88380723632812,91.08573694824219,170.93514723632813,91.25497694824219Q170.98648723632812,91.42421694824219,171.02098723632812,91.59767694824218Q171.05549723632814,91.77113694824219,171.07282723632812,91.94713694824219Q171.0901672363281,92.1231469482422,171.0901672363281,92.30000694824218Z" fill="#FFFFFF" fill-opacity="1"/></g><g><path d="M172.69015808105468,110.30000694824218Q172.69015808105468,110.47685694824219,172.6728180810547,110.65286694824219Q172.6554880810547,110.8288669482422,172.6209780810547,111.00232694824219Q172.58647808105468,111.17578694824219,172.5351380810547,111.3450269482422Q172.4837980810547,111.51426694824218,172.4161180810547,111.67766694824219Q172.3484380810547,111.84105694824218,172.2650680810547,111.99703694824218Q172.1816980810547,112.1530069482422,172.08344808105468,112.30005694824219Q171.98518808105467,112.4471069482422,171.8729880810547,112.58381694824219Q171.7607980810547,112.72053694824218,171.63573808105468,112.84558694824219Q171.5106780810547,112.97064694824219,171.3739680810547,113.08284694824219Q171.23725808105468,113.19503694824219,171.0902080810547,113.29329694824219Q170.9431580810547,113.39155694824218,170.7871880810547,113.47492694824219Q170.6312080810547,113.55829694824219,170.4678180810547,113.62597694824218Q170.30441808105468,113.6936569482422,170.13517808105468,113.74499694824219Q169.96593808105467,113.79633694824219,169.7924780810547,113.8308369482422Q169.6190280810547,113.86533694824219,169.44301808105467,113.88267694824219Q169.2670180810547,113.9000069482422,169.09015808105468,113.9000069482422Q168.91329808105468,113.9000069482422,168.7372980810547,113.88267694824219Q168.5612880810547,113.86533694824219,168.3878280810547,113.8308369482422Q168.2143780810547,113.79633694824219,168.04512808105468,113.74499694824219Q167.87588808105468,113.6936569482422,167.7124980810547,113.62597694824218Q167.5490980810547,113.55829694824219,167.3931280810547,113.47492694824219Q167.2371580810547,113.39155694824218,167.0901080810547,113.29329694824219Q166.9430580810547,113.19503694824219,166.8063380810547,113.08284694824219Q166.6696280810547,112.97064694824219,166.54457808105468,112.84558694824219Q166.4195170810547,112.72053694824218,166.30732008105468,112.58381694824219Q166.19512308105467,112.4471069482422,166.09686708105468,112.30005694824219Q165.9986110810547,112.1530069482422,165.9152410810547,111.99703694824218Q165.83187208105468,111.84105694824218,165.7641920810547,111.67766694824219Q165.6965110810547,111.51426694824218,165.64517308105468,111.3450269482422Q165.5938340810547,111.17578694824219,165.5593310810547,111.00232694824219Q165.5248280810547,110.8288669482422,165.5074930810547,110.65286694824219Q165.4901580810547,110.47685694824219,165.4901580810547,110.30000694824218Q165.4901580810547,110.1231469482422,165.5074930810547,109.94713694824219Q165.5248280810547,109.77113694824219,165.5593310810547,109.59767694824218Q165.5938340810547,109.42421694824219,165.64517308105468,109.25497694824219Q165.6965110810547,109.08573694824219,165.7641920810547,108.92233694824219Q165.83187208105468,108.75894694824218,165.9152410810547,108.60296694824218Q165.9986110810547,108.44699694824219,166.09686708105468,108.2999469482422Q166.19512308105467,108.15289694824219,166.30732008105468,108.0161869482422Q166.4195170810547,107.87946694824218,166.54457808105468,107.75441694824218Q166.6696280810547,107.62935794824219,166.8063380810547,107.51716094824219Q166.9430580810547,107.40496394824218,167.0901080810547,107.3067069482422Q167.2371580810547,107.20845094824219,167.3931280810547,107.12508094824219Q167.5490980810547,107.04171094824218,167.7124980810547,106.97403094824219Q167.87588808105468,106.90635094824219,168.04512808105468,106.8550119482422Q168.2143780810547,106.80367294824218,168.3878280810547,106.76917004824219Q168.5612880810547,106.7346669482422,168.7372980810547,106.71733194824219Q168.91329808105468,106.69999694824219,169.09015808105468,106.69999694824219Q169.2670180810547,106.69999694824219,169.44301808105467,106.71733194824219Q169.6190280810547,106.7346669482422,169.7924780810547,106.76917004824219Q169.96593808105467,106.80367294824218,170.13517808105468,106.8550119482422Q170.30441808105468,106.90635094824219,170.4678180810547,106.97403094824219Q170.6312080810547,107.04171094824218,170.7871880810547,107.12508094824219Q170.9431580810547,107.20845094824219,171.0902080810547,107.3067069482422Q171.23725808105468,107.40496394824218,171.3739680810547,107.51716094824219Q171.5106780810547,107.62935794824219,171.63573808105468,107.75441694824218Q171.7607980810547,107.87946694824218,171.8729880810547,108.0161869482422Q171.98518808105467,108.15289694824219,172.08344808105468,108.2999469482422Q172.1816980810547,108.44699694824219,172.2650680810547,108.60296694824218Q172.3484380810547,108.75894694824218,172.4161180810547,108.92233694824219Q172.4837980810547,109.08573694824219,172.5351380810547,109.25497694824219Q172.58647808105468,109.42421694824219,172.6209780810547,109.59767694824218Q172.6554880810547,109.77113694824219,172.6728180810547,109.94713694824219Q172.69015808105468,110.1231469482422,172.69015808105468,110.30000694824218Z" fill="#FFFFFF" fill-opacity="1"/></g></g><g><g><path d="M126.19016386230469,66.40003225097657C122.09016486230469,62.70003225097656,119.89015386230469,39.70001225097656,126.29015386230469,38.10001225097656C132.59018386230468,36.50001225097656,147.8901838623047,45.800012250976565,147.8901838623047,45.800012250976565C149.4901838623047,47.40001225097656,149.9901838623047,56.300032250976564,148.8901838623047,57.300032250976564C147.79018386230467,58.300032250976564,130.2901638623047,70.10003225097657,126.19016386230469,66.40003225097657Z" fill="#FFFFFF" fill-opacity="1"/></g><g><path d="M171.89017438964845,61.90001958007812C174.59017438964844,59.500019580078124,171.79017438964843,34.10000958007812,165.79017438964843,35.30000908007813C159.69016438964843,36.50000958007813,153.69017038964844,45.90001958007812,153.69017038964844,45.90001958007812C152.89017038964843,49.000019580078124,153.69017038964844,56.100019580078126,155.19017438964843,57.600019580078126C156.59017438964844,59.20001958007812,169.19017438964843,64.20001958007812,171.89017438964845,61.90001958007812Z" fill="#FFFFFF" fill-opacity="1"/></g><g><path d="M141.0901717423828,52.200006396484376C141.59017194238282,46.700006396484376,146.0901659423828,42.70000239648437,151.2901659423828,43.20000229648438C156.49016594238282,43.70000239648437,160.39016594238282,48.400016396484375,160.0901659423828,53.90000639648437C159.79016594238283,59.50000639648437,155.2901659423828,63.600006396484375,149.89017594238283,63.200006396484376C144.5901759423828,62.700006396484376,140.69017194238282,57.80000639648438,141.0901717423828,52.200006396484376Z" fill="#444444" fill-opacity="1"/></g><g><g><path d="M145.69016841308593,62.599996948242186C147.39016841308595,63.79999694824219,149.59016841308593,64.29999694824218,151.69014841308595,64.0999969482422C153.79014841308594,63.999996948242185,155.79014841308594,62.999996948242185,157.39014841308594,61.599996948242186C158.19014841308592,60.79999694824219,158.89014841308594,59.999996948242185,159.39014841308594,59.099996948242186C159.89014841308594,58.19999694824219,160.29014841308594,57.19999694824219,160.59014841308593,56.19999694824219C161.09014841308593,54.099996948242186,160.99014841308593,51.999996948242185,160.29014841308594,49.999996948242185C159.69014841308592,48.099996948242186,158.39014841308594,46.300006948242185,156.79014841308594,45.10000694824219C155.99014841308593,44.50000694824219,155.09014841308593,43.999996948242185,154.19014841308595,43.69999694824219C153.19014841308595,43.39999694824219,152.29014841308594,43.19999694824219,151.29014841308594,43.19999694824219C155.19014841308595,43.999996948242185,157.99014841308593,47.099996948242186,158.89014841308594,50.499996948242185C159.79014841308594,53.89999694824219,158.79014841308594,57.79999694824219,156.19014841308595,60.099996948242186C153.59014841308593,62.499996948242185,149.59015841308593,62.999996948242185,146.49015841308594,61.29999694824219C143.29015841308595,59.599996948242186,141.19016341308594,56.099996948242186,141.09016341308595,52.19999694824219C140.79016341308593,54.099996948242186,140.99016061308595,56.19999694824219,141.79016041308594,57.999996948242185C142.59015841308593,59.79999694824219,143.89016841308595,61.499996948242185,145.69016841308593,62.599996948242186Z" fill="#FFFFFF" fill-opacity="1"/></g></g></g></g></g></svg>