<svg xmlns="http://www.w3.org/2000/svg" xmlns:xlink="http://www.w3.org/1999/xlink" fill="none" version="1.1" width="290" height="190" viewBox="0 0 290 190"><defs><mask id="master_svg0_0_1022" style="mask-type:alpha" maskUnits="objectBoundingBox"><g><path d="M168.1869140625,26.444469370117186C167.5869140625,26.644469370117186,167.0869140625,26.844479370117188,166.4869140625,27.044479370117188C164.6869140625,27.64447937011719,162.8869140625,28.14447937011719,160.9869140625,28.544479370117188C160.9869140625,28.544479370117188,161.7869140625,31.844479370117188,161.7869140625,31.844479370117188C162.1869140625,33.344479370117185,162.9869140625,34.844479370117185,164.1869140625,35.844479370117185C166.2869140625,39.344479370117185,170.3869140625,50.14447937011719,169.0869140625,56.74447937011719C166.9869140625,67.04447937011719,153.3869140625,73.24447937011719,130.4869140625,63.944479370117186C102.3869140625,52.54447937011719,91.5869140625,20.444469370117186,91.5869140625,20.444469370117186C91.5869140625,19.944473370117187,91.4869140625,19.544479370117188,91.4869140625,19.044479370117188C87.4869140625,20.14447937011719,82.2869140625,21.644469370117186,76.5869140625,23.644469370117186C56.3869140625,30.844479370117188,29.2869140625,44.74447937011719,17.7869140625,69.74447937011719C2.5869140625,102.84447937011718,1.0869140625,149.24447937011718,1.0869140625,149.24447937011718C1.0869140625,149.24447937011718,253.8869140625,149.24447937011718,253.8869140625,149.24447937011718C253.8869140625,149.24447937011718,249.2869140625,78.84447937011718,223.3869140625,57.14447937011719C200.4869140625,37.944479370117186,181.0869140625,29.844479370117188,168.1869140625,26.444469370117186Z" fill="#FFFFFF" fill-opacity="1"/></g></mask></defs><g><g><g><path d="M168.1869140625,26.444469370117186C167.5869140625,26.644469370117186,167.0869140625,26.844479370117188,166.4869140625,27.044479370117188C164.6869140625,27.64447937011719,162.8869140625,28.14447937011719,160.9869140625,28.544479370117188C160.9869140625,28.544479370117188,161.7869140625,31.844479370117188,161.7869140625,31.844479370117188C162.1869140625,33.344479370117185,162.9869140625,34.844479370117185,164.1869140625,35.844479370117185C166.2869140625,39.344479370117185,170.3869140625,50.14447937011719,169.0869140625,56.74447937011719C166.9869140625,67.04447937011719,153.3869140625,73.24447937011719,130.4869140625,63.944479370117186C102.3869140625,52.54447937011719,91.5869140625,20.444469370117186,91.5869140625,20.444469370117186C91.5869140625,19.944473370117187,91.4869140625,19.544479370117188,91.4869140625,19.044479370117188C87.4869140625,20.14447937011719,82.2869140625,21.644469370117186,76.5869140625,23.644469370117186C56.3869140625,30.844479370117188,29.2869140625,44.74447937011719,17.7869140625,69.74447937011719C2.5869140625,102.84447937011718,1.0869140625,149.24447937011718,1.0869140625,149.24447937011718C1.0869140625,149.24447937011718,253.8869140625,149.24447937011718,253.8869140625,149.24447937011718C253.8869140625,149.24447937011718,249.2869140625,78.84447937011718,223.3869140625,57.14447937011719C200.4869140625,37.944479370117186,181.0869140625,29.844479370117188,168.1869140625,26.444469370117186Z" fill="#CE3E3E" fill-opacity="1"/></g><g mask="url(#master_svg0_0_1022)"><g><g><g transform="matrix(0.707099974155426,-0.707099974155426,0.707099974155426,0.707099974155426,20.730125341190103,46.97697196739358)"><path d="M86.07162475585938,17.46578311920166C86.07162475585938,17.46578311920166,86.07162475585938,-1.5342168807983398,86.07162475585938,-1.5342168807983398C86.07162475585938,-1.5342168807983398,67.07162475585938,-1.5342168807983398,67.07162475585938,-1.5342168807983398C67.07162475585938,-1.5342168807983398,67.07162475585938,17.46578311920166,67.07162475585938,17.46578311920166C67.07162475585938,17.46578311920166,86.07162475585938,17.46578311920166,86.07162475585938,17.46578311920166Z" fill="#FFFFFF" fill-opacity="1"/></g><g transform="matrix(0.707099974155426,-0.707099974155426,0.707099974155426,0.707099974155426,36.18389203713963,84.22267336066801)"><path d="M138.75830078125,17.43489933013916C138.75830078125,17.43489933013916,138.75830078125,-1.5651006698608398,138.75830078125,-1.5651006698608398C138.75830078125,-1.5651006698608398,119.75830078125,-1.5651006698608398,119.75830078125,-1.5651006698608398C119.75830078125,-1.5651006698608398,119.75830078125,17.43489933013916,119.75830078125,17.43489933013916C119.75830078125,17.43489933013916,138.75830078125,17.43489933013916,138.75830078125,17.43489933013916Z" fill="#FFFFFF" fill-opacity="1"/></g><g transform="matrix(0.707099974155426,-0.707099974155426,0.707099974155426,0.707099974155426,51.3673180560931,120.93874839005042)"><path d="M190.6704864501953,17.465523719787598C190.6704864501953,17.465523719787598,190.6704864501953,-1.5344762802124023,190.6704864501953,-1.5344762802124023C190.6704864501953,-1.5344762802124023,171.6704864501953,-1.5344762802124023,171.6704864501953,-1.5344762802124023C171.6704864501953,-1.5344762802124023,171.6704864501953,17.465523719787598,171.6704864501953,17.465523719787598C171.6704864501953,17.465523719787598,190.6704864501953,17.465523719787598,190.6704864501953,17.465523719787598Z" fill="#FFFFFF" fill-opacity="1"/></g><g transform="matrix(0.707099974155426,-0.707099974155426,0.707099974155426,0.707099974155426,-8.804579158577326,79.37872304521534)"><path d="M110.4161605834961,69.31873321533203C110.4161605834961,69.31873321533203,110.4161605834961,50.31873321533203,110.4161605834961,50.31873321533203C110.4161605834961,50.31873321533203,91.4161605834961,50.31873321533203,91.4161605834961,50.31873321533203C91.4161605834961,50.31873321533203,91.4161605834961,69.31873321533203,91.4161605834961,69.31873321533203C91.4161605834961,69.31873321533203,110.4161605834961,69.31873321533203,110.4161605834961,69.31873321533203Z" fill="#FFFFFF" fill-opacity="1"/></g><g transform="matrix(0.707099974155426,-0.707099974155426,0.707099974155426,0.707099974155426,6.57854081114283,116.59510446915056)"><path d="M163.03211975097656,69.35846710205078C163.03211975097656,69.35846710205078,163.03211975097656,50.35846710205078,163.03211975097656,50.35846710205078C163.03211975097656,50.35846710205078,144.03211975097656,50.35846710205078,144.03211975097656,50.35846710205078C144.03211975097656,50.35846710205078,144.03211975097656,69.35846710205078,144.03211975097656,69.35846710205078C144.03211975097656,69.35846710205078,163.03211975097656,69.35846710205078,163.03211975097656,69.35846710205078Z" fill="#FFFFFF" fill-opacity="1"/></g><g transform="matrix(0.707099974155426,-0.707099974155426,0.707099974155426,0.707099974155426,-24.258408356813106,42.13305386248385)"><path d="M57.7294921875,69.3497085571289C57.7294921875,69.3497085571289,57.7294921875,50.349708557128906,57.7294921875,50.349708557128906C57.7294921875,50.349708557128906,38.7294921875,50.349708557128906,38.7294921875,50.349708557128906C38.7294921875,50.349708557128906,38.7294921875,69.3497085571289,38.7294921875,69.3497085571289C38.7294921875,69.3497085571289,57.7294921875,69.3497085571289,57.7294921875,69.3497085571289Z" fill="#FFFFFF" fill-opacity="1"/></g><g transform="matrix(0.707099974155426,-0.707099974155426,0.707099974155426,0.707099974155426,21.832615790975524,153.34050486261685)"><path d="M215.01502990722656,69.31847381591797C215.01502990722656,69.31847381591797,215.01502990722656,50.31847381591797,215.01502990722656,50.31847381591797C215.01502990722656,50.31847381591797,196.01502990722656,50.31847381591797,196.01502990722656,50.31847381591797C196.01502990722656,50.31847381591797,196.01502990722656,69.31847381591797,196.01502990722656,69.31847381591797C196.01502990722656,69.31847381591797,215.01502990722656,69.31847381591797,215.01502990722656,69.31847381591797Z" fill="#FFFFFF" fill-opacity="1"/></g><g transform="matrix(0.707099974155426,-0.707099974155426,0.707099974155426,0.707099974155426,-52.73132967922675,77.4144897965275)"><path d="M86.08102416992188,121.3608627319336C86.08102416992188,121.3608627319336,86.08102416992188,102.3608627319336,86.08102416992188,102.3608627319336C86.08102416992188,102.3608627319336,67.08102416992188,102.3608627319336,67.08102416992188,102.3608627319336C67.08102416992188,102.3608627319336,67.08102416992188,121.3608627319336,67.08102416992188,121.3608627319336C67.08102416992188,121.3608627319336,86.08102416992188,121.3608627319336,86.08102416992188,121.3608627319336Z" fill="#FFFFFF" fill-opacity="1"/></g><g transform="matrix(0.707099974155426,-0.707099974155426,0.707099974155426,0.707099974155426,-37.27755774645766,114.66026486533747)"><path d="M138.76779174804688,121.33000946044922C138.76779174804688,121.33000946044922,138.76779174804688,102.33000946044922,138.76779174804688,102.33000946044922C138.76779174804688,102.33000946044922,119.76779174804688,102.33000946044922,119.76779174804688,102.33000946044922C119.76779174804688,102.33000946044922,119.76779174804688,121.33000946044922,119.76779174804688,121.33000946044922C119.76779174804688,121.33000946044922,138.76779174804688,121.33000946044922,138.76779174804688,121.33000946044922Z" fill="#FFFFFF" fill-opacity="1"/></g><g transform="matrix(0.707099974155426,-0.707099974155426,0.707099974155426,0.707099974155426,-22.09412093801484,151.37633542542017)"><path d="M190.6799774169922,121.3606185913086C190.6799774169922,121.3606185913086,190.6799774169922,102.3606185913086,190.6799774169922,102.3606185913086C190.6799774169922,102.3606185913086,171.6799774169922,102.3606185913086,171.6799774169922,102.3606185913086C171.6799774169922,102.3606185913086,171.6799774169922,121.3606185913086,171.6799774169922,121.3606185913086C171.6799774169922,121.3606185913086,190.6799774169922,121.3606185913086,190.6799774169922,121.3606185913086Z" fill="#FFFFFF" fill-opacity="1"/></g><g transform="matrix(0.707099974155426,-0.707099974155426,0.707099974155426,0.707099974155426,-82.26602422177302,109.81631259456617)"><path d="M110.42565155029297,173.21383666992188C110.42565155029297,173.21383666992188,110.42565155029297,154.21383666992188,110.42565155029297,154.21383666992188C110.42565155029297,154.21383666992188,91.42565155029297,154.21383666992188,91.42565155029297,154.21383666992188C91.42565155029297,154.21383666992188,91.42565155029297,173.21383666992188,91.42565155029297,173.21383666992188C91.42565155029297,173.21383666992188,110.42565155029297,173.21383666992188,110.42565155029297,173.21383666992188Z" fill="#FFFFFF" fill-opacity="1"/></g><g transform="matrix(0.707099974155426,-0.707099974155426,0.707099974155426,0.707099974155426,-66.88290425205287,147.0326940185014)"><path d="M163.04161071777344,173.25357055664062C163.04161071777344,173.25357055664062,163.04161071777344,154.25357055664062,163.04161071777344,154.25357055664062C163.04161071777344,154.25357055664062,144.04161071777344,154.25357055664062,144.04161071777344,154.25357055664062C144.04161071777344,154.25357055664062,144.04161071777344,173.25357055664062,144.04161071777344,173.25357055664062C144.04161071777344,173.25357055664062,163.04161071777344,173.25357055664062,163.04161071777344,173.25357055664062Z" fill="#FFFFFF" fill-opacity="1"/></g><g transform="matrix(0.707099974155426,-0.707099974155426,0.707099974155426,0.707099974155426,-97.71985453733373,72.57064071446234)"><path d="M57.73897933959961,173.24481201171875C57.73897933959961,173.24481201171875,57.73897933959961,154.24481201171875,57.73897933959961,154.24481201171875C57.73897933959961,154.24481201171875,38.73897933959961,154.24481201171875,38.73897933959961,154.24481201171875C38.73897933959961,154.24481201171875,38.73897933959961,173.24481201171875,38.73897933959961,173.24481201171875C38.73897933959961,173.24481201171875,57.73897933959961,173.24481201171875,57.73897933959961,173.24481201171875Z" fill="#FFFFFF" fill-opacity="1"/></g><g transform="matrix(0.707099974155426,-0.707099974155426,0.707099974155426,0.707099974155426,-51.62882295203053,183.77807915317862)"><path d="M215.02450561523438,173.21356201171875C215.02450561523438,173.21356201171875,215.02450561523438,154.21356201171875,215.02450561523438,154.21356201171875C215.02450561523438,154.21356201171875,196.02450561523438,154.21356201171875,196.02450561523438,154.21356201171875C196.02450561523438,154.21356201171875,196.02450561523438,173.21356201171875,196.02450561523438,173.21356201171875C196.02450561523438,173.21356201171875,215.02450561523438,173.21356201171875,215.02450561523438,173.21356201171875Z" fill="#FFFFFF" fill-opacity="1"/></g></g></g></g><g><path d="M147.2869111044922,69.94453481445312C145.7869121044922,65.04449481445313,152.6869221044922,59.844484814453125,152.6869221044922,59.844484814453125C155.98692210449218,58.944484814453126,167.1869321044922,65.84449481445313,164.6869321044922,69.94453481445312C162.08693210449218,74.04453481445313,148.6869121044922,74.84453481445313,147.2869111044922,69.94453481445312Z" fill="#CE3E3E" fill-opacity="1"/></g><g><path d="M152.7869110625,59.94447637011719C152.6869109625,59.844476370117185,152.6869140625,59.844479370117185,152.5869140625,59.74447937011719C152.5869140625,59.64447937011719,152.6869109625,59.64447937011719,152.7869110625,59.74447937011719C152.7869110625,59.74447937011719,152.7869110625,59.844476370117185,152.7869110625,59.94447637011719Z" fill="#FFFFFF" fill-opacity="1"/></g><g><path d="M152.68695592041016,59.844476318359376C152.48695592041014,60.94447631835938,152.18695592041016,61.94447631835938,151.88695592041017,63.04447631835937C147.98695592041014,75.34447631835937,134.28695592041015,81.64447631835938,122.08695592041016,77.24447631835938C101.98695592041015,70.04447631835937,76.28691592041015,49.94447631835938,76.48691604041015,23.644476318359374C76.48691604041015,23.544476318359376,76.58691492041015,23.544476318359376,76.58691492041015,23.444476318359374C78.38691592041016,19.744476318359375,81.28691592041015,16.744466318359375,84.88691592041016,14.644466318359374C86.88695592041016,13.544466318359374,89.08695592041016,12.344476318359375,90.88695592041016,11.744476318359375C91.08695592041016,13.244476318359375,91.38695592041016,17.544476318359376,91.48695592041015,19.044476318359376C91.48695592041015,19.544476318359376,91.58695592041016,19.944476318359374,91.58695592041016,20.444476318359374C91.58695592041016,20.444476318359374,97.98695592041015,44.344476318359376,126.08695592041016,55.744476318359375C137.08695592041016,60.144476318359374,145.98695592041014,61.04447631835937,152.48695592041014,59.644476318359374C152.58695592041016,59.744476318359375,152.58695592041016,59.744476318359375,152.68695592041016,59.844476318359376Z" fill="#FFFFFF" fill-opacity="1"/></g><g><path d="M161.3869201660156,67.44447326660156C158.18692016601562,65.34447326660157,155.28692016601562,62.74447326660156,152.68692016601562,59.74447326660156C152.78692016601562,59.644473266601565,152.78691096601563,59.644473266601565,152.78691096601563,59.544473266601564C159.78691016601562,57.94447326660156,163.8869201660156,53.84447326660156,164.68692016601562,48.44447326660156C166.3869201660156,37.044473266601564,159.8869201660156,28.644473266601562,159.8869201660156,28.644473266601562C161.78692016601562,28.244473266601563,164.78692016601562,27.544473266601564,166.58692016601563,26.944473266601562C170.98692016601564,32.24447326660156,175.48692016601564,37.644473266601565,177.18692016601562,51.544473266601564C177.68692016601562,55.44447326660156,177.18692016601562,59.34447326660156,175.8869201660156,62.74447326660156C173.78692016601562,68.64447326660157,166.58692016601563,70.94447326660156,161.3869201660156,67.44447326660156Z" fill="#FFFFFF" fill-opacity="1"/></g><g><path d="M44.5978840625,112.42557431835938Q44.5869140625,112.33535771835938,44.5869140625,112.24447631835938Q44.5869140625,112.17078601835938,44.5941340625,112.09745031835938Q44.6013640625,112.02411531835938,44.6157340625,111.95184131835937Q44.6301140625,111.87956631835938,44.6515040625,111.80904931835937Q44.6728940625,111.73853231835938,44.7010940625,111.67045131835937Q44.7292940625,111.60237031835938,44.7640340625,111.53738131835938Q44.7987740625,111.47239231835937,44.8397140625,111.41112131835938Q44.8806540625,111.34984931835938,44.9273940625,111.29288631835938Q44.9741440625,111.23592631835938,45.0262540625,111.18381631835938Q45.0783640625,111.13170631835938,45.1353240625,111.08495631835937Q45.1922870625,111.03821631835937,45.2535590625,110.99727631835937Q45.3148300625,110.95633631835938,45.3798190625,110.92159631835938Q45.4448080625,110.88685631835938,45.5128890625,110.85865631835938Q45.5809700625,110.83045631835938,45.6514870625,110.80906631835937Q45.7220040625,110.78767631835937,45.7942790625,110.77329631835937Q45.8665530625,110.75892631835937,45.9398880625,110.75169631835938Q46.0132237625,110.74447631835938,46.0869140625,110.74447631835938Q46.1549185625,110.74447631835938,46.2226440625,110.75062631835938Q46.2903690625,110.75678631835937,46.3572600625,110.76903631835937Q46.4241510625,110.78129631835938,46.4896590625,110.79955631835938Q46.5551660625,110.81781631835938,46.6187520625,110.84192631835937Q46.6823390625,110.86603631835938,46.7434830625,110.89580631835938Q46.8046260625,110.92556631835937,46.8628260625,110.96074631835937Q46.9210260625,110.99592631835938,46.9758030625,111.03622631835937Q47.0305810625,111.07652631835937,47.0814870625,111.12161631835937Q47.1323940625,111.16670631835937,47.1790140625,111.21621631835937Q47.2256340625,111.26572631835937,47.2675740625,111.31925231835937Q47.3095240625,111.37277931835938,47.3464540625,111.42988231835938Q47.3833840625,111.48698531835937,47.4149940625,111.54719531835937Q47.4466040625,111.60740531835937,47.4726440625,111.67022931835938Q47.4986740625,111.73305331835938,47.5189140625,111.79797531835938Q47.5391640625,111.86289731835937,47.5534440625,111.92938431835937Q47.5677340625,111.99587131835938,47.5759440625,112.06337831835937L52.0759440625,149.06337631835936Q52.0869140625,149.15357631835937,52.0869140625,149.24447631835938Q52.0869140625,149.31817631835938,52.079694062499996,149.39147631835937Q52.0724640625,149.46487631835936,52.058094062500004,149.53707631835937Q52.0437140625,149.60937631835938,52.0223240625,149.6798763183594Q52.0009340625,149.75037631835937,51.9727340625,149.8184763183594Q51.9445340625,149.88657631835937,51.9097940625,149.95157631835937Q51.8750540625,150.01657631835937,51.8341140625,150.07787631835936Q51.7931740625,150.13907631835937,51.7464340625,150.19607631835936Q51.6996840625,150.25307631835938,51.6475740625,150.30517631835937Q51.5954640625,150.35727631835937,51.5385040625,150.40397631835938Q51.4815440625,150.45077631835937,51.4202640625,150.49167631835937Q51.3589940625,150.53257631835936,51.2940040625,150.56737631835938Q51.2290240625,150.60207631835937,51.1609340625,150.6302763183594Q51.0928540625,150.65847631835936,51.0223440625,150.6798763183594Q50.9518240625,150.70127631835936,50.8795440625,150.71567631835939Q50.8072740625,150.73007631835938,50.7339440625,150.73727631835936Q50.6606040625,150.74447631835938,50.5869140625,150.74447631835938Q50.5189040625,150.74447631835938,50.4511840625,150.73827631835937Q50.3834540625,150.73217631835936,50.3165640625,150.71987631835938Q50.2496740625,150.70767631835938,50.1841640625,150.68937631835936Q50.1186640625,150.67117631835936,50.0550740625,150.64697631835938Q49.9914840625,150.62287631835937,49.9303440625,150.59317631835938Q49.8692040625,150.56337631835936,49.8110040625,150.52817631835939Q49.7528040625,150.49297631835938,49.6980240625,150.45277631835938Q49.6432440625,150.41247631835938,49.5923440625,150.3673763183594Q49.5414340625,150.32227631835937,49.4948140625,150.27277631835938Q49.4481940625,150.22317631835938,49.4062540625,150.16967631835936Q49.3643040625,150.11617631835938,49.3273740625,150.05907631835936Q49.2904440625,150.00197631835937,49.2588340625,149.94177631835936Q49.2272240625,149.88157631835938,49.2011840625,149.81867631835937Q49.1751540625,149.75587631835938,49.1549140625,149.6909763183594Q49.1346640625,149.62607631835937,49.1203840625,149.55957631835938Q49.1060940625,149.49307631835939,49.0978840625,149.4255763183594L44.5978840625,112.42557431835938Z" fill-rule="evenodd" fill="#544D4D" fill-opacity="1"/></g><g><path d="M226.5743271142578,100.11463311132813Q226.68691711425782,99.84066511132812,226.68691711425782,99.54446411132812Q226.68691711425782,99.47077381132813,226.6796971142578,99.39743811132813Q226.67247711425782,99.32410311132813,226.6580971142578,99.25182911132812Q226.6437171142578,99.17955411132813,226.6223271142578,99.10903711132812Q226.60093711425782,99.03852011132813,226.57273711425782,98.97043911132812Q226.54453711425782,98.90235811132813,226.50979711425782,98.83736911132813Q226.47506711425783,98.77238011132812,226.43412711425782,98.71110911132813Q226.3931871142578,98.64983711132813,226.3464371142578,98.59287411132813Q226.2996871142578,98.53591411132813,226.2475771142578,98.48380411132813Q226.1954771142578,98.43169411132813,226.1385071142578,98.38494411132812Q226.0815471142578,98.33820411132812,226.02027711425782,98.29726411132812Q225.95900711425782,98.25632411132813,225.89401711425782,98.22158411132813Q225.82902711425783,98.18684411132813,225.76094711425782,98.15864411132813Q225.6928671142578,98.13044411132813,225.62234711425782,98.10905411132812Q225.5518271142578,98.08766411132812,225.4795571142578,98.07328411132812Q225.40727711425782,98.05891411132812,225.33394711425782,98.05168411132813Q225.26060711425782,98.04446411132812,225.18691711425782,98.04446411132812Q225.0760071142578,98.04446411132812,224.9663071142578,98.06077411132813Q224.85660711425783,98.07708411132812,224.75049711425783,98.10935411132813Q224.64438711425782,98.14162411132813,224.54417711425782,98.18915411132812Q224.44396711425782,98.23667411132813,224.35182711425782,98.29842411132813Q224.25969711425782,98.36016411132813,224.1776471142578,98.43479411132813Q224.0956071142578,98.50941411132813,224.0254271142578,98.59529411132813Q223.9552371142578,98.68117511132813,223.8984571142578,98.77644311132812Q223.8416681142578,98.87171111132812,223.7995101142578,98.97429511132812Q223.0034771142578,100.91130411132812,222.33850811425782,103.76675411132813Q221.0030971142578,109.50116411132812,221.59818711425783,114.32796411132813Q221.7283871142578,115.38406411132813,222.0673061142578,117.69426411132812Q222.61297911425783,121.41376411132812,222.84468041425782,123.55286411132812Q223.23783711425781,127.18266411132812,223.3024551142578,130.56796411132814Q223.47195011425782,139.44776411132813,221.4208471142578,148.92726411132813Q221.3869171142578,149.08406411132813,221.3869171142578,149.2444641113281Q221.3869171142578,149.31816411132812,221.3941371142578,149.39146411132813Q221.40136711425782,149.46486411132813,221.4157371142578,149.53706411132814Q221.43011711425783,149.60936411132812,221.45150711425782,149.67986411132813Q221.47289711425782,149.75046411132814,221.50109711425782,149.81846411132813Q221.52929711425782,149.88656411132814,221.56403711425781,149.95156411132814Q221.5987771142578,150.01656411132814,221.63971711425782,150.07786411132813Q221.68065711425783,150.13906411132814,221.72739711425783,150.19606411132813Q221.7741471142578,150.25306411132811,221.8262571142578,150.3051641113281Q221.8783671142578,150.35726411132813,221.9353271142578,150.40396411132812Q221.9922901142578,150.4507641113281,222.0535621142578,150.49166411132813Q222.1148331142578,150.53266411132813,222.1798221142578,150.56736411132812Q222.2448111142578,150.60206411132813,222.3128921142578,150.63026411132813Q222.3809731142578,150.65846411132813,222.4514901142578,150.67986411132813Q222.5220071142578,150.70126411132813,222.59428211425782,150.71566411132812Q222.66655611425782,150.73006411132812,222.7398911142578,150.73726411132813Q222.8132268142578,150.7444641113281,222.8869171142578,150.7444641113281Q223.0145091142578,150.7444641113281,223.14026711425782,150.7229641113281Q223.26602511425781,150.70136411132813,223.3863371142578,150.6588641113281Q223.5066491142578,150.61636411132812,223.61805811425782,150.5542641113281Q223.7294661142578,150.49206411132812,223.82876911425782,150.41196411132813Q223.9280771142578,150.33176411132814,224.0124171142578,150.23606411132812Q224.0967671142578,150.14036411132813,224.16372711425782,150.03176411132813Q224.23068711425782,149.92316411132813,224.27834711425783,149.80476411132813Q224.3260071142578,149.68636411132812,224.35298711425781,149.56166411132813L224.3532471142578,149.56056411132812Q226.4780671142578,139.73976411132813,226.3019071142578,130.51076411132811Q226.2347471142578,126.99216411132812,225.8272371142578,123.22986411132813Q225.5894371142578,121.03436411132813,225.0355371142578,117.25876411132813Q224.7016171142578,114.98266411132812,224.5756471142578,113.96096411132812Q224.0457371142578,109.66276411132813,225.26032711425782,104.44718411132813Q225.64274711425782,102.80504411132813,226.1546971142578,101.27516411132812Q226.40593711425782,100.52439911132812,226.5743271142578,100.11463311132813Z" fill-rule="evenodd" fill="#544D4D" fill-opacity="1"/></g></g></g></svg>