<svg xmlns="http://www.w3.org/2000/svg" xmlns:xlink="http://www.w3.org/1999/xlink" fill="none" version="1.1" width="291.5593566894531" height="191.984619140625" viewBox="0 0 291.5593566894531 191.984619140625"><defs><mask id="master_svg0_0_1051" style="mask-type:alpha" maskUnits="objectBoundingBox"><g><path d="M173.40009956359864,26.99989803863525C172.90009956359864,27.199898038635254,168.70009956359863,28.899888038635254,168.10009956359863,29.099888038635253C166.30009956359862,29.699888038635255,164.50009956359864,30.199888038635255,162.60009956359863,30.599888038635253C162.60009956359863,30.599888038635253,168.80009956359862,44.999888038635255,146.60009956359863,45.09988803863526C109.60009956359863,45.399888038635254,93.00009956359864,22.499898038635255,93.00009956359864,22.499898038635255C93.00009956359864,22.099898038635253,92.70009956359863,18.399888038635254,92.70009956359863,17.899888038635254C88.60009956359863,18.999888038635255,84.20009956359863,21.199908038635254,78.50009956359864,23.199908038635254C58.40009956359863,30.399888038635254,30.800099563598632,46.899888038635254,19.300099563598632,71.89988803863525C4.100099563598633,104.99988803863525,2.600099563598633,151.39988803863525,2.600099563598633,151.39988803863525C2.600099563598633,151.39988803863525,255.40009956359864,151.39988803863525,255.40009956359864,151.39988803863525C255.40009956359864,151.39988803863525,250.80009956359862,80.89988803863525,225.00009956359864,59.19988803863525C202.10009956359863,39.999888038635255,186.30009956359862,30.399888038635254,173.40009956359864,26.99989803863525Z" fill="#FFFFFF" fill-opacity="1"/></g></mask></defs><g><g><path d="M92.699951171875,17.899951280822755C92.699951171875,17.899951280822755,92.499951171875,15.599961280822754,92.499951171875,15.599961280822754C89.799951171875,15.799961280822753,75.199951171875,21.599961280822754,75.199951171875,21.599961280822754C75.199951171875,21.599961280822754,79.699951171875,24.499971280822756,80.399951171875,23.69997128082275C81.099951171875,22.899971280822754,92.699951171875,17.899951280822755,92.699951171875,17.899951280822755Z" fill="#7E5D6D" fill-opacity="1"/></g><g><path d="M173.40009956359864,26.99989803863525C172.90009956359864,27.199898038635254,168.70009956359863,28.899888038635254,168.10009956359863,29.099888038635253C166.30009956359862,29.699888038635255,164.50009956359864,30.199888038635255,162.60009956359863,30.599888038635253C162.60009956359863,30.599888038635253,168.80009956359862,44.999888038635255,146.60009956359863,45.09988803863526C109.60009956359863,45.399888038635254,93.00009956359864,22.499898038635255,93.00009956359864,22.499898038635255C93.00009956359864,22.099898038635253,92.70009956359863,18.399888038635254,92.70009956359863,17.899888038635254C88.60009956359863,18.999888038635255,84.20009956359863,21.199908038635254,78.50009956359864,23.199908038635254C58.40009956359863,30.399888038635254,30.800099563598632,46.899888038635254,19.300099563598632,71.89988803863525C4.100099563598633,104.99988803863525,2.600099563598633,151.39988803863525,2.600099563598633,151.39988803863525C2.600099563598633,151.39988803863525,255.40009956359864,151.39988803863525,255.40009956359864,151.39988803863525C255.40009956359864,151.39988803863525,250.80009956359862,80.89988803863525,225.00009956359864,59.19988803863525C202.10009956359863,39.999888038635255,186.30009956359862,30.399888038635254,173.40009956359864,26.99989803863525Z" fill="#E89D6B" fill-opacity="1"/></g><g mask="url(#master_svg0_0_1051)"><g><g><path d="M69.20011177062989,-3.200073133239746C74.00011177062989,-0.10007313323974643,76.50011177062989,1.3999368667602532,81.40011177062988,4.199936866760254C86.60011177062988,4.099936866760254,89.20011177062989,3.899936866760253,94.40011177062988,3.4999368667602546C99.50011177062989,6.099936866760254,102.00011177062989,7.299936866760255,107.10011177062988,9.699936866760254C112.40011177062988,8.999936866760255,115.00011177062989,8.599936866760252,120.30011177062988,7.699936866760254C125.50011177062989,9.799936866760255,128.1001117706299,10.799936866760255,133.40011177062988,12.699936866760254C138.7001117706299,11.499936866760255,141.40011177062988,10.799936866760255,146.7001117706299,9.399936866760253C152.1001117706299,10.999936866760255,154.80011177062988,11.699936866760254,160.2001117706299,13.099936866760252C165.50011177062987,11.299936866760255,168.2001117706299,10.399936866760253,173.50011177062987,8.399936866760253C179.00011177062987,9.399936866760253,181.80011177062988,9.899936866760253,187.30011177062988,10.699936866760254C192.6001117706299,8.399936866760253,195.30011177062988,7.0999368667602525,200.6001117706299,4.599936866760254C206.2001117706299,4.999936866760255,209.00011177062987,5.199936866760254,214.7001117706299,5.399936866760253C220.00011177062987,2.4999368667602546,222.6001117706299,0.8999368667602532,227.80011177062988,-2.200073133239746C233.00011177062987,-2.4000731332397462,235.7001117706299,-2.600063133239746,240.90011177062988,-3.100063133239746C241.50011177062987,-5.500063133239746,241.7001117706299,-6.800073133239746,242.30011177062988,-9.200072133239747C236.1001117706299,-8.600073133239746,232.90011177062988,-8.400063133239746,226.7001117706299,-8.100063133239747C221.6001117706299,-5.100063133239746,219.1001117706299,-3.6000731332397464,213.90011177062988,-0.7000731332397461C208.40011177062988,-0.9000731332397454,205.6001117706299,-1.1000731332397464,200.00011177062987,-1.5000731332397468C194.80011177062988,0.9999368667602546,192.2001117706299,2.199936866760254,186.90011177062988,4.499936866760255C181.40011177062988,3.699936866760254,178.7001117706299,3.199936866760254,173.2001117706299,2.199936866760254C167.90011177062988,4.099936866760254,165.30011177062988,4.999936866760255,160.00011177062987,6.799936866760255C154.6001117706299,5.399936866760253,151.90011177062988,4.699936866760254,146.6001117706299,3.0999368667602543C141.30011177062988,4.499936866760255,138.7001117706299,5.199936866760254,133.40011177062988,6.399936866760253C128.2001117706299,4.499936866760255,125.60011177062988,3.4999368667602546,120.40011177062988,1.3999368667602532C115.10011177062988,2.2999368667602536,112.50011177062989,2.699936866760254,107.30011177062988,3.399936866760253C102.20011177062989,0.9999368667602546,99.70011177062989,-0.20006313323974645,94.70011177062989,-2.800063133239746C89.50011177062989,-2.4000631332397457,87.00011177062989,-2.200073133239746,81.80011177062988,-2.000073133239746C76.90011177062988,-4.800073133239746,74.50011177062989,-6.300063133239746,69.70011177062989,-9.300063133239746C64.10012177062988,-9.300063133239746,61.30011177062988,-9.500063133239745,55.80011177062988,-9.800063133239746C56.500111770629886,-7.400063133239746,56.80011177062988,-6.2000631332397464,57.60011177062988,-3.600063133239746C62.20011177062988,-3.4000631332397457,64.50012177062989,-3.3000731332397457,69.20011177062989,-3.200073133239746Z" fill="#FFFF8D" fill-opacity="1"/></g><g><path d="M67.80012397766113,21.899914659729006C72.70012397766114,24.899924659729002,75.20012397766114,26.299924659729005,80.20012397766114,28.999924659729004C85.30012397766113,28.699924659729003,87.90012397766114,28.499924659729004,93.10012397766113,27.999924659729004C98.30012397766113,30.499924659729004,100.80012397766113,31.599924659729005,106.00012397766113,33.899924659729C111.30012397766113,33.099924659729005,113.90012397766114,32.599924659729005,119.10012397766113,31.599924659729005C124.40012397766114,33.599924659729005,127.10012397766113,34.499924659729004,132.40012397766114,36.299924659729C137.60012397766113,34.999924659729004,140.30012397766114,34.19992465972901,145.50012397766113,32.69992465972901C150.90012397766114,34.099924659729005,153.60012397766113,34.799924659729,159.10012397766113,35.999924659729004C164.30012397766114,34.19992465972901,167.00012397766113,33.19992465972901,172.20012397766112,31.099924659729005C177.80012397766114,31.899924659729002,180.60012397766113,32.299924659729,186.20012397766112,32.999924659729004C191.40012397766114,30.599924659729005,194.00012397766113,29.299924659729005,199.20012397766112,26.699924659729003C204.90012397766114,26.999924659729004,207.70012397766112,27.099924659729005,213.40012397766114,27.099924659729005C218.60012397766113,24.099924659729005,221.10012397766113,22.499924659729004,226.20012397766112,19.299944659729004C231.40012397766114,18.899944659729,234.10012397766113,18.599924659729005,239.30012397766114,17.999924659729004C239.70012397766112,15.599924659729004,239.90012397766114,14.399924659729004,240.40012397766114,11.999924659729004C234.10012397766113,12.699924659729003,231.00012397766113,12.999924659729004,224.70012397766112,13.499924659729004C219.70012397766112,16.599924659729005,217.20012397766112,18.099934659729005,212.20012397766112,21.099934659729C206.60012397766113,20.999934659729004,203.80012397766114,20.899934659729006,198.20012397766112,20.599934659729C193.10012397766113,23.199924659729003,190.50012397766113,24.399924659729002,185.40012397766114,26.799924659729005C179.90012397766114,26.099924659729005,177.10012397766113,25.699924659729003,171.60012397766113,24.799924659729005C166.40012397766114,26.899924659729002,163.80012397766114,27.799924659729005,158.60012397766113,29.699924659729003C153.20012397766112,28.499924659729004,150.50012397766113,27.799924659729005,145.10012397766113,26.399924659729002C139.90012397766114,27.899924659729002,137.30012397766114,28.699924659729003,132.10012397766113,29.999924659729004C126.90012397766114,28.299924659729005,124.20012397766114,27.399924659729002,119.00012397766113,25.399924659729002C113.90012397766114,26.399924659729002,111.30012397766113,26.899924659729002,106.10012397766113,27.699924659729003C101.00012397766113,25.399924659729002,98.50012397766113,24.199924659729003,93.40012397766114,21.799944659729004C88.30012397766113,22.399924659729002,85.70012397766114,22.599924659729005,80.60012397766113,22.899924659729002C75.60012397766113,20.199914659729004,73.20012397766114,18.799914659729005,68.30012397766113,15.899914659729003C62.80012397766113,15.999914659729004,60.00012397766113,15.899934659729004,54.50012397766113,15.699934659729003C55.30012397766113,18.199934659729003,55.600123977661134,19.399934659729006,56.30012397766113,21.699934659729003C60.90012397766113,21.899934659729006,63.200123977661136,21.899914659729006,67.80012397766113,21.899914659729006Z" fill="#FFFF8D" fill-opacity="1"/></g><g><path d="M66.80009956359864,46.69992465972901C71.80009956359864,49.499924659729004,74.30009956359864,50.899924659729,79.40009956359863,53.499924659729004C84.50009956359864,52.999924659729004,87.10009956359863,52.69992465972901,92.20009956359863,52.099924659729005C97.40009956359863,54.499924659729004,100.10009956359863,55.599924659729005,105.30009956359864,57.69992465972901C110.50009956359864,56.799924659729,113.00009956359864,56.19992465972901,118.20009956359863,55.099924659729005C123.50009956359864,56.899924659729,126.20009956359863,57.799924659729,131.60009956359863,59.399924659729C136.80009956359862,57.899924659729,139.30009956359862,57.19992465972901,144.50009956359864,55.499924659729004C150.00009956359864,56.799924659729,152.80009956359862,57.399924659729,158.30009956359862,58.499924659729004C163.50009956359864,56.499924659729004,166.10009956359863,55.499924659729004,171.20009956359863,53.299924659729C176.80009956359862,54.099924659729005,179.70009956359863,54.399924659729,185.30009956359862,54.899924659729C190.40009956359864,52.299924659729,192.90009956359864,50.999924659729004,198.00009956359864,48.299924659729C203.70009956359863,48.499924659729004,206.60009956359863,48.499924659729004,212.30009956359862,48.399924659729C217.30009956359862,45.299924659729,219.70009956359863,43.69992465972901,224.70009956359863,40.399914659729006C229.90009956359864,39.899914659729006,232.50009956359864,39.599914659729,237.80009956359862,38.899914659729006C238.20009956359863,36.599914659729,238.30009956359862,35.399924659729,238.70009956359863,32.999924659729004C232.40009956359864,33.899924659729,229.20009956359863,34.199944659729006,222.90009956359864,34.79994465972901C218.00009956359864,37.999944659729,215.60009956359863,39.599934659729,210.70009956359863,42.599934659729C205.10009956359863,42.699934659729,202.20009956359863,42.69992465972901,196.60009956359863,42.499924659729004C191.60009956359863,45.19992465972901,189.10009956359863,46.499924659729004,184.10009956359863,48.999924659729004C178.50009956359864,48.499924659729004,175.80009956359862,48.19992465972901,170.20009956359863,47.399924659729C165.10009956359863,49.599924659729005,162.60009956359863,50.599924659729005,157.50009956359864,52.599924659729005C152.10009956359863,51.499924659729004,149.30009956359862,50.899924659729,143.90009956359864,49.599924659729005C138.80009956359862,51.299924659729,136.20009956359863,51.999924659729004,131.10009956359863,53.499924659729004C125.80009956359864,51.899924659729,123.10009956359863,50.999924659729004,117.80009956359864,49.19992465972901C112.60009956359863,50.299924659729,110.10009956359863,50.899924659729,105.00009956359864,51.799924659729C99.80009956359864,49.69992465972901,97.20009956359863,48.599924659729005,92.10009956359863,46.299924659729C87.00009956359864,46.999924659729004,84.50009956359864,47.299924659729,79.40009956359863,47.69992465972901C74.40009956359863,45.099924659729005,71.90009956359863,43.799924659729,66.90009956359863,40.999924659729004C61.300099563598636,41.19992465972901,58.60009956359863,41.199934659729,53.10009956359863,41.099934659729C54.00009956359863,43.399924659729,54.40009956359863,44.599924659729005,55.40009956359863,46.799924659729C59.90009956359863,46.899924659729,62.200099563598634,46.799924659729,66.80009956359864,46.69992465972901Z" fill="#FFFF8D" fill-opacity="1"/></g><g><path d="M65.50007514953613,71.59991245269775C70.60007514953614,74.29991245269775,73.10007514953614,75.59991245269775,78.30007514953613,78.09991245269775C83.40007514953614,77.49991245269776,85.90007514953614,77.19991245269776,91.00007514953613,76.39991245269775C96.20007514953613,78.59991245269775,98.90007514953614,79.69991245269776,104.20007514953613,81.69991245269776C109.30007514953613,80.69991245269776,111.80007514953613,80.09991245269775,116.90007514953614,78.79991245269775C122.30007514953613,80.49991245269776,125.00007514953613,81.29991245269775,130.50007514953614,82.79991245269775C135.60007514953614,81.19991245269776,138.10007514953614,80.39991245269775,143.20007514953613,78.59991245269775C148.70007514953613,79.79991245269775,151.50007514953614,80.39991245269775,157.10007514953614,81.29991245269775C162.20007514953613,79.19991245269776,164.70007514953613,78.09991245269775,169.70007514953613,75.79991245269775C175.40007514953612,76.49991245269776,178.20007514953613,76.69991245269776,183.90007514953612,77.09991245269775C188.90007514953612,74.39991245269775,191.30007514953613,73.09991245269775,196.30007514953613,70.29991245269775C202.00007514953614,70.39991245269775,204.90007514953612,70.29991245269775,210.70007514953613,70.09991245269775C215.50007514953614,66.99991245269776,218.00007514953614,65.29991245269775,222.80007514953613,61.99989245269775C228.10007514953614,61.399892452697756,230.70007514953613,60.999902452697754,236.00007514953614,60.199902452697756C236.20007514953613,57.79990245269775,236.30007514953613,56.59991245269775,236.60007514953614,54.299912452697754C230.30007514953613,55.299912452697754,227.10007514953614,55.69989245269775,220.80007514953613,56.399892452697756C216.10007514953614,59.59989245269775,213.70007514953613,61.19991245269775,208.90007514953612,64.29991245269775C203.20007514953613,64.49991245269776,200.40007514953612,64.49991245269776,194.70007514953613,64.49991245269776C189.90007514953612,67.29991245269775,187.40007514953612,68.59991245269775,182.50007514953614,71.19991245269776C176.90007514953612,70.79991245269775,174.10007514953614,70.49991245269776,168.50007514953614,69.89991245269775C163.60007514953614,72.19991245269776,161.10007514953614,73.19991245269776,156.10007514953614,75.29991245269775C150.60007514953614,74.29991245269775,147.80007514953613,73.79991245269775,142.30007514953613,72.59991245269775C137.30007514953613,74.29991245269775,134.80007514953613,75.09991245269775,129.80007514953613,76.69991245269776C124.40007514953614,75.19991245269776,121.70007514953613,74.39991245269775,116.30007514953613,72.69991245269776C111.20007514953613,73.99991245269776,108.70007514953613,74.49991245269776,103.70007514953613,75.59991245269775C98.40007514953614,73.59991245269775,95.80007514953613,72.59991245269775,90.60007514953614,70.39991245269775C85.60007514953614,71.19991245269776,83.10007514953614,71.49991245269776,78.10007514953614,72.09991245269775C73.00007514953613,69.69991245269776,70.40007514953614,68.39991245269775,65.40007514953614,65.69991245269776C59.900075149536136,65.89991245269775,57.10007514953613,65.99991245269776,51.70007514953613,66.09991245269775C52.70007514953613,68.49991245269776,53.20007514953613,69.69991245269776,54.20007514953613,71.99991245269776C58.70007514953613,71.89991245269775,61.000065149536134,71.79991245269775,65.50007514953613,71.59991245269775Z" fill="#FFFF8D" fill-opacity="1"/></g><g><path d="M64.20007514953613,96.09993686676026C69.30007514953613,98.69993686676025,71.90007514953614,99.89993686676026,77.20007514953613,102.29993686676025C82.20007514953613,101.59993686676026,84.70007514953613,101.19993686676025,89.70007514953613,100.29993686676025C95.10007514953614,102.39993686676026,97.80007514953613,103.29993686676025,103.20007514953613,105.19993686676025C108.20007514953613,103.99993686676025,110.70007514953613,103.39993686676026,115.70007514953613,101.99993686676025C121.20007514953613,103.49993686676025,124.00007514953613,104.29993686676025,129.50007514953614,105.59993686676026C134.50007514953614,103.89993686676026,137.00007514953614,102.99993686676025,142.00007514953614,101.09993686676026C147.60007514953614,102.09993686676026,150.40007514953612,102.59993686676026,156.10007514953614,103.39993686676026C161.00007514953614,101.19993686676025,163.50007514953614,100.09993686676026,168.40007514953612,97.69993686676025C174.10007514953614,98.19993686676025,177.00007514953614,98.29993686676025,182.70007514953613,98.59993686676026C187.50007514953614,95.99993686676025,190.00007514953614,94.59993686676026,194.80007514953613,91.69993686676025C200.60007514953614,91.59993686676026,203.50007514953614,91.49993686676025,209.30007514953613,91.19993686676025C214.00007514953614,87.99993686676025,216.40007514953612,86.39993686676026,221.10007514953614,82.99992686676025C226.40007514953612,82.29992686676026,229.00007514953614,81.89992686676025,234.30007514953613,80.99992686676025C234.50007514953614,78.69992686676025,234.50007514953614,77.49993686676025,234.70007514953613,75.19993686676025C228.40007514953612,76.29993686676025,225.20007514953613,76.79992686676026,218.80007514953613,77.59992686676026C214.20007514953613,80.89992686676025,211.90007514953612,82.49992686676025,207.20007514953613,85.59993686676026C201.50007514953614,85.89993686676026,198.60007514953614,85.99993686676025,192.90007514953612,86.09993686676026C188.10007514953614,88.89993686676026,185.70007514953613,90.29993686676025,180.90007514953612,92.89993686676026C175.20007514953613,92.59993686676026,172.40007514953612,92.39993686676026,166.70007514953613,91.89993686676026C161.80007514953613,94.19993686676025,159.40007514953612,95.29993686676025,154.50007514953614,97.49993686676025C148.90007514953612,96.69993686676025,146.20007514953613,96.19993686676025,140.60007514953614,95.19993686676025C135.70007514953613,96.99993686676025,133.20007514953613,97.89993686676026,128.30007514953613,99.59993686676026C122.90007514953614,98.29993686676025,120.10007514953614,97.59993686676026,114.70007514953613,95.99993686676025C109.70007514953613,97.39993686676026,107.20007514953613,97.99993686676025,102.30007514953613,99.19993686676025C97.00007514953613,97.39993686676026,94.30007514953613,96.39993686676026,89.00007514953613,94.29993686676025C84.00007514953613,95.19993686676025,81.50007514953613,95.59993686676026,76.60007514953614,96.29993686676025C71.40007514953614,93.99993686676025,68.80007514953613,92.79993686676025,63.70007514953613,90.19993686676025C58.300075149536134,90.59993686676026,55.60007514953613,90.79993686676025,50.20007514953613,90.99993686676025C51.300075149536134,93.29993686676025,51.90006514953613,94.49993686676025,53.000065149536134,96.79993686676025C57.500065149536134,96.59993686676026,59.70007514953613,96.49993686676025,64.20007514953613,96.09993686676026Z" fill="#FFFF8D" fill-opacity="1"/></g><g><path d="M62.80011177062988,120.29996128082276C68.10011177062988,122.69996128082275,70.80011177062988,123.89996128082275,76.10011177062988,126.09996128082275C81.00011177062989,125.29996128082276,83.50011177062989,124.79996128082276,88.40011177062988,123.79996128082276C93.90011177062988,125.79996128082276,96.60011177062988,126.69996128082275,102.10011177062988,128.39996128082277C107.00011177062989,127.09996128082275,109.50011177062989,126.39996128082275,114.40011177062988,124.89996128082275C120.00011177062989,126.29996128082276,122.80011177062988,126.99996128082276,128.40011177062988,128.19996128082275C133.30011177062988,126.39996128082275,135.7001117706299,125.49996128082276,140.6001117706299,123.49996128082276C146.30011177062988,124.39996128082275,149.2001117706299,124.79996128082276,154.90011177062988,125.49996128082276C159.7001117706299,123.19996128082275,162.1001117706299,122.09996128082275,166.90011177062988,119.59996128082275C172.7001117706299,119.99996128082276,175.6001117706299,120.09996128082275,181.40011177062988,120.19996128082275C186.1001117706299,117.49996128082276,188.50011177062987,115.99996128082276,193.2001117706299,113.09996128082275C199.00011177062987,112.89996128082275,202.00011177062987,112.79996128082276,207.80011177062988,112.29996128082276C212.40011177062988,109.09996128082275,214.7001117706299,107.39996128082275,219.30011177062988,103.99995128082276C224.6001117706299,103.19995128082276,227.2001117706299,102.79997128082276,232.50011177062987,101.79997128082276C232.6001117706299,99.49997128082275,232.6001117706299,98.39996128082275,232.7001117706299,96.09996128082275C226.30011177062988,97.29996128082276,223.1001117706299,97.79997128082276,216.7001117706299,98.69997128082275C212.2001117706299,101.99997128082275,209.90011177062988,103.59997128082276,205.40011177062988,106.79996128082276C199.6001117706299,107.19996128082275,196.80011177062988,107.29996128082276,191.00011177062987,107.49996128082276C186.30011177062988,110.39996128082275,184.00011177062987,111.79996128082276,179.30011177062988,114.49996128082276C173.6001117706299,114.29996128082276,170.7001117706299,114.19996128082275,165.00011177062987,113.79996128082276C160.2001117706299,116.19996128082275,157.90011177062988,117.29996128082276,153.1001117706299,119.59996128082275C147.40011177062988,118.89996128082275,144.6001117706299,118.49996128082276,139.00011177062987,117.59996128082275C134.1001117706299,119.59996128082275,131.7001117706299,120.49996128082276,126.90011177062988,122.29996128082276C121.40011177062988,121.09996128082275,118.60011177062988,120.39996128082275,113.10011177062988,118.99996128082276C108.30011177062988,120.49996128082276,105.90011177062988,121.19996128082275,101.00011177062989,122.49996128082276C95.60011177062988,120.79996128082276,92.90011177062988,119.79996128082276,87.50011177062989,117.89996128082275C82.60011177062988,118.89996128082275,80.20011177062989,119.39996128082275,75.30011177062988,120.19996128082275C70.00011177062989,117.99996128082276,67.40011177062988,116.79996128082276,62.20011177062988,114.39996128082275C56.800121770629886,114.99996128082276,54.10011177062988,115.19996128082275,48.80011177062988,115.59996128082275C50.000111770629886,117.89996128082275,50.60011177062988,119.09996128082275,51.80011177062988,121.29996128082276C56.20011177062988,120.99996128082276,58.400111770629884,120.79996128082276,62.80011177062988,120.29996128082276Z" fill="#FFFF8D" fill-opacity="1"/></g><g><path d="M61.500111770629886,144.699924659729C66.90011177062988,146.999924659729,69.60011177062988,148.099924659729,75.00011177062989,150.199924659729C79.80011177062988,149.199924659729,82.30011177062988,148.699924659729,87.10011177062988,147.499924659729C92.70011177062989,149.29992465972902,95.40011177062988,150.099924659729,101.00011177062989,151.699924659729C105.80011177062988,150.29992465972902,108.20011177062989,149.499924659729,113.00011177062989,147.899924659729C118.70011177062989,149.199924659729,121.50011177062989,149.79992465972902,127.20011177062989,150.899924659729C131.90011177062988,148.999924659729,134.30011177062988,147.999924659729,139.1001117706299,145.899924659729C144.80011177062988,146.599924659729,147.7001117706299,146.999924659729,153.50011177062987,147.499924659729C158.30011177062988,145.199924659729,160.6001117706299,143.899924659729,165.30011177062988,141.399924659729C171.1001117706299,141.599924659729,174.1001117706299,141.699924659729,179.90011177062988,141.699924659729C184.50011177062987,138.79992465972902,186.80011177062988,137.399924659729,191.40011177062988,134.399924659729C197.30011177062988,134.099924659729,200.2001117706299,133.899924659729,206.1001117706299,133.29992465972902C210.6001117706299,129.999924659729,212.80011177062988,128.29992465972902,217.30011177062988,124.899914659729C222.6001117706299,124.09991465972901,225.2001117706299,123.599934659729,230.50011177062987,122.599934659729C230.40011177062988,120.399934659729,230.40011177062988,119.199924659729,230.40011177062988,116.999924659729C224.00011177062987,118.299924659729,220.7001117706299,118.79994465972901,214.30011177062988,119.79994465972901C209.90011177062988,123.099944659729,207.7001117706299,124.799924659729,203.30011177062988,127.999924659729C197.50011177062987,128.499924659729,194.6001117706299,128.699924659729,188.80011177062988,128.999924659729C184.2001117706299,131.899924659729,182.00011177062987,133.29992465972902,177.40011177062988,136.099924659729C171.6001117706299,135.999924659729,168.80011177062988,135.999924659729,163.00011177062987,135.699924659729C158.40011177062988,138.199924659729,156.1001117706299,139.399924659729,151.40011177062988,141.699924659729C145.7001117706299,141.099924659729,142.90011177062988,140.79992465972902,137.2001117706299,139.999924659729C132.50011177062987,141.999924659729,130.1001117706299,142.999924659729,125.40011177062988,144.899924659729C119.80011177062988,143.79992465972902,117.00011177062989,143.199924659729,111.40011177062988,141.899924659729C106.60011177062988,143.499924659729,104.30011177062988,144.29992465972902,99.50011177062989,145.699924659729C94.00011177062989,144.099924659729,91.30011177062988,143.199924659729,85.80011177062988,141.399924659729C81.00011177062989,142.499924659729,78.60011177062988,142.999924659729,73.80011177062988,143.999924659729C68.50011177062989,141.899924659729,65.80011177062988,140.79992465972902,60.500111770629886,138.499924659729C55.20011177062988,139.199924659729,52.60011177062988,139.499924659729,47.30011177062988,139.999924659729C48.60011177062988,142.29992465972902,49.30011177062988,143.499924659729,50.60011177062988,145.999924659729C55.000111770629886,145.599924659729,57.10011177062988,145.29992465972902,61.500111770629886,144.699924659729Z" fill="#FFFF8D" fill-opacity="1"/></g></g><g><path d="M169.00008882141114,20.499913819885254C178.20008882141113,35.299913819885255,177.80008882141112,61.59991381988525,136.00008882141114,56.69991381988525C94.30010882141113,51.69991381988525,88.90011882141113,31.799913819885255,88.90011882141113,31.799913819885255C88.90011882141113,31.799913819885255,82.70010882141113,23.499913819885254,89.50010882141113,16.399883819885254C96.30010882141113,9.299883819885254,159.80008882141112,5.699893819885254,169.00008882141114,20.499913819885254Z" fill="#FFFFFF" fill-opacity="1"/></g></g><g><path d="M46.11100765625,114.48065056933594Q46.10009765625,114.39067186933593,46.10009765625,114.30003356933594Q46.10009765625,114.22634326933594,46.10731765625,114.15300756933594Q46.11454765625,114.07967256933594,46.12891765625,114.00739856933593Q46.14329765625,113.93512356933594,46.16468765625,113.86460656933593Q46.18607765625,113.79408956933594,46.21427765625,113.72600856933593Q46.24247765625,113.65792756933594,46.27721765625,113.59293856933594Q46.31195765625,113.52794956933593,46.35289765625,113.46667856933594Q46.39383765625,113.40540656933594,46.44057765625,113.34844356933594Q46.48732765625,113.29148356933594,46.53943765625,113.23937356933594Q46.59154765625,113.18726356933594,46.64850765625,113.14051356933594Q46.70547065625,113.09377356933594,46.76674265625,113.05283356933593Q46.82801365625,113.01189356933594,46.89300265625,112.97715356933594Q46.95799165625,112.94241356933594,47.02607265625,112.91421356933594Q47.09415365625,112.88601356933594,47.16467065625,112.86462356933593Q47.23518765625,112.84323356933594,47.30746265625,112.82885356933593Q47.37973665625,112.81448356933593,47.45307165625,112.80725356933594Q47.52640735625,112.80003356933594,47.60009765625,112.80003356933594Q47.66811725625,112.80003356933594,47.73585765625,112.80619356933593Q47.80359865625,112.81234356933594,47.87050365625,112.82460356933593Q47.93740865625,112.83687356933594,48.00292965625,112.85513356933593Q48.06845065625,112.87340356933593,48.13204965625,112.89752356933593Q48.19564765625,112.92164356933594,48.25680265625,112.95142356933594Q48.31795665625,112.98120356933593,48.37616465625,113.01639356933593Q48.43437365625,113.05159356933594,48.48915765625,113.09190356933594Q48.54394165625,113.13222356933593,48.59485265625,113.17733356933594Q48.64576765625,113.22244356933594,48.69237765625,113.27197356933594Q48.73899765625,113.32150156933594,48.78094765625,113.37504856933593Q48.82288765625,113.42859556933594,48.85981765625,113.48571956933594Q48.89674765625,113.54284356933594,48.92834765625,113.60307456933593Q48.95994765625,113.66330556933593,48.98597765625,113.72615056933594Q49.01199765625,113.78899556933594,49.03222765625,113.85393756933594Q49.05245765625,113.91887956933594,49.06672765625,113.98538556933593Q49.08099765625,114.05189156933594,49.08918765625,114.11941656933594L53.58918765625,151.21943356933593Q53.60009765625,151.30933356933593,53.60009765625,151.40003356933593Q53.60009765625,151.47373356933593,53.592877656249996,151.54703356933595Q53.58564765625,151.62033356933594,53.571277656250004,151.69263356933595Q53.55689765625,151.76493356933594,53.53550765625,151.83543356933595Q53.51411765625,151.90593356933593,53.48591765625,151.97403356933594Q53.45771765625,152.04213356933593,53.42297765625,152.10713356933593Q53.38823765625,152.17213356933593,53.34729765625,152.23333356933594Q53.30635765625,152.29463356933593,53.25961765625,152.35163356933595Q53.21286765625,152.40853356933593,53.16075765625,152.46063356933593Q53.10864765625,152.51273356933592,53.05168765625,152.55953356933594Q52.99472765625,152.60623356933593,52.93344765625,152.64723356933592Q52.87217765625,152.68813356933595,52.80718765625,152.72293356933594Q52.74220765625,152.75763356933595,52.67411765625,152.78583356933592Q52.60603765625,152.81403356933595,52.53552765625,152.83543356933595Q52.46500765625,152.85683356933595,52.39272765625,152.87123356933594Q52.32045765625,152.88553356933593,52.24712765625,152.89283356933595Q52.17378765625,152.90003356933593,52.10009765625,152.90003356933593Q52.03207765625,152.90003356933593,51.96433765625,152.89383356933592Q51.89659765625,152.88773356933592,51.82969765625,152.87543356933594Q51.76278765625,152.86313356933593,51.69726765625,152.84493356933592Q51.63174765625,152.82663356933594,51.56814765625,152.80253356933594Q51.50454765625,152.77843356933593,51.44339765625,152.74863356933594Q51.38223765625,152.71883356933594,51.32402765625,152.68363356933594Q51.26581765625,152.64843356933594,51.21103765625,152.60813356933593Q51.15625765625,152.56783356933593,51.105347656250004,152.52273356933594Q51.05443765625,152.47763356933592,51.00781765625,152.42803356933592Q50.96119765625,152.37853356933593,50.91924765625,152.32503356933594Q50.87730765625,152.27143356933595,50.84037765625,152.21433356933593Q50.80345765625,152.15723356933594,50.77184765625,152.09693356933593Q50.74024765625,152.03673356933592,50.71421765625,151.97393356933594Q50.68819765625,151.91103356933593,50.66796765625,151.84613356933593Q50.64773765625,151.78113356933594,50.63346765625,151.71463356933594Q50.61919765625,151.64813356933593,50.61100765625,151.58063356933593L46.11100765625,114.48065056933594Z" fill-rule="evenodd" fill="#544D4D" fill-opacity="1"/></g><g><path d="M228.08735234375,102.27005291308593Q228.19992234375,101.99610791308594,228.19992234375,101.69993591308594Q228.19992234375,101.62624561308594,228.19270234375,101.55290991308594Q228.18547234375,101.47957491308594,228.17110234375,101.40730091308593Q228.15672234375,101.33502591308594,228.13533234375,101.26450891308593Q228.11394234375,101.19399191308594,228.08574234375,101.12591091308593Q228.05754234375,101.05782991308594,228.02280234375,100.99284091308594Q227.98806234375,100.92785191308593,227.94712234375,100.86658091308594Q227.90618234375,100.80530891308594,227.85943234375,100.74834591308594Q227.81269234375,100.69138591308594,227.76058234375,100.63927591308594Q227.70847234375,100.58716591308594,227.65151234375,100.54041591308594Q227.59454234375,100.49367591308594,227.53327234375,100.45273591308593Q227.47200234375,100.41179591308594,227.40701234375,100.37705591308594Q227.34202234375,100.34231591308594,227.27394234375,100.31411591308594Q227.20586234375,100.28591591308594,227.13535234375001,100.26452591308593Q227.06483234375,100.24313591308594,226.99255234375,100.22875591308593Q226.92028234375,100.21438591308593,226.84694234375,100.20715591308594Q226.77361234375,100.19993591308594,226.69992234375,100.19993591308594Q226.58901234375,100.19993591308594,226.47931234375,100.21624591308594Q226.36960234375,100.23255591308593,226.26349234375,100.26482591308594Q226.15738234375,100.29709591308594,226.05717234375,100.34462591308593Q225.95696234375,100.39214591308594,225.86483234375,100.45389591308594Q225.77270234375,100.51563591308594,225.69065234375,100.59026591308594Q225.60860234375,100.66488591308594,225.53842234375,100.75076691308594Q225.46824234375,100.83664691308594,225.41145234375,100.93191591308593Q225.35466734375,101.02718391308593,225.31251034375,101.12976791308594L225.31248634375,101.12982491308594L225.31214334375,101.13065991308594Q224.51576934375,103.06898591308594,223.85094234375,105.92465591308594Q222.51623234375,111.65772591308594,223.11118234375,116.48353591308594Q223.24138234375,117.53953591308594,223.58030134375,119.84973591308594Q224.12597634375,123.56923591308593,224.35767424375,125.70833591308593Q224.75082934375,129.33803591308595,224.81544534375,132.72343591308595Q224.98493734375,141.60323591308594,222.93383234375,151.08273591308594Q222.89990234375,151.23953591308594,222.89990234375,151.39993591308593Q222.89990234375,151.47363591308593,222.90712234375,151.54693591308595Q222.91435234375,151.62023591308593,222.92872234375,151.69253591308595Q222.94310234375,151.76483591308593,222.96449234375,151.83533591308594Q222.98588234375,151.90583591308592,223.01408234375,151.97393591308594Q223.04228234375,152.04203591308595,223.07702234375,152.10703591308595Q223.11176234375,152.17203591308595,223.15270234375,152.23323591308593Q223.19364234375,152.29453591308595,223.24038234375,152.35153591308594Q223.28713234375,152.40843591308595,223.33924234375,152.46053591308595Q223.39135234375,152.51263591308594,223.44831234375,152.55943591308593Q223.50527534375,152.60613591308595,223.56654734375,152.64713591308595Q223.62781834375,152.68803591308594,223.69280734375,152.72283591308593Q223.75779634375,152.75753591308595,223.82587734375,152.78573591308594Q223.89395834375,152.81393591308594,223.96447534375,152.83533591308594Q224.03499234375,152.85673591308594,224.10726734375,152.87113591308594Q224.17954134375,152.88543591308593,224.25287634375,152.89273591308594Q224.32621204375,152.89993591308593,224.39990234375,152.89993591308593Q224.52749434375,152.89993591308593,224.65325234375,152.87833591308595Q224.77901034375,152.85683591308594,224.89932234375,152.81433591308593Q225.01963434375,152.77183591308594,225.13104334375,152.70963591308595Q225.24245134375,152.64743591308593,225.34175434375,152.56733591308594Q225.44106234375,152.48723591308595,225.52540234375,152.39153591308593Q225.60975234375,152.29573591308593,225.67671234375,152.18713591308594Q225.74367234375,152.07853591308594,225.79133234375,151.96023591308594Q225.83899234375,151.84183591308593,225.86597234375,151.71713591308594L225.86619234375,151.71613591308594Q227.99106234375,141.89533591308594,227.81490234375,132.66613591308595Q227.74774234375,129.14753591308593,227.34023234375,125.38533591308594Q227.10243234375,123.18983591308594,226.54853234375,119.41423591308595Q226.21462234375,117.13823591308594,226.08864234375,116.11643591308594Q225.55885234375,111.81923591308593,226.77280234375,106.60489591308594Q227.15511234375,104.96272591308593,227.66704234375,103.43258591308594Q227.91853234375,102.68090591308594,228.08733234375,102.27010591308594L228.08735234375,102.27005291308593L228.08735234375,102.27005291308593Z" fill-rule="evenodd" fill="#544D4D" fill-opacity="1"/></g><g><path d="M0.0000019073486328125,162.10039973449707C0.0000019073486328125,162.10039973449707,97.00000190734863,166.70039973449707,97.00000190734863,166.70039973449707C97.00000190734863,166.70039973449707,101.70000190734864,114.49999973449707,98.60000190734863,85.49999973449707C94.70000190734864,48.39999973449707,85.30000190734863,29.69999973449707,81.40000190734864,23.29999973449707C80.40000190734864,21.59999773449707,77.10000190734863,20.99998473449707,75.20000190734864,21.59998573449707C41.50000190734863,33.19999973449707,19.700001907348632,47.599999734497075,11.400001907348633,79.69999973449707C2.9000019073486327,112.79999973449706,0.0000019073486328125,162.10039973449707,0.0000019073486328125,162.10039973449707Z" fill="#755B7A" fill-opacity="1"/></g><g><path d="M249.100048828125,77.29993782043456C264.100048828125,110.69993782043457,264.500048828125,163.39993782043456,264.500048828125,163.39993782043456C264.500048828125,163.39993782043456,197.700048828125,163.39993782043456,197.700048828125,163.39993782043456C206.700048828125,85.79993782043456,175.800048828125,27.69993782043457,175.800048828125,27.69993782043457C178.300048828125,26.79993782043457,181.600038828125,25.19993782043457,181.600038828125,25.19993782043457C181.600038828125,25.19993782043457,234.100048828125,43.89993782043457,249.100048828125,77.29993782043456Z" fill="#755B7A" fill-opacity="1"/></g><g><path d="M185.79990234375,26.80003547668457C184.09990234375,26.00003547668457,179.29992234375,23.80003547668457,179.29992234375,23.80003547668457C179.29992234375,23.80003547668457,178.39990234375,24.30003547668457,178.39990234375,24.30003547668457C176.89990234375,25.30003547668457,173.39990234375,27.00001547668457,173.39990234375,27.00001547668457C173.39990234375,27.00001547668457,175.79992234375,27.70002547668457,175.79992234375,27.70002547668457C176.09992234375,27.80002547668457,179.89990234375,31.30003547668457,179.89990234375,31.30003547668457C179.89990234375,31.30003547668457,187.49990234375,27.60003547668457,185.79990234375,26.80003547668457Z" fill="#7E5D6D" fill-opacity="1"/></g><g><path d="M92.9999796875,22.599985814094545C92.9999796875,22.599985814094545,92.9999796875,22.499985814094543,92.9999796875,22.499985814094543C92.4999796875,15.399985814094544,91.9000796875,8.699995814094544,91.2000796875,2.6999958140945433C91.1000796875,2.4999958140945435,91.1000796875,2.3999958140945434,91.1000796875,2.1999958140945433C91.1000796875,1.8999958140945434,90.9999796875,1.5999858140945435,90.9999796875,1.2999858140945435C90.89997968750001,1.0999858140945435,90.9000796875,0.8999978140945435,90.9000796875,0.6999978140945434C90.9000796875,0.49999781409454347,90.9000796875,0.39998881409454345,90.9000796875,0.2999888140945435C90.9000796875,0.19998881409454344,90.9000796875,0.09998581409454346,90.9000796875,-0.000014185905456542969C74.3000396875,7.4999858140945435,63.7000396875,28.999985814094543,65.4000356875,34.699985814094546C66.3000396875,37.49998581409454,79.3000796875,49.89998581409454,86.4000796875,57.89998581409454C94.1000796875,66.49998581409454,97.4999796875,76.19998581409455,97.4999796875,76.19998581409455C95.9999796875,62.29998581409454,92.6000796875,52.49998581409454,91.7000796875,46.99998581409454C88.4000796875,24.099985814094545,92.9999796875,22.599985814094545,92.9999796875,22.599985814094545Z" fill="#4B3C4F" fill-opacity="1"/></g><g><path d="M191.7,12.099961280822754C189.6,14.799961280822753,187.1,17.499971280822756,184,20.19997128082275C180.9,22.899961280822755,177.4,25.199961280822755,173.5,26.999961280822752C173.8,27.499961280822752,180.00002,36.79996128082276,183.30002,44.99996128082275C186.6,53.29996128082276,193.3,79.29996128082276,193.3,79.29996128082276C199.5,55.49996128082275,212.5,51.099961280822754,210.7,40.89996128082275C209.1,31.699961280822755,194.2,14.899961280822755,191.7,12.099961280822754Z" fill="#4B3C4F" fill-opacity="1"/></g></g></svg>