<svg xmlns="http://www.w3.org/2000/svg" xmlns:xlink="http://www.w3.org/1999/xlink" fill="none" version="1.1" width="290" height="190" viewBox="0 0 290 190"><defs><mask id="master_svg0_0_670" style="mask-type:alpha" maskUnits="objectBoundingBox"><g><path d="M89.2,23.34448C103.2,32.2445,120.1,51.6445,140.5,56.5445C173.8,64.5445,161.8,29.84448,161.8,29.84448C161.8,29.84448,175.4,33.7445,175.4,33.7445C178.5,34.6445,183.5,36.3445,186.2,40.1445C205.1,66.7445,210.2,95.6445,214.2,124.944C217.4,148.04399999999998,216.6,170.645,216.6,170.645C166.9,176.445,51.7,170.645,51.7,170.645C45.4,163.645,51.7,126.844,51.7,126.844C86.9,97.3445,70.5,55.1445,57.6,47.2445C50.7,43.0445,47,45.8445,47,45.8445C47.5,40.5445,71.9,25.94448,78.5,23.14448C81.4,21.9444836,85.9,21.244481,89.2,23.34448Z" fill="#FFFFFF" fill-opacity="1"/></g></mask></defs><g><g><g><path d="M89.2,23.34448C103.2,32.2445,120.1,51.6445,140.5,56.5445C173.8,64.5445,161.8,29.84448,161.8,29.84448C161.8,29.84448,175.4,33.7445,175.4,33.7445C178.5,34.6445,183.5,36.3445,186.2,40.1445C205.1,66.7445,210.2,95.6445,214.2,124.944C217.4,148.04399999999998,216.6,170.645,216.6,170.645C166.9,176.445,51.7,170.645,51.7,170.645C45.4,163.645,51.7,126.844,51.7,126.844C86.9,97.3445,70.5,55.1445,57.6,47.2445C50.7,43.0445,47,45.8445,47,45.8445C47.5,40.5445,71.9,25.94448,78.5,23.14448C81.4,21.9444836,85.9,21.244481,89.2,23.34448Z" fill="#444444" fill-opacity="1"/></g><g mask="url(#master_svg0_0_670)"><g><g><g><g><g><path d="M180.603,42.12229340820313Q189.173,47.89589340820312,194.186,49.81259340820313Q194.531,49.94449340820313,194.9,49.94449340820313Q194.998,49.94449340820313,195.096,49.93489340820312Q195.194,49.92519340820313,195.29,49.90609340820313Q195.387,49.88689340820312,195.481,49.85839340820313Q195.575,49.82989340820313,195.665,49.792193408203126Q195.756,49.75459340820312,195.843,49.708293408203126Q195.929,49.661993408203124,196.011,49.60739340820312Q196.093,49.55279340820313,196.169,49.49049340820312Q196.245,49.42819340820313,196.314,49.35869340820312Q196.384,49.289193408203126,196.446,49.21329340820313Q196.508,49.13729340820312,196.563,49.05559340820312Q196.618,48.973893408203125,196.664,48.88729340820312Q196.71,48.80059340820313,196.748,48.70989340820313Q196.785,48.61909340820313,196.814,48.525093408203126Q196.842,48.43099340820312,196.862,48.33469340820312Q196.881,48.23829340820312,196.89,48.14049340820313Q196.9,48.04269340820312,196.9,47.94449340820313Q196.9,47.793493408203126,196.877,47.64419340820312Q196.855,47.49499340820313,196.81,47.350793408203124Q196.765,47.206593408203126,196.699,47.07079340820313Q196.633,46.93499340820313,196.548,46.810593408203125Q196.462,46.686193408203124,196.359,46.57609340820312Q196.255,46.465993408203126,196.137,46.37259340820313Q196.018,46.279293408203124,195.887,46.20479340820312Q195.755,46.13029340820313,195.614,46.076393408203124Q191.029,44.322993408203125,182.839,38.804993408203124Q173.49599999999998,32.510223408203125,168.39499999999998,31.206763408203123Q161.878,29.546823408203124,149.276,30.880593408203126Q141.0497,31.751153408203123,137.4161,31.356193408203126Q132.66559999999998,30.842613408203125,123.6527,28.033453408203126Q112.42009999999999,24.532443408203125,107.0449,24.950513408203125Q99.2053,25.553553408203125,86.9554,32.10936340820312Q80.84819999999999,35.377793408203125,78.1035,36.23552340820312Q70.6937,38.58189340820313,63.0536,38.72589340820313Q58.51455,38.811393408203124,56.09283,39.64909340820313Q52.43185,40.91559340820312,47.68992,45.03329340820312L47.68885,45.03419340820312L47.68863,45.03439340820313Q47.52649,45.17519340820313,47.39794,45.34729340820313Q47.26938,45.519293408203126,47.18028,45.714693408203125Q47.09118,45.910093408203124,47.04559,46.119893408203126Q47,46.32979340820312,47,46.544493408203124Q47,46.642793408203126,47.00963,46.74049340820312Q47.01926,46.83829340820313,47.03843,46.934693408203124Q47.0576,47.03099340820312,47.08612,47.12509340820313Q47.11464,47.21909340820312,47.15224,47.30989340820312Q47.18984,47.40059340820312,47.23616,47.48729340820313Q47.28247,47.573893408203126,47.33706,47.655593408203124Q47.39165,47.73729340820313,47.45398,47.81329340820312Q47.51631,47.88919340820313,47.58579,47.958693408203125Q47.65526,48.02819340820312,47.73121,48.09049340820312Q47.80716,48.15289340820313,47.88886,48.207393408203124Q47.97055,48.261993408203125,48.057207,48.30829340820313Q48.143859,48.354693408203126,48.234633,48.39229340820312Q48.325408,48.42989340820313,48.419431,48.45839340820312Q48.513454,48.48689340820313,48.609819,48.50609340820313Q48.706185,48.52519340820312,48.803966,48.534893408203125Q48.9017463,48.544493408203124,49,48.544493408203124Q49.179251,48.544493408203124,49.355645,48.512593408203124Q49.532038,48.48069340820312,49.699953,48.417993408203124Q49.867868,48.355293408203124,50.02195,48.263693408203125Q50.17603,48.172093408203125,50.31137,48.054593408203125Q54.47007,44.443093408203126,57.40053,43.42929340820312Q59.2234,42.79869340820312,63.1289,42.725193408203126Q71.34870000000001,42.57029340820313,79.2966,40.05339340820312Q82.4022,39.08289340820313,88.8428,35.636073408203124Q100.3509,29.477253408203126,107.3551,28.938463408203127Q111.96379999999999,28.580013408203126,122.4624,31.852263408203125Q131.8478,34.77751340820313,136.9839,35.332773408203124Q141.04399999999998,35.77409340820313,149.697,34.858383408203125Q161.586,33.60009340820312,167.405,35.082213408203124Q171.83499999999998,36.21430340820312,180.603,42.12229340820313Z" fill-rule="evenodd" fill="#6D5F5E" fill-opacity="1"/></g></g><g><g><path d="M184.64299923706054,54.92462653808594Q193.47499923706056,60.428126538085934,198.56199923706055,62.140026538085934Q198.87199923706055,62.244526538085935,199.19999923706055,62.244526538085935Q199.29799923706054,62.244526538085935,199.39599923706055,62.23482653808594Q199.49399923706054,62.225226538085934,199.58999923706054,62.206026538085936Q199.68699923706055,62.18692653808594,199.78099923706054,62.15842653808593Q199.87499923706054,62.129826538085936,199.96499923706054,62.09222653808594Q200.05599923706055,62.05462653808594,200.14299923706054,62.00832653808594Q200.22899923706055,61.96202653808594,200.31099923706054,61.907426538085936Q200.39299923706054,61.852826538085935,200.46899923706056,61.79052653808594Q200.54499923706055,61.728226538085934,200.61399923706054,61.658726538085936Q200.68399923706053,61.58922653808594,200.74599923706054,61.513326538085934Q200.80799923706056,61.43732653808594,200.86299923706054,61.355626538085936Q200.91799923706054,61.27392653808594,200.96399923706053,61.18732653808594Q201.00999923706055,61.10062653808593,201.04799923706054,61.00982653808594Q201.08499923706054,60.91912653808593,201.11399923706054,60.825026538085936Q201.14199923706056,60.73102653808594,201.16199923706054,60.63462653808594Q201.18099923706055,60.53832653808594,201.18999923706053,60.44052653808593Q201.19999923706055,60.34272653808594,201.19999923706055,60.244526538085935Q201.19999923706055,60.08842653808594,201.17599923706055,59.93422653808594Q201.15199923706055,59.780026538085934,201.10399923706055,59.63142653808593Q201.05599923706055,59.48282653808594,200.98599923706055,59.34352653808594Q200.91499923706056,59.20412653808594,200.82399923706055,59.07742653808594Q200.73299923706054,58.95062653808594,200.62299923706055,58.839526538085934Q200.51399923706055,58.72852653808594,200.38799923706054,58.63572653808593Q200.26299923706054,58.54302653808594,200.12399923706056,58.47092653808593Q199.98599923706055,58.39872653808594,199.83799923706056,58.348926538085934Q195.19399923706055,56.78612653808594,186.75799923706055,51.52982653808594Q176.96199923706055,45.42576653808594,171.61599923706055,44.288286538085934Q165.06199923706055,42.831786538085936,152.41599923706053,44.651426538085936Q143.93259923706054,45.87195653808594,140.16959923706054,45.55170653808594Q135.24609923706055,45.15604653808594,125.82579923706055,42.31968653808594Q114.60879923706055,38.94238653808594,109.24829923706055,39.35025653808594Q101.56779923706054,39.87088653808594,89.19489923706055,46.023496538085936Q82.55739923706054,49.32407653808594,79.58759923706054,50.11125653808594Q71.57519923706054,52.22202653808594,63.89459923706055,51.755026538085936Q59.583799237060546,51.492826538085936,57.12125923706055,52.05902653808594Q53.337109237060545,52.92922653808594,48.20962923706055,56.26782653808594L48.20864923706055,56.268526538085936Q48.10443923706055,56.33632653808594,48.00943923706055,56.416626538085936Q47.914429237060546,56.49682653808594,47.830099237060544,56.588226538085934Q47.74576923706055,56.67962653808594,47.67340923706055,56.78082653808594Q47.60104923706055,56.881926538085935,47.541779237060545,56.99122653808594Q47.48250923706055,57.10062653808593,47.43722923706055,57.21642653808594Q47.39195923706055,57.33222653808593,47.36138923706055,57.45282653808594Q47.33080923706055,57.57332653808594,47.31540923706055,57.69672653808594Q47.29999923706055,57.82012653808594,47.29999923706055,57.94452653808594Q47.29999923706055,58.04272653808594,47.30962923706055,58.140526538085936Q47.31925923706055,58.23832653808594,47.338429237060545,58.33462653808594Q47.35759923706055,58.43102653808594,47.38611923706055,58.52502653808594Q47.41463923706055,58.619126538085936,47.452239237060546,58.709826538085935Q47.489839237060544,58.800626538085936,47.536159237060545,58.88732653808594Q47.58246923706055,58.973926538085934,47.63705923706055,59.05562653808594Q47.691649237060545,59.13732653808594,47.75397923706055,59.21332653808594Q47.816309237060544,59.28922653808594,47.88578923706055,59.35872653808594Q47.955259237060545,59.42822653808594,48.031209237060544,59.49052653808594Q48.10715923706055,59.55282653808594,48.18885923706055,59.60742653808594Q48.27054923706055,59.66202653808594,48.357206237060545,59.70832653808594Q48.443858237060546,59.75462653808594,48.53463223706055,59.79222653808594Q48.62540723706055,59.82982653808594,48.71943023706055,59.85832653808593Q48.81345323706055,59.88692653808594,48.90981823706055,59.90602653808594Q49.006184237060545,59.92522653808594,49.10396523706055,59.934826538085936Q49.201745537060546,59.94452653808594,49.29999923706055,59.94452653808594Q49.59061523706055,59.94452653808594,49.869212237060545,59.861826538085936Q50.14780923706055,59.77902653808594,50.391349237060545,59.62052653808594Q54.924729237060546,56.668526538085935,58.01761923706054,55.95732653808594Q59.91739923706055,55.52052653808594,63.651799237060544,55.74762653808594Q71.97329923706054,56.25362653808594,80.61239923706054,53.97772653808594Q83.97479923706055,53.086526538085934,90.97589923706055,49.60511653808594Q102.63439923706055,43.807766538085936,109.55169923706055,43.338726538085936Q114.16919923706055,42.98739653808594,124.67249923706055,46.149836538085935Q134.50089923706054,49.10905653808594,139.83039923706053,49.53729653808594Q144.04929923706055,49.89635653808594,152.98499923706055,48.610656538085934Q164.90799923706055,46.895136538085936,170.78399923706053,48.20070653808594Q175.44299923706055,49.19202653808594,184.64299923706054,54.92462653808594Z" fill-rule="evenodd" fill="#6D5F5E" fill-opacity="1"/></g></g><g><g><path d="M188.572,67.57298647460938Q197.839,72.79268647460938,203.055,74.26888647460937Q203.322,74.34448647460937,203.6,74.34448647460937Q203.698,74.34448647460937,203.796,74.33488647460938Q203.894,74.32518647460938,203.99,74.30608647460937Q204.087,74.28688647460937,204.181,74.25838647460938Q204.275,74.22988647460937,204.365,74.19228647460938Q204.456,74.15468647460938,204.543,74.10828647460937Q204.629,74.06198647460937,204.711,74.00738647460938Q204.793,73.95278647460938,204.869,73.89048647460938Q204.945,73.82818647460937,205.014,73.75868647460938Q205.084,73.68918647460937,205.146,73.61328647460937Q205.208,73.53728647460937,205.263,73.45558647460938Q205.317,73.37388647460938,205.364,73.28728647460937Q205.41,73.20058647460937,205.448,73.10988647460937Q205.485,73.01908647460937,205.514,72.92508647460937Q205.542,72.83098647460938,205.562,72.73468647460938Q205.581,72.63828647460937,205.59,72.54048647460937Q205.6,72.44278647460938,205.6,72.34448647460937Q205.6,72.18228647460937,205.574,72.02218647460937Q205.548,71.86208647460937,205.496,71.70828647460937Q205.444,71.55448647460938,205.369,71.41098647460937Q205.293,71.26748647460937,205.195,71.13808647460938Q205.097,71.00868647460938,204.98,70.89678647460937Q204.862,70.78488647460938,204.729,70.69328647460938Q204.595,70.60178647460937,204.448,70.53298647460937Q204.301,70.46428647460938,204.145,70.42008647460938Q199.387,69.07358647460937,190.535,64.08778647460937Q180.319,58.33390647460938,174.845,57.374506474609376Q168.3,56.24402647460938,155.736,58.438796474609376Q146.8229,59.995696474609375,142.8235,59.74830647460938Q137.7019,59.433826474609376,127.8783,56.57230647460938Q116.6705,53.30762647460938,111.2739,53.64846647460938Q103.8183,54.149666474609376,91.49510000000001,59.885916474609374Q84.15129999999999,63.304366474609374,80.8903,63.98690647460938Q72.2899,65.77868647460937,64.5506,64.72003647460937Q60.3984,64.15206647460937,57.90674,64.46200647460938Q54.01671,64.94590647460937,48.632181,67.54258647460938L48.631473,67.54288647460938L48.631216,67.54308647460937Q48.504746,67.60398647460937,48.38804,67.68208647460938Q48.27133,67.76018647460937,48.16668,67.85378647460938Q48.06202,67.94738647460937,47.97147,68.05468647460937Q47.88092,68.16198647460938,47.80625,68.28088647460937Q47.73158,68.39978647460937,47.67426,68.52798647460938Q47.61694,68.65618647460937,47.57809,68.79108647460937Q47.53924,68.92598647460937,47.51962,69.06508647460937Q47.5,69.20408647460937,47.5,69.34448647460937Q47.5,69.44278647460938,47.50963,69.54048647460938Q47.51926,69.63828647460937,47.53843,69.73468647460938Q47.5576,69.83098647460938,47.58612,69.92508647460937Q47.61464,70.01908647460938,47.65224,70.10988647460937Q47.68984,70.20058647460938,47.73616,70.28728647460937Q47.78247,70.37388647460938,47.83706,70.45558647460938Q47.89165,70.53728647460937,47.95398,70.61328647460937Q48.01631,70.68918647460937,48.08579,70.75868647460938Q48.15526,70.82818647460937,48.23121,70.89048647460938Q48.30716,70.95288647460937,48.38886,71.00738647460938Q48.47055,71.06198647460937,48.557207,71.10828647460937Q48.643859,71.15468647460938,48.734633,71.19228647460938Q48.825408,71.22988647460937,48.919431,71.25838647460938Q49.013454,71.28688647460937,49.109819,71.30608647460937Q49.206185,71.32518647460938,49.303966,71.33488647460938Q49.4017463,71.34448647460937,49.5,71.34448647460937Q49.95708,71.34448647460937,50.368784,71.14588647460937Q55.16213,68.83428647460937,58.40051,68.43138647460938Q60.3738,68.18598647460938,64.0085,68.68318647460937Q72.4308,69.83518647460937,81.7097,67.90208647460938Q85.4217,67.12518647460938,93.1832,63.512286474609375Q104.8304,58.090656474609375,111.5261,57.64051647460938Q116.224,57.34380647460937,126.7596,60.412696474609376Q137.0115,63.398966474609374,142.5765,63.74067647460937Q147.0466,64.01717647460937,156.424,62.379136474609375Q168.304,60.303926474609376,174.155,61.31445647460937Q178.954,62.15551647460938,188.572,67.57298647460938Z" fill-rule="evenodd" fill="#6D5F5E" fill-opacity="1"/></g></g><g><g><path d="M199.66799923706054,83.73072548828125Q203.87099923706054,85.56462548828125,207.44899923706055,86.39292548828125Q207.67199923706056,86.44452548828124,207.89999923706054,86.44452548828124Q207.99799923706055,86.44452548828124,208.09599923706054,86.43482548828125Q208.19399923706055,86.42522548828126,208.28999923706056,86.40602548828124Q208.38699923706054,86.38692548828125,208.48099923706056,86.35832548828125Q208.57499923706055,86.32982548828124,208.66499923706056,86.29222548828125Q208.75599923706054,86.25462548828125,208.84299923706055,86.20832548828125Q208.92899923706054,86.16202548828124,209.01099923706056,86.10742548828125Q209.09299923706055,86.05282548828126,209.16899923706055,85.99052548828125Q209.24499923706054,85.92812548828125,209.31399923706056,85.85872548828125Q209.38399923706055,85.78922548828125,209.44599923706053,85.71322548828125Q209.50799923706055,85.63732548828125,209.56299923706055,85.55562548828125Q209.61799923706056,85.47392548828125,209.66399923706055,85.38732548828125Q209.70999923706054,85.30062548828126,209.74799923706055,85.20982548828125Q209.78499923706056,85.11912548828126,209.81399923706056,85.02502548828124Q209.84199923706055,84.93102548828125,209.86199923706056,84.83462548828125Q209.88099923706054,84.73832548828125,209.88999923706055,84.64052548828126Q209.89999923706054,84.54272548828125,209.89999923706054,84.44452548828124Q209.89999923706054,84.27612548828125,209.87199923706055,84.11022548828124Q209.84399923706056,83.94432548828125,209.78799923706055,83.78542548828125Q209.73299923706054,83.62642548828126,209.65199923706055,83.47902548828125Q209.56999923706056,83.33162548828125,209.46599923706054,83.19992548828125Q209.36099923706055,83.06812548828125,209.23599923706055,82.95572548828125Q209.10999923706055,82.84332548828125,208.96799923706055,82.75352548828126Q208.82599923706056,82.66362548828126,208.66999923706055,82.59882548828125Q208.51499923706055,82.53392548828126,208.35099923706053,82.49602548828125L208.34999923706056,82.49582548828126Q208.34799923706055,82.49522548828125,208.34499923706053,82.49452548828125Q205.12799923706055,81.74922548828125,201.26699923706056,80.06452548828125Q198.90799923706055,79.03523548828124,194.26399923706055,76.66695548828125Q189.00199923706055,73.98379548828125,186.33399923706054,72.87776548828126Q181.78399923706056,70.99152548828125,177.97499923706056,70.46342448828125Q173.62299923706053,69.87536808828125,168.24799923706053,70.52989648828125Q165.10499923706055,70.91257548828125,158.99199923706055,72.18336548828125Q154.24999923706054,73.16890548828125,151.96899923706053,73.50809548828126Q148.27219923706053,74.05777548828125,145.47989923706055,73.94608548828126Q141.98169923706055,73.82437548828125,137.69849923706056,72.87716548828125Q135.09399923706053,72.30118548828125,129.96789923706055,70.83406048828125Q124.37649923706054,69.23377448828126,121.62959923706055,68.67545548828124Q116.94659923706055,67.72360548828125,113.27779923706055,67.94822548828125Q108.36009923706055,68.27333548828125,102.76799923706055,70.11652348828125Q99.50919923706056,71.19062548828126,93.50869923706054,73.77058548828126Q85.57719923706054,77.18079548828125,82.06759923706055,77.77228548828126Q75.99979923706054,78.75788548828125,71.50609923706054,78.53950548828125Q68.90239923706055,78.41297548828125,65.15629923706055,77.63424548828125Q61.12789923706055,76.79685548828125,58.62301923706055,76.87845548828125Q54.65669923706055,77.00766548828125,49.137114237060544,78.95752548828125Q49.135408237060545,78.95813548828124,49.13370123706055,78.95873548828125Q48.98831123706055,79.01010548828125,48.85251423706055,79.08315548828125Q48.716719237060545,79.15620548828124,48.59371923706055,79.24920548828125Q48.470729237060546,79.34221548828125,48.36343923706055,79.45296548828125Q48.256159237060544,79.56372548828125,48.16711923706055,79.68961548828125Q48.07807923706055,79.81551548828125,48.009389237060546,79.95352548828124Q47.94069923706055,80.09162548828125,47.893989237060545,80.23862548828126Q47.847269237060544,80.38552548828125,47.82363923706055,80.53792548828125Q47.79999923706055,80.69032548828125,47.79999923706055,80.84452548828125Q47.79999923706055,80.94272548828125,47.80962923706055,81.04052548828125Q47.81925923706055,81.13832548828125,47.838429237060545,81.23462548828125Q47.85759923706055,81.33102548828126,47.88611923706055,81.42502548828125Q47.91463923706055,81.51902548828124,47.952239237060546,81.60982548828125Q47.989839237060544,81.70062548828125,48.036159237060545,81.78722548828125Q48.08246923706055,81.87392548828124,48.13705923706055,81.95562548828124Q48.191649237060545,82.03732548828125,48.25397923706055,82.11322548828124Q48.316309237060544,82.18922548828125,48.38578923706055,82.25872548828124Q48.455259237060545,82.32812548828124,48.531209237060544,82.39052548828126Q48.60715923706055,82.45282548828125,48.68885923706055,82.50742548828126Q48.77054923706055,82.56202548828125,48.857206237060545,82.60832548828125Q48.943858237060546,82.65462548828125,49.03463223706055,82.69222548828125Q49.12540723706055,82.72982548828125,49.21943023706055,82.75832548828124Q49.31345323706055,82.78692548828126,49.40981823706055,82.80602548828125Q49.506184237060545,82.82522548828125,49.60396523706055,82.83482548828125Q49.701745537060546,82.84452548828125,49.79999923706055,82.84452548828125Q50.14294323706055,82.84452548828125,50.46629623706055,82.73022548828125Q55.404399237060545,80.98542548828125,58.75325923706055,80.87632548828125Q60.781099237060545,80.81032548828125,64.34219923706054,81.55052548828125Q68.39519923706055,82.39302548828125,71.31189923706054,82.53482548828126Q76.22579923706054,82.77362548828125,82.73239923706055,81.71662548828125Q85.42069923706055,81.26362548828125,88.86609923706055,79.99522548828125Q90.89619923706056,79.24790548828125,95.08869923706055,77.44531548828125Q100.92799923706055,74.93466548828125,104.02009923706055,73.91548548828125Q109.13029923706054,72.23114548828124,113.52219923706055,71.94074548828125Q116.66559923706055,71.74829548828124,120.83289923706054,72.59530548828126Q123.42639923706055,73.12244548828124,128.86719923706056,74.67965548828126Q134.11089923706055,76.18041548828126,136.83479923706057,76.78279548828125Q141.47609923706057,77.80921548828125,145.31999923706053,77.94288548828125Q148.48829923706055,78.06961548828124,152.55699923706055,77.46459548828125Q154.95199923706053,77.10854548828125,159.80599923706055,76.09965548828126Q165.75499923706053,74.86297548828125,168.73099923706053,74.50056548828125Q173.59699923706054,73.90814548828125,177.42499923706055,74.42554548828124Q180.72699923706054,74.88315548828125,184.80199923706056,76.57276548828125Q187.32499923706055,77.61865548828125,192.44699923706054,80.23042548828126Q197.19899923706055,82.65332548828125,199.66799923706054,83.73072548828125Z" fill-rule="evenodd" fill="#6D5F5E" fill-opacity="1"/></g></g><g><g><path d="M203.96200228881835,96.28004145507812Q208.30100228881835,97.95014145507812,211.94200228881837,98.61224145507812Q212.12000228881837,98.64444145507812,212.30000228881835,98.64444145507812Q212.39800228881836,98.64444145507812,212.49600228881835,98.63484145507812Q212.59400228881836,98.62524145507813,212.69000228881836,98.60604145507813Q212.78700228881837,98.58684145507813,212.88100228881837,98.55834145507812Q212.97500228881836,98.52984145507813,213.06500228881836,98.49224145507813Q213.15600228881837,98.45464145507813,213.24300228881836,98.40834145507813Q213.32900228881837,98.36204145507813,213.41100228881837,98.30744145507812Q213.49300228881836,98.25284145507813,213.56900228881835,98.19054145507812Q213.64500228881835,98.12814145507812,213.71400228881836,98.05874145507812Q213.78400228881836,97.98924145507813,213.84600228881837,97.91324145507812Q213.90800228881835,97.83734145507813,213.96300228881836,97.75564145507812Q214.01800228881837,97.67394145507812,214.06400228881836,97.58724145507813Q214.11000228881835,97.50064145507812,214.14800228881836,97.40984145507812Q214.18500228881837,97.31904145507812,214.21400228881836,97.22504145507813Q214.24200228881836,97.13104145507812,214.26200228881837,97.03464145507813Q214.28100228881837,96.93834145507813,214.29000228881836,96.84054145507812Q214.30000228881835,96.74274145507812,214.30000228881835,96.64444145507812Q214.30000228881835,96.55754145507812,214.29200228881837,96.47084145507813Q214.28500228881836,96.38414145507812,214.27000228881835,96.29854145507812Q214.25500228881836,96.21284145507812,214.23200228881836,96.12874145507813Q214.21000228881837,96.04474145507812,214.18000228881837,95.96294145507812Q214.15100228881835,95.88114145507812,214.11400228881837,95.80224145507813Q214.07700228881836,95.72334145507813,214.03400228881836,95.64794145507813Q213.99100228881835,95.57254145507812,213.94100228881837,95.50114145507813Q213.89100228881836,95.42974145507813,213.83600228881835,95.36304145507813Q213.78000228881837,95.29624145507813,213.71800228881835,95.23454145507813Q213.65700228881835,95.17284145507813,213.59100228881837,95.11664145507812Q213.52400228881837,95.06054145507812,213.45300228881837,95.01034145507812Q213.38200228881837,94.96024145507812,213.30700228881835,94.91644145507813Q213.23200228881836,94.87264145507812,213.15300228881836,94.83554145507813Q213.07400228881835,94.79844145507812,212.99300228881836,94.76834145507813Q212.91100228881837,94.73814145507812,212.82700228881836,94.71524145507813Q212.74300228881836,94.69234145507812,212.65800228881835,94.67674145507813Q209.38700228881837,94.08198145507812,205.39900228881837,92.54701145507812Q202.96200228881835,91.60898145507812,198.12400228881836,89.40168145507812Q192.60900228881835,86.88534145507812,189.81300228881835,85.86686145507812Q185.04600228881836,84.13023035507813,181.09000228881837,83.75347245507812Q176.75400228881836,83.33145945507812,171.42100228881836,84.14050915507812Q168.29800228881834,84.61424545507812,162.21200228881835,86.04916145507812Q157.28200228881838,87.21143145507813,154.89300228881837,87.62711145507812Q151.01300228881837,88.30203145507812,148.03850228881836,88.24483145507813Q144.48520228881836,88.15289145507812,140.06090228881834,87.19117145507812Q137.36890228881836,86.60600145507813,132.04650228881837,85.09804745507813Q126.39040228881836,83.49554145507813,123.61350228881835,82.92864145507812Q118.88270228881836,81.96285145507812,115.20010228881836,82.14698145507812Q110.38970228881837,82.38356145507812,104.80950228881835,84.08160695507813Q101.55500228881836,85.07197045507813,95.49740228881836,87.48844145507813Q91.07160228881835,89.25392145507813,88.98820228881836,89.94826145507812Q85.64790228881836,91.06145145507813,83.16260228881836,91.35861145507812Q76.73680228881835,92.15781145507813,72.16570228881835,91.72110145507813Q69.51000228881836,91.46738145507813,65.70890228881836,90.43966145507812Q61.78370228881836,89.37837145507812,59.271282288818355,89.25308145507813Q55.23714228881836,89.05192145507813,49.63232628881836,90.39991145507813Q49.46972728881836,90.43902145507812,49.31588228881836,90.50458145507812Q49.162036288818356,90.57015145507812,49.02121228881836,90.66036145507813Q48.880392288818356,90.75056145507813,48.75651228881836,90.86290145507813Q48.63262228881836,90.97524145507812,48.52912228881836,91.10659145507813Q48.42561228881836,91.23795145507813,48.34535228881836,91.38467145507812Q48.26510228881836,91.53139145507812,48.21032228881836,91.68940145507813Q48.155552288818356,91.84741145507813,48.127772288818356,92.01232145507812Q48.10000228881836,92.17723145507813,48.10000228881836,92.34447145507812Q48.10000228881836,92.44272145507813,48.10963228881836,92.54050145507813Q48.11926228881836,92.63828145507813,48.13843228881836,92.73465145507812Q48.15760228881836,92.83101145507813,48.18612228881836,92.92503145507813Q48.21464228881836,93.01906145507813,48.25224228881836,93.10983145507812Q48.289842288818356,93.20061145507813,48.33616228881836,93.28726145507812Q48.38247228881836,93.37391145507813,48.43706228881836,93.45561145507813Q48.49165228881836,93.53730145507812,48.55398228881836,93.61325145507813Q48.61631228881836,93.68920145507812,48.68579228881836,93.75868145507812Q48.75526228881836,93.82816145507812,48.83121228881836,93.89049145507812Q48.90716228881836,93.95282145507812,48.98886228881836,94.00740145507812Q49.07055228881836,94.06199145507813,49.15720928881836,94.10831145507812Q49.24386128881836,94.15464145507812,49.33463528881836,94.19224145507812Q49.42541028881836,94.22984145507813,49.51943328881836,94.25834145507812Q49.61345628881836,94.28684145507813,49.70982128881836,94.30604145507813Q49.80618728881836,94.32524145507813,49.90396828881836,94.33484145507812Q50.00174858881836,94.34444145507813,50.10000228881836,94.34444145507813Q50.33712828881836,94.34444145507813,50.56767928881836,94.28904145507812Q50.56964228881836,94.28854145507813,50.57160628881836,94.28804145507813Q55.614182288818355,93.07569145507813,59.07206228881836,93.24812145507812Q61.15490228881836,93.35198145507812,64.66490228881835,94.30104145507812Q68.79270228881836,95.41704145507812,71.78530228881836,95.70294145507813Q76.79420228881835,96.18154145507813,83.63740228881835,95.33034145507813Q86.52670228881836,94.98484145507813,90.25280228881836,93.74307145507812Q92.44610228881837,93.01212145507813,96.97940228881836,91.20374145507813Q102.88060228881835,88.84968145507813,105.97400228881835,87.90835145507812Q111.08060228881837,86.35441145507812,115.39990228881835,86.14199145507813Q118.57780228881836,85.98309145507812,122.81340228881835,86.84780145507813Q125.44380228881836,87.38480145507812,130.95610228881836,88.94656145507813Q136.39790228881836,90.48835145507813,139.21130228881836,91.09989145507812Q144.00440228881837,92.14180145507812,147.96160228881837,92.24409145507812Q151.32000228881836,92.30868145507813,155.57800228881837,91.56792145507812Q158.08400228881834,91.13191145507813,163.13000228881836,89.94242145507812Q169.05800228881836,88.54470145507813,172.02100228881835,88.09526145507813Q176.86200228881836,87.36086145507812,180.71000228881837,87.73545145507812Q184.15700228881835,88.06371145507812,188.44400228881835,89.62527145507812Q191.09200228881835,90.58983145507813,196.46400228881836,93.04078145507813Q201.41200228881837,95.29844145507812,203.96200228881835,96.28004145507812Z" fill-rule="evenodd" fill="#6D5F5E" fill-opacity="1"/></g></g><g><g><path d="M208.1810015258789,108.69055170898437Q212.7690015258789,110.19005170898437,216.56900152587892,110.63115170898438Q216.6840015258789,110.64445170898438,216.8000015258789,110.64445170898438Q216.8980015258789,110.64445170898438,216.9960015258789,110.63485170898437Q217.0940015258789,110.62525170898438,217.1900015258789,110.60605170898438Q217.2870015258789,110.58685170898437,217.3810015258789,110.55835170898438Q217.4750015258789,110.52985170898438,217.5650015258789,110.49225170898437Q217.6560015258789,110.45465170898437,217.7430015258789,110.40835170898437Q217.8290015258789,110.36205170898438,217.9110015258789,110.30745170898437Q217.9930015258789,110.25285170898438,218.06900152587892,110.19055170898437Q218.1450015258789,110.12815170898438,218.2140015258789,110.05875170898437Q218.2840015258789,109.98925170898437,218.3460015258789,109.91325170898438Q218.40800152587892,109.83735170898437,218.4630015258789,109.75565170898437Q218.5180015258789,109.67395170898438,218.5640015258789,109.58725170898438Q218.6100015258789,109.50065170898438,218.6480015258789,109.40985170898438Q218.6850015258789,109.31905170898438,218.7140015258789,109.22505170898438Q218.74200152587892,109.13105170898437,218.7620015258789,109.03465170898437Q218.7810015258789,108.93835170898437,218.7900015258789,108.84055170898438Q218.8000015258789,108.74275170898437,218.8000015258789,108.64445170898438Q218.8000015258789,108.55345170898437,218.7920015258789,108.46285170898437Q218.78300152587892,108.37225170898438,218.7670015258789,108.28269170898437Q218.7510015258789,108.19318170898437,218.7260015258789,108.10553170898437Q218.7010015258789,108.01788170898438,218.6690015258789,107.93283170898438Q218.6370015258789,107.84777170898437,218.5970015258789,107.76600170898438Q218.55700152587892,107.68424170898437,218.51000152587892,107.60644170898438Q218.46200152587892,107.52865170898437,218.40800152587892,107.45546170898437Q218.3540015258789,107.38228170898438,218.2940015258789,107.31431170898438Q218.2330015258789,107.24635170898438,218.1670015258789,107.18416170898438Q218.1000015258789,107.12197170898438,218.0280015258789,107.06608170898437Q217.95600152587892,107.01018170898438,217.8800015258789,106.96104170898437Q217.8030015258789,106.91190170898437,217.7220015258789,106.86993170898438Q217.6420015258789,106.82795170898437,217.55700152587892,106.79348170898437Q217.4730015258789,106.75901170898437,217.3860015258789,106.73233170898438Q217.2990015258789,106.70566170898438,217.2100015258789,106.68699170898438Q217.1210015258789,106.66833170898437,217.0310015258789,106.65784170898438Q213.6300015258789,106.26307170898437,209.4240015258789,104.88847170898437Q206.84900152587892,104.04705170898437,201.6990015258789,101.98947170898438Q196.0600015258789,99.73701170898437,193.2020015258789,98.83780470898438Q188.3320015258789,97.30573170898438,184.3280015258789,97.04860170898438Q180.01600152587892,96.78609170898437,174.7220015258789,97.74742570898438Q171.6200015258789,98.31080960898437,165.5590015258789,99.90677170898438Q160.3740015258789,101.27210170898438,157.8550015258789,101.76827170898437Q153.76500152587892,102.57398170898438,150.6190015258789,102.54458170898438Q146.9136015258789,102.51318170898438,142.3177015258789,101.53177170898438Q139.5188015258789,100.93408170898438,133.9782015258789,99.35985170898438Q128.33450152587892,97.75633270898437,125.5552015258789,97.18126170898438Q120.8238015258789,96.20224170898437,117.1224015258789,96.34598170898437Q112.2988015258789,96.53893170898438,106.6692015258789,98.10775470898437Q103.38050152587891,99.02422970898438,97.23100152587891,101.27714170898437Q92.5293015258789,102.99964170898437,90.31720152587891,103.66382170898437Q86.76750152587891,104.72962170898438,84.13220152587891,104.95154170898438Q77.4753015258789,105.47107170898437,72.85390152587891,104.78847170898437Q70.1623015258789,104.39091170898438,66.33120152587891,103.10902170898437Q62.4577015258789,101.81292170898438,59.92432152587891,101.50229170898437Q55.82622152587891,100.99982170898437,50.10361252587891,101.86656170898438Q50.01565752587891,101.87974170898437,49.929219525878906,101.90068170898438Q49.842781525878905,101.92161170898437,49.758543525878906,101.95014170898438Q49.67430452587891,101.97866170898438,49.592930525878906,102.01455170898437Q49.51155652587891,102.05044170898438,49.433689525878904,102.09341170898438Q49.35582152587891,102.13638170898437,49.282071525878905,102.18609170898438Q49.208331525878904,102.23581170898437,49.1392915258789,102.29187170898437Q49.070241525878906,102.34793170898438,49.00645152587891,102.40990170898438Q48.942661525878904,102.47187170898438,48.884621525878906,102.53926170898437Q48.826571525878904,102.60664170898437,48.77474152587891,102.67891170898437Q48.72291152587891,102.75119170898438,48.67770152587891,102.82778170898438Q48.632491525878905,102.90436170898437,48.594261525878906,102.98466170898438Q48.556021525878904,103.06496170898437,48.525061525878904,103.14834170898438Q48.49411152587891,103.23171170898438,48.470671525878906,103.31751170898437Q48.44724152587891,103.40330170898437,48.4315115258789,103.49084170898438Q48.41579152587891,103.57837170898438,48.40789152587891,103.66696170898437Q48.400001525878906,103.75554170898438,48.400001525878906,103.84448170898438Q48.400001525878906,103.94273170898438,48.40963152587891,104.04051170898437Q48.41926152587891,104.13829170898437,48.438431525878904,104.23466170898438Q48.45760152587891,104.33103170898437,48.48612152587891,104.42505170898437Q48.51464152587891,104.51907170898437,48.552241525878905,104.60985170898438Q48.5898415258789,104.70062170898437,48.636161525878904,104.78727170898438Q48.68247152587891,104.87392170898437,48.73706152587891,104.95562170898438Q48.791651525878905,105.03731170898438,48.85398152587891,105.11327170898437Q48.9163115258789,105.18922170898438,48.98579152587891,105.25869170898437Q49.055261525878905,105.32817170898437,49.1312115258789,105.39050170898437Q49.20716152587891,105.45283170898438,49.28886152587891,105.50742170898438Q49.37055152587891,105.56200170898437,49.457208525878904,105.60832170898438Q49.543860525878905,105.65464170898437,49.63463452587891,105.69224170898437Q49.72540952587891,105.72984170898438,49.81943252587891,105.75836170898438Q49.91345552587891,105.78688170898438,50.00982052587891,105.80605170898437Q50.106186525878904,105.82522170898437,50.20396752587891,105.83485170898437Q50.301747825878905,105.84448170898438,50.400001525878906,105.84448170898438Q50.550659525878906,105.84448170898438,50.69961752587891,105.82191170898437Q55.882331525878904,105.03665170898438,59.43752152587891,105.47256170898437Q61.5707015258789,105.73412170898438,65.06200152587891,106.90230170898437Q69.22810152587891,108.29633170898438,72.2694015258789,108.74555170898438Q77.33690152587891,109.49405170898437,84.46780152587891,108.93745170898437Q87.5185015258789,108.68055170898438,91.4674015258789,107.49486170898437Q93.79350152587891,106.79645170898438,98.6070015258789,105.03303170898437Q104.60740152587891,102.83475170898437,107.74300152587891,101.96093170898438Q112.9239015258789,100.51712170898438,117.27760152587891,100.34297170898438Q120.49130152587891,100.21817170898437,124.74470152587891,101.09829170898438Q127.38130152587891,101.64384170898437,132.8849015258789,103.20756170898437Q138.5534015258789,104.81813170898438,141.4824015258789,105.44357170898438Q146.4745015258789,106.50960170898438,150.5810015258789,106.54440170898438Q154.1370015258789,106.57763170898437,158.62800152587891,105.69285170898438Q161.2710015258789,105.17232170898437,166.57700152587893,103.77491170898438Q172.4880015258789,102.21861170898437,175.4370015258789,101.68306170898437Q180.2550015258789,100.80806170898437,184.0720015258789,101.04038170898437Q187.59300152587892,101.26651170898438,192.0010015258789,102.65342170898438Q194.7160015258789,103.50746170898438,200.2150015258789,105.70407170898437Q205.4850015258789,107.80926170898438,208.1810015258789,108.69055170898437Z" fill-rule="evenodd" fill="#6D5F5E" fill-opacity="1"/></g></g><g><g><path d="M212.39200228881836,121.38494009765625Q217.17100228881836,122.70080009765626,221.07700228881836,122.94070009765625Q221.13900228881835,122.94450009765625,221.20000228881835,122.94450009765625Q221.29800228881837,122.94450009765625,221.39600228881835,122.93490009765625Q221.49400228881836,122.92520009765624,221.59000228881837,122.90610009765625Q221.68700228881835,122.88690009765625,221.78100228881837,122.85840009765624Q221.87500228881837,122.82980009765625,221.96500228881837,122.79220009765625Q222.05600228881835,122.75460009765625,222.14300228881837,122.70830009765625Q222.22900228881835,122.66200009765625,222.31100228881837,122.60740009765625Q222.39300228881837,122.55280009765625,222.46900228881836,122.49050009765625Q222.54500228881835,122.42817009765625,222.61400228881837,122.35870009765625Q222.68400228881836,122.28922009765625,222.74600228881835,122.21327009765625Q222.80800228881836,122.13732009765624,222.86300228881836,122.05562009765625Q222.91800228881837,121.97393009765625,222.96400228881836,121.88728009765624Q223.01000228881836,121.80062009765625,223.04800228881837,121.70985009765624Q223.08500228881837,121.61907009765625,223.11400228881837,121.52505009765625Q223.14200228881836,121.43103009765625,223.16200228881837,121.33466009765625Q223.18100228881835,121.23830009765625,223.19000228881836,121.14052009765625Q223.20000228881835,121.04274009765625,223.20000228881835,120.94448009765625Q223.20000228881835,120.85007009765624,223.19100228881837,120.75608009765625Q223.18200228881835,120.66209009765625,223.16500228881836,120.56935009765625Q223.14700228881836,120.47662009765625,223.12000228881837,120.38596009765625Q223.09400228881836,120.29530009765625,223.05900228881836,120.20753009765625Q223.02400228881837,120.11977009765624,222.98200228881836,120.03567009765625Q222.93900228881836,119.95156009765626,222.88800228881837,119.87188009765624Q222.83700228881835,119.79219009765625,222.78000228881837,119.71763009765625Q222.72200228881837,119.64307009765625,222.65700228881835,119.57429009765625Q222.59200228881835,119.50552009765624,222.52100228881835,119.44314009765625Q222.45100228881836,119.38077009765625,222.37400228881836,119.32534009765625Q222.29800228881837,119.26992009765625,222.21600228881837,119.22195009765625Q222.13500228881836,119.17397009765625,222.05000228881835,119.13387009765626Q221.96400228881836,119.09377009765625,221.87500228881837,119.06190009765625Q221.78600228881837,119.03002009765625,221.69500228881836,119.00666009765625Q221.60300228881835,118.98331009765624,221.51000228881836,118.96867009765624Q221.41700228881837,118.95403009765624,221.32300228881837,118.94824009765625L221.31700228881837,118.94792009765625L221.31600228881837,118.94782009765625Q217.82700228881836,118.73269009765625,213.45400228881837,117.52847009765625Q210.77100228881835,116.78980009765625,205.36600228881835,114.91059009765625Q199.53800228881835,112.88446209765625,196.58400228881837,112.09626609765625Q191.55500228881837,110.75411009765625,187.45300228881837,110.64520009765624Q183.22100228881837,110.53574009765624,178.00000228881837,111.62197709765626Q174.93700228881835,112.25924709765626,168.92600228881835,113.98069009765625Q163.48700228881836,115.53830009765625,160.83600228881835,116.11203009765624Q156.52700228881838,117.04449009765625,153.20000228881835,117.04449009765625Q149.36540228881836,117.04449009765625,144.60450228881837,116.02095009765625Q141.70250228881838,115.39704009765624,135.94500228881836,113.73377009765625Q130.28350228881834,112.09820609765625,127.48200228881836,111.49699009765625Q122.71820228881836,110.47464009765625,118.96260228881836,110.54484009765625Q114.17380228881837,110.65794009765625,108.52390228881836,112.08512009765624Q105.21990228881836,112.91972009765625,98.99450228881835,115.00647009765625Q93.96830228881836,116.69122009765626,91.60620228881837,117.32108009765625Q87.81490228881836,118.33200009765625,85.01840228881835,118.44615009765624Q78.03370228881836,118.71222009765626,73.31980228881835,117.81235009765625Q70.56680228881837,117.28683009765625,66.67510228881835,115.77536009765625Q62.85900228881836,114.29328009765625,60.32933228881836,113.81819009765626Q56.20656228881836,113.04391109765625,50.46090428881836,113.44932709765625L50.45917628881836,113.44944909765626Q50.36557028881836,113.45605609765624,50.27299428881836,113.47139909765625Q50.18041728881836,113.48674309765624,50.08968428881836,113.51068609765625Q49.99895228881836,113.53463009765625,49.91085928881836,113.56696009765625Q49.82276728881836,113.59930009765625,49.73808928881836,113.63974009765624Q49.65341128881836,113.68018009765625,49.57289228881836,113.72837009765625Q49.49237228881836,113.77656009765624,49.416722288818356,113.83208009765625Q49.34106228881836,113.88760009765625,49.27094228881836,113.94996009765624Q49.20082228881836,114.01232009765624,49.13684228881836,114.08097009765625Q49.07287228881836,114.14962009765625,49.01560228881836,114.22396009765625Q48.95834228881836,114.29830009765625,48.90828228881836,114.37767009765625Q48.85823228881836,114.45705009765625,48.81582228881836,114.54076009765625Q48.77342228881836,114.62447009765626,48.73904228881836,114.71179009765625Q48.70467228881836,114.79910009765625,48.67862228881836,114.88925009765624Q48.65256228881836,114.97940009765625,48.63507228881836,115.07160009765624Q48.61757228881836,115.16379009765625,48.60879228881836,115.25722009765624Q48.60000228881836,115.35064009765625,48.60000228881836,115.44448009765625Q48.60000228881836,115.54274009765625,48.60963228881836,115.64052009765625Q48.61926228881836,115.73830009765625,48.63843228881836,115.83466009765625Q48.65760228881836,115.93103009765625,48.68612228881836,116.02505009765625Q48.71464228881836,116.11908009765625,48.75224228881836,116.20985009765624Q48.789842288818356,116.30063009765625,48.83616228881836,116.38728009765624Q48.88247228881836,116.47393009765625,48.93706228881836,116.55562009765625Q48.99165228881836,116.63732009765624,49.05398228881836,116.71327009765625Q49.11631228881836,116.78922009765625,49.18579228881836,116.85870009765625Q49.25526228881836,116.92817009765625,49.33121228881836,116.99051009765626Q49.40716228881836,117.05284009765624,49.48886228881836,117.10742009765625Q49.57055228881836,117.16201009765625,49.65720928881836,117.20833009765624Q49.74386128881836,117.25464009765625,49.83463528881836,117.29224009765625Q49.92541028881836,117.32984009765624,50.01943328881836,117.35836009765625Q50.11345628881836,117.38689009765625,50.20982128881836,117.40605009765625Q50.30618728881836,117.42522009765625,50.40396828881836,117.43485009765625Q50.50174858881836,117.44448009765625,50.60000228881836,117.44448009765625Q50.67050278881836,117.44448009765625,50.740828288818356,117.43952009765626Q55.97382228881836,117.07013009765625,59.59101228881836,117.74946009765625Q61.75640228881836,118.15614009765625,65.22690228881837,119.50402009765625Q69.45860228881835,121.14750009765625,72.56970228881836,121.74141009765626Q77.73100228881836,122.72670009765625,85.18160228881837,122.44282009765625Q88.41910228881835,122.31068009765625,92.63680228881836,121.18604009765625Q95.12040228881835,120.52378009765624,100.26580228881835,118.79907009765626Q106.34700228881836,116.76065009765625,109.50350228881837,115.96330009765624Q114.71760228881836,114.64621009765625,119.03740228881836,114.54414009765625Q122.33090228881836,114.48258009765625,126.64270228881836,115.40794009765625Q129.30760228881837,115.97985009765625,134.83490228881834,117.57663009765625Q140.72580228881836,119.27847009765625,143.76380228881834,119.93160009765624Q148.94030228881837,121.04449009765625,153.20000228881835,121.04449009765625Q156.95500228881838,121.04449009765625,161.68200228881835,120.02153009765625Q164.46100228881835,119.41995009765625,170.02700228881838,117.82610009765625Q175.89600228881835,116.14531009765625,178.81400228881836,115.53812009765625Q183.58100228881835,114.54640009765625,187.34700228881837,114.64379009765625Q190.97900228881835,114.74021009765625,195.55300228881836,115.96100009765625Q198.36400228881837,116.71116009765625,204.05200228881836,118.68878009765625Q209.58200228881836,120.61128009765625,212.39200228881836,121.38494009765625Z" fill-rule="evenodd" fill="#6D5F5E" fill-opacity="1"/></g></g><g><g><path d="M225.7170015258789,135.044418203125L225.7170015258789,135.044408203125Q225.8150015258789,135.043558203125,225.9120015258789,135.033188203125Q226.00900152587892,135.022828203125,226.10500152587892,135.003028203125Q226.2010015258789,134.983238203125,226.2940015258789,134.954218203125Q226.3870015258789,134.925198203125,226.4770015258789,134.887218203125Q226.5670015258789,134.849238203125,226.6530015258789,134.802658203125Q226.7390015258789,134.756088203125,226.8200015258789,134.701358203125Q226.9010015258789,134.646638203125,226.9760015258789,134.584278203125Q227.0520015258789,134.52192820312501,227.1200015258789,134.452538203125Q227.1890015258789,134.383148203125,227.2510015258789,134.307378203125Q227.31300152587892,134.231618203125,227.36700152587892,134.150198203125Q227.4210015258789,134.068778203125,227.4660015258789,133.982488203125Q227.5120015258789,133.896188203125,227.5490015258789,133.805838203125Q227.58700152587892,133.715488203125,227.6150015258789,133.621938203125Q227.6430015258789,133.528388203125,227.6620015258789,133.432538203125Q227.6810015258789,133.336688203125,227.6900015258789,133.239438203125Q227.70000152587892,133.142198203125,227.70000152587892,133.044488203125Q227.70000152587892,132.946238203125,227.6900015258789,132.848458203125Q227.6810015258789,132.750668203125,227.6620015258789,132.654308203125Q227.6420015258789,132.557938203125,227.6140015258789,132.463918203125Q227.5850015258789,132.369898203125,227.5480015258789,132.279118203125Q227.51000152587892,132.188348203125,227.4640015258789,132.101698203125Q227.4180015258789,132.015038203125,227.3630015258789,131.933348203125Q227.3080015258789,131.851648203125,227.2460015258789,131.775698203125Q227.1840015258789,131.699748203125,227.1140015258789,131.630278203125Q227.04500152587892,131.560798203125,226.9690015258789,131.49846820312501Q226.8930015258789,131.436138203125,226.8110015258789,131.381548203125Q226.7290015258789,131.326958203125,226.6430015258789,131.280648203125Q226.5560015258789,131.234328203125,226.4650015258789,131.196728203125Q226.3750015258789,131.159128203125,226.2810015258789,131.130608203125Q226.1870015258789,131.102088203125,226.0900015258789,131.082918203125Q225.9940015258789,131.063748203125,225.89600152587892,131.054118203125Q225.7980015258789,131.044488203125,225.70000152587892,131.044488203125L225.6830015258789,131.044568203125Q222.0910015258789,131.075798203125,217.49100152587891,130.064778203125Q214.6660015258789,129.443838203125,208.91400152587892,127.74781820312501Q202.9650015258789,125.993662203125,199.9530015258789,125.333284203125Q194.8240015258789,124.209148203125,190.6830015258789,124.244538203125Q186.49800152587892,124.28000820312499,181.3450015258789,125.466539203125Q178.3170015258789,126.163827403125,172.3620015258789,127.978588203125Q166.6670015258789,129.714058203125,163.8750015258789,130.360768203125Q159.3300015258789,131.413438203125,155.7820015258789,131.444558203125Q151.8430015258789,131.476848203125,146.9311015258789,130.407178203125Q143.9345015258789,129.754578203125,137.9750015258789,127.996158203125Q132.2492015258789,126.306705203125,129.4118015258789,125.678284203125Q124.58810152587891,124.609968203125,120.7818015258789,124.644578203125Q115.96640152587891,124.681618203125,110.2396015258789,125.980588203125Q106.8869015258789,126.741078203125,100.5470015258789,128.676628203125Q95.2737015258789,130.286548203125,92.7953015258789,130.873098203125Q88.8131015258789,131.815538203125,85.8802015258789,131.844578203125Q78.6971015258789,131.878268203125,73.9431015258789,130.767738203125Q72.09270152587891,130.335478203125,70.30030152587891,129.660818203125Q69.2103015258789,129.250528203125,67.22300152587891,128.366288203125Q63.42580152587891,126.676777203125,60.877791525878905,126.045832203125Q56.69997152587891,125.011308203125,50.888573525878904,125.044518203125L50.888573525878904,125.044518203125Q50.79067952587891,125.045078203125,50.69330752587891,125.055198203125Q50.595936525878905,125.065318203125,50.50001852587891,125.084888203125Q50.4041005258789,125.104468203125,50.310552525878904,125.133328203125Q50.2170055258789,125.162178203125,50.12672352587891,125.200028203125Q50.03644052587891,125.237878203125,49.95028652587891,125.284362203125Q49.8641315258789,125.330849203125,49.78293152587891,125.385527203125Q49.701731525878905,125.440206203125,49.62625152587891,125.502553203125Q49.550781525878904,125.564900203125,49.481751525878906,125.634320203125Q49.412731525878904,125.703741203125,49.3508115258789,125.779570203125Q49.288901525878906,125.855399203125,49.234681525878905,125.936913203125Q49.18047152587891,126.018427203125,49.134481525878904,126.104845203125Q49.088481525878905,126.191264103125,49.05115152587891,126.281761403125Q49.0138215258789,126.372258203125,48.98550152587891,126.465969203125Q48.95718152587891,126.559680203125,48.93815152587891,126.655708203125Q48.91912152587891,126.751736203125,48.90956152587891,126.849164203125Q48.900001525878906,126.946592203125,48.900001525878906,127.044488203125Q48.900001525878906,127.142741203125,48.90963152587891,127.240522203125Q48.91926152587891,127.338298203125,48.938431525878904,127.434668203125Q48.95760152587891,127.53103820312501,48.98612152587891,127.625058203125Q49.01464152587891,127.719078203125,49.052241525878905,127.809858203125Q49.0898415258789,127.900628203125,49.136161525878904,127.987278203125Q49.18247152587891,128.073938203125,49.23706152587891,128.155628203125Q49.291651525878905,128.237328203125,49.35398152587891,128.313278203125Q49.4163115258789,128.389228203125,49.48579152587891,128.458698203125Q49.555261525878905,128.528178203125,49.6312115258789,128.590508203125Q49.70716152587891,128.652838203125,49.78886152587891,128.707428203125Q49.87055152587891,128.762018203125,49.957208525878904,128.808328203125Q50.043860525878905,128.854648203125,50.13463452587891,128.892248203125Q50.22540952587891,128.929848203125,50.31943252587891,128.958368203125Q50.41345552587891,128.986888203125,50.50982052587891,129.006058203125Q50.606186525878904,129.025228203125,50.70396752587891,129.034858203125Q50.801747825878905,129.044488203125,50.900001525878906,129.044488203125L50.91476512587891,129.044438203125L225.70000152587892,135.044558203125L225.7130015258789,135.044448203125L225.7170015258789,135.044418203125Z" fill-rule="evenodd" fill="#6D5F5E" fill-opacity="1"/></g></g><g><g><path d="M51.20095928881836,136.6470507324219Q57.05705228881836,136.94154073242188,61.269402288818355,138.21165773242188Q63.82810228881836,138.98316573242187,67.60920228881835,140.86555073242187Q71.59070228881836,142.8477107324219,74.41910228881835,143.62185073242188Q79.23550228881837,144.94011073242189,86.65770228881836,145.14533073242188Q89.75370228881836,145.23464073242187,93.98220228881836,144.35724073242187Q96.61270228881835,143.8114407324219,102.21240228881837,142.25186073242187Q108.62200228881835,140.46673073242187,111.98870228881836,139.78006073242187Q117.73370228881836,138.6083348324219,122.51770228881836,138.64457875322188Q126.36570228881835,138.6786320324219,131.23990228881837,139.80078073242188Q134.10980228881834,140.46149073242188,139.89510228881835,142.20309073242188Q146.06230228881836,144.05968073242187,149.15710228881835,144.74847073242188Q154.22900228881838,145.87725073242189,158.28300228881835,145.84456073242188Q162.05000228881835,145.81263073242187,166.84200228881838,144.64549073242188Q169.78300228881835,143.92899073242188,175.75700228881834,142.00838073242187Q181.68000228881837,140.1042507324219,184.68300228881836,139.35589973242188Q189.78800228881835,138.0837637324219,193.93400228881836,137.94557973242186Q198.06100228881837,137.80914973242187,203.22100228881837,138.70054563242186Q206.25700228881837,139.2248727324219,212.25900228881835,140.66819073242186Q218.42800228881836,142.15158073242188,221.43000228881837,142.64229073242188Q226.31200228881835,143.44015073242187,230.04500228881835,143.15049073242187Q230.12300228881836,143.14450073242188,230.20000228881835,143.14450073242188Q230.29800228881837,143.14450073242188,230.39600228881835,143.15413073242186Q230.49400228881836,143.16376073242188,230.59000228881837,143.18293073242188Q230.68700228881835,143.20210073242188,230.78100228881837,143.23062073242187Q230.87500228881837,143.25914073242188,230.96500228881837,143.29674073242188Q231.05600228881835,143.33434073242188,231.14300228881837,143.3806607324219Q231.22900228881835,143.42697073242186,231.31100228881837,143.48156073242188Q231.39300228881837,143.53615073242187,231.46900228881836,143.59848073242188Q231.54500228881835,143.66081073242188,231.61400228881837,143.73029073242188Q231.68400228881836,143.79976073242187,231.74600228881835,143.87571073242188Q231.80800228881836,143.95166073242189,231.86300228881836,144.03336073242187Q231.91800228881837,144.11505073242188,231.96400228881836,144.20171073242187Q232.01000228881836,144.28836073242186,232.04800228881837,144.37913073242188Q232.08500228881837,144.46991073242188,232.11400228881837,144.56393073242188Q232.14200228881836,144.65795073242188,232.16200228881837,144.7543207324219Q232.18100228881835,144.85068073242186,232.19000228881836,144.94847073242187Q232.20000228881835,145.04625073242187,232.20000228881835,145.14450073242188Q232.20000228881835,145.23790073242188,232.19100228881837,145.33090073242187Q232.18300228881836,145.42390073242188,232.16500228881836,145.51568073242188Q232.14800228881836,145.60746073242188,232.12200228881835,145.69722073242187Q232.09600228881837,145.78699073242188,232.06200228881835,145.87396073242186Q232.02800228881836,145.96093073242187,231.98600228881836,146.0443407324219Q231.94400228881835,146.12776073242188,231.89400228881837,146.20689073242187Q231.84500228881836,146.28603073242186,231.78800228881835,146.36020073242187Q231.73100228881836,146.43436073242188,231.66800228881837,146.50292073242187Q231.60400228881835,146.5714707324219,231.53500228881836,146.63381073242186Q231.46500228881837,146.69615073242187,231.39000228881835,146.75174073242187Q231.31500228881836,146.80733073242186,231.23500228881835,146.8556807324219Q231.15500228881837,146.9040307324219,231.07100228881836,146.94472073242187Q230.98700228881836,146.98541073242188,230.90000228881837,147.01809073242188Q230.81200228881835,147.05077073242188,230.72200228881837,147.0751507324219Q230.63200228881837,147.09954073242187,230.54000228881836,147.11541073242188Q230.44800228881837,147.13128073242189,230.35500228881835,147.13851073242188Q226.14200228881836,147.46539073242187,220.78500228881836,146.58990073242188Q217.63700228881837,146.0753207324219,211.32400228881835,144.55734073242186Q205.44800228881837,143.14440073242187,202.54000228881836,142.64217073242187Q197.78400228881836,141.82050073242186,194.06600228881837,141.94340073242188Q190.34500228881836,142.0674407324219,185.65000228881837,143.23723073242186Q182.77600228881835,143.95323073242187,176.98100228881836,145.81641073242187Q170.87000228881834,147.78120073242187,167.78900228881835,148.53185073242187Q162.54700228881836,149.80860073242187,158.31700228881834,149.8444007324219Q153.80500228881834,149.88080073242187,148.28810228881838,148.65290073242187Q145.05000228881835,147.93224073242186,138.74200228881836,146.03330073242188Q133.08340228881838,144.32983073242187,130.34240228881836,143.69881073242186Q125.89370228881836,142.67461073242188,122.48230228881836,142.64442073242188Q118.12250228881835,142.61139073242188,112.78810228881835,143.69937073242187Q109.55950228881835,144.35788073242188,103.28560228881835,146.10520073242188Q97.55670228881836,147.7007707324219,94.79490228881835,148.27382073242188Q90.10720228881836,149.24650073242188,86.54230228881836,149.14370073242188Q78.64380228881836,148.92530073242187,73.36310228881837,147.47995073242188Q70.15780228881836,146.60265073242186,65.82650228881836,144.44634073242187Q62.34890228881836,142.7150107324219,60.11467228881836,142.04135073242188Q56.36899228881836,140.91195073242187,50.99956828881836,140.64198073242187Q50.904581288818356,140.6372007324219,50.81047728881836,140.62343073242187Q50.71637228881836,140.60966073242187,50.62399928881836,140.58703073242188Q50.53162528881836,140.56439073242188,50.44181628881836,140.53310073242187Q50.352007288818356,140.50180073242188,50.26557428881836,140.46212073242188Q50.17914028881836,140.42244073242188,50.09686228881836,140.37473073242188Q50.01458228881836,140.3270307324219,49.93720228881836,140.27174073242188Q49.85982228881836,140.2164407324219,49.78804228881836,140.15405073242187Q49.71625228881836,140.09167073242187,49.65071228881836,140.02275073242188Q49.585172288818356,139.95383073242186,49.52647228881836,139.87900073242187Q49.467762288818356,139.80418073242188,49.41642228881836,139.72412073242188Q49.36508228881836,139.64405773242189,49.32157228881836,139.55948773242187Q49.27806228881836,139.4749177324219,49.24277228881836,139.38660073242187Q49.20749228881836,139.29828373242188,49.18074228881836,139.20701673242186Q49.15399228881836,139.11574973242188,49.13602228881836,139.0223557324219Q49.11805228881836,138.92896173242187,49.10902228881836,138.83428473242188Q49.10000228881836,138.7396072324219,49.10000228881836,138.64450073242188Q49.10000228881836,138.5462470324219,49.10963228881836,138.44846673242188Q49.11926228881836,138.35068573242188,49.13843228881836,138.25431973242186Q49.15760228881836,138.15795473242187,49.18612228881836,138.06393173242188Q49.21464228881836,137.96990873242189,49.25224228881836,137.87913373242188Q49.289842288818356,137.78835973242187,49.33616228881836,137.70170773242188Q49.38247228881836,137.61505073242188,49.43706228881836,137.53336073242187Q49.49165228881836,137.45166073242189,49.55398228881836,137.37571073242188Q49.61631228881836,137.29976073242187,49.68579228881836,137.23029073242188Q49.75526228881836,137.16081073242188,49.83121228881836,137.09848073242188Q49.90716228881836,137.03615073242187,49.98886228881836,136.98156073242188Q50.07055228881836,136.92697073242186,50.15720928881836,136.8806607324219Q50.24386128881836,136.83434073242188,50.33463528881836,136.79674073242188Q50.42541028881836,136.75914073242188,50.51943328881836,136.73062073242187Q50.61345628881836,136.70210073242188,50.70982128881836,136.68293073242188Q50.80618728881836,136.66376073242188,50.90396828881836,136.65413073242186Q51.00174858881836,136.64450073242188,51.10000228881836,136.64450073242188Q51.15024878881836,136.64450073242188,51.20043228881836,136.64702073242188L51.20095928881836,136.6470507324219Z" fill-rule="evenodd" fill="#6D5F5E" fill-opacity="1"/></g></g><g><g><path d="M51.506536237060544,148.2551663183594Q57.40668923706055,148.86774631835937,61.65229923706055,150.35618931835938Q64.22169923706055,151.25699631835937,67.98989923706054,153.30688631835937Q72.01859923706054,155.49849631835937,74.89129923706055,156.38775631835938Q79.77039923706054,157.89810631835937,87.41199923706054,158.34761631835937Q90.62649923706056,158.52786631835937,95.03459923706055,157.73835631835937Q97.77319923706054,157.24784631835936,103.60529923706055,155.79360631835937Q110.18759923706054,154.15230631835936,113.63209923706054,153.54205631835939Q119.50519923706055,152.50155631835938,124.35129923706054,152.64515631835937Q128.25209923706055,152.74517631835937,133.16089923706056,153.92239631835938Q136.05339923706055,154.61607631835938,141.86479923706054,156.41215631835937Q148.27069923706054,158.39199631835936,151.48399923706054,159.11954631835937Q156.74799923706053,160.31117631835937,160.98399923706054,160.24457631835938Q164.97999923706055,160.21178631835937,170.02699923706055,158.92105631835938Q173.12199923706055,158.12952631835938,179.37299923706055,156.01213631835938Q185.23299923706054,154.02716631835938,188.19299923706055,153.23254631835937Q193.21799923706055,151.88307631835937,197.27299923706056,151.64851631835938Q201.45599923706055,151.38297631835937,206.69799923706054,152.06253631835938Q209.78399923706056,152.46247631835936,215.86999923706054,153.63805631835936Q222.38499923706055,154.89648631835936,225.52099923706055,155.24994631835938Q230.60599923706056,155.82314631835936,234.40999923706056,155.26561631835938Q234.55399923706054,155.24447631835938,234.69999923706055,155.24447631835938Q234.79799923706054,155.24447631835938,234.89599923706055,155.25410631835936Q234.99399923706054,155.26373631835938,235.08999923706054,155.28290631835938Q235.18699923706055,155.30207631835938,235.28099923706054,155.33059631835937Q235.37499923706054,155.35911631835938,235.46499923706054,155.39671631835938Q235.55599923706055,155.43431631835938,235.64299923706054,155.4806363183594Q235.72899923706055,155.52694631835936,235.81099923706054,155.58153631835938Q235.89299923706054,155.63612631835937,235.96899923706056,155.69845631835938Q236.04499923706055,155.76078631835938,236.11399923706054,155.83026631835938Q236.18399923706053,155.89973631835937,236.24599923706054,155.97568631835938Q236.30799923706056,156.05163631835939,236.36299923706054,156.13333631835937Q236.41799923706054,156.21502631835938,236.46399923706053,156.30168631835937Q236.50999923706055,156.38833631835936,236.54799923706054,156.47910631835938Q236.58499923706054,156.56988631835938,236.61399923706054,156.66390631835938Q236.64199923706056,156.75792631835938,236.66199923706054,156.8542963183594Q236.68099923706055,156.95066631835937,236.68999923706053,157.04844631835937Q236.69999923706055,157.14622631835937,236.69999923706055,157.24447631835938Q236.69999923706055,157.33361631835936,236.69199923706054,157.42240631835938Q236.68399923706053,157.51118631835936,236.66799923706054,157.5989163183594Q236.65299923706056,157.68664631835938,236.62899923706055,157.77261631835938Q236.60499923706055,157.8585963183594,236.57399923706055,157.9421363183594Q236.54299923706054,158.0256763183594,236.50499923706056,158.10611631835937Q236.46699923706055,158.18655631835938,236.42099923706056,158.26326631835937Q236.37599923706054,158.3399663183594,236.32399923706055,158.41233631835937Q236.27199923706056,158.48469631835937,236.21299923706056,158.55214631835938Q236.15499923706054,158.61958631835938,236.09099923706054,158.68158631835936Q236.02699923706055,158.74357631835937,235.95799923706053,158.79962631835937Q235.88799923706054,158.85567631835937,235.81399923706056,158.9053363183594Q235.73999923706054,158.95499631835938,235.66199923706054,158.99787631835937Q235.58399923706054,159.04075631835937,235.50199923706055,159.07651631835938Q235.42099923706056,159.1122663183594,235.33599923706055,159.14062631835938Q235.25199923706055,159.16897631835937,235.16499923706056,159.18969631835938Q235.07799923706054,159.21041631835936,234.98999923706054,159.22333631835937L234.98899923706054,159.22342631835937L234.98599923706055,159.22390631835938Q230.66999923706055,159.85576631835937,225.07299923706054,159.22476631835937Q221.78099923706054,158.85370631835937,215.11099923706055,157.56546631835937Q209.14699923706056,156.41336631835938,206.18399923706053,156.0293463183594Q201.32399923706055,155.39938631835938,197.52699923706055,155.64047631835936Q193.85899923706054,155.85268631835936,189.22999923706055,157.0956963183594Q186.39499923706055,157.85698631835936,180.65599923706054,159.80071631835938Q174.25999923706053,161.96697631835937,171.01799923706056,162.7962763183594Q165.49999923706054,164.20767631835938,161.01599923706056,164.24437631835937Q156.33199923706053,164.31827631835938,150.60109923706057,163.02077631835937Q147.23699923706056,162.25917631835938,140.68359923706055,160.23379631835937Q134.99539923706055,158.47576631835938,132.22799923706054,157.81210631835938Q127.72869923706055,156.73307631835937,124.24879923706055,156.64384631835938Q119.79789923706055,156.51198631835936,114.32989923706054,157.4807263183594Q111.02139923706055,158.06688631835937,104.57309923706055,159.6747663183594Q98.61059923706054,161.16147631835938,95.73979923706054,161.67567631835936Q90.87039923706055,162.54787631835939,87.18799923706055,162.34137631835938Q79.05109923706055,161.86267631835938,73.70839923706055,160.20886631835938Q70.45609923706054,159.20210631835937,66.07839923706055,156.82061631835938Q62.593799237060544,154.92496631835937,60.32888923706055,154.13093631835937Q56.52745923706055,152.79820631835938,51.096213237060546,152.23406631835937Q51.00483123706055,152.22470631835938,50.91469223706055,152.20700631835936Q50.82455323706055,152.18931631835937,50.736416237060546,152.16342631835937Q50.648278237060545,152.13754631835937,50.56288523706055,152.10368631835937Q50.477492237060545,152.06982631835936,50.39556123706055,152.02828631835936Q50.31363123706055,151.98674631835937,50.23584923706055,151.93787631835937Q50.15807923706055,151.88899631835937,50.08510923706055,151.83319631835937Q50.012139237060545,151.77739631835937,49.94458923706055,151.7151463183594Q49.87703923706054,151.65288631835938,49.81547923706054,151.58470631835937Q49.75392923706055,151.51652631835938,49.698879237060545,151.44298631835937Q49.643829237060544,151.36944631835937,49.59575923706055,151.2911663183594Q49.54767923706055,151.21289131835937,49.506989237060544,151.13053831835938Q49.46628923706055,151.04818531835937,49.43330923706055,150.96244931835938Q49.40033923706055,150.87671231835938,49.37535923706055,150.78831331835937Q49.350379237060544,150.69991431835936,49.33360923706055,150.6095983183594Q49.31683923706055,150.5192823183594,49.30841923706055,150.42780931835938Q49.29999923706055,150.33633621835938,49.29999923706055,150.24447631835938Q49.29999923706055,150.1462226183594,49.30962923706055,150.04844231835938Q49.31925923706055,149.95066131835938,49.338429237060545,149.85429531835936Q49.35759923706055,149.75793031835937,49.38611923706055,149.66390731835938Q49.41463923706055,149.56988431835939,49.452239237060546,149.47910931835938Q49.489839237060544,149.38833531835937,49.536159237060545,149.30168331835938Q49.58246923706055,149.21502631835938,49.63705923706055,149.13333631835937Q49.691649237060545,149.05163631835939,49.75397923706055,148.97568631835938Q49.816309237060544,148.89973631835937,49.88578923706055,148.83026631835938Q49.955259237060545,148.76078631835938,50.031209237060544,148.69845631835938Q50.10715923706055,148.63612631835937,50.18885923706055,148.58153631835938Q50.27054923706055,148.52694631835936,50.357206237060545,148.4806363183594Q50.443858237060546,148.43431631835938,50.53463223706055,148.39671631835938Q50.62540723706055,148.35911631835938,50.71943023706055,148.33059631835937Q50.81345323706055,148.30207631835938,50.90981823706055,148.28290631835938Q51.006184237060545,148.26373631835938,51.10396523706055,148.25410631835936Q51.201745537060546,148.24447631835938,51.29999923706055,148.24447631835938Q51.403544237060544,148.24447631835938,51.506536237060544,148.2551663183594Z" fill-rule="evenodd" fill="#6D5F5E" fill-opacity="1"/></g></g><g><g><path d="M51.68730871118164,159.865222421875L51.68730871118164,159.865222421875Q57.62721771118164,160.727472421875,61.90519771118164,162.405127421875Q64.48899771118164,163.418402421875,68.27139771118163,165.633472421875Q72.37249771118164,168.035132421875,75.31069771118163,169.043992421875Q80.29249771118164,170.754592421875,88.18109771118165,171.452702421875Q91.55409771118164,171.759342421875,96.20449771118163,171.046322421875Q99.09259771118164,170.603532421875,105.24899771118163,169.213682421875Q111.92249771118165,167.707122421875,115.39999771118164,167.162582421875Q121.32399771118165,166.234942421875,126.18329771118164,166.446222421875Q130.15669771118164,166.611782421875,135.15549771118162,167.872632421875Q138.10269771118163,168.615992421875,144.01889771118164,170.511572421875Q150.59429771118164,172.618382421875,153.88599771118163,173.399182421875Q159.27699771118165,174.67798242187502,163.58399771118164,174.644582421875Q167.79399771118165,174.610882421875,173.10899771118164,173.197782421875Q176.36599771118165,172.331682421875,182.93699771118165,170.016272421875Q188.74199771118165,167.970962421875,191.66599771118163,167.132302421875Q196.62399771118163,165.709972421875,200.61599771118165,165.352952421875Q204.76699771118163,164.969822421875,210.00799771118164,165.418482421875Q213.09599771118164,165.682772421875,219.19499771118163,166.558952421875Q226.15999771118163,167.559492421875,229.47799771118164,167.754582421875Q234.84199771118165,168.070062421875,238.75499771118163,167.194702421875Q238.75799771118164,167.193882421875,238.76199771118164,167.193072421875Q238.97799771118164,167.144502421875,239.19999771118165,167.144502421875Q239.29799771118164,167.144502421875,239.39599771118165,167.154132421875Q239.49399771118163,167.163762421875,239.58999771118164,167.182932421875Q239.68699771118165,167.202102421875,239.78099771118164,167.230622421875Q239.87499771118163,167.259142421875,239.96499771118164,167.296742421875Q240.05599771118165,167.334342421875,240.14299771118164,167.380662421875Q240.22899771118165,167.426972421875,240.31099771118164,167.481562421875Q240.39299771118164,167.536152421875,240.46899771118163,167.598482421875Q240.54499771118165,167.660812421875,240.61399771118164,167.730282421875Q240.68399771118163,167.799762421875,240.74599771118164,167.875712421875Q240.80799771118163,167.951662421875,240.86299771118163,168.033362421875Q240.91699771118164,168.115052421875,240.96399771118163,168.201702421875Q241.00999771118165,168.288362421875,241.04799771118164,168.379132421875Q241.08499771118164,168.469912421875,241.11399771118164,168.563932421875Q241.14199771118163,168.657952421875,241.16199771118164,168.754322421875Q241.18099771118165,168.850682421875,241.18999771118163,168.948462421875Q241.19999771118165,169.046252421875,241.19999771118165,169.144502421875Q241.19999771118165,169.313692421875,241.17199771118163,169.480472421875Q241.14299771118164,169.647262421875,241.08699771118165,169.806902421875Q241.03099771118164,169.966542421875,240.94899771118165,170.114502421875Q240.86699771118165,170.262462421875,240.76099771118163,170.394532421875Q240.65599771118164,170.526602421875,240.52899771118163,170.639032421875Q240.40299771118163,170.751462421875,240.25899771118165,170.841062421875Q240.11599771118165,170.930652421875,239.95899771118164,170.994862421875Q239.80299771118163,171.059072421875,239.63699771118164,171.096082421875Q235.17399771118164,172.096482421875,229.24299771118163,171.747692421875Q225.75799771118164,171.542742421875,218.62599771118164,170.518302421875Q212.64099771118165,169.658432421875,209.66699771118164,169.403912421875Q204.77999771118164,168.985592421875,200.98399771118164,169.336022421875Q197.35999771118165,169.660092421875,192.76899771118164,170.977232421875Q189.95899771118164,171.783082421875,184.26699771118163,173.788982421875Q177.54599771118166,176.156782421875,174.13599771118163,177.063482421875Q168.33199771118166,178.606682421875,163.61599771118165,178.644482421875Q158.82399771118165,178.681582421875,152.96299771118163,177.291182421875Q149.52079771118164,176.474682421875,142.79839771118162,174.320782421875Q137.00219771118162,172.463682421875,134.17729771118164,171.751162421875Q129.57819771118164,170.591152421875,126.01669771118164,170.442752421875Q121.54869771118165,170.248502421875,116.01879771118163,171.114422421875Q112.67319771118164,171.638322421875,106.12989771118164,173.11548242187502Q99.83699771118164,174.536182421875,96.81069771118163,175.000082421875Q91.67789771118164,175.787082421875,87.81889771118165,175.436282421875Q79.45439771118164,174.696082421875,74.01159771118164,172.827182421875Q70.69579771118164,171.688632421875,66.25009771118164,169.085152421875Q62.73749771118164,167.028112421875,60.44480771118164,166.129012421875Q56.597267711181644,164.620152421875,51.11575971118164,163.824182421875Q51.02734571118164,163.811492421875,50.94041371118164,163.790962421875Q50.85348271118164,163.770432421875,50.76872771118164,163.742242421875Q50.68397171118164,163.714052421875,50.60206671118164,163.678412421875Q50.52016271118164,163.642782421875,50.441760711181644,163.599982421875Q50.36335771118164,163.557192421875,50.289087711181644,163.507572421875Q50.21480771118164,163.457962421875,50.14524771118164,163.401922421875Q50.07569771118164,163.345882421875,50.01140771118164,163.283872421875Q49.94712771118164,163.221852421875,49.88862771118164,163.154352421875Q49.83012771118164,163.086852421875,49.77787771118164,163.014412421875Q49.72562771118164,162.941962421875,49.68004771118164,162.865152421875Q49.63445771118164,162.788336421875,49.59590771118164,162.707764421875Q49.55734771118164,162.627191421875,49.52613771118164,162.543503421875Q49.49491771118164,162.459815421875,49.47127771118164,162.373677421875Q49.44764771118164,162.287539421875,49.43178771118164,162.199637421875Q49.41591771118164,162.111735421875,49.40795771118164,162.022769421875Q49.39999771118164,161.933803921875,49.39999771118164,161.844482421875Q49.39999771118164,161.746228721875,49.40962771118164,161.648448421875Q49.41925771118164,161.550667421875,49.43842771118164,161.454301421875Q49.45759771118164,161.357936421875,49.48611771118164,161.263913421875Q49.51463771118164,161.169890421875,49.55223771118164,161.079115421875Q49.58983771118164,160.988341421875,49.63615771118164,160.901689421875Q49.682467711181644,160.815032421875,49.73705771118164,160.733342421875Q49.79164771118164,160.651642421875,49.85397771118164,160.575692421875Q49.91630771118164,160.499742421875,49.98578771118164,160.430272421875Q50.05525771118164,160.360792421875,50.13120771118164,160.298462421875Q50.207157711181644,160.236132421875,50.28885771118164,160.181542421875Q50.37054771118164,160.126952421875,50.45720471118164,160.080642421875Q50.54385671118164,160.034322421875,50.63463071118164,159.996722421875Q50.725405711181644,159.959122421875,50.819428711181644,159.930602421875Q50.913451711181644,159.902082421875,51.00981671118164,159.882912421875Q51.10618271118164,159.863742421875,51.20396371118164,159.854112421875Q51.30174401118164,159.844482421875,51.39999771118164,159.844482421875Q51.54440171118164,159.844482421875,51.68730871118164,159.865222421875Z" fill-rule="evenodd" fill="#6D5F5E" fill-opacity="1"/></g></g></g></g></g></g></g></g></svg>