<svg xmlns="http://www.w3.org/2000/svg" xmlns:xlink="http://www.w3.org/1999/xlink" fill="none" version="1.1" width="294.4130859375" height="190" viewBox="0 0 294.4130859375 190"><g><g><g><path d="M0.1,149.19220349121093C0.1,149.19220349121093,-1.5,129.09220349121094,8.1,96.29230349121094C13.8,76.99230349121095,28.9,62.99230349121094,41.6,53.29230349121094C47.4,48.79230349121094,49.8,46.69220349121093,55.4,41.69220349121093C66.7,31.492203491210937,95.6,12.292263491210939,96.1,20.392263491210937C96.1,20.392263491210937,100.1,38.09230349121094,134.8,53.79230349121094C152.6,61.89230349121094,163.1,58.29230349121094,165.7,50.29230349121094C168.8,40.79230349121094,166.8,33.39230349121094,166.4,31.792303491210937C166.4,31.792303491210937,165.6,28.492203491210937,165.6,28.492203491210937C171.1,27.292253491210936,185.9,33.29230349121094,186.9,38.29230349121094C199,42.79230349121094,221,50.392203491210935,235.2,68.69220349121093C254.5,93.59220349121094,258.3,149.29220349121093,258.3,149.19220349121093C258.3,149.19220349121093,0.1,149.19220349121093,0.1,149.19220349121093Z" fill="#A862F9" fill-opacity="1"/></g><g><path d="M43.95835923706055,121.66308379394532Q43.79999923706055,121.34636579394531,43.79999923706055,120.99226379394531Q43.79999923706055,120.91857349394532,43.80721923706054,120.84523779394532Q43.81444923706054,120.77190279394532,43.82881923706055,120.69962879394531Q43.843199237060546,120.62735379394532,43.86458923706055,120.55683679394531Q43.885979237060546,120.48631979394531,43.914179237060544,120.4182387939453Q43.94237923706055,120.35015779394531,43.97711923706055,120.28516879394532Q44.01185923706055,120.2201797939453,44.05279923706055,120.15890879394532Q44.09373923706055,120.09763679394531,44.140479237060546,120.04067379394532Q44.18722923706055,119.98371379394531,44.23933923706055,119.93160379394531Q44.29144923706055,119.87949379394531,44.348409237060544,119.83274379394531Q44.40537223706055,119.78600379394531,44.46664423706055,119.7450637939453Q44.52791523706055,119.70412379394531,44.592904237060544,119.66938379394531Q44.65789323706055,119.63464379394532,44.72597423706055,119.60644379394532Q44.79405523706055,119.57824379394532,44.86457223706055,119.55685379394531Q44.935089237060545,119.53546379394531,45.00736423706055,119.52108379394531Q45.07963823706055,119.50671379394531,45.15297323706055,119.49948379394532Q45.226308937060544,119.49226379394531,45.29999923706055,119.49226379394531Q45.403960237060545,119.49226379394531,45.506927237060545,119.50660379394532Q45.60989523706055,119.5209437939453,45.70989923706055,119.54935379394531Q45.809903237060546,119.57776379394531,45.905032237060546,119.61969379394532Q46.000161237060546,119.66163379394531,46.08859623706055,119.71628379394531Q46.17703023706055,119.7709437939453,46.25708023706055,119.83727379394531Q46.337129237060545,119.90361379394531,46.40725923706054,119.98035379394531Q46.477399237060546,120.05709179394532,46.536269237060544,120.1427747939453Q46.59514923706055,120.22845779394531,46.641639237060545,120.3214437939453Q48.641859237060544,124.32187379394531,49.86829923706055,137.2505637939453Q50.472139237060546,143.6161637939453,50.69877923706055,149.2317637939453Q50.699999237060545,149.2619637939453,50.699999237060545,149.29226379394532Q50.699999237060545,149.3659637939453,50.69277923706055,149.43926379394532Q50.685559237060545,149.5125637939453,50.67117923706055,149.58486379394532Q50.65679923706055,149.6571637939453,50.63540923706055,149.7276637939453Q50.614019237060546,149.79816379394532,50.58581923706055,149.8662637939453Q50.55761923706055,149.93436379394532,50.52287923706055,149.99936379394532Q50.48814923706055,150.06436379394532,50.447199237060545,150.1255637939453Q50.406259237060546,150.18686379394532,50.359519237060546,150.2438637939453Q50.31276923706055,150.30076379394532,50.260659237060544,150.35286379394532Q50.208549237060545,150.40506379394532,50.15158923706055,150.4517637939453Q50.094629237060545,150.49856379394532,50.033359237060544,150.53946379394532Q49.972089237060544,150.5803637939453,49.90709923706055,150.61516379394533Q49.84210923706055,150.64986379394531,49.774029237060546,150.6780637939453Q49.705949237060544,150.7062637939453,49.63542923706055,150.7276637939453Q49.56490923706055,150.7490637939453,49.492639237060544,150.7634637939453Q49.420359237060545,150.77776379394533,49.347029237060546,150.7850637939453Q49.273689237060545,150.79226379394532,49.199999237060545,150.79226379394532Q49.128209237060545,150.79226379394532,49.05673923706055,150.78536379394532Q48.98526923706055,150.77856379394532,48.914789237060546,150.76486379394532Q48.84429923706055,150.75126379394533,48.775439237060546,150.7308637939453Q48.706579237060545,150.7105637939453,48.639979237060544,150.6837637939453Q48.57337923706055,150.65696379394532,48.50963923706055,150.6239637939453Q48.445899237060544,150.59086379394532,48.38560923706055,150.5519637939453Q48.32531923706055,150.51296379394532,48.26901923706055,150.46836379394531Q48.21272923706054,150.42386379394532,48.16094923706055,150.3740637939453Q48.10916923706055,150.3243637939453,48.06237923706055,150.26986379394532Q48.01557923706055,150.2154637939453,47.974199237060546,150.15676379394532Q47.93281923706055,150.0980637939453,47.897239237060546,150.0357637939453Q47.86164923706055,149.9733637939453,47.832179237060544,149.90796379394533Q47.80270923706055,149.8424637939453,47.77962923706055,149.7744637939453Q47.75654923706055,149.70646379394532,47.740069237060546,149.6366637939453Q47.72357923706055,149.5667637939453,47.71384923706054,149.4955637939453Q47.704119237060546,149.4244637939453,47.70121923706055,149.35276379394531L47.701139237060545,149.3506637939453Q47.47774923706055,143.8172637939453,46.881699237060545,137.5339637939453Q45.70814523706055,125.16265379394531,43.95835923706055,121.66308379394532Z" fill-rule="evenodd" fill="#544D4D" fill-opacity="1"/></g><g><path d="M227.2769930517578,99.23055479394532Q227.6312130517578,101.21715379394531,228.1249330517578,104.46945379394532Q229.11064305175782,110.96246379394532,229.81687305175782,117.33606379394531Q232.08451305175782,137.80086379394533,230.6894730517578,149.4696637939453L230.6893930517578,149.4703637939453Q230.68130305175782,149.53796379394532,230.6671230517578,149.60456379394532Q230.6529430517578,149.6711637939453,230.6327930517578,149.7361637939453Q230.61263305175783,149.8012637939453,230.58666305175782,149.86426379394533Q230.5607030517578,149.9271637939453,230.5291330517578,149.98746379394532Q230.49757305175783,150.0478637939453,230.46067305175782,150.1050637939453Q230.42376305175782,150.1623637939453,230.3818330517578,150.21596379394532Q230.33989305175783,150.2696637939453,230.2932630517578,150.3192637939453Q230.24664305175781,150.3688637939453,230.19570305175782,150.4140637939453Q230.14477305175782,150.4592637939453,230.08995305175782,150.4997637939453Q230.0351430517578,150.5401637939453,229.97688305175782,150.57536379394531Q229.9186330517578,150.61066379394532,229.85742305175782,150.64046379394532Q229.7962130517578,150.6703637939453,229.7325430517578,150.69456379394532Q229.6688830517578,150.71866379394532,229.60329305175782,150.7369637939453Q229.5376930517578,150.75536379394532,229.47071305175783,150.76756379394533Q229.40373305175783,150.7798637939453,229.3359130517578,150.78606379394532Q229.2680930517578,150.79226379394532,229.19999305175782,150.79226379394532Q229.12630305175782,150.79226379394532,229.05297305175782,150.7850637939453Q228.97963305175782,150.77776379394533,228.9073630517578,150.7634637939453Q228.8350830517578,150.7490637939453,228.76457305175782,150.7276637939453Q228.6940530517578,150.7062637939453,228.62597305175782,150.6780637939453Q228.55789305175782,150.64986379394531,228.49290305175782,150.61516379394533Q228.4279130517578,150.5803637939453,228.36664305175782,150.53946379394532Q228.3053730517578,150.49846379394532,228.2484030517578,150.4517637939453Q228.1914430517578,150.40506379394532,228.1393330517578,150.35286379394532Q228.0872330517578,150.30076379394532,228.0404830517578,150.2438637939453Q227.9937330517578,150.18686379394532,227.95279305175782,150.1255637939453Q227.91185305175782,150.06436379394532,227.87711305175782,149.99936379394532Q227.84237305175782,149.93436379394532,227.81417305175782,149.8662637939453Q227.78597305175782,149.79816379394532,227.76458305175782,149.7276637939453Q227.7431930517578,149.6571637939453,227.72882305175781,149.58486379394532Q227.71444305175783,149.5125637939453,227.7072230517578,149.43926379394532Q227.69999305175782,149.3659637939453,227.69999305175782,149.29226379394532Q227.69999305175782,149.2028637939453,227.7106030517578,149.1141637939453Q229.0647730517578,137.7883637939453,226.83512305175782,117.66646379394531Q226.1355520517578,111.3529637939453,225.1589200517578,104.91972379394531Q224.67080305175782,101.70438379394531,224.32330305175782,99.75559879394531Q224.3000030517578,99.62496179394532,224.3000030517578,99.49226379394531Q224.3000030517578,99.41857349394532,224.3072230517578,99.34523779394532Q224.31445305175782,99.27190279394532,224.3288230517578,99.19962879394531Q224.34320305175783,99.12735379394532,224.36459305175782,99.05683679394531Q224.38598305175782,98.98631979394531,224.41418305175782,98.9182387939453Q224.44238305175782,98.85015779394531,224.47712305175781,98.78516879394532Q224.5118630517578,98.7201797939453,224.55280305175782,98.65890879394532Q224.59374305175783,98.59763679394531,224.64048305175783,98.54067379394532Q224.6872330517578,98.48371379394531,224.7393430517578,98.43160379394531Q224.7914530517578,98.37949379394531,224.8484130517578,98.33274379394531Q224.9053760517578,98.28600379394531,224.9666480517578,98.2450637939453Q225.0279190517578,98.20412379394531,225.0929080517578,98.16938379394531Q225.1578970517578,98.13464379394532,225.2259780517578,98.10644379394532Q225.2940590517578,98.07824379394532,225.3645760517578,98.05685379394531Q225.4350930517578,98.03546379394531,225.50736805175782,98.02108379394531Q225.57964205175782,98.00671379394531,225.6529770517578,97.99948379394532Q225.7263127517578,97.99226379394531,225.8000030517578,97.99226379394531Q225.9310510517578,97.99226379394531,226.0601140517578,98.01498379394532Q226.1891770517578,98.03771379394531,226.3123440517578,98.08247379394531Q226.4355110517578,98.12723379394531,226.5490500517578,98.19267379394532Q226.6625890517578,98.25811379394531,226.7630610517578,98.34225379394532Q226.86353305175783,98.42639379394531,226.9478930517578,98.52667879394531Q227.0322530517578,98.62696479394532,227.09794305175782,98.74035979394532Q227.1636330517578,98.85375479394531,227.2086630517578,98.97682279394532Q227.2536930517578,99.0998907939453,227.2767030517578,99.2289037939453L227.2767130517578,99.22894979394532L227.2769930517578,99.23055479394532Z" fill-rule="evenodd" fill="#544D4D" fill-opacity="1"/></g><g><path d="M209.82060305175781,131.17594548339844Q209.9529030517578,131.15627548339845,210.0796030517578,131.11349548339842Q210.2064030517578,131.07071548339843,210.3236030517578,131.00618548339844Q210.44080305175783,130.94164548339845,210.5447030517578,130.85739548339845Q210.64860305175782,130.77314548339845,210.73600305175782,130.67183048339842Q210.82330305175782,130.57051648339845,210.8914030517578,130.45534148339843Q210.95940305175782,130.34016648339843,211.0060030517578,130.21476548339842Q211.05270305175782,130.08936448339844,211.0763030517578,129.95769548339842Q211.10000305175782,129.82602648339844,211.10000305175782,129.69224548339844Q211.10000305175782,129.61855518339843,211.0928030517578,129.54521948339843Q211.0856030517578,129.47188448339844,211.0712030517578,129.39961048339845Q211.0568030517578,129.32733548339843,211.0354030517578,129.25681848339843Q211.0140030517578,129.18630148339844,210.9858030517578,129.11822048339843Q210.95760305175781,129.05013948339842,210.92290305175783,128.98515048339843Q210.8881030517578,128.92016148339843,210.84720305175782,128.85889048339843Q210.80630305175782,128.79761848339842,210.7595030517578,128.74065548339843Q210.71280305175782,128.68369548339842,210.66070305175782,128.63158548339842Q210.60860305175783,128.57947548339843,210.5516030517578,128.53272548339845Q210.49460305175782,128.48598548339845,210.4334030517578,128.44504548339845Q210.37210305175782,128.40410548339844,210.30710305175782,128.36936548339844Q210.24210305175782,128.33462548339844,210.1740030517578,128.30642548339844Q210.10590305175782,128.27822548339844,210.0354030517578,128.25683548339845Q209.9649030517578,128.23544548339845,209.89260305175782,128.22106548339843Q209.8204030517578,128.20669548339845,209.74700305175782,128.19946548339843Q209.6737030517578,128.19224548339844,209.60000305175782,128.19224548339844Q209.4892030517578,128.19224548339844,209.3795030517578,128.20853548339844L209.3795030517578,128.20854548339844L209.3788030517578,128.20864548339844Q208.46720305175782,128.34407548339843,206.8940030517578,128.53873548339843Q203.7375030517578,128.92930648339845,200.4349030517578,129.22378848339844Q189.89003305175783,130.16404048339842,181.86916015175782,129.79384648339843Q181.8346000517578,129.79225148339845,181.8000030517578,129.79225148339845Q181.7263127517578,129.79225148339845,181.6529770517578,129.79947448339843Q181.57964205175782,129.80669748339844,181.50736805175782,129.82107348339844Q181.4350930517578,129.83544948339843,181.3645760517578,129.85684148339843Q181.2940590517578,129.87823248339845,181.2259780517578,129.90643248339845Q181.1578970517578,129.93463248339845,181.0929080517578,129.96936948339842Q181.0279190517578,130.00410748339843,180.9666480517578,130.04504748339843Q180.9053760517578,130.08598748339844,180.8484130517578,130.13273548339845Q180.7914530517578,130.17948448339843,180.7393430517578,130.23159148339843Q180.6872330517578,130.28369848339844,180.64048305175783,130.34066148339843Q180.59374305175783,130.39762448339843,180.55280305175782,130.45889648339843Q180.5118630517578,130.52016748339844,180.47712305175781,130.58515648339844Q180.44238305175782,130.65014548339843,180.41418305175782,130.71822548339844Q180.38598305175782,130.78630548339845,180.36459305175782,130.85682548339844Q180.34320305175783,130.92734548339843,180.3288230517578,130.99961548339843Q180.31445305175782,131.07188548339843,180.3072230517578,131.14522548339843Q180.3000030517578,131.21856548339844,180.3000030517578,131.29225548339843Q180.3000030517578,131.36377548339843,180.3068130517578,131.43497548339843Q180.3136130517578,131.50617548339844,180.32716305175782,131.57640548339845Q180.3407130517578,131.64662548339842,180.3608830517578,131.71524548339843Q180.38105305175782,131.78386548339844,180.40765305175782,131.85025548339843Q180.43426305175782,131.91664548339844,180.4670630517578,131.98020548339844Q180.49987305175782,132.04376548339843,180.53857305175782,132.10391548339842Q180.5772730517578,132.16405548339844,180.6215230517578,132.22025548339843Q180.6657730517578,132.27644548339845,180.7151630517578,132.32817548339844Q180.76456305175782,132.37989548339843,180.81865505175782,132.42669548339845Q180.8727480517578,132.47348548339843,180.93104705175782,132.51491548339843Q180.98934705175782,132.55635548339845,181.0513240517578,132.59205548339844Q181.11330105175782,132.62774548339843,181.1783940517578,132.65738548339843Q181.24348705175782,132.68702548339843,181.3111050517578,132.71034548339844Q181.37872205175782,132.73365548339845,181.4482510517578,132.75042548339843Q181.51778005175782,132.76719548339844,181.58858905175782,132.77727548339843Q181.65939905175782,132.78735548339844,181.7308458517578,132.79065548339844L181.7315726517578,132.79068548339845Q189.95485305175782,133.17016548339845,200.7014030517578,132.21193548339843Q204.0550030517578,131.91289548339844,207.26240305175781,131.51602548339844Q208.8726030517578,131.31679548339844,209.8205030517578,131.17595548339844L209.82060305175781,131.17594548339844L209.82060305175781,131.17594548339844Z" fill-rule="evenodd" fill="#544D4D" fill-opacity="1"/></g><g><path d="M102.00003533325196,27.49225C112.80003533325196,42.9923,133.70003533325195,50.8923,152.20043533325196,47.1922C167.40043533325195,44.0922,165.40043533325195,28.5923,165.40043533325195,28.5923C178.30043533325195,27.39226,199.40043533325195,37.0923,204.10043533325197,45.3923C208.70043533325196,53.6923,193.70043533325196,51.6922,193.70043533325196,51.6922C201.10043533325197,56.8923,205.00043533325194,75.4922,193.70043533325196,79.6922C184.40043533325195,83.1922,176.70043533325196,78.09219999999999,176.70043533325196,78.09219999999999C176.70043533325196,78.09219999999999,177.60043533325194,100.7923,158.10043533325194,102.1923C138.60003533325195,103.4923,125.00003533325196,85.0922,125.00003533325196,85.0922C125.00003533325196,85.0922,115.40003533325195,97.5923,98.80003533325196,95.9923C82.20003533325195,94.3923,81.00003533325196,73.7923,81.00003533325196,73.7923C81.00003533325196,73.7923,63.700035333251954,76.9922,54.99999533325195,70.59219999999999C46.29999533325196,64.09219999999999,52.599995333251954,47.7923,52.599995333251954,47.7923C50.09999633325195,38.3923,84.10003533325195,19.99226,90.00003533325196,18.592259C95.90003533325196,17.192259,95.10003533325195,17.592254,102.00003533325196,27.49225Z" fill="#FFFFFF" fill-opacity="1"/></g><g><g><path d="M75.19998610351563,25.630722638671877Q75.10000610351562,25.370770638671875,75.10000610351562,25.092254638671875Q75.10000610351562,25.018564338671876,75.10722610351563,24.945228638671875Q75.11445610351562,24.871893638671875,75.12882610351562,24.799619638671874Q75.14320610351562,24.727344638671877,75.16459610351562,24.656827638671874Q75.18598610351563,24.586310638671875,75.21418610351563,24.518229638671876Q75.24238610351563,24.450148638671877,75.27712610351563,24.385159638671876Q75.31186610351563,24.320170638671875,75.35280610351562,24.258899638671874Q75.39374610351562,24.197627638671875,75.44048610351562,24.140664638671876Q75.48723610351563,24.083704638671875,75.53934610351563,24.031594638671876Q75.59145610351563,23.979484638671874,75.64841610351563,23.932734638671874Q75.70537910351563,23.885994638671875,75.76665110351563,23.845054638671876Q75.82792210351562,23.804114638671876,75.89291110351563,23.769374638671874Q75.95790010351563,23.734634638671874,76.02598110351562,23.706434638671876Q76.09406210351563,23.678234638671874,76.16457910351562,23.656844638671874Q76.23509610351563,23.635454638671874,76.30737110351562,23.621074638671875Q76.37964510351563,23.606704638671875,76.45298010351563,23.599474638671875Q76.52631580351563,23.592254638671875,76.60000610351562,23.592254638671875Q76.71305910351562,23.592254638671875,76.82483510351562,23.609194638671873Q76.93661110351563,23.626144638671875,77.04458410351563,23.659654638671874Q77.15255710351562,23.693154638671874,77.25428910351563,23.742474638671876Q77.35602010351562,23.791784638671874,77.44921110351562,23.855784638671874Q77.54240210351563,23.919794638671874,77.62494610351563,23.997034638671874Q77.70749610351562,24.074284638671877,77.77752610351563,24.163035638671875Q77.84755610351563,24.251783638671874,77.90349610351562,24.350025638671873Q77.95943610351563,24.448268638671877,78.00002610351562,24.553785638671876Q78.74984610351562,26.503314638671874,78.70570610351562,28.646934638671876Q78.66811610351563,30.472314638671875,79.97540610351562,32.60272463867187Q80.48420610351562,33.42464463867188,82.65128610351563,34.98795463867187Q85.26716610351562,36.87505463867188,86.37130610351562,38.255154638671875Q87.21930610351562,39.31515463867187,88.26570610351563,41.926554638671874Q89.40910610351563,44.78005463867187,90.36070610351562,45.731554638671874Q91.14010610351562,46.51105463867188,93.69680610351563,47.57865463867188Q96.58060610351562,48.782754638671875,97.84380610351562,49.82635463867187Q98.94370610351562,50.71675463867187,100.54820610351562,53.050054638671874Q102.25950610351563,55.53865463867187,103.37990610351562,56.21095463867188Q104.36610610351562,56.811254638671876,107.20100610351562,57.29145463867187Q110.13990610351563,57.789354638671874,111.52860610351563,58.43035463867187Q111.54990610351562,58.44015463867188,111.57080610351562,58.45065463867188Q112.81040610351562,59.07035463867187,114.89910610351563,60.93995463867188Q117.16120610351562,62.96485463867187,118.39070610351563,63.374754638671874Q119.50840610351563,63.76165463867188,122.39230610351562,63.58675463867188Q125.37050610351562,63.40615463867187,126.93420610351563,63.72995463867188Q128.76290610351563,64.14795463867188,131.96650610351563,65.76595463867187Q135.05280610351562,67.32465463867187,136.50090610351563,67.50575463867187Q138.37030610351562,67.75845463867188,142.14640610351563,66.88255463867188Q145.1227061035156,66.19225463867187,146.60000610351562,66.19225463867187Q148.35940610351562,66.19225463867187,151.63440610351563,66.81865463867187Q155.20480610351564,67.50155463867188,156.62120610351562,67.21835463867188Q158.68230610351563,66.82845463867187,162.10320610351562,64.25755463867188Q164.11000610351562,62.749554638671874,165.21310610351563,62.15875463867187Q166.47670610351562,61.50785463867187,169.0206061035156,60.57845463867187Q172.92810610351563,59.15085463867187,174.0978061035156,57.87485463867188Q175.41060610351562,56.45255463867187,176.38760610351562,52.24515463867188Q176.9540061035156,49.806254638671874,177.40400610351563,48.64245463867188Q177.92000610351562,47.333254638671875,179.27000610351564,44.939654638671875Q181.29700610351563,41.343754638671875,181.40200610351565,39.60905463867188Q181.5140061035156,37.592454638671875,179.81100610351564,33.572484638671874Q178.85600610351563,31.318934638671877,178.55300610351563,30.187494638671875Q178.55200610351562,30.184204638671876,178.55100610351562,30.180934638671875Q178.50000610351563,29.989964638671875,178.50000610351563,29.792254638671874Q178.50000610351563,29.718564638671875,178.5070061035156,29.645224638671877Q178.5140061035156,29.571894638671875,178.52900610351563,29.499614638671876Q178.5430061035156,29.427344638671876,178.56500610351563,29.356824638671874Q178.58600610351561,29.286304638671876,178.61400610351564,29.218224638671874Q178.64200610351563,29.150144638671875,178.67700610351562,29.085154638671874Q178.71200610351562,29.020164638671876,178.75300610351565,28.958894638671875Q178.79400610351564,28.897624638671875,178.84000610351563,28.840664638671875Q178.88700610351563,28.783694638671875,178.93900610351562,28.731594638671876Q178.99100610351564,28.679484638671873,179.0480061035156,28.632734638671874Q179.10500610351562,28.585984638671874,179.16700610351563,28.545044638671875Q179.2280061035156,28.504104638671876,179.2930061035156,28.469374638671876Q179.3580061035156,28.434634638671874,179.42600610351562,28.406434638671875Q179.49400610351563,28.378234638671874,179.56500610351563,28.356844638671873Q179.63500610351562,28.335454638671877,179.70700610351562,28.321074638671874Q179.78000610351563,28.306694638671875,179.8530061035156,28.299474638671875Q179.92600610351562,28.292254638671874,180.00000610351563,28.292254638671874Q180.12300610351562,28.292254638671874,180.2450061035156,28.312324638671875Q180.36600610351564,28.332394638671875,180.4830061035156,28.372004638671875Q180.59900610351562,28.411604638671875,180.70800610351563,28.469684638671875Q180.81600610351563,28.527764638671876,180.91400610351562,28.602764638671875Q181.01100610351563,28.677774638671874,181.0960061035156,28.767684638671874Q181.1800061035156,28.857594638671877,181.24800610351562,28.960014638671876Q181.31600610351563,29.062434638671874,181.36700610351562,29.174624638671876Q181.4180061035156,29.286814638671874,181.44900610351561,29.405764638671876Q181.45000610351562,29.409574638671874,181.45100610351562,29.413414638671874Q181.70000610351562,30.342094638671874,182.57300610351564,32.402024638671875Q184.5480061035156,37.063354638671875,184.39800610351563,39.775454638671874Q184.25000610351563,42.215154638671876,181.88300610351564,46.41305463867187Q180.63500610351562,48.625854638671875,180.19600610351563,49.742054638671874Q179.82800610351563,50.691354638671875,179.3100061035156,52.92375463867187Q178.15300610351562,57.90425463867187,176.30220610351563,59.909654638671874Q174.64500610351564,61.71755463867188,170.05010610351565,63.39625463867188Q167.68310610351563,64.26105463867188,166.58690610351562,64.82575463867187Q165.7289061035156,65.28555463867187,163.90560610351562,66.65585463867188Q159.92630610351563,69.64625463867188,157.17880610351563,70.16605463867188Q155.21770610351564,70.55845463867188,151.07080610351562,69.76525463867188Q148.07500610351562,69.19225463867187,146.60000610351562,69.19225463867187Q145.46610610351564,69.19225463867187,142.82420610351562,69.80505463867188Q138.51300610351564,70.80495463867187,136.09910610351562,70.47875463867187Q134.1646061035156,70.23705463867188,130.6141061035156,68.44375463867188Q127.73740610351562,66.99085463867188,126.26580610351562,66.65455463867187Q125.15370610351562,66.42475463867189,122.57390610351563,66.58125463867188Q119.09260610351564,66.79235463867187,117.40930610351563,66.20975463867188Q115.62320610351563,65.61445463867187,112.89820610351563,63.17535463867188Q111.12990610351562,61.592454638671875,110.24970610351562,61.144254638671875Q109.21850610351562,60.67605463867187,106.69990610351563,60.249354638671875Q103.29770610351562,59.672954638671875,101.82010610351563,58.773554638671875Q100.15690610351562,57.775654638671874,98.07620610351563,54.74985463867188Q96.71810610351562,52.774854638671876,95.95620610351563,52.158154638671874Q95.01350610351562,51.379454638671874,92.54090610351562,50.346954638671875Q89.43760610351562,49.051154638671875,88.23930610351563,47.852954638671875Q86.85310610351563,46.466654638671876,85.48094610351562,43.042354638671874Q84.59955610351562,40.842854638671874,84.02870610351563,40.129254638671874Q83.18016610351563,39.06865463867187,80.89614610351562,37.42095463867187Q78.24656610351562,35.50955463867187,77.42460710351563,34.18178463867187Q75.65062610351562,31.290874638671873,75.70634010351563,28.585174638671873Q75.73833910351563,27.031154638671875,75.20045610351562,25.631944638671875L75.19998610351563,25.630722638671877L75.19998610351563,25.630722638671877Z" fill-rule="evenodd" fill="#E2E2E2" fill-opacity="1"/></g></g><g><path d="M78.09995376586915,48.19224548339844C78.09995376586915,48.19224548339844,56.50000376586914,48.79224548339844,63.60000376586914,58.69224548339844C70.70000376586914,68.49224548339843,78.09995376586915,48.19224548339844,78.09995376586915,48.19224548339844Z" fill="#A862F9" fill-opacity="1"/></g><g><path d="M106.20004035644531,68.79225158691406C106.20004035644531,68.79225158691406,88.30000035644531,80.19225158691407,99.20000035644532,84.89225158691406C110.1000403564453,89.59225158691406,106.20004035644531,68.79225158691406,106.20004035644531,68.79225158691406Z" fill="#A862F9" fill-opacity="1"/></g><g><path d="M156.20000083496095,75.49226379394531C156.20000083496095,75.49226379394531,148.80001083496094,94.5922637939453,160.00001083496093,91.99226379394531C171.20003083496093,89.49226379394531,156.20000083496095,75.49226379394531,156.20000083496095,75.49226379394531Z" fill="#A862F9" fill-opacity="1"/></g><g><path d="M183.60000610351562,60.19224548339844C183.60000610351562,60.19224548339844,186.50000610351563,76.99224548339843,193.40000610351564,70.39224548339844C200.20000610351562,63.69225548339844,183.60000610351562,60.19224548339844,183.60000610351562,60.19224548339844Z" fill="#A862F9" fill-opacity="1"/></g><g><path d="M188.90000915527344,38.19224548339844C188.90000915527344,38.19224548339844,196.40000915527344,49.992245483398435,199.60000915527343,44.992245483398435C202.80000915527344,39.89224548339844,188.90000915527344,38.19224548339844,188.90000915527344,38.19224548339844Z" fill="#A862F9" fill-opacity="1"/></g><g><path d="M101.9941,27.622001586914063Q102.08481,27.57465158691406,102.16825,27.515421586914062Q102.25168,27.456201586914062,102.3263,27.386191586914062Q102.40092,27.316191586914062,102.46535,27.236694586914062Q102.5298,27.15720358691406,102.5828,27.069699586914062Q102.6358,26.982195586914063,102.6765,26.88830158691406Q102.7172,26.79440658691406,102.7447,26.695860586914062Q102.7722,26.597314586914063,102.7861,26.49594258691406Q102.8,26.39457158691406,102.8,26.292251586914062Q102.8,26.218561286914063,102.7928,26.145225586914062Q102.7856,26.071890586914062,102.7712,25.999616586914062Q102.7568,25.927341586914064,102.7354,25.856824586914062Q102.714,25.786307586914063,102.6858,25.718226586914064Q102.6576,25.650145586914064,102.6229,25.585156586914064Q102.5881,25.520167586914063,102.5472,25.45889658691406Q102.5063,25.397624586914063,102.45952,25.340661586914063Q102.41277,25.283701586914063,102.36066,25.231591586914064Q102.30856,25.17948158691406,102.25159,25.132731586914062Q102.19463,25.085991586914062,102.13336,25.045051586914063Q102.07209,25.004111586914064,102.0071,24.96937158691406Q101.94211,24.934631586914062,101.87403,24.906431586914064Q101.80595,24.878231586914062,101.73543,24.85684158691406Q101.66491,24.83545158691406,101.59264,24.821071586914062Q101.52036,24.806701586914063,101.44703,24.799471586914063Q101.37369,24.792251586914062,101.3,24.792251586914062Q100.93222,24.792251586914062,100.60616,24.962371586914063L100.60588,24.96251158691406Q98.80344,25.90337058691406,96.77454,27.260621586914063Q92.5628255,30.078101586914062,91.20079,32.44254158691406L91.20035,32.443311586914064L91.20007,32.44380158691406Q91,32.79128158691406,91,33.192241586914065Q91,33.265931586914064,91.00722,33.339271586914066Q91.01445,33.412601586914064,91.02882,33.484881586914064Q91.0432,33.55715158691406,91.06459,33.62767158691406Q91.08598,33.698191586914064,91.11418,33.766271586914065Q91.14238,33.83435158691406,91.17712,33.89934158691406Q91.21186,33.964331586914064,91.2528,34.025601586914064Q91.29374,34.086871586914064,91.34048,34.14383158691406Q91.38723,34.20080158691406,91.43934,34.252901586914064Q91.49145,34.30501158691406,91.54841,34.351761586914066Q91.605373,34.39851158691406,91.666645,34.43945158691406Q91.727916,34.48039158691407,91.792905,34.51512158691406Q91.857894,34.54986158691406,91.925975,34.57806158691406Q91.994056,34.60626158691406,92.064573,34.62765158691406Q92.13509,34.64905158691406,92.207365,34.66342158691406Q92.279639,34.677801586914065,92.352974,34.68502158691406Q92.4263097,34.692241586914065,92.5,34.692241586914065Q92.697707,34.692241586914065,92.888662,34.641021586914064Q93.079616,34.58979158691406,93.250776,34.49083158691406Q93.421936,34.39188158691406,93.56161,34.25195158691406Q93.70128,34.112031586914064,93.79993,33.94069158691406Q94.81203,32.182841586914066,98.4426,29.754131586914063Q100.33485,28.488291586914062,101.99193,27.623131586914063Q101.99289,27.62263158691406,101.99385,27.622131586914062L101.9941,27.622001586914063Z" fill-rule="evenodd" fill="#E2E2E2" fill-opacity="1"/></g><g><path d="M112.4495615258789,37.05585263867187Q112.61934152587891,36.85330563867188,112.7096715258789,36.60492663867188Q112.80000152587891,36.356548638671875,112.80000152587891,36.092254638671875Q112.80000152587891,36.01856433867187,112.79278152587891,35.94522863867188Q112.7855615258789,35.87189363867188,112.7711815258789,35.79961963867188Q112.7568015258789,35.72734463867187,112.7354115258789,35.65682763867188Q112.7140215258789,35.586310638671875,112.68582152587891,35.518229638671876Q112.65762152587891,35.45014863867188,112.62288152587891,35.38515963867187Q112.58815152587891,35.320170638671875,112.5472015258789,35.25889963867188Q112.5062715258789,35.197627638671875,112.45952152587891,35.14066463867187Q112.41277152587891,35.083704638671875,112.36066152587891,35.031594638671876Q112.30855152587891,34.97948463867188,112.25159152587891,34.932734638671874Q112.1946315258789,34.885994638671875,112.13336152587891,34.845054638671876Q112.0720815258789,34.80411463867188,112.00710152587891,34.76937463867188Q111.9421115258789,34.73463463867188,111.8740315258789,34.70643463867187Q111.80594152587891,34.678234638671874,111.73543152587891,34.65684463867188Q111.6649115258789,34.635454638671874,111.5926415258789,34.62107463867188Q111.52036152587891,34.60670463867187,111.44703152587891,34.59947463867187Q111.37369152587891,34.592254638671875,111.30000152587891,34.592254638671875Q111.1356315258789,34.592254638671875,110.9751615258789,34.62785463867188Q110.81468152587891,34.663444638671876,110.66573152587891,34.73295463867188Q110.51678152587891,34.802454638671875,110.38641152587891,34.90257463867187Q110.25604152587891,35.00268463867187,110.1504515258789,35.12865563867187L110.14938152587891,35.12993463867188Q108.7007115258789,36.85824363867187,107.1661015258789,38.887474638671875Q103.97473152587891,43.10746463867187,103.46000152587891,44.872254638671876Q103.4000015258789,45.07796463867187,103.4000015258789,45.29225463867188Q103.4000015258789,45.36594463867188,103.40722152587891,45.439274638671876Q103.4144515258789,45.51261463867188,103.4288215258789,45.58488463867187Q103.4432015258789,45.65716463867187,103.4645915258789,45.72767463867187Q103.48598152587891,45.79819463867187,103.51418152587891,45.866274638671875Q103.54238152587891,45.93435463867188,103.57712152587891,45.99934463867187Q103.61186152587891,46.06433463867187,103.6528015258789,46.12555463867187Q103.6937415258789,46.186854638671875,103.7404815258789,46.24385463867188Q103.78723152587891,46.300754638671876,103.83934152587891,46.352954638671875Q103.8914515258789,46.40505463867187,103.94841152587891,46.45175463867187Q104.0053745258789,46.49855463867188,104.06664652587891,46.53945463867188Q104.1279175258789,46.58035463867188,104.19290652587891,46.615154638671875Q104.25789552587891,46.649854638671876,104.3259765258789,46.678054638671874Q104.3940575258789,46.70625463867188,104.4645745258789,46.72765463867188Q104.53509152587891,46.74905463867188,104.6073665258789,46.763454638671874Q104.67964052587891,46.777854638671876,104.75297552587891,46.78505463867187Q104.82631122587891,46.79225463867188,104.9000015258789,46.79225463867188Q105.02091852587891,46.79225463867188,105.14027452587891,46.77285463867187Q105.2596305258789,46.75355463867187,105.3743435258789,46.71525463867187Q105.48905552587891,46.677054638671876,105.59616152587891,46.620954638671876Q105.7032675258789,46.56475463867187,105.80000152587891,46.492254638671874Q105.89673552587891,46.41965463867187,105.98060152587891,46.33255463867187Q106.06446152587891,46.24545463867187,106.1332915258789,46.14605463867188Q106.20212152587891,46.04664463867188,106.2541315258789,45.937484638671876Q106.3061415258789,45.828334638671876,106.3400015258789,45.71225463867187Q106.7002715258789,44.477034638671874,109.55890152587891,40.69703463867187Q111.0487115258789,38.727034638671874,112.4495615258789,37.05585263867187Z" fill-rule="evenodd" fill="#E2E2E2" fill-opacity="1"/></g><g><path d="M125.5371330517578,45.07201769042969Q125.69999305175782,44.75164869042969,125.69999305175782,44.39225769042969Q125.69999305175782,44.318567390429685,125.69277305175781,44.24523169042969Q125.68555305175781,44.17189669042969,125.67117305175782,44.09962269042969Q125.6568030517578,44.027347690429686,125.6354030517578,43.95683069042969Q125.61401305175781,43.88631369042969,125.58581305175781,43.81823269042969Q125.55761305175781,43.75015169042969,125.52288305175782,43.685162690429685Q125.48814305175782,43.62017369042969,125.44720305175781,43.55890269042969Q125.40626305175782,43.49763069042969,125.35951305175782,43.440667690429684Q125.31276305175781,43.38370769042969,125.26065305175781,43.33159769042969Q125.20855305175782,43.27948769042969,125.15158305175781,43.23273769042969Q125.09462305175781,43.18599769042969,125.03335305175781,43.14505769042969Q124.9720830517578,43.10411769042969,124.90709305175781,43.06937769042969Q124.84210305175782,43.03463769042969,124.77402305175781,43.006437690429685Q124.70594305175781,42.97823769042969,124.63542305175781,42.95684769042969Q124.56490305175781,42.935457690429686,124.4926330517578,42.92107769042969Q124.42036305175782,42.906707690429684,124.34702305175782,42.899477690429684Q124.27368305175781,42.89225769042969,124.19999305175782,42.89225769042969Q124.09667305175782,42.89225769042969,123.99432305175782,42.90642769042969Q123.89197305175782,42.920587690429684,123.79253305175781,42.948657690429684Q123.69309305175781,42.97672769042969,123.59844305175781,43.018167690429685Q123.50379305175781,43.05959769042969,123.41571305175782,43.11362769042969Q123.32764305175782,43.16764769042969,123.24780305175781,43.23323769042969Q123.16796305175781,43.29882769042969,123.09787305175782,43.374747690429686Q123.02778305175781,43.450663690429685,122.96877305175781,43.53547469042969Q122.90975305175782,43.62028569042969,122.86292305175782,43.712387690429686L122.86285305175781,43.712514690429686Q122.0969930517578,45.219038690429684,121.2230570517578,47.119107690429686Q119.4501650517578,50.97363769042969,118.85602305175782,53.08612769042969Q118.80000305175781,53.28532769042969,118.80000305175781,53.492247690429686Q118.80000305175781,53.565937690429685,118.80722305175782,53.63927769042969Q118.81445305175781,53.712607690429685,118.82882305175781,53.784887690429684Q118.84320305175781,53.85715769042969,118.86459305175781,53.92767769042969Q118.88598305175782,53.99818769042969,118.91418305175782,54.066277690429686Q118.94238305175782,54.13435769042969,118.97712305175781,54.19934769042969Q119.01186305175781,54.26432769042969,119.0528030517578,54.32559769042969Q119.09374305175781,54.386877690429685,119.14048305175781,54.44385769042969Q119.18723305175781,54.50075769042969,119.23934305175781,54.552957690429686Q119.29145305175781,54.60505769042969,119.34841305175782,54.65175769042969Q119.40537605175781,54.69855769042969,119.46664805175782,54.73945769042969Q119.5279190517578,54.78035769042969,119.59290805175782,54.815157690429686Q119.65789705175781,54.84985769042969,119.7259780517578,54.878057690429685Q119.79405905175781,54.90625769042968,119.86457605175781,54.92765769042968Q119.93509305175782,54.94905769042969,120.00736805175781,54.963457690429685Q120.07964205175782,54.977757690429684,120.15297705175782,54.985057690429684Q120.22631275175782,54.99225769042969,120.30000305175781,54.99225769042969Q120.42182905175781,54.99225769042969,120.5420580517578,54.97255769042969Q120.66228705175781,54.952957690429685,120.77776805175782,54.91415769042969Q120.8932490517578,54.87535769042969,121.00095505175781,54.818357690429686Q121.1086610517578,54.76145769042969,121.20576905175781,54.68785769042969Q121.30287305175781,54.614357690429685,121.38684305175781,54.52605769042969Q121.47080305175781,54.43775769042969,121.53942305175781,54.337137690429685Q121.60804305175782,54.23647769042969,121.65952305175782,54.12605769042969Q121.71099305175781,54.015637690429685,121.74398305175781,53.89836769042969Q122.27425305175781,52.012947690429684,123.94858305175781,48.372707690429685Q124.79789305175781,46.52617769042969,125.53707305175782,45.07212769042969L125.5371330517578,45.07201769042969L125.5371330517578,45.07201769042969Z" fill-rule="evenodd" fill="#E2E2E2" fill-opacity="1"/></g><g><path d="M140.49604984863282,48.30104848339844Q140.49999984863283,48.24671898339844,140.49999984863283,48.19224548339844Q140.49999984863283,48.118555183398435,140.4927698486328,48.04521948339844Q140.48554984863281,47.97188448339844,140.4711798486328,47.89961048339844Q140.4567998486328,47.827335483398436,140.43540984863282,47.75681848339844Q140.41401984863282,47.68630148339844,140.38581984863282,47.61822048339844Q140.35761984863282,47.55013948339844,140.32287984863282,47.485150483398435Q140.28813984863282,47.42016148339844,140.24719984863282,47.35889048339844Q140.2062598486328,47.29761848339844,140.1595098486328,47.240655483398434Q140.1127598486328,47.18369548339844,140.0606598486328,47.13158548339844Q140.0085498486328,47.07947548339844,139.9515898486328,47.03272548339844Q139.8946198486328,46.98598548339844,139.83334984863282,46.94504548339844Q139.7720818486328,46.90410548339844,139.7070928486328,46.86936548339844Q139.64210384863281,46.83462548339844,139.5740228486328,46.806425483398435Q139.5059418486328,46.77822548339844,139.4354248486328,46.75683548339844Q139.3649078486328,46.735445483398436,139.29263284863282,46.72106548339844Q139.2203588486328,46.706695483398434,139.1470238486328,46.699465483398434Q139.0736878486328,46.69224548339844,138.9999978486328,46.69224548339844Q138.9297178486328,46.69224548339844,138.85974684863282,46.698815483398434Q138.78977534863282,46.70538548339844,138.7207248486328,46.718475483398436Q138.6516748486328,46.73155548339844,138.58414984863282,46.751045483398435Q138.5166248486328,46.77052548339844,138.4512178486328,46.79623548339844Q138.38581084863281,46.82194548339844,138.32309484863282,46.85366548339844Q138.2603778486328,46.885375483398434,138.2009018486328,46.92281548339844Q138.14142584863282,46.960255483398434,138.0857108486328,47.00309548339844Q138.0299948486328,47.04593548339844,137.9785298486328,47.09379548339844Q137.92706384863283,47.141645483398435,137.8802978486328,47.19411048339844Q137.8335328486328,47.24657248339844,137.79187984863282,47.30317548339844Q137.7502198486328,47.35977948339844,137.7140398486328,47.420030483398435Q137.6778598486328,47.480281483398436,137.64746984863282,47.543651483398435Q137.6170798486328,47.607020483398436,137.59274984863282,47.672954483398435Q137.5684198486328,47.738887483398436,137.5503598486328,47.80680748339844Q137.53230984863282,47.87472648339844,137.52067984863282,47.94403748339844Q137.5090498486328,48.01334748339844,137.5039498486328,48.083442483398436Q137.4779298486328,48.44121148339844,137.44591984863283,49.034938483398435Q137.38231984863282,50.21481548339844,137.3505198486328,51.41502548339844Q137.2480598486328,55.28291548339844,137.5070898486328,57.93790548339844Q137.5137998486328,58.00669548339844,137.5268098486328,58.07458548339844Q137.53981984863282,58.14246548339844,137.5590198486328,58.208845483398434Q137.5782098486328,58.275245483398436,137.6034398486328,58.339645483398435Q137.62865984863282,58.40394548339844,137.6596998486328,58.465745483398436Q137.6907298486328,58.52754548339844,137.7273098486328,58.58614548339844Q137.7638998486328,58.64484548339844,137.8057198486328,58.699845483398434Q137.8475408486328,58.75484548339844,137.8942468486328,58.805845483398436Q137.9409528486328,58.85674548339844,137.9921468486328,58.903245483398436Q138.04334084863282,58.94964548339844,138.0985898486328,58.99114548339844Q138.1538378486328,59.032745483398436,138.21267184863282,59.06904548339844Q138.2715058486328,59.105245483398434,138.33342784863282,59.13604548339843Q138.3953488486328,59.16674548339844,138.4598328486328,59.19164548339844Q138.52431684863282,59.216545483398434,138.59081584863281,59.23534548339844Q138.6573158486328,59.254245483398435,138.72526794863282,59.26684548339844Q138.79321984863282,59.27954548339844,138.86204814863282,59.28584548339844Q138.9308768486328,59.29224548339844,138.9999978486328,59.29224548339844Q139.0736878486328,59.29224548339844,139.1470238486328,59.285045483398434Q139.2203588486328,59.27784548339844,139.29263284863282,59.263445483398435Q139.3649078486328,59.24904548339844,139.4354248486328,59.22764548339843Q139.5059418486328,59.20624548339843,139.5740228486328,59.178045483398435Q139.64210384863281,59.14984548339844,139.7070928486328,59.115145483398436Q139.7720818486328,59.08034548339844,139.83334984863282,59.03944548339844Q139.8946198486328,58.99854548339844,139.9515898486328,58.95174548339844Q140.0085498486328,58.90504548339844,140.0606598486328,58.852945483398436Q140.1127598486328,58.80084548339843,140.1595098486328,58.74384548339844Q140.2062598486328,58.686845483398436,140.24719984863282,58.625645483398436Q140.28813984863282,58.56434548339844,140.32287984863282,58.499345483398436Q140.35761984863282,58.43434548339844,140.38581984863282,58.36624548339844Q140.41401984863282,58.298145483398436,140.43540984863282,58.22764548339843Q140.4567998486328,58.15716548339844,140.4711798486328,58.08488548339844Q140.48554984863281,58.012615483398434,140.4927698486328,57.93927548339844Q140.49999984863283,57.865945483398434,140.49999984863283,57.792255483398435Q140.49999984863283,57.71925548339844,140.49290984863282,57.64660548339844Q140.2519298486328,55.17658548339844,140.34946984863282,51.494465483398436Q140.38017984863282,50.335305483398436,140.4415698486328,49.196425483398436Q140.4720698486328,48.630787483398436,140.49604984863282,48.30104848339844Z" fill-rule="evenodd" fill="#E2E2E2" fill-opacity="1"/></g><g><path d="M155.22320305175782,46.61844263867187Q155.7294930517578,48.13734463867188,156.33523305175783,50.13123463867188Q157.55431305175782,54.14402463867187,158.06783305175782,56.58324463867187Q158.10000305175782,56.73607463867187,158.10000305175782,56.89225463867187Q158.10000305175782,56.96594463867187,158.0927830517578,57.03928463867187Q158.08556305175782,57.11265463867188,158.0711830517578,57.18485463867187Q158.0568030517578,57.25715463867188,158.0354130517578,57.32765463867187Q158.01402305175782,57.398154638671876,157.98582305175782,57.46625463867188Q157.95762305175782,57.53435463867187,157.92288305175782,57.599354638671876Q157.88815305175783,57.664354638671874,157.84721305175782,57.72565463867188Q157.8062730517578,57.786854638671876,157.7595230517578,57.84385463867187Q157.7127730517578,57.90085463867187,157.6606630517578,57.952954638671876Q157.6085630517578,58.00505463867188,157.5515930517578,58.05175463867187Q157.4946330517578,58.09855463867187,157.43336305175782,58.13945463867188Q157.37209305175782,58.18035463867187,157.30710305175782,58.215154638671876Q157.24211305175783,58.24985463867188,157.17403305175782,58.278054638671875Q157.1059530517578,58.306254638671874,157.03543305175782,58.32765463867187Q156.9649130517578,58.34905463867187,156.8926430517578,58.363454638671875Q156.82036305175782,58.37785463867188,156.74703305175782,58.385054638671875Q156.67369305175782,58.39225463867187,156.60000305175782,58.39225463867187Q156.4718830517578,58.39225463867187,156.34562305175783,58.37055463867188Q156.21936305175782,58.34875463867188,156.0986130517578,58.30595463867188Q155.97786305175782,58.26315463867188,155.86612305175782,58.20045463867187Q155.7543830517578,58.13775463867188,155.65489305175782,58.05705463867187Q155.55540305175782,57.97635463867188,155.47104305175782,57.879954638671876Q155.38669305175782,57.78345463867188,155.31990305175782,57.67415463867187Q155.25312305175783,57.56475463867187,155.2058530517578,57.44575463867187Q155.1585730517578,57.326654638671876,155.1321830517578,57.20125463867188L155.1319330517578,57.20005463867187Q154.64539505175782,54.889484638671874,153.46477405175781,51.003274638671876Q152.8706220517578,49.047524638671874,152.3769830517578,47.56659763867187Q152.3000030517578,47.335671638671876,152.3000030517578,47.092254638671875Q152.3000030517578,47.01856433867187,152.3072230517578,46.94522863867188Q152.31445305175782,46.87189363867188,152.3288230517578,46.79961963867188Q152.34320305175783,46.72734463867187,152.36459305175782,46.65682763867188Q152.38598305175782,46.586310638671875,152.41418305175782,46.518229638671876Q152.44238305175782,46.45014863867188,152.47712305175781,46.38515963867187Q152.5118630517578,46.320170638671875,152.55280305175782,46.25889963867188Q152.59374305175783,46.197627638671875,152.64048305175783,46.14066463867187Q152.6872330517578,46.083704638671875,152.7393430517578,46.031594638671876Q152.7914530517578,45.97948463867188,152.8484130517578,45.932734638671874Q152.9053760517578,45.885994638671875,152.9666480517578,45.845054638671876Q153.0279190517578,45.80411463867188,153.0929080517578,45.76937463867188Q153.1578970517578,45.73463463867188,153.2259780517578,45.70643463867187Q153.2940590517578,45.678234638671874,153.3645760517578,45.65684463867188Q153.4350930517578,45.635454638671874,153.50736805175782,45.62107463867188Q153.57964205175782,45.60670463867187,153.6529770517578,45.59947463867187Q153.7263127517578,45.592254638671875,153.8000030517578,45.592254638671875Q153.9173400517578,45.592254638671875,154.03324905175782,45.61050463867188Q154.1491580517578,45.628744638671876,154.2608200517578,45.66479463867188Q154.37248305175783,45.700844638671875,154.4771810517578,45.75381463867188Q154.58188005175782,45.80678463867188,154.67706905175783,45.87539463867188Q154.7722570517578,45.943994638671874,154.85562305175782,46.026574638671875Q154.93898305175782,46.109148638671876,155.00849305175782,46.203681638671874Q155.0779930517578,46.29821463867187,155.13196305175782,46.40240663867188Q155.1859230517578,46.50659763867188,155.22303305175782,46.617912638671875L155.22320305175782,46.61844263867187Z" fill-rule="evenodd" fill="#E2E2E2" fill-opacity="1"/></g><g><path d="M164.28328215527344,38.17988769042969Q165.72635915527343,39.22972869042969,167.27317915527343,40.633857690429686Q170.54301915527344,43.60203769042969,171.22804915527342,45.733227690429686Q171.29999915527344,45.95709769042969,171.29999915527344,46.19224769042969Q171.29999915527344,46.26593769042969,171.29277915527345,46.339267690429686Q171.28555915527343,46.41260769042969,171.27117915527344,46.484877690429684Q171.25680915527343,46.55715769042969,171.23540915527343,46.62766769042969Q171.21401915527343,46.69818769042969,171.18581915527344,46.766267690429686Q171.15761915527344,46.83434769042969,171.12288915527344,46.89933769042969Q171.08814915527344,46.964327690429684,171.04720915527344,47.025597690429684Q171.00626915527343,47.086867690429685,170.95951915527343,47.143837690429685Q170.91276915527345,47.20079769042969,170.86065915527342,47.25290769042969Q170.80855915527343,47.30500769042969,170.75158915527345,47.351757690429686Q170.69462915527345,47.39850769042969,170.63335915527344,47.43944769042969Q170.57208915527343,47.48038769042969,170.50709915527344,47.515127690429686Q170.44210915527344,47.549867690429686,170.37402915527343,47.57806769042969Q170.30594915527342,47.60626769042969,170.23542915527344,47.627657690429686Q170.16490915527345,47.64904769042969,170.09263915527345,47.66341769042969Q170.02035915527344,47.677797690429685,169.94702915527344,47.68501769042969Q169.87368915527344,47.69224769042969,169.79999915527344,47.69224769042969Q169.68164915527345,47.69224769042969,169.56476915527344,47.67368769042969Q169.44787915527343,47.65512769042969,169.33534915527343,47.61846769042969Q169.22281915527344,47.581807690429684,169.11742915527344,47.527947690429684Q169.01204915527344,47.474087690429684,168.91640915527344,47.40437769042968Q168.82076915527344,47.33465769042969,168.73724915527345,47.25080769042969Q168.65372915527342,47.16695769042969,168.58438915527344,47.07103769042969Q168.51504915527343,46.97512769042969,168.46160915527344,46.869527690429685Q168.40817915527344,46.76392769042969,168.37195915527343,46.65125769042969L168.37183915527345,46.65087769042969Q167.93210915527345,45.28366769042969,165.25679915527343,42.855157690429685Q163.82983715527342,41.55983769042969,162.51775215527343,40.60536769042969L162.51762315527344,40.605267690429685Q162.37413915527344,40.50089769042969,162.25897915527344,40.365930690429686Q162.14380915527343,40.23096469042969,162.06329915527343,40.07285369042969Q161.98279915527343,39.91474269042969,161.94139915527344,39.74221269042969Q161.90000915527344,39.569683690429684,161.90000915527344,39.39225769042969Q161.90000915527344,39.318567390429685,161.90722915527343,39.24523169042969Q161.91445915527345,39.17189669042969,161.92882915527343,39.09962269042969Q161.94320915527345,39.027347690429686,161.96459915527345,38.95683069042969Q161.98598915527344,38.88631369042969,162.01418915527344,38.81823269042969Q162.04238915527344,38.75015169042969,162.07712915527344,38.685162690429685Q162.11186915527344,38.62017369042969,162.15280915527345,38.55890269042969Q162.19374915527345,38.49763069042969,162.24048915527345,38.440667690429684Q162.28723915527343,38.38370769042969,162.33934915527342,38.33159769042969Q162.39145915527342,38.27948769042969,162.44841915527343,38.23273769042969Q162.50538215527342,38.18599769042969,162.56665415527343,38.14505769042969Q162.62792515527343,38.10411769042969,162.69291415527343,38.06937769042969Q162.75790315527342,38.03463769042969,162.82598415527343,38.006437690429685Q162.89406515527344,37.97823769042969,162.96458215527343,37.95684769042969Q163.03509915527343,37.935457690429686,163.10737415527345,37.92107769042969Q163.17964815527344,37.906707690429684,163.25298315527343,37.899477690429684Q163.32631885527343,37.89225769042969,163.40000915527344,37.89225769042969Q163.63776915527345,37.89225769042969,163.86387515527343,37.965787690429686Q164.08998015527345,38.03930769042969,164.28226615527345,38.17915769042969L164.28240415527344,38.17925769042969L164.28328215527344,38.17988769042969Z" fill-rule="evenodd" fill="#E2E2E2" fill-opacity="1"/></g><g><path d="M165.65878190351563,29.29340158691406Q166.04845210351561,29.308681586914062,166.62972610351562,29.386901586914064Q167.76403610351562,29.539521586914063,168.83385610351561,29.852641586914064Q172.43732610351563,30.907315586914063,174.0528661035156,33.36741158691406Q174.05343610351562,33.36829158691406,174.05401610351564,33.369171586914064L174.05407610351563,33.369261586914064Q174.17440610351562,33.55263158691406,174.23720610351563,33.76277158691406Q174.3000061035156,33.97292158691406,174.3000061035156,34.192241586914065Q174.3000061035156,34.265931586914064,174.29277610351562,34.339271586914066Q174.28555610351563,34.41261158691406,174.27117610351561,34.484881586914064Q174.25680610351563,34.55715158691406,174.23541610351563,34.62767158691406Q174.21401610351563,34.698191586914064,174.18581610351563,34.766271586914065Q174.15761610351564,34.83435158691406,174.1228861035156,34.89934158691406Q174.0881461035156,34.964331586914064,174.04720610351563,35.025601586914064Q174.00626610351563,35.086871586914064,173.95951610351563,35.14383158691406Q173.91276610351562,35.20080158691406,173.86066610351563,35.252901586914064Q173.80855610351563,35.30501158691406,173.75159610351562,35.351761586914066Q173.69462610351562,35.39851158691406,173.63335610351564,35.43945158691406Q173.57208610351563,35.48039158691406,173.50709610351564,35.515131586914066Q173.4421061035156,35.54986158691406,173.37402610351563,35.57806158691406Q173.30594610351562,35.60626158691406,173.23542610351564,35.62765158691406Q173.16491610351562,35.649041586914066,173.09263610351562,35.66342158691406Q173.0203661035156,35.677801586914065,172.9470261035156,35.68502158691406Q172.8736961035156,35.692241586914065,172.8000061035156,35.692241586914065Q172.61341610351562,35.692241586914065,172.43251610351564,35.646531586914065Q172.25161610351563,35.600821586914066,172.0874261035156,35.51218158691406Q171.92323610351562,35.423551586914066,171.78577610351562,35.297381586914064Q171.64830610351564,35.171221586914065,171.54592610351563,35.01523158691406Q170.53632610351562,33.476781586914065,167.99115610351564,32.73185158691406Q167.1390961035156,32.48247158691406,166.22966210351564,32.36010158691406Q165.79028910351562,32.30098158691406,165.54260640351563,32.29115158691406L165.54122870351563,32.29110158691406Q165.46943510351562,32.28828158691406,165.39823910351564,32.27862158691406Q165.32704410351562,32.26895158691406,165.25709810351563,32.25253158691406Q165.18715110351562,32.23610158691406,165.11909510351563,32.21307158691406Q165.05104010351562,32.19003158691406,164.98549710351563,32.16060158691406Q164.91995410351564,32.13116158691406,164.85752510351563,32.095601586914064Q164.79509510351562,32.06004158691406,164.73635110351563,32.01867158691406Q164.6776071035156,31.977301586914063,164.62308510351562,31.93051158691406Q164.56856610351562,31.883711586914064,164.51876610351562,31.831921586914063Q164.4689661035156,31.780132586914064,164.42434610351563,31.72381958691406Q164.37972610351562,31.66750658691406,164.34068610351562,31.60718658691406Q164.30165610351563,31.546865586914063,164.26856610351564,31.483090586914063Q164.23547610351562,31.419315586914063,164.20862610351563,31.352670586914062Q164.18178610351563,31.286024586914063,164.16143610351563,31.21711858691406Q164.14108610351562,31.148211586914062,164.12741610351563,31.07767558691406Q164.11373610351563,31.00713958691406,164.10687610351562,30.93561958691406Q164.10000610351562,30.864100286914063,164.10000610351562,30.792251586914062Q164.10000610351562,30.718561286914063,164.10722610351561,30.645225586914062Q164.11445610351564,30.571890586914062,164.12882610351562,30.499616586914062Q164.14320610351564,30.427341586914064,164.16459610351563,30.356824586914062Q164.18598610351563,30.286307586914063,164.21418610351563,30.218226586914064Q164.24238610351563,30.150145586914064,164.27712610351563,30.085156586914064Q164.31186610351563,30.020167586914063,164.35280610351563,29.95889658691406Q164.39374610351564,29.897624586914063,164.44048610351564,29.840661586914063Q164.4872361035156,29.783701586914063,164.5393461035156,29.731591586914064Q164.5914561035156,29.67948158691406,164.64841610351561,29.632731586914062Q164.7053791035156,29.585991586914062,164.7666511035156,29.545051586914063Q164.82792210351562,29.504111586914064,164.89291110351562,29.46937158691406Q164.9579001035156,29.434631586914062,165.02598110351562,29.406431586914064Q165.09406210351563,29.378231586914062,165.16457910351562,29.35684158691406Q165.23509610351562,29.33545158691406,165.30737110351564,29.321071586914062Q165.37964510351563,29.306701586914063,165.4529801035156,29.299471586914063Q165.52631580351562,29.292251586914062,165.60000610351562,29.292251586914062Q165.62940530351563,29.292251586914062,165.65878190351563,29.29340158691406Z" fill-rule="evenodd" fill="#E2E2E2" fill-opacity="1"/></g></g></g></svg>