<svg xmlns="http://www.w3.org/2000/svg" xmlns:xlink="http://www.w3.org/1999/xlink" fill="none" version="1.1" width="294.39599609375" height="195.421630859375" viewBox="0 0 294.39599609375 195.421630859375"><g transform="translate(-5 -5)"><g><path d="M0.10003433227539063,154.69995851516722C0.10003433227539063,154.69995851516722,-1.4999656677246094,134.59995851516723,8.10003433227539,101.79995851516723C15.50003433227539,76.59995851516723,38.10003433227539,62.499958515167236,52.70003433227539,53.19995851516724C51.90003433227539,42.999958515167236,55.00003433227539,30.199958515167236,63.40003433227539,17.599958515167238C70.2000343322754,7.299968515167237,82.7000343322754,2.3999585151672362,93.50003433227539,-0.000041484832763671875C94.4000343322754,7.299958515167236,95.4000343322754,16.299958515167237,96.00003433227539,25.899958515167235C96.00003433227539,25.899958515167235,100.00003433227539,43.59995851516724,134.70003433227538,59.29995851516723C152.5000343322754,67.39995851516724,163.0000343322754,63.79995851516723,165.60003433227538,55.79995851516723C168.70003433227538,46.29995851516723,166.70003433227538,38.899958515167235,166.3000343322754,37.29995851516723C166.3000343322754,37.29995851516723,165.5000343322754,33.999958515167236,165.5000343322754,33.999958515167236C171.0000343322754,32.899958515167235,176.3000343322754,30.799958515167237,180.9000343322754,27.999958515167236C183.9000343322754,33.29995851516723,185.8000343322754,38.79995851516723,186.8000343322754,43.79995851516723C198.9000343322754,48.29995851516723,220.9000343322754,55.899958515167235,235.10003433227538,74.19995851516724C254.4000343322754,99.09995851516723,258.2000343322754,154.79995851516725,258.5000343322754,154.69995851516722C258.5000343322754,154.69995851516722,0.10003433227539063,154.69995851516722,0.10003433227539063,154.69995851516722Z" fill="#6060D8" fill-opacity="1"/></g><g><path d="M79.14724166259765,41.77387545239258Q79.09989166259766,41.589926452392575,79.09989166259766,41.39998245239258Q79.09989166259766,41.326292152392575,79.10711166259766,41.25295645239258Q79.11434166259765,41.17962145239258,79.12871166259765,41.10734745239258Q79.14309166259766,41.035072452392576,79.16448166259765,40.96455545239258Q79.18587166259766,40.89403845239258,79.21407166259766,40.82595745239258Q79.24227166259766,40.75787645239258,79.27701166259766,40.692887452392576Q79.31175166259766,40.62789845239258,79.35269166259765,40.56662745239258Q79.39363166259766,40.50535545239258,79.44037166259766,40.448392452392575Q79.48712166259766,40.39143245239258,79.53923166259766,40.33932245239258Q79.59134166259766,40.28721245239258,79.64830166259766,40.24046245239258Q79.70526466259766,40.19372245239258,79.76653666259766,40.15278245239258Q79.82780766259765,40.11184245239258,79.89279666259766,40.07710245239258Q79.95778566259766,40.04236245239258,80.02586666259765,40.014162452392576Q80.09394766259766,39.98596245239258,80.16446466259765,39.96457245239258Q80.23498166259766,39.94318245239258,80.30725666259765,39.92880245239258Q80.37953066259766,39.914432452392575,80.45286566259766,39.907202452392575Q80.52620136259766,39.89998245239258,80.59989166259766,39.89998245239258Q80.72398666259765,39.89998245239258,80.84639466259766,39.92037245239258Q80.96880366259765,39.94077245239258,81.08619566259766,39.98100245239258Q81.20358866259765,40.02123245239258,81.31277366259765,40.08021245239258Q81.42195866259766,40.139182452392575,81.51996666259765,40.21530245239258Q81.61797166259765,40.29142245239258,81.70214166259765,40.38261245239258Q81.78631166259765,40.47380145239258,81.85435166259765,40.577582452392576Q81.92238166259766,40.68136445239258,81.97244166259766,40.79491545239258Q82.02250166259766,40.90846645239258,82.05321166259766,41.02870045239258Q83.52510166259765,46.74235245239258,88.27294166259766,54.52708245239258Q97.80929166259766,70.16308245239259,114.18399166259766,80.22128245239259L114.18499166259765,80.22188245239258Q114.34879166259765,80.32248245239258,114.48199166259766,80.46118245239258Q114.61519166259765,80.59988245239258,114.70899166259765,80.76778245239258Q114.80289166259766,80.93558245239258,114.85139166259765,81.12158245239257Q114.89989166259765,81.30768245239258,114.89989166259765,81.49998245239257Q114.89989166259765,81.57368245239257,114.89269166259766,81.64698245239258Q114.88549166259766,81.72038245239258,114.87109166259765,81.79258245239258Q114.85669166259765,81.86488245239258,114.83529166259765,81.93538245239259Q114.81389166259765,82.00598245239257,114.78569166259766,82.07398245239258Q114.75749166259766,82.14208245239257,114.72279166259766,82.20708245239257Q114.68799166259765,82.27208245239258,114.64709166259766,82.33338245239258Q114.60619166259767,82.39458245239257,114.55939166259765,82.45158245239259Q114.51269166259766,82.50858245239257,114.46059166259766,82.56068245239257Q114.40849166259765,82.61278245239258,114.35149166259765,82.65948245239258Q114.29449166259766,82.70628245239257,114.23329166259765,82.74718245239258Q114.17199166259766,82.78818245239258,114.10699166259766,82.82288245239258Q114.04199166259767,82.85758245239258,113.97389166259765,82.88578245239258Q113.90579166259766,82.91398245239259,113.83529166259765,82.93538245239259Q113.76479166259766,82.95678245239259,113.69249166259766,82.97118245239258Q113.62029166259765,82.98558245239258,113.54689166259766,82.99278245239258Q113.47359166259766,82.99998245239257,113.39989166259765,82.99998245239257Q113.19199166259766,82.99998245239257,112.99199166259766,82.94348245239257Q112.79199166259767,82.88688245239257,112.61479166259765,82.77818245239257L112.61449166259766,82.77798245239258Q112.61249166259765,82.77668245239258,112.61039166259766,82.77548245239258Q95.62299166259766,72.33988245239257,85.71171166259765,56.089082452392574Q80.73011966259766,47.921172452392575,79.14727166259766,41.774032452392575L79.14723166259766,41.77387645239258L79.14724166259765,41.77387545239258Z" fill-rule="evenodd" fill="#423232" fill-opacity="1"/></g><g><path d="M188.16154934570312,43.46223886645508Q188.62237934570314,45.45590686645508,189.05517934570312,48.626756866455075Q189.91677934570313,54.93840686645508,189.81217934570313,60.95120686645508Q189.4726793457031,80.45930686645508,179.31476934570313,89.70480686645507Q179.31229934570314,89.70700686645507,179.30982934570312,89.70930686645508L179.30944934570311,89.70960686645508L177.29070934570314,87.49040686645507Q186.49561934570312,79.11690686645508,186.81258934570312,60.89900686645508Q186.91319934570313,55.11620686645508,186.08274934570312,49.032516866455076Q185.66871934570312,45.99948686645508,185.23910934570313,44.13999386645508L185.23864934570312,44.13799486645508L185.23860934570314,44.13781186645508Q185.20006934570313,43.97110686645508,185.20006934570313,43.80000686645508Q185.20006934570313,43.726316566455075,185.20729934570312,43.65298086645508Q185.21451934570314,43.57964586645508,185.22889934570313,43.50737186645508Q185.2432693457031,43.435096866455076,185.26465934570314,43.36457986645508Q185.28604934570313,43.29406286645508,185.31424934570313,43.22598186645508Q185.34244934570313,43.15790086645508,185.37718934570313,43.092911866455076Q185.41192934570313,43.02792286645508,185.45286934570314,42.96665186645508Q185.4938093457031,42.90537986645508,185.54055934570312,42.848416866455075Q185.58730934570312,42.79145686645508,185.63940934570311,42.73934686645508Q185.6915193457031,42.68723686645508,185.74847934570312,42.64048686645508Q185.80544934570312,42.59374686645508,185.86671934570313,42.55280686645508Q185.9279893457031,42.51186686645508,185.99297934570313,42.47712686645508Q186.05796934570313,42.44238686645508,186.12604934570314,42.414186866455076Q186.19412934570312,42.38598686645508,186.26464934570313,42.36459686645508Q186.33515934570312,42.34320686645508,186.40743934570312,42.32882686645508Q186.47970934570313,42.314456866455075,186.55304934570313,42.307226866455075Q186.62637934570313,42.30000686645508,186.70006934570313,42.30000686645508Q186.82632934570313,42.30000686645508,186.95079934570313,42.321106866455075Q187.07527934570314,42.342216866455075,187.1944693457031,42.38382686645508Q187.31366934570312,42.42543686645508,187.4242393457031,42.48638686645508Q187.53479934570314,42.547336866455076,187.63361934570312,42.62591686645508Q187.7324393457031,42.70448686645508,187.81673934570313,42.798476866455076Q187.9010393457031,42.892465866455076,187.96843934570313,42.99922186645508Q188.03583934570312,43.10597686645508,188.08443934570312,43.22249686645508Q188.1330493457031,43.339016866455076,188.16149934570313,43.462021866455075L188.16154934570312,43.46223886645508Z" fill-rule="evenodd" fill="#423232" fill-opacity="1"/></g><g><path d="M139.91927387695313,84.38552026708984Q140.00002387695312,84.14946826708984,140.00002387695312,83.89998626708984Q140.00002387695312,83.82629596708985,139.99280387695313,83.75296026708985Q139.98558387695311,83.67962526708985,139.97120387695313,83.60735126708984Q139.95682387695314,83.53507626708985,139.9354338769531,83.46455926708984Q139.91404387695312,83.39404226708984,139.88584387695312,83.32596126708984Q139.85764387695312,83.25788026708985,139.82290387695312,83.19289126708985Q139.78817387695312,83.12790226708984,139.74723387695312,83.06663126708985Q139.7062938769531,83.00535926708984,139.65954387695314,82.94839626708985Q139.61279387695313,82.89143626708984,139.56068387695314,82.83932626708985Q139.50858387695314,82.78721626708985,139.45161387695313,82.74046626708984Q139.39465387695313,82.69372626708984,139.33338387695312,82.65278626708984Q139.2721138769531,82.61184626708985,139.20712387695312,82.57710626708985Q139.14213387695312,82.54236626708985,139.07405387695312,82.51416626708985Q139.00597387695314,82.48596626708985,138.93545387695312,82.46457626708984Q138.86493387695313,82.44318626708984,138.79266387695313,82.42880626708984Q138.72038387695312,82.41443626708984,138.64705387695312,82.40720626708985Q138.57371387695312,82.39998626708984,138.50002387695312,82.39998626708984Q138.38343387695312,82.39998626708984,138.26823387695313,82.41800626708985Q138.15304387695312,82.43601626708984,138.04201387695312,82.47161626708984Q137.93099387695312,82.50721626708985,137.82680387695314,82.55954626708984Q137.72261387695312,82.61187626708984,137.62775387695314,82.67967626708985Q137.53290387695313,82.74747626708984,137.44966387695314,82.82912626708985Q137.36642387695312,82.91076826708985,137.29680387695313,83.00429426708985Q137.22718387695312,83.09781926708985,137.17285387695313,83.20097926708985Q137.11851387695313,83.30414026708985,137.08078387695312,83.41445726708984L137.08024387695312,83.41602526708985Q136.74457387695313,84.39740126708985,136.26992387695313,86.01725626708985Q135.32423387695312,89.24466626708984,134.61007287695313,92.49013626708984Q132.30321387695312,102.97348626708984,133.21318387695314,109.79828626708985Q133.23105387695313,109.93228626708984,133.27259387695312,110.06088626708984Q133.31413387695312,110.18958626708985,133.37801387695313,110.30868626708984Q133.44189387695312,110.42788626708985,133.52605587695314,110.53368626708985Q133.6102138769531,110.63948626708984,133.71193587695313,110.72858626708984Q133.81365787695313,110.81758626708984,133.92966587695312,110.88708626708984Q134.04567387695312,110.95648626708984,134.17222787695312,111.00408626708985Q134.29878187695311,111.05168626708985,134.43180227695314,111.07578626708984Q134.56482287695312,111.09998626708985,134.7000228769531,111.09998626708985Q134.7737128769531,111.09998626708985,134.84704887695312,111.09278626708985Q134.92038387695314,111.08558626708984,134.99265787695313,111.07118626708984Q135.06493287695312,111.05678626708985,135.13544987695312,111.03538626708985Q135.2059668769531,111.01398626708985,135.27404787695312,110.98578626708985Q135.34212887695313,110.95758626708985,135.40711787695312,110.92288626708984Q135.47210387695313,110.88818626708985,135.53337387695314,110.84718626708984Q135.59465387695312,110.80628626708985,135.65161387695312,110.75948626708984Q135.70857387695312,110.71278626708984,135.76068387695312,110.66068626708984Q135.81279387695312,110.60858626708985,135.85953387695312,110.55158626708985Q135.90628387695313,110.49458626708984,135.94722387695313,110.43338626708984Q135.98816387695314,110.37208626708984,136.02290387695314,110.30708626708984Q136.05764387695314,110.24208626708985,136.08584387695313,110.17398626708984Q136.11404387695313,110.10598626708985,136.13543387695313,110.03538626708985Q136.15682387695313,109.96488626708984,136.17120387695311,109.89258626708984Q136.18557387695313,109.82038626708984,136.19280387695312,109.74698626708985Q136.20002387695314,109.67368626708985,136.20002387695314,109.59998626708985Q136.20002387695314,109.50048626708984,136.1868638769531,109.40178626708985L136.18648387695313,109.39888626708984L136.1861538769531,109.39648626708984Q135.3477508769531,103.09728626708984,137.53997387695313,93.13485626708984Q138.23206387695313,89.98968626708984,139.14887387695313,86.86084626708984Q139.60509387695313,85.30387626708985,139.91927387695313,84.38552026708984Z" fill-rule="evenodd" fill="#423232" fill-opacity="1"/></g><g><path d="M171.76415700195312,82.37582085302735Q172.76890700195312,84.56594185302734,174.11705700195313,88.44504185302735Q176.79860700195312,96.16076185302734,178.56826700195313,104.69216185302734L178.56888700195313,104.69516185302734L178.5689270019531,104.69536185302735Q178.60018700195312,104.84606185302735,178.60018700195312,104.99996185302734Q178.60018700195312,105.07366185302735,178.59296700195313,105.14696185302734Q178.58574700195314,105.22036185302734,178.57136700195312,105.29256185302734Q178.55698700195313,105.36486185302735,178.53559700195314,105.43536185302735Q178.51420700195314,105.50586185302734,178.4860070019531,105.57396185302734Q178.4578070019531,105.64206185302734,178.42306700195311,105.70706185302734Q178.38833700195312,105.77206185302734,178.3473970019531,105.83336185302734Q178.30645700195313,105.89456185302734,178.25970700195313,105.95156185302734Q178.21295700195313,106.00856185302735,178.16084700195313,106.06066185302734Q178.10874700195313,106.11276185302734,178.05177700195313,106.15946185302735Q177.99481700195312,106.20626185302734,177.93354700195312,106.24716185302734Q177.87227700195314,106.28806185302734,177.8072870019531,106.32286185302735Q177.74229700195312,106.35756185302735,177.67421700195314,106.38576185302735Q177.60613700195313,106.41396185302735,177.5356170019531,106.43536185302735Q177.46509700195313,106.45676185302734,177.39282700195312,106.47116185302734Q177.32054700195312,106.48556185302735,177.24721700195312,106.49276185302735Q177.17387700195312,106.49996185302734,177.10018700195312,106.49996185302734Q176.97178700195312,106.49996185302734,176.84525700195312,106.47816185302734Q176.71871700195314,106.45636185302735,176.59773700195313,106.41326185302734Q176.47674700195313,106.37026185302734,176.36483700195313,106.30736185302734Q176.25292700195314,106.24436185302734,176.15333700195313,106.16336185302734Q176.05374700195313,106.08226185302735,175.96938700195312,105.98546185302735Q175.88502700195312,105.88866185302734,175.81833700195313,105.77896185302734Q175.75165700195313,105.66926185302734,175.70458700195312,105.54976185302735Q175.65752700195313,105.43036185302734,175.63144700195312,105.30456185302734Q173.90126700195313,96.96266185302734,171.28331300195313,89.42988185302734Q169.98188800195314,85.68522185302734,169.03683700195313,83.62549785302734Q168.90017700195312,83.32765685302735,168.90017700195312,82.99996185302734Q168.90017700195312,82.92627155302735,168.90739700195311,82.85293585302735Q168.91462700195314,82.77960085302735,168.92899700195312,82.70732685302734Q168.94337700195314,82.63505185302735,168.96476700195313,82.56453485302734Q168.98615700195313,82.49401785302734,169.01435700195313,82.42593685302734Q169.04255700195313,82.35785585302735,169.07729700195313,82.29286685302735Q169.11203700195313,82.22787785302734,169.15297700195313,82.16660685302735Q169.19391700195314,82.10533485302734,169.24065700195314,82.04837185302735Q169.2874070019531,81.99141185302734,169.3395170019531,81.93930185302735Q169.3916270019531,81.88719185302735,169.44858700195311,81.84044185302734Q169.5055500019531,81.79370185302734,169.5668220019531,81.75276185302734Q169.62809300195312,81.71182185302735,169.69308200195312,81.67708185302735Q169.7580710019531,81.64234185302735,169.82615200195312,81.61414185302735Q169.89423300195313,81.58594185302735,169.96475000195312,81.56455185302734Q170.03526700195312,81.54316185302734,170.10754200195314,81.52878185302734Q170.17981600195313,81.51441185302734,170.2531510019531,81.50718185302735Q170.32648670195312,81.49996185302734,170.40017700195312,81.49996185302734Q170.50729200195312,81.49996185302734,170.61332100195312,81.51518185302734Q170.71934900195313,81.53040185302734,170.82213900195313,81.56053185302734Q170.92492900195313,81.59067185302735,171.02239400195313,81.63510185302735Q171.11985900195313,81.67953185302734,171.21002100195312,81.73736185302734Q171.3001840019531,81.79519185302735,171.3812140019531,81.86525185302735Q171.46224700195313,81.93531185302734,171.53249700195312,82.01616685302734Q171.60274700195313,82.09702585302735,171.6607970019531,82.18704785302734Q171.71884700195312,82.27706885302734,171.76351700195312,82.37442585302735L171.76415700195312,82.37582085302735Z" fill-rule="evenodd" fill="#423232" fill-opacity="1"/></g><g><path d="M51.043294332275394,53.65765286645508Q51.00003433227539,53.48144686645508,51.00003433227539,53.30000686645508Q51.00003433227539,53.226316566455075,51.00725433227539,53.15298086645508Q51.01448433227539,53.07964586645508,51.028854332275394,53.00737186645508Q51.04323433227539,52.935096866455076,51.06462433227539,52.86457986645508Q51.08601433227539,52.79406286645508,51.11421433227539,52.72598186645508Q51.14241433227539,52.65790086645508,51.17715433227539,52.592911866455076Q51.21189433227539,52.52792286645508,51.25283433227539,52.46665186645508Q51.29377433227539,52.40537986645508,51.34051433227539,52.348416866455075Q51.38726433227539,52.29145686645508,51.43937433227539,52.23934686645508Q51.49148433227539,52.18723686645508,51.54844433227539,52.14048686645508Q51.60540733227539,52.09374686645508,51.66667933227539,52.05280686645508Q51.72795033227539,52.01186686645508,51.79293933227539,51.97712686645508Q51.85792833227539,51.94238686645508,51.92600933227539,51.914186866455076Q51.99409033227539,51.88598686645508,52.06460733227539,51.86459686645508Q52.13512433227539,51.84320686645508,52.20739933227539,51.82882686645508Q52.279673332275394,51.814456866455075,52.353008332275394,51.807226866455075Q52.42634403227539,51.80000686645508,52.50003433227539,51.80000686645508Q52.62500833227539,51.80000686645508,52.74826033227539,51.82068686645508Q52.87151133227539,51.841366866455076,52.98964033227539,51.88215686645508Q53.10777033227539,51.92295686645508,53.21752033227539,51.98273686645508Q53.32727133227539,52.04250686645508,53.42561633227539,52.11962686645508Q53.52396433227539,52.19674686645508,53.60818433227539,52.28906686645508Q53.69241433227539,52.38139686645508,53.76020433227539,52.48638886645508Q53.82799433227539,52.59138186645508,53.87746433227539,52.70614486645508Q53.92694433227539,52.820906866455076,53.95675433227539,52.94227586645508L53.95677433227539,52.94236786645508Q55.92735433227539,60.95851686645508,63.85173433227539,70.26390686645507Q79.81333433227539,89.00710686645508,109.7904343322754,95.02840686645507Q109.7929343322754,95.02890686645509,109.79533433227539,95.02940686645508Q109.92183433227538,95.05480686645508,110.0421343322754,95.10140686645508Q110.16243433227538,95.14800686645508,110.27293433227538,95.21450686645508Q110.38353433227539,95.28090686645507,110.48113433227539,95.36530686645509Q110.57863433227539,95.44970686645507,110.6604343322754,95.54950686645508Q110.74213433227538,95.64930686645508,110.80563433227539,95.76150686645508Q110.8691343322754,95.87380686645508,110.91253433227538,95.99530686645508Q110.95593433227539,96.11680686645508,110.9780343322754,96.24390686645508Q111.00003433227539,96.37100686645508,111.00003433227539,96.50000686645508Q111.00003433227539,96.57370686645507,110.9928343322754,96.64700686645509Q110.98553433227539,96.72040686645508,110.9712343322754,96.79260686645509Q110.95683433227539,96.86490686645507,110.93543433227539,96.93540686645508Q110.91403433227539,97.00600686645508,110.8858343322754,97.07400686645508Q110.85763433227538,97.14210686645508,110.8229343322754,97.20710686645508Q110.78813433227539,97.27210686645508,110.74723433227538,97.33340686645508Q110.70633433227539,97.39460686645508,110.6595343322754,97.45160686645508Q110.61283433227538,97.50860686645507,110.56073433227539,97.56070686645508Q110.50863433227539,97.61280686645509,110.45163433227539,97.65950686645508Q110.39463433227539,97.70630686645508,110.33343433227539,97.74720686645509Q110.27213433227539,97.78810686645508,110.20713433227539,97.82290686645507Q110.14213433227539,97.85760686645509,110.07403433227539,97.88580686645508Q110.00593433227539,97.91400686645508,109.93543433227539,97.93540686645508Q109.8649343322754,97.95680686645508,109.79263433227538,97.97120686645508Q109.72043433227539,97.98560686645507,109.64703433227538,97.99280686645508Q109.5737343322754,98.00000686645508,109.50003433227539,98.00000686645508Q109.35093433227539,98.00000686645508,109.2047343322754,97.97070686645507L109.20423433227539,97.97060686645509Q109.20253433227539,97.97020686645507,109.20093433227538,97.96990686645508Q78.20373433227539,91.74400686645508,61.56773433227539,72.20890686645508Q53.18459633227539,62.36489686645508,51.04411433227539,53.660961866455075Q51.04371433227539,53.65936086645508,51.04332433227539,53.65775986645508L51.043294332275394,53.65765286645508L51.043294332275394,53.65765286645508Z" fill-rule="evenodd" fill="#423232" fill-opacity="1"/></g><g><path d="M138.50001674072266,101.60001825927735C138.50001674072266,99.40001825927735,136.80001674072267,97.60000325927734,134.70001674072265,97.40000295927734C132.60001674072265,97.10000325927734,130.60001674072265,98.60001825927735,130.20001674072265,100.70001825927734C130.20001674072265,100.70001825927734,128.70001214072266,108.19997825927734,128.70001214072266,108.19997825927734C128.40001174072265,109.79997825927734,129.60001174072266,111.29997825927734,131.20001674072265,111.49997825927734C131.20001674072265,111.49997825927734,135.60000674072265,111.89997825927735,135.60000674072265,111.89997825927735C137.20000674072264,112.09997825927735,138.60000674072265,110.79997825927734,138.60000674072265,109.29997825927734C138.60000674072265,109.29997825927734,138.50001674072266,101.60001825927735,138.50001674072266,101.60001825927735Z" fill="#FFFFFF" fill-opacity="1"/></g><g><path d="M179.80012809570312,96.49992607177734C178.90012809570314,94.59993107177735,176.60013809570313,93.69992507177734,174.60013809570313,94.39992507177735C172.50014309570312,95.19992607177734,171.40013009570313,97.29992607177735,171.90013009570313,99.39992607177734C171.90013009570313,99.39992607177734,173.70011809570312,106.79993607177734,173.70011809570312,106.79993607177734C174.00011809570313,108.39993607177735,175.70012809570312,109.39993607177735,177.30012809570312,108.79993607177734C177.30012809570312,108.79993607177734,181.50013809570314,107.29993607177734,181.50013809570314,107.29993607177734C183.10014809570313,106.69993607177734,183.80014809570312,104.89993607177735,183.10014809570313,103.39992607177734C183.10014809570313,103.39992607177734,179.80012809570312,96.49992607177734,179.80012809570312,96.49992607177734Z" fill="#FFFFFF" fill-opacity="1"/></g><g><path d="M43.85834550415039,127.17078185302735Q43.69998550415039,126.85406385302734,43.69998550415039,126.49996185302734Q43.69998550415039,126.42627155302735,43.70720550415039,126.35293585302735Q43.71443550415039,126.27960085302735,43.728805504150394,126.20732685302734Q43.74318550415039,126.13505185302735,43.76457550415039,126.06453485302734Q43.78596550415039,125.99401785302734,43.81416550415039,125.92593685302734Q43.84236550415039,125.85785585302735,43.87710550415039,125.79286685302735Q43.91184550415039,125.72787785302734,43.95278550415039,125.66660685302735Q43.99372550415039,125.60533485302734,44.04046550415039,125.54837185302735Q44.08721550415039,125.49141185302734,44.13932550415039,125.43930185302735Q44.19143550415039,125.38719185302735,44.24839550415039,125.34044185302734Q44.30535850415039,125.29370185302734,44.36663050415039,125.25276185302734Q44.42790150415039,125.21182185302735,44.49289050415039,125.17708185302735Q44.55787950415039,125.14234185302735,44.62596050415039,125.11414185302735Q44.69404150415039,125.08594185302735,44.76455850415039,125.06455185302734Q44.83507550415039,125.04316185302734,44.90735050415039,125.02878185302734Q44.979624504150394,125.01441185302734,45.052959504150394,125.00718185302735Q45.12629520415039,124.99996185302734,45.19998550415039,124.99996185302734Q45.30394650415039,124.99996185302734,45.40691350415039,125.01430185302735Q45.50988150415039,125.02864185302734,45.60988550415039,125.05705185302735Q45.70988950415039,125.08546185302734,45.80501850415039,125.12739185302735Q45.90014750415039,125.16933185302734,45.98858250415039,125.22398185302734Q46.07701650415039,125.27864185302734,46.15706650415039,125.34497185302735Q46.23711550415039,125.41131185302734,46.30724550415039,125.48805185302734Q46.37738550415039,125.56478985302735,46.43625550415039,125.65047285302734Q46.49513550415039,125.73615585302734,46.54162550415039,125.82914185302734Q48.54184550415039,129.82957185302735,49.76828550415039,142.75826185302734Q50.37212550415039,149.12386185302734,50.59876550415039,154.73946185302734Q50.59998550415039,154.76966185302734,50.59998550415039,154.79996185302736Q50.59998550415039,154.87366185302733,50.59276550415039,154.94696185302735Q50.58554550415039,155.02026185302734,50.57116550415039,155.09256185302735Q50.55678550415039,155.16486185302733,50.535395504150394,155.23536185302734Q50.51400550415039,155.30586185302735,50.48580550415039,155.37396185302734Q50.45760550415039,155.44206185302735,50.422865504150394,155.50706185302735Q50.38813550415039,155.57206185302735,50.34718550415039,155.63326185302734Q50.30624550415039,155.69456185302735,50.25950550415039,155.75156185302734Q50.212755504150394,155.80846185302735,50.16064550415039,155.86056185302735Q50.10853550415039,155.91276185302735,50.05157550415039,155.95946185302734Q49.99461550415039,156.00626185302735,49.93334550415039,156.04716185302735Q49.87207550415039,156.08806185302734,49.80708550415039,156.12286185302736Q49.74209550415039,156.15756185302735,49.67401550415039,156.18576185302734Q49.60593550415039,156.21396185302734,49.53541550415039,156.23536185302734Q49.46489550415039,156.25676185302734,49.39262550415039,156.27116185302734Q49.32034550415039,156.28546185302736,49.24701550415039,156.29276185302734Q49.17367550415039,156.29996185302736,49.09998550415039,156.29996185302736Q49.02819550415039,156.29996185302736,48.95672550415039,156.29306185302735Q48.88525550415039,156.28626185302736,48.81477550415039,156.27256185302736Q48.74428550415039,156.25896185302736,48.67542550415039,156.23856185302733Q48.60656550415039,156.21826185302734,48.53996550415039,156.19146185302733Q48.473365504150394,156.16466185302735,48.40962550415039,156.13166185302734Q48.34588550415039,156.09856185302735,48.28559550415039,156.05966185302734Q48.22530550415039,156.02066185302735,48.16900550415039,155.97606185302735Q48.11271550415039,155.93156185302735,48.06093550415039,155.88176185302734Q48.00915550415039,155.83206185302734,47.96236550415039,155.77756185302735Q47.91556550415039,155.72316185302734,47.87418550415039,155.66446185302735Q47.83280550415039,155.60576185302733,47.79722550415039,155.54346185302734Q47.76163550415039,155.48106185302734,47.73216550415039,155.41566185302736Q47.70269550415039,155.35016185302734,47.67961550415039,155.28216185302733Q47.65653550415039,155.21416185302735,47.64005550415039,155.14436185302733Q47.62356550415039,155.07446185302734,47.61383550415039,155.00326185302734Q47.60410550415039,154.93216185302734,47.60120550415039,154.86046185302735L47.60112550415039,154.85836185302733Q47.377735504150394,149.32496185302733,46.78168550415039,143.04166185302734Q45.60813150415039,130.67035185302734,43.85834550415039,127.17078185302735Z" fill-rule="evenodd" fill="#544D4D" fill-opacity="1"/></g><g><path d="M227.07687403320313,104.73825285302735Q227.43109403320312,106.72485185302735,227.92481403320312,109.97715185302735Q228.91052403320313,116.47016185302735,229.61675403320314,122.84376185302735Q231.88439403320314,143.30856185302736,230.4893540332031,154.97736185302733L230.48927403320312,154.97806185302733Q230.48118403320314,155.04566185302735,230.46700403320312,155.11226185302735Q230.45282403320311,155.17886185302734,230.4326740332031,155.24386185302734Q230.41251403320314,155.30896185302734,230.38654403320314,155.37196185302736Q230.3605840332031,155.43486185302734,230.32901403320312,155.49516185302735Q230.29745403320314,155.55556185302734,230.26055403320314,155.61276185302734Q230.22364403320313,155.67006185302733,230.18171403320312,155.72366185302735Q230.13977403320314,155.77736185302734,230.09314403320312,155.82696185302734Q230.04652403320313,155.87656185302734,229.99558403320313,155.92176185302733Q229.94465403320314,155.96696185302733,229.88983403320313,156.00746185302734Q229.83502403320313,156.04786185302734,229.77676403320314,156.08306185302735Q229.71851403320312,156.11836185302735,229.65730403320313,156.14816185302735Q229.59609403320312,156.17806185302734,229.5324240332031,156.20226185302735Q229.46876403320312,156.22636185302736,229.40317403320313,156.24466185302734Q229.3375740332031,156.26306185302735,229.27059403320314,156.27526185302736Q229.20361403320314,156.28756185302734,229.13579403320313,156.29376185302735Q229.06797403320311,156.29996185302736,228.99987403320313,156.29996185302736Q228.92618403320313,156.29996185302736,228.85285403320313,156.29276185302734Q228.77951403320313,156.28546185302736,228.70724403320312,156.27116185302734Q228.63496403320312,156.25676185302734,228.56445403320313,156.23536185302734Q228.49393403320312,156.21396185302734,228.42585403320314,156.18576185302734Q228.35777403320313,156.15756185302735,228.29278403320313,156.12286185302736Q228.2277940332031,156.08806185302734,228.16652403320313,156.04716185302735Q228.10525403320312,156.00616185302735,228.04828403320312,155.95946185302734Q227.9913240332031,155.91276185302735,227.93921403320311,155.86056185302735Q227.88711403320312,155.80846185302735,227.84036403320312,155.75156185302734Q227.7936140332031,155.69456185302735,227.75267403320314,155.63326185302734Q227.71173403320313,155.57206185302735,227.67699403320313,155.50706185302735Q227.64225403320313,155.44206185302735,227.61405403320313,155.37396185302734Q227.58585403320313,155.30586185302735,227.56446403320314,155.23536185302734Q227.5430740332031,155.16486185302733,227.52870403320313,155.09256185302735Q227.51432403320314,155.02026185302734,227.50710403320312,154.94696185302735Q227.49987403320313,154.87366185302733,227.49987403320313,154.79996185302736Q227.49987403320313,154.71056185302734,227.5104840332031,154.62186185302733Q228.86465403320312,143.29606185302734,226.63500403320313,123.17416185302734Q225.9354330332031,116.86066185302734,224.95880103320312,110.42742185302734Q224.47068403320313,107.21208185302734,224.12318403320313,105.26329685302734Q224.09988403320312,105.13265985302735,224.09988403320312,104.99996185302734Q224.09988403320312,104.92627155302735,224.10710403320311,104.85293585302735Q224.11433403320314,104.77960085302735,224.12870403320312,104.70732685302734Q224.14308403320314,104.63505185302735,224.16447403320313,104.56453485302734Q224.18586403320313,104.49401785302734,224.21406403320313,104.42593685302734Q224.24226403320313,104.35785585302735,224.27700403320313,104.29286685302735Q224.31174403320313,104.22787785302734,224.35268403320313,104.16660685302735Q224.39362403320314,104.10533485302734,224.44036403320314,104.04837185302735Q224.4871140332031,103.99141185302734,224.5392240332031,103.93930185302735Q224.5913340332031,103.88719185302735,224.64829403320311,103.84044185302734Q224.7052570332031,103.79370185302734,224.7665290332031,103.75276185302734Q224.82780003320312,103.71182185302735,224.89278903320312,103.67708185302735Q224.9577780332031,103.64234185302735,225.02585903320312,103.61414185302735Q225.09394003320313,103.58594185302735,225.16445703320312,103.56455185302734Q225.23497403320312,103.54316185302734,225.30724903320314,103.52878185302734Q225.37952303320313,103.51441185302734,225.4528580332031,103.50718185302735Q225.52619373320312,103.49996185302734,225.59988403320312,103.49996185302734Q225.73093203320312,103.49996185302734,225.85999503320312,103.52268185302735Q225.98905803320312,103.54541185302735,226.11222503320312,103.59017185302734Q226.2353920332031,103.63493185302734,226.34893103320312,103.70037185302735Q226.46247003320312,103.76581185302734,226.56294203320311,103.84995185302735Q226.66341403320314,103.93409185302734,226.74777403320311,104.03437685302734Q226.83213403320312,104.13466285302735,226.89782403320314,104.24805785302735Q226.96351403320313,104.36145285302734,227.00854403320312,104.48452085302735Q227.05357403320312,104.60758885302734,227.07658403320312,104.73660185302734L227.07659403320312,104.73664785302735L227.07687403320313,104.73825285302735Z" fill-rule="evenodd" fill="#544D4D" fill-opacity="1"/></g><g><path d="M209.72058168945313,136.6836053955078Q209.8528816894531,136.66393539550782,209.9795816894531,136.6211553955078Q210.10638168945312,136.5783753955078,210.2235816894531,136.51384539550781Q210.34078168945314,136.44931539550782,210.44468168945312,136.36505539550782Q210.54858168945313,136.28080539550783,210.63598168945313,136.17949239550782Q210.72328168945313,136.07817839550782,210.79138168945312,135.96300339550783Q210.85948168945313,135.8478283955078,210.90608168945312,135.72242639550782Q210.95268168945313,135.5970253955078,210.97628168945312,135.4653553955078Q210.99998168945314,135.3336863955078,210.99998168945314,135.1999053955078Q210.99998168945314,135.1262150955078,210.99278168945312,135.0528793955078Q210.9855816894531,134.97954439550782,210.97118168945312,134.90727039550782Q210.95678168945312,134.8349953955078,210.93538168945312,134.7644783955078Q210.91398168945312,134.6939613955078,210.88578168945313,134.6258803955078Q210.85758168945313,134.5577993955078,210.82288168945314,134.4928103955078Q210.78818168945313,134.4278213955078,210.74718168945313,134.3665503955078Q210.70628168945314,134.3052783955078,210.65948168945312,134.2483153955078Q210.61278168945313,134.1913553955078,210.56068168945313,134.1392453955078Q210.50858168945314,134.0871353955078,210.45158168945312,134.04038539550783Q210.39458168945313,133.99364539550783,210.33338168945312,133.95270539550782Q210.27208168945313,133.9117653955078,210.20708168945313,133.87702539550781Q210.14208168945314,133.84228539550782,210.07398168945312,133.81408539550782Q210.00598168945314,133.78588539550782,209.93538168945312,133.76449539550782Q209.8648816894531,133.74310539550783,209.79258168945313,133.7287253955078Q209.72038168945312,133.71435539550782,209.64698168945313,133.7071253955078Q209.5736816894531,133.6999053955078,209.49998168945314,133.6999053955078Q209.38908168945312,133.6999053955078,209.27948168945312,133.7162053955078L209.2783816894531,133.7163653955078Q208.3716816894531,133.8511253955078,206.80008168945312,134.04563539550782Q203.64428168945312,134.4362333955078,200.34168168945314,134.73082539550782Q189.79277168945313,135.6717973955078,181.76913878945314,135.30147639550782Q181.73457868945312,135.2998809955078,181.69998168945312,135.2998809955078Q181.62629138945312,135.2998809955078,181.5529556894531,135.30710439550782Q181.47962068945313,135.3143263955078,181.40734668945314,135.3287033955078Q181.33507168945312,135.3430793955078,181.26455468945312,135.36447039550782Q181.19403768945313,135.38586139550782,181.12595668945312,135.41406139550782Q181.0578756894531,135.4422613955078,180.99288668945312,135.47699939550782Q180.92789768945312,135.51173639550782,180.8666266894531,135.5526763955078Q180.8053546894531,135.5936163955078,180.74839168945311,135.6403653955078Q180.6914316894531,135.68711439550782,180.6393216894531,135.7392203955078Q180.5872116894531,135.7913273955078,180.54046168945314,135.8482913955078Q180.49372168945314,135.90525439550782,180.45278168945313,135.9665253955078Q180.41184168945313,136.0277963955078,180.37710168945313,136.0927853955078Q180.34236168945313,136.1577743955078,180.31416168945313,136.2258553955078Q180.28596168945313,136.29393539550782,180.26457168945313,136.3644553955078Q180.24318168945314,136.43497539550782,180.22880168945312,136.50724539550782Q180.21443168945314,136.57951539550783,180.20720168945311,136.6528553955078Q180.19998168945312,136.7261953955078,180.19998168945312,136.7998853955078Q180.19998168945312,136.87140539550782,180.20679168945313,136.94260539550783Q180.21359168945312,137.0138053955078,180.22714168945313,137.0840253955078Q180.24069168945312,137.15425539550782,180.26086168945312,137.2228753955078Q180.28103168945313,137.2914953955078,180.30763168945313,137.35788539550782Q180.33424168945314,137.4242753955078,180.36704168945312,137.4878353955078Q180.39985168945313,137.55139539550783,180.43855168945313,137.61154539550782Q180.4772516894531,137.6716853955078,180.52150168945312,137.72788539550783Q180.56575168945312,137.7840753955078,180.6151416894531,137.8358053955078Q180.66454168945313,137.88752539550782,180.71863368945313,137.9343253955078Q180.77272668945312,137.9811153955078,180.83102568945313,138.02254539550782Q180.88932568945313,138.0639853955078,180.95130268945312,138.0996853955078Q181.01327968945313,138.13537539550782,181.07837268945312,138.16501539550782Q181.14346568945314,138.19465539550782,181.21108368945312,138.2179653955078Q181.27870068945313,138.24128539550782,181.34822968945312,138.25805539550782Q181.41775868945314,138.2748253955078,181.48856768945313,138.28490539550782Q181.55937768945313,138.2949853955078,181.6308245894531,138.2982853955078Q189.85719168945312,138.6779653955078,200.60828168945312,137.7189653955078Q203.96188168945312,137.4198153955078,207.16858168945313,137.02291539550782Q208.7774816894531,136.8237953955078,209.72058168945313,136.6836053955078Z" fill-rule="evenodd" fill="#544D4D" fill-opacity="1"/></g></g></svg>