<svg xmlns="http://www.w3.org/2000/svg" xmlns:xlink="http://www.w3.org/1999/xlink" fill="none" version="1.1" width="290" height="190" viewBox="0 0 290 190"><g><g><g><path d="M196.2,69.97819687988282C186.4,77.2781768798828,174.1,80.37817687988282,161.2,81.07817687988282C124.2,83.07817687988282,82.5,64.67817687988281,82.5,64.67817687988281C91.3,81.47817687988281,140.6,113.7781768798828,169.5,101.87817687988282C198.4,90.07817687988282,196.2,69.97819687988282,196.2,69.97819687988282Z" fill="#FFF573" fill-opacity="1"/></g><g><path d="M136.79999694824218,109.87821911621094C145.39999694824218,108.77821911621093,154.29999694824218,81.27821911621093,154.29999694824218,81.27821911621093C117.69999694824219,80.07821911621093,81.19999694824217,63.57817181621094,81.19999694824219,63.678171799210936C84.89999694824219,74.57821911621093,128.1999969482422,110.97821911621094,136.79999694824218,109.87821911621094Z" fill="#FFFFFF" fill-opacity="1"/></g><g><path d="M174.20000305175782,103.57818908691407C168.10000305175782,102.47818908691406,154.3000030517578,81.27818908691407,154.3000030517578,81.27818908691407C183.4000030517578,80.87818908691406,195.60000305175782,70.37818908691406,195.5000030517578,70.37818908691406C192.70000305175782,85.17818908691406,180.3000030517578,104.67818908691406,174.20000305175782,103.57818908691407Z" fill="#FFFFFF" fill-opacity="1"/></g><g><path d="M221.6,87.9782C221.6,87.87819999999999,221.5,87.7782,221.5,87.6782C219.5,82.7782,217.4,78.37819999999999,215.3,74.4782C206.3,57.678200000000004,197.5,50.3782,196.2,50.4782C196.3,50.7782,196.3,51.0782,196.4,51.2782C205.5,81.4782,158.6,150.478,56.9,39.378186C56.1,38.778186,54.6,38.87818,53.5,39.77818C51.8,41.07818,43.4,46.87818,34.6,57.7782C34,58.578199999999995,33.3,59.4782,32.7,60.2782C27.4,67.2782,22.1,76.1782,18.3,87.1782C9.5,112.3782,8.2,147.578,8,159.178C8,159.178,235.8,159.178,235.8,159.178C235.4,150.678,234.6,142.77800000000002,233.8,135.2782C231.1,115.8782,226.6,100.2782,221.6,87.9782Z" fill="#BF76FF" fill-opacity="1"/></g><g><path d="M55.69357305175781,40.29101298339844Q55.50370305175781,40.08359398339844,55.40185305175781,39.821487983398434Q55.30000305175781,39.55938198339844,55.30000305175781,39.27818298339844Q55.30000305175781,39.204492683398435,55.30722305175781,39.13115698339844Q55.31445305175781,39.05782198339844,55.328823051757816,38.98554798339844Q55.34320305175781,38.913272983398436,55.364593051757815,38.84275598339844Q55.38598305175781,38.77223898339844,55.41418305175781,38.70415798339844Q55.442383051757815,38.63607698339844,55.477123051757815,38.571087983398435Q55.511863051757814,38.50609898339844,55.55280305175781,38.44482798339844Q55.59374305175781,38.38355598339844,55.64048305175781,38.326592983398434Q55.687233051757815,38.26963298339844,55.739343051757814,38.21752298339844Q55.79145305175781,38.16541298339844,55.84841305175781,38.11866298339844Q55.90537605175781,38.07192298339844,55.966648051757815,38.03098298339844Q56.02791905175781,37.99004298339844,56.09290805175781,37.95530298339844Q56.157897051757814,37.92056298339844,56.225978051757814,37.892362983398435Q56.29405905175781,37.86416298339844,56.364576051757815,37.84277298339844Q56.43509305175781,37.821382983398436,56.507368051757815,37.80700298339844Q56.579642051757816,37.792632983398434,56.652977051757816,37.785402983398434Q56.72631275175781,37.77818298339844,56.80000305175781,37.77818298339844Q56.95680305175781,37.77818298339844,57.110214051757815,37.810612983398435Q57.26362505175781,37.84303298339844,57.407013051757815,37.90649298339844Q57.55040105175781,37.96994298339844,57.677566051757815,38.06168298339844Q57.804733051757815,38.15341298339844,57.91017305175781,38.26946298339844Q93.09910305175782,76.70988298339844,123.41700305175782,90.89618298339843Q148.5233030517578,102.64378298339844,167.6610030517578,96.78148298339843Q183.48000305175782,91.93548298339843,191.3150030517578,76.98658298339843Q198.40300305175782,63.46318298339844,194.88400305175782,51.67928298339844Q194.78400305175782,51.41818298339844,194.71800305175782,51.04768298339844Q194.68900305175782,50.888082983398434,194.67700305175782,50.852582983398435Q194.60000305175782,50.62158298339844,194.60000305175782,50.37818298339844Q194.60000305175782,50.30448298339844,194.6070030517578,50.23118298339844Q194.6140030517578,50.157782983398434,194.62900305175782,50.08558298339844Q194.6430030517578,50.01328298339844,194.66500305175782,49.94278298339844Q194.6860030517578,49.872282983398435,194.7140030517578,49.804182983398434Q194.74200305175782,49.73608298339844,194.77700305175782,49.671082983398435Q194.8120030517578,49.60608298339844,194.8530030517578,49.544782983398434Q194.8940030517578,49.483582983398435,194.9400030517578,49.42658298339844Q194.98700305175782,49.369682983398434,195.03900305175782,49.317482983398435Q195.0910030517578,49.26542298339844,195.14800305175783,49.218672983398434Q195.2050030517578,49.17192298339844,195.26700305175783,49.13098298339844Q195.3280030517578,49.09004298339843,195.3930030517578,49.055302983398434Q195.4580030517578,49.02057298339844,195.5260030517578,48.99237298339844Q195.59400305175782,48.96417298339844,195.66500305175782,48.94278298339844Q195.73500305175781,48.92138298339844,195.80700305175782,48.90701298339844Q195.88000305175783,48.892632983398435,195.9530030517578,48.88541298339844Q196.0260030517578,48.878192983398435,196.10000305175782,48.878192983398435Q196.2170030517578,48.878192983398435,196.3330030517578,48.89643298339844Q196.4490030517578,48.914682983398436,196.5610030517578,48.950722983398435Q196.67200305175783,48.98677298339844,196.77700305175782,49.03974298339844Q196.8820030517578,49.092712983398435,196.9770030517578,49.16131298339844Q197.0720030517578,49.22992298339844,197.1560030517578,49.31248298339844Q197.2390030517578,49.39508298339844,197.30800305175782,49.489582983398435Q197.37800305175782,49.58408298339844,197.43200305175782,49.68828298339844Q197.48600305175782,49.792482983398436,197.52300305175783,49.903782983398436Q197.6030030517578,50.143482983398435,197.67000305175782,50.51488298339844L197.64200305175783,50.50728298339844Q197.6990030517578,50.622282983398435,197.73600305175782,50.745382983398436Q201.6490030517578,63.731482983398436,193.9720030517578,78.37918298339844Q185.5560030517578,94.43708298339844,168.53900305175782,99.64988298339844Q148.2978030517578,105.85048298339844,122.14550305175781,93.61338298339844Q91.28670305175781,79.17398298339845,55.69357305175781,40.291022983398435L55.69357305175781,40.29101298339844Z" fill-rule="evenodd" fill="#A164DD" fill-opacity="1"/></g><g><path d="M32.7,60.278177047851564C27.4,67.27817404785156,22.1,76.17812404785155,18.3,87.17812404785155C9.5,112.37812404785157,8.2,147.57812404785156,8,159.17812404785155C8,159.17812404785155,77.9,159.17812404785155,77.9,159.17812404785155C78.1,146.47812404785157,78.9,137.97822404785157,76.5,119.37822404785156C67.7,53.57817404785156,33.3,59.47817704785156,32.7,60.278177047851564Z" fill="#A164DD" fill-opacity="1"/></g><g><path d="M236.5999969482422,159.07818298339845C236.29999694824218,150.57818298339845,235.4999969482422,142.67818298339844,234.4999969482422,135.27818298339844C231.6999969482422,120.07818298339843,227.6999969482422,102.27818298339844,222.29999694824218,87.97818298339844C222.29999694824218,87.87818298339843,222.1999969482422,87.77818298339844,222.1999969482422,87.67818298339844C220.29999694824218,82.77818298339844,218.1999969482422,78.27818298339844,215.9999969482422,74.47819298339844C214.4999969482422,71.87819298339843,212.89999694824218,69.67818298339844,211.1999969482422,67.77818298339844C211.1999969482422,67.77818298339844,220.89999694824218,88.77818298339844,217.1999969482422,159.17818298339844C217.1999969482422,159.17818298339844,217.1999969482422,159.07818298339845,217.1999969482422,159.07818298339845C217.1999969482422,159.07818298339845,236.5999969482422,159.07818298339845,236.5999969482422,159.07818298339845Z" fill="#A164DD" fill-opacity="1"/></g><g><g><g><path d="M51.200002213134766,43.67816833007812C50.80000221313477,43.27817233007813,50.600002213134765,42.97817533007812,50.600002213134765,42.97817533007812C50.100002213134765,42.378175530078124,49.100002213134765,42.27817833007813,48.50000221313476,42.77817833007813C47.90000171313476,43.27817833007813,47.80000121313476,44.27818833007812,48.30000121313476,44.878188330078125C48.30000121313476,44.878188330078125,48.600002213134765,45.17816833007812,49.00000221313476,45.67816833007812C49.30000221313477,45.97816833007813,49.700002213134766,46.17816833007812,50.100002213134765,46.17816833007812C50.40000221313477,46.17816833007812,50.80000221313477,46.078178330078124,51.00000221313476,45.77817833007813C51.700002213134766,45.27817833007813,51.700002213134766,44.278168330078124,51.200002213134766,43.67816833007812Z" fill="#A164DD" fill-opacity="1"/></g></g><g><g><path d="M153.89998415527344,108.17811933593751C153.19998415527346,108.07821933593749,152.59998415527343,108.0781193359375,151.89998415527344,108.0781193359375C150.99998415527344,107.97811933593749,150.29998415527342,108.6782193359375,150.29998415527342,109.4782193359375C150.19998415527346,110.3782193359375,150.89998415527344,111.0781193359375,151.69998415527346,111.0781193359375C152.39998415527344,111.17811933593751,153.09998415527343,111.17811933593751,153.79998415527342,111.17811933593751C154.59998415527343,111.17811933593751,155.29998415527342,110.47811933593749,155.39998415527344,109.67811933593751C155.39998415527344,108.8782193359375,154.69998415527346,108.17811933593751,153.89998415527344,108.17811933593751ZM168.09988415527346,109.5781193359375C168.89988415527344,109.3781193359375,169.39988415527344,108.57821933593749,169.19988415527342,107.77821933593751C168.99988415527343,106.9782193359375,168.19988415527342,106.47811933593749,167.39988415527344,106.67811933593751C166.79988415527345,106.7781193359375,166.09988415527346,106.97811933593749,165.49988415527343,107.0781193359375C164.69988415527342,107.2781193359375,164.09988415527346,108.07821933593749,164.29988415527345,108.8782193359375C164.49988415527343,109.57821933593749,165.09988415527346,110.0781193359375,165.79988415527345,110.0781193359375C165.79988415527345,110.0781193359375,165.89988415527344,110.07821933593749,166.09988415527346,109.9782193359375C166.79988415527345,109.8782193359375,167.39988415527344,109.7781193359375,168.09988415527346,109.5781193359375ZM140.19998415527346,106.5781193359375C139.59998415527343,106.47811933593749,138.89998415527344,106.3782193359375,138.29998415527342,106.17811933593751C137.49998415527344,105.97811933593749,136.69998415527346,106.4782193359375,136.49998415527344,107.27821933593751C136.29998415527342,108.07821933593749,136.79998415527342,108.8781193359375,137.59998415527343,109.0781193359375C138.29998415527342,109.2781193359375,138.89998415527344,109.47811933593749,139.59998415527343,109.5781193359375C139.69998415527346,109.5781193359375,139.79998415527342,109.5781193359375,139.89998415527344,109.5781193359375C140.49998415527344,109.5781193359375,141.19998415527346,109.07821933593749,141.39998415527344,108.3782193359375C141.49998415527344,107.57821933593749,140.99998415527344,106.7781193359375,140.19998415527346,106.5781193359375ZM181.49988415527343,104.4782193359375C182.19988415527342,104.07821933593749,182.49988415527343,103.1782193359375,182.09988415527346,102.4782193359375C181.69988415527342,101.77821933593751,180.79988415527345,101.4782193359375,180.09988415527346,101.8782193359375C179.59988415527346,102.1782193359375,178.99988415527343,102.4782193359375,178.39988415527344,102.77821933593751C177.59988415527346,103.1782193359375,177.29988415527345,104.07821933593749,177.69988415527342,104.77821933593751C177.89988415527344,105.27821933593751,178.49988415527343,105.5781193359375,178.99988415527343,105.5781193359375C179.19988415527342,105.5781193359375,179.49988415527343,105.57821933593749,179.69988415527342,105.4782193359375C180.29988415527345,105.1782193359375,180.89988415527344,104.77821933593751,181.49988415527343,104.4782193359375ZM126.99998415527344,102.5781193359375C126.39998415527344,102.3781193359375,125.79998415527344,102.07821933593749,125.19998415527344,101.8782193359375C124.39998415527344,101.57821933593749,123.49998415527344,101.8782193359375,123.19998415527344,102.67811933593751C122.89998415527344,103.47811933593749,123.19998415527344,104.3782193359375,123.99998415527344,104.67811933593751C124.59998415527343,104.8782193359375,125.29998415527344,105.1782193359375,125.89998415527344,105.3782193359375C125.99998415527344,105.4782193359375,126.19998415527344,105.4782193359375,126.39998415527344,105.4782193359375C126.99998415527344,105.4782193359375,127.59998415527343,105.1782193359375,127.89998415527344,104.4782193359375C128.19998415527346,103.77821933593751,127.79998415527344,102.8781193359375,126.99998415527344,102.5781193359375ZM114.19998415527344,96.77821933593751C113.69998415527344,96.4782193359375,113.09998415527343,96.1782193359375,112.49998415527344,95.8782193359375C111.79998415527344,95.4782193359375,110.89998415527344,95.77821933593751,110.49998415527344,96.4782193359375C110.09998415527343,97.1782193359375,110.39998415527344,98.07821933593749,111.09998415527343,98.4782193359375C111.69998415527344,98.8782193359375,112.29998415527344,99.1782193359375,112.89998415527344,99.4782193359375C113.09998415527343,99.57821933593749,113.39998415527344,99.67811933593751,113.59998415527343,99.67811933593751C114.19998415527344,99.67811933593751,114.69998415527344,99.3782193359375,114.79998415527344,98.77821933593751C115.19998415527344,98.07821933593749,114.89998415527344,97.1782193359375,114.19998415527344,96.77821933593751ZM192.79988415527345,95.5781193359375C193.39988415527344,94.97811933593749,193.29988415527345,94.07821933593749,192.69988415527342,93.4782193359375C192.09988415527343,92.8782193359375,191.19988415527342,92.97811933593749,190.59988415527343,93.5781193359375C190.19988415527342,94.0781193359375,189.79988415527345,94.4782193359375,189.29988415527345,94.9782193359375C188.69988415527342,95.57821933593749,188.69988415527342,96.47811933593749,189.29988415527345,97.0781193359375C189.59988415527343,97.3781193359375,189.99988415527343,97.4782193359375,190.39988415527344,97.4782193359375C190.69988415527342,97.4782193359375,191.09988415527343,97.2781193359375,191.39988415527344,97.0781193359375C191.89988415527344,96.5781193359375,192.29988415527345,96.0781193359375,192.79988415527345,95.5781193359375ZM102.49998415527344,89.67811933593751C101.89998415527344,89.2781193359375,101.29998415527344,88.97811933593749,100.79998415527344,88.5781193359375C100.09998415527343,88.0781193359375,99.19998415527344,88.27821933593751,98.69998415527344,88.9782193359375C98.19998415527344,89.6782193359375,98.39998415527344,90.5781193359375,99.09998415527343,91.0781193359375C99.69998415527344,91.3781193359375,100.19998415527344,91.7781193359375,100.79998415527344,92.17811933593751C100.99998415527344,92.3782193359375,101.29998415527344,92.4782193359375,101.59998415527343,92.4782193359375C102.09998415527343,92.4782193359375,102.59998415527343,92.1782193359375,102.89998415527344,91.77821933593751C103.39998415527344,91.07821933593749,103.19998415527344,90.17811933593751,102.49998415527344,89.67811933593751ZM200.59988415527343,83.1781193359375C200.89988415527344,82.3782193359375,200.59988415527343,81.47811933593749,199.79988415527345,81.1781193359375C198.99988415527343,80.8782193359375,198.09988415527343,81.1782193359375,197.79988415527345,81.9782193359375C197.59988415527343,82.5782193359375,197.29988415527345,83.1782193359375,196.99988415527343,83.77821933593751C196.59988415527343,84.4782193359375,196.99988415527343,85.3782193359375,197.69988415527342,85.77821933593751C197.99988415527343,85.9782193359375,198.19988415527342,85.9782193359375,198.39988415527344,85.9782193359375C198.99988415527343,85.9782193359375,199.49988415527343,85.67811933593751,199.69988415527342,85.0781193359375C199.99988415527343,84.47811933593749,200.29988415527345,83.7781193359375,200.59988415527343,83.1781193359375ZM91.19998415527344,81.5781193359375C90.59998415527343,81.1781193359375,90.09998415527343,80.77821933593751,89.59998415527343,80.3782193359375C88.99998415527344,79.77821933593751,87.99998415527344,79.97811933593749,87.49998415527344,80.5781193359375C86.89998415527344,81.1781193359375,87.09998415527343,82.1781193359375,87.69998415527344,82.6781193359375C88.19998415527344,83.0781193359375,88.79998415527344,83.4782193359375,89.29998415527344,83.8782193359375C89.59998415527343,84.07821933593749,89.89998415527344,84.17811933593751,90.19998415527344,84.17811933593751C90.69998415527344,84.17811933593751,91.09998415527343,83.97811933593749,91.49998415527344,83.67811933593751C91.99998415527344,83.0781193359375,91.89998415527344,82.0781193359375,91.19998415527344,81.5781193359375ZM80.39998415527344,72.6781193359375C79.89998415527344,72.27821933593751,79.39998415527344,71.77821933593751,78.89998415527344,71.3782193359375C78.29998415527344,70.77821933593751,77.29998415527344,70.8782193359375,76.79998415527344,71.4782193359375C76.19998415527344,72.0782193359375,76.29998415527344,73.0781193359375,76.89998415527344,73.5781193359375C77.39998415527344,73.97811933593749,77.89998415527344,74.4782193359375,78.39998415527344,74.8782193359375C78.69998415527344,75.1782193359375,78.99998415527344,75.27821933593751,79.39998415527344,75.27821933593751C79.79998415527344,75.27821933593751,80.19998415527344,75.0782193359375,80.49998415527344,74.77821933593751C81.09998415527343,74.1782193359375,80.99998415527344,73.1781193359375,80.39998415527344,72.6781193359375ZM204.49988415527343,69.4782193359375C204.59988415527343,68.5782193359375,203.99988415527343,67.8782193359375,203.19988415527342,67.77821933593751C202.29988415527345,67.6782193359375,201.59988415527343,68.2781193359375,201.49988415527343,69.0781193359375C201.39988415527344,69.6781193359375,201.29988415527345,70.27821933593751,201.19988415527342,70.9782193359375C200.99988415527343,71.77821933593751,201.59988415527343,72.5781193359375,202.39988415527344,72.6781193359375C202.39988415527344,72.6781193359375,202.49988415527343,72.6781193359375,202.59988415527343,72.6781193359375C203.29988415527345,72.6781193359375,203.99988415527343,72.0782193359375,204.19988415527342,71.4782193359375C204.29988415527345,70.77821933593751,204.39988415527344,70.1782193359375,204.49988415527343,69.4782193359375ZM70.09998415527343,63.2782193359375C69.69998415527344,62.7782193359375,69.19998415527344,62.3782193359375,68.69998415527344,61.8782193359375C68.09998415527343,61.2781793359375,67.19998415527344,61.2781793359375,66.59998415527343,61.8782193359375C65.99999415527344,62.478219335937496,65.99999415527344,63.3782193359375,66.59998415527343,63.978219335937496C66.99998415527344,64.4782193359375,67.49998415527344,64.8782193359375,67.99998415527344,65.3782193359375C68.19998415527344,65.6782193359375,68.59998415527343,65.77821933593751,68.99998415527344,65.77821933593751C69.39998415527344,65.77821933593751,69.79998415527344,65.5782193359375,70.09998415527343,65.3782193359375C70.69998415527344,64.77821933593751,70.69998415527344,63.8782193359375,70.09998415527343,63.2782193359375ZM60.19999415527344,53.2781793359375C59.69999415527344,52.7781793359375,59.20000415527344,52.2781763359375,58.800004155273434,51.7781763359375C58.300004155273434,51.1781763359375,57.29999415527344,51.1781703359375,56.69999415527344,51.6781703359375C56.09999395527344,52.1781703359375,55.99999515527344,53.1781793359375,56.59999515527344,53.7781793359375C57.09999515527344,54.2781793359375,57.499994155273434,54.7781793359375,57.999994155273434,55.2781793359375C58.29999415527344,55.5781793359375,58.69999415527344,55.7781793359375,59.099994155273436,55.7781793359375C59.49999415527344,55.7781793359375,59.89999415527344,55.5781793359375,60.099994155273436,55.3781793359375C60.69999415527344,54.7781793359375,60.79999415527344,53.8781793359375,60.19999415527344,53.2781793359375Z" fill="#A164DD" fill-opacity="1"/></g></g><g><g><path d="M204.40000343872072,57.97818955566406C204.3000034387207,57.27818955566406,204.2000034387207,56.878189555664065,204.2000034387207,56.878189555664065C204.0000034387207,56.07819455566406,203.2000034387207,55.478181555664065,202.40000343872072,55.678181955664066C201.6000034387207,55.878181555664064,201.0000064387207,56.67818955566406,201.20000653872071,57.47818955566406C201.20000653872071,57.47818955566406,201.2000126387207,57.77818955566406,201.3000124387207,58.378189555664065C201.4000124387207,59.17818955566406,202.1000124387207,59.67817955566406,202.8000134387207,59.67817955566406C202.8000134387207,59.67817955566406,202.9000134387207,59.67817955566406,203.1000134387207,59.67817955566406C203.9000134387207,59.578179555664065,204.5000034387207,58.77818955566406,204.40000343872072,57.97818955566406Z" fill="#A164DD" fill-opacity="1"/></g></g></g></g></g></svg>