<svg xmlns="http://www.w3.org/2000/svg" xmlns:xlink="http://www.w3.org/1999/xlink" fill="none" version="1.1" width="290" height="190" viewBox="0 0 290 190"><g><g><g><path d="M94.10086364746094,83.50000305175782C59.00086364746094,68.30000305175781,56.90086364746094,37.60000305175781,56.90086364746094,37.60000305175781C72.50086364746093,25.70000305175781,91.80086364746094,20.300003051757812,91.80086364746094,20.300003051757812C91.80086364746094,20.300003051757812,119.50086364746093,51.500003051757815,148.90086364746094,54.60000305175781C167.10086364746093,56.500003051757815,165.30086364746094,30.70000305175781,165.30086364746094,30.70000305175781C180.60086364746093,34.20000305175781,196.10086364746093,48.70000305175781,196.10086364746093,48.70000305175781C199.00086364746093,51.900003051757814,201.30086364746094,71.60000305175781,189.70086364746095,81.4000030517578C178.10086364746093,91.20000305175782,129.20086364746095,98.70000305175782,94.10086364746094,83.50000305175782Z" fill="#FFFFFF" fill-opacity="1"/></g><g><path d="M164.401,86.0999969482422C208.701,83.79999694824218,207.201,61.39999694824219,207.201,61.39999694824219C229.801,86.39999694824219,236.201,161.29999694824218,236.201,161.29999694824218C236.201,161.29999694824218,8.000860963,161.29999694824218,8.000860963,161.29999694824218C8.000860963,161.29999694824218,7.700862,115.89999694824219,18.3009,85.39999694824219C28.9009,54.89999694824219,48.3009,44.19999694824219,48.3009,44.19999694824219C48.3009,44.19999694824219,64.3009,57.69999694824219,65.5009,66.0999969482422C66.8009,74.29999694824218,120.101,88.39999694824219,164.401,86.0999969482422Z" fill="#FFFFFF" fill-opacity="1"/></g><g><path d="M207.1008613586426,61.399998022460935C205.00086135864257,53.79999802246094,178.30086135864258,33.300008022460936,176.00086135864257,34.800008022460936C176.30086135864258,35.00000802246094,176.30086135864258,35.200008022460935,176.6008613586426,35.69999802246094C183.40086135864257,48.19999802246094,193.6008613586426,73.59999802246094,178.30086135864258,76.99999802246094C162.40086135864257,80.49999802246094,140.20086135864258,80.99999802246094,117.20086135864258,77.79999802246094C93.90086135864257,74.59999802246094,90.00086135864258,52.399998022460935,78.80086135864258,31.70000802246094C77.70086135864258,29.600008022460937,76.40086135864257,27.600008022460937,75.00086135864258,25.600012822460936C74.20086135864258,25.000013022460937,54.50086135864258,37.19999802246094,53.40086135864258,38.09999802246094C50.70086135864258,40.399998022460935,48.30086135864258,41.999998022460936,48.30086135864258,44.29999802246094C53.70086135864258,53.29999802246094,58.80086135864258,67.59999802246094,56.600861358642575,88.39999802246093C56.40086135864258,90.29999802246094,56.100861358642575,92.39999802246093,55.80086135864258,94.49999802246094C48.20085735864258,140.39959802246094,50.30086135864258,165.89959802246094,50.30086135864258,165.89959802246094C50.30086135864258,165.89959802246094,153.70086135864258,192.09959802246092,216.50086135864257,163.09959802246092C216.50086135864257,163.09959802246092,218.30086135864258,126.39959802246094,214.00086135864257,91.29999802246094C212.70086135864258,80.59999802246094,211.50086135864257,72.39999802246093,207.1008613586426,61.399998022460935Z" fill="#77A0E0" fill-opacity="1"/></g><g><path d="M85.60085754394531,70.70000305175782Q85.60085754394531,70.8571130517578,85.59315754394531,71.0140330517578Q85.58545754394531,71.17096305175781,85.57005754394531,71.32731305175781Q85.55465754394531,71.48367305175782,85.53155754394531,71.63908305175781Q85.50855754394532,71.79449305175781,85.4778575439453,71.94858305175781Q85.44725754394531,72.10267305175782,85.40905754394531,72.25507305175782Q85.3708575439453,72.40748305175781,85.32525754394531,72.55782305175781Q85.27965754394532,72.70817305175781,85.22675754394531,72.85610305175781Q85.17385754394532,73.00402305175781,85.11365754394531,73.14917305175781Q85.05355754394532,73.29433305175782,84.98635754394532,73.4363530517578Q84.9192575439453,73.57838305175781,84.8451575439453,73.71694305175781Q84.77105754394532,73.85550305175781,84.69035754394531,73.99026305175781Q84.60955754394531,74.12502305175781,84.52225754394532,74.25565305175782Q84.43495754394532,74.3863030517578,84.3413575439453,74.51250305175782Q84.24775754394531,74.63870305175782,84.14815754394532,74.76010305175781Q84.04845754394532,74.8816030517578,83.94295754394531,74.99800305175782Q83.8374575439453,75.11440305175782,83.72635754394531,75.22550305175781Q83.61525754394532,75.3366030517578,83.49885754394532,75.44210305175781Q83.3824575439453,75.54760305175782,83.26095754394531,75.64730305175782Q83.13955754394532,75.74690305175781,83.01335754394532,75.8405030517578Q82.8871575439453,75.93410305175782,82.75650754394532,76.02140305175782Q82.62587754394531,76.10870305175781,82.49111754394531,76.18950305175781Q82.35635754394531,76.27020305175782,82.21779754394531,76.3443030517578Q82.07923754394531,76.4184030517578,81.9372075439453,76.48550305175782Q81.79518754394532,76.55270305175782,81.65002754394531,76.61280305175781Q81.50487754394531,76.67300305175782,81.35695754394531,76.72590305175781Q81.20902754394531,76.77880305175782,81.05867754394531,76.82440305175781Q80.90833754394531,76.8700030517578,80.75592754394532,76.90820305175781Q80.60352754394532,76.94640305175781,80.44943754394531,76.9770030517578Q80.29534754394531,77.00770305175782,80.13993754394531,77.03070305175781Q79.98452754394532,77.05380305175781,79.82816754394531,77.06920305175781Q79.67181754394531,77.08460305175781,79.5148875439453,77.09230305175781Q79.3579675439453,77.10000305175781,79.20085754394532,77.10000305175781Q79.04374754394532,77.10000305175781,78.88682754394532,77.09230305175781Q78.72990754394532,77.08460305175781,78.57354754394531,77.06920305175781Q78.4171975439453,77.05380305175781,78.26178754394532,77.03070305175781Q78.10636754394531,77.00770305175782,77.95227754394531,76.9770030517578Q77.79818754394532,76.94640305175781,77.64578754394532,76.90820305175781Q77.49337754394531,76.8700030517578,77.34303754394531,76.82440305175781Q77.19268754394531,76.77880305175782,77.04476754394531,76.72590305175781Q76.89683754394531,76.67300305175782,76.75168754394531,76.61280305175781Q76.60652754394532,76.55270305175782,76.46450754394532,76.48550305175782Q76.32247754394531,76.4184030517578,76.18391754394531,76.3443030517578Q76.04535754394531,76.27020305175782,75.91059754394531,76.18950305175781Q75.77583754394531,76.10870305175781,75.64520754394532,76.02140305175782Q75.51457754394531,75.93410305175782,75.38837754394531,75.8405030517578Q75.26218754394532,75.74690305175781,75.1407375439453,75.64730305175782Q75.01929754394531,75.54760305175782,74.90287754394531,75.44210305175781Q74.7864675439453,75.3366030517578,74.67537754394532,75.22550305175781Q74.56427754394531,75.11440305175782,74.45876754394531,74.99800305175782Q74.35325754394532,74.8816030517578,74.25358754394532,74.76010305175781Q74.15391754394531,74.63870305175782,74.0603275439453,74.51250305175782Q73.96673754394531,74.3863030517578,73.87944754394532,74.25565305175782Q73.79216554394532,74.12502305175781,73.71139454394532,73.99026305175781Q73.63062354394532,73.85550305175781,73.5565615439453,73.71694305175781Q73.48249954394531,73.57838305175781,73.41532654394531,73.4363530517578Q73.34815254394532,73.29433305175782,73.28802854394532,73.14917305175781Q73.22790454394531,73.00402305175781,73.17497554394531,72.85610305175781Q73.12204654394532,72.70817305175781,73.07643954394531,72.55782305175781Q73.03083254394531,72.40748305175781,72.99265754394531,72.25507305175782Q72.95448254394532,72.10267305175782,72.92383154394531,71.94858305175781Q72.89318084394532,71.79449305175781,72.87012784394531,71.63908305175781Q72.84707484394531,71.48367305175782,72.8316753439453,71.32731305175781Q72.81627574394531,71.17096305175781,72.80856662394531,71.0140330517578Q72.80085754394531,70.8571130517578,72.80085754394531,70.70000305175782Q72.80085754394531,70.54289305175782,72.80856662394531,70.38597305175782Q72.81627574394531,70.22905305175782,72.8316753439453,70.07269305175781Q72.84707484394531,69.9163430517578,72.87012784394531,69.76093305175782Q72.89318084394532,69.60551305175781,72.92383154394531,69.45142305175781Q72.95448254394532,69.29733305175782,72.99265754394531,69.14493305175782Q73.03083254394531,68.99252305175781,73.07643954394531,68.84218305175781Q73.12204654394532,68.69183305175781,73.17497554394531,68.54391305175781Q73.22790454394531,68.39598305175781,73.28802854394532,68.25083305175781Q73.34815254394532,68.10567305175782,73.41532654394531,67.96365305175782Q73.48249954394531,67.82162305175781,73.5565615439453,67.68306305175781Q73.63062354394532,67.54450305175781,73.71139454394532,67.40974305175781Q73.79216554394532,67.27498305175781,73.87944754394532,67.14435305175782Q73.96673754394531,67.01372305175781,74.0603275439453,66.88752305175781Q74.15391754394531,66.76133305175782,74.25358754394532,66.6398830517578Q74.35325754394532,66.51844305175781,74.45876754394531,66.40202305175781Q74.56427754394531,66.2856130517578,74.67537754394532,66.17452305175782Q74.7864675439453,66.06342305175781,74.90287754394531,65.95791305175781Q75.01929754394531,65.85240305175782,75.1407375439453,65.75273305175782Q75.26218754394532,65.65306305175781,75.38837754394531,65.5594730517578Q75.51457754394531,65.46588305175781,75.64520754394532,65.37859305175782Q75.77583754394531,65.29131105175782,75.91059754394531,65.21054005175782Q76.04535754394531,65.12976905175782,76.18391754394531,65.0557070517578Q76.32247754394531,64.98164505175781,76.46450754394532,64.91447205175781Q76.60652754394532,64.84729805175782,76.75168754394531,64.78717405175782Q76.89683754394531,64.72705005175781,77.04476754394531,64.67412105175781Q77.19268754394531,64.62119205175782,77.34303754394531,64.57558505175781Q77.49337754394531,64.52997805175781,77.64578754394532,64.49180305175781Q77.79818754394532,64.45362805175782,77.95227754394531,64.42297705175781Q78.10636754394531,64.39232635175782,78.26178754394532,64.36927335175781Q78.4171975439453,64.34622035175781,78.57354754394531,64.3308208517578Q78.72990754394532,64.31542125175781,78.88682754394532,64.30771213175781Q79.04374754394532,64.30000305175781,79.20085754394532,64.30000305175781Q79.3579675439453,64.30000305175781,79.5148875439453,64.30771213175781Q79.67181754394531,64.31542125175781,79.82816754394531,64.3308208517578Q79.98452754394532,64.34622035175781,80.13993754394531,64.36927335175781Q80.29534754394531,64.39232635175782,80.44943754394531,64.42297705175781Q80.60352754394532,64.45362805175782,80.75592754394532,64.49180305175781Q80.90833754394531,64.52997805175781,81.05867754394531,64.57558505175781Q81.20902754394531,64.62119205175782,81.35695754394531,64.67412105175781Q81.50487754394531,64.72705005175781,81.65002754394531,64.78717405175782Q81.79518754394532,64.84729805175782,81.9372075439453,64.91447205175781Q82.07923754394531,64.98164505175781,82.21779754394531,65.0557070517578Q82.35635754394531,65.12976905175782,82.49111754394531,65.21054005175782Q82.62587754394531,65.29131105175782,82.75650754394532,65.37859305175782Q82.8871575439453,65.46588305175781,83.01335754394532,65.5594730517578Q83.13955754394532,65.65306305175781,83.26095754394531,65.75273305175782Q83.3824575439453,65.85240305175782,83.49885754394532,65.95791305175781Q83.61525754394532,66.06342305175781,83.72635754394531,66.17452305175782Q83.8374575439453,66.2856130517578,83.94295754394531,66.40202305175781Q84.04845754394532,66.51844305175781,84.14815754394532,66.6398830517578Q84.24775754394531,66.76133305175782,84.3413575439453,66.88752305175781Q84.43495754394532,67.01372305175781,84.52225754394532,67.14435305175782Q84.60955754394531,67.27498305175781,84.69035754394531,67.40974305175781Q84.77105754394532,67.54450305175781,84.8451575439453,67.68306305175781Q84.9192575439453,67.82162305175781,84.98635754394532,67.96365305175782Q85.05355754394532,68.10567305175782,85.11365754394531,68.25083305175781Q85.17385754394532,68.39598305175781,85.22675754394531,68.54391305175781Q85.27965754394532,68.69183305175781,85.32525754394531,68.84218305175781Q85.3708575439453,68.99252305175781,85.40905754394531,69.14493305175782Q85.44725754394531,69.29733305175782,85.4778575439453,69.45142305175781Q85.50855754394532,69.60551305175781,85.53155754394531,69.76093305175782Q85.55465754394531,69.9163430517578,85.57005754394531,70.07269305175781Q85.58545754394531,70.22905305175782,85.59315754394531,70.38597305175782Q85.60085754394531,70.54289305175782,85.60085754394531,70.70000305175782Z" fill="#647184" fill-opacity="1"/></g><g><path d="M204.30086669921874,74.00000220703124Q204.30086669921874,74.14238220703125,204.29386669921874,74.28459220703125Q204.28686669921876,74.42680220703124,204.27296669921876,74.56850220703124Q204.25896669921875,74.71019220703126,204.23806669921876,74.85103220703125Q204.21716669921875,74.99187220703125,204.18936669921874,75.13152220703125Q204.16166669921876,75.27116220703125,204.12706669921874,75.40928220703125Q204.09246669921876,75.54739220703125,204.05106669921875,75.68364220703126Q204.00976669921874,75.81990220703125,203.96176669921874,75.95395220703125Q203.91386669921874,76.08801220703126,203.85936669921875,76.21956220703125Q203.80486669921873,76.35110220703125,203.74396669921876,76.47981220703124Q203.68316669921876,76.60852220703126,203.61596669921875,76.73409220703125Q203.54886669921876,76.85966220703125,203.47566669921875,76.98179220703125Q203.40246669921873,77.10391220703124,203.32336669921875,77.22230220703125Q203.24426669921874,77.34068220703125,203.15946669921874,77.45504220703125Q203.07466669921874,77.56941220703125,202.98436669921875,77.67947220703125Q202.89396669921874,77.78953220703124,202.79836669921875,77.89503220703125Q202.70276669921876,78.00053220703126,202.60207669921874,78.10121220703125Q202.50139669921876,78.20191220703126,202.39589669921875,78.29751220703125Q202.29039669921875,78.39311220703125,202.18033669921874,78.48341220703125Q202.07027669921874,78.57381220703125,201.95591669921876,78.65861220703125Q201.84154669921875,78.74341220703126,201.72316669921875,78.82251220703125Q201.60477669921875,78.90161220703125,201.48265669921875,78.97481220703125Q201.36052669921875,79.04801220703125,201.23495669921874,79.11511220703125Q201.10938669921876,79.18221220703126,200.98067669921875,79.24311220703125Q200.85196669921874,79.30401220703125,200.72042669921876,79.35851220703125Q200.58887669921876,79.41301220703124,200.45481669921875,79.46091220703124Q200.32075669921875,79.50891220703124,200.18450669921876,79.55021220703125Q200.04825669921874,79.59161220703125,199.91014669921876,79.62621220703124Q199.77202669921874,79.66081220703126,199.63238669921876,79.68851220703125Q199.49273669921874,79.71631220703125,199.35189669921874,79.73721220703125Q199.21105669921874,79.75811220703125,199.06935669921876,79.77201220703125Q198.92766669921875,79.78601220703125,198.78545669921874,79.79301220703125Q198.64324669921876,79.80001220703124,198.50086669921876,79.80001220703124Q198.35847669921876,79.80001220703124,198.21626669921875,79.79301220703125Q198.07405669921874,79.78601220703125,197.93236669921876,79.77201220703125Q197.79066669921875,79.75811220703125,197.64982669921875,79.73721220703125Q197.50898669921875,79.71631220703125,197.36933669921876,79.68851220703125Q197.22969669921875,79.66081220703126,197.09157669921876,79.62621220703124Q196.95346669921875,79.59161220703125,196.81721669921876,79.55021220703125Q196.68095669921874,79.50891220703124,196.54690669921874,79.46091220703124Q196.41284669921876,79.41301220703124,196.28129669921876,79.35851220703125Q196.14975669921876,79.30401220703125,196.02104669921874,79.24311220703125Q195.89233669921876,79.18221220703126,195.76676669921875,79.11511220703125Q195.64119669921874,79.04801220703125,195.51906669921874,78.97481220703125Q195.39694669921874,78.90161220703125,195.27855669921874,78.82251220703125Q195.16016669921876,78.74341220703126,195.04580669921876,78.65861220703125Q194.93144669921875,78.57381220703125,194.82138669921875,78.48341220703125Q194.71131669921874,78.39311220703125,194.60582669921874,78.29751220703125Q194.50032669921876,78.20191220703126,194.39964669921875,78.10121220703125Q194.29896669921874,78.00053220703126,194.20334669921874,77.89503220703125Q194.10772669921874,77.78953220703124,194.01740669921875,77.67947220703125Q193.92707669921876,77.56941220703125,193.84226669921875,77.45505220703124Q193.75744669921875,77.34068220703125,193.67834169921875,77.22230220703125Q193.59923869921874,77.10391220703124,193.52603969921876,76.98179220703125Q193.45284069921874,76.85966220703125,193.38572269921875,76.73409220703125Q193.31860469921875,76.60852220703126,193.25772869921875,76.47981220703124Q193.19685169921874,76.35110220703125,193.14236469921875,76.21956220703125Q193.08787769921875,76.08801220703126,193.03991069921875,75.95395220703125Q192.99194369921875,75.81990220703125,192.95061269921874,75.68364220703126Q192.90928169921875,75.54739220703125,192.87468569921876,75.40928220703125Q192.84008969921874,75.27116220703125,192.81231169921875,75.13152220703125Q192.78453459921874,74.99187220703125,192.76364289921875,74.85103220703125Q192.74275109921874,74.71019220703126,192.72879529921875,74.56850220703124Q192.71483939921876,74.42680220703124,192.70785304921876,74.28459220703125Q192.70086669921875,74.14238220703125,192.70086669921875,74.00000220703124Q192.70086669921875,73.85762220703126,192.70785304921876,73.71541220703125Q192.71483939921876,73.57319220703125,192.72879529921875,73.43150220703124Q192.74275109921874,73.28980220703124,192.76364289921875,73.14896220703125Q192.78453459921874,73.00812220703125,192.81231169921875,72.86848220703125Q192.84008969921874,72.72883220703125,192.87468569921876,72.59072220703125Q192.90928169921875,72.45260220703125,192.95061269921874,72.31635220703124Q192.99194369921875,72.18010220703125,193.03991069921875,72.04604220703125Q193.08787769921875,71.91198220703124,193.14236469921875,71.78044220703126Q193.19685169921874,71.64889220703125,193.25772869921875,71.52018220703125Q193.31860469921875,71.39147220703126,193.38572269921875,71.26590220703125Q193.45284069921874,71.14033220703125,193.52603969921876,71.01821220703125Q193.59923869921874,70.89608220703126,193.67834169921875,70.77770220703125Q193.75744669921875,70.65931220703125,193.84226669921875,70.54495220703124Q193.92707669921876,70.43059220703125,194.01740669921875,70.32052220703125Q194.10772669921874,70.21046220703126,194.20334669921874,70.10496220703125Q194.29896669921874,69.99947220703125,194.39964669921875,69.89879220703125Q194.50032669921876,69.79811220703125,194.60582669921874,69.70249220703126Q194.71131669921874,69.60687220703124,194.82138669921875,69.51655220703125Q194.93144669921875,69.42622220703124,195.04580669921876,69.34140220703125Q195.16016669921876,69.25659220703125,195.27855669921874,69.17748620703125Q195.39694669921874,69.09838320703125,195.51906669921874,69.02518420703124Q195.64119669921874,68.95198520703126,195.76676669921875,68.88486720703125Q195.89233669921876,68.81774920703126,196.02104669921874,68.75687320703125Q196.14975669921876,68.69599720703125,196.28129669921876,68.64151020703125Q196.41284669921876,68.58702320703125,196.54690669921874,68.53905620703125Q196.68095669921874,68.49108920703125,196.81721669921876,68.44975720703125Q196.95346669921875,68.40842620703125,197.09157669921876,68.37383020703125Q197.22969669921875,68.33923420703125,197.36933669921876,68.31145720703125Q197.50898669921875,68.28368000703125,197.64982669921875,68.26278830703124Q197.79066669921875,68.24189660703125,197.93236669921876,68.22794070703125Q198.07405669921874,68.21398490703125,198.21626669921875,68.20699854703125Q198.35847669921876,68.20001220703125,198.50086669921876,68.20001220703125Q198.64324669921876,68.20001220703125,198.78545669921874,68.20699854703125Q198.92766669921875,68.21398490703125,199.06935669921876,68.22794070703125Q199.21105669921874,68.24189660703125,199.35189669921874,68.26278830703124Q199.49273669921874,68.28368000703125,199.63238669921876,68.31145720703125Q199.77202669921874,68.33923420703125,199.91014669921876,68.37383020703125Q200.04825669921874,68.40842620703125,200.18450669921876,68.44975820703125Q200.32075669921875,68.49108920703125,200.45481669921875,68.53905620703125Q200.58887669921876,68.58702320703125,200.72042669921876,68.64151020703125Q200.85196669921874,68.69599720703125,200.98067669921875,68.75687320703125Q201.10938669921876,68.81774920703126,201.23495669921874,68.88486720703125Q201.36052669921875,68.95198520703126,201.48265669921875,69.02518420703124Q201.60477669921875,69.09838320703125,201.72316669921875,69.17748620703125Q201.84154669921875,69.25659220703125,201.95591669921876,69.34140220703125Q202.07027669921874,69.42622220703124,202.18033669921874,69.51655220703125Q202.29039669921875,69.60687220703124,202.39589669921875,69.70249220703126Q202.50139669921876,69.79811220703125,202.60207669921874,69.89879220703125Q202.70276669921876,69.99947220703125,202.79836669921875,70.10496220703125Q202.89396669921874,70.21046220703126,202.98436669921875,70.32052220703125Q203.07466669921874,70.43059220703125,203.15946669921874,70.54495220703124Q203.24426669921874,70.65931220703125,203.32336669921875,70.77770220703125Q203.40246669921873,70.89608220703126,203.47566669921875,71.01821220703125Q203.54886669921876,71.14033220703125,203.61596669921875,71.26590220703125Q203.68316669921876,71.39147220703126,203.74396669921876,71.52018220703125Q203.80486669921873,71.64889220703125,203.85936669921875,71.78044220703126Q203.91386669921874,71.91198220703124,203.96176669921874,72.04604220703125Q204.00976669921874,72.18010220703125,204.05106669921875,72.31635220703124Q204.09246669921876,72.45260220703125,204.12706669921874,72.59071220703125Q204.16166669921876,72.72883220703125,204.18936669921874,72.86848220703125Q204.21716669921875,73.00812220703125,204.23806669921876,73.14896220703125Q204.25896669921875,73.28980220703124,204.27296669921876,73.43150220703124Q204.28686669921876,73.57320220703124,204.29386669921874,73.71541220703125Q204.30086669921874,73.85762220703126,204.30086669921874,74.00000220703124Z" fill="#647184" fill-opacity="1"/></g><g><path d="M105.05446043945312,94.85060387695313Q97.31007043945313,102.94597387695313,98.50952043945313,114.06097387695313L98.50955043945312,114.06127387695312Q99.46071443945313,122.85947387695313,100.80473843945313,141.5078738769531Q101.36896043945312,150.17317387695311,116.33995043945313,155.06187387695314Q129.35995043945312,159.3133738769531,147.6175504394531,159.26247387695312Q166.15205043945312,159.21087387695314,179.3014504394531,154.70167387695312Q194.61775043945312,149.44957387695314,195.98565043945314,139.91297387695312Q198.0917504394531,125.91357387695312,196.69765043945313,104.80117387695313Q196.04725043945314,96.10279387695313,189.25685043945313,90.60887387695313Q182.44905043945312,85.10099387695313,173.79265043945313,86.31452387695313Q153.99035043945312,89.17898387695313,123.98955043945313,87.40262487695313Q112.79165043945312,86.76274287695313,105.05446043945312,94.85060387695313ZM101.49220043945313,113.73907387695313L101.49217043945312,113.73877387695313Q100.44256643945313,104.01137387695313,107.22226043945312,96.92440387695312Q114.00255043945313,89.83683387695312,123.81215043945312,90.39738387695313Q154.11775043945312,92.19178387695312,174.2090504394531,89.28547387695312Q181.57515043945313,88.25284587695313,187.36985043945313,92.94113387695313Q193.15235043945313,97.61947387695312,193.70415043945314,104.99887387695313Q195.07695043945313,125.78787387695313,193.01605043945312,139.48707387695313Q191.90865043945314,147.20707387695313,178.32835043945312,151.86397387695314Q165.64785043945312,156.21217387695313,147.60915043945312,156.26247387695312Q129.83325043945314,156.31207387695312,117.27115043945312,152.21007387695312Q104.23066043945312,147.95177387695313,103.79698043945312,141.29217387695311Q102.44911043945312,122.59057387695313,101.49220043945313,113.73907387695313Z" fill-rule="evenodd" fill="#647184" fill-opacity="1"/></g><g><path d="M91.30085906982421,14C87.50085906982422,16.2,83.20085906982422,23.2,83.20085906982422,23.2C88.70085906982422,54.8,123.50085906982422,73.3,129.10085906982422,75C134.70085906982422,76.7,153.00085906982423,54.5,153.00085906982423,54.5C153.00085906982423,54.5,138.9008590698242,54.1,120.80085906982421,43.6C101.80085906982421,32.5,91.30085906982421,14,91.30085906982421,14Z" fill="#FFFFFF" fill-opacity="1"/></g><g><path d="M84.67885906982421,22.94404294824219Q88.10699906982421,42.63729694824219,107.09865906982422,59.181496948242184Q113.67535906982422,64.91059694824219,121.10835906982422,69.34459694824218Q126.77995906982422,72.72789694824219,129.53655906982422,73.56469694824219Q132.16835906982422,74.36359694824219,142.07195906982423,64.34529694824218Q147.2931590698242,59.063596948242186,151.83895906982423,53.55129694824218Q151.84115906982422,53.54859694824219,151.84345906982423,53.54589694824219L151.8435590698242,53.545796948242184Q151.94905906982422,53.41769694824219,152.08005906982422,53.315896948242184Q152.21105906982422,53.21399694824218,152.36105906982422,53.14329694824219Q152.5111590698242,53.07249694824219,152.6730590698242,53.03629694824219Q152.8349590698242,52.999996948242185,153.00085906982423,52.999996948242185Q153.0745590698242,52.999996948242185,153.14785906982422,53.00719694824219Q153.2212590698242,53.01449694824218,153.29345906982422,53.02879694824219Q153.3657590698242,53.04319694824218,153.43625906982422,53.06459694824218Q153.50675906982423,53.08599694824218,153.5748590698242,53.11419694824219Q153.6429590698242,53.14239694824219,153.7079590698242,53.17709694824219Q153.77295906982422,53.211896948242185,153.83415906982424,53.25279694824219Q153.8954590698242,53.293696948242186,153.95245906982422,53.34049694824219Q154.0093590698242,53.38719694824219,154.06145906982422,53.43929694824219Q154.11365906982422,53.49149694824219,154.1603590698242,53.548396948242186Q154.20705906982423,53.60539694824219,154.24805906982422,53.66659694824219Q154.28895906982422,53.72789694824219,154.32375906982423,53.79289694824219Q154.35845906982422,53.857896948242185,154.38665906982422,53.92599694824219Q154.41485906982422,53.99409694824219,154.43625906982422,54.06459694824218Q154.45765906982422,54.135096948242186,154.4720590698242,54.20739694824219Q154.48635906982423,54.27959694824219,154.49365906982422,54.352996948242186Q154.50085906982423,54.42629694824218,154.50085906982423,54.499996948242185Q154.50085906982423,54.761096948242184,154.4126590698242,55.006896948242186Q154.32435906982423,55.252596948242186,154.15825906982423,55.45409694824219L154.15815906982422,55.45429694824219Q149.5242590698242,61.07389694824219,144.20545906982423,66.45429694824219Q133.02915906982423,77.7600969482422,128.66515906982423,76.43529694824218Q125.55785906982422,75.49209694824219,119.57145906982421,71.92099694824219Q111.90755906982422,67.34929694824218,105.12805906982422,61.443496948242185Q85.33332906982422,44.19969694824219,81.72307906982422,23.457205948242187Q81.70085906982422,23.329560948242186,81.70085906982422,23.199996948242188Q81.70085906982422,23.12630664824219,81.70807906982422,23.052970948242187Q81.71530906982422,22.979635948242187,81.72967906982421,22.907361948242187Q81.74405906982422,22.83508694824219,81.76544906982421,22.764569948242187Q81.78683906982423,22.694052948242188,81.81503906982422,22.62597194824219Q81.84323906982422,22.55789094824219,81.87797906982422,22.49290194824219Q81.91271906982422,22.427912948242188,81.95365906982421,22.366641948242187Q81.99459906982422,22.305369948242188,82.04133906982422,22.248406948242188Q82.08808906982422,22.191446948242188,82.14019906982422,22.13933694824219Q82.19230906982422,22.087226948242186,82.24926906982422,22.040476948242187Q82.30623206982422,21.993736948242187,82.36750406982422,21.952796948242188Q82.42877506982421,21.91185694824219,82.49376406982422,21.877116948242186Q82.55875306982422,21.842376948242187,82.62683406982421,21.81417694824219Q82.69491506982422,21.785976948242187,82.76543206982421,21.764586948242187Q82.83594906982422,21.743196948242186,82.90822406982421,21.728816948242187Q82.98049806982422,21.714446948242188,83.05383306982422,21.707216948242188Q83.12716876982422,21.699996948242188,83.20085906982422,21.699996948242188Q83.33230106982423,21.699996948242188,83.46173906982422,21.72285694824219Q83.59117806982422,21.745716948242187,83.71466706982422,21.790736948242188Q83.83815706982422,21.83576694824219,83.95193506982422,21.901576948242187Q84.06571206982422,21.967396948242186,84.16630906982422,22.051996948242188Q84.26690906982422,22.136596948242186,84.35125906982422,22.237402948242188Q84.43560906982422,22.338208948242187,84.50113906982422,22.452149948242187Q84.56666906982421,22.566089948242187,84.61138906982421,22.68969194824219Q84.65609906982422,22.813292948242186,84.67863906982421,22.942787948242188L84.67873906982422,22.943363948242187L84.67885906982421,22.94404294824219Z" fill-rule="evenodd" fill="#D0D6DD" fill-opacity="1"/></g><g><path d="M164.5008544921875,27.5C178.6008544921875,42.3,176.6008544921875,71.5,171.9008544921875,71.3C167.2008544921875,71.1,153.0008544921875,54.5,153.0008544921875,54.5C168.4008544921875,49.5,161.3008644921875,28.200003,161.4008644921875,28.300003C162.3008644921875,28.100003,164.5008544921875,27.5,164.5008544921875,27.5Z" fill="#FFFFFF" fill-opacity="1"/></g><g><path d="M163.4148544921875,28.53467Q163.3160544921875,28.431019,163.2387544921875,28.310567Q163.1613544921875,28.190114,163.1081544921875,28.057203Q163.0550544921875,27.924293,163.0279544921875,27.783723Q163.0008544921875,27.643154,163.0008544921875,27.5Q163.0008544921875,27.4263097,163.0080544921875,27.352974Q163.0152544921875,27.279639,163.0296544921875,27.207365Q163.0440544921875,27.13509,163.0654544921875,27.064573Q163.0868544921875,26.994056,163.1150544921875,26.925975Q163.1432544921875,26.857894,163.1779544921875,26.792905Q163.2127544921875,26.727916,163.2536544921875,26.666645Q163.2945544921875,26.605373,163.3413544921875,26.54841Q163.3880544921875,26.49145,163.4401544921875,26.43934Q163.4922544921875,26.38723,163.54925449218752,26.34048Q163.6062544921875,26.29374,163.6674544921875,26.2528Q163.7287544921875,26.21186,163.7937544921875,26.17712Q163.8587544921875,26.14238,163.9268544921875,26.11418Q163.9949544921875,26.08598,164.0654544921875,26.06459Q164.1359544921875,26.0432,164.2082544921875,26.02882Q164.2804544921875,26.01445,164.3538544921875,26.00722Q164.4271544921875,26,164.5008544921875,26Q164.6531544921875,26,164.8023544921875,26.03062Q164.9516544921875,26.06124,165.0916544921875,26.12123Q165.2316544921875,26.18122,165.3567544921875,26.26814Q165.4818544921875,26.35505,165.5868544921875,26.46533Q175.4046544921875,36.77047,176.7467544921875,54.9143Q177.2607544921875,61.8623,176.1771544921875,66.93520000000001Q174.89685449218752,72.9288,171.8370544921875,72.7986Q166.4858544921875,72.5709,151.8646844921875,55.4794Q151.8629144921875,55.4773,151.8611344921875,55.4752Q151.6867544921875,55.2714,151.5938044921875,55.019800000000004Q151.5008544921875,54.7682,151.5008544921875,54.5Q151.5008544921875,54.4263,151.5080744921875,54.353Q151.5153044921875,54.2796,151.5296744921875,54.2074Q151.5440544921875,54.1351,151.5654444921875,54.0646Q151.5868344921875,53.9941,151.6150344921875,53.926Q151.6432344921875,53.8579,151.6779744921875,53.7929Q151.7127144921875,53.727900000000005,151.7536544921875,53.6666Q151.7945944921875,53.6054,151.8413344921875,53.5484Q151.8880844921875,53.4914,151.9401944921875,53.4393Q151.9923044921875,53.3872,152.0492644921875,53.3405Q152.1062274921875,53.2937,152.1674994921875,53.2528Q152.2287704921875,53.2119,152.2937594921875,53.177099999999996Q152.3587484921875,53.142399999999995,152.4268294921875,53.1142Q152.4949104921875,53.086,152.5654274921875,53.0646Q152.6359444921875,53.0432,152.7082194921875,53.028800000000004Q152.7804934921875,53.014399999999995,152.8538284921875,53.0072Q152.9271641921875,53,153.0008544921875,53Q153.1633284921875,53,153.3220334921875,53.034800000000004Q153.4807384921875,53.0696,153.6283144921875,53.1375Q153.7758904921875,53.2055,153.9054914921875,53.3035Q154.0350944921875,53.4015,154.1407044921875,53.5249Q167.9165544921875,69.6291,171.9646544921875,69.8013Q172.4924544921875,69.8238,173.2433544921875,66.30850000000001Q174.2372544921875,61.6555,173.7549544921875,55.1357Q172.4919544921875,38.0625,163.4148544921875,28.53467Z" fill-rule="evenodd" fill="#D0D6DD" fill-opacity="1"/></g><g><path d="M152.71401774902344,57.10543610351562Q152.90076774902343,56.89867810351563,153.00081774902344,56.63864810351563Q153.10086774902345,56.378619103515625,153.10086774902345,56.100006103515625Q153.10086774902345,56.02631580351562,153.09363774902343,55.95298010351563Q153.08641774902344,55.87964510351563,153.07203774902345,55.80737110351563Q153.05766774902344,55.73509610351562,153.03627774902344,55.66457910351563Q153.01488774902344,55.594062103515625,152.98668774902345,55.525981103515626Q152.95848774902345,55.45790010351563,152.92374774902345,55.39291110351562Q152.88900774902345,55.327922103515625,152.84806774902344,55.26665110351563Q152.80712774902344,55.205379103515625,152.76037774902343,55.14841610351562Q152.71362774902343,55.091456103515625,152.66152774902343,55.039346103515626Q152.60941774902344,54.98723610351563,152.55245774902343,54.940486103515624Q152.49548774902343,54.893746103515625,152.43421774902345,54.852806103515626Q152.37294774902344,54.81186610351563,152.30795774902344,54.77712610351563Q152.24296774902345,54.74238610351563,152.17488774902344,54.71418610351562Q152.10680774902343,54.685986103515624,152.03628774902344,54.66459610351563Q151.96577774902343,54.643206103515624,151.89349774902342,54.62882610351563Q151.82122774902345,54.61445610351562,151.74788774902345,54.60722610351562Q151.67455774902345,54.600006103515625,151.60086774902345,54.600006103515625Q151.44350774902344,54.600006103515625,151.28956774902343,54.632666103515625Q151.13563774902343,54.66531610351562,150.99182774902343,54.729216103515625Q150.84801774902343,54.793106103515626,150.72060774902343,54.88545610351562Q150.59318774902343,54.97779610351562,150.48771274902344,55.09457610351563Q150.48694974902344,55.095416103515625,150.48618574902343,55.096266103515624Q150.22201574902343,55.389198103515625,149.90530574902343,55.89833710351562Q149.32550174902343,56.830424103515625,148.91178074902345,57.99963610351563Q147.63770774902343,61.60026610351562,148.31729774902342,66.22140610351562Q148.92918074902343,70.32110610351563,149.07653074902345,75.25720610351563Q149.15019574902342,77.72500610351562,149.10153274902345,79.35520610351563Q149.10086474902343,79.37760610351563,149.10086474902343,79.40000610351562Q149.10086474902343,79.47370610351562,149.10808774902344,79.54700610351563Q149.11531074902345,79.62030610351562,149.12968674902345,79.69260610351563Q149.14406274902345,79.76490610351563,149.16545474902344,79.83540610351562Q149.18684574902343,79.90590610351563,149.21504574902343,79.97400610351562Q149.24324574902343,80.04210610351562,149.27798274902344,80.10710610351563Q149.31272074902344,80.17210610351563,149.35366074902345,80.23330610351562Q149.39460074902343,80.29460610351563,149.44134874902343,80.35160610351562Q149.48809784902343,80.40850610351562,149.54020474902345,80.46060610351563Q149.59231158902344,80.51280610351563,149.64927494902344,80.55950610351562Q149.70623874902344,80.60630610351562,149.76750974902345,80.64720610351563Q149.82878074902345,80.68810610351562,149.89376974902345,80.72290610351563Q149.95875874902345,80.75760610351563,150.02683974902342,80.78580610351563Q150.09492074902343,80.81400610351562,150.16543774902343,80.83540610351562Q150.23595474902345,80.85680610351562,150.30822974902344,80.87120610351562Q150.38050374902343,80.88550610351562,150.45383874902345,80.89280610351562Q150.52717474902343,80.90000610351562,150.60086774902345,80.90000610351562Q150.67315774902343,80.90000610351562,150.74510774902345,80.89300610351563Q150.81705774902343,80.88610610351563,150.88800774902344,80.87220610351562Q150.95895774902343,80.85840610351562,151.02825774902342,80.83780610351562Q151.09754774902345,80.81720610351562,151.16453774902342,80.79010610351563Q151.23152774902343,80.76290610351563,151.29559774902344,80.72940610351563Q151.35965774902343,80.69590610351563,151.42020774902343,80.65640610351562Q151.48075774902344,80.61700610351562,151.53723774902343,80.57180610351563Q151.59370774902345,80.52670610351562,151.64557774902343,80.47640610351563Q151.69745774902344,80.42600610351562,151.74424774902343,80.37090610351562Q151.79103774902345,80.31580610351563,151.83230774902344,80.25650610351562Q151.87358774902344,80.19710610351562,151.90895774902344,80.13410610351562Q151.94433774902345,80.07100610351563,151.97348774902343,80.00490610351562Q152.00263774902345,79.93870610351563,152.02529774902345,79.87010610351562Q152.04794774902345,79.80140610351563,152.06389774902343,79.73090610351562Q152.07984774902343,79.66040610351563,152.08894774902345,79.58870610351562Q152.09803774902343,79.51700610351563,152.10019774902344,79.44470610351563Q152.15152774902344,77.72500610351562,152.07519774902343,75.16770610351563Q151.92254774902344,70.05390610351563,151.28442774902345,65.77857610351563Q150.71401774902344,61.89973610351562,151.73994774902343,59.00037610351563Q152.04497774902345,58.13833610351563,152.45267774902345,57.482926103515624Q152.62879774902345,57.19978610351563,152.71401774902344,57.10543610351562Z" fill-rule="evenodd" fill="#D0D6DD" fill-opacity="1"/></g><g><path d="M159.00085364746093,68.8Q159.00085364746093,68.91299,158.98978364746094,69.02544Q158.97870364746095,69.13789,158.95666364746094,69.24871Q158.93461364746094,69.35953,158.90181364746093,69.46766Q158.86901364746095,69.57578,158.82577364746095,69.68018000000001Q158.78253364746092,69.78457,158.72927364746093,69.88422Q158.67601364746093,69.98387,158.61323364746093,70.07782Q158.55046364746093,70.17177,158.47878364746094,70.25911Q158.40709364746093,70.34645,158.32720364746095,70.42635Q158.24730364746094,70.50625,158.15996364746093,70.57793Q158.07261364746094,70.64961,157.97866364746093,70.71238Q157.88472364746093,70.77516,157.78507364746093,70.82842Q157.68542364746094,70.88169,157.58103364746094,70.92493Q157.47663364746094,70.96817,157.36851364746093,71.00097Q157.26038364746094,71.03377,157.14956364746095,71.05581Q157.03874364746093,71.07786,156.92629364746094,71.08893Q156.81385364746095,71.10001,156.70086364746095,71.10001Q156.58786364746095,71.10001,156.47542364746093,71.08893Q156.36297364746093,71.07786,156.25215364746094,71.05581Q156.14133364746093,71.03377,156.03320364746094,71.00097Q155.92508364746095,70.96817,155.82069364746093,70.92493Q155.71629364746093,70.88169,155.61665364746094,70.82842Q155.51700364746094,70.77516,155.42305364746093,70.71238Q155.32910064746093,70.64961,155.24175764746093,70.57793Q155.15441364746093,70.50625,155.07451664746094,70.42635Q154.99461964746095,70.34645,154.92293864746094,70.25911Q154.85125764746093,70.17177,154.78848264746094,70.07782Q154.72570764746095,69.98387,154.67244464746094,69.88422Q154.61918064746095,69.78457,154.57594064746092,69.68018000000001Q154.53270064746093,69.57578,154.49990064746095,69.46766Q154.46710094746095,69.35953,154.44505744746093,69.24871Q154.42301384746094,69.13789,154.41193874746094,69.02544Q154.40086364746094,68.91299,154.40086364746094,68.8Q154.40086364746094,68.68701,154.41193874746094,68.57456Q154.42301384746094,68.46212,154.44505744746093,68.35129Q154.46710094746095,68.24047,154.49990064746095,68.13235Q154.53270064746093,68.02422,154.57594064746092,67.91983Q154.61918064746095,67.81544,154.67244464746094,67.71579Q154.72570764746095,67.61614,154.78848264746094,67.52219Q154.85125764746093,67.42824,154.92293864746094,67.340897Q154.99461964746095,67.253553,155.07451664746094,67.173655Q155.15441364746093,67.093758,155.24175764746093,67.022077Q155.32910064746093,66.950395,155.42305364746093,66.88762Q155.51700364746094,66.824845,155.61665364746094,66.771581Q155.71629364746093,66.718317,155.82069364746093,66.675077Q155.92508364746095,66.631837,156.03320364746094,66.5990374Q156.14133364746093,66.5662375,156.25215364746094,66.5441939Q156.36297364746093,66.5221503,156.47542364746093,66.5110751Q156.58786364746095,66.5,156.70086364746095,66.5Q156.81385364746095,66.5,156.92629364746094,66.5110751Q157.03874364746093,66.5221503,157.14956364746095,66.5441939Q157.26038364746094,66.5662375,157.36851364746093,66.5990374Q157.47663364746094,66.631837,157.58103364746094,66.675077Q157.68542364746094,66.718317,157.78507364746093,66.771581Q157.88472364746093,66.824845,157.97866364746093,66.88762Q158.07261364746094,66.950395,158.15996364746093,67.022077Q158.24730364746094,67.093758,158.32720364746095,67.173655Q158.40709364746093,67.253553,158.47878364746094,67.340897Q158.55046364746093,67.42824,158.61323364746093,67.52219Q158.67601364746093,67.61614,158.72927364746093,67.71579Q158.78253364746092,67.81544,158.82577364746095,67.91983Q158.86901364746095,68.02422,158.90181364746093,68.13235Q158.93461364746094,68.24047,158.95666364746094,68.35129Q158.97870364746095,68.46212,158.98978364746094,68.57456Q159.00085364746093,68.68701,159.00085364746093,68.8Z" fill="#D0D6DD" fill-opacity="1"/></g></g></g></svg>