<svg xmlns="http://www.w3.org/2000/svg" xmlns:xlink="http://www.w3.org/1999/xlink" fill="none" version="1.1" width="144.76953125" height="120.0107421875" viewBox="0 0 144.76953125 120.0107421875"><g><g style="opacity:0.6000000238418579;"><path d="M119.334629140625,56.59990234375C111.434629140625,53.19990234375,110.234619140625,46.39990234375,110.234619140625,46.39990234375C110.734619140625,47.19990234375,123.334619140625,53.89990234375,123.434619140625,53.89990234375C123.434619140625,56.09990234375,121.334619140625,57.39990234375,119.334629140625,56.59990234375Z" fill="#B7AEA9" fill-opacity="1"/></g><g style="opacity:0.6000000238418579;"><path d="M100.834629140625,22.89990234375C97.634629140625,23.59990234375,91.234619140625,29.99991234375,91.234619140625,29.99991234375C91.234619140625,29.99991234375,92.334629140625,24.89990234375,92.334629140625,24.89990234375C92.334629140625,24.89990234375,100.834629140625,22.89990234375,100.834629140625,22.89990234375Z" fill="#B7AEA9" fill-opacity="1"/></g><g style="opacity:0.6000000238418579;"><path d="M89.23466796875,37.5C84.53466796875,50.9,74.43466796875,58.9,63.33466796875,56.8C52.23466796875,54.8,48.53466796875,46.39999,48.53466796875,46.39999C48.53466796875,46.39999,55.13466796875,54.7,70.23466796875,52.2C85.43466796875,49.9,89.23466796875,37.5,89.23466796875,37.5Z" fill="#B7AEA9" fill-opacity="1"/></g><g style="opacity:0.28999999165534973;"><path d="M47.334629140625,45.2C43.234629140625,40.7,40.734619140625,34.5,40.734619140625,27.7C40.834619140625,13.3,52.334619140625,1.5,66.434619140625,1.5C73.134619140625,1.5,79.134619140625,4.1,83.634619140625,8.5C83.634619140625,8.5,47.334629140625,45.2,47.334629140625,45.2Z" fill="#DBC3ED" fill-opacity="1"/></g><g style="opacity:0.23000000417232513;"><path d="M65.634716796875,53.4C58.434716796875,53.4,51.934716796875,50.3,47.334716796875,45.2C47.334716796875,45.2,83.634716796875,8.5,83.634716796875,8.5C88.534716796875,13.3,91.534716796875,20.1,91.334716796875,27.6C90.934716796875,41.9,79.534716796875,53.4,65.634716796875,53.4Z" fill="#C4ADD8" fill-opacity="1"/></g><g style="opacity:0.28999999165534973;"><path d="M108.134623125,43.1C105.934623125,38.8,104.634635125,33.5,104.834634725,27.7C105.234635125,13.3,114.234643125,1.5,124.934653125,1.5C131.134653125,1.5,136.534653125,5.5,139.834653125,11.7C139.834653125,11.7,108.134623125,43.1,108.134623125,43.1Z" fill="#DBC3ED" fill-opacity="1"/></g><g style="opacity:0.23000000417232513;"><path d="M123.134521484375,53.399853515625C116.834521484375,53.399853515625,111.434521484375,49.299853515625,108.134521484375,42.999853515625C108.134521484375,42.999853515625,139.834521484375,11.599853515625,139.834521484375,11.599853515625C142.134521484375,16.099853515625,143.434521484375,21.699853515625,143.234521484375,27.599853515625C142.634521484375,41.899853515625,133.634521484375,53.399853515625,123.134521484375,53.399853515625Z" fill="#C4ADD8" fill-opacity="1"/></g><g><path d="M85.356621484375,8.163879999999999Q77.55802148437499,0,66.334521484375,0Q55.141721484375,0,47.162641484375,8.150680000000001Q39.213861484375,16.270400000000002,39.134551484375,27.6896Q39.134521484375,39.0397,46.844161484375,47.0057Q54.581321484374996,55,65.634521484375,55Q76.689721484375,55,84.646621484375,47.0217Q92.596721484375,39.0502,92.834221484375,27.7315Q93.151121484375,16.3233,85.356621484375,8.163879999999999ZM49.306401484375,10.24932Q56.403121484375,3,66.334521484375,3Q76.275021484375,3,83.187421484375,10.23612Q90.117521484375,17.4908,89.834821484375,27.6685Q89.622621484375,37.784,82.522421484375,44.9033Q75.44472148437501,52,65.634521484375,52Q55.852721484374996,52,48.999881484375,44.9193Q42.134521484375,37.8257,42.134481484375,27.7104Q42.205371484375,17.5031,49.306401484375,10.24932Z" fill-rule="evenodd" fill="#4EC2DD" fill-opacity="1"/></g><g><path d="M139.552456640625,8.34198Q133.735056640625,0,124.934556640625,0Q116.178056640625,0,109.831176640625,8.28801Q103.648986640625,16.361,103.335166640625,27.6583Q103.021426640625,38.8746,108.674276640625,46.8312Q114.477796640625,55,123.134556640625,55Q131.748856640625,55,138.079756640625,46.8852Q144.263456640625,38.9589,144.733256640625,27.7629Q145.204756640625,16.447200000000002,139.552456640625,8.34198ZM112.213006640625,10.11199Q117.659256640625,3,124.934556640625,3Q132.169656640625,3,137.091756640625,10.05802Q142.165256640625,17.3333,141.735856640625,27.6371Q141.30645664062502,37.872,135.714456640625,45.0398Q130.284356640625,52,123.134556640625,52Q116.026456640625,52,111.119896640625,45.0937Q106.048316640625,37.9552,106.334016640625,27.7416Q106.620876640625,17.4144,112.213006640625,10.11199Z" fill-rule="evenodd" fill="#4EC2DD" fill-opacity="1"/></g><g><path d="M26.734619140625,23.39990234375L40.934619140625,23.39990234375Q41.008319140625,23.39990234375,41.081619140625,23.40712234375Q41.155019140625,23.41435234375,41.227219140624996,23.42872234375Q41.299519140625,23.44310234375,41.370019140625004,23.46449234375Q41.440619140625,23.48588234375,41.508619140625,23.51408234375Q41.576719140625,23.54228234375,41.641719140625,23.57702234375Q41.706719140625,23.61176234375,41.768019140625,23.65270234375Q41.829219140625,23.69364234375,41.886219140625,23.74038234375Q41.943219140625004,23.78713234375,41.995319140625,23.83924234375Q42.047419140624996,23.89135234375,42.094119140625,23.94831234375Q42.140919140625,24.00527534375,42.181819140625,24.06654734375Q42.222819140625,24.12781834375,42.257519140625,24.19280734375Q42.292219140625,24.25779634375,42.320419140625,24.32587734375Q42.348619140625004,24.39395834375,42.370019140625004,24.46447534375Q42.391419140625004,24.53499234375,42.405819140625,24.60726734375Q42.420219140625,24.67954134375,42.427419140625,24.75287634375Q42.434619140625,24.82621204375,42.434619140625,24.89990234375Q42.434619140625,24.97359264375,42.427419140625,25.04692834375Q42.420219140625,25.12026334375,42.405819140625,25.19253734375Q42.391419140625004,25.26481234375,42.370019140625004,25.33532934375Q42.348619140625004,25.40584634375,42.320419140625,25.47392734375Q42.292219140625,25.54200834375,42.257519140625,25.60699734375Q42.222819140625,25.67198634375,42.181819140625,25.73325734375Q42.140919140625,25.79452934375,42.094119140625,25.85149234375Q42.047419140624996,25.90845234375,41.995319140625,25.96056234375Q41.943219140625004,26.01267234375,41.886219140625,26.05942234375Q41.829219140625,26.10616234375,41.768019140625,26.14710234375Q41.706719140625,26.18804234375,41.641719140625,26.22278234375Q41.576719140625,26.25752234375,41.508619140625,26.28572234375Q41.440619140625,26.31392234375,41.370019140625004,26.33531234375Q41.299519140625,26.35670234375,41.227219140624996,26.37108234375Q41.155019140625,26.38545234375,41.081619140625,26.39268234375Q41.008319140625,26.39990234375,40.934619140625,26.39990234375L26.734619140625,26.39990234375Q26.660928840625,26.39990234375,26.587593140625,26.39268234375Q26.514258140625,26.38545234375,26.441984140625,26.37108234375Q26.369709140625,26.35670234375,26.299192140625,26.33531234375Q26.228675140625,26.31392234375,26.160594140625,26.28572234375Q26.092513140625,26.25752234375,26.027524140625,26.22278234375Q25.962535140625,26.18804234375,25.901264140625,26.14710234375Q25.839992140625,26.10616234375,25.783029140625,26.05942234375Q25.726069140625,26.01267234375,25.673959140625,25.96056234375Q25.621849140625,25.90845234375,25.575099140625,25.85149234375Q25.528359140625,25.79452934375,25.487419140625,25.73325734375Q25.446479140625,25.67198634375,25.411739140625,25.60699734375Q25.376999140625,25.54200834375,25.348799140625,25.47392734375Q25.320599140625,25.40584634375,25.299209140625,25.33532934375Q25.277819140625,25.26481234375,25.263439140625,25.19253734375Q25.249069140625,25.12026334375,25.241839140625,25.04692834375Q25.234619140625,24.97359264375,25.234619140625,24.89990234375Q25.234619140625,24.82621204375,25.241839140625,24.75287634375Q25.249069140625,24.67954134375,25.263439140625,24.60726734375Q25.277819140625,24.53499234375,25.299209140625,24.46447534375Q25.320599140625,24.39395834375,25.348799140625,24.32587734375Q25.376999140625,24.25779634375,25.411739140625,24.19280734375Q25.446479140625,24.12781834375,25.487419140625,24.06654734375Q25.528359140625,24.00527534375,25.575099140625,23.94831234375Q25.621849140625,23.89135234375,25.673959140625,23.83924234375Q25.726069140625,23.78713234375,25.783029140625,23.74038234375Q25.839992140625,23.69364234375,25.901264140625,23.65270234375Q25.962535140625,23.61176234375,26.027524140625,23.57702234375Q26.092513140625,23.54228234375,26.160594140625,23.51408234375Q26.228675140625,23.48588234375,26.299192140625,23.46449234375Q26.369709140625,23.44310234375,26.441984140625,23.42872234375Q26.514258140625,23.41435234375,26.587593140625,23.40712234375Q26.660928840625,23.39990234375,26.734619140625,23.39990234375Z" fill-rule="evenodd" fill="#4EC2DD" fill-opacity="1"/></g><g><path d="M101.8673703125,24.43985875Q103.1761703125,24.65259875,103.4084703125,25.36494875Q103.44507031250001,25.47708875,103.4986703125,25.58212875Q103.5523703125,25.68717875,103.6217703125,25.78254875Q103.6911703125,25.87791875,103.7745703125,25.96126875Q103.8580703125,26.04461875,103.9535703125,26.11389875Q104.0489703125,26.18318875,104.1540703125,26.23668875Q104.2592703125,26.290198750000002,104.3713703125,26.32661875Q104.4835703125,26.36303875,104.6000703125,26.38147875Q104.7165703125,26.39990875,104.8345703125,26.39990875Q104.9082703125,26.39990875,104.9815703125,26.39268875Q105.0549703125,26.38546875,105.1271703125,26.37108875Q105.1994703125,26.35671875,105.26997031249999,26.33531875Q105.3404703125,26.31392875,105.4085703125,26.28572875Q105.4766703125,26.25752875,105.5416703125,26.22279875Q105.6066703125,26.18805875,105.6678703125,26.14711875Q105.7291703125,26.10617875,105.7861703125,26.05942875Q105.8430703125,26.01267875,105.8952703125,25.96056875Q105.9473703125,25.90846875,105.9940703125,25.85149875Q106.0408703125,25.79453875,106.0817703125,25.73326875Q106.1226703125,25.67199875,106.1574703125,25.60700875Q106.1921703125,25.54201875,106.2203703125,25.47393875Q106.2485703125,25.40585875,106.26997031249999,25.33533875Q106.29137031249999,25.26481875,106.3057703125,25.19254875Q106.32007031250001,25.12027875,106.3273703125,25.04693875Q106.3345703125,24.97359875,106.3345703125,24.89990875Q106.3345703125,24.66152875,106.2606703125,24.43487875Q104.9171703125,20.31484875,97.3037403125,21.69910875Q95.2342503125,22.07537875,92.8660603125,22.82254575Q91.6825823125,23.19593475,90.8948493125,23.50037675L90.8937393125,23.50080575Q90.7884393125,23.54150975,90.6904173125,23.59751675Q90.5923963125,23.65352375,90.5038613125,23.72357075Q90.4153303125,23.79361875,90.3382703125,23.87612875Q90.2612203125,23.95863875,90.1973903125,24.05174875Q90.1335503125,24.14486875,90.0843703125,24.24648875Q90.0351903125,24.34810875,90.0017803125,24.45593875Q89.9683703125,24.56377875,89.9514703125,24.67539875Q89.9345703125,24.78701875,89.9345703125,24.89990875Q89.9345703125,24.97359875,89.9417903125,25.04693875Q89.9490203125,25.12027875,89.9633903125,25.19254875Q89.9777703125,25.26481875,89.9991603125,25.33533875Q90.0205503125,25.40585875,90.0487503125,25.47393875Q90.0769503125,25.54201875,90.1116903125,25.60700875Q90.1464303125,25.67199875,90.1873703125,25.73326875Q90.2283103125,25.79453875,90.2750503125,25.85149875Q90.3218003125,25.90846875,90.3739103125,25.96056875Q90.4260203125,26.01267875,90.4829803125,26.05942875Q90.5399433125,26.10617875,90.6012153125,26.14711875Q90.6624863125,26.18805875,90.7274753125,26.22279875Q90.7924643125,26.25752875,90.8605453125,26.28572875Q90.9286263125,26.31392875,90.9991433125,26.33531875Q91.0696603125,26.35671875,91.1419353125,26.37108875Q91.2142093125,26.38546875,91.2875443125,26.39268875Q91.3608800125,26.39990875,91.4345703125,26.39990875Q91.7143973125,26.39990875,91.9754033125,26.299018750000002Q92.6749003125,26.02862875,93.7687003125,25.68352875Q95.9567503125,24.99319875,97.8404003125,24.65071875Q100.3535003125,24.19378875,101.8673703125,24.43985875Z" fill-rule="evenodd" fill="#4EC2DD" fill-opacity="1"/></g></g></svg>