<svg xmlns="http://www.w3.org/2000/svg" xmlns:xlink="http://www.w3.org/1999/xlink" fill="none" version="1.1" width="140" height="88" viewBox="0 0 140 88"><g><g><path d="M14.670407179260254,22.366576303710936C14.370407179260255,22.966576303710937,13.870407179260255,23.36658630371094,13.170407179260254,23.466586303710937C13.170407179260254,23.466586303710937,9.370407179260255,24.066596303710938,9.370407179260255,24.066596303710938C7.770403179260254,24.36659630371094,7.070412179260254,26.366596303710935,8.270412179260253,27.566596303710938C8.270412179260253,27.566596303710938,10.970407179260254,30.266586303710938,10.970407179260254,30.266586303710938C11.470407179260254,30.766586303710938,11.670397179260254,31.36658630371094,11.570397179260254,32.066586303710935C11.570397179260254,32.066586303710935,10.970407179260254,35.86658630371094,10.970407179260254,35.86658630371094C10.670407179260254,37.566586303710935,12.470407179260253,38.86658630371094,13.970407179260253,38.066586303710935C13.970407179260253,38.066586303710935,17.370407179260255,36.26658630371094,17.370407179260255,36.26658630371094C17.970357179260255,35.96658630371094,18.670457179260254,35.96658630371094,19.270457179260255,36.26658630371094C19.270457179260255,36.26658630371094,22.670357179260254,38.066586303710935,22.670357179260254,38.066586303710935C24.170357179260254,38.76658630371094,25.970357179260255,37.566586303710935,25.670357179260254,35.86658630371094C25.670357179260254,35.86658630371094,25.070357179260252,32.066586303710935,25.070357179260252,32.066586303710935C24.970357179260255,31.36658630371094,25.170357179260254,30.766586303710938,25.670357179260254,30.266586303710938C25.670357179260254,30.266586303710938,28.370357179260253,27.566596303710938,28.370357179260253,27.566596303710938C29.570357179260252,26.366596303710935,28.970457179260254,24.266596303710937,27.270457179260255,24.066596303710938C27.270457179260255,24.066596303710938,23.470457179260254,23.466586303710937,23.470457179260254,23.466586303710937C22.870457179260256,23.36658630371094,22.270457179260255,22.966576303710937,21.970457179260254,22.366576303710936C21.970457179260254,22.366576303710936,20.270457179260255,18.966586303710937,20.270457179260255,18.966586303710937C19.570457179260252,17.36658630371094,17.370407179260255,17.36658630371094,16.370407179260255,18.966586303710937C16.370407179260255,18.966586303710937,14.670407179260254,22.366576303710936,14.670407179260254,22.366576303710936Z" fill="#FFDE55" fill-opacity="1"/></g><g><path d="M129.27049255371094,23.966537475585938C129.27049255371094,23.966537475585938,125.47047255371093,23.466537475585938,125.47047255371093,23.466537475585938C124.87047255371094,23.366537475585936,124.27047255371093,22.96653147558594,123.97047255371093,22.366531475585937C123.97047255371093,22.366531475585937,123.77049255371094,21.966537475585938,123.77049255371094,21.966537475585938C123.67049255371094,26.966537475585938,123.47049255371094,31.966527475585938,122.77049255371094,36.866537475585936C122.77049255371094,36.866537475585936,124.77049255371094,37.96653747558594,124.77049255371094,37.96653747558594C126.27049255371094,38.766537475585935,128.07049255371095,37.46653747558594,127.77049255371094,35.766537475585935C127.77049255371094,35.766537475585935,127.17048255371094,31.966537475585938,127.17048255371094,31.966537475585938C127.07048255371093,31.366537475585936,127.27049255371094,30.666537475585937,127.77049255371094,30.166537475585937C127.77049255371094,30.166537475585937,130.37050255371093,27.466537475585938,130.37050255371093,27.466537475585938C131.67050255371095,26.266537475585938,130.97049255371093,24.166537475585937,129.27049255371094,23.966537475585938Z" fill="#FFDE55" fill-opacity="1"/></g></g></svg>