<svg xmlns="http://www.w3.org/2000/svg" xmlns:xlink="http://www.w3.org/1999/xlink" fill="none" version="1.1"
  width="145.2001953125" height="88" viewBox="0 0 145.2001953125 88">
  <defs>
    <linearGradient x1="0.4996039867401123" y1="1.7302075624465942" x2="0.4996039867401123" y2="-0.1264491230249405"
      id="master_svg0_0_1235">
      <stop offset="0%" stop-color="#FF7300" stop-opacity="1" />
      <stop offset="10.859999805688858%" stop-color="#FF8D08" stop-opacity="1" />
      <stop offset="28.9900004863739%" stop-color="#FFB214" stop-opacity="1" />
      <stop offset="47.15999960899353%" stop-color="#FFCF1E" stop-opacity="1" />
      <stop offset="65.14000296592712%" stop-color="#FFE325" stop-opacity="1" />
      <stop offset="82.85999894142151%" stop-color="#FFF029" stop-opacity="1" />
      <stop offset="100%" stop-color="#FFF42A" stop-opacity="1" />
    </linearGradient>
    <linearGradient x1="0.4942665696144104" y1="-0.892903208732605" x2="0.4942665696144104" y2="0.7143064141273499"
      id="master_svg1_0_1239">
      <stop offset="0%" stop-color="#FF7300" stop-opacity="1" />
      <stop offset="10.859999805688858%" stop-color="#FF8D08" stop-opacity="1" />
      <stop offset="28.9900004863739%" stop-color="#FFB214" stop-opacity="1" />
      <stop offset="47.15999960899353%" stop-color="#FFCF1E" stop-opacity="1" />
      <stop offset="65.14000296592712%" stop-color="#FFE325" stop-opacity="1" />
      <stop offset="82.85999894142151%" stop-color="#FFF029" stop-opacity="1" />
      <stop offset="100%" stop-color="#FFF42A" stop-opacity="1" />
    </linearGradient>
    <linearGradient x1="0.5010784864425659" y1="1.783200979232788" x2="0.5010784864425659" y2="-0.2083595097064972"
      id="master_svg2_0_1242">
      <stop offset="0%" stop-color="#FF7300" stop-opacity="1" />
      <stop offset="10.859999805688858%" stop-color="#FF8D08" stop-opacity="1" />
      <stop offset="28.9900004863739%" stop-color="#FFB214" stop-opacity="1" />
      <stop offset="47.15999960899353%" stop-color="#FFCF1E" stop-opacity="1" />
      <stop offset="65.14000296592712%" stop-color="#FFE325" stop-opacity="1" />
      <stop offset="82.85999894142151%" stop-color="#FFF029" stop-opacity="1" />
      <stop offset="100%" stop-color="#FFF42A" stop-opacity="1" />
    </linearGradient>
  </defs>
  <g transform="translate(0 18)">
    <g>
      <g>
        <path
          d="M23.6,19.500045776367188C17.4,19.500045776367188,11.3,22.000045776367188,6.9,26.400045776367186C2.5,30.700045776367187,0,36.900045776367186,0,43.10004577636719C0,49.300045776367185,2.5,55.400045776367186,6.9,59.800045776367185C11.2,64.20004577636719,17.4,66.70004577636719,23.6,66.70004577636719C29.8,66.70004577636719,35.9,64.20004577636719,40.3,59.800045776367185C44.7,55.50004577636719,47.2,49.300045776367185,47.2,43.10004577636719C47.3,36.900045776367186,44.7,30.800045776367188,40.3,26.400045776367186C36,22.000045776367188,29.8,19.500045776367188,23.6,19.500045776367188ZM42,46.900045776367186C41.7,47.10004577636719,41.4,47.400045776367186,41,47.60004577636719C40.7,47.800045776367185,40.3,48.00004577636719,39.9,48.20004577636719C39.5,48.300045776367185,39.1,48.50004577636719,38.6,48.60004577636719C38.2,48.70004577636719,37.7,48.800045776367185,37.2,48.900045776367186C36.7,49.00004577636719,36.2,49.00004577636719,35.6,49.00004577636719C35,49.00004577636719,34.5,49.00004577636719,33.9,48.900045776367186C33.3,48.800045776367185,32.7,48.70004577636719,32.1,48.50004577636719C31.5,48.300045776367185,31,48.10004577636719,30.4,47.900045776367186C29.8,47.70004577636719,29.2,47.400045776367186,28.6,47.10004577636719C28,46.800045776367185,27.4,46.400045776367186,26.9,46.10004577636719C25.8,45.300045776367185,24.7,44.50004577636719,23.8,43.60004577636719C22.8,42.70004577636719,21.9,41.70004577636719,21.2,40.60004577636719C20.8,40.00004577636719,20.4,39.50004577636719,20.1,38.900045776367186C19.8,38.300045776367185,19.5,37.70004577636719,19.3,37.20004577636719C19.1,36.60004577636719,18.9,36.10004577636719,18.7,35.50004577636719C18.7,35.20004577636719,18.6,34.900045776367186,18.5,34.60004577636719C18.5,34.60004577636719,18.3,33.800045776367185,18.3,33.800045776367185C18.2,33.300045776367185,18.1,32.70004577636719,18.1,32.20004577636719C18,31.700045776367187,18.1,31.200045776367187,18.1,30.700045776367187C18.1,30.200045776367187,18.2,29.700045776367187,18.3,29.300045776367188C18.4,28.900045776367186,18.5,28.500055776367187,18.7,28.100055776367185C19,27.300055776367188,19.4,26.60004577636719,19.9,26.10004577636719C20.4,25.500045776367188,20.9,25.10004577636719,21.5,24.900045776367186C22.1,24.60004577636719,22.7,24.500045776367188,23.3,24.500045776367188C23.9,24.500045776367188,24.5,24.60004577636719,25.1,24.900045776367186C25.7,25.10004577636719,26.2,25.500045776367188,26.7,26.10004577636719C27.2,26.60004577636719,27.6,27.200055776367186,27.9,28.100055776367185C28.1,28.500055776367187,28.2,28.800045776367188,28.3,29.300045776367188C28.4,29.700045776367187,28.5,30.200045776367187,28.5,30.700045776367187C28.5,31.200045776367187,28.5,31.700045776367187,28.5,32.20004577636719C28.5,32.70004577636719,28.4,33.20004577636719,28.3,33.800045776367185C28.3,33.800045776367185,28.1,34.60004577636719,28.1,34.60004577636719C28.1,34.900045776367186,28,35.20004577636719,27.9,35.50004577636719C27.7,36.10004577636719,27.5,36.60004577636719,27.3,37.20004577636719C27.1,37.70004577636719,26.8,38.300045776367185,26.5,38.900045776367186C26.1,39.50004577636719,25.8,40.00004577636719,25.4,40.60004577636719C24.6,41.70004577636719,23.8,42.70004577636719,22.8,43.60004577636719C21.9,44.50004577636719,20.8,45.400045776367186,19.7,46.10004577636719C19.2,46.50004577636719,18.6,46.800045776367185,18,47.10004577636719C17.4,47.400045776367186,16.8,47.70004577636719,16.2,47.900045776367186C15.7,48.20004577636719,15.1,48.300045776367185,14.5,48.50004577636719C13.9,48.70004577636719,13.3,48.800045776367185,12.7,48.900045776367186C12.1,49.00004577636719,11.5,49.00004577636719,11,49.00004577636719C10.4,49.00004577636719,9.9,49.00004577636719,9.4,48.900045776367186C8.9,48.800045776367185,8.5,48.70004577636719,8,48.60004577636719C7.5,48.50004577636719,7.1,48.400045776367186,6.7,48.20004577636719C6.3,48.00004577636719,6,47.800045776367185,5.6,47.60004577636719C5.2,47.400045776367186,4.9,47.20004577636719,4.6,46.900045776367186C4.1,46.300045776367185,3.6,45.70004577636719,3.3,45.10004577636719C3.1,44.400045776367186,2.9,43.800045776367185,2.8,43.10004577636719C2.5,37.60004577636719,4.5,32.10004577636719,8.3,27.90003577636719C10.2,25.80003577636719,12.6,24.200045776367187,15.2,23.000045776367188C17.8,21.900045776367186,20.7,21.300045776367188,23.5,21.300045776367188C26.4,21.300045776367188,29.2,21.900045776367186,31.8,23.000045776367188C34.4,24.200045776367187,36.8,25.80003577636719,38.7,27.90003577636719C42.5,32.10004577636719,44.5,37.70004577636719,44.2,43.10004577636719C44.2,43.800045776367185,44,44.50004577636719,43.3,45.10004577636719C43,45.800045776367185,42.5,46.400045776367186,42,46.900045776367186Z"
          fill="url(#master_svg0_0_1235)" fill-opacity="1" />
      </g>
      <g>
        <g>
          <path
            d="M25.099998474121094,17.800048828125C25.099998474121094,17.000048828125,24.399998474121094,16.300048828125,23.599998474121094,16.300048828125C22.800000474121095,16.300048828125,22.099998474121094,17.000048828125,22.099998474121094,17.800048828125C22.099998474121094,17.800048828125,22.099998474121094,21.000048828125,22.099998474121094,21.000048828125C22.099998474121094,21.800048828125,22.800000474121095,22.500048828125,23.599998474121094,22.500048828125C24.399998474121094,22.500048828125,25.099998474121094,21.800048828125,25.099998474121094,21.000048828125C25.099998474121094,21.000048828125,25.099998474121094,17.800048828125,25.099998474121094,17.800048828125Z"
            fill="url(#master_svg1_0_1239)" fill-opacity="1" />
        </g>
      </g>
      <g>
        <path
          d="M128.6999984741211,22.700042724609375C128.6999984741211,23.600042724609374,128.5999984741211,24.400042724609374,128.5999984741211,25.200042724609375C129.5999984741211,26.000042724609376,130.5999984741211,26.800042724609376,131.3999984741211,27.700042724609375C135.1999984741211,31.900042724609374,137.1999984741211,37.50004272460937,136.8999984741211,42.90004272460938C136.8999984741211,43.600042724609374,136.6999984741211,44.300042724609376,136.3999984741211,44.90004272460938C136.0999984741211,45.600042724609374,135.5999984741211,46.200042724609375,135.0999984741211,46.700042724609375C134.79999847412108,46.90004272460938,134.4999984741211,47.200042724609375,134.0999984741211,47.40004272460938C133.79999847412108,47.600042724609374,133.3999984741211,47.800042724609376,132.9999984741211,48.00004272460937C132.5999984741211,48.200042724609375,132.1999984741211,48.300042724609376,131.6999984741211,48.40004272460938C131.29999847412108,48.50004272460937,130.79999847412108,48.700042724609375,130.29999847412108,48.700042724609375C129.79999847412108,48.800042724609376,129.29999847412108,48.800042724609376,128.6999984741211,48.800042724609376C128.0999984741211,48.800042724609376,127.5999984741211,48.800042724609376,126.9999984741211,48.700042724609375C126.39999847412109,48.600042724609374,125.7999984741211,48.50004272460937,125.19999847412109,48.300042724609376C124.9999984741211,48.200042724609375,124.69999847412109,48.200042724609375,124.4999984741211,48.100042724609374C121.9999984741211,53.90004272460938,117.9999984741211,59.600042724609374,111.5999984741211,65.10004272460938C111.2999984741211,65.40004272460938,110.89999847412109,65.70004272460938,110.5999984741211,66.00004272460937C112.4999984741211,66.50004272460937,114.4999984741211,66.70004272460938,116.39999847412109,66.70004272460938C122.5999984741211,66.80004272460937,128.6999984741211,64.20004272460938,133.0999984741211,59.800042724609376C137.4999984741211,55.50004272460937,139.9999984741211,49.300042724609376,139.9999984741211,43.100042724609374C140.0999984741211,36.90004272460938,137.4999984741211,30.800042724609376,132.8999984741211,26.100042724609374C131.6999984741211,24.800042724609376,130.1999984741211,23.700042724609375,128.6999984741211,22.700042724609375Z"
          fill="url(#master_svg2_0_1242)" fill-opacity="1" />
      </g>
    </g>
  </g>
</svg>