<svg xmlns="http://www.w3.org/2000/svg" xmlns:xlink="http://www.w3.org/1999/xlink" fill="none" version="1.1" width="140" height="108.5" viewBox="0 0 140 108.5"><g><g><path d="M92.30725117187501,30.8515Q95.999951171875,27.1819,95.999951171875,22L95.999951171875,12.5Q95.999951171875,7.30368,92.348151171875,3.65184Q88.69625117187499,0,83.499951171875,0L60.199951171875,0Q55.003631171875,0,51.351791171875,3.65184Q47.699951171875,7.30368,47.699951171875,12.5L47.699951171875,22Q47.699951171875,27.1963,51.351791171875,30.8482Q55.003631171875,34.5,60.199951171875,34.5L83.499951171875,34.5Q88.635851171875,34.5,92.30725117187501,30.8515ZM92.999951171875,12.5L92.999951171875,22Q92.999951171875,25.9337,90.192651171875,28.7235Q87.398651171875,31.5,83.499951171875,31.5L60.199951171875,31.5Q56.246271171875,31.5,53.473111171875,28.7268Q50.699951171875,25.9537,50.699951171875,22L50.699951171875,12.5Q50.699951171875,8.54632,53.473111171875,5.77316Q56.246271171875,3,60.199951171875,3L83.499951171875,3Q87.45365117187501,3,90.22675117187501,5.77316Q92.999951171875,8.54632,92.999951171875,12.5Z" fill-rule="evenodd" fill="#423232" fill-opacity="1"/></g><g><path d="M132.49990234375,8.81756L132.49990234375,24.4Q132.49990234375,28.0213,129.91060234374999,30.6107Q127.32120234375,33.2,123.69990234375,33.2L112.19989234375,33.2Q111.92574234375,33.2,111.50328234375,33.129599999999996Q111.32574234375,33.1,111.29989234375,33.1Q111.11871234375,33.1,110.94274234375,33.0569Q110.76678234375,33.0137,110.60614234375,32.9299Q110.44550234375001,32.8461,110.30944234374999,32.7265Q110.17337234375,32.606899999999996,110.06970234375,32.4583Q105.82831934375,26.379,103.45545234375,17.9044Q103.39990234375,17.706,103.39990234375,17.5L103.39990234375,8.8Q103.39990234375,5.17868,105.98923234375,2.58934Q108.57857234375,0,112.19989234375,0L123.69990234375,0Q127.40940234375,0,129.98050234375,2.54683Q132.58310234375,5.12488,132.49990234375,8.81756ZM129.50040234375,8.76343Q129.49990234375,8.78171,129.49990234375,8.8L129.49990234375,24.4Q129.49990234375,26.7787,127.78920234374999,28.4893Q126.07860234374999,30.2,123.69990234375,30.2L112.19989234375,30.2Q112.18980234375,30.2,112.15660234375,30.1955Q108.52100234375,24.7699,106.39990234375,17.2927L106.39990234375,8.8Q106.39990234375,6.42132,108.11056234375,4.71066Q109.82121234375,3,112.19989234375,3L123.69990234375,3Q126.17510234375,3,127.86930234375001,4.678179999999999Q129.55920234375,6.35212,129.50040234375,8.76343Z" fill-rule="evenodd" fill="#423232" fill-opacity="1"/></g><g><path d="M105.6331,11.790653984375L105.6343,11.790793984375Q105.7169,11.799973984375,105.8,11.799973984375Q105.8737,11.799973984375,105.947,11.792753984375Q106.0203,11.785523984375,106.0926,11.771153984375Q106.1649,11.756773984375,106.2354,11.735383984375Q106.3059,11.713993984375,106.374,11.685793984375Q106.4421,11.657593984375,106.5071,11.622853984375Q106.5721,11.588113984375,106.6333,11.547173984375Q106.6946,11.506233984375,106.7516,11.459483984375Q106.8085,11.412743984375,106.8606,11.360633984375Q106.9128,11.308523984375,106.9595,11.251563984375Q107.0062,11.194593984375,107.0472,11.133323984375Q107.0881,11.072055984375,107.1229,11.007066984375Q107.1576,10.942077984375,107.1858,10.873996984375Q107.214,10.805915984375,107.2354,10.735398984375Q107.2568,10.664881984375,107.2712,10.592607984375Q107.2855,10.520332984374999,107.2928,10.446997984375Q107.3,10.373661984375,107.3,10.299971984375Q107.3,10.231480984375,107.2937,10.163273984375Q107.2875,10.095067384375,107.2751,10.027713484375Q107.2626,9.960359984375,107.2441,9.894418984375Q107.2256,9.828477984375,107.2012,9.764498984375Q107.1767,9.700520984375,107.1465,9.639035984374999Q107.1163,9.577551984375,107.08070000000001,9.519073984375Q107.045,9.460595984375,107.0042,9.405609984375Q106.96340000000001,9.350624984375,106.9177,9.299589984375Q106.872,9.248554984375,106.8219,9.201894984375Q106.7717,9.155234984375,106.7175,9.113338984375Q106.6634,9.071443984375,106.6056,9.034653984375Q106.5478,8.997873984375,106.4869,8.966503984375Q106.426,8.935143984375,106.3625,8.909453984375Q106.299,8.883763984375,106.23349999999999,8.863973984375Q106.1679,8.844183984375,106.10079999999999,8.830443984375Q106.0337,8.816713984375,105.9656,8.809143984375Q103.37929,8.521773984375,100.01734,8.651083984375Q97.35837,8.753353984375,94.324739,9.110253984375Q94.257018,9.118215984375,94.190299,9.132294984375Q94.123579,9.146373984375,94.058412,9.166447984375Q93.993246,9.186521984375,93.930169,9.212425984375Q93.867092,9.238329984375,93.806626,9.269849984375Q93.74616,9.301370984375,93.68880300000001,9.338246984375001Q93.631446,9.375122984375,93.577671,9.417050984375Q93.523897,9.458979984375,93.47415,9.505613984375Q93.4244,9.552247984375,93.37909,9.603202984375Q93.33377,9.654158984375,93.29327,9.709015984375Q93.25277,9.763871984375,93.21741,9.822177984375Q93.18205,9.880482984375,93.15213,9.941754984375Q93.12221,10.003027984375,93.09797,10.066763084375Q93.07373,10.130497884375,93.05538,10.196169084375Q93.03702,10.261839984375,93.0247,10.328905984375Q93.01237,10.395971984375,93.00619,10.463878984375Q93,10.531786984375,93,10.599974984375Q93,10.673664984375,93.00722,10.747000984375Q93.01445,10.820335984375,93.02882,10.892610984375Q93.0432,10.964884984375,93.06459,11.035401984375Q93.08598,11.105918984375,93.11418,11.174003984375Q93.14238,11.242083984375,93.17712,11.307073984375Q93.21186,11.372063984375,93.2528,11.433333984375Q93.29374,11.494603984375,93.34048,11.551563984375Q93.38723,11.608523984375001,93.43934,11.660633984375Q93.49145,11.712743984375,93.54841,11.759493984375Q93.605373,11.806243984375,93.666645,11.847183984375Q93.727916,11.888123984375,93.792905,11.922853984375Q93.857894,11.957593984375,93.925975,11.985793984375Q93.994056,12.013993984375,94.064573,12.035383984375Q94.13509,12.056773984374999,94.207365,12.071153984375Q94.279639,12.085533984375001,94.352974,12.092753984375Q94.4263097,12.099973984375,94.5,12.099973984375Q94.5879328,12.099973984375,94.675263,12.089703984375Q97.59164,11.746593984375,100.13264,11.648863984375Q103.26913,11.528233984375,105.632,11.790533984375L105.6331,11.790653984375Z" fill-rule="evenodd" fill="#423232" fill-opacity="1"/></g><g><path d="M49.2517,12.799158828125Q49.3237,12.796678828125,49.3952,12.787298828125Q49.4666,12.777918828125,49.5369,12.761728828125Q49.6071,12.745548828125,49.675399999999996,12.722698828125Q49.7438,12.699858828125,49.8097,12.670568828124999Q49.8755,12.641278828125,49.938199999999995,12.605808828125Q50.001000000000005,12.570328828125,50.06,12.529008828125Q50.1191,12.487688828125,50.1739,12.440898828125Q50.2287,12.394108828125,50.278800000000004,12.342268828125Q50.328900000000004,12.290439828125,50.3737,12.234044828125Q50.4186,12.177650828125,50.457899999999995,12.117212828125Q50.4971,12.056775828125,50.5304,11.992852828125Q50.5637,11.928929828125,50.5907,11.862110828125Q50.6177,11.795290828125,50.6382,11.726189828125Q50.658699999999996,11.657088828125,50.672399999999996,11.586342828125Q50.6862,11.515596828125,50.6931,11.443857828125Q50.7,11.372119528125,50.7,11.300048828125Q50.7,11.226358528125,50.6928,11.153022828125Q50.6856,11.079687828125,50.6712,11.007413828125Q50.656800000000004,10.935138828125,50.635400000000004,10.864621828125Q50.614000000000004,10.794104828125,50.5858,10.726023828125Q50.5576,10.657942828125,50.5229,10.592953828125Q50.4881,10.527964828125,50.447199999999995,10.466693828125Q50.4063,10.405421828125,50.3595,10.348458828125Q50.312799999999996,10.291498828125,50.2607,10.239388828125Q50.2085,10.187278828125,50.1516,10.140528828125Q50.0946,10.093788828125,50.0333,10.052848828125Q49.9721,10.011908828125,49.9071,9.977168828125Q49.8421,9.942428828125,49.774,9.914228828125Q49.7059,9.886028828125,49.635400000000004,9.864638828124999Q49.5649,9.843248828125,49.492599999999996,9.828868828125Q49.4204,9.814498828125,49.347,9.807268828125Q49.273700000000005,9.800048828125,49.2,9.800048828125Q49.174099999999996,9.800048828125,49.1483,9.800938828125L25.9485618,10.600933828125L25.9483064,10.600942828125Q25.876278,10.603426828125,25.80482,10.612804828125Q25.733362,10.622181828125001,25.663133,10.638367828125Q25.592903,10.654552828125,25.524548,10.677396828125Q25.456194,10.700241828125,25.390345,10.729533828125Q25.324495,10.758825828125,25.261757,10.794295828125Q25.199019,10.829766828125,25.139971,10.871088828125Q25.080923,10.912410828125,25.026109,10.959203828125Q24.97129,11.005995828125,24.921219999999998,11.057828828125Q24.87114,11.109660828125,24.82627,11.166055828125Q24.781390000000002,11.222449928125,24.74213,11.282887028125Q24.70287,11.343324228125,24.66958,11.407246828125Q24.63629,11.471169828125,24.60929,11.537989828125Q24.58228,11.604809828125,24.56181,11.673910828125Q24.54133,11.743011828125,24.52757,11.813757828125Q24.51382,11.884503828125,24.50691,11.956242828125Q24.5,12.027980828125,24.5,12.100051828125Q24.5,12.173741828125,24.50722,12.247077828125Q24.51445,12.320408828125,24.52882,12.392688828125Q24.5432,12.464958828124999,24.56459,12.535478828125001Q24.58598,12.605998828125,24.61418,12.674078828125Q24.64238,12.742158828125,24.67712,12.807148828125Q24.71186,12.872138828125,24.7528,12.933408828125Q24.79374,12.994678828125,24.84048,13.051638828125Q24.88723,13.108608828125,24.93934,13.160708828125Q24.99145,13.212818828125,25.04841,13.259568828125Q25.105373,13.306318828125,25.166645,13.347258828125Q25.227916,13.388198828125,25.292905,13.422928828125Q25.357894,13.457668828125,25.425975,13.485868828125Q25.494056,13.514068828125,25.564573,13.535458828125Q25.63509,13.556848828125,25.707365,13.571228828125001Q25.779639,13.585608828125,25.852974,13.592828828125Q25.9263097,13.600048828125,26,13.600048828125Q26.0258545,13.600048828125,26.0516936,13.599158828125L26.0524687,13.599138828125L49.2517,12.799158828125L49.2517,12.799158828125Z" fill-rule="evenodd" fill="#423232" fill-opacity="1"/></g></g></svg>