<svg xmlns="http://www.w3.org/2000/svg" xmlns:xlink="http://www.w3.org/1999/xlink" fill="none" version="1.1" width="140" height="121.441650390625" viewBox="0 0 140 121.441650390625"><g><g style="opacity:0.6000000238418579;"><path d="M124.347998046875,43.6024209375C124.347998046875,43.6024209375,124.147998046875,48.8024609375,124.147998046875,48.8024609375C124.147998046875,48.8024609375,112.347998046875,41.3024109375,112.347998046875,41.3024109375C112.347998046875,41.3024109375,109.347998046875,40.2024209375,107.547998046875,39.9024209375C105.747998046875,39.6024209375,54.748008046875,51.2024609375,50.548008046875,50.8024609375C46.348008046875,50.4024609375,44.947998046875,47.4024609375,44.947998046875,47.4024609375C44.947998046875,47.4024609375,85.547998046875,37.0024099375,101.647998046875,36.2024095375C117.747998046875,35.4024099375,124.347998046875,43.6024209375,124.347998046875,43.6024209375Z" fill="#B7AEA9" fill-opacity="1"/></g><g><path d="M107.447998046875,40.0024C106.247998046875,39.9024,105.147998046875,39.9024,103.947998046875,40.1024C103.947998046875,40.1024,48.147998046875,48.8024,48.147998046875,48.8024C43.947998046875,49.4024,40.147998046875,46.2024,40.147998046875,41.9024C40.147998046875,41.9024,40.147998046875,38.7024,40.147998046875,38.7024C40.147998046875,34.0023,36.347998046875,30.3024,31.747998046875,30.3024C31.747998046875,30.3024,28.447998046875,24.4024,28.447998046875,24.4024C28.447998046875,24.4024,31.747998046875,24.4024,31.747998046875,24.4024C36.447998046875,24.4024,40.147998046875,20.6024,40.147998046875,16.0024C40.147998046875,16.0024,40.147998046875,6.90236,40.147998046875,6.90236C40.147998046875,3.00236,43.447998046875,-0.097647,47.347998046875,0.00235298C47.347998046875,0.00235298,107.747998046875,1.90236,107.747998046875,1.90236C107.747998046875,1.90236,107.447998046875,40.0024,107.447998046875,40.0024Z" fill="#5E4949" fill-opacity="1"/></g><g><path d="M130.148095703125,43.2023681640625C129.848095703125,46.4023681640625,126.448095703125,48.3023681640625,123.548095703125,46.9023681640625C123.548095703125,46.9023681640625,112.348085703125,41.3023681640625,112.348085703125,41.3023681640625C110.848085703125,40.5023681640625,109.248095703125,40.1023681640625,107.548095703125,39.9023681640625C107.548095703125,39.9023681640625,107.848083703125,1.8023681640625,107.848083703125,1.8023681640625C107.848083703125,1.8023681640625,128.548095703125,2.4023741640625,128.548095703125,2.4023741640625C131.348095703125,2.5023741640625,133.448095703125,4.9023681640625,133.248095703125,7.6023681640625C133.248095703125,7.6023681640625,130.148095703125,43.2023681640625,130.148095703125,43.2023681640625Z" fill="#423232" fill-opacity="1"/></g><g><path d="M56.64791853125,22.50233375C56.54791853125,25.60233375,59.04791953125,28.20234375,62.14791953125,28.20234375C62.14791953125,28.20234375,120.04791953125,28.20234375,120.04791953125,28.20234375C122.84791953125,28.20234375,125.14791953125,26.10234375,125.44791953125,23.30233375C125.84791953125,20.10233375,123.34791953125,17.30233375,120.14791953125,17.20233375C120.14791953125,17.20233375,62.24792953125,15.90234375,62.24792953125,15.90234375C59.34792953125,15.90234375,56.84792453125,18.10233375,56.74792453125,21.20233375C56.74792453125,21.20233375,56.64791853125,22.50233375,56.64791853125,22.50233375Z" fill="#E26076" fill-opacity="1"/><path d="M55.24990953125,21.11894375Q55.35506953125,18.23328375,57.42201453125,16.29552975Q59.44141953125,14.40234375,62.24792953125,14.40234375Q62.26475953125,14.40234375,62.28159953125,14.40272375L120.19481953125,15.70306375Q123.25821953125,15.79879475,125.27601953125,18.10118375Q127.31841953125,20.43165375,126.93941953125,23.46214375Q126.65341953125,26.13134375,124.69441953125,27.912243750000002Q122.72531953125,29.70234375,120.04791953125,29.70234375L62.14791953125,29.70234375Q59.18686953125,29.70234375,57.11792053125,27.55584375Q55.05321953125,25.41367375,55.14869953125,22.45397375Q55.14977953125,22.42058375,55.15233953125,22.38728375L55.24990953125,21.11894375ZM58.14623953125,22.58176375L58.24350953125,21.31738375Q58.24606953125,21.28408375,58.24714953125,21.25069375Q58.30091953125,19.58375375,59.47382953125,18.48414375Q60.62215953125,17.40759375,62.23221953125,17.40237375L120.10111953124999,18.70160375Q121.86131953125,18.75660375,123.01981953125,20.07848375Q124.17451953125,21.39602375,123.95641953125,23.14254375Q123.79191953125,24.67834375,122.67641953125,25.69242375Q121.56551953125,26.70234375,120.04791953125,26.70234375L62.14791953125,26.70234375Q60.46197953125,26.70234375,59.27791953125,25.47387375Q58.10339953125,24.25531375,58.14623953125,22.58176375Z" fill-rule="evenodd" fill="#423232" fill-opacity="1"/></g><g><path d="M69.447998046875,20.0023193359375C69.447998046875,20.0023193359375,63.947998046875,20.0023193359375,63.947998046875,20.0023193359375C62.847998046875,20.0023193359375,61.947998046875,20.9023193359375,61.947998046875,22.0023193359375C61.947998046875,23.1023193359375,62.847998046875,24.0023193359375,63.947998046875,24.0023193359375C63.947998046875,24.0023193359375,69.447998046875,24.0023193359375,69.447998046875,24.0023193359375C70.547998046875,24.0023193359375,71.347998046875,23.1023193359375,71.447998046875,22.0023193359375C71.447998046875,20.9023193359375,70.547998046875,20.0023193359375,69.447998046875,20.0023193359375Z" fill="#FFFFFF" fill-opacity="1"/></g></g></svg>