<svg xmlns="http://www.w3.org/2000/svg" xmlns:xlink="http://www.w3.org/1999/xlink" fill="none" version="1.1" width="140" height="92.681396484375" viewBox="0 0 140 92.681396484375"><g><g><path d="M79.87365288085937,82.599908203125C58.873652880859375,83.999908203125,43.973602880859374,67.399908203125,42.27359788085938,49.099908203125C40.97359888085938,35.699908203125,43.67360288085938,27.399908203125,45.67360288085938,23.399908203125C46.573602880859376,21.599908203125,48.47359288085937,20.599908203125,50.47359288085937,20.799908203125C57.573552880859374,21.499908203125003,75.57355288085938,22.599908203125,84.57355288085938,15.399928203125C91.47355288085937,9.899930203125,98.37365288085937,8.899936703125,102.77365288085937,8.999936683125C106.97365288085938,9.099936203125,110.47365288085938,11.399938203125,113.17365288085938,14.699938203125C119.47365288085938,22.499908203125003,124.37365288085938,20.799908203125,124.57355288085938,28.999908203125C123.57355288085938,58.699908203125,107.47355288085937,80.899908203125,79.87365288085937,82.599908203125Z" fill="#FFFFFF" fill-opacity="1"/></g><g><path d="M76.89080519335937,19.432838828125Q87.30957319335937,24.134918828125,98.17237319335938,27.128968828125Q107.55337319335938,29.714638828125,113.26077319335937,29.510378828125Q119.56667319335938,29.284688828125,120.52237319335939,25.621408828125Q120.55357319335937,25.501798828125,120.60387319335938,25.388908828125Q120.65427319335937,25.276018828125,120.72247319335938,25.172888828125Q120.79057319335938,25.069768828125,120.87477319335937,24.979198828125Q120.95887319335938,24.888618828125,121.05667319335937,24.813038828125002Q121.15447319335937,24.737468828125,121.26337319335937,24.678918828125Q121.37227319335938,24.620378828125,121.48927319335937,24.580448828125Q121.60627319335939,24.540518828125002,121.72817319335937,24.520278828125Q121.85017319335938,24.500048828125,121.97377319335938,24.500048828125Q122.04747319335937,24.500048828125,122.12077319335938,24.507268828125Q122.19417319335938,24.514488828125,122.26637319335939,24.528868828125Q122.33867319335937,24.543248828125,122.40917319335938,24.564638828125Q122.47967319335937,24.586028828125,122.54777319335938,24.614228828125Q122.61587319335938,24.642428828125,122.68087319335937,24.677168828125Q122.74587319335937,24.711898828125,122.80717319335938,24.752838828125Q122.86837319335937,24.793778828125,122.92537319335938,24.840528828125Q122.98237319335936,24.887278828124998,123.03447319335937,24.939388828125Q123.08657319335938,24.991488828125,123.13327319335937,25.048458828125Q123.18007319335938,25.105418828125,123.22097319335938,25.166688828125Q123.26187319335938,25.227958828125,123.29667319335937,25.292948828125Q123.33137319335938,25.357938828125,123.35957319335938,25.426018828125Q123.38777319335938,25.494098828125,123.40917319335938,25.564618828125Q123.43057319335938,25.635138828125,123.44497319335937,25.707408828125Q123.45937319335937,25.779688828125,123.46657319335938,25.853018828125002Q123.47377319335938,25.926358828125,123.47377319335938,26.000048828125Q123.47377319335938,26.192478828125,123.42517319335937,26.378678828125Q121.90587319335938,32.202848828125,113.36807319335938,32.508448828125Q107.20037319335938,32.729148828125,97.37517319335937,30.021118828124997Q86.28787319335937,26.965168828125,75.65674119335938,22.167258828125Q75.55857319335938,22.122958828125,75.46774219335937,22.065088828125Q75.37691019335938,22.007208828125002,75.29527919335938,21.936948828125Q75.21364319335937,21.866698828125,75.14289319335937,21.785495828125Q75.07213319335938,21.704296828125,75.01370319335938,21.613821828125Q74.95527319335937,21.523346828125,74.91037319335938,21.425451828125Q74.86546319335937,21.327557828125,74.83500319335937,21.224251828125Q74.80454319335938,21.120945828125,74.78916319335937,21.014348828125Q74.77377319335938,20.907750828125,74.77377319335938,20.800048828125Q74.77377319335938,20.726358528125,74.78099319335938,20.653022828125Q74.78822319335937,20.579687828125,74.80259319335937,20.507413828125Q74.81697319335937,20.435138828125,74.83836319335937,20.364621828125Q74.85975319335938,20.294104828125,74.88795319335938,20.226023828125Q74.91615319335938,20.157942828125,74.95089319335938,20.092953828125Q74.98563319335938,20.027964828125,75.02657319335937,19.966693828125Q75.06751319335937,19.905421828125,75.11425319335937,19.848458828125Q75.16100319335938,19.791498828125,75.21311319335938,19.739388828125Q75.26522319335938,19.687278828125,75.32218319335938,19.640528828125Q75.37914619335938,19.593788828125,75.44041819335938,19.552848828125Q75.50168919335937,19.511908828125,75.56667819335938,19.477168828125Q75.63166719335938,19.442428828125,75.69974819335937,19.414228828125Q75.76782919335938,19.386028828125,75.83834619335937,19.364638828125Q75.90886319335938,19.343248828125,75.98113819335937,19.328868828125Q76.05341219335938,19.314498828125,76.12674719335938,19.307268828125Q76.20008289335938,19.300048828125,76.27377319335938,19.300048828125Q76.59657719335938,19.300048828125,76.89080519335937,19.432838828125Z" fill-rule="evenodd" fill="#EDF3F4" fill-opacity="1"/></g><g><path d="M60.020382193359374,33.099156484375Q70.53847319335938,39.110696484375,83.41297319335938,43.486416484375Q108.70247319335937,52.081646484375,120.01507319335937,44.270226484375Q120.01777319335937,44.268346484375,120.02057319335938,44.266466484375L120.02097319335937,44.266166484375Q120.20897319335938,44.136246484375,120.42707319335938,44.068196484375Q120.64527319335937,44.000156484375,120.87377319335937,44.000156484375Q120.94747319335937,44.000156484375,121.02077319335937,44.007376484375Q121.09417319335938,44.014596484375,121.16637319335938,44.028976484375Q121.23867319335938,44.043346484375,121.30917319335938,44.064736484375004Q121.37967319335937,44.086136484375004,121.44777319335938,44.114336484375Q121.51587319335937,44.142536484375,121.58087319335937,44.177266484375Q121.64587319335938,44.212006484374996,121.70707319335938,44.252946484375Q121.76837319335937,44.293886484375,121.82537319335938,44.340636484375Q121.88227319335937,44.387386484375,121.93437319335938,44.439446484375Q121.98657319335938,44.491646484374996,122.03327319335938,44.548546484375Q122.08007319335937,44.605546484375,122.12097319335938,44.666746484375Q122.16187319335938,44.728046484375,122.19667319335937,44.793046484375Q122.23137319335937,44.858046484375,122.25957319335937,44.926146484374996Q122.28777319335939,44.994246484375,122.30917319335938,45.064746484375Q122.33057319335938,45.135246484375,122.34497319335938,45.207546484375Q122.35927319335937,45.279746484374996,122.36657319335937,45.353146484375Q122.37377319335937,45.426446484375,122.37377319335937,45.500146484375Q122.37377319335937,45.682146484375,122.33017319335937,45.858946484375Q122.28667319335938,46.035646484375,122.20217319335939,46.196846484375Q122.11757319335938,46.358046484375,121.99687319335938,46.494446484375004Q121.87627319335937,46.630746484375,121.72647319335937,46.734146484375Q121.72527319335939,46.735046484375,121.72407319335937,46.735846484375Q109.17007319335937,55.409146484375,82.44767319335938,46.326846484375Q69.29877319335938,41.857886484375,58.52945319335937,35.702446484375L58.52923419335937,35.702326484375L58.529236193359374,35.702326484375Q58.44354419335937,35.653326484375,58.36501119335937,35.593526484375Q58.28647819335937,35.533726484375,58.216463193359374,35.464146484375Q58.146443193359374,35.394564484375,58.086143193359376,35.316409484375Q58.02584319335938,35.238255484375,57.976313193359374,35.152873484375Q57.92678319335938,35.067491484375,57.88886319335938,34.976353484375Q57.85094319335938,34.885216484375,57.82529319335937,34.789896484375Q57.79964319335937,34.694576484375,57.786713193359375,34.596716484375Q57.773773193359375,34.498857184375,57.773773193359375,34.400146484375Q57.773773193359375,34.326456184375,57.78099319335937,34.253120484375Q57.78822319335937,34.179785484375,57.80259319335938,34.107511484375Q57.816973193359374,34.035236484375,57.83836319335938,33.964719484375Q57.859753193359374,33.894202484375,57.88795319335937,33.826121484375Q57.91615319335938,33.758040484375,57.95089319335938,33.693051484375Q57.98563319335938,33.628062484375,58.026573193359376,33.566791484375Q58.067513193359375,33.505519484375,58.114253193359374,33.448556484375Q58.16100319335938,33.391596484375,58.213113193359376,33.339486484375Q58.265223193359375,33.287376484375,58.32218319335937,33.240626484375Q58.379146193359375,33.193886484375,58.44041819335938,33.152946484375Q58.501689193359375,33.112006484375,58.56667819335937,33.077266484375Q58.63166719335938,33.042526484375,58.699748193359376,33.014326484375Q58.767829193359375,32.986126484375,58.83834619335938,32.964736484375Q58.90886319335937,32.943346484375,58.98113819335938,32.928966484375Q59.05341219335938,32.914596484375,59.12674719335938,32.907366484375Q59.20008289335937,32.900146484375,59.273773193359375,32.900146484375Q59.673601193359374,32.900146484375,60.020382193359374,33.099156484375Z" fill-rule="evenodd" fill="#EDF3F4" fill-opacity="1"/></g><g><path d="M58.77694319335937,50.48489765625Q64.06776319335937,55.24422765625,73.25257319335938,59.18406765625Q91.63077319335937,67.06739765625,110.84397319335937,62.73679765625Q111.00687319335938,62.70009765625,111.17377319335938,62.70009765625Q111.24747319335938,62.70009765625,111.32077319335937,62.70729765625Q111.39417319335936,62.71459765625,111.46637319335937,62.72889765625Q111.53867319335937,62.74329765625,111.60917319335937,62.76469765625Q111.67977319335938,62.78609765625,111.74777319335936,62.81429765625Q111.81587319335938,62.84249765625,111.88087319335938,62.877197656250004Q111.94587319335938,62.91199765625,112.00717319335938,62.95289765625Q112.06837319335938,62.99379765625,112.12537319335937,63.04059765625Q112.18237319335938,63.08729765625,112.23447319335938,63.13939765625Q112.28657319335937,63.191597656249996,112.33327319335937,63.24849765625Q112.38007319335938,63.30549765625,112.42097319335937,63.36669765625Q112.46187319335937,63.42799765625,112.49667319335938,63.49299765625Q112.53137319335937,63.55799765625,112.55957319335937,63.626097656249996Q112.58777319335937,63.69419765625,112.60917319335937,63.76469765625Q112.63057319335937,63.83519765625,112.64497319335938,63.90749765625Q112.65937319335937,63.979697656249996,112.66657319335937,64.05309765625Q112.67377319335938,64.12639765625,112.67377319335938,64.20009765625Q112.67377319335938,64.32689765625,112.65247319335938,64.45189765625Q112.63117319335937,64.57679765625,112.58927319335938,64.69649765625Q112.54727319335937,64.81609765625,112.48587319335937,64.92699765625Q112.42447319335938,65.03789765625,112.34527319335938,65.13689765625Q112.26607319335938,65.23589765625,112.17137319335937,65.32029765625Q112.07677319335937,65.40459765625,111.96927319335938,65.47179765625Q111.86177319335937,65.53899765625,111.74447319335937,65.58729765625Q111.62727319335937,65.63549765625,111.50357319335937,65.66339765625Q91.34187319335938,70.20779765625,72.06997319335937,61.94109765625Q62.431093193359374,57.80652765625,56.77215319335937,52.71667765625Q56.65453319335938,52.61116765625,56.56148319335937,52.48346965625Q56.46842319335938,52.35576665625,56.40402319335937,52.21147865625Q56.33962319335937,52.06718965625,56.30669319335937,51.91264865625Q56.273773193359375,51.75810665625,56.273773193359375,51.60009765625Q56.273773193359375,51.52640735625,56.28099319335937,51.45307165625Q56.28822319335937,51.37973665625,56.30259319335938,51.30746265625Q56.316973193359374,51.23518765625,56.33836319335938,51.16467065625Q56.359753193359374,51.09415365625,56.38795319335937,51.02607265625Q56.41615319335938,50.95799165625,56.45089319335938,50.89300265625Q56.48563319335938,50.82801365625,56.526573193359376,50.76674265625Q56.567513193359375,50.70547065625,56.614253193359374,50.64850765625Q56.66100319335938,50.59154765625,56.713113193359376,50.53943765625Q56.765223193359375,50.48732765625,56.82218319335937,50.44057765625Q56.879146193359375,50.39383765625,56.94041819335938,50.35289765625Q57.001689193359375,50.31195765625,57.06667819335937,50.27721765625Q57.13166719335938,50.24247765625,57.199748193359376,50.21427765625Q57.267829193359375,50.18607765625,57.33834619335938,50.16468765625Q57.40886319335937,50.14329765625,57.48113819335938,50.12891765625Q57.55341219335938,50.11454765625,57.62674719335938,50.10731765625Q57.70008289335937,50.10009765625,57.773773193359375,50.10009765625Q58.05159719335938,50.10009765625,58.310992193359375,50.19959765625Q58.570386193359376,50.29909765625,58.77694319335937,50.48489765625Z" fill-rule="evenodd" fill="#EDF3F4" fill-opacity="1"/></g><g><path d="M64.78865155273438,23.379765Q64.92763155273437,23.187832,65.00068155273438,22.962402Q65.07373155273437,22.736971,65.07373155273437,22.5Q65.07373155273437,22.4263097,65.06651155273437,22.352974Q65.05929155273438,22.279639,65.04491155273438,22.207365Q65.03054155273438,22.13509,65.00914155273438,22.064573Q64.98775155273438,21.994056,64.95955155273438,21.925975Q64.93135155273437,21.857894,64.89662155273437,21.792905Q64.86188155273437,21.727916,64.82094155273438,21.666645Q64.78000155273438,21.605373,64.73325155273437,21.54841Q64.68650155273437,21.49145,64.63439155273437,21.43934Q64.58229155273438,21.38723,64.52532155273437,21.34048Q64.46836155273438,21.29374,64.40709155273437,21.2528Q64.34582155273438,21.21186,64.28083155273437,21.17712Q64.21584155273437,21.14238,64.14776155273438,21.11418Q64.07968155273437,21.08598,64.00916155273437,21.06459Q63.938641552734374,21.0432,63.86637155273438,21.02882Q63.794101552734375,21.01445,63.72076155273437,21.00722Q63.64742155273437,21,63.57373155273437,21Q63.39590155273437,21,63.22299155273438,21.04158Q63.05009155273437,21.08317,62.891701552734375,21.16403Q62.73331155273438,21.24489,62.59821155273438,21.36054Q62.46312155273438,21.4762,62.358821552734376,21.620235Q61.19042155273438,23.233745,59.856961552734376,26.78524Q57.26610655273438,33.6856,56.182531552734375,43.4379Q54.89859155273437,55.2501,58.84275155273438,67.7997Q60.07355155273437,71.7159,61.68057155273438,75.24369999999999Q62.49198155273437,77.0249,63.068611552734374,78.0394L63.069641552734375,78.0412L63.069801552734376,78.0415Q63.11870155273438,78.1275,63.178481552734375,78.2063Q63.238251552734376,78.2851,63.307871552734376,78.3554Q63.37748155273437,78.4257,63.455721552734374,78.4863Q63.533961552734375,78.54679999999999,63.61948155273438,78.5966Q63.70499155273438,78.6463,63.79630155273438,78.6844Q63.88761155273438,78.7225,63.98313155273438,78.7483Q64.07865155273437,78.774,64.17673155273438,78.787Q64.27480155273437,78.8,64.37374155273437,78.8Q64.44743155273437,78.8,64.52076155273437,78.7928Q64.59410155273437,78.7856,64.66637155273438,78.7712Q64.73865155273438,78.7568,64.80916155273438,78.7354Q64.87968155273438,78.714,64.94776155273438,78.6858Q65.01584155273437,78.6576,65.08083155273438,78.6229Q65.14582155273438,78.5881,65.20709155273437,78.5472Q65.26836155273438,78.50630000000001,65.32533155273437,78.45949999999999Q65.38229155273437,78.4128,65.43440155273437,78.36070000000001Q65.48650155273438,78.3086,65.53325155273437,78.2516Q65.58000155273437,78.19460000000001,65.62094155273438,78.1334Q65.66188155273437,78.0721,65.69662155273437,78.00710000000001Q65.73136155273437,77.94210000000001,65.75956155273437,77.874Q65.78776155273438,77.80590000000001,65.80915155273438,77.7354Q65.83054155273437,77.6649,65.84491155273437,77.5926Q65.85929155273438,77.5204,65.86651155273438,77.447Q65.87374155273437,77.3737,65.87374155273437,77.3Q65.87374155273437,76.9034,65.67767155273438,76.55850000000001Q65.16715155273438,75.66069999999999,64.41065155273438,74Q62.88018155273438,70.6403,61.70473155273437,66.9002Q57.94889755273437,54.9499,59.164961552734376,43.762100000000004Q60.20638155273438,34.3893,62.665521552734376,27.839750000000002Q63.41931155273438,25.83212,64.21248155273437,24.35489Q64.58484155273437,23.66138,64.78828155273438,23.380275L64.78865155273438,23.379765L64.78865155273438,23.379765Z" fill-rule="evenodd" fill="#EDF3F4" fill-opacity="1"/></g><g><path d="M28.779957880859374,2.259311Q28.573577880859375,1.907703,28.573577880859375,1.5Q28.573577880859375,1.4263097,28.580797880859375,1.3529740000000001Q28.588027880859375,1.279639,28.602397880859375,1.207365Q28.616777880859374,1.13509,28.638167880859374,1.064573Q28.659557880859374,0.994056,28.687757880859376,0.925975Q28.715957880859374,0.857894,28.750697880859374,0.792905Q28.785437880859376,0.727916,28.826377880859376,0.666645Q28.867317880859375,0.605373,28.914057880859374,0.54841Q28.960807880859374,0.49144999999999994,29.012917880859376,0.43934000000000006Q29.065027880859375,0.38722999999999996,29.121987880859376,0.3404799999999999Q29.178950880859375,0.2937399999999999,29.240222880859374,0.2527999999999999Q29.301493880859375,0.21185999999999994,29.366482880859376,0.17711999999999994Q29.431471880859377,0.14237999999999995,29.499552880859376,0.11417999999999995Q29.567633880859375,0.08597999999999995,29.638150880859374,0.06458999999999993Q29.708667880859377,0.043199999999999905,29.780942880859374,0.028820000000000068Q29.853216880859375,0.014450000000000074,29.926551880859375,0.007220000000000004Q29.999887580859376,0,30.073577880859375,0Q30.269687880859376,0,30.459206880859377,0.05041999999999991Q30.648725880859374,0.10082999999999998,30.818912880859376,0.19828Q30.989099880859374,0.29573000000000005,31.128517880859373,0.4336500000000001Q31.267927880859375,0.571571,31.367197880859376,0.740699Q36.324267880859374,9.18607,43.94887788085937,16.4919Q47.74787788085938,20.1322,50.524777880859375,22.0649Q50.52727788085937,22.0666,50.52977788085937,22.0684L50.53017788085938,22.0686L48.816977880859376,24.5314L48.816477880859374,24.531Q45.845177880859374,22.464,41.873277880859376,18.6581Q33.947997880859376,11.06404,28.780087880859377,2.2595359999999998Q28.879377880859376,2.428617,29.018787880859374,2.5665Q29.158194880859376,2.70438,29.328360880859375,2.80179Q29.498526880859377,2.8992,29.688014880859374,2.9496Q29.877501880859374,3,30.073577880859375,3Q30.147268180859374,3,30.220603880859375,2.9927799999999998Q30.293938880859375,2.98555,30.366212880859376,2.97118Q30.438487880859373,2.9568000000000003,30.509004880859376,2.93541Q30.579521880859375,2.91402,30.647602880859374,2.88582Q30.715683880859373,2.85762,30.780672880859374,2.82288Q30.845661880859375,2.7881400000000003,30.906932880859376,2.7472000000000003Q30.968204880859375,2.7062600000000003,31.025167880859374,2.65952Q31.082127880859375,2.6127700000000003,31.134237880859374,2.56066Q31.186347880859376,2.50855,31.233097880859376,2.45159Q31.279837880859375,2.394627,31.320777880859374,2.333355Q31.361717880859374,2.272084,31.396457880859376,2.207095Q31.431197880859376,2.142106,31.459397880859374,2.074025Q31.487597880859376,2.005944,31.508987880859376,1.935427Q31.530377880859376,1.86491,31.544757880859375,1.792635Q31.559127880859375,1.720361,31.566357880859375,1.6470259999999999Q31.573577880859375,1.5736903,31.573577880859375,1.5Q31.573577880859375,1.092303,31.367197880859376,0.740699L28.779957880859374,2.259311Z" fill-rule="evenodd" fill="#FFFFFF" fill-opacity="1"/></g><g><path d="M22.740585537109375,33.04310065625Q22.673675537109375,32.82665265625,22.673675537109375,32.60009765625Q22.673675537109375,32.52640735625,22.680895537109375,32.45307165625Q22.688125537109375,32.37973665625,22.702495537109375,32.30746265625Q22.716875537109374,32.23518765625,22.738265537109374,32.16467065625Q22.759655537109374,32.09415365625,22.787855537109376,32.02607265625Q22.816055537109374,31.95799165625,22.850795537109374,31.89300265625Q22.885535537109376,31.82801365625,22.926475537109376,31.76674265625Q22.967415537109375,31.70547065625,23.014155537109374,31.64850765625Q23.060905537109374,31.59154765625,23.113015537109376,31.53943765625Q23.165125537109375,31.48732765625,23.222085537109376,31.44057765625Q23.279048537109375,31.39383765625,23.340320537109374,31.35289765625Q23.401591537109375,31.31195765625,23.466580537109376,31.27721765625Q23.531569537109377,31.24247765625,23.599650537109376,31.21427765625Q23.667731537109375,31.18607765625,23.738248537109374,31.16468765625Q23.808765537109377,31.14329765625,23.881040537109374,31.12891765625Q23.953314537109375,31.11454765625,24.026649537109375,31.10731765625Q24.099985237109376,31.10009765625,24.173675537109375,31.10009765625Q24.293293537109374,31.10009765625,24.411400537109376,31.11905765625Q24.529507537109374,31.13800765625,24.643116537109375,31.17544765625Q24.756726537109376,31.21288765625,24.862967537109377,31.26784765625Q24.969207537109376,31.32281765625,25.065394537109373,31.39392765625Q25.161580537109376,31.46503765625,25.245285537109375,31.55049765625Q25.328985537109375,31.63595365625,25.398085537109374,31.73359465625Q25.467185537109376,31.83123565625,25.519935537109376,31.93859365625Q25.572685537109376,32.04595265625,25.607755537109377,32.16031365625L25.607765537109376,32.16031265625Q30.908815537109376,49.446297656249996,47.484275537109376,62.108097656249996Q47.621675537109375,62.21309765625,47.731675537109375,62.34659765625Q47.84157553710938,62.48019765625,47.91827553710937,62.63519765625Q47.994975537109376,62.790297656250004,48.03427553710938,62.958697656249996Q48.073675537109374,63.12709765625,48.073675537109374,63.30009765625Q48.073675537109374,63.373797656250005,48.066475537109376,63.44709765625Q48.059175537109375,63.52049765625,48.04487553710938,63.592697656249996Q48.030475537109375,63.66499765625,48.009075537109375,63.735497656250004Q47.987675537109375,63.80609765625,47.95947553710937,63.87409765625Q47.93127553710937,63.94219765625,47.89657553710937,64.00719765625Q47.861775537109374,64.07219765625,47.82087553710937,64.13349765625Q47.77997553710938,64.19469765625,47.733175537109375,64.25169765625Q47.686475537109374,64.30869765625,47.63437553710938,64.36079765625Q47.58217553710938,64.41289765625,47.52527553710938,64.45959765625Q47.46827553710938,64.50639765625,47.406975537109375,64.54729765625Q47.345775537109375,64.58829765625,47.28077553710938,64.62299765624999Q47.21577553710938,64.65769765625001,47.14767553710938,64.68589765625Q47.07957553710938,64.71409765625,47.009075537109375,64.73549765625Q46.93857553710937,64.75689765625,46.866275537109374,64.77129765625Q46.79407553710938,64.78569765625,46.72067553710937,64.79289765625Q46.647375537109376,64.80009765625,46.573675537109374,64.80009765625Q46.32687553710937,64.80009765625,46.09307553710937,64.72099765625Q45.859275537109376,64.64189765625,45.66307553710938,64.49209765625Q28.324345537109373,51.247197656249995,22.740585537109375,33.04310065625Z" fill-rule="evenodd" fill="#FFFFFF" fill-opacity="1"/></g></g></svg>