<svg xmlns="http://www.w3.org/2000/svg" xmlns:xlink="http://www.w3.org/1999/xlink" fill="none" version="1.1" width="140" height="88" viewBox="0 0 140 88"><g><g><path d="M16.99481964111328,20.900054931640625Q16.99481964111328,20.826364631640626,17.00203964111328,20.753028931640625Q17.00926964111328,20.679693931640625,17.02363964111328,20.607419931640624Q17.03801964111328,20.535144931640627,17.05940964111328,20.464627931640624Q17.08079964111328,20.394110931640625,17.108999641113282,20.326029931640626Q17.13719964111328,20.257948931640627,17.17193964111328,20.192959931640626Q17.206679641113283,20.127970931640625,17.247619641113282,20.066699931640624Q17.28855964111328,20.005427931640625,17.33529964111328,19.948464931640626Q17.38204964111328,19.891504931640625,17.434159641113283,19.839394931640626Q17.48626964111328,19.787284931640624,17.54322964111328,19.740534931640624Q17.60019264111328,19.693794931640625,17.66146464111328,19.652854931640626Q17.72273564111328,19.611914931640626,17.787724641113282,19.577174931640624Q17.852713641113283,19.542434931640624,17.920794641113282,19.514234931640626Q17.98887564111328,19.486034931640624,18.05939264111328,19.464644931640624Q18.129909641113283,19.443254931640624,18.20218464111328,19.428874931640625Q18.27445864111328,19.414504931640625,18.34779364111328,19.407274931640625Q18.421129341113282,19.400054931640625,18.49481964111328,19.400054931640625Q18.56850994111328,19.400054931640625,18.64184564111328,19.407274931640625Q18.71518064111328,19.414504931640625,18.787454641113282,19.428874931640625Q18.85972964111328,19.443254931640624,18.930246641113282,19.464644931640624Q19.00076364111328,19.486034931640624,19.06884464111328,19.514234931640626Q19.13692564111328,19.542434931640624,19.20191464111328,19.577174931640624Q19.26690364111328,19.611914931640626,19.328174641113282,19.652854931640626Q19.38944664111328,19.693794931640625,19.44640964111328,19.740534931640624Q19.50336964111328,19.787284931640624,19.55547964111328,19.839394931640626Q19.607589641113282,19.891504931640625,19.654339641113282,19.948464931640626Q19.70107964111328,20.005427931640625,19.74201964111328,20.066699931640624Q19.78295964111328,20.127970931640625,19.817699641113283,20.192959931640626Q19.852439641113282,20.257948931640627,19.88063964111328,20.326029931640626Q19.908839641113282,20.394110931640625,19.930229641113282,20.464627931640624Q19.951619641113282,20.535144931640627,19.96599964111328,20.607419931640624Q19.98036964111328,20.679693931640625,19.98759964111328,20.753028931640625Q19.99481964111328,20.826364631640626,19.99481964111328,20.900054931640625L19.99481964111328,37.900054931640625Q19.99481964111328,37.97375493164063,19.98759964111328,38.04705493164062Q19.98036964111328,38.12045493164062,19.96599964111328,38.192654931640625Q19.951619641113282,38.264954931640624,19.930229641113282,38.335454931640626Q19.908839641113282,38.40595493164062,19.88063964111328,38.47405493164062Q19.852439641113282,38.542154931640624,19.817699641113283,38.60715493164062Q19.78295964111328,38.67215493164062,19.74201964111328,38.73345493164062Q19.70107964111328,38.79465493164062,19.654339641113282,38.851654931640624Q19.607589641113282,38.908654931640626,19.55547964111328,38.96075493164062Q19.50336964111328,39.012854931640625,19.44640964111328,39.059554931640626Q19.38944664111328,39.106354931640624,19.328174641113282,39.147254931640624Q19.26690364111328,39.188154931640625,19.20191464111328,39.22295493164063Q19.13692564111328,39.25765493164063,19.06884464111328,39.28585493164063Q19.00076364111328,39.31405493164063,18.930246641113282,39.335454931640626Q18.85972964111328,39.356854931640626,18.787454641113282,39.37125493164062Q18.71518064111328,39.38565493164063,18.64184564111328,39.39285493164063Q18.56850994111328,39.400054931640625,18.49481964111328,39.400054931640625Q18.421129341113282,39.400054931640625,18.34779364111328,39.39285493164063Q18.27445864111328,39.38565493164063,18.20218464111328,39.37125493164062Q18.129909641113283,39.356854931640626,18.05939264111328,39.335454931640626Q17.98887564111328,39.31405493164063,17.920794641113282,39.28585493164063Q17.852713641113283,39.25765493164063,17.787724641113282,39.22295493164063Q17.72273564111328,39.188154931640625,17.66146464111328,39.147254931640624Q17.60019264111328,39.106354931640624,17.54322964111328,39.059554931640626Q17.48626964111328,39.012854931640625,17.434159641113283,38.96075493164062Q17.38204964111328,38.908654931640626,17.33529964111328,38.851654931640624Q17.28855964111328,38.79465493164062,17.247619641113282,38.73345493164062Q17.206679641113283,38.67215493164062,17.17193964111328,38.60715493164062Q17.13719964111328,38.542154931640624,17.108999641113282,38.47405493164062Q17.08079964111328,38.40595493164062,17.05940964111328,38.335454931640626Q17.03801964111328,38.264954931640624,17.02363964111328,38.192654931640625Q17.00926964111328,38.12045493164062,17.00203964111328,38.04705493164062Q16.99481964111328,37.97375493164063,16.99481964111328,37.900054931640625L16.99481964111328,20.900054931640625Z" fill-rule="evenodd" fill="#FFDE55" fill-opacity="1"/></g><g><path d="M13.99492777420044,50.30003051757812C13.99492777420044,43.700020517578125,19.39491777420044,38.300020517578126,25.994917774200438,38.300020517578126C28.19491777420044,38.300020517578126,30.19491777420044,38.90002051757813,31.994917774200438,39.90002051757813C29.29491777420044,37.200020517578125,25.494917774200438,35.500030517578125,21.39491777420044,35.500030517578125C13.194917774200439,35.500030517578125,6.5949177742004395,42.200020517578125,6.5949177742004395,50.30003051757812C6.5949177742004395,58.500030517578125,13.294917774200439,65.10003051757812,21.39491777420044,65.10003051757812C25.59491777420044,65.10003051757812,29.29491777420044,63.400030517578124,31.994917774200438,60.70003051757813C30.19491777420044,61.80003051757812,28.19491777420044,62.400030517578124,25.994917774200438,62.30003051757812C19.39491777420044,62.30003051757812,13.99492777420044,56.900030517578124,13.99492777420044,50.30003051757812Z" fill="#FFDE55" fill-opacity="1"/></g><g><path d="M24.3949182510376,50.40002051757813Q24.3949182510376,50.54486051757812,24.387818251037597,50.689520517578124Q24.3807182510376,50.83419051757812,24.366518251037597,50.978320517578126Q24.352318251037598,51.122460517578126,24.331018251037598,51.26573051757813Q24.309818251037598,51.40900051757812,24.281518251037596,51.551050517578126Q24.253318251037598,51.69311051757813,24.2181182510376,51.83360051757813Q24.1829182510376,51.97410051757812,24.140818251037597,52.112700517578126Q24.0988182510376,52.25130051757812,24.0500182510376,52.38767051757812Q24.0012182510376,52.52404051757813,23.945818251037597,52.657850517578126Q23.890418251037598,52.79166051757812,23.828418251037597,52.92259051757813Q23.766518251037596,53.053530517578125,23.6982182510376,53.181260517578124Q23.630018251037598,53.308990517578124,23.555518251037597,53.433230517578124Q23.481018251037597,53.55746051757812,23.4006182510376,53.677880517578124Q23.3201182510376,53.79831051757812,23.233818251037597,53.91464051757812Q23.147518251037596,54.03098051757813,23.055718251037597,54.142940517578126Q22.963818251037598,54.25490051757812,22.866518251037597,54.36222051757812Q22.7692182510376,54.46953051757812,22.666818251037597,54.571930517578124Q22.564438251037597,54.67433051757813,22.4571182510376,54.771630517578124Q22.349798251037598,54.86893051757812,22.237838251037598,54.960830517578124Q22.125878251037598,55.05263051757812,22.0095482510376,55.138930517578125Q21.8932082510376,55.225230517578126,21.772788251037596,55.30573051757813Q21.652358251037597,55.386130517578124,21.5281282510376,55.460630517578124Q21.403898251037596,55.53503051757812,21.2761582510376,55.60333051757813Q21.148428251037597,55.67163051757812,21.017498251037598,55.733530517578124Q20.8865682510376,55.795430517578126,20.7527482510376,55.85093051757812Q20.618938251037598,55.90633051757813,20.4825682510376,55.95513051757813Q20.3461982510376,56.00393051757813,20.2075982510376,56.04593051757813Q20.0689982510376,56.088030517578126,19.9284982510376,56.12323051757812Q19.788008251037596,56.158430517578125,19.6459482510376,56.18663051757812Q19.503898251037597,56.214930517578125,19.360628251037596,56.236130517578125Q19.2173582510376,56.25743051757813,19.0732182510376,56.271630517578124Q18.9290782510376,56.28583051757813,18.784418251037597,56.29293051757813Q18.6397582510376,56.30003051757812,18.494918251037596,56.30003051757812Q18.350078251037598,56.30003051757812,18.2054182510376,56.29293051757813Q18.060758251037598,56.28583051757813,17.916618251037598,56.271630517578124Q17.772478251037597,56.25743051757813,17.629208251037596,56.236130517578125Q17.4859382510376,56.214930517578125,17.343888251037598,56.18663051757812Q17.201828251037597,56.158430517578125,17.061338251037597,56.12323051757812Q16.920838251037598,56.088030517578126,16.782238251037597,56.04593051757813Q16.643638251037597,56.00393051757813,16.507268251037598,55.95513051757813Q16.370898251037598,55.90633051757813,16.237088251037598,55.85093051757812Q16.103278251037597,55.795430517578126,15.972348251037598,55.733530517578124Q15.841418251037599,55.67163051757812,15.713678251037598,55.60333051757813Q15.585948251037598,55.53503051757812,15.461708251037598,55.460630517578124Q15.337478251037599,55.386130517578124,15.217058251037598,55.30573051757813Q15.096628251037597,55.225230517578126,14.980288251037598,55.138930517578125Q14.863958251037598,55.05263051757812,14.751998251037598,54.960830517578124Q14.640038251037598,54.86893051757812,14.532718251037597,54.771630517578124Q14.425408251037597,54.67433051757813,14.322988251037598,54.571930517578124Q14.220578251037598,54.46953051757812,14.123308251037598,54.36222051757812Q14.026038251037598,54.25490051757812,13.934158251037598,54.142940517578126Q13.842278251037598,54.03098051757813,13.755998251037598,53.91464051757812Q13.669718251037597,53.79831051757812,13.589247251037598,53.677880517578124Q13.508780251037598,53.55746051757812,13.434319251037598,53.43322051757812Q13.359858251037597,53.308990517578124,13.291583251037597,53.181260517578124Q13.223307251037598,53.053530517578125,13.161381251037598,52.922600517578125Q13.099455251037597,52.79166051757812,13.044029251037598,52.657850517578126Q12.988602251037598,52.52404051757813,12.939808251037597,52.38767051757812Q12.891014251037598,52.25130051757812,12.848970251037597,52.112700517578126Q12.806926251037599,51.97410051757812,12.771734251037598,51.83360051757813Q12.736541251037597,51.69311051757813,12.708285251037598,51.551050517578126Q12.680028851037598,51.40900051757812,12.658776851037597,51.26573051757813Q12.637524851037597,51.122460517578126,12.623328351037598,50.978320517578126Q12.609131851037597,50.83419051757812,12.602025061037597,50.689520517578124Q12.594918251037598,50.54486051757812,12.594918251037598,50.40002051757813Q12.594918251037598,50.25519051757813,12.602025061037597,50.110520517578124Q12.609131851037597,49.96586051757812,12.623328351037598,49.82172051757813Q12.637524851037597,49.67758051757812,12.658776851037597,49.53431051757813Q12.680028851037598,49.39105051757812,12.708285251037598,49.24899051757812Q12.736541251037597,49.106940517578124,12.771734251037598,48.96644051757812Q12.806926251037599,48.82595051757812,12.848970251037597,48.687350517578125Q12.891014251037598,48.54875051757813,12.939808251037597,48.41238051757813Q12.988602251037598,48.27601051757812,13.044029251037598,48.14219051757812Q13.099455251037597,48.008380517578125,13.161381251037598,47.877450517578126Q13.223307251037598,47.746520517578126,13.291583251037597,47.61879051757813Q13.359858251037597,47.491050517578124,13.434319251037598,47.36682051757813Q13.508780251037598,47.24259051757812,13.589247251037598,47.12216051757812Q13.669718251037597,47.00174051757813,13.755998251037598,46.88540051757813Q13.842278251037598,46.76907051757812,13.934158251037598,46.657110517578126Q14.026038251037598,46.54515051757812,14.123308251037598,46.43783051757813Q14.220578251037598,46.330510517578126,14.322988251037598,46.22810051757813Q14.425408251037597,46.125680517578125,14.532718251037597,46.02842051757813Q14.640038251037598,45.931150517578125,14.751998251037598,45.83927051757812Q14.863958251037598,45.74738051757812,14.980288251037598,45.66110051757813Q15.096628251037597,45.57483051757813,15.217058251037598,45.49435851757813Q15.337478251037599,45.41389151757812,15.461708251037598,45.33943051757812Q15.585948251037598,45.26496951757812,15.713678251037598,45.19669451757812Q15.841408251037597,45.128418517578126,15.972348251037598,45.066493517578124Q16.103278251037597,45.004567517578124,16.237088251037598,44.94914051757812Q16.370898251037598,44.893714517578125,16.507268251037598,44.844920517578124Q16.643638251037597,44.796126517578124,16.782238251037597,44.75408251757813Q16.920838251037598,44.71203851757812,17.061338251037597,44.67684551757812Q17.201828251037597,44.64165351757813,17.343888251037598,44.61339751757812Q17.4859382510376,44.585141017578124,17.629208251037596,44.56388901757813Q17.772478251037597,44.542637117578124,17.916618251037598,44.52844061757813Q18.060758251037598,44.51424411757812,18.2054182510376,44.50713731757813Q18.350078251037598,44.500030517578125,18.494918251037596,44.500030517578125Q18.6397582510376,44.500030517578125,18.784418251037597,44.50713731757813Q18.9290782510376,44.51424411757812,19.0732182510376,44.52844061757813Q19.2173582510376,44.542637117578124,19.360628251037596,44.56388901757813Q19.503898251037597,44.585141017578124,19.6459482510376,44.61339751757812Q19.788008251037596,44.64165351757813,19.9284982510376,44.67684551757812Q20.0689982510376,44.71203851757812,20.2075982510376,44.75408251757813Q20.3461982510376,44.796126517578124,20.4825682510376,44.844920517578124Q20.618938251037598,44.893714517578125,20.7527482510376,44.94914051757812Q20.8865682510376,45.004567517578124,21.017498251037598,45.066493517578124Q21.148428251037597,45.128418517578126,21.2761582510376,45.19669451757812Q21.403898251037596,45.26496951757812,21.5281282510376,45.33943051757812Q21.652358251037597,45.41389151757812,21.772788251037596,45.49435851757813Q21.8932082510376,45.57483051757813,22.0095482510376,45.66110051757813Q22.125878251037598,45.74738051757812,22.237838251037598,45.83927051757812Q22.349798251037598,45.931150517578125,22.4571182510376,46.02842051757813Q22.564438251037597,46.125680517578125,22.666818251037597,46.22810051757813Q22.7692182510376,46.330510517578126,22.866518251037597,46.43783051757813Q22.963818251037598,46.54515051757812,23.055718251037597,46.657110517578126Q23.147518251037596,46.76907051757812,23.233818251037597,46.88540051757813Q23.3201182510376,47.00174051757813,23.4006182510376,47.12216051757812Q23.481018251037597,47.24259051757812,23.555518251037597,47.36682051757813Q23.630018251037598,47.491050517578124,23.6982182510376,47.61879051757813Q23.766518251037596,47.746520517578126,23.828418251037597,47.877450517578126Q23.890418251037598,48.008380517578125,23.945818251037597,48.14219051757812Q24.0012182510376,48.27601051757812,24.0500182510376,48.41238051757813Q24.0988182510376,48.54875051757813,24.140818251037597,48.687350517578125Q24.1829182510376,48.82595051757812,24.2181182510376,48.96644051757812Q24.253318251037598,49.106940517578124,24.281518251037596,49.24899051757812Q24.309818251037598,49.39105051757812,24.331018251037598,49.53431051757813Q24.352318251037598,49.67758051757812,24.366518251037597,49.82172051757813Q24.3807182510376,49.96586051757812,24.387818251037597,50.110520517578124Q24.3949182510376,50.25519051757813,24.3949182510376,50.40002051757813Z" fill="#FF6B57" fill-opacity="1"/></g><g><path d="M122.19501495361328,39.40008934570312C123.59501495361329,38.80008934570313,124.99500495361328,38.500089345703124,126.59500495361328,38.500089345703124C128.79500495361327,38.500089345703124,130.79500495361327,39.10007934570312,132.5950149536133,40.10007934570312C130.09500495361328,37.50007934570313,126.69502495361328,35.900079345703126,122.79502095361327,35.800079345703125C122.69502095361328,37.00007934570313,122.39501495361328,38.20008934570313,122.19501495361328,39.40008934570312Z" fill="#FFDE55" fill-opacity="1"/></g><g><path d="M115.59485846923828,55.000030517578125C114.29485846923828,56.80003051757812,112.89486846923828,58.60002051757812,111.29486846923828,60.40002051757813C113.99486846923828,63.300020517578126,117.89485846923829,65.10003051757812,122.09486846923828,65.10003051757812C126.29486846923828,65.10003051757812,129.99486846923827,63.400010517578124,132.6948684692383,60.70001051757812C130.89486846923828,61.80001051757812,128.79486846923828,62.400010517578124,126.59486846923828,62.20001051757812C121.69486846923829,62.20001051757812,117.39485846923829,59.30003051757812,115.59485846923828,55.000030517578125Z" fill="#FFDE55" fill-opacity="1"/></g><g><path d="M115.69501495361328,55.10007934570312C116.69501495361328,55.900079345703126,117.89501495361328,56.300079345703125,119.19501495361328,56.300079345703125C122.49501495361328,56.300079345703125,125.09500495361328,53.70008934570313,125.09500495361328,50.40008934570312C125.09500495361328,47.70008934570313,123.19502495361328,45.400079345703126,120.79502495361328,44.800079345703125C119.69502495361328,48.200079345703124,117.99501495361328,51.70009934570312,115.69501495361328,55.10007934570312Z" fill="#FF6B57" fill-opacity="1"/></g></g></svg>