<svg xmlns="http://www.w3.org/2000/svg" xmlns:xlink="http://www.w3.org/1999/xlink" fill="none" version="1.1" width="140" height="107.62322998046875" viewBox="0 0 140 107.62322998046875"><g><g style="opacity:0.6000000238418579;"><path d="M51.199951171875,25.44903564453125C51.299951171875,29.94903564453125,52.599951171875,38.24903564453125,63.199951171875,38.34903564453125C73.799951171875,38.44903564453125,83.199951171875,32.54902564453125,83.199951171875,32.54902564453125C83.199951171875,32.54902564453125,65.299951171875,36.74903564453125,58.999951171875,34.34902564453125C52.599951171875,31.94902564453125,51.199951171875,25.44903564453125,51.199951171875,25.44903564453125Z" fill="#B7AEA9" fill-opacity="1"/></g><g style="opacity:0.6000000238418579;"><path d="M118.79989234375,36.24903564453125C115.69989234375,34.24903564453125,113.39990234375,31.44903564453125,113.39990234375,31.44903564453125C117.89990234375,33.94903564453125,123.79990234375,33.64903564453125,123.69990234375,33.64903564453125C123.69990234375,36.14903564453125,120.89989234375,37.64903564453125,118.79989234375,36.24903564453125Z" fill="#B7AEA9" fill-opacity="1"/></g><g style="opacity:0.4300000071525574;"><path d="M92.5,22.34908447265625C92.4,24.24908447265625,91.7,26.04908447265625,90.5,27.34908447265625C87.5,30.84908447265625,83.6,32.94908447265625,79.4,33.54908447265625C79.4,33.54908447265625,65.39999,35.34908447265625,65.39999,35.34908447265625C62.59999,35.74908447265625,59.8,35.04908447265625,57.5,33.64908447265625C57.5,33.64908447265625,86.9,4.24908447265625,86.9,4.24908447265625C90.5,4.54908447265625,93.2,8.14908447265625,93,12.44908447265625C93,12.44908447265625,92.5,22.34908447265625,92.5,22.34908447265625Z" fill="#FE9DAB" fill-opacity="1"/></g><g style="opacity:0.30000001192092896;"><path d="M50.10009765625,19.44902998046875C50.10009765625,19.44902998046875,50.10009765625,10.94904998046875,50.10009765625,10.94904998046875C50.10009765625,5.54904998046875,54.10009765625,1.24904598046875,58.80009765625,1.64904628046875C58.80009765625,1.64904628046875,86.90009765625,4.24904998046875,86.90009765625,4.24904998046875C86.90009765625,4.24904998046875,57.50008765625,33.64902998046875,57.50008765625,33.64902998046875C53.10008765625,30.94902998046875,50.10009765625,25.64902998046875,50.10009765625,19.44902998046875Z" fill="#FE9DAB" fill-opacity="1"/></g><g style="opacity:0.30000001192092896;"><path d="M112.29985671875,30.84903251953125C110.69985671875,29.84903251953125,109.19986671875,28.34903251953125,107.99986671875,26.34903251953125C107.29987071875,25.14903251953125,106.89985871875,23.54903251953125,106.79985871875,21.84903251953125C106.79985871875,21.84903251953125,106.49987111875,12.94900251953125,106.49987111875,12.94900251953125C106.29987071875,9.149002519531251,107.99985671875,5.84899251953125,110.29985671875,5.54899251953125C110.29985671875,5.54899251953125,127.89988671875,3.24900841953125,127.89988671875,3.24900841953125C130.49988671875,2.94900851953125,132.79988671875,5.94900251953125,133.19988671875,9.94900251953125C133.19988671875,9.94900251953125,112.29985671875,30.84903251953125,112.29985671875,30.84903251953125Z" fill="#FE9DAB" fill-opacity="1"/></g><g style="opacity:0.4300000071525574;"><path d="M133.39990234375,11.74911888671875C133.39990234375,11.74911888671875,133.39990234375,19.34910888671875,133.39990234375,19.34910888671875C133.39990234375,28.04910888671875,128.89990234375,34.74910888671875,123.79990234375,33.74910888671875C123.79990234375,33.74910888671875,115.09991234375,32.04910888671875,115.09991234375,32.04910888671875C114.09991234375,31.84910888671875,113.29990234375,31.44910888671875,112.39990234375,30.94910888671875C112.39990234375,30.94910888671875,133.29990234375,10.14910888671875,133.29990234375,10.14910888671875C133.39990234375,10.64910888671875,133.39990234375,11.14911888671875,133.39990234375,11.74911888671875Z" fill="#FE9DAB" fill-opacity="1"/></g><g><path d="M94.11679765625,22.43072998046875L94.61679765625,12.53072998046875L94.61709765625,12.52422998046875Q94.79379765625,8.72546998046875,92.67269765625,5.88131998046875Q90.46559765625,2.92181998046875,87.04919765625,2.63718998046875L58.937367656250004,0.036129980468750045Q54.63232765625,-0.33026001953124995,51.50448765625,3.01923998046875Q48.48134765625,6.25661998046875,48.48134765625,10.94904998046875L48.48134765625,19.44902998046875Q48.48134765625,27.28902998046875,53.54814765625,32.536029980468754Q58.71834765625,37.89002998046875,65.60649765625,36.95452998046875L79.62899765625,35.15152998046875Q86.81169765625,34.12542998046875,91.71029765624999,28.42442998046875Q93.92859765624999,26.00562998046875,94.11679765625,22.43072998046875ZM91.38339765625,12.36742998046875Q91.38319765624999,12.37062998046875,91.38309765625,12.37382998046875L90.88339765625,22.26742998046875Q90.75619765625001,24.68512998046875,89.31059765625,26.25102998046875Q89.29039765625001,26.27292998046875,89.27099765625,26.29552998046875Q85.16079765625,31.09092998046875,79.17119765625,31.94652998046875L65.19369765625,33.74352998046875Q59.90791765625,34.46132998046875,55.877037656249996,30.28712998046875Q51.71884765625,25.98102998046875,51.71884765625,19.44902998046875L51.71884765625,10.94904998046875Q51.71884765625,7.53320998046875,53.87070765625,5.22885998046875Q55.92501765625,3.02895998046875,58.66282765625,3.26195998046875L86.75089765625,5.86091998046875Q88.74269765625,6.02695998046875,90.07749765625,7.81677998046875Q91.50419765625,9.72992998046875,91.38339765625,12.36742998046875Z" fill-rule="evenodd" fill="#FFFFFF" fill-opacity="1"/></g><g><path d="M105.08325734375,13.13889974609375Q104.83408734375,9.87449974609375,106.12973934375,7.30716974609375Q107.60655134375,4.3808797460937505,110.19011734375,4.04388874609375L127.77872734375,1.74541974609375Q130.97692734375,1.30427974609375,133.14942734375,4.68669974609375Q135.01862734375,7.59702974609375,135.01862734375,11.74899974609375L135.01862734375,19.34893974609375Q135.01862734375,26.28153974609375,131.85822734375,31.01083974609375Q128.38892734375,36.20263974609375,123.48942734375,35.33773974609375L114.79418734375,33.63863974609375Q109.96322734375,32.70953974609375,106.80165034375,27.26463974609375Q105.38810734375,24.84143974609375,105.38116734375,21.97723974609375L105.08325734375,13.13889974609375ZM108.61770734375,21.89443974609375L108.31772734375,12.99444974609375Q108.31649734375,12.95796974609375,108.31361734375,12.92158974609375Q108.12547734375,10.53835974609375,109.02002734375,8.765809746093751Q109.72469734375,7.36951974609375,110.60962734375,7.25408974609375L128.22102734375,4.95254974609375Q129.37052734374998,4.79399974609375,130.42532734374998,6.43627974609375Q131.78112734375,8.547159746093751,131.78112734375,11.74899974609375L131.78112734375,19.34893974609375Q131.78112734375,25.29943974609375,129.16642734375,29.21213974609375Q126.87102734375,32.647239746093746,124.11032734375,32.160339746093754L115.40558734375,30.45933974609375Q112.02258734375,29.80873974609375,109.59813734375,25.63333974609375Q108.61862734375,23.95423974609375,108.61862734375,21.94903974609375Q108.61862734375,21.92173974609375,108.61770734375,21.89443974609375Z" fill-rule="evenodd" fill="#FFFFFF" fill-opacity="1"/></g><g><path d="M27.032859,9.94939564453125L50.132000000000005,10.44937764453125L50.1325,10.44938664453125Q50.2051,10.45095964453125,50.2773,10.45954864453125Q50.3495,10.46813764453125,50.4204,10.48366264453125Q50.4914,10.49918764453125,50.5606,10.52150264453125Q50.6298,10.54381864453125,50.6964,10.57271564453125Q50.7631,10.60161264453125,50.8267,10.63681964453125Q50.890299999999996,10.67202764453125,50.950199999999995,10.71321664453125Q51.010000000000005,10.75440564453125,51.0656,10.80118964453125Q51.121300000000005,10.84797364453125,51.1721,10.89991464453125Q51.222899999999996,10.95185564453125,51.2685,11.00846664453125Q51.314099999999996,11.06507764453125,51.353899999999996,11.12582964453125Q51.3938,11.18658064453125,51.4276,11.25090264453125Q51.4615,11.31522564453125,51.4889,11.38251654453125Q51.516400000000004,11.44980754053125,51.5372,11.51943674453125Q51.558,11.58906564453125,51.572,11.66038064453125Q51.586,11.73169564453125,51.593,11.80402964453125Q51.6,11.87636264453125,51.6,11.94903564453125Q51.6,12.02272564453125,51.5928,12.09606164453125Q51.5856,12.16939664453125,51.571200000000005,12.24167064453125Q51.556799999999996,12.31394564453125,51.535399999999996,12.38446264453125Q51.513999999999996,12.45497564453125,51.4858,12.52306564453125Q51.4576,12.59114564453125,51.4229,12.65612564453125Q51.3881,12.72111564453125,51.3472,12.78239564453125Q51.3063,12.84366564453125,51.2595,12.90062564453125Q51.2128,12.95758564453125,51.1607,13.00969564453125Q51.108599999999996,13.06180564453125,51.0516,13.10855564453125Q50.9946,13.15529564453125,50.9334,13.19623564453125Q50.8721,13.23717564453125,50.8071,13.27191564453125Q50.7421,13.30665564453125,50.674,13.33485564453125Q50.6059,13.36305564453125,50.535399999999996,13.384445644531251Q50.4649,13.40583564453125,50.3926,13.42021564453125Q50.3204,13.43458564453125,50.247,13.44181564453125Q50.1737,13.44903564453125,50.1,13.44903564453125Q50.0838,13.44903564453125,50.067499999999995,13.448685644531249L50.067099999999996,13.44867564453125L26.9679391,12.94869564453125L26.9675401,12.948685644531249Q26.894884,12.94711564453125,26.82272,12.93852564453125Q26.750556,12.92993564453125,26.67956,12.91440564453125Q26.608564,12.89888564453125,26.539402,12.87656564453125Q26.470239,12.85425564453125,26.403558,12.82535564453125Q26.336877,12.79645564453125,26.273301,12.76125564453125Q26.209726,12.72604564453125,26.149852,12.68485564453125Q26.089977,12.64366564453125,26.034365,12.59688564453125Q25.97875,12.55009564453125,25.92792,12.49815564453125Q25.8771,12.44621564453125,25.83153,12.38960464453125Q25.78596,12.33299364453125,25.74607,12.27224164453125Q25.70619,12.21149064453125,25.67237,12.14716764453125Q25.63854,12.08284564453125,25.6111,12.01555464453125Q25.58365,11.94826364453125,25.562829999999998,11.87863464453125Q25.54202,11.80900564453125,25.52804,11.73769064453125Q25.51405,11.66637564453125,25.50703,11.59404164453125Q25.5,11.52170904453125,25.5,11.44903564453125Q25.5,11.37534534453125,25.50722,11.30200964453125Q25.51445,11.22867464453125,25.52882,11.15640064453125Q25.5432,11.08412564453125,25.56459,11.01360864453125Q25.58598,10.94309164453125,25.61418,10.87501064453125Q25.64238,10.80692964453125,25.67712,10.74194064453125Q25.71186,10.67695164453125,25.7528,10.61568064453125Q25.79374,10.55440864453125,25.84048,10.49744564453125Q25.88723,10.44048564453125,25.93934,10.38837564453125Q25.99145,10.33626564453125,26.04841,10.28951564453125Q26.105373,10.24277564453125,26.166645,10.20183564453125Q26.227916,10.16089564453125,26.292905,10.12615564453125Q26.357894,10.09141564453125,26.425975,10.06321564453125Q26.494056,10.03501564453125,26.564573,10.013625644531249Q26.63509,9.99223564453125,26.707365,9.97785564453125Q26.779639,9.96348564453125,26.852974,9.95625564453125Q26.9263097,9.94903564453125,27,9.94903564453125Q27.0162319,9.94903564453125,27.0324599,9.949385644531251L27.032859,9.94939564453125Z" fill-rule="evenodd" fill="#FFFFFF" fill-opacity="1"/></g><g><path d="M105.2779,13.585176425781249Q105.2003,13.53973642578125,105.0559,13.48979642578125Q104.57,13.32176642578125,103.7073,13.24962642578125Q102.05631,13.11155642578125,99.38802,13.36073642578125Q97.43456,13.54316642578125,95.17284,13.90943642578125Q94.08974,14.08483642578125,93.375635,14.224856425781251Q93.190412,14.26900642578125,93,14.26900642578125Q92.9204145,14.26900642578125,92.841212,14.26120642578125Q92.76201,14.25340642578125,92.683954,14.23787642578125Q92.605897,14.22234642578125,92.529739,14.19924642578125Q92.45358,14.17614642578125,92.380053,14.14568642578125Q92.306526,14.11523642578125,92.236337,14.07771642578125Q92.166149,14.04019642578125,92.099976,13.99598642578125Q92.033803,13.95176642578125,91.97228,13.90127642578125Q91.91076,13.850796425781251,91.85449,13.79451642578125Q91.79821,13.738236425781249,91.74772,13.676716425781251Q91.69723,13.61519642578125,91.65302,13.54902642578125Q91.6088,13.48285642578125,91.57129,13.41266642578125Q91.53377,13.34247642578125,91.50332,13.26894642578125Q91.47286,13.19542642578125,91.44976,13.11926642578125Q91.42665,13.04310642578125,91.41113,12.96504642578125Q91.3956,12.88699642578125,91.3878,12.80778642578125Q91.38,12.72858642578125,91.38,12.64900642578125Q91.38,12.50532342578125,91.40529,12.36388742578125Q91.43057,12.22245042578125,91.48036,12.08767242578125Q91.53014,11.95289342578125,91.60287,11.828981425781251Q91.6756,11.70506842578125,91.769,11.59589052578125Q91.8624,11.48671222578125,91.97356,11.39567642578125Q92.084722,11.30464042578125,92.210168,11.23459042578125Q92.335613,11.16453942578125,92.47143,11.11765942578125Q92.607246,11.07078042578125,92.749193,11.04853542578125Q93.517297,10.897861425781251,94.65529,10.71357142578125Q97.02481,10.32984642578125,99.08699,10.13726642578125Q102.04057,9.86144642578125,103.97710000000001,10.02338642578125Q105.2444,10.12936642578125,106.114,10.43008642578125Q107.3407,10.85428842578125,107.9183,11.707463425781249Q108.0655,11.91351842578125,108.1427,12.15465442578125Q108.22,12.39579042578125,108.22,12.64900642578125Q108.22,12.72858642578125,108.2122,12.80778642578125Q108.20439999999999,12.88699642578125,108.1889,12.96504642578125Q108.1734,13.04310642578125,108.1502,13.11926642578125Q108.1271,13.19542642578125,108.0967,13.26894642578125Q108.0662,13.34247642578125,108.0287,13.41266642578125Q107.99119999999999,13.48285642578125,107.947,13.54902642578125Q107.9028,13.61519642578125,107.8523,13.676716425781251Q107.8018,13.738236425781249,107.74549999999999,13.79451642578125Q107.6892,13.850796425781251,107.6277,13.90127642578125Q107.5662,13.95176642578125,107.5,13.99598642578125Q107.4339,14.04019642578125,107.3637,14.07771642578125Q107.2935,14.11523642578125,107.22,14.14568642578125Q107.1464,14.17614642578125,107.0703,14.19924642578125Q106.9941,14.22234642578125,106.9161,14.23787642578125Q106.838,14.25340642578125,106.75880000000001,14.26120642578125Q106.6796,14.26900642578125,106.6,14.26900642578125Q106.4058,14.26900642578125,106.217,14.22308642578125Q106.0283,14.17716642578125,105.8558,14.08792642578125Q105.6832,13.998696425781251,105.5367,13.87119642578125Q105.3901,13.74370642578125,105.2779,13.585176425781249Z" fill-rule="evenodd" fill="#FFFFFF" fill-opacity="1"/></g></g></svg>