<svg xmlns="http://www.w3.org/2000/svg" xmlns:xlink="http://www.w3.org/1999/xlink" fill="none" version="1.1" width="140" height="88" viewBox="0 0 140 88"><g transform="translate(-5 14)"><g><g><path d="M102.00016423950196,71.40006586914062C89.00016423950196,75.99996586914062,73.70016423950196,71.80006586914062,65.00016423950196,63.400065869140626C51.30019623950195,50.20006586914062,47.40020423950195,25.400065869140626,57.80020423950195,15.800065869140624C69.40016423950195,5.100025869140625,101.10016423950195,2.300024869140625,105.50016423950196,2.600024669140625C106.50016423950196,2.7000248691406252,107.70016423950196,2.900028869140625,108.90016423950195,3.300028869140625C114.30016423950195,5.000025869140625,121.20016423950196,9.300025869140626,124.60016423950195,11.500025869140625C126.00016423950196,12.400025869140626,126.90016423950195,13.800065869140624,127.00016423950196,15.500065869140625C127.80016423950195,25.000065869140624,127.40016423950195,47.20006586914062,115.20016423950196,62.10006586914062C111.50016423950196,66.60006586914062,106.90016423950195,69.70006586914063,102.00016423950196,71.40006586914062Z" fill="#FFFFFF" fill-opacity="1"/></g><g><path d="M105.50023057250976,2.600024669140625C101.10023057250976,2.300024869140625,69.30023057250976,5.100025869140625,57.80019057250976,15.800065869140624C47.400190572509764,25.500065869140624,51.20019057250977,50.20006586914062,65.00023057250976,63.400065869140626C73.80023057250976,71.70006586914063,89.10023057250976,75.99996586914062,102.00023057250976,71.40006586914062C108.00023057250976,66.90006586914062,107.10023057250976,55.300065869140624,106.90023057250977,49.900065869140626C106.30023057250978,34.70006586914062,108.60023057250976,32.70006586914063,110.80023057250978,26.300065869140624C113.80023057250978,17.800065869140624,110.00023057250976,6.300025869140625,108.90023057250977,3.300028869140625C107.70023057250977,2.900028869140625,106.50023057250976,2.7000248691406252,105.50023057250976,2.600024669140625Z" fill="#FFFFFF" fill-opacity="1"/></g><g><path d="M106.90019607543945,50.50002452392578C107.10019607543946,56.10002452392578,107.70019607543945,67.00002452392579,102.00019607543945,71.40002452392578C89.00019607543945,76.00002452392579,73.70019607543945,71.80002452392577,65.00019607543945,63.40002452392578C62.000196075439455,60.50002452392578,59.40019607543945,57.00002452392578,57.40019607543945,53.20002452392578C57.600196075439456,52.800024523925785,57.70019607543945,52.40002452392578,57.90019607543945,52.00002452392578C62.90019607543945,42.00002452392578,78.30019607543946,28.00002452392578,89.20019607543945,40.00002452392578C95.00019607543945,44.90002452392578,94.40019607543945,56.40002452392578,106.90019607543945,50.50002452392578Z" fill="#F4F4F4" fill-opacity="1"/></g><g><path d="M124.70018920898437,11.500025939941406C121.30018920898438,9.200025939941407,114.40018920898437,5.000025939941406,109.00018920898438,3.3000259399414062C110.10018920898438,6.300025939941406,113.90018920898437,17.800025939941406,110.90018920898437,26.300025939941406C108.70018920898437,32.700025939941405,106.40018920898437,34.700025939941405,107.00018920898438,49.90002593994141C107.20018920898437,55.300025939941406,108.10018920898438,66.9000259399414,102.10018920898438,71.4000259399414C107.00018920898438,69.70002593994141,111.60018920898438,66.70002593994141,115.30018920898438,62.1000259399414C127.40018920898437,47.200025939941405,127.80018920898438,25.000025939941406,127.10018920898438,15.500025939941406C127.00018920898438,13.900025939941406,126.10018920898438,12.400025939941406,124.70018920898437,11.500025939941406Z" fill="#E8E8E8" fill-opacity="1"/></g><g><g><path d="M92.00019760131836,47.80001983642578Q92.00019760131836,48.20751983642578,91.98019760131837,48.614519836425785Q91.96019760131836,49.02151983642578,91.92029760131837,49.42711983642578Q91.88029760131836,49.83261983642578,91.82049760131835,50.23571983642578Q91.76069760131836,50.63881983642578,91.68119760131836,51.03851983642578Q91.60169760131836,51.43821983642578,91.50269760131836,51.83351983642578Q91.40369760131836,52.228819836425785,91.28539760131835,52.61871983642578Q91.16709760131836,53.00871983642578,91.02979760131836,53.39241983642578Q90.89249760131835,53.77611983642578,90.73659760131835,54.15251983642578Q90.58059760131836,54.52901983642578,90.40639760131836,54.89741983642578Q90.23219760131836,55.26581983642578,90.04009760131837,55.625219836425785Q89.84799760131835,55.98461983642578,89.63849760131836,56.334119836425785Q89.42899760131836,56.68361983642578,89.20259760131836,57.022519836425786Q88.97619760131836,57.36131983642578,88.73339760131836,57.68861983642579Q88.49069760131836,58.01591983642578,88.23219760131836,58.33091983642578Q87.97359760131836,58.64591983642578,87.69999760131836,58.94791983642578Q87.42629760131837,59.249819836425786,87.13819760131835,59.53801983642578Q86.84999760131836,59.82611983642578,86.54809760131836,60.09981983642578Q86.24609760131835,60.37341983642578,85.93109760131836,60.63201983642578Q85.61609760131836,60.89051983642578,85.28879760131836,61.13321983642578Q84.96149760131836,61.37601983642578,84.62269760131836,61.60241983642578Q84.28379760131835,61.82881983642578,83.93429760131836,62.038319836425785Q83.58479760131836,62.247819836425776,83.22539760131836,62.43991983642578Q82.86599760131836,62.63201983642578,82.49759760131836,62.80621983642578Q82.12919760131837,62.98041983642578,81.75269760131836,63.13641983642578Q81.37629760131836,63.29231983642578,80.99259760131835,63.42961983642578Q80.60889760131836,63.56691983642578,80.21889760131836,63.68521983642578Q79.82899760131836,63.80351983642578,79.43369760131836,63.90251983642578Q79.03839760131837,64.00151983642579,78.63869760131836,64.08101983642578Q78.23899760131836,64.16051983642578,77.83589760131835,64.22031983642577Q77.43279760131836,64.28011983642578,77.02729760131837,64.32011983642579Q76.62169760131836,64.36001983642578,76.21469760131836,64.38001983642579Q75.80769760131835,64.40001983642578,75.40019760131835,64.40001983642578Q74.99269760131835,64.40001983642578,74.58569760131836,64.38001983642579Q74.17869760131836,64.36001983642578,73.77309760131836,64.32011983642579Q73.36759760131835,64.28011983642578,72.96449760131836,64.22031983642577Q72.56139760131836,64.16051983642578,72.16169760131837,64.08101983642578Q71.76199760131836,64.00151983642579,71.36669760131836,63.90251983642578Q70.97139760131836,63.80351983642578,70.58149760131836,63.68521983642578Q70.19149760131836,63.56691983642578,69.80779760131836,63.42961983642578Q69.42409760131837,63.29231983642578,69.04769760131836,63.13641983642578Q68.67116760131836,62.98041983642578,68.30277760131835,62.80621983642578Q67.93439760131835,62.63201983642578,67.57500760131836,62.43991983642578Q67.21561760131836,62.247819836425776,66.86608760131836,62.038319836425785Q66.51655760131835,61.82881983642578,66.17772760131837,61.60241983642578Q65.83889760131837,61.37601983642578,65.51158760131835,61.13321983642578Q65.18427760131836,60.89051983642578,64.86926760131836,60.63201983642578Q64.55425760131835,60.37341983642578,64.25231760131835,60.09981983642578Q63.95037760131836,59.82611983642578,63.66222760131836,59.53801983642578Q63.37407760131836,59.249819836425786,63.10040760131836,58.94791983642578Q62.82674760131836,58.64591983642578,62.56822760131836,58.33091983642578Q62.30970760131836,58.01591983642578,62.06694760131836,57.68861983642579Q61.82419760131836,57.36131983642578,61.59779760131836,57.022519836425786Q61.37140760131836,56.68361983642578,61.16189760131836,56.334119836425785Q60.95239760131836,55.98461983642578,60.76030760131836,55.625219836425785Q60.568207601318356,55.26581983642578,60.39397760131836,54.89741983642578Q60.21974760131836,54.52901983642578,60.063797601318356,54.15251983642578Q59.90784760131836,53.77611983642578,59.77056560131836,53.39241983642578Q59.63328060131836,53.00871983642578,59.51498760131836,52.61871983642578Q59.39669460131836,52.228819836425785,59.29767860131836,51.83351983642578Q59.19866260131836,51.43821983642578,59.11916160131836,51.03851983642578Q59.03966160131836,50.63881983642578,58.97986760131836,50.23571983642578Q58.92007360131836,49.83261983642578,58.88013110131836,49.42711983642578Q58.84018840131836,49.02151983642578,58.82019300131836,48.614519836425785Q58.80019760131836,48.20751983642578,58.80019760131836,47.80001983642578Q58.80019760131836,47.39251983642578,58.82019300131836,46.98551983642578Q58.84018840131836,46.578519836425784,58.88013110131836,46.17291983642578Q58.92007360131836,45.76741983642578,58.97986760131836,45.36431983642578Q59.03966160131836,44.961219836425784,59.11916160131836,44.56151983642578Q59.19866260131836,44.16181983642578,59.29767860131836,43.76651983642578Q59.39669460131836,43.37121983642578,59.51498760131836,42.98131983642578Q59.63328060131836,42.59131983642578,59.77056560131836,42.20761983642578Q59.90784760131836,41.82391983642578,60.063797601318356,41.44751983642578Q60.21974760131836,41.07098983642578,60.39397760131836,40.70259983642578Q60.568207601318356,40.33421983642578,60.76030760131836,39.97482983642578Q60.95239760131836,39.61543983642578,61.16189760131836,39.26590983642578Q61.37140760131836,38.91637983642578,61.59779760131836,38.57754983642578Q61.82419760131836,38.23871983642578,62.06694760131836,37.91140983642578Q62.30970760131836,37.58409983642578,62.56822760131836,37.26908983642578Q62.82674760131836,36.954079836425784,63.10040760131836,36.65213983642578Q63.37407760131836,36.35019983642578,63.66222760131836,36.06204983642578Q63.95037760131836,35.773899836425784,64.25231760131835,35.50022983642578Q64.55425760131835,35.22656983642578,64.86926760131836,34.968049836425784Q65.18427760131836,34.70952983642578,65.51158760131835,34.46676983642578Q65.83889760131837,34.22401983642578,66.17772760131837,33.997619836425784Q66.51655760131835,33.77122983642578,66.86608760131836,33.56171983642578Q67.21561760131836,33.35221983642578,67.57500760131836,33.16012983642578Q67.93439760131835,32.96802983642578,68.30277760131835,32.793799836425784Q68.67116760131836,32.61956983642578,69.04769760131836,32.46361983642578Q69.42409760131837,32.30766983642578,69.80779760131836,32.17038783642578Q70.19149760131836,32.03310283642578,70.58149760131836,31.914809836425782Q70.97139760131836,31.79651683642578,71.36669760131836,31.69750083642578Q71.76199760131836,31.598484836425783,72.16169760131837,31.518983836425782Q72.56139760131836,31.439483836425783,72.96449760131836,31.379689836425783Q73.36759760131835,31.319895836425783,73.77309760131836,31.27995333642578Q74.17869760131836,31.240010636425783,74.58569760131836,31.22001523642578Q74.99269760131835,31.20001983642578,75.40019760131835,31.20001983642578Q75.80769760131835,31.20001983642578,76.21469760131836,31.22001523642578Q76.62169760131836,31.240010636425783,77.02729760131837,31.27995333642578Q77.43279760131836,31.319895836425783,77.83589760131835,31.379689836425783Q78.23899760131836,31.439483836425783,78.63869760131836,31.518983836425782Q79.03839760131837,31.598484836425783,79.43369760131836,31.69750083642578Q79.82899760131836,31.79651683642578,80.21889760131836,31.914809836425782Q80.60889760131836,32.03310283642578,80.99259760131835,32.17038783642578Q81.37629760131836,32.30766983642578,81.75269760131836,32.46361983642578Q82.12919760131837,32.61956983642578,82.49759760131836,32.793799836425784Q82.86599760131836,32.96802983642578,83.22539760131836,33.16012983642578Q83.58479760131836,33.35221983642578,83.93429760131836,33.56171983642578Q84.28379760131835,33.77122983642578,84.62269760131836,33.997619836425784Q84.96149760131836,34.22401983642578,85.28879760131836,34.46676983642578Q85.61609760131836,34.70952983642578,85.93109760131836,34.968049836425784Q86.24609760131835,35.22656983642578,86.54809760131836,35.50022983642578Q86.84999760131836,35.773899836425784,87.13819760131835,36.06204983642578Q87.42629760131837,36.35019983642578,87.69999760131836,36.65213983642578Q87.97359760131836,36.954079836425784,88.23219760131836,37.26908983642578Q88.49069760131836,37.58409983642578,88.73339760131836,37.91140983642578Q88.97619760131836,38.23871983642578,89.20259760131836,38.57754983642578Q89.42899760131836,38.91637983642578,89.63849760131836,39.26590983642578Q89.84799760131835,39.61543983642578,90.04009760131837,39.97482983642578Q90.23219760131836,40.33421983642578,90.40639760131836,40.70259983642578Q90.58059760131836,41.07098983642578,90.73659760131835,41.44751983642578Q90.89249760131835,41.82391983642578,91.02979760131836,42.20761983642578Q91.16709760131836,42.59131983642578,91.28539760131835,42.98131983642578Q91.40369760131836,43.37121983642578,91.50269760131836,43.76651983642578Q91.60169760131836,44.16181983642578,91.68119760131836,44.56151983642578Q91.76069760131836,44.961219836425784,91.82049760131835,45.36431983642578Q91.88029760131836,45.76741983642578,91.92029760131837,46.17291983642578Q91.96019760131836,46.578519836425784,91.98019760131837,46.98551983642578Q92.00019760131836,47.39251983642578,92.00019760131836,47.80001983642578Z" fill="#E8E8E8" fill-opacity="1"/></g><g><path d="M86.20019454956055,48.80001983642578Q86.20019454956055,49.20751983642578,86.18019454956055,49.614519836425785Q86.16019454956054,50.02151983642578,86.12029454956055,50.42711983642578Q86.08029454956055,50.83261983642578,86.02049454956054,51.23571983642578Q85.96069454956054,51.63881983642578,85.88119454956055,52.03851983642578Q85.80169454956055,52.43821983642578,85.70269454956055,52.83351983642578Q85.60369454956054,53.228819836425785,85.48539454956054,53.61871983642578Q85.36709454956055,54.00871983642578,85.22979454956055,54.39241983642578Q85.09249454956054,54.77611983642578,84.93659454956054,55.15251983642578Q84.78059454956055,55.52901983642578,84.60639454956055,55.89741983642578Q84.43219454956055,56.26581983642578,84.24009454956055,56.625219836425785Q84.04799454956054,56.98461983642578,83.83849454956055,57.334119836425785Q83.62899454956055,57.68361983642578,83.40259454956055,58.022519836425786Q83.17619454956055,58.36131983642578,82.93339454956055,58.68861983642579Q82.69069454956055,59.01591983642578,82.43219454956055,59.33091983642578Q82.17359454956055,59.64591983642578,81.89999454956055,59.94791983642578Q81.62629454956055,60.249819836425786,81.33819454956054,60.53801983642578Q81.04999454956055,60.82611983642578,80.74809454956055,61.09981983642578Q80.44609454956054,61.37341983642578,80.13109454956054,61.63201983642578Q79.81609454956055,61.89051983642578,79.48879454956055,62.13321983642578Q79.16149454956054,62.37601983642578,78.82269454956055,62.60241983642578Q78.48379454956054,62.82881983642578,78.13429454956055,63.038319836425785Q77.78479454956054,63.247819836425776,77.42539454956055,63.43991983642578Q77.06599454956054,63.63201983642578,76.69759454956055,63.80621983642578Q76.32919454956055,63.98041983642578,75.95269454956055,64.13641983642577Q75.57629454956054,64.29231983642578,75.19259454956054,64.42961983642579Q74.80889454956055,64.56691983642578,74.41889454956055,64.68521983642577Q74.02899454956055,64.80351983642578,73.63369454956054,64.90251983642578Q73.23839454956055,65.00151983642579,72.83869454956054,65.08101983642578Q72.43899454956055,65.16051983642578,72.03589454956054,65.22031983642577Q71.63279454956054,65.28011983642578,71.22729454956055,65.32011983642579Q70.82169454956055,65.36001983642578,70.41469454956055,65.38001983642579Q70.00769454956054,65.40001983642578,69.60019454956054,65.40001983642578Q69.19269454956054,65.40001983642578,68.78569454956055,65.38001983642579Q68.37869454956055,65.36001983642578,67.97309454956054,65.32011983642579Q67.56759454956054,65.28011983642578,67.16449454956054,65.22031983642577Q66.76139454956055,65.16051983642578,66.36169454956055,65.08101983642578Q65.96199454956054,65.00151983642579,65.56669454956055,64.90251983642578Q65.17139454956055,64.80351983642578,64.78149454956055,64.68521983642577Q64.39149454956055,64.56691983642578,64.00779454956054,64.42961983642579Q63.624094549560546,64.29231983642578,63.24769454956055,64.13641983642577Q62.87116454956055,63.98041983642578,62.50277454956055,63.80621983642578Q62.13439454956055,63.63201983642578,61.77500454956055,63.43991983642578Q61.415614549560544,63.247819836425776,61.06608454956054,63.038319836425785Q60.71655454956055,62.82881983642578,60.37772454956055,62.60241983642578Q60.038894549560545,62.37601983642578,59.71158454956055,62.13321983642578Q59.384274549560544,61.89051983642578,59.06926454956054,61.63201983642578Q58.75425454956055,61.37341983642578,58.45231454956055,61.09981983642578Q58.150374549560546,60.82611983642578,57.862224549560544,60.53801983642578Q57.57407454956055,60.249819836425786,57.30040454956055,59.94791983642578Q57.02674454956055,59.64591983642578,56.76822454956055,59.33091983642578Q56.509704549560546,59.01591983642578,56.26694454956055,58.68861983642579Q56.02419454956055,58.36131983642578,55.79779454956055,58.022519836425786Q55.57140454956055,57.68361983642578,55.361894549560546,57.334119836425785Q55.15239454956055,56.98461983642578,54.96030454956055,56.625219836425785Q54.768204549560544,56.26581983642578,54.59397454956055,55.89741983642578Q54.41974454956055,55.52901983642578,54.263794549560544,55.15251983642578Q54.10784454956055,54.77611983642578,53.97056254956055,54.39241983642578Q53.83327754956055,54.00871983642578,53.71498454956055,53.61871983642578Q53.596691549560546,53.228819836425785,53.49767554956055,52.83351983642578Q53.39865954956055,52.43821983642578,53.31915854956055,52.03851983642578Q53.239658549560545,51.63881983642578,53.17986454956055,51.23571983642578Q53.120070549560545,50.83261983642578,53.08012804956055,50.42711983642578Q53.040185349560545,50.02151983642578,53.020189949560546,49.614519836425785Q53.00019454956055,49.20751983642578,53.00019454956055,48.80001983642578Q53.00019454956055,48.39251983642578,53.020189949560546,47.98551983642578Q53.040185349560545,47.578519836425784,53.08012804956055,47.17291983642578Q53.120070549560545,46.76741983642578,53.17986454956055,46.36431983642578Q53.239658549560545,45.961219836425784,53.31915854956055,45.56151983642578Q53.39865954956055,45.16181983642578,53.49767554956055,44.76651983642578Q53.596691549560546,44.37121983642578,53.71498454956055,43.98131983642578Q53.83327754956055,43.59131983642578,53.97056254956055,43.20761983642578Q54.10784454956055,42.82391983642578,54.263794549560544,42.44751983642578Q54.41974454956055,42.07098983642578,54.59397454956055,41.70259983642578Q54.768204549560544,41.33421983642578,54.96030454956055,40.97482983642578Q55.15239454956055,40.61543983642578,55.361894549560546,40.26590983642578Q55.57140454956055,39.91637983642578,55.79779454956055,39.57754983642578Q56.02419454956055,39.23871983642578,56.26694454956055,38.91140983642578Q56.509704549560546,38.58409983642578,56.76822454956055,38.26908983642578Q57.02674454956055,37.954079836425784,57.30040454956055,37.65213983642578Q57.57407454956055,37.35019983642578,57.862224549560544,37.06204983642578Q58.150374549560546,36.773899836425784,58.45231454956055,36.50022983642578Q58.75425454956055,36.22656983642578,59.06926454956054,35.968049836425784Q59.384274549560544,35.70952983642578,59.71158454956055,35.46676983642578Q60.038894549560545,35.22401983642578,60.37772454956055,34.997619836425784Q60.71655454956055,34.77122983642578,61.06608454956054,34.56171983642578Q61.415614549560544,34.35221983642578,61.77500454956055,34.16012983642578Q62.13439454956055,33.96802983642578,62.50277454956055,33.793799836425784Q62.87116454956055,33.61956983642578,63.24769454956055,33.46361983642578Q63.624094549560546,33.30766983642578,64.00779454956054,33.17038783642578Q64.39149454956055,33.03310283642578,64.78149454956055,32.91480983642578Q65.17139454956055,32.79651683642578,65.56669454956055,32.69750083642578Q65.96199454956054,32.59848483642578,66.36169454956055,32.51898383642578Q66.76139454956055,32.43948383642578,67.16449454956054,32.37968983642578Q67.56759454956054,32.31989583642578,67.97309454956054,32.279953336425784Q68.37869454956055,32.24001063642578,68.78569454956055,32.22001523642578Q69.19269454956054,32.20001983642578,69.60019454956054,32.20001983642578Q70.00769454956054,32.20001983642578,70.41469454956055,32.22001523642578Q70.82169454956055,32.24001063642578,71.22729454956055,32.279953336425784Q71.63279454956054,32.31989583642578,72.03589454956054,32.37968983642578Q72.43899454956055,32.43948383642578,72.83869454956054,32.51898383642578Q73.23839454956055,32.59848483642578,73.63369454956054,32.69750083642578Q74.02899454956055,32.79651683642578,74.41889454956055,32.91480983642578Q74.80889454956055,33.03310283642578,75.19259454956054,33.17038783642578Q75.57629454956054,33.30766983642578,75.95269454956055,33.46361983642578Q76.32919454956055,33.61956983642578,76.69759454956055,33.793799836425784Q77.06599454956054,33.96802983642578,77.42539454956055,34.16012983642578Q77.78479454956054,34.35221983642578,78.13429454956055,34.56171983642578Q78.48379454956054,34.77122983642578,78.82269454956055,34.997619836425784Q79.16149454956054,35.22401983642578,79.48879454956055,35.46676983642578Q79.81609454956055,35.70952983642578,80.13109454956054,35.968049836425784Q80.44609454956054,36.22656983642578,80.74809454956055,36.50022983642578Q81.04999454956055,36.773899836425784,81.33819454956054,37.06204983642578Q81.62629454956055,37.35019983642578,81.89999454956055,37.65213983642578Q82.17359454956055,37.954079836425784,82.43219454956055,38.26908983642578Q82.69069454956055,38.58409983642578,82.93339454956055,38.91140983642578Q83.17619454956055,39.23871983642578,83.40259454956055,39.57754983642578Q83.62899454956055,39.91637983642578,83.83849454956055,40.26590983642578Q84.04799454956054,40.61543983642578,84.24009454956055,40.97482983642578Q84.43219454956055,41.33421983642578,84.60639454956055,41.70259983642578Q84.78059454956055,42.07098983642578,84.93659454956054,42.44751983642578Q85.09249454956054,42.82391983642578,85.22979454956055,43.20761983642578Q85.36709454956055,43.59131983642578,85.48539454956054,43.98131983642578Q85.60369454956054,44.37121983642578,85.70269454956055,44.76651983642578Q85.80169454956055,45.16181983642578,85.88119454956055,45.56151983642578Q85.96069454956054,45.961219836425784,86.02049454956054,46.36431983642578Q86.08029454956055,46.76741983642578,86.12029454956055,47.17291983642578Q86.16019454956054,47.578519836425784,86.18019454956055,47.98551983642578Q86.20019454956055,48.39251983642578,86.20019454956055,48.80001983642578Z" fill="#FFFFFF" fill-opacity="1"/></g><g><path d="M79.10019760131836,48.80001678466797Q79.10019760131836,49.055316784667966,79.08769760131835,49.31031678466797Q79.07509760131836,49.56531678466797,79.05009760131836,49.819416784667965Q79.02509760131836,50.07351678466797,78.98759760131836,50.32601678466797Q78.95019760131837,50.57851678466797,78.90039760131836,50.82891678466797Q78.85059760131836,51.07931678466797,78.78849760131835,51.32701678466797Q78.72649760131836,51.57461678466797,78.65239760131836,51.819016784667966Q78.57829760131835,52.06331678466797,78.49229760131836,52.30371678466797Q78.40619760131835,52.54401678466797,78.30849760131835,52.77991678466797Q78.21079760131836,53.01581678466797,78.10169760131836,53.24661678466797Q77.99249760131836,53.477416784667966,77.87219760131836,53.70251678466797Q77.75179760131836,53.927716784667965,77.62059760131837,54.14671678466797Q77.48929760131836,54.36571678466797,77.34749760131837,54.57791678466797Q77.20559760131836,54.79021678466797,77.05359760131836,54.99531678466797Q76.90149760131835,55.20031678466797,76.73949760131836,55.39771678466796Q76.57749760131836,55.59501678466797,76.40609760131835,55.78421678466797Q76.23459760131836,55.97341678466797,76.05409760131836,56.15391678466797Q75.87359760131835,56.334416784667965,75.68439760131835,56.50591678466797Q75.49519760131835,56.677316784667966,75.29789760131835,56.83931678466797Q75.10049760131835,57.001316784667964,74.89549760131837,57.15341678466797Q74.69039760131835,57.30541678466797,74.47809760131835,57.44731678466797Q74.26579760131835,57.589116784667965,74.04689760131836,57.72041678466797Q73.82789760131836,57.85161678466797,73.60269760131835,57.97201678466797Q73.37759760131836,58.09231678466797,73.14679760131835,58.20151678466797Q72.91599760131837,58.31061678466797,72.68009760131835,58.40831678466797Q72.44419760131836,58.50601678466797,72.20379760131836,58.592116784667965Q71.96349760131835,58.678116784667964,71.71919760131836,58.752216784667965Q71.47479760131836,58.826316784667966,71.22719760131835,58.888316784667964Q70.97949760131836,58.950416784667965,70.72909760131836,59.00021678466797Q70.47869760131836,59.05001678466797,70.22619760131836,59.087416784667965Q69.97369760131836,59.124916784667974,69.71959760131836,59.149916784667965Q69.46549760131836,59.17491678466797,69.21049760131837,59.18751678466797Q68.95549760131836,59.200016784667966,68.70019760131837,59.200016784667966Q68.44489760131836,59.200016784667966,68.18988760131836,59.18751678466797Q67.93489760131835,59.17491678466797,67.68081760131835,59.149916784667965Q67.42673760131837,59.124916784667974,67.17419760131835,59.087416784667965Q66.92165760131836,59.05001678466797,66.67125760131836,59.00021678466797Q66.42085760131836,58.950416784667965,66.17319760131836,58.888316784667964Q65.92554760131836,58.826316784667966,65.68123760131836,58.752216784667965Q65.43691760131836,58.678116784667964,65.19653760131835,58.592116784667965Q64.95615760131835,58.50601678466797,64.72028760131836,58.40831678466797Q64.48441760131836,58.31061678466797,64.25361760131835,58.20151678466797Q64.02282760131835,58.09231678466797,63.79766760131836,57.97201678466797Q63.57250760131836,57.85161678466797,63.35352760131836,57.72041678466797Q63.13454760131836,57.589116784667965,62.92226760131836,57.44731678466797Q62.70998760131836,57.30541678466797,62.50492760131836,57.15341678466797Q62.29985760131836,57.001316784667964,62.10250760131836,56.83931678466797Q61.90514760131836,56.677316784667966,61.71598760131836,56.50591678466797Q61.526817601318356,56.334416784667965,61.34628760131836,56.15391678466797Q61.16575760131836,55.97341678466797,60.99430760131836,55.78421678466797Q60.82285760131836,55.59501678466797,60.66088760131836,55.39771678466796Q60.49892760131836,55.20031678466797,60.346837601318356,54.99531678466797Q60.19475760131836,54.79021678466797,60.052917601318356,54.57791678466797Q59.91107760131836,54.36571678466797,59.779817601318356,54.14671678466797Q59.64856760131836,53.927716784667965,59.52821760131836,53.70251678466797Q59.40786760131836,53.477416784667966,59.29870860131836,53.24661678466797Q59.18955160131836,53.01581678466797,59.091850601318356,52.77991678466797Q58.99414860131836,52.54401678466797,58.90813960131836,52.30371678466797Q58.82212960131836,52.06331678466797,58.74801760131836,51.819016784667966Q58.67390660131836,51.57461678466797,58.61187260131836,51.32701678466797Q58.549838601318356,51.07931678466797,58.50003060131836,50.82891678466797Q58.45022260131836,50.57851678466797,58.41276160131836,50.32601678466797Q58.37530080131836,50.07351678466797,58.35027640131836,49.819416784667965Q58.32525210131836,49.56531678466797,58.31272490131836,49.31031678466797Q58.30019760131836,49.055316784667966,58.30019760131836,48.80001678466797Q58.30019760131836,48.54471678466797,58.31272490131836,48.28971678466797Q58.32525210131836,48.03471678466797,58.35027640131836,47.78063678466797Q58.37530080131836,47.52656678466797,58.41276160131836,47.27401678466797Q58.45022260131836,47.02147678466797,58.50003060131836,46.77107678466797Q58.549838601318356,46.52067678466797,58.61187260131836,46.27302678466797Q58.67390660131836,46.025366784667966,58.74801760131836,45.78105678466797Q58.82212960131836,45.53674678466797,58.90813960131836,45.29636678466797Q58.99414860131836,45.05597678466797,59.091850601318356,44.82010678466797Q59.18955160131836,44.584236784667965,59.29870860131836,44.353446784667966Q59.40786760131836,44.12264678466797,59.52821760131836,43.89748678466797Q59.64856760131836,43.672326784667966,59.779817601318356,43.45334678466797Q59.91107760131836,43.23436678466797,60.052917601318356,43.02208678466797Q60.19475760131836,42.80980678466797,60.346837601318356,42.60474678466797Q60.49892760131836,42.39967678466797,60.66088760131836,42.20232678466797Q60.82285760131836,42.00497678466797,60.99430760131836,41.81580678466797Q61.16575760131836,41.626636784667966,61.34628760131836,41.44610678466797Q61.526817601318356,41.26557678466797,61.71598760131836,41.09412678466797Q61.90514760131836,40.92267678466797,62.10250760131836,40.76070678466797Q62.29985760131836,40.598746784667966,62.50492760131836,40.446656784667965Q62.70998760131836,40.29457678466797,62.92226760131836,40.152736784667965Q63.13454760131836,40.01089678466797,63.35352760131836,39.879636784667966Q63.57250760131836,39.74838678466797,63.79766760131836,39.62803678466797Q64.02282760131835,39.50768678466797,64.25361760131835,39.39852778466797Q64.48441760131836,39.289370784667966,64.72028760131836,39.191669784667965Q64.95615760131835,39.09396878466797,65.19653760131835,39.00795878466797Q65.43691760131836,38.92194878466797,65.68123760131836,38.847837784667966Q65.92554760131836,38.77372578466797,66.17319760131836,38.71169178466797Q66.42085760131836,38.649657784667966,66.67125760131836,38.59984978466797Q66.92165760131836,38.55004178466797,67.17419760131835,38.51258078466797Q67.42673760131837,38.47511998466797,67.68081760131835,38.45009558466797Q67.93489760131835,38.42507128466797,68.18988760131836,38.41254408466797Q68.44489760131836,38.40001678466797,68.70019760131837,38.40001678466797Q68.95549760131836,38.40001678466797,69.21049760131837,38.41254408466797Q69.46549760131836,38.42507128466797,69.71959760131836,38.45009558466797Q69.97369760131836,38.47511998466797,70.22619760131836,38.51258078466797Q70.47869760131836,38.55004178466797,70.72909760131836,38.59984978466797Q70.97949760131836,38.649657784667966,71.22719760131835,38.71169178466797Q71.47479760131836,38.77372578466797,71.71919760131836,38.847837784667966Q71.96349760131835,38.92194878466797,72.20379760131836,39.00795878466797Q72.44419760131836,39.09396878466797,72.68009760131835,39.191669784667965Q72.91599760131837,39.289370784667966,73.14679760131835,39.39852778466797Q73.37759760131836,39.50768678466797,73.60269760131835,39.62803678466797Q73.82789760131836,39.74838678466797,74.04689760131836,39.879636784667966Q74.26579760131835,40.01089678466797,74.47809760131835,40.152736784667965Q74.69039760131835,40.29457678466797,74.89549760131837,40.446656784667965Q75.10049760131835,40.598746784667966,75.29789760131835,40.76070678466797Q75.49519760131835,40.92267678466797,75.68439760131835,41.09412678466797Q75.87359760131835,41.26557678466797,76.05409760131836,41.44610678466797Q76.23459760131836,41.626636784667966,76.40609760131835,41.81580678466797Q76.57749760131836,42.00497678466797,76.73949760131836,42.20232678466797Q76.90149760131835,42.39967678466797,77.05359760131836,42.60474678466797Q77.20559760131836,42.80980678466797,77.34749760131837,43.02208678466797Q77.48929760131836,43.23436678466797,77.62059760131837,43.45334678466797Q77.75179760131836,43.672326784667966,77.87219760131836,43.89748678466797Q77.99249760131836,44.12264678466797,78.10169760131836,44.353446784667966Q78.21079760131836,44.584236784667965,78.30849760131835,44.82010678466797Q78.40619760131835,45.05597678466797,78.49229760131836,45.29636678466797Q78.57829760131835,45.53674678466797,78.65239760131836,45.78105678466797Q78.72649760131836,46.025366784667966,78.78849760131835,46.27302678466797Q78.85059760131836,46.52067678466797,78.90039760131836,46.77107678466797Q78.95019760131837,47.02147678466797,78.98759760131836,47.27401678466797Q79.02509760131836,47.52656678466797,79.05009760131836,47.78063678466797Q79.07509760131836,48.03471678466797,79.08769760131835,48.28971678466797Q79.10019760131836,48.54471678466797,79.10019760131836,48.80001678466797Z" fill="#BABABA" fill-opacity="1"/></g><g><g><g><g><path d="M66.59969302368164,39.03886998818359Q66.60019302368164,39.01944968818359,66.60019302368164,39.000022888183594Q66.60019302368164,38.92633258818359,66.59297302368164,38.8529968881836Q66.58574302368164,38.7796618881836,66.57137302368164,38.7073878881836Q66.55699302368164,38.63511288818359,66.53560302368165,38.5645958881836Q66.51421302368163,38.494078888183594,66.48601302368164,38.425997888183595Q66.45781302368164,38.357916888183595,66.42307302368164,38.29292788818359Q66.38833302368164,38.227938888183594,66.34739302368165,38.166667888183596Q66.30645302368164,38.105395888183594,66.25971302368164,38.04843288818359Q66.21296302368164,37.991472888183594,66.16085302368164,37.939362888183595Q66.10874302368164,37.887252888183596,66.05178302368164,37.84050288818359Q65.99482302368165,37.79376288818359,65.93355302368164,37.752822888183594Q65.87227302368164,37.711882888183595,65.80729302368164,37.677142888183596Q65.74230302368164,37.6424028881836,65.67422302368163,37.61420288818359Q65.60613302368164,37.58600288818359,65.53562002368164,37.564612888183596Q65.46510302368164,37.54322288818359,65.39282802368164,37.5288428881836Q65.32055402368164,37.51447288818359,65.24721902368164,37.50724288818359Q65.17388302368164,37.500022888183594,65.10019302368164,37.500022888183594Q65.02772002368164,37.500022888183594,64.95558402368164,37.507012888183596Q64.88344802368164,37.513992888183594,64.81232202368165,37.5279028881836Q64.74119602368164,37.54181288818359,64.67174212368164,37.56251288818359Q64.60228813368164,37.583212888183596,64.53515342368163,37.61051288818359Q64.46801902368163,37.637812888183596,64.40382802368164,37.67146288818359Q64.33963802368164,37.705102888183596,64.27899102368164,37.74478288818359Q64.21834302368164,37.7844628881836,64.16180302368164,37.82980288818359Q64.10526302368164,37.87513288818359,64.05335702368164,37.9257128881836Q64.00145202368164,37.97629288818359,63.95466402368164,38.031640888183595Q63.90787602368164,38.08698788818359,63.86664202368164,38.146587888183596Q63.82540802368164,38.20618788818359,63.79011102368164,38.26948488818359Q63.754815023681644,38.3327818881836,63.72578502368164,38.39918688818359Q63.696756023681644,38.46559288818359,63.67426302368164,38.534486888183594Q63.65177002368164,38.60338188818359,63.63602402368164,38.674123888183594Q63.62027802368164,38.7448658881836,63.61142602368164,38.81679588818359Q63.60257302368164,38.88872688818359,63.60069602368164,38.961175788183596L63.10069302368164,58.261222888183596Q63.10019302368164,58.28062288818359,63.10019302368164,58.30002288818359Q63.10019302368164,58.37372288818359,63.10741302368164,58.4470228881836Q63.11464302368164,58.52042288818359,63.129013023681644,58.5926228881836Q63.14339302368164,58.6649228881836,63.16478302368164,58.73542288818359Q63.18617302368164,58.805922888183595,63.21437302368164,58.87402288818359Q63.24257302368164,58.94212288818359,63.27731302368164,59.007122888183595Q63.31205302368164,59.07212288818359,63.35299302368164,59.133422888183595Q63.39393302368164,59.194622888183595,63.44067302368164,59.25162288818359Q63.48742302368164,59.30862288818359,63.53953302368164,59.360722888183595Q63.59164302368164,59.4128228881836,63.64860302368164,59.45952288818359Q63.70556602368164,59.50632288818359,63.76683802368164,59.5472228881836Q63.82810902368164,59.58812288818359,63.89309802368164,59.622922888183595Q63.95808702368164,59.657622888183596,64.02616802368163,59.685822888183594Q64.09424902368164,59.71402288818359,64.16476602368164,59.73542288818359Q64.23528302368165,59.75682288818359,64.30755802368164,59.771222888183594Q64.37983202368164,59.785622888183596,64.45316702368164,59.79282288818359Q64.52650272368165,59.80002288818359,64.60019302368164,59.80002288818359Q64.67266632368164,59.80002288818359,64.74480202368164,59.79302288818359Q64.81693802368164,59.786022888183595,64.88806402368164,59.77212288818359Q64.95919002368164,59.758222888183596,65.02864402368164,59.73752288818359Q65.09809802368164,59.71682288818359,65.16523302368164,59.68952288818359Q65.23236702368165,59.66222288818359,65.29655802368164,59.62862288818359Q65.36074802368164,59.59492288818359,65.42139502368164,59.55522288818359Q65.48204302368164,59.51562288818359,65.53858302368164,59.47022288818359Q65.59512302368164,59.424922888183595,65.64703302368164,59.3743228881836Q65.69893302368165,59.323722888183596,65.74572302368163,59.26842288818359Q65.79251302368164,59.213022888183595,65.83374302368163,59.1534228881836Q65.87498302368164,59.093822888183595,65.91027302368164,59.0305228881836Q65.94557302368165,58.96722288818359,65.97460302368164,58.9008228881836Q66.00363302368164,58.834422888183596,66.02612302368163,58.7655228881836Q66.04861302368164,58.6966228881836,66.06436302368164,58.625922888183595Q66.08010302368164,58.55522288818359,66.08896302368164,58.48322288818359Q66.09781302368164,58.41132288818359,66.09969302368164,58.33892288818359L66.59969302368164,39.03886998818359Z" fill-rule="evenodd" fill="#A0A0A0" fill-opacity="1"/></g><g><path d="M73.89969607543945,39.03886998818359Q73.90019607543945,39.01944968818359,73.90019607543945,39.000022888183594Q73.90019607543945,38.92633258818359,73.89297607543945,38.8529968881836Q73.88574607543946,38.7796618881836,73.87137607543946,38.7073878881836Q73.85699607543945,38.63511288818359,73.83560607543946,38.5645958881836Q73.81421607543945,38.494078888183594,73.78601607543945,38.425997888183595Q73.75781607543945,38.357916888183595,73.72307607543945,38.29292788818359Q73.68833607543945,38.227938888183594,73.64739607543946,38.166667888183596Q73.60645607543945,38.105395888183594,73.55971607543945,38.04843288818359Q73.51296607543945,37.991472888183594,73.46085607543945,37.939362888183595Q73.40874607543945,37.887252888183596,73.35178607543945,37.84050288818359Q73.29482607543946,37.79376288818359,73.23355607543945,37.752822888183594Q73.17227607543946,37.711882888183595,73.10729607543945,37.677142888183596Q73.04230607543946,37.6424028881836,72.97422607543945,37.61420288818359Q72.90613607543945,37.58600288818359,72.83562307543946,37.564612888183596Q72.76510607543945,37.54322288818359,72.69283107543946,37.5288428881836Q72.62055707543945,37.51447288818359,72.54722207543945,37.50724288818359Q72.47388607543945,37.500022888183594,72.40019607543945,37.500022888183594Q72.32772307543945,37.500022888183594,72.25558707543945,37.507012888183596Q72.18345107543945,37.513992888183594,72.11232507543946,37.5279028881836Q72.04119907543945,37.54181288818359,71.97174517543945,37.56251288818359Q71.90229118543945,37.583212888183596,71.83515647543945,37.61051288818359Q71.76802207543945,37.637812888183596,71.70383107543945,37.67146288818359Q71.63964107543946,37.705102888183596,71.57899407543945,37.74478288818359Q71.51834607543945,37.7844628881836,71.46180607543945,37.82980288818359Q71.40526607543946,37.87513288818359,71.35336007543945,37.9257128881836Q71.30145507543945,37.97629288818359,71.25466707543946,38.031640888183595Q71.20787907543945,38.08698788818359,71.16664507543945,38.146587888183596Q71.12541107543946,38.20618788818359,71.09011407543946,38.26948488818359Q71.05481807543946,38.3327818881836,71.02578807543945,38.39918688818359Q70.99675907543946,38.46559288818359,70.97426607543946,38.534486888183594Q70.95177307543945,38.60338188818359,70.93602707543945,38.674123888183594Q70.92028107543945,38.7448658881836,70.91142907543946,38.81679588818359Q70.90257607543946,38.88872688818359,70.90069907543945,38.961175788183596L70.40069607543946,58.261222888183596Q70.40019607543945,58.28062288818359,70.40019607543945,58.30002288818359Q70.40019607543945,58.37372288818359,70.40741607543946,58.4470228881836Q70.41464607543945,58.52042288818359,70.42901607543945,58.5926228881836Q70.44339607543945,58.6649228881836,70.46478607543945,58.73542288818359Q70.48617607543946,58.805922888183595,70.51437607543946,58.87402288818359Q70.54257607543946,58.94212288818359,70.57731607543946,59.007122888183595Q70.61205607543945,59.07212288818359,70.65299607543945,59.133422888183595Q70.69393607543945,59.194622888183595,70.74067607543945,59.25162288818359Q70.78742607543946,59.30862288818359,70.83953607543945,59.360722888183595Q70.89164607543945,59.4128228881836,70.94860607543946,59.45952288818359Q71.00556907543945,59.50632288818359,71.06684107543946,59.5472228881836Q71.12811207543945,59.58812288818359,71.19310107543946,59.622922888183595Q71.25809007543945,59.657622888183596,71.32617107543945,59.685822888183594Q71.39425207543945,59.71402288818359,71.46476907543945,59.73542288818359Q71.53528607543946,59.75682288818359,71.60756107543945,59.771222888183594Q71.67983507543946,59.785622888183596,71.75317007543946,59.79282288818359Q71.82650577543946,59.80002288818359,71.90019607543945,59.80002288818359Q71.97266937543945,59.80002288818359,72.04480507543946,59.79302288818359Q72.11694107543946,59.786022888183595,72.18806707543945,59.77212288818359Q72.25919307543946,59.758222888183596,72.32864707543945,59.73752288818359Q72.39810107543946,59.71682288818359,72.46523607543945,59.68952288818359Q72.53237007543946,59.66222288818359,72.59656107543945,59.62862288818359Q72.66075107543945,59.59492288818359,72.72139807543945,59.55522288818359Q72.78204607543945,59.51562288818359,72.83858607543945,59.47022288818359Q72.89512607543945,59.424922888183595,72.94703607543946,59.3743228881836Q72.99893607543946,59.323722888183596,73.04572607543945,59.26842288818359Q73.09251607543945,59.213022888183595,73.13374607543945,59.1534228881836Q73.17498607543945,59.093822888183595,73.21027607543945,59.0305228881836Q73.24557607543946,58.96722288818359,73.27460607543945,58.9008228881836Q73.30363607543946,58.834422888183596,73.32612607543945,58.7655228881836Q73.34861607543945,58.6966228881836,73.36436607543945,58.625922888183595Q73.38010607543946,58.55522288818359,73.38896607543946,58.48322288818359Q73.39781607543945,58.41132288818359,73.39969607543945,58.33892288818359L73.89969607543945,39.03886998818359Z" fill-rule="evenodd" fill="#A0A0A0" fill-opacity="1"/></g></g><g><g><path d="M58.83904470131836,50.60052899169922L78.13899760131835,51.10053199169922Q78.21149760131836,51.10240899169922,78.28339760131836,51.111261991699216Q78.35539760131836,51.12011399169922,78.42609760131836,51.13585999169922Q78.49679760131836,51.15160599169922,78.56569760131836,51.17409899169922Q78.63459760131836,51.19659199169922,78.70099760131836,51.225620991699216Q78.76739760131835,51.25465099169922,78.83069760131836,51.28994699169922Q78.89399760131836,51.32524399169922,78.95359760131836,51.36647799169922Q79.01319760131835,51.407711991699216,79.06859760131836,51.454499991699215Q79.12389760131836,51.50128799169922,79.17449760131836,51.55319299169922Q79.22509760131837,51.60509899169922,79.27039760131836,51.66163899169922Q79.31579760131837,51.71817899169922,79.35539760131836,51.77882699169922Q79.39509760131835,51.83947399169922,79.42879760131837,51.90366399169922Q79.46239760131836,51.96785499169922,79.48969760131835,52.03498929169922Q79.51699760131837,52.10212406169922,79.53769760131836,52.171577991699216Q79.55839760131836,52.24103199169922,79.57229760131835,52.312157991699216Q79.58619760131836,52.383283991699216,79.59319760131837,52.455419991699216Q79.60019760131836,52.52755599169922,79.60019760131836,52.60002899169922Q79.60019760131836,52.67371899169922,79.59299760131836,52.747054991699216Q79.58569760131836,52.820389991699216,79.57139760131835,52.892663991699216Q79.55699760131836,52.96493899169922,79.53559760131836,53.035455991699216Q79.51419760131836,53.10596899169922,79.48599760131836,53.17405899169922Q79.45779760131836,53.24213899169922,79.42309760131836,53.30711899169922Q79.38829760131836,53.37210899169922,79.34739760131836,53.43338899169922Q79.30649760131836,53.49465899169922,79.25969760131835,53.55161899169922Q79.21299760131836,53.60857899169922,79.16089760131837,53.66068899169922Q79.10869760131835,53.712798991699216,79.05179760131836,53.75954899169922Q78.99479760131837,53.80628899169922,78.93359760131835,53.84722899169922Q78.87229760131837,53.88816899169922,78.80729760131837,53.92290899169922Q78.74229760131836,53.957648991699216,78.67419760131835,53.98584899169922Q78.60609760131837,54.01404899169922,78.53559760131836,54.035438991699216Q78.46509760131836,54.05682899169922,78.39279760131836,54.071208991699216Q78.32059760131835,54.08557899169922,78.24719760131836,54.09280899169922Q78.17389760131836,54.10002899169922,78.10019760131836,54.10002899169922Q78.08079760131835,54.10002899169922,78.06129760131836,54.099528991699216L58.76135050131836,53.599528991699216Q58.688901601318356,53.59764899169922,58.61697060131836,53.58879899169922Q58.54504060131836,53.579938991699215,58.47429860131836,53.56419899169922Q58.40355660131836,53.54844899169922,58.33466160131836,53.52595899169922Q58.26576760131836,53.50346899169922,58.19936160131836,53.474438991699216Q58.13295660131836,53.44540899169922,58.06965960131836,53.41010899169922Q58.00636260131836,53.37481899169922,57.94676260131836,53.33357899169922Q57.88716260131836,53.29234899169922,57.83181560131836,53.24555899169922Q57.77646760131836,53.19876899169922,57.72588760131836,53.14686899169922Q57.67530760131836,53.094958991699215,57.62997760131836,53.03841899169922Q57.58463760131836,52.98187899169922,57.54495760131836,52.92123099169922Q57.50527760131836,52.860583991699215,57.471637601318356,52.79639399169922Q57.43798760131836,52.73220299169922,57.41068760131836,52.66506899169922Q57.38338760131836,52.59793399169922,57.362687601318356,52.52847999169922Q57.34198760131836,52.45902599169922,57.32807760131836,52.38789999169922Q57.31416760131836,52.31677399169922,57.30718760131836,52.24463799169922Q57.30019760131836,52.17250229169922,57.30019760131836,52.10002899169922Q57.30019760131836,52.026338691699216,57.307417601318356,51.95300299169922Q57.314647601318356,51.87966799169922,57.32901760131836,51.80739399169922Q57.34339760131836,51.73511899169922,57.36478760131836,51.66460199169922Q57.38617760131836,51.59408499169922,57.41437760131836,51.52600399169922Q57.44257760131836,51.45792299169922,57.47731760131836,51.392933991699216Q57.51205760131836,51.32794499169922,57.55299760131836,51.26667399169922Q57.59393760131836,51.20540199169922,57.64067760131836,51.148438991699216Q57.68742760131836,51.09147899169922,57.73953760131836,51.03936899169922Q57.79164760131836,50.98725899169922,57.848607601318356,50.94050899169922Q57.90557060131836,50.89376899169922,57.96684260131836,50.85282899169922Q58.02811360131836,50.81188899169922,58.09310260131836,50.77714899169922Q58.15809160131836,50.74240899169922,58.22617260131836,50.714208991699216Q58.29425360131836,50.68600899169922,58.36477060131836,50.66461899169922Q58.43528760131836,50.64322899169922,58.50756260131836,50.62884899169922Q58.57983660131836,50.614478991699215,58.65317160131836,50.607248991699215Q58.72650730131836,50.60002899169922,58.80019760131836,50.60002899169922Q58.81962440131836,50.60002899169922,58.83904470131836,50.60052899169922Z" fill-rule="evenodd" fill="#A0A0A0" fill-opacity="1"/></g><g><path d="M58.83904470131836,43.30052593994141L78.13899760131835,43.80052893994141Q78.21149760131836,43.80240593994141,78.28339760131836,43.8112589399414Q78.35539760131836,43.82011093994141,78.42609760131836,43.83585693994141Q78.49679760131836,43.85160293994141,78.56569760131836,43.874095939941405Q78.63459760131836,43.89658893994141,78.70099760131836,43.925617939941404Q78.76739760131835,43.95464793994141,78.83069760131836,43.989943939941405Q78.89399760131836,44.025240939941405,78.95359760131836,44.06647493994141Q79.01319760131835,44.1077089399414,79.06859760131836,44.1544969399414Q79.12389760131836,44.20128493994141,79.17449760131836,44.25318993994141Q79.22509760131837,44.30509593994141,79.27039760131836,44.36163593994141Q79.31579760131837,44.418175939941406,79.35539760131836,44.47882393994141Q79.39509760131835,44.53947093994141,79.42879760131837,44.603660939941406Q79.46239760131836,44.66785193994141,79.48969760131835,44.734986239941406Q79.51699760131837,44.80212100994141,79.53769760131836,44.871574939941404Q79.55839760131836,44.941028939941404,79.57229760131835,45.012154939941404Q79.58619760131836,45.0832809399414,79.59319760131837,45.155416939941404Q79.60019760131836,45.227552939941404,79.60019760131836,45.300025939941406Q79.60019760131836,45.373715939941405,79.59299760131836,45.4470519399414Q79.58569760131836,45.5203869399414,79.57139760131835,45.5926609399414Q79.55699760131836,45.66493593994141,79.53559760131836,45.7354529399414Q79.51419760131836,45.80596593994141,79.48599760131836,45.87405593994141Q79.45779760131836,45.94213593994141,79.42309760131836,46.00711593994141Q79.38829760131836,46.07210593994141,79.34739760131836,46.133385939941405Q79.30649760131836,46.194655939941406,79.25969760131835,46.25161593994141Q79.21299760131836,46.308575939941406,79.16089760131837,46.360685939941405Q79.10869760131835,46.412795939941404,79.05179760131836,46.45954593994141Q78.99479760131837,46.50628593994141,78.93359760131835,46.547225939941406Q78.87229760131837,46.588165939941405,78.80729760131837,46.622905939941404Q78.74229760131836,46.6576459399414,78.67419760131835,46.68584593994141Q78.60609760131837,46.71404593994141,78.53559760131836,46.735435939941404Q78.46509760131836,46.75682593994141,78.39279760131836,46.7712059399414Q78.32059760131835,46.78557593994141,78.24719760131836,46.79280593994141Q78.17389760131836,46.800025939941406,78.10019760131836,46.800025939941406Q78.08079760131835,46.800025939941406,78.06129760131836,46.799525939941404L58.76135050131836,46.299525939941404Q58.688901601318356,46.297645939941404,58.61697060131836,46.28879593994141Q58.54504060131836,46.2799359399414,58.47429860131836,46.26419593994141Q58.40355660131836,46.248445939941405,58.33466160131836,46.22595593994141Q58.26576760131836,46.20346593994141,58.19936160131836,46.174435939941404Q58.13295660131836,46.145405939941405,58.06965960131836,46.110105939941405Q58.00636260131836,46.07481593994141,57.94676260131836,46.03357593994141Q57.88716260131836,45.99234593994141,57.83181560131836,45.94555593994141Q57.77646760131836,45.898765939941406,57.72588760131836,45.84686593994141Q57.67530760131836,45.7949559399414,57.62997760131836,45.738415939941405Q57.58463760131836,45.681875939941406,57.54495760131836,45.621227939941406Q57.50527760131836,45.5605809399414,57.471637601318356,45.496390939941406Q57.43798760131836,45.432199939941405,57.41068760131836,45.36506593994141Q57.38338760131836,45.29793093994141,57.362687601318356,45.22847693994141Q57.34198760131836,45.15902293994141,57.32807760131836,45.08789693994141Q57.31416760131836,45.01677093994141,57.30718760131836,44.94463493994141Q57.30019760131836,44.872499239941405,57.30019760131836,44.800025939941406Q57.30019760131836,44.726335639941404,57.307417601318356,44.65299993994141Q57.314647601318356,44.57966493994141,57.32901760131836,44.50739093994141Q57.34339760131836,44.435115939941404,57.36478760131836,44.36459893994141Q57.38617760131836,44.29408193994141,57.41437760131836,44.22600093994141Q57.44257760131836,44.15791993994141,57.47731760131836,44.092930939941404Q57.51205760131836,44.02794193994141,57.55299760131836,43.96667093994141Q57.59393760131836,43.905398939941406,57.64067760131836,43.8484359399414Q57.68742760131836,43.79147593994141,57.73953760131836,43.73936593994141Q57.79164760131836,43.68725593994141,57.848607601318356,43.640505939941406Q57.90557060131836,43.593765939941406,57.96684260131836,43.55282593994141Q58.02811360131836,43.51188593994141,58.09310260131836,43.47714593994141Q58.15809160131836,43.44240593994141,58.22617260131836,43.414205939941404Q58.29425360131836,43.386005939941406,58.36477060131836,43.36461593994141Q58.43528760131836,43.343225939941405,58.50756260131836,43.32884593994141Q58.57983660131836,43.3144759399414,58.65317160131836,43.3072459399414Q58.72650730131836,43.300025939941406,58.80019760131836,43.300025939941406Q58.81962440131836,43.300025939941406,58.83904470131836,43.30052593994141Z" fill-rule="evenodd" fill="#A0A0A0" fill-opacity="1"/></g></g></g></g></g><g><path d="M79.10019888549805,25.400021610839843C91.30018888549805,28.900018610839844,109.60018888549806,29.500018610839845,109.60018888549806,29.500018610839845C109.60018888549806,29.500018610839845,127.80018888549805,37.199988610839846,109.60018888549806,35.99998861083984C91.40018888549804,34.79998861083985,67.00019888549805,21.900018610839844,79.10019888549805,25.400021610839843Z" fill="#E8E8E8" fill-opacity="1"/></g><g><path d="M33.90375654956055,0.7027044140625001Q43.27399454956055,7.7604144140625,56.16289454956055,10.7385344140625Q60.19829454956054,11.6709544140625,64.09439454956055,12.0801244140625Q66.02199454956055,12.2825244140625,67.12429454956055,12.3002244140625Q67.19719454956055,12.3014244140625,67.26969454956054,12.3096244140625Q67.34209454956056,12.3178244140625,67.41349454956054,12.3331244140625Q67.48479454956055,12.3483244140625,67.55429454956055,12.3704244140625Q67.62379454956056,12.3925244140625,67.69089454956054,12.4212244140625Q67.75789454956055,12.4499244140625,67.82179454956054,12.4850244140625Q67.88579454956054,12.5201244140625,67.94599454956054,12.5612244140625Q68.00629454956055,12.6023244140625,68.06219454956054,12.6491244140625Q68.11819454956054,12.6959244140625,68.16929454956055,12.7479244140625Q68.22049454956056,12.7999244140625,68.26639454956054,12.8566244140625Q68.31219454956054,12.9133244140625,68.35239454956056,12.9742244140625Q68.39259454956056,13.0351244140625,68.42659454956055,13.0995244140625Q68.46069454956054,13.1640244140625,68.48829454956055,13.2315244140625Q68.51599454956055,13.2990244140625,68.53689454956054,13.3689244140625Q68.55789454956054,13.4388244140625,68.57199454956054,13.5103244140625Q68.58599454956055,13.5819244140625,68.59309454956055,13.6545244140625Q68.60019454956054,13.7271244140625,68.60019454956054,13.8000244140625Q68.60019454956054,13.8737244140625,68.59299454956054,13.9470244140625Q68.58569454956054,14.0204244140625,68.57139454956055,14.0926244140625Q68.55699454956056,14.1649244140625,68.53559454956056,14.2354244140625Q68.51419454956056,14.3059244140625,68.48599454956054,14.3740244140625Q68.45779454956055,14.4421244140625,68.42309454956055,14.5071244140625Q68.38829454956056,14.5721244140625,68.34739454956055,14.6334244140625Q68.30649454956054,14.6946244140625,68.25969454956055,14.7516244140625Q68.21299454956055,14.8086244140625,68.16089454956054,14.8607244140625Q68.10869454956054,14.9128244140625,68.05179454956055,14.9595244140625Q67.99479454956054,15.0063244140625,67.93349454956055,15.0472244140625Q67.87229454956055,15.0881244140625,67.80729454956054,15.1229244140625Q67.74229454956054,15.1576244140625,67.67419454956055,15.1858244140625Q67.60609454956054,15.2140244140625,67.53559454956056,15.2354244140625Q67.46509454956055,15.2568244140625,67.39279454956055,15.2712244140625Q67.32059454956055,15.2856244140625,67.24719454956055,15.2928244140625Q67.17389454956054,15.3000244140625,67.10019454956054,15.3000244140625Q67.08819454956054,15.3000244140625,67.07609454956054,15.2998244140625L67.07529454956054,15.2998244140625L67.07189454956054,15.2997244140625Q65.83729454956054,15.2796244140625,63.780994549560546,15.0637244140625Q59.70209454956054,14.6353244140625,55.48749454956055,13.6615244140625Q41.97714454956055,10.5398044140625,32.09770654956055,3.0981544140625Q31.958514549560547,2.9933144140625,31.847074549560546,2.8593524140625Q31.735624549560548,2.7253934140625002,31.657854549560547,2.5694524140625Q31.580094549560545,2.4135124140625,31.540144549560548,2.2438964140625Q31.500194549560547,2.0742804140625,31.500194549560547,1.9000244140625Q31.500194549560547,1.8263341140625,31.507414549560547,1.7529984140625001Q31.514644549560547,1.6796634140625,31.529014549560546,1.6073894140625Q31.543394549560546,1.5351144140625,31.564784549560546,1.4645974140625Q31.586174549560546,1.3940804140625,31.614374549560548,1.3259994140625Q31.642574549560546,1.2579184140625,31.677314549560545,1.1929294140625Q31.71205454956055,1.1279404140625,31.752994549560547,1.0666694140625Q31.793934549560547,1.0053974140625002,31.840674549560546,0.9484344140625Q31.887424549560546,0.8914744140624999,31.93953454956055,0.8393644140625001Q31.991644549560547,0.7872544140625,32.048604549560544,0.7405044140624999Q32.10556754956055,0.6937644140624999,32.16683954956055,0.6528244140624999Q32.22811054956055,0.6118844140624999,32.293099549560544,0.5771444140624999Q32.35808854956055,0.5424044140625,32.42616954956055,0.5142044140625Q32.49425054956055,0.48600441406249995,32.56476754956055,0.4646144140624999Q32.635284549560545,0.4432244140624999,32.70755954956055,0.42884441406250007Q32.77983354956055,0.4144744140625001,32.85316854956055,0.4072444140625Q32.926504249560544,0.4000244140625,33.00019454956055,0.4000244140625Q33.244409549560544,0.4000244140625,33.476012549560544,0.47749441406249993Q33.707614549560546,0.5549644140625001,33.902682549560545,0.7018944140625001L33.90375654956055,0.7027044140625001Z" fill-rule="evenodd" fill="#FFFFFF" fill-opacity="1"/></g><g><path d="M24.6416443125,27.232256784667968Q33.7997953125,34.607856784667966,44.943495312500005,39.52781678466797Q50.4970953125,41.97971678466797,54.181895312500004,42.94941678466797Q54.3012953125,42.980816784667965,54.4138953125,43.031316784667965Q54.5264953125,43.08181678466797,54.6293953125,43.15001678466797Q54.7321953125,43.218216784667966,54.822495312499996,43.302316784667966Q54.912795312499995,43.38651678466797,54.9881953125,43.484216784667964Q55.063495312499995,43.58191678466797,55.1218953125,43.69071678466797Q55.1802953125,43.79941678466797,55.2200953125,43.91631678466797Q55.2598953125,44.03311678466797,55.2799953125,44.15481678466797Q55.3001953125,44.276616784667965,55.3001953125,44.40001678466797Q55.3001953125,44.47371678466797,55.2929953125,44.54701678466797Q55.2857953125,44.62041678466797,55.271395312500005,44.69261678466797Q55.256995312499996,44.76491678466797,55.235595312499996,44.83541678466797Q55.214195312499996,44.905916784667966,55.1859953125,44.97401678466797Q55.1577953125,45.04211678466797,55.1230953125,45.107116784667966Q55.0882953125,45.17211678466796,55.0473953125,45.233416784667966Q55.0064953125,45.294616784667966,54.9596953125,45.35161678466797Q54.9129953125,45.40861678466797,54.8608953125,45.460716784667966Q54.808795312499996,45.51281678466797,54.7517953125,45.55951678466797Q54.6947953125,45.60631678466797,54.6335953125,45.64721678466797Q54.5722953125,45.68811678466797,54.5072953125,45.72291678466797Q54.4422953125,45.757616784667974,54.3741953125,45.78581678466797Q54.3060953125,45.81401678466797,54.235595312499996,45.83541678466797Q54.1650953125,45.85681678466797,54.0927953125,45.871216784667965Q54.0205953125,45.885616784667974,53.9471953125,45.89281678466797Q53.8738953125,45.90001678466797,53.8001953125,45.90001678466797Q53.6060953125,45.90001678466797,53.4184953125,45.85061678466797L53.4171953125,45.85031678466797Q49.5023953125,44.81991678466797,43.7318953125,42.27221678466797Q32.2258953125,37.19232678466797,22.7593333125,29.56825678466797Q22.6284153125,29.462816784667968,22.5240853125,29.33101678466797Q22.4197553125,29.199216784667968,22.3471853125,29.04759178466797Q22.2746153125,28.89596678466797,22.2374053125,28.73203978466797Q22.2001953125,28.56811378466797,22.2001953125,28.40001678466797Q22.2001953125,28.32632648466797,22.2074153125,28.25299078466797Q22.2146453125,28.17965578466797,22.2290153125,28.107381784667968Q22.2433953125,28.03510678466797,22.2647853125,27.964589784667968Q22.2861753125,27.89407278466797,22.3143753125,27.82599178466797Q22.3425753125,27.75791078466797,22.3773153125,27.69292178466797Q22.4120553125,27.62793278466797,22.4529953125,27.566661784667968Q22.4939353125,27.50538978466797,22.5406753125,27.44842678466797Q22.5874253125,27.39146678466797,22.6395353125,27.33935678466797Q22.6916453125,27.287246784667968,22.7486053125,27.240496784667968Q22.8055683125,27.19375678466797,22.8668403125,27.15281678466797Q22.9281113125,27.11187678466797,22.9931003125,27.077136784667967Q23.0580893125,27.042396784667968,23.1261703125,27.01419678466797Q23.1942513125,26.985996784667968,23.2647683125,26.964606784667968Q23.3352853125,26.943216784667968,23.4075603125,26.92883678466797Q23.4798343125,26.91446678466797,23.5531693125,26.90723678466797Q23.6265050125,26.90001678466797,23.7001953125,26.90001678466797Q23.9569113125,26.90001678466797,24.1990163125,26.98538678466797Q24.4411213125,27.070756784667967,24.6410573125,27.231776784667968L24.6414083125,27.232066784667968L24.6416443125,27.232256784667968Z" fill-rule="evenodd" fill="#FFFFFF" fill-opacity="1"/></g></g></g></svg>