<svg xmlns="http://www.w3.org/2000/svg" xmlns:xlink="http://www.w3.org/1999/xlink" fill="none" version="1.1" width="140" height="197.99822998046875" viewBox="0 0 140 197.99822998046875"><g><g><path d="M20.11365798248291,20.998294203186035C20.11365798248291,22.798294203186035,19.11366798248291,24.998294203186035,18.21366798248291,26.598294203186036C17.61366798248291,27.798294203186035,16.31365798248291,28.298294203186035,15.113657982482911,27.798294203186035C14.11365898248291,27.398294203186037,13.41365298248291,26.398294203186037,13.51365298248291,25.298294203186035C13.61365298248291,23.698294203186034,13.61365598248291,20.598294203186036,13.31365618248291,14.898294203186035C12.71365598248291,3.698264203186035,20.71366798248291,4.898264403186035,20.71366798248291,4.898264403186035C20.41366798248291,12.798264203186035,23.31361798248291,15.298294203186035,23.31361798248291,15.298294203186035C23.31361798248291,15.298294203186035,20.11365798248291,17.998294203186035,20.11365798248291,20.998294203186035Z" fill="#FFFFFF" fill-opacity="1"/></g><g><g><path d="M19.41364688873291,123.49827117919922C22.71364688873291,109.09827117919922,18.51364688873291,92.79827117919922,14.71365688873291,78.49827117919922C13.21365688873291,72.69827117919922,11.81364688873291,67.29827117919922,11.01364688873291,62.598271179199216C9.71364688873291,54.69827117919922,10.61364688873291,47.098271179199216,13.81364688873291,40.19827117919922C17.71364688873291,31.59828117919922,17.113656888732912,24.09827117919922,17.113656888732912,23.79827117919922C17.113656888732912,23.79827117919922,15.11365688873291,23.99826817919922,15.11365688873291,23.99826817919922C15.11365688873291,24.09826817919922,15.71364688873291,31.19828117919922,12.01364688873291,39.39827117919922C8.61364688873291,46.69827117919922,7.6136468887329105,54.598271179199216,9.01364688873291,62.89827117919922C9.81364688873291,67.69827117919922,11.21365688873291,73.09827117919922,12.71365688873291,78.89827117919921C16.41365688873291,92.99827117919922,20.61364688873291,108.99827117919922,17.41365688873291,122.89827117919921C12.71365688873291,143.09827117919923,44.11364688873291,196.79827117919922,44.91364688873291,197.69827117919922C44.91364688873291,197.69827117919922,46.51364688873291,196.59827117919923,46.51364688873291,196.59827117919923C46.31364688873291,196.3982711791992,15.01365688873291,142.69827117919922,19.41364688873291,123.49827117919922Z" fill="#FFFFFF" fill-opacity="1"/></g></g><g><path d="M20.21378188873291,20.99819193701172C20.21378188873291,22.79818793701172,19.21377188873291,24.998197937011717,18.31377188873291,26.59819793701172C17.71377188873291,27.798197937011718,16.41378188873291,28.298197937011718,15.21378188873291,27.798197937011718C14.21377888873291,27.39819793701172,13.51377258873291,26.39819793701172,13.61377260873291,25.298197937011718C13.61377260873291,24.39819793701172,13.71377288873291,22.89820793701172,13.61377260873291,20.69820393701172C15.71377188873291,21.99820793701172,18.11378188873291,21.39819793701172,20.21378188873291,20.59819793701172C20.21378188873291,20.69819793701172,20.21378188873291,20.89819193701172,20.21378188873291,20.99819193701172Z" fill="#E5E5E5" fill-opacity="1"/></g><g><path d="M106.4136459350586,65.19823435107422C106.1136459350586,65.49823235107422,105.81364593505859,65.69822235107422,105.51364593505859,65.99822235107422C106.1136459350586,69.19822235107422,107.2136459350586,76.79822235107422,105.7136459350586,86.89822235107422C105.01364593505859,91.69822235107422,104.9136459350586,99.09822235107421,104.7136459350586,107.59822235107421C104.4136459350586,123.79822235107422,94.7136459350586,187.39822235107422,90.2136459350586,197.1982223510742C90.2136459350586,197.1982223510742,92.01363593505859,197.99822235107422,92.01363593505859,197.99822235107422C96.71363593505859,187.89822235107422,106.4136459350586,123.99822235107422,106.7136459350586,107.59822235107421C106.9136459350586,99.09822235107421,107.01364593505859,91.79822235107422,107.7136459350586,87.19822235107422C109.51364593505859,75.39822235107422,107.81364593505859,67.09822235107421,107.2136459350586,64.49822235107422C106.9136459350586,64.69822235107422,106.7136459350586,64.99823435107422,106.4136459350586,65.19823435107422Z" fill="#FFFFFF" fill-opacity="1"/></g></g></svg>