<svg xmlns="http://www.w3.org/2000/svg" xmlns:xlink="http://www.w3.org/1999/xlink" fill="none" version="1.1" width="78" height="43" viewBox="0 0 78 43"><g><g><path d="M19.42810201446533,27.878457435302735C19.628102014465334,25.478457435302733,17.828102014465333,23.478457435302733,15.428102014465331,23.378457235302733C13.028102014465333,23.178457435302736,11.028103014465332,24.978457435302733,10.928103014465332,27.378457435302735C10.928103014465332,27.378457435302735,10.828111814465332,30.178457435302732,10.828111814465332,30.178457435302732C10.628112014465332,32.57845743530274,12.428112014465333,34.57847743530273,14.828112014465333,34.67847743530274C17.22811201446533,34.77847743530273,19.22811201446533,32.97845743530274,19.328112014465333,30.678457435302732C19.328112014465333,30.678457435302732,19.42810201446533,27.878457435302735,19.42810201446533,27.878457435302735Z" fill="#423232" fill-opacity="1"/></g><g><path d="M61.228070849609374,29.77840875C61.328070849609375,27.57840875,59.62805084960937,25.67841375,57.42805084960938,25.5784137C55.228050849609374,25.47841365,53.32807184960937,27.17841875,53.22807184960938,29.37841875C53.22807184960938,29.37841875,53.128065829609376,31.97840875,53.128065829609376,31.97840875C53.028065849609376,34.17840875,54.728050849609374,36.07841875,56.92805084960938,36.17841875C59.12805084960937,36.27841875,61.028060849609375,34.57841875,61.128060849609376,32.37841875C61.128060849609376,32.37841875,61.228070849609374,29.77840875,61.228070849609374,29.77840875Z" fill="#423232" fill-opacity="1"/></g><g><path d="M9.093206696508789,25.1571861953125Q7.930218296508789,26.1614301953125,7.585948296508789,27.3663501953125Q7.528238296508789,27.5683501953125,7.528238296508789,27.7784301953125Q7.528238296508789,27.8521201953125,7.535458296508789,27.9254601953125Q7.542688296508789,27.9988001953125,7.557058296508789,28.0710701953125Q7.571438296508789,28.1433401953125,7.592828296508789,28.2138601953125Q7.614218296508789,28.2843801953125,7.642418296508789,28.3524601953125Q7.670618296508789,28.4205401953125,7.7053582965087895,28.4855301953125Q7.740098296508789,28.5505201953125,7.781038296508789,28.6117901953125Q7.821978296508789,28.6730601953125,7.8687182965087885,28.7300201953125Q7.915468296508789,28.786990195312498,7.967578296508789,28.8390901953125Q8.01968829650879,28.8912001953125,8.07664829650879,28.9379501953125Q8.13361129650879,28.9847001953125,8.19488329650879,29.025640195312498Q8.25615429650879,29.0665801953125,8.321143296508788,29.1013201953125Q8.386132296508789,29.1360501953125,8.454213296508788,29.1642501953125Q8.52229429650879,29.1924501953125,8.592811296508788,29.2138501953125Q8.663328296508789,29.2352401953125,8.735603296508788,29.2496101953125Q8.807877296508789,29.263990195312502,8.881212296508789,29.2712101953125Q8.954547996508788,29.2784301953125,9.028238296508789,29.2784301953125Q9.149674296508788,29.2784301953125,9.269528296508788,29.2589001953125Q9.38938329650879,29.2393701953125,9.504534296508789,29.2008101953125Q9.61968529650879,29.1622501953125,9.727134296508789,29.1056701953125Q9.83458329650879,29.0490801953125,9.931531296508789,28.9759601953125Q10.028478296508789,28.9028301953125,10.11239829650879,28.8150601953125Q10.196328296508788,28.7272901953125,10.26503829650879,28.6271601953125Q10.333748296508789,28.5270301953125,10.385458296508789,28.4171601953125Q10.43715829650879,28.3072801953125,10.470528296508789,28.1905201953125Q10.568748296508788,27.8467301953125,11.05389829650879,27.4278101953125Q11.666398296508788,26.8989101953125,12.63238829650879,26.5047801953125Q14.88518829650879,25.5856401953125,17.18812829650879,25.9590901953125Q19.598838296508788,26.3341201953125,21.704338296508787,28.0922901953125Q22.76483829650879,28.977870195312498,23.30093829650879,29.7408601953125Q23.40473829650879,29.8885701953125,23.54063829650879,30.0074401953125Q23.676538296508788,30.1263101953125,23.83673829650879,30.2095401953125Q23.996938296508787,30.2927601953125,24.17233829650879,30.3356001953125Q24.347738296508787,30.3784401953125,24.52823829650879,30.3784401953125Q24.60193829650879,30.3784401953125,24.675238296508788,30.3712201953125Q24.748638296508787,30.3639901953125,24.82083829650879,30.3496201953125Q24.893138296508788,30.3352401953125,24.96363829650879,30.3138501953125Q25.03413829650879,30.2924601953125,25.10223829650879,30.2642601953125Q25.17033829650879,30.2360601953125,25.23533829650879,30.2013201953125Q25.300338296508787,30.1665801953125,25.36163829650879,30.1256401953125Q25.42283829650879,30.0847101953125,25.479838296508788,30.0379601953125Q25.53683829650879,29.9912101953125,25.58893829650879,29.9391001953125Q25.64103829650879,29.8869901953125,25.68773829650879,29.8300301953125Q25.734538296508788,29.7730701953125,25.77543829650879,29.7118001953125Q25.81633829650879,29.6505201953125,25.85113829650879,29.5855401953125Q25.88583829650879,29.5205501953125,25.91403829650879,29.4524701953125Q25.94223829650879,29.3843801953125,25.96363829650879,29.3138701953125Q25.98503829650879,29.2433501953125,25.99943829650879,29.1710801953125Q26.01383829650879,29.0988001953125,26.021038296508788,29.0254701953125Q26.02823829650879,28.9521301953125,26.02823829650879,28.8784401953125Q26.02823829650879,28.6469301953125,25.95843829650879,28.4261901953125Q25.888638296508788,28.2054501953125,25.75553829650879,28.0160201953125Q24.99163829650879,26.9290001953125,23.62713829650879,25.7895801953125Q20.882638296508787,23.4977431953125,17.66833829650879,22.9977701953125Q14.53282829650879,22.4893101953125,11.499078296508788,23.7270821953125Q10.077848296508789,24.3069482953125,9.093206696508789,25.1571861953125Z" fill-rule="evenodd" fill="#423232" fill-opacity="1"/></g><g><path d="M62.66324916870117,30.700447233276368L62.66395916870117,30.70200723327637Q62.70854916870117,30.799547233276368,62.76655916870117,30.889747233276367Q62.82457916870117,30.979947233276366,62.89482916870117,31.06097723327637Q62.96507916870117,31.142007233276367,63.04614916870117,31.212227233276366Q63.127219168701174,31.28243723327637,63.21744916870117,31.340397233276367Q63.307689168701174,31.398367233276367,63.405249168701175,31.442907233276365Q63.50280916870117,31.487437233276367,63.60570916870117,31.517647233276367Q63.708619168701176,31.547847233276368,63.814769168701176,31.56310723327637Q63.92092916870117,31.578367233276367,64.02817916870117,31.578367233276367Q64.10187916870117,31.578367233276367,64.17517916870118,31.571147233276367Q64.24857916870117,31.563917233276367,64.32077916870116,31.549547233276368Q64.39307916870118,31.53516723327637,64.46357916870117,31.513777233276368Q64.53407916870117,31.492387233276368,64.60217916870117,31.464187233276366Q64.67027916870117,31.435987233276368,64.73527916870117,31.401247233276365Q64.80027916870117,31.366507233276366,64.86157916870117,31.325567233276367Q64.92277916870117,31.284627233276368,64.97977916870117,31.237887233276368Q65.03667916870117,31.19113723327637,65.08887916870117,31.139027233276366Q65.14097916870116,31.086917233276367,65.18767916870117,31.029957233276367Q65.23447916870117,30.972997233276367,65.27537916870116,30.911717233276367Q65.31627916870117,30.850447233276366,65.35107916870118,30.785467233276368Q65.38577916870118,30.720477233276366,65.41397916870118,30.652387233276368Q65.44217916870117,30.584307233276366,65.46357916870117,30.513797233276367Q65.48497916870117,30.44327723327637,65.49937916870117,30.371007233276366Q65.51367916870117,30.298727233276367,65.52097916870117,30.225397233276368Q65.52817916870117,30.152057233276366,65.52817916870117,30.078367233276367Q65.52817916870117,29.751767233276368,65.39237916870117,29.454727233276365Q65.24887916870117,29.140887233276366,64.98327916870117,28.724627233276365Q64.47647916870118,27.930357233276368,63.81383916870117,27.267708233276366Q61.62449916870117,25.078367233276367,58.62817916870117,25.078367233276367Q54.98405616870117,25.078367233276367,53.38516016870117,27.302910233276368Q52.853759168701174,28.042247233276367,52.64133916870117,28.928877233276367Q52.52879916870117,29.398587233276366,52.52817916870117,29.774217233276367L52.52817916870117,29.778357233276367Q52.52817916870117,29.852047233276366,52.53539916870117,29.925387233276368Q52.54262916870117,29.998727233276366,52.556999168701175,30.070997233276366Q52.57137916870117,30.14326723327637,52.592769168701174,30.213787233276367Q52.61415916870117,30.284307233276365,52.64235916870117,30.352387233276367Q52.670559168701175,30.420467233276366,52.705299168701174,30.485457233276367Q52.74003916870117,30.550447233276365,52.78097916870117,30.611717233276366Q52.82191916870117,30.672987233276366,52.86865916870117,30.729957233276366Q52.915409168701174,30.786917233276366,52.96751916870117,30.83902723327637Q53.01962916870117,30.891127233276368,53.07658916870117,30.937877233276367Q53.13355316870117,30.984627233276367,53.194824168701174,31.025567233276366Q53.25609516870117,31.06650723327637,53.32108416870117,31.101247233276368Q53.386073168701174,31.135987233276367,53.45415416870117,31.164187233276365Q53.52223516870117,31.192387233276367,53.592752168701175,31.213777233276367Q53.66326916870117,31.235167233276368,53.735544168701175,31.249537233276367Q53.807818168701175,31.263917233276366,53.881153168701175,31.271137233276367Q53.95448886870117,31.278367233276366,54.02817916870117,31.278367233276366Q54.100875368701175,31.278367233276366,54.17323116870117,31.271337233276366Q54.24558616870117,31.26430723327637,54.31692316870117,31.250307233276367Q54.388259168701175,31.236317233276367,54.457908168701174,31.215487233276367Q54.52755816870117,31.194667233276366,54.594866168701174,31.16719723327637Q54.662175168701175,31.139737233276367,54.726513168701175,31.105887233276366Q54.79085016870117,31.07204723327637,54.85161316870117,31.032137233276366Q54.91237616870117,30.992237233276366,54.968996168701175,30.946637233276366Q55.02561516870117,30.901047233276365,55.07755916870117,30.850187233276365Q55.12950916870117,30.799327233276365,55.176289168701175,30.74368723327637Q55.22306916870117,30.688047233276368,55.26425916870117,30.628137233276366Q55.30543916870117,30.568237233276367,55.34063916870117,30.504627233276366Q55.37582916870117,30.441017233276366,55.40471916870117,30.37430723327637Q55.43359916870117,30.30759723327637,55.45588916870117,30.238397233276366Q55.47818916870117,30.169207233276367,55.493689168701174,30.098187233276366Q55.50918916870117,30.027157233276366,55.51774916870117,29.954967233276367Q55.526309168701175,29.882777233276368,55.52783916870117,29.810097233276366Q55.52828916870117,29.80412723327637,55.52931916870117,29.79407723327637Q55.537099168701175,29.718327233276366,55.55876916870117,29.627847233276366Q55.633849168701175,29.314487233276367,55.82119916870117,29.053817233276366Q56.52231916870117,28.078367233276367,58.62817916870117,28.078367233276367Q60.38185916870117,28.078367233276367,61.692519168701175,29.389027233276366Q62.12361916870117,29.820127233276366,62.45429916870117,30.33835723327637Q62.606469168701175,30.57683723327637,62.66324916870117,30.700447233276368Z" fill-rule="evenodd" fill="#423232" fill-opacity="1"/></g><g><path d="M29.42812847442627,4.278397953674316C30.72812847442627,4.778397953674316,31.62812847442627,5.678410953674316,32.328128474426265,6.678410953674316C33.52812847442627,8.678410953674316,32.42812847442627,11.278390953674316,30.22812847442627,11.478390953674317C20.22812847442627,12.378390953674316,3.0281284744262695,17.678400953674316,7.82813047442627,11.978390953674317C13.22812847442627,5.778390953674316,25.62812847442627,3.0783979536743162,29.42812847442627,4.278397953674316Z" fill="#423232" fill-opacity="1"/></g><g><path d="M58.628197971191405,6.778417285198975C57.5281979711914,6.978417485198975,56.528177971191404,7.678413485198974,55.828181971191405,8.478417485198975C54.42818097119141,10.078417485198974,54.928199471191405,12.578417485198974,56.628197971191405,13.078417485198974C64.7281979711914,15.078417485198974,74.0281579711914,20.278457485198974,72.0281579711914,15.178427485198975C69.8281579711914,9.278427485198975,62.0281979711914,6.178417485198975,58.628197971191405,6.778417285198975Z" fill="#423232" fill-opacity="1"/></g></g></svg>