<svg xmlns="http://www.w3.org/2000/svg" xmlns:xlink="http://www.w3.org/1999/xlink" fill="none" version="1.1" width="78" height="43" viewBox="0 0 78 43"><g><g><path d="M8.440171070220947,20.105160650634765Q12.631353070220946,23.233710650634766,17.60754307022095,24.436490650634767Q19.152543070220947,24.809910650634766,20.580843070220947,24.946640650634766Q21.266043070220945,25.012230650634766,21.62124307022095,25.007160650634766Q21.63194307022095,25.007000650634765,21.64264307022095,25.007000650634765Q21.716343070220947,25.007000650634765,21.789643070220947,25.014230650634765Q21.863043070220947,25.021450650634765,21.93524307022095,25.035830650634765Q22.007543070220947,25.050200650634764,22.078043070220946,25.071590650634764Q22.14864307022095,25.092990650634764,22.216643070220947,25.121180650634766Q22.284743070220948,25.149390650634764,22.349743070220946,25.184120650634767Q22.414743070220947,25.218860650634767,22.476043070220946,25.259800650634766Q22.537243070220946,25.300740650634765,22.594243070220948,25.347490650634764Q22.651243070220946,25.394240650634764,22.703343070220946,25.446340650634767Q22.75544307022095,25.498450650634766,22.802143070220946,25.555410650634766Q22.848943070220948,25.612380650634766,22.889843070220948,25.673650650634766Q22.930843070220945,25.734920650634766,22.965543070220946,25.799910650634764Q23.000243070220947,25.864900650634766,23.028443070220945,25.932980650634764Q23.056643070220947,26.001060650634766,23.078043070220946,26.071580650634765Q23.09944307022095,26.142090650634763,23.113843070220945,26.214370650634766Q23.128243070220947,26.286640650634766,23.135443070220948,26.359980650634768Q23.14264307022095,26.433310650634766,23.14264307022095,26.507000650634765Q23.14264307022095,26.580020650634765,23.135543070220947,26.652700650634767Q23.128443070220946,26.725370650634765,23.114343070220947,26.797010650634768Q23.100243070220948,26.868650650634766,23.079243070220947,26.938580650634766Q23.058243070220946,27.008520650634765,23.030543070220947,27.076080650634765Q23.002843070220948,27.143640650634765,22.96864307022095,27.208190650634766Q22.934543070220947,27.272740650634766,22.89434307022095,27.333670650634765Q22.854043070220946,27.394600650634764,22.808043070220947,27.451330650634766Q22.762143070220947,27.508060650634768,22.710843070220946,27.560060650634767Q22.659643070220948,27.612060650634767,22.603543070220947,27.658840650634765Q22.547443070220947,27.705610650634767,22.487143070220945,27.746720650634764Q22.426743070220947,27.787830650634767,22.362743070220947,27.822880650634765Q22.298643070220947,27.857930650634763,22.231443070220948,27.886600650634765Q22.164343070220948,27.915260650634764,22.094743070220947,27.937270650634765Q22.025043070220946,27.959270650634764,21.95364307022095,27.974410650634766Q21.882243070220948,27.989550650634765,21.809643070220947,27.997680650634766Q21.73704307022095,28.005810650634764,21.66404307022095,28.006850650634767L21.662043070220946,28.006880650634766Q21.142543070220945,28.014120650634766,20.29504307022095,27.932990650634764Q18.65464307022095,27.775970650634765,16.902733070220947,27.352520650634766Q11.329793070220948,26.005510650634765,6.6465680702209475,22.509940650634764L6.6453540702209475,22.509040650634766Q6.5050530702209475,22.404310650634766,6.392643070220947,22.270081650634765Q6.280233070220947,22.135854650634766,6.201763070220947,21.979346650634767Q6.123283070220947,21.822838650634765,6.082963070220947,21.652464650634766Q6.042643070220947,21.482090650634767,6.042643070220947,21.307010650634766Q6.042643070220947,21.233320350634767,6.0498630702209475,21.159984650634765Q6.057093070220947,21.086649650634765,6.071463070220947,21.014375650634765Q6.085843070220947,20.942100650634767,6.107233070220947,20.871583650634765Q6.128623070220947,20.801066650634766,6.156823070220947,20.732985650634767Q6.185023070220947,20.664904650634767,6.219763070220948,20.599915650634767Q6.254503070220947,20.534926650634766,6.295443070220947,20.473655650634765Q6.336383070220947,20.412383650634766,6.383123070220947,20.355420650634766Q6.429873070220947,20.298460650634766,6.481983070220947,20.246350650634767Q6.534093070220948,20.194240650634764,6.591053070220947,20.147490650634765Q6.648016070220947,20.100750650634765,6.709288070220947,20.059810650634766Q6.770559070220948,20.018870650634767,6.8355480702209475,19.984130650634764Q6.900537070220947,19.949390650634765,6.9686180702209475,19.921190650634767Q7.036699070220948,19.892990650634765,7.1072160702209475,19.871600650634765Q7.177733070220947,19.850210650634764,7.2500080702209475,19.835830650634765Q7.322282070220948,19.821460650634766,7.395617070220947,19.814230650634766Q7.468952770220947,19.807010650634766,7.542643070220947,19.807010650634766Q7.7851910702209475,19.807010650634766,8.015378070220947,19.883450650634767Q8.245565070220948,19.959890650634765,8.439932070220948,20.104980650634765L8.440171070220947,20.105160650634765Z" fill-rule="evenodd" fill="#423232" fill-opacity="1"/></g><g><path d="M61.8426513671875,24.9069580078125Q61.988751367187504,24.7122250078125,62.0656513671875,24.4813000078125Q62.1426513671875,24.2503750078125,62.1426513671875,24.0069580078125Q62.1426513671875,23.9332677078125,62.1354513671875,23.8599320078125Q62.1282513671875,23.7865970078125,62.1138513671875,23.7143230078125Q62.0994513671875,23.6420480078125,62.0780513671875,23.5715310078125Q62.0566513671875,23.5010140078125,62.0284513671875,23.4329330078125Q62.0002513671875,23.3648520078125,61.9655513671875,23.2998630078125Q61.9308513671875,23.2348740078125,61.889851367187504,23.1736030078125Q61.848951367187496,23.1123310078125,61.8021513671875,23.0553680078125Q61.755451367187504,22.9984080078125,61.7033513671875,22.9462980078125Q61.6512513671875,22.8941880078125,61.594251367187496,22.8474380078125Q61.5372513671875,22.8006980078125,61.4760513671875,22.7597580078125Q61.4147513671875,22.7188180078125,61.3497513671875,22.6840780078125Q61.2847813671875,22.6493380078125,61.2167013671875,22.6211380078125Q61.1486213671875,22.5929380078125,61.0781013671875,22.5715480078125Q61.0075813671875,22.5501580078125,60.9353113671875,22.5357780078125Q60.8630313671875,22.5214080078125,60.789701367187504,22.5141780078125Q60.7163613671875,22.5069580078125,60.6426713671875,22.5069580078125Q60.468021367187504,22.5069580078125,60.2980413671875,22.5470880078125Q60.1280613671875,22.5872080078125,59.9718513671875,22.665318007812502Q59.815641367187496,22.7434280078125,59.6815513671875,22.8553280078125Q59.5474613671875,22.9672380078125,59.4426713671875,23.1069580078125Q58.4140113671875,24.4785060078125,54.7386013671875,25.6813680078125Q52.7747713671875,26.3240780078125,51.0768223671875,26.6307080078125L51.0761283671875,26.6308380078125Q50.9473643671875,26.6540880078125,50.8245703671875,26.6992780078125Q50.7017763671875,26.7444680078125,50.5886623671875,26.8102380078125Q50.4755483671875,26.8760080078125,50.3755303671875,26.960368007812498Q50.2755113671875,27.0447380078125,50.1916113671875,27.1451380078125Q50.1077113671875,27.2455480078125,50.0424613671875,27.3589680078125Q49.9772113671875,27.4723780078125,49.9325913671875,27.5953780078125Q49.8879613671875,27.7183780078125,49.8653113671875,27.8472480078125Q49.8426513671875,27.9761180078125,49.8426513671875,28.1069680078125Q49.8426513671875,28.1806580078125,49.8498713671875,28.2539880078125Q49.8571013671875,28.3273280078125,49.8714713671875,28.3995980078125Q49.8858513671875,28.4718780078125,49.9072413671875,28.542388007812498Q49.9286313671875,28.6129080078125,49.9568313671875,28.680988007812502Q49.9850313671875,28.7490680078125,50.0197713671875,28.8140580078125Q50.0545113671875,28.8790480078125,50.0954513671875,28.9403180078125Q50.1363913671875,29.0015880078125,50.1831313671875,29.0585580078125Q50.2298813671875,29.1155180078125,50.2819913671875,29.1676280078125Q50.3341013671875,29.2197280078125,50.3910613671875,29.266478007812502Q50.4480243671875,29.313228007812498,50.5092963671875,29.3541680078125Q50.5705673671875,29.3951080078125,50.6355563671875,29.4298480078125Q50.7005453671875,29.4645880078125,50.7686263671875,29.4927880078125Q50.8367073671875,29.520988007812498,50.9072243671875,29.542378007812502Q50.9777413671875,29.5637680078125,51.0500163671875,29.5781480078125Q51.1222903671875,29.5925180078125,51.1956253671875,29.5997480078125Q51.2689610671875,29.6069680078125,51.3426513671875,29.6069680078125Q51.4769973671875,29.6069680078125,51.6092043671875,29.5830880078125L51.6109723671875,29.5827780078125Q53.5119613671875,29.2393880078125,55.6717213671875,28.5325580078125Q60.2450913671875,27.0358180078125,61.8418513671875,24.9081080078125L61.842351367187504,24.9073830078125L61.8426513671875,24.9069580078125L61.8426513671875,24.9069580078125Z" fill-rule="evenodd" fill="#423232" fill-opacity="1"/></g><g><path d="M29.84273896484375,12.506946662139892C30.64273896484375,13.606956662139893,30.84273896484375,14.906956662139892,30.84273896484375,16.106996662139892C30.74273896484375,18.406996662139893,28.34273896484375,19.906996662139893,26.44273896484375,18.806996662139895C17.742738964843753,13.806956662139893,0.6427489648437499,8.306946662139893,7.64274896484375,6.506950662139893C15.74274896484375,4.406946662139893,27.44273896484375,9.306946662139893,29.84273896484375,12.506946662139892Z" fill="#423232" fill-opacity="1"/></g><g><path d="M53.54304064208984,14.406997099914552C53.043040512089846,15.406997099914552,52.94304664208985,16.60698709991455,53.143046742089844,17.70698709991455C53.44304664208985,19.80700709991455,55.74305064208984,21.10700709991455,57.14305064208985,20.007007099914553C63.84307064208984,15.106987099914551,73.74307064208985,11.20699709991455,68.54307064208984,9.30699409991455C62.543050642089845,7.30699709991455,55.143040642089844,11.406997099914552,53.54304064208984,14.406997099914552Z" fill="#423232" fill-opacity="1"/></g><g><path d="M17.4427051171875,26.50692359375C17.4427051171875,26.50692359375,17.342715117187502,29.30693359375,17.342715117187502,29.30693359375C17.2427151171875,31.60693359375,15.242715117187501,33.40693359375,12.842715117187499,33.30693359375C10.5427151171875,33.20693359375,8.7427184171875,31.20693359375,8.8427183771875,28.80693359375C8.8427183771875,28.80693359375,8.9427091171875,26.00692359375,8.9427091171875,26.00692359375C9.0427091171875,24.90692359375,9.5427181171875,23.80693359375,10.3427151171875,23.10693359375C12.5427151171875,24.90693359375,14.8427051171875,26.00692359375,17.4427051171875,26.20692359375C17.4427051171875,26.30692359375,17.4427051171875,26.40692359375,17.4427051171875,26.50692359375Z" fill="#423232" fill-opacity="1"/></g><g><path d="M59.34296241943359,28.506972421875C59.34296241943359,28.506972421875,59.242982419433595,31.106982421875,59.242982419433595,31.106982421875C59.142982419433594,33.306982421875,57.24297241943359,35.006982421875,55.042972419433596,34.906982421875C52.84297241943359,34.806982421875,51.142987419433595,32.906972421875,51.242987409433596,30.706972421875C51.242987409433596,30.706972421875,51.342963419433595,28.106982421875,51.342963419433595,28.106982421875C51.342963419433595,28.006982421875,51.342963419433595,28.006982421875,51.342963419433595,27.906982421875C53.94296241943359,27.506982421875,56.34297241943359,27.206982421875,58.542972419433596,25.906982421875C59.042972419433596,26.606982421875,59.44296241943359,27.506972421875,59.34296241943359,28.506972421875Z" fill="#423232" fill-opacity="1"/></g></g></svg>