<svg xmlns="http://www.w3.org/2000/svg" xmlns:xlink="http://www.w3.org/1999/xlink" fill="none" version="1.1" width="78" height="43" viewBox="0 0 78 43"><g><g><path d="M29.59709582977295,5.411280953674316C30.68329582977295,6.111280953674316,31.37459582977295,7.211280953674317,31.76959582977295,8.411280953674316C32.559595829772945,10.611280953674317,30.88079582977295,12.911270953674316,28.70829582977295,12.611270953674316C18.83329582977295,11.211270953674315,1.2558258297729497,12.311280953674316,7.082075829772949,7.911280953674316C13.69832582977295,3.1112789536743164,26.23959582977295,3.3112789536743166,29.59709582977295,5.411280953674316Z" fill="#423232" fill-opacity="1"/></g><g><path d="M56.25912974853516,7.111266579498291C55.271629748535155,7.611262579498291,54.58039374853516,8.511262579498291,54.08664374853516,9.511262579498291C53.19789374853516,11.411262579498292,54.28414374853516,13.711252579498291,56.06164974853515,13.711252579498291C64.25787974853516,13.611252579498291,74.42917974853515,16.11126257949829,71.17037974853515,11.611262579498291C67.51667974853515,6.511266279498291,59.32037974853516,5.611266579498291,56.25912974853516,7.111266579498291Z" fill="#423232" fill-opacity="1"/></g><g><path d="M8.607846665527344,22.952686025634765L8.607037665527344,22.952881025634767Q8.485103665527344,22.982222025634766,8.369734665527345,23.031404025634764Q8.254365665527343,23.080586025634766,8.148766665527344,23.148244025634767Q8.043166665527345,23.215901025634764,7.950269665527344,23.300155025634766Q7.857369665527344,23.384409025634767,7.779749665527344,23.482919525634767Q7.702129665527344,23.581430125634764,7.641949665527344,23.691462025634767Q7.581769665527344,23.801494025634767,7.5406996655273435,23.919992025634766Q7.4996196655273435,24.038490025634765,7.478799665527344,24.162164025634766Q7.457969665527344,24.285837025634766,7.457969665527344,24.411252025634766Q7.457969665527344,24.484942025634766,7.465189665527344,24.558275025634767Q7.472419665527344,24.631615025634765,7.486789665527343,24.703885025634765Q7.501169665527343,24.776165025634764,7.522559665527344,24.846675025634767Q7.543949665527344,24.917195025634765,7.572149665527344,24.985275025634767Q7.600349665527344,25.053355025634765,7.635089665527344,25.118345025634767Q7.6698296655273435,25.183335025634765,7.710769665527343,25.244605025634765Q7.751709665527343,25.305875025634766,7.798449665527343,25.362845025634766Q7.8451996655273435,25.419805025634766,7.897309665527343,25.471915025634765Q7.949419665527344,25.524015025634764,8.006379665527344,25.570765025634767Q8.063342665527344,25.617515025634766,8.124614665527345,25.658455025634765Q8.185885665527344,25.699395025634765,8.250874665527343,25.734135025634764Q8.315863665527344,25.768875025634767,8.383944665527343,25.797075025634765Q8.452025665527344,25.825275025634767,8.522542665527343,25.846665025634767Q8.593059665527344,25.868055025634767,8.665334665527343,25.882425025634767Q8.737608665527343,25.896805025634766,8.810943665527343,25.904025025634766Q8.884279365527343,25.911255025634766,8.957969665527344,25.911255025634766Q9.135904665527343,25.911255025634766,9.308901665527344,25.869625025634765L9.310449665527344,25.869255025634764Q9.883652665527343,25.731415025634767,10.865479665527344,25.565205025634764Q12.853959665527343,25.228595025634764,14.826049665527343,25.108475025634764Q20.984469665527342,24.733345025634765,24.571169665527343,26.547995025634766L24.572369665527344,26.548595025634764L24.574169665527343,26.549475025634766Q24.893569665527345,26.711235025634764,25.251769665527345,26.711235025634764Q25.325369665527344,26.711235025634764,25.398769665527343,26.704015025634767Q25.472069665527343,26.696795025634767,25.544369665527345,26.682415025634764Q25.616669665527343,26.668045025634765,25.687169665527342,26.646645025634765Q25.757669665527345,26.625255025634765,25.825769665527343,26.597055025634766Q25.893869665527344,26.568855025634765,25.958769665527345,26.534125025634765Q26.023769665527343,26.499385025634766,26.085069665527342,26.458445025634767Q26.146369665527345,26.417505025634767,26.203269665527344,26.370755025634764Q26.260269665527343,26.324005025634765,26.312369665527342,26.271895025634766Q26.364469665527345,26.219795025634767,26.411269665527342,26.162825025634767Q26.457969665527344,26.105865025634767,26.498969665527344,26.044595025634766Q26.539869665527345,25.983325025634766,26.574569665527342,25.918335025634764Q26.609369665527343,25.853345025634766,26.637569665527344,25.785265025634764Q26.665769665527343,25.717185025634766,26.687169665527342,25.646665025634764Q26.708569665527342,25.576145025634766,26.722869665527345,25.503875025634766Q26.737269665527343,25.431595025634767,26.744469665527344,25.358265025634765Q26.751769665527345,25.284925025634767,26.751769665527345,25.211235025634764Q26.751769665527345,25.107755025634766,26.737469665527342,25.005245025634764Q26.723269665527344,24.902745025634765,26.695169665527345,24.803165025634765Q26.666969665527343,24.703575025634766,26.625469665527344,24.608805025634766Q26.583869665527345,24.514034025634764,26.529669665527344,24.425867025634766Q26.475469665527342,24.337700025634767,26.409769665527342,24.257809025634767Q26.343969665527343,24.177918025634767,26.267869665527343,24.107817025634766Q26.191669665527343,24.037716025634765,26.106669665527345,23.978733025634767Q26.021669665527345,23.919750025634766,25.929269665527343,23.873003025634766Q21.616469665527344,21.689285025634767,14.643649665527343,22.114025025634767Q12.511429665527343,22.243905025634767,10.364759665527345,22.607291025634765Q9.280981665527344,22.790754025634765,8.607846665527344,22.952686025634765Z" fill-rule="evenodd" fill="#423232" fill-opacity="1"/></g><g><path d="M62.12758008789062,24.624838313598634Q58.13474008789063,23.69677831359863,51.87199908789062,25.15016231359863Q51.74908508789063,25.178687313598633,51.632664087890625,25.227344313598632Q51.516242087890625,25.27600231359863,51.409585087890626,25.343425313598633Q51.30292808789063,25.41084831359863,51.209030087890625,25.495141313598634Q51.11514008789062,25.579434313598632,51.03665008789063,25.678229213598634Q50.95815008789062,25.77702385359863,50.897270087890625,25.887543313598634Q50.836380087890625,25.998062313598634,50.79482008789063,26.117200313598634Q50.75325008789063,26.236337313598632,50.73217008789062,26.360744313598634Q50.711090087890625,26.485152313598633,50.711090087890625,26.611332313598634Q50.711090087890625,26.685023313598634,50.71831008789062,26.758358313598634Q50.72554008789062,26.831698313598633,50.73991008789063,26.903968313598632Q50.754290087890624,26.976238313598632,50.77568008789063,27.046758313598634Q50.797070087890624,27.117278313598632,50.82527008789062,27.185358313598634Q50.85347008789063,27.253438313598632,50.88821008789063,27.318428313598634Q50.92295008789063,27.383418313598632,50.963890087890626,27.444688313598633Q51.004830087890625,27.505958313598633,51.051570087890624,27.562918313598633Q51.09832008789063,27.619888313598633,51.150430087890626,27.671988313598632Q51.202540087890625,27.72409831359863,51.25950008789062,27.770848313598634Q51.316463087890625,27.817598313598634,51.37773508789063,27.858538313598633Q51.439006087890625,27.89947831359863,51.50399508789062,27.934218313598635Q51.56898408789063,27.968948313598634,51.637065087890626,27.997148313598633Q51.705146087890625,28.025348313598634,51.77566308789063,28.04673831359863Q51.84618008789062,28.06813831359863,51.91845508789063,28.082508313598634Q51.99072908789063,28.096888313598633,52.06406408789063,28.104108313598633Q52.13739978789062,28.111328313598634,52.211090087890625,28.111328313598634Q52.38285908789062,28.111328313598634,52.55018108789063,28.072498313598633Q58.13421008789062,26.776628313598632,61.44839008789062,27.546948313598634Q62.368190087890625,27.760748313598633,62.949490087890624,28.101508313598632Q63.09369008789062,28.186028313598634,63.18229008789062,28.25814831359863Q63.18909008789063,28.263738313598633,63.192890087890625,28.266858313598632Q63.29749008789062,28.372478313598634,63.42079008789062,28.45550831359863Q63.54409008789062,28.538538313598632,63.68129008789062,28.595758313598633Q63.81849008789062,28.652968313598635,63.96419008789063,28.68214831359863Q64.10999008789062,28.71132831359863,64.25859008789062,28.71132831359863Q64.33229008789063,28.71132831359863,64.40559008789063,28.70409831359863Q64.47899008789062,28.69687831359863,64.55129008789062,28.682498313598632Q64.62349008789063,28.668128313598633,64.69399008789063,28.646738313598632Q64.76459008789062,28.625348313598632,64.83259008789062,28.597148313598634Q64.90069008789062,28.568948313598632,64.96569008789062,28.534208313598633Q65.03069008789062,28.499468313598634,65.09199008789062,28.458528313598634Q65.15319008789062,28.417588313598632,65.21019008789062,28.370838313598632Q65.26719008789063,28.324088313598633,65.31929008789062,28.271988313598634Q65.37139008789063,28.219878313598635,65.41809008789062,28.16291831359863Q65.46489008789062,28.10594831359863,65.50579008789063,28.04467831359863Q65.54679008789063,27.983408313598634,65.58149008789063,27.918418313598632Q65.61619008789063,27.853428313598634,65.64439008789063,27.785348313598632Q65.67259008789063,27.717268313598634,65.69399008789063,27.646748313598632Q65.71539008789063,27.576238313598633,65.72979008789062,27.503958313598634Q65.74419008789063,27.431688313598634,65.75139008789063,27.358348313598633Q65.75859008789062,27.285018313598634,65.75859008789062,27.21132831359863Q65.75859008789062,26.92979831359863,65.65649008789063,26.66742531359863Q65.55449008789063,26.405055313598634,65.36419008789062,26.197556313598632L65.36409008789063,26.197443313598633L65.36309008789063,26.196426313598632L65.36249008789062,26.195757313598634Q65.04939008789063,25.855074513598634,64.46679008789063,25.513490313598634Q63.491890087890624,24.941945313598634,62.12758008789062,24.624838313598634Z" fill-rule="evenodd" fill="#423232" fill-opacity="1"/></g></g></svg>