<svg xmlns="http://www.w3.org/2000/svg" xmlns:xlink="http://www.w3.org/1999/xlink" fill="none" version="1.1" width="78" height="43" viewBox="0 0 78 43"><g><g><path d="M28.971348501586913,5.411280953674316C30.071348501586915,6.111280953674316,30.771348501586914,7.211280953674317,31.171348501586913,8.411280953674316C31.971348501586913,10.611280953674317,30.271348501586914,12.911270953674316,28.071348501586915,12.611270953674316C18.071348501586915,11.211270953674315,0.27136850158691406,12.311280953674316,6.1713685015869135,7.911280953674316C12.871368501586915,3.1112789536743164,25.571348501586915,3.3112789536743166,28.971348501586913,5.411280953674316Z" fill="#423232" fill-opacity="1"/></g><g><path d="M55.97108018798828,7.111266579498291C54.97108018798828,7.611262579498291,54.27110018798828,8.511262579498291,53.77110018798828,9.511262579498291C52.87110018798828,11.411262579498292,53.971100187988284,13.711252579498291,55.77110018798828,13.711252579498291C64.07113018798827,13.611252579498291,74.37113018798829,16.11126257949829,71.07113018798827,11.611262579498291C67.37113018798829,6.511266279498291,59.07108018798828,5.611266579498291,55.97108018798828,7.111266579498291Z" fill="#423232" fill-opacity="1"/></g><g><path d="M8.7108571328125,23.0543791607666Q9.1872011328125,23.2788591607666,10.0544811328125,23.5867411607666Q11.823921132812501,24.214892160766603,13.6827111328125,24.576324160766603Q19.5334111328125,25.713959160766603,23.9869111328125,23.8297881607666Q24.2671111328125,23.711239160766603,24.5714111328125,23.711239160766603Q24.6451111328125,23.711239160766603,24.7184111328125,23.718462160766602Q24.7918111328125,23.725685160766602,24.8640111328125,23.7400611607666Q24.9363111328125,23.754437160766603,25.0068111328125,23.7758281607666Q25.0773111328125,23.797219160766602,25.1454111328125,23.8254191607666Q25.2135111328125,23.853619160766602,25.2785111328125,23.888357160766603Q25.3435111328125,23.923094160766603,25.4048111328125,23.9640341607666Q25.4660111328125,24.0049741607666,25.5230111328125,24.051723160766603Q25.5800111328125,24.0984721607666,25.6321111328125,24.1505791607666Q25.6842111328125,24.202685160766602,25.7309111328125,24.259649160766603Q25.7777111328125,24.3166122607666,25.8186111328125,24.377883560766602Q25.8595111328125,24.439154760766602,25.8943111328125,24.504143760766603Q25.9290111328125,24.5691331607666,25.9572111328125,24.6372141607666Q25.9854111328125,24.705295160766603,26.0068111328125,24.775812160766602Q26.0282111328125,24.8463291607666,26.0426111328125,24.9186031607666Q26.0570111328125,24.990878160766602,26.0642111328125,25.064213160766602Q26.0714111328125,25.137548160766602,26.0714111328125,25.211239160766603Q26.0714111328125,25.3211751607666,26.0554111328125,25.4299391607666Q26.0393111328125,25.5386991607666,26.0076111328125,25.643959160766602Q25.9759111328125,25.7492191607666,25.9292111328125,25.848739160766602Q25.8825111328125,25.9482491607666,25.8217111328125,26.039889160766602Q25.7610111328125,26.1315191607666,25.6876111328125,26.2133291607666Q25.6141111328125,26.295129160766603,25.5295111328125,26.365349160766602Q25.4449111328125,26.4355791607666,25.3510111328125,26.4927191607666Q25.2571111328125,26.5498591607666,25.1559111328125,26.5926891607666L25.1554111328125,26.592889160766603Q25.1536111328125,26.593629160766604,25.1519111328125,26.5943691607666Q19.8568111328125,28.8330291607666,13.1101111328125,27.5211691607666Q11.0314011328125,27.1169791607666,9.0508441328125,26.4138791607666Q8.0431216328125,26.0561391607666,7.4319651328125005,25.768119160766602Q7.3359421328125,25.722869160766603,7.2472491328125,25.6645491607666Q7.1585551328125,25.606219160766603,7.0789601328125,25.5359891607666Q6.9993611328125,25.465759160766602,6.9304511328125,25.3850131607666Q6.8615411328124996,25.304270160766603,6.8046911328125,25.214626160766603Q6.7478311328125,25.1249831607666,6.7041711328125,25.0282271607666Q6.6605111328125,24.9314701607666,6.6309111328125,24.8295291607666Q6.6013111328125,24.7275881607666,6.5863611328125,24.6224951607666Q6.5714111328125,24.517401160766603,6.5714111328125,24.4112491607666Q6.5714111328125,24.337558860766602,6.5786311328125,24.2642231607666Q6.5858611328125,24.1908881607666,6.6002311328125,24.1186141607666Q6.6146111328125,24.046339160766603,6.6360011328125,23.9758221607666Q6.6573911328125,23.905305160766602,6.6855911328125,23.837224160766603Q6.7137911328125,23.769143160766603,6.7485311328125,23.704154160766603Q6.7832711328125,23.639165160766602,6.8242111328125,23.5778941607666Q6.8651511328125,23.5166221607666,6.9118911328124994,23.459659160766602Q6.9586411328125,23.402699160766602,7.0107511328125,23.350589160766603Q7.0628611328125,23.2984791607666,7.1198211328125,23.2517291607666Q7.1767841328125,23.2049891607666,7.2380561328125,23.164049160766602Q7.2993271328125005,23.123109160766603,7.3643161328125,23.0883691607666Q7.4293051328125,23.0536291607666,7.4973861328125,23.025429160766603Q7.5654671328125005,22.9972291607666,7.6359841328125,22.9758391607666Q7.7065011328125,22.9544491607666,7.7787761328125,22.9400691607666Q7.8510501328125,22.9256991607666,7.9243851328125,22.918469160766602Q7.9977208328125,22.9112491607666,8.0714111328125,22.9112491607666Q8.4071521328125,22.9112491607666,8.7108571328125,23.0543791607666Z" fill-rule="evenodd" fill="#423232" fill-opacity="1"/></g><g><path d="M52.61796981396484,25.310298125Q56.41271181396485,27.486593125,60.293971813964845,26.891168125Q61.495371813964844,26.706861025,62.55762181396484,26.275999125Q63.056421813964846,26.073673125,63.28922181396484,25.931395125Q63.46592181396484,25.823453125,63.665121813964845,25.767386125Q63.864421813964846,25.711319125,64.07142181396485,25.711319125Q64.14512181396485,25.711319125,64.21842181396484,25.718542125Q64.29182181396484,25.725765125,64.36402181396484,25.740141125Q64.43632181396484,25.754517125,64.50682181396485,25.775908125Q64.57742181396485,25.797299125,64.64542181396484,25.825499125Q64.71352181396485,25.853699125,64.77852181396484,25.888437125Q64.84352181396484,25.923174125,64.90482181396484,25.964114125000002Q64.96602181396484,26.005054125,65.02302181396485,26.051803125Q65.08002181396485,26.098552125,65.13212181396484,26.150659125Q65.18422181396484,26.202765125,65.23092181396484,26.259729125Q65.27772181396485,26.316692125,65.31862181396484,26.377963125Q65.35962181396485,26.439235125,65.39432181396484,26.504224125Q65.42902181396485,26.569212725,65.45722181396485,26.637293625Q65.48542181396485,26.705374525,65.50682181396485,26.775892125Q65.52822181396485,26.846409125,65.54262181396484,26.918683125Q65.55702181396484,26.990957125,65.56422181396485,27.064293125Q65.57142181396485,27.137628125,65.57142181396485,27.211319125Q65.57142181396485,27.404040125,65.52272181396485,27.590502125Q65.47402181396484,27.776968125,65.37972181396485,27.945058125Q65.28542181396485,28.113148125,65.15172181396484,28.251948125Q65.01802181396485,28.390748125000002,64.85362181396485,28.491238125L64.85272181396485,28.491778125L64.85172181396484,28.492398125Q64.40982181396484,28.762098125,63.685221813964844,29.056018125Q62.29752181396484,29.618908125,60.74888181396484,29.856478125Q55.83027181396484,30.611038125,51.12515381396484,27.912518125Q51.039634813964845,27.863468125,50.96127181396484,27.803648125Q50.88290781396484,27.743828125,50.81305181396485,27.674268125Q50.74319181396484,27.604709125,50.683031813964845,27.526604125Q50.622881813964845,27.448498125,50.57346181396484,27.363192125Q50.52404181396484,27.277885125,50.486221813964846,27.186845125Q50.44839181396485,27.095804125,50.42281181396484,27.000596125Q50.397231813964844,26.905388125,50.384321813964846,26.807651125Q50.371421813964844,26.709913625,50.371421813964844,26.611328125Q50.371421813964844,26.537637825,50.37864181396484,26.464302125Q50.38587181396484,26.390967125,50.40024181396485,26.318693125Q50.41462181396484,26.246418125,50.436011813964846,26.175901125Q50.45740181396484,26.105384125,50.48560181396484,26.037303125Q50.51380181396485,25.969222125,50.548541813964846,25.904233125Q50.583281813964845,25.839244125,50.624221813964844,25.777973125Q50.66516181396484,25.716701125,50.71190181396484,25.659738125Q50.758651813964846,25.602778125,50.810761813964845,25.550668125Q50.862871813964844,25.498558125,50.91983181396484,25.451808125Q50.976794813964844,25.405068125,51.038066813964846,25.364128125Q51.099337813964844,25.323188125,51.16432681396484,25.288448125Q51.229315813964845,25.253708125,51.297396813964845,25.225508125Q51.365477813964844,25.197308125,51.43599481396485,25.175918125Q51.50651181396484,25.154528125,51.57878681396485,25.140148125Q51.65106081396485,25.125778125,51.72439581396485,25.118548125Q51.79773151396484,25.111328125,51.871421813964844,25.111328125Q52.27103881396484,25.111328125,52.617689813964844,25.310138125L52.61796981396484,25.310298125Z" fill-rule="evenodd" fill="#423232" fill-opacity="1"/></g></g></svg>