<svg xmlns="http://www.w3.org/2000/svg" xmlns:xlink="http://www.w3.org/1999/xlink" fill="none" version="1.1" width="78" height="43" viewBox="0 0 78 43"><g><g><path d="M19.03307771484375,27.2474798046875C19.233077714843752,24.8474798046875,17.43307771484375,22.8474798046875,15.033077714843749,22.7474796046875C12.63307771484375,22.5474798046875,10.63307871484375,24.3474798046875,10.53307871484375,26.7474798046875C10.53307871484375,26.7474798046875,10.43308751484375,29.547479804687498,10.43308751484375,29.547479804687498C10.23308771484375,31.9474798046875,12.03308771484375,33.947499804687496,14.43308771484375,34.047499804687504C16.83308771484375,34.1474998046875,18.83308771484375,32.3474798046875,18.93308771484375,30.047479804687498C18.93308771484375,30.047479804687498,19.03307771484375,27.2474798046875,19.03307771484375,27.2474798046875Z" fill="#423232" fill-opacity="1"/></g><g><path d="M60.83302080078125,29.147423489990235C60.93302080078125,26.947423489990236,59.23300080078125,25.047428489990235,57.03300080078125,24.947428439990233C54.83300080078125,24.847428489990236,52.93302180078125,26.547433489990233,52.83302180078125,28.747433489990236C52.83302180078125,28.747433489990236,52.73301578078125,31.347423489990234,52.73301578078125,31.347423489990234C52.63301580078125,33.54742348999024,54.33300080078125,35.44743348999023,56.53300080078125,35.54743348999023C58.73300080078125,35.647433489990235,60.63301080078125,33.94743348999023,60.73301080078125,31.747433489990236C60.73301080078125,31.747433489990236,60.83302080078125,29.147423489990235,60.83302080078125,29.147423489990235Z" fill="#423232" fill-opacity="1"/></g><g><path d="M7.191020155029297,26.734972564697266L7.190900155029297,26.735372564697265Q7.133190155029297,26.937372564697267,7.133190155029297,27.147452564697264Q7.133190155029297,27.221142564697267,7.140410155029297,27.294482564697265Q7.147640155029297,27.367812564697267,7.1620101550292965,27.440092564697267Q7.176390155029297,27.512362564697266,7.197780155029297,27.582882564697265Q7.219170155029297,27.653402564697267,7.247370155029297,27.721482564697265Q7.275570155029297,27.789562564697267,7.310310155029297,27.854552564697265Q7.345050155029297,27.919542564697267,7.385990155029297,27.980812564697267Q7.4269301550292965,28.042082564697267,7.473670155029296,28.099042564697264Q7.520420155029297,28.156012564697264,7.5725301550292965,28.208112564697267Q7.624640155029297,28.260222564697266,7.6816001550292965,28.306972564697265Q7.738563155029297,28.353722564697264,7.799835155029297,28.394662564697263Q7.861106155029297,28.435602564697266,7.926095155029297,28.470332564697266Q7.991084155029297,28.505072564697265,8.059165155029296,28.533272564697267Q8.127246155029297,28.561472564697265,8.197763155029296,28.582862564697265Q8.268280155029297,28.604252564697266,8.340555155029296,28.618632564697265Q8.412829155029296,28.633012564697268,8.486164155029297,28.640232564697264Q8.559499855029296,28.647452564697264,8.633190155029297,28.647452564697264Q8.754626155029296,28.647452564697264,8.874480155029296,28.627922564697265Q8.994335155029297,28.608382564697266,9.109486155029296,28.569822564697265Q9.224637155029297,28.531262564697265,9.332086155029296,28.474682564697265Q9.439535155029297,28.418102564697264,9.536483155029297,28.344982564697265Q9.633430155029297,28.271852564697266,9.717350155029298,28.184082564697267Q9.801280155029296,28.096312564697264,9.869990155029297,27.996182564697264Q9.938700155029297,27.896052564697264,9.990410155029297,27.786172564697267Q10.042110155029297,27.676302564697266,10.075480155029297,27.559532564697264Q10.173700155029296,27.215752564697265,10.658840155029297,26.796822564697266Q11.271340155029296,26.267932564697265,12.237340155029298,25.873802564697264Q14.490140155029298,24.954662564697266,16.793080155029298,25.328112564697264Q19.203790155029296,25.703142564697266,21.309290155029295,27.461312564697266Q22.369790155029296,28.346892564697264,22.905890155029297,29.109882564697266Q23.009690155029297,29.257592564697266,23.145590155029296,29.376462564697267Q23.281490155029296,29.495322564697265,23.4416901550293,29.578552564697265Q23.601890155029295,29.661782564697265,23.7772901550293,29.704622564697267Q23.952690155029295,29.747462564697265,24.133190155029297,29.747462564697265Q24.2068901550293,29.747462564697265,24.280190155029295,29.740242564697265Q24.353590155029295,29.733012564697265,24.425790155029297,29.718642564697266Q24.498090155029296,29.704262564697267,24.568590155029298,29.682872564697266Q24.639090155029297,29.661482564697266,24.7071901550293,29.633282564697264Q24.775290155029296,29.605082564697266,24.840290155029297,29.570342564697267Q24.905290155029295,29.535602564697264,24.966490155029298,29.494662564697265Q25.027790155029297,29.453722564697266,25.084790155029296,29.406972564697266Q25.1416901550293,29.360232564697267,25.193890155029298,29.308122564697264Q25.245990155029297,29.256012564697265,25.292690155029298,29.199052564697265Q25.339490155029296,29.142082564697265,25.380390155029296,29.080812564697265Q25.421290155029297,29.019542564697264,25.456090155029298,28.954552564697266Q25.4907901550293,28.889562564697265,25.518990155029297,28.821482564697266Q25.5471901550293,28.753402564697264,25.568590155029298,28.682892564697266Q25.589990155029298,28.612372564697267,25.604390155029296,28.540092564697265Q25.618690155029295,28.467822564697265,25.625990155029296,28.394482564697267Q25.633190155029297,28.321152564697265,25.633190155029297,28.247462564697265Q25.633190155029297,28.015942564697266,25.563390155029296,27.795202564697266Q25.493590155029295,27.574462564697264,25.360490155029296,27.385042564697265L25.360290155029297,27.384842564697266L25.3596901550293,27.383982564697266Q24.5959901550293,26.297472564697266,23.232090155029297,25.158602564697265Q20.487590155029295,22.866765564697264,17.273290155029297,22.366792564697267Q14.137780155029297,21.858332564697264,11.104030155029296,23.096103564697266Q9.682800155029296,23.675969964697266,8.698158555029297,24.526208564697267Q7.535480155029297,25.530182564697267,7.191090155029297,26.734722564697265L7.191020155029297,26.734972564697266Z" fill-rule="evenodd" fill="#423232" fill-opacity="1"/></g><g><path d="M62.26819530517578,30.069591672973633L62.26891530517578,30.071151672973635Q62.31350530517578,30.168691672973633,62.371515305175784,30.258891672973633Q62.42952530517578,30.349091672973632,62.49977530517578,30.430121672973634Q62.57003530517578,30.511161672973632,62.65110530517578,30.58137167297363Q62.73216530517578,30.651581672973634,62.82240530517578,30.70955167297363Q62.91263530517578,30.767511672973633,63.010195305175785,30.81205167297363Q63.10775530517578,30.856591672973632,63.21066530517578,30.886791672973633Q63.313565305175786,30.917001672973633,63.41972530517578,30.932251672973635Q63.52587530517578,30.947511672973633,63.63312530517578,30.947511672973633Q63.706825305175784,30.947511672973633,63.78012530517578,30.940291672973633Q63.85352530517578,30.933071672973632,63.92572530517578,30.918691672973633Q63.99802530517578,30.904311672973634,64.06852530517578,30.882921672973634Q64.13902530517578,30.861531672973634,64.20712530517578,30.83333167297363Q64.27522530517578,30.805131672973634,64.34022530517578,30.77039167297363Q64.40522530517578,30.735661672973634,64.46652530517578,30.694721672973632Q64.52772530517578,30.653781672973633,64.58472530517578,30.607031672973633Q64.64172530517578,30.560281672973634,64.69382530517578,30.50817167297363Q64.74592530517577,30.456061672973632,64.79262530517578,30.399101672973632Q64.83942530517578,30.342141672973632,64.88032530517577,30.280871672973632Q64.92122530517578,30.21960167297363,64.95602530517579,30.154611672973633Q64.99072530517579,30.08962167297363,65.01892530517578,30.021541672973633Q65.04712530517578,29.95346167297363,65.06852530517578,29.882941672973633Q65.08992530517578,29.812421672973635,65.10432530517578,29.74015167297363Q65.11872530517579,29.667871672973632,65.12592530517578,29.594541672973634Q65.13312530517578,29.521201672973632,65.13312530517578,29.447511672973633Q65.13312530517578,29.120911672973634,64.99732530517578,28.82387167297363Q64.85382530517577,28.510031672973632,64.58822530517578,28.09377167297363Q64.08142530517578,27.299501672973634,63.41878530517578,26.636853672973633Q61.22945530517578,24.447511672973633,58.23313530517578,24.447511672973633Q54.58900230517578,24.447511672973633,52.99010630517578,26.672054672973633Q52.45870530517578,27.411391672973632,52.24628530517578,28.298021672973633Q52.13312530517578,28.770331672973633,52.13312530517578,29.147511672973632Q52.13312530517578,29.221201672973635,52.14034530517578,29.294531672973633Q52.14757530517578,29.36787167297363,52.161945305175784,29.44014167297363Q52.17632530517578,29.512421672973634,52.197715305175784,29.582931672973633Q52.21910530517578,29.65345167297363,52.24730530517578,29.721531672973633Q52.275505305175784,29.78961167297363,52.31024530517578,29.854601672973633Q52.34498530517578,29.91959167297363,52.38592530517578,29.98086167297363Q52.42686530517578,30.042131672973632,52.47360530517578,30.09910167297363Q52.520355305175784,30.15606167297363,52.57246530517578,30.208171672973634Q52.62457530517578,30.260281672973633,52.68153530517578,30.307021672973633Q52.73849830517578,30.353771672973632,52.799770305175784,30.39471167297363Q52.86104130517578,30.435651672973634,52.92603030517578,30.470391672973633Q52.99101930517578,30.505131672973633,53.05910030517578,30.53333167297363Q53.12718130517578,30.561531672973633,53.197698305175784,30.582921672973633Q53.26821530517578,30.604311672973633,53.340490305175784,30.618691672973632Q53.412764305175784,30.633061672973632,53.486099305175784,30.640291672973632Q53.55943500517578,30.647511672973632,53.63312530517578,30.647511672973632Q53.70582170517578,30.647511672973632,53.77817730517578,30.640481672973632Q53.85053330517578,30.633451672973635,53.92186930517578,30.61946167297363Q53.99320630517578,30.605461672973632,54.06285530517578,30.584641672973632Q54.13250530517578,30.56381167297363,54.19981330517578,30.536341672973634Q54.26712230517578,30.508881672973633,54.33146030517578,30.47504167297363Q54.39579730517578,30.441191672973634,54.45656130517578,30.40128167297363Q54.517324305175784,30.361381672973632,54.57394330517578,30.315781672973632Q54.630563305175784,30.27019167297363,54.68250530517578,30.21933167297363Q54.73445530517578,30.16847167297363,54.781235305175784,30.112831672973634Q54.82801530517578,30.057191672973634,54.86920530517578,29.99728167297363Q54.91038530517578,29.937371672973633,54.94558530517578,29.873771672973632Q54.98078530517578,29.81016167297363,55.00966530517578,29.743451672973634Q55.03854530517578,29.676731672973634,55.06083530517578,29.607541672973632Q55.08313530517578,29.538351672973633,55.09863530517578,29.467321672973632Q55.11413530517578,29.39630167297363,55.12269530517578,29.324111672973633Q55.131255305175785,29.251921672973634,55.13278530517578,29.17924167297363Q55.13323530517578,29.173261672973634,55.13426530517578,29.163221672973634Q55.142045305175785,29.08748167297363,55.16371530517578,28.99700167297363Q55.238795305175785,28.683631672973632,55.42614530517578,28.42297167297363Q56.12726530517578,27.447511672973633,58.23313530517578,27.447511672973633Q59.98680530517578,27.447511672973633,61.297465305175784,28.75817167297363Q61.72857530517578,29.18928167297363,62.05925530517578,29.70751167297363Q62.21142530517578,29.945981672973634,62.26819530517578,30.069591672973633Z" fill-rule="evenodd" fill="#423232" fill-opacity="1"/></g><g><path d="M30.33293896484375,5.347436662139893C31.33293896484375,6.247436662139893,31.83293896484375,7.4474466621398925,32.03293896484375,8.647446662139892C32.43293896484375,10.947446662139892,30.33293896484375,12.847396662139893,28.23293896484375,12.147396662139892C18.63293896484375,8.947446662139892,0.8329689648437499,6.9474466621398925,7.4329689648437505,3.7474466621398923C14.93296896484375,0.24744666213989253,27.33293896484375,2.6474386621398924,30.33293896484375,5.347436662139893Z" fill="#423232" fill-opacity="1"/></g><g><path d="M56.232752126464845,7.447480735473633C55.432753126464846,8.247480735473633,55.03273512646484,9.347480735473633,54.93273522646484,10.447480735473633C54.632735126464844,12.547480735473632,56.43275212646484,14.347480735473633,58.132752126464844,13.747480735473633C65.93274212646485,10.847480735473633,76.53274212646484,9.947470735473633,72.03274212646484,6.847470735473633C66.83274212646484,3.147470735473633,58.632752126464844,5.047477735473633,56.232752126464845,7.447480735473633Z" fill="#423232" fill-opacity="1"/></g></g></svg>