<svg xmlns="http://www.w3.org/2000/svg" xmlns:xlink="http://www.w3.org/1999/xlink" fill="none" version="1.1" width="78" height="43" viewBox="0 0 78 43"><g><g><path d="M9.971825965576173,25.611326217651367C9.771825965576172,26.011326217651366,9.571831965576171,26.611326217651367,9.571831965576171,27.111326217651367C9.571831965576171,27.111326217651367,9.471825765576172,29.911326217651368,9.471825765576172,29.911326217651368C9.271825965576172,32.21132621765137,11.071825965576172,34.31132621765137,13.471825965576173,34.411326217651364C15.871825965576171,34.51133621765137,17.87182596557617,32.71132621765137,17.971825965576173,30.311326217651366C17.971825965576173,30.311326217651366,18.07183596557617,27.511316217651366,18.07183596557617,27.511316217651366C18.07183596557617,27.511316217651366,18.07183596557617,27.411326217651368,18.07183596557617,27.311326217651366C18.07183596557617,26.811326217651366,17.971825965576173,26.41132021765137,17.971825965576173,26.011320217651367C17.971825965576173,26.011320217651367,9.971825965576173,25.611326217651367,9.971825965576173,25.611326217651367Z" fill="#423232" fill-opacity="1"/></g><g><path d="M52.1711567734375,27.711305618286133C51.9711567734375,28.11130561828613,51.8711387734375,28.611314618286134,51.8711387734375,29.111315618286135C51.8711387734375,29.111315618286135,51.7711627634375,31.711305618286133,51.7711627634375,31.711305618286133C51.6711627734375,33.911305618286136,53.3711477734375,35.81131561828613,55.5711477734375,35.91131561828613C57.7711477734375,36.01131561828613,59.6711577734375,34.31131561828613,59.7711577734375,32.111315618286135C59.7711577734375,32.111315618286135,59.871137773437496,29.511305618286134,59.871137773437496,29.511305618286134C59.871137773437496,29.011305618286134,59.8711577734375,28.511308618286133,59.6711577734375,28.011308618286133C59.6711577734375,28.011308618286133,52.1711567734375,27.711305618286133,52.1711567734375,27.711305618286133Z" fill="#423232" fill-opacity="1"/></g><g><path d="M28.971348501586913,6.411282384185791C30.071348501586915,7.111282384185791,30.771348501586914,8.211282384185791,31.171348501586913,9.41128238418579C31.971348501586913,11.611282384185792,30.271348501586914,13.91128238418579,28.071348501586915,13.611282384185792C18.071348501586915,12.211282384185791,0.27136850158691406,13.311282384185791,6.1713685015869135,8.91128238418579C12.871368501586915,4.1112803841857914,25.571348501586915,4.311280384185791,28.971348501586913,6.411282384185791Z" fill="#423232" fill-opacity="1"/></g><g><path d="M55.97108018798828,8.111262287963868C54.97108018798828,8.611258287963867,54.27110018798828,9.511258287963868,53.77110018798828,10.511258287963868C52.87110018798828,12.411258287963868,53.971100187988284,14.711248287963867,55.77110018798828,14.711248287963867C64.07113018798827,14.611248287963868,74.37113018798829,17.111258287963867,71.07113018798827,12.611258287963867C67.37113018798829,7.511261987963867,59.07108018798828,6.611262287963867,55.97108018798828,8.111262287963868Z" fill="#423232" fill-opacity="1"/></g><g><path d="M8.1546210328125,24.01354046875L9.9546211328125,24.11355046875L17.9276311328125,24.41229046875L24.6385111328125,24.71272846875Q24.7100111328125,24.71593046875,24.7809111328125,24.72592946875Q24.8518111328125,24.73592746875,24.9214111328125,24.75263146875Q24.9910111328125,24.76933446875,25.0587111328125,24.79259246875Q25.1264111328125,24.81584946875,25.1916111328125,24.84544846875Q25.2568111328125,24.87504746875,25.3188111328125,24.91071946875Q25.3809111328125,24.94639146875,25.4393111328125,24.98781246875Q25.4977111328125,25.02923346875,25.5519111328125,25.07602746875Q25.6060111328125,25.12282046875,25.6555111328125,25.17456046875Q25.7050111328125,25.22630046875,25.7493111328125,25.28251646875Q25.7936111328125,25.33873346875,25.8324111328125,25.39891546875Q25.8712111328125,25.45909776875,25.9040111328125,25.52269836875Q25.9369111328125,25.58629896875,25.9636111328125,25.65273946875Q25.9902111328125,25.71918046875,26.0104111328125,25.78785846875Q26.0306111328125,25.85653546875,26.0442111328125,25.92682446875Q26.0578111328125,25.99711446875,26.0646111328125,26.06837646875Q26.0714111328125,26.13963946875,26.0714111328125,26.21122746875Q26.0714111328125,26.28491746875,26.0642111328125,26.35825346875Q26.0570111328125,26.43158846875,26.0426111328125,26.50386246875Q26.0282111328125,26.57614046875,26.0068111328125,26.64665046875Q25.9854111328125,26.71717046875,25.9572111328125,26.78525046875Q25.9290111328125,26.85333046875,25.8943111328125,26.91832046875Q25.8595111328125,26.98331046875,25.8186111328125,27.04458046875Q25.7777111328125,27.10585046875,25.7309111328125,27.16282046875Q25.6842111328125,27.21978046875,25.6321111328125,27.27189046875Q25.5800111328125,27.32399046875,25.5230111328125,27.37074046875Q25.4660111328125,27.41749046875,25.4048111328125,27.45843046875Q25.3435111328125,27.49937046875,25.2785111328125,27.53411046875Q25.2135111328125,27.56885046875,25.1454111328125,27.59705046875Q25.0773111328125,27.62525046875,25.0068111328125,27.64664046875Q24.9363111328125,27.66803046875,24.8640111328125,27.68240046875Q24.7918111328125,27.69678046875,24.7184111328125,27.70400046875Q24.6451111328125,27.71123046875,24.5714111328125,27.71123046875Q24.5378111328125,27.71123046875,24.5043111328125,27.70973046875L17.8152011328125,27.41019046875L9.7882011328125,27.10893046875L7.9882012328125,27.00892046875Q7.9172281328125,27.00498046875,7.8469461328125,26.99434046875Q7.7766641328125,26.98370046875,7.7077021328125,26.96647046875Q7.6387411328125,26.94923046875,7.5717181328125,26.92555046875Q7.5046961328125,26.90187046875,7.4402131328125,26.87196046875Q7.3757301328125,26.84205046875,7.3143651328125,26.80617046875Q7.2530001328125,26.77030046875,7.1953021328125,26.72878046875Q7.1376041328125,26.68726046875,7.0840911328125,26.64048046875Q7.0305811328125,26.59369046875,6.9817311328125005,26.54205046875Q6.9328811328125,26.49041346875,6.8891311328125,26.43438746875Q6.8453911328125,26.37836046875,6.8071311328125,26.31844846875Q6.7688811328125,26.258536468750002,6.7364611328125,26.19527546875Q6.7040511328125,26.13201446875,6.6777611328125,26.06597246875Q6.6514711328125,25.99992946875,6.6315511328125005,25.93169646875Q6.6116211328125,25.86346346875,6.5982411328125,25.79365246875Q6.5848511328125,25.72384146875,6.5781311328125,25.65307746875Q6.5714111328125,25.58231306875,6.5714111328125,25.51123046875Q6.5714111328125,25.43754016875,6.5786311328125,25.36420446875Q6.5858611328125,25.29086946875,6.6002311328125,25.21859546875Q6.6146111328125,25.14632046875,6.6360011328125,25.07580346875Q6.6573911328125,25.00528646875,6.6855911328125,24.93720546875Q6.7137911328125,24.86912446875,6.7485311328125,24.80413546875Q6.7832711328125,24.73914646875,6.8242111328125,24.67787546875Q6.8651511328125,24.61660346875,6.9118911328124994,24.55964046875Q6.9586411328125,24.50268046875,7.0107511328125,24.45057046875Q7.0628611328125,24.39846046875,7.1198211328125,24.35171046875Q7.1767841328125,24.30497046875,7.2380561328125,24.26403046875Q7.2993271328125005,24.22309046875,7.3643161328125,24.18835046875Q7.4293051328125,24.15361046875,7.4973861328125,24.12541046875Q7.5654671328125005,24.09721046875,7.6359841328125,24.07582046875Q7.7065011328125,24.05443046875,7.7787761328125,24.04005046875Q7.8510501328125,24.02568046875,7.9243851328125,24.01845046875Q7.9977208328125,24.01123046875,8.0714111328125,24.01123046875Q8.1130481328125,24.01123046875,8.1546210328125,24.01354046875Z" fill-rule="evenodd" fill="#423232" fill-opacity="1"/></g><g><path d="M51.871421813964844,26.211305618286133Q51.79773151396484,26.211305618286133,51.72439581396485,26.218525618286133Q51.65106081396485,26.225755618286133,51.57878681396485,26.240125618286132Q51.50651181396484,26.25450561828613,51.43599481396485,26.275895618286132Q51.365477813964844,26.297285618286132,51.297396813964845,26.325485618286134Q51.229315813964845,26.353685618286132,51.16432681396484,26.38842561828613Q51.099337813964844,26.423165618286134,51.038066813964846,26.464105618286133Q50.976794813964844,26.505045618286132,50.91983181396484,26.551785618286132Q50.862871813964844,26.59853561828613,50.810761813964845,26.650645618286134Q50.758651813964846,26.702755618286133,50.71190181396484,26.759715618286133Q50.66516181396484,26.816678618286133,50.624221813964844,26.877950618286132Q50.583281813964845,26.939221618286133,50.548541813964846,27.004210618286134Q50.51380181396485,27.069199618286135,50.48560181396484,27.137280618286134Q50.45740181396484,27.205361618286133,50.436011813964846,27.275878618286132Q50.41462181396484,27.346395618286135,50.40024181396485,27.418670618286132Q50.38587181396484,27.490944618286132,50.37864181396484,27.564279618286132Q50.371421813964844,27.637615318286134,50.371421813964844,27.711305618286133Q50.371421813964844,27.784995918286132,50.37864181396484,27.858331618286133Q50.38587181396484,27.931666618286133,50.40024181396485,28.003940618286133Q50.41462181396484,28.07621561828613,50.436011813964846,28.146732618286133Q50.45740181396484,28.217249618286132,50.48560181396484,28.28533061828613Q50.51380181396485,28.35341161828613,50.548541813964846,28.41840061828613Q50.583281813964845,28.483389618286132,50.624221813964844,28.544660618286134Q50.66516181396484,28.605932618286133,50.71190181396484,28.662895618286132Q50.758651813964846,28.719855618286132,50.810761813964845,28.77196561828613Q50.862871813964844,28.824075618286134,50.91983181396484,28.870825618286133Q50.976794813964844,28.917565618286133,51.038066813964846,28.958505618286132Q51.099337813964844,28.99944561828613,51.16432681396484,29.034185618286134Q51.229315813964845,29.068925618286134,51.297396813964845,29.09712561828613Q51.365477813964844,29.125325618286134,51.43599481396485,29.146715618286134Q51.50651181396484,29.168105618286134,51.57878681396485,29.182485618286133Q51.65106081396485,29.196855618286133,51.72439581396485,29.204085618286133Q51.79773151396484,29.211305618286133,51.871421813964844,29.211305618286133L52.141453813964844,29.211305618286133L59.61149181396485,29.510105618286133L64.00332181396485,29.70975561828613Q64.03732181396484,29.711305618286133,64.07142181396485,29.711305618286133Q64.14512181396485,29.711305618286133,64.21842181396484,29.704085618286133Q64.29182181396484,29.696855618286133,64.36402181396484,29.682485618286133Q64.43632181396484,29.668105618286134,64.50682181396485,29.646715618286134Q64.57742181396485,29.625325618286134,64.64542181396484,29.59712561828613Q64.71352181396485,29.568925618286134,64.77852181396484,29.534185618286134Q64.84352181396484,29.49944561828613,64.90482181396484,29.458505618286132Q64.96602181396484,29.417565618286133,65.02302181396485,29.370815618286134Q65.08002181396485,29.324075618286134,65.13212181396484,29.27196561828613Q65.18422181396484,29.219855618286132,65.23092181396484,29.162895618286132Q65.27772181396485,29.105925618286133,65.31862181396484,29.044655618286132Q65.35962181396485,28.983385618286132,65.39432181396484,28.918395618286134Q65.42902181396485,28.853405618286132,65.45722181396485,28.785325618286134Q65.48542181396485,28.71724561828613,65.50682181396485,28.64673061828613Q65.52822181396485,28.576213618286133,65.54262181396484,28.50393861828613Q65.55702181396484,28.43166461828613,65.56422181396485,28.358329618286135Q65.57142181396485,28.284993618286133,65.57142181396485,28.211303618286134Q65.57142181396485,28.139747618286133,65.56462181396485,28.068516618286132Q65.55782181396485,27.99728561828613,65.54422181396484,27.927025618286134Q65.53072181396485,27.856766618286134,65.51052181396484,27.788117318286133Q65.49032181396484,27.719468018286133,65.46372181396484,27.653052118286134Q65.43702181396485,27.586636618286132,65.40422181396484,27.523056618286134Q65.37142181396484,27.459477618286133,65.33262181396485,27.39931261828613Q65.29392181396484,27.339147618286134,65.24962181396484,27.282942618286132Q65.20532181396484,27.226737618286133,65.15592181396484,27.175003618286134Q65.10642181396484,27.12327061828613,65.05232181396484,27.076476618286133Q64.99822181396485,27.029684618286133,64.93982181396484,26.988256618286133Q64.88152181396484,26.946829618286134,64.81952181396484,26.911144618286134Q64.75742181396484,26.87545861828613,64.69232181396484,26.84583961828613Q64.62722181396484,26.81622061828613,64.55952181396485,26.792936618286134Q64.49182181396485,26.769652618286134,64.42232181396484,26.75291561828613Q64.35272181396485,26.73617761828613,64.28192181396484,26.726138618286132Q64.21102181396485,26.716099618286133,64.13952181396485,26.712850618286133L59.73139181396484,26.512505618286134L52.231392813964845,26.212505618286134Q52.201428813964846,26.211305618286133,52.171439813964845,26.211305618286133L51.871421813964844,26.211305618286133Z" fill-rule="evenodd" fill="#423232" fill-opacity="1"/></g></g></svg>