<svg xmlns="http://www.w3.org/2000/svg" xmlns:xlink="http://www.w3.org/1999/xlink" fill="none" version="1.1" width="193" height="243" viewBox="0 0 193 243"><g><g><g><path d="M63.3,151.09652541601562C63.3,151.09652541601562,41.8,158.19651141601562,26.6,169.69655141601564C14.6,178.79655141601563,3.1,189.79655141601563,0,195.89655141601563C0.1,195.89655141601563,0.1,195.99655141601562,0.1,195.99655141601562C27.1,224.39655141601563,65.1,242.29655141601563,107.2,242.89655141601563C107.9,242.89655141601563,108.6,242.89655141601563,109.3,242.89655141601563C110.3,242.89655141601563,111.2,242.89655141601563,112.2,242.89655141601563C113.2,242.89655141601563,114.1,242.79655141601563,115.1,242.79655141601563C115.8,242.79655141601563,116.5,242.6965514160156,117.3,242.6965514160156C117.7,242.6965514160156,118.2,242.59655141601564,118.6,242.59655141601564C119.3,242.59655141601564,120,242.59655141601564,120.7,242.49655141601562C121.4,242.39655141601563,122.1,242.39655141601563,122.8,242.29655141601563C122.8,242.29655141601563,122.9,242.29655141601563,122.9,242.29655141601563C123.4,242.1965514160156,124,242.1965514160156,124.5,242.09655141601564C126.1,241.89655141601563,127.8,241.6965514160156,129.4,241.49655141601562C130,241.49655141601562,130.6,241.39655141601563,131.1,241.29655141601563C131.5,241.1965514160156,131.9,241.1965514160156,132.3,241.09655141601564C133.2,240.99655141601562,134,240.79655141601563,134.9,240.6965514160156C135.5,240.59655141601564,136.2,240.49655141601562,136.8,240.39655141601563C137.2,240.29655141601563,137.5,240.29655141601563,137.9,240.1965514160156C139.7,239.79655141601563,141.6,239.39655141601563,143.4,238.99655141601562C144.2,238.79655141601563,144.9,238.6965514160156,145.6,238.49655141601562C147.5,238.09655141601564,149.4,237.59655141601564,151.3,236.99655141601562C151.9,236.79655141601563,152.6,236.59655141601564,153.2,236.39655141601563C155,235.79655141601563,156.9,235.1965514160156,158.7,234.59655141601564C159.5,234.29655141601563,160.4,233.99655141601562,161.2,233.6965514160156C161.3,233.6965514160156,161.3,233.6965514160156,161.3,233.6965514160156C162.1,233.39655141601563,163,232.99655141601562,163.8,232.6965514160156C164.6,232.39655141601563,165.5,231.99655141601562,166.3,231.6965514160156C167.1,231.39655141601563,168,231.09655141601564,168.8,230.6965514160156C170.4,229.99655141601562,172.1,229.29655141601563,173.7,228.49655141601562C174.5,228.09655141601564,175.3,227.6965514160156,176.1,227.29655141601563C176.2,227.29655141601563,176.3,227.1965514160156,176.3,227.1965514160156C177,226.89655141601563,177.8,226.49655141601562,178.5,226.09655141601564C180.9,224.89655141601563,183.3,223.59655141601564,185.6,222.1965514160156C185.7,222.09655141601564,185.8,222.09655141601564,185.9,221.99655141601562C186.6,221.59655141601564,187.2,221.1965514160156,187.9,220.79655141601563C188.7,220.39655141601563,189.4,219.89655141601563,190.2,219.39655141601563C190.9,218.89655141601563,191.7,218.39655141601563,192.4,217.89655141601563C186.6,202.1965514160156,169.6,168.09655141601561,129.7,159.69651141601562C77.4,148.79652141601562,63.3,151.09652541601562,63.3,151.09652541601562Z" fill="#FEE4BF" fill-opacity="1"/></g><g><path d="M133.59999923706056,162.3965463256836C133.59999923706056,162.3965463256836,129.19999923706055,143.5965463256836,129.19999923706055,143.5965463256836C129.19999923706055,143.5965463256836,90.79999923706055,105.5965163256836,58.29999923706055,108.39651732568359C58.29999923706055,108.39651732568359,61.79999923706055,128.0965463256836,63.29999923706055,151.0965463256836C63.29999923706055,151.0965463256836,74.09999923706054,183.19654632568358,102.19999923706055,194.5965463256836C125.09999923706054,203.7965463256836,138.69999923706055,197.69654632568358,140.79999923706055,187.39654632568357C142.19999923706055,180.7965463256836,138.09999923706056,169.9965463256836,135.99999923706054,166.3965463256836C134.79999923706055,165.3965463256836,133.99999923706054,163.9965463256836,133.59999923706056,162.3965463256836Z" fill="#FEE4BF" fill-opacity="1"/></g><g><path d="M131.4999969482422,153.19652709960937C115.5999969482422,151.19652709960937,100.49999694824218,146.8965270996094,87.69999694824219,135.59652709960938C102.79999694824218,162.69652709960937,116.89999694824219,165.49652709960938,135.9999969482422,166.49652709960938C134.79999694824218,165.49652709960938,133.9999969482422,164.09652709960938,133.5999969482422,162.3965270996094C133.5999969482422,162.3965270996094,131.4999969482422,153.19652709960937,131.4999969482422,153.19652709960937Z" fill="#EFBD9C" fill-opacity="1"/></g><g><path d="M40.40000313598633,51.6965C35.70000313598633,82.2965,45.199993135986325,99.5965,53.10003313598633,108.197C58.800033135986325,114.497,63.90003313598633,121.397,68.30003313598633,128.697C73.90003313598632,137.997,80.80003313598633,145.097,88.30003313598633,150.197C110.50003313598633,165.297,138.30003313598633,162.697,154.20043313598632,148.897C177.80043313598634,128.397,168.40043313598633,105.997,173.30043313598634,83.5965C178.20043313598632,61.1965,177.30043313598634,54.3965,175.50043313598633,45.9965C170.60043313598632,23.7965,155.50043313598633,7.19652,126.40003313598633,1.69651C97.30003313598633,-3.80349,48.000003135986326,1.89651,40.40000313598633,51.6965Z" fill="#FEE4BF" fill-opacity="1"/></g><g><path d="" fill="#FEE4BF" fill-opacity="1"/></g><g><path d="M59.544508487548825,88.8592267553711L59.54478848754883,88.86031675537109Q59.574998487548825,88.9811767553711,59.624738487548825,89.09540675537109Q59.674478487548825,89.20962675537109,59.74237848754883,89.31407675537109Q59.81027848754883,89.41852675537109,59.89448848754883,89.5103367553711Q59.97868548754883,89.6021567553711,60.07688048754883,89.67882675537109Q60.17507548754883,89.7554967553711,60.284573487548826,89.81491675537109Q60.39407148754883,89.8743267553711,60.51187148754883,89.9148767553711Q60.62967048754883,89.95541675537109,60.752544487548825,89.97596675537109Q60.87541848754883,89.99651675537109,60.99999908754883,89.99651675537109Q61.07368928754883,89.99651675537109,61.147024487548826,89.9892967553711Q61.22036048754883,89.9820667553711,61.29263448754883,89.9676967553711Q61.36490848754883,89.95331675537109,61.43542648754883,89.9319267553711Q61.50594348754883,89.9105367553711,61.574024487548826,89.8823367553711Q61.642105487548825,89.85413675537109,61.70709448754883,89.81939675537109Q61.77208348754883,89.78465675537109,61.83335448754883,89.7437167553711Q61.89462548754883,89.70277675537109,61.951588487548825,89.65603675537109Q62.00854848754883,89.60928675537109,62.06065848754883,89.55717675537109Q62.11276848754883,89.50506675537109,62.15951848754883,89.4481067553711Q62.20625848754883,89.3911467553711,62.24719848754883,89.3298667553711Q62.28813848754883,89.26859675537109,62.32287848754883,89.20361675537109Q62.35761848754883,89.13862675537109,62.385818487548825,89.0705367553711Q62.41401848754883,89.0024567553711,62.43540848754883,88.93194675537109Q62.45679848754883,88.8614267553711,62.471178487548826,88.7891567553711Q62.485548487548826,88.71687675537109,62.492778487548826,88.64354675537109Q62.49999848754883,88.57020675537109,62.49999848754883,88.49651675537109Q62.49999848754883,88.3680367553711,62.47814848754883,88.24141675537109Q62.47834848754883,88.18311675537109,62.48624848754883,88.0930667553711Q62.51288848754883,87.78944675537109,62.60146848754883,87.4170767553711Q62.83601848754883,86.4310767553711,63.31227848754883,85.71351675537109Q64.45549848754882,83.9910547553711,66.82128848754883,84.9803867553711Q68.88830848754883,85.82603675537109,68.11206848754883,91.90656675537109Q68.10947848754883,91.9268767553711,68.10743848754883,91.94725675537109Q67.79706848754883,95.0509867553711,69.87337848754883,97.6768867553711Q70.87880848754882,98.94848675537109,71.99016848754883,99.65908675537109L71.99126848754882,99.6597867553711L71.99236848754883,99.6605867553711Q72.17326848754882,99.7760867553711,72.37936848754883,99.83628675537109Q72.58536848754883,99.89648675537109,72.79996848754882,99.89648675537109Q72.87366848754883,99.89648675537109,72.94706848754883,99.88928675537109Q73.02036848754882,99.88208675537109,73.09266848754882,99.8676867553711Q73.16486848754883,99.8532867553711,73.23546848754883,99.8318867553711Q73.30596848754882,99.8104867553711,73.37406848754883,99.78228675537109Q73.44206848754882,99.75408675537109,73.50706848754882,99.71938675537109Q73.57206848754883,99.68468675537109,73.63336848754884,99.64368675537109Q73.69466848754882,99.6027867553711,73.75156848754882,99.5559867553711Q73.80856848754883,99.5092867553711,73.86066848754882,99.4571867553711Q73.91276848754883,99.40508675537109,73.95946848754883,99.3480867553711Q74.00626848754882,99.29118675537109,74.04716848754883,99.2298867553711Q74.08816848754883,99.1685867553711,74.12286848754883,99.1035867553711Q74.15766848754883,99.0385867553711,74.18586848754883,98.9705867553711Q74.21406848754883,98.90248675537109,74.23536848754883,98.83198675537109Q74.25676848754883,98.76138675537109,74.27116848754883,98.6891867553711Q74.28556848754883,98.6168867553711,74.29276848754883,98.5435867553711Q74.29996848754882,98.47018675537109,74.29996848754882,98.39648675537109Q74.29996848754882,98.2075867553711,74.25316848754883,98.02458675537109Q74.20626848754883,97.8415867553711,74.11556848754883,97.6758867553711Q74.02476848754883,97.5101867553711,73.89576848754882,97.37218675537109Q73.76676848754883,97.2341867553711,73.60756848754883,97.13248675537109Q72.92016848754884,96.69328675537109,72.22666848754884,95.81618675537109Q70.90946848754882,94.15038675537109,71.09066848754883,92.2645267553711Q72.15036848754883,83.9191647553711,67.97870848754883,82.2126467553711Q65.55855848754882,81.20057675537109,63.58027848754883,81.8552867553711Q61.90424148754883,82.4099687553711,60.812725487548825,84.05451975537109Q60.04106848754883,85.21714675537109,59.68290848754883,86.72282675537109Q59.355288487548826,88.10007675537109,59.544468487548826,88.8590367553711L59.544508487548825,88.8592267553711ZM62.45520848754883,88.13271675537109Q62.46489848754883,88.1714667553711,62.472518487548825,88.2106867553711Q62.46674848754883,88.1788567553711,62.45520848754883,88.13271675537109Z" fill-rule="evenodd" fill="#423232" fill-opacity="1"/></g><g><path d="M159.10001225585938,97.69651291455078C160.20001225585938,98.59650991455078,158.50001225585936,101.59651991455078,156.50001225585936,103.99651991455079C152.90001225585937,108.29654991455078,149.10001225585938,108.09654991455078,149.10001225585938,108.09654991455078C144.50000225585939,108.09654991455078,137.50000225585939,104.29651991455079,138.69999825585938,101.89651991455078C139.90000225585936,99.49651991455079,158.00001225585936,96.69651291455078,159.10001225585938,97.69651291455078Z" fill="#EFBD9C" fill-opacity="1"/></g><g><path d="M150.60034610351562,74.52824016669922Q150.60000610351562,74.51237856669921,150.60000610351562,74.49651336669922Q150.60000610351562,74.42282306669922,150.60722610351561,74.34948736669922Q150.61445610351564,74.27615236669922,150.62882610351562,74.20387836669921Q150.64320610351564,74.13160336669922,150.66459610351563,74.06108636669921Q150.68598610351563,73.99056936669922,150.71418610351563,73.92248836669921Q150.74238610351563,73.85440736669922,150.77712610351563,73.78941836669922Q150.81185610351562,73.72442936669921,150.85280610351563,73.66315836669922Q150.89374610351564,73.60188636669922,150.94048610351564,73.54492336669922Q150.9872361035156,73.48796336669922,151.0393461035156,73.43585336669922Q151.0914561035156,73.38374336669922,151.14841610351561,73.33699336669922Q151.20537610351562,73.29025336669922,151.26664610351563,73.24931336669921Q151.32792610351564,73.20837336669922,151.39290610351563,73.17363336669922Q151.45789610351562,73.13889336669922,151.52597610351563,73.11069336669922Q151.59406610351562,73.08249336669923,151.66457610351563,73.06110336669921Q151.73509610351562,73.03971336669922,151.80736610351562,73.02533336669921Q151.87964610351563,73.01096336669922,151.95297610351562,73.00373336669922Q152.02631610351563,72.99651336669922,152.10000610351562,72.99651336669922Q152.17270610351562,72.99651336669922,152.24506610351563,73.00354336669922Q152.31742610351563,73.01057336669922,152.38876610351562,73.02457336669922Q152.46011610351562,73.03856336669922,152.5297661035156,73.05939336669923Q152.59941610351564,73.08022336669922,152.66672610351563,73.10769336669922Q152.73404610351562,73.13516336669922,152.7983861035156,73.16901336669922Q152.86272610351563,73.20285336669922,152.92349610351562,73.24277336669923Q152.98425610351563,73.28268336669922,153.04087610351561,73.32828336669922Q153.09749610351562,73.37388336669922,153.14944610351563,73.42475336669922Q153.20138610351563,73.47561336669922,153.24817610351562,73.53126236669922Q153.29495610351563,73.58691036669921,153.33613610351563,73.64682336669922Q153.37732610351563,73.70673536669922,153.41251610351563,73.77034936669922Q153.44771610351563,73.83396436669922,153.47659610351562,73.90068336669921Q153.50546610351563,73.96740336669922,153.52775610351563,74.03660336669923Q153.55005610351563,74.10580236669922,153.56554610351563,74.17683336669921Q153.58103610351563,74.24786436669922,153.58959610351562,74.32006136669922Q153.59814610351563,74.39225736669921,153.59967610351563,74.46494296669921Q153.64658610351563,76.69317336669921,154.4275961035156,80.24978336669922Q156.00296610351563,87.42381336669922,159.7006061035156,93.84931336669922Q160.94710610351564,96.01901336669923,160.67340610351562,98.69001336669922Q160.41350610351563,101.22721336669922,158.8445061035156,103.55891336669922Q157.2392861035156,105.94441336669922,154.62836610351562,107.54681336669921Q151.8244461035156,109.26761336669921,148.32084910351563,109.78021336669923Q148.31895510351563,109.78041336669922,148.3170611035156,109.78071336669922L148.31680610351563,109.78081336669922L147.88320610351562,106.81231336669921L147.88781710351563,106.81161336669922Q153.60251610351563,105.97541336669921,156.3555161035156,101.88411336669921Q157.50559610351561,100.17491336669922,157.6890561035156,98.38431336669922Q157.86415610351563,96.67501336669922,157.0993361035156,95.34371336669922Q153.17201610351563,88.51921336669922,151.49740610351563,80.89323336669922Q150.65371610351562,77.05117336669922,150.60037610351563,74.52980726669922Q150.60198610351563,74.60243636669922,150.6106161035156,74.67457036669921Q150.61923610351562,74.74670436669922,150.63478610351564,74.81766636669921Q150.65034610351563,74.88862936669922,150.67268610351562,74.95775636669921Q150.69501610351563,75.02688436669922,150.72393610351563,75.09352936669922Q150.75284610351562,75.16017436669922,150.78806610351563,75.22371336669922Q150.8232861035156,75.28725336669922,150.86448610351562,75.34709136669922Q150.90567610351562,75.40692936669922,150.95246610351563,75.46250636669922Q150.99924610351562,75.51808336669922,151.05118610351562,75.56888336669923Q151.10311610351562,75.61967336669922,151.15972610351562,75.66521336669922Q151.21632610351563,75.71075336669922,151.27706610351564,75.75061336669921Q151.33779610351561,75.79046336669921,151.40210610351562,75.82427336669922Q151.46640610351562,75.85807336669922,151.53367610351563,75.88549336669922Q151.60094610351564,75.91292336669922,151.67055610351562,75.93372336669921Q151.74016610351563,75.95452336669922,151.81145610351564,75.96849336669922Q151.88274610351561,75.98247336669922,151.95505610351563,75.98949336669922Q152.02735610351561,75.99651336669922,152.10000610351562,75.99651336669922Q152.17369610351562,75.99651336669922,152.24703610351563,75.98929336669921Q152.32036610351562,75.98206336669922,152.39263610351563,75.96769336669922Q152.46491610351563,75.95331336669922,152.53543610351562,75.93192336669922Q152.60594610351563,75.91053336669921,152.67402610351562,75.88233336669921Q152.74211610351563,75.85413336669922,152.80709610351562,75.81939336669922Q152.8720861035156,75.78465336669922,152.93335610351562,75.74371336669923Q152.99463610351563,75.70277336669922,153.05159610351564,75.65603336669922Q153.10855610351564,75.60928336669922,153.16066610351564,75.55717336669922Q153.21277610351564,75.50506336669922,153.2595261035156,75.44810336669921Q153.3062661035156,75.39114036669922,153.34720610351562,75.32986836669922Q153.38814610351562,75.26859736669923,153.42288610351562,75.20360836669921Q153.45762610351562,75.13861936669922,153.48582610351562,75.07053836669922Q153.51402610351562,75.00245736669922,153.53541610351562,74.93194036669922Q153.5568061035156,74.86142336669921,153.57118610351563,74.78914836669922Q153.58555610351561,74.71687436669922,153.59278610351564,74.64353936669922Q153.60000610351562,74.57020366669921,153.60000610351562,74.49651336669922Q153.60000610351562,74.48072646669922,153.59967610351563,74.46494296669921L150.60034610351562,74.52824016669922Z" fill-rule="evenodd" fill="#423232" fill-opacity="1"/></g><g><path d="M147.99996016845705,108.19651094726562C147.99996016845705,108.19651094726562,141.59996016845702,108.19651094726562,137.49996016845705,106.59651094726563C133.39996016845703,104.99651094726562,115.39996016845703,97.69651094726562,108.19996016845704,114.39652094726563C101.69996016845704,129.39652094726563,85.89996016845703,129.69652094726564,81.80000016845703,121.69652094726563C76.90000016845703,112.09651094726563,72.80000516845703,111.99651094726562,72.80000516845703,111.99651094726562C72.80000516845703,111.99651094726562,69.70000016845704,124.59652094726562,76.90000016845703,138.09652094726562C78.10000016845703,140.29652094726563,79.50000016845703,142.39652094726563,81.10000016845703,144.39652094726563C83.39996016845703,146.49652094726562,85.79996016845703,148.39652094726563,88.29996016845703,150.09652094726562C110.49996016845702,165.19652094726564,138.29996016845703,162.59652094726562,154.19996016845704,148.79652094726563C161.19996016845704,142.69652094726564,165.29996016845703,136.49652094726562,167.79996016845703,129.99652094726562C167.79996016845703,129.99652094726562,163.49996016845705,133.09652094726562,160.99996016845705,124.89652094726563C159.29996016845703,118.89652094726563,164.19996016845704,107.99651094726562,147.99996016845705,108.19651094726562ZM167.79996016845703,129.99652094726562C167.69996016845704,130.09652094726562,167.69996016845704,130.09652094726562,167.79996016845703,129.99652094726562Z" fill="#423232" fill-opacity="1"/></g></g></g></svg>