<svg xmlns="http://www.w3.org/2000/svg" xmlns:xlink="http://www.w3.org/1999/xlink" fill="none" version="1.1" width="193.2001953125" height="243" viewBox="0 0 193.2001953125 243"><g><g><g><path d="M63.3,151.09994338476562C63.3,151.09994338476562,41.8,158.19992938476562,26.6,169.69996938476564C14.6,178.79996938476563,3.1,189.79996938476563,0,195.89996938476563C0.1,195.89996938476563,0.1,195.99996938476562,0.1,195.99996938476562C27.1,224.39996938476563,65.1,242.29996938476563,107.2,242.89996938476563C107.9,242.89996938476563,108.6,242.89996938476563,109.3,242.89996938476563C110.3,242.89996938476563,111.2,242.89996938476563,112.2,242.89996938476563C113.2,242.89996938476563,114.1,242.79996938476563,115.1,242.79996938476563C115.8,242.79996938476563,116.5,242.6999693847656,117.3,242.6999693847656C117.7,242.6999693847656,118.2,242.59996938476564,118.6,242.59996938476564C119.3,242.59996938476564,120,242.59996938476564,120.7,242.49996938476562C121.4,242.39996938476563,122.1,242.39996938476563,122.8,242.29996938476563C122.8,242.29996938476563,122.9,242.29996938476563,122.9,242.29996938476563C123.4,242.1999693847656,124,242.1999693847656,124.5,242.09996938476564C126.1,241.89996938476563,127.8,241.6999693847656,129.4,241.49996938476562C130,241.49996938476562,130.6,241.39996938476563,131.1,241.29996938476563C131.5,241.1999693847656,131.9,241.1999693847656,132.3,241.09996938476564C133.2,240.99996938476562,134,240.79996938476563,134.9,240.6999693847656C135.5,240.59996938476564,136.2,240.49996938476562,136.8,240.39996938476563C137.2,240.29996938476563,137.5,240.29996938476563,137.9,240.1999693847656C139.7,239.79996938476563,141.6,239.39996938476563,143.4,238.99996938476562C144.2,238.79996938476563,144.9,238.6999693847656,145.6,238.49996938476562C147.5,238.09996938476564,149.4,237.59996938476564,151.3,236.99996938476562C151.9,236.79996938476563,152.6,236.59996938476564,153.2,236.39996938476563C155,235.79996938476563,156.9,235.1999693847656,158.7,234.59996938476564C159.5,234.29996938476563,160.4,233.99996938476562,161.2,233.6999693847656C161.3,233.6999693847656,161.3,233.6999693847656,161.3,233.6999693847656C162.1,233.39996938476563,163,232.99996938476562,163.8,232.6999693847656C164.6,232.39996938476563,165.5,231.99996938476562,166.3,231.6999693847656C167.1,231.39996938476563,168,231.09996938476564,168.8,230.6999693847656C170.4,229.99996938476562,172.1,229.29996938476563,173.7,228.49996938476562C174.5,228.09996938476564,175.3,227.6999693847656,176.1,227.29996938476563C176.2,227.29996938476563,176.3,227.1999693847656,176.3,227.1999693847656C177,226.89996938476563,177.8,226.49996938476562,178.5,226.09996938476564C180.9,224.89996938476563,183.3,223.59996938476564,185.6,222.1999693847656C185.7,222.09996938476564,185.8,222.09996938476564,185.9,221.99996938476562C186.6,221.59996938476564,187.2,221.1999693847656,187.9,220.79996938476563C188.7,220.39996938476563,189.4,219.89996938476563,190.2,219.39996938476563C190.9,218.89996938476563,191.7,218.39996938476563,192.4,217.89996938476563C186.6,202.1999693847656,169.6,168.09996938476561,129.7,159.69992938476562C77.4,148.79993938476562,63.3,151.09994338476562,63.3,151.09994338476562Z" fill="#C99589" fill-opacity="1"/></g><g><path d="M133.59999923706056,162.3999642944336C133.59999923706056,162.3999642944336,129.19999923706055,143.5999642944336,129.19999923706055,143.5999642944336C129.19999923706055,143.5999642944336,90.79999923706055,105.5999342944336,58.29999923706055,108.39993529443359C58.29999923706055,108.39993529443359,61.79999923706055,128.0999642944336,63.29999923706055,151.0999642944336C63.29999923706055,151.0999642944336,74.09999923706054,183.19996429443358,102.19999923706055,194.5999642944336C125.09999923706054,203.7999642944336,138.69999923706055,197.69996429443358,140.79999923706055,187.39996429443357C142.19999923706055,180.7999642944336,138.09999923706056,169.9999642944336,135.99999923706054,166.3999642944336C134.79999923706055,165.3999642944336,133.99999923706054,163.9999642944336,133.59999923706056,162.3999642944336Z" fill="#C99589" fill-opacity="1"/></g><g><path d="M131.4999969482422,153.19994506835937C115.5999969482422,151.19994506835937,100.49999694824218,146.8999450683594,87.69999694824219,135.59994506835938C102.79999694824218,162.69994506835937,116.89999694824219,165.49994506835938,135.9999969482422,166.49994506835938C134.79999694824218,165.49994506835938,133.9999969482422,164.09994506835938,133.5999969482422,162.3999450683594C133.5999969482422,162.3999450683594,131.4999969482422,153.19994506835937,131.4999969482422,153.19994506835937Z" fill="#A56663" fill-opacity="1"/></g><g><path d="M40.40000313598633,51.69991796875C35.70000313598633,82.29991796875,45.199993135986325,99.59991796875,53.10003313598633,108.20041796875C58.800033135986325,114.50041796875,63.90003313598633,121.40041796875,68.30003313598633,128.70041796875C73.90003313598632,138.00041796875,80.80003313598633,145.10041796875,88.30003313598633,150.20041796875C110.50003313598633,165.30041796875,138.30003313598633,162.70041796875,154.20043313598632,148.90041796875C177.80043313598634,128.40041796875,168.40043313598633,106.00041796875,173.30043313598634,83.59991796875C178.20043313598632,61.19991796875,177.30043313598634,54.39991796875,175.50043313598633,45.99991796875C170.60043313598632,23.79991796875,155.50043313598633,7.19993796875,126.40003313598633,1.69992796875C97.30003313598633,-3.80007203125,48.000003135986326,1.89992796875,40.40000313598633,51.69991796875Z" fill="#C99589" fill-opacity="1"/></g><g><path d="" fill="#C99589" fill-opacity="1"/></g><g><path d="M59.544508487548825,88.8626447241211L59.54478848754883,88.86373472412109Q59.574998487548825,88.9845947241211,59.624738487548825,89.09882472412109Q59.674478487548825,89.21304472412109,59.74237848754883,89.31749472412109Q59.81027848754883,89.42194472412109,59.89448848754883,89.5137547241211Q59.97868548754883,89.6055747241211,60.07688048754883,89.68224472412109Q60.17507548754883,89.7589147241211,60.284573487548826,89.81833472412109Q60.39407148754883,89.8777447241211,60.51187148754883,89.9182947241211Q60.62967048754883,89.95883472412109,60.752544487548825,89.97938472412109Q60.87541848754883,89.99993472412109,60.99999908754883,89.99993472412109Q61.07368928754883,89.99993472412109,61.147024487548826,89.9927147241211Q61.22036048754883,89.9854847241211,61.29263448754883,89.9711147241211Q61.36490848754883,89.95673472412109,61.43542648754883,89.9353447241211Q61.50594348754883,89.9139547241211,61.574024487548826,89.8857547241211Q61.642105487548825,89.85755472412109,61.70709448754883,89.82281472412109Q61.77208348754883,89.78807472412109,61.83335448754883,89.7471347241211Q61.89462548754883,89.70619472412109,61.951588487548825,89.65945472412109Q62.00854848754883,89.61270472412109,62.06065848754883,89.56059472412109Q62.11276848754883,89.50848472412109,62.15951848754883,89.4515247241211Q62.20625848754883,89.3945647241211,62.24719848754883,89.3332847241211Q62.28813848754883,89.27201472412109,62.32287848754883,89.20703472412109Q62.35761848754883,89.14204472412109,62.385818487548825,89.0739547241211Q62.41401848754883,89.0058747241211,62.43540848754883,88.93536472412109Q62.45679848754883,88.8648447241211,62.471178487548826,88.7925747241211Q62.485548487548826,88.72029472412109,62.492778487548826,88.64696472412109Q62.49999848754883,88.57362472412109,62.49999848754883,88.49993472412109Q62.49999848754883,88.3714547241211,62.47814848754883,88.24483472412109Q62.47834848754883,88.18653472412109,62.48624848754883,88.0964847241211Q62.51288848754883,87.79286472412109,62.60146848754883,87.4204947241211Q62.83601848754883,86.4344947241211,63.31227848754883,85.71693472412109Q64.45549848754882,83.9944727241211,66.82128848754883,84.9838047241211Q68.88830848754883,85.82945472412109,68.11206848754883,91.90998472412109Q68.10947848754883,91.9302947241211,68.10743848754883,91.95067472412109Q67.79706848754883,95.0544047241211,69.87337848754883,97.6803047241211Q70.87880848754882,98.95190472412109,71.99016848754883,99.66250472412109L71.99126848754882,99.6632047241211L71.99236848754883,99.6640047241211Q72.17326848754882,99.7795047241211,72.37936848754883,99.83970472412109Q72.58536848754883,99.89990472412109,72.79996848754882,99.89990472412109Q72.87366848754883,99.89990472412109,72.94706848754883,99.89270472412109Q73.02036848754882,99.88550472412109,73.09266848754882,99.8711047241211Q73.16486848754883,99.8567047241211,73.23546848754883,99.8353047241211Q73.30596848754882,99.8139047241211,73.37406848754883,99.78570472412109Q73.44206848754882,99.75750472412109,73.50706848754882,99.72280472412109Q73.57206848754883,99.68810472412109,73.63336848754884,99.64710472412109Q73.69466848754882,99.6062047241211,73.75156848754882,99.5594047241211Q73.80856848754883,99.5127047241211,73.86066848754882,99.4606047241211Q73.91276848754883,99.40850472412109,73.95946848754883,99.3515047241211Q74.00626848754882,99.29460472412109,74.04716848754883,99.2333047241211Q74.08816848754883,99.1720047241211,74.12286848754883,99.1070047241211Q74.15766848754883,99.0420047241211,74.18586848754883,98.9740047241211Q74.21406848754883,98.90590472412109,74.23536848754883,98.83540472412109Q74.25676848754883,98.76480472412109,74.27116848754883,98.6926047241211Q74.28556848754883,98.6203047241211,74.29276848754883,98.5470047241211Q74.29996848754882,98.47360472412109,74.29996848754882,98.39990472412109Q74.29996848754882,98.2110047241211,74.25316848754883,98.02800472412109Q74.20626848754883,97.8450047241211,74.11556848754883,97.6793047241211Q74.02476848754883,97.5136047241211,73.89576848754882,97.37560472412109Q73.76676848754883,97.2376047241211,73.60756848754883,97.13590472412109Q72.92016848754884,96.69670472412109,72.22666848754884,95.81960472412109Q70.90946848754882,94.15380472412109,71.09066848754883,92.2679447241211Q72.15036848754883,83.9225827241211,67.97870848754883,82.2160647241211Q65.55855848754882,81.20399472412109,63.58027848754883,81.8587047241211Q61.90424148754883,82.4133867241211,60.812725487548825,84.05793772412109Q60.04106848754883,85.22056472412109,59.68290848754883,86.72624472412109Q59.355288487548826,88.10349472412109,59.544468487548826,88.8624547241211L59.544508487548825,88.8626447241211ZM62.45520848754883,88.13613472412109Q62.46489848754883,88.1748847241211,62.472518487548825,88.2141047241211Q62.46674848754883,88.1822747241211,62.45520848754883,88.13613472412109Z" fill-rule="evenodd" fill="#423232" fill-opacity="1"/></g><g><path d="M159.10001225585938,97.69993088330078C160.20001225585938,98.59992788330078,158.50001225585936,101.59993788330078,156.50001225585936,103.99993788330079C152.90001225585937,108.29996788330078,149.10001225585938,108.09996788330078,149.10001225585938,108.09996788330078C144.50000225585939,108.09996788330078,137.50000225585939,104.29993788330079,138.69999825585938,101.89993788330078C139.90000225585936,99.49993788330079,158.00001225585936,96.69993088330078,159.10001225585938,97.69993088330078Z" fill="#A56663" fill-opacity="1"/></g><g><path d="M150.60034610351562,74.53165813544922Q150.60000610351562,74.51579653544921,150.60000610351562,74.49993133544922Q150.60000610351562,74.42624103544922,150.60722610351561,74.35290533544922Q150.61445610351564,74.27957033544922,150.62882610351562,74.20729633544921Q150.64320610351564,74.13502133544922,150.66459610351563,74.06450433544921Q150.68598610351563,73.99398733544922,150.71418610351563,73.92590633544921Q150.74238610351563,73.85782533544922,150.77712610351563,73.79283633544922Q150.81185610351562,73.72784733544921,150.85280610351563,73.66657633544922Q150.89374610351564,73.60530433544922,150.94048610351564,73.54834133544922Q150.9872361035156,73.49138133544922,151.0393461035156,73.43927133544922Q151.0914561035156,73.38716133544922,151.14841610351561,73.34041133544922Q151.20537610351562,73.29367133544922,151.26664610351563,73.25273133544921Q151.32792610351564,73.21179133544922,151.39290610351563,73.17705133544922Q151.45789610351562,73.14231133544922,151.52597610351563,73.11411133544922Q151.59406610351562,73.08591133544923,151.66457610351563,73.06452133544921Q151.73509610351562,73.04313133544922,151.80736610351562,73.02875133544921Q151.87964610351563,73.01438133544922,151.95297610351562,73.00715133544922Q152.02631610351563,72.99993133544922,152.10000610351562,72.99993133544922Q152.17270610351562,72.99993133544922,152.24506610351563,73.00696133544922Q152.31742610351563,73.01399133544922,152.38876610351562,73.02799133544922Q152.46011610351562,73.04198133544922,152.5297661035156,73.06281133544923Q152.59941610351564,73.08364133544922,152.66672610351563,73.11111133544922Q152.73404610351562,73.13858133544922,152.7983861035156,73.17243133544922Q152.86272610351563,73.20627133544922,152.92349610351562,73.24619133544923Q152.98425610351563,73.28610133544922,153.04087610351561,73.33170133544922Q153.09749610351562,73.37730133544922,153.14944610351563,73.42817133544922Q153.20138610351563,73.47903133544922,153.24817610351562,73.53468033544922Q153.29495610351563,73.59032833544921,153.33613610351563,73.65024133544922Q153.37732610351563,73.71015333544922,153.41251610351563,73.77376733544922Q153.44771610351563,73.83738233544922,153.47659610351562,73.90410133544921Q153.50546610351563,73.97082133544922,153.52775610351563,74.04002133544923Q153.55005610351563,74.10922033544922,153.56554610351563,74.18025133544921Q153.58103610351563,74.25128233544922,153.58959610351562,74.32347933544922Q153.59814610351563,74.39567533544921,153.59967610351563,74.46836093544921Q153.64658610351563,76.69659133544921,154.4275961035156,80.25320133544922Q156.00296610351563,87.42723133544922,159.7006061035156,93.85273133544922Q160.94710610351564,96.02243133544923,160.67340610351562,98.69343133544922Q160.41350610351563,101.23063133544922,158.8445061035156,103.56233133544922Q157.2392861035156,105.94783133544922,154.62836610351562,107.55023133544921Q151.8244461035156,109.27103133544921,148.32084910351563,109.78363133544923Q148.31895510351563,109.78383133544922,148.3170611035156,109.78413133544922L148.31680610351563,109.78423133544922L147.88320610351562,106.81573133544921L147.88781710351563,106.81503133544922Q153.60251610351563,105.97883133544921,156.3555161035156,101.88753133544921Q157.50559610351561,100.17833133544922,157.6890561035156,98.38773133544922Q157.86415610351563,96.67843133544922,157.0993361035156,95.34713133544922Q153.17201610351563,88.52263133544922,151.49740610351563,80.89665133544922Q150.65371610351562,77.05459133544922,150.60037610351563,74.53322523544922Q150.60198610351563,74.60585433544922,150.6106161035156,74.67798833544921Q150.61923610351562,74.75012233544922,150.63478610351564,74.82108433544921Q150.65034610351563,74.89204733544922,150.67268610351562,74.96117433544921Q150.69501610351563,75.03030233544922,150.72393610351563,75.09694733544922Q150.75284610351562,75.16359233544922,150.78806610351563,75.22713133544922Q150.8232861035156,75.29067133544922,150.86448610351562,75.35050933544922Q150.90567610351562,75.41034733544922,150.95246610351563,75.46592433544922Q150.99924610351562,75.52150133544922,151.05118610351562,75.57230133544923Q151.10311610351562,75.62309133544922,151.15972610351562,75.66863133544922Q151.21632610351563,75.71417133544922,151.27706610351564,75.75403133544921Q151.33779610351561,75.79388133544921,151.40210610351562,75.82769133544922Q151.46640610351562,75.86149133544922,151.53367610351563,75.88891133544922Q151.60094610351564,75.91634133544922,151.67055610351562,75.93714133544921Q151.74016610351563,75.95794133544922,151.81145610351564,75.97191133544922Q151.88274610351561,75.98589133544922,151.95505610351563,75.99291133544922Q152.02735610351561,75.99993133544922,152.10000610351562,75.99993133544922Q152.17369610351562,75.99993133544922,152.24703610351563,75.99271133544921Q152.32036610351562,75.98548133544922,152.39263610351563,75.97111133544922Q152.46491610351563,75.95673133544922,152.53543610351562,75.93534133544922Q152.60594610351563,75.91395133544921,152.67402610351562,75.88575133544921Q152.74211610351563,75.85755133544922,152.80709610351562,75.82281133544922Q152.8720861035156,75.78807133544922,152.93335610351562,75.74713133544923Q152.99463610351563,75.70619133544922,153.05159610351564,75.65945133544922Q153.10855610351564,75.61270133544922,153.16066610351564,75.56059133544922Q153.21277610351564,75.50848133544922,153.2595261035156,75.45152133544921Q153.3062661035156,75.39455833544922,153.34720610351562,75.33328633544922Q153.38814610351562,75.27201533544923,153.42288610351562,75.20702633544921Q153.45762610351562,75.14203733544922,153.48582610351562,75.07395633544922Q153.51402610351562,75.00587533544922,153.53541610351562,74.93535833544922Q153.5568061035156,74.86484133544921,153.57118610351563,74.79256633544922Q153.58555610351561,74.72029233544922,153.59278610351564,74.64695733544922Q153.60000610351562,74.57362163544921,153.60000610351562,74.49993133544922Q153.60000610351562,74.48414443544922,153.59967610351563,74.46836093544921L150.60034610351562,74.53165813544922Z" fill-rule="evenodd" fill="#423232" fill-opacity="1"/></g></g></g></svg>