<svg xmlns="http://www.w3.org/2000/svg" xmlns:xlink="http://www.w3.org/1999/xlink" fill="none" version="1.1" width="250" height="210.2364501953125" viewBox="0 0 250 210.2364501953125"><g><g><path d="M201.749068359375,22.299942779541016C199.349068359375,21.599942779541017,197.449068359375,19.899942779541014,196.649068359375,17.599942779541017C196.149068359375,16.099942779541017,195.449068359375,14.999942779541016,194.649068359375,14.399942779541016C192.949068359375,13.299942779541016,191.549068359375,12.799942779541016,190.449068359375,12.799942779541016C186.249068359375,12.699942779541015,182.349068359375,10.799942779541016,179.349068359375,7.899942779541016C176.94906835937502,5.599942779541015,174.54906835937498,5.599942779541015,172.54906835937498,6.399942779541016C168.349068359375,8.199942779541015,163.649068359375,7.999942779541016,159.44906835937502,6.199942779541016C158.349068359375,5.699942779541016,157.04906835937498,5.399942779541016,155.849068359375,5.399942779541016C155.549568359375,5.399942779541016,155.24956835937502,5.399942779541016,154.949568359375,5.499942779541016C150.049568359375,6.499942779541016,144.74956835937502,5.7999427795410154,140.74956835937502,2.7999427795410154C138.649568359375,1.1999427795410156,136.049568359375,-0.000057220458984375,133.149568359375,-0.000057220458984375C131.149568359375,-0.000057220458984375,129.34956835937498,0.7999427795410157,127.649568359375,1.9999427795410156C122.249568359375,6.099942779541015,114.94956835937501,7.199942779541016,108.94956835937501,3.8999427795410155C107.049568359375,2.7999427795410154,104.74956835937499,2.199942779541016,101.849568359375,2.2999427795410154C95.94956835937501,2.3999427795410155,91.149568359375,5.7999427795410154,87.349568359375,9.699942779541015C82.649568359375,14.699942779541015,75.349568359375,15.999942779541016,68.849568359375,13.699942779541015C66.049568359375,12.699942779541015,63.149538359375,13.099942779541015,60.249538359375,16.399942779541014C51.649538359375,26.299942779541016,58.549538359375,64.29994277954101,56.749542359375,73.39994277954102C57.749538359375,73.89994277954102,58.649548359375004,74.29994277954101,59.649548359375004,74.69994277954102C72.749568359375,80.29994277954101,86.549568359375,83.29994277954101,100.74956835937499,80.99994277954102C102.549568359375,77.19994277954102,104.24956835937499,72.69994277954102,105.649568359375,68.79994277954101C107.549568359375,63.399942779541014,113.049568359375,60.09994277954102,118.74956835937499,61.09994277954102C118.74956835937499,61.09994277954102,165.54906835937498,69.19994277954102,165.54906835937498,69.19994277954102C169.249068359375,69.79994277954101,173.04906835937498,69.39994277954102,176.44906835937502,67.99994277954102C176.44906835937502,67.99994277954102,188.249068359375,63.09994277954102,188.249068359375,63.09994277954102C190.349068359375,67.39994277954102,191.949068359375,71.99994277954102,193.049068359375,76.89994277954102C193.249068359375,78.19994277954102,193.549068359375,79.39994277954102,193.749068359375,80.59994277954101C196.249068359375,71.89994277954102,205.649068359375,38.499942779541016,204.649068359375,27.699942779541015C204.349068359375,24.299942779541016,203.249068359375,22.799942779541016,201.749068359375,22.299942779541016Z" fill="#423232" fill-opacity="1"/></g><g><path d="M194.449658203125,14.399942779541016C192.749658203125,13.299942779541016,191.349658203125,12.799942779541016,190.249658203125,12.799942779541016C186.049658203125,12.699942779541015,182.149658203125,10.799942779541016,179.149658203125,7.899942779541016C176.749658203125,5.599942779541015,174.349658203125,5.599942779541015,172.349658203125,6.399942779541016C168.149658203125,8.199942779541015,163.449658203125,7.999942779541016,159.249658203125,6.199942779541016C158.149658203125,5.699942779541016,156.849658203125,5.399942779541016,155.649658203125,5.399942779541016C155.349658203125,5.399942779541016,155.049658203125,5.399942779541016,154.749658203125,5.499942779541016C149.849658203125,6.499942779541016,144.549658203125,5.7999427795410154,140.549658203125,2.7999427795410154C138.449658203125,1.1999427795410156,135.849658203125,-0.000057220458984375,132.949658203125,-0.000057220458984375C130.949658203125,-0.000057220458984375,129.149658203125,0.7999427795410157,127.449658203125,1.9999427795410156C122.049658203125,6.099942779541015,114.749658203125,7.199942779541016,108.749658203125,3.8999427795410155C106.849658203125,2.7999427795410154,104.549658203125,2.199942779541016,101.649658203125,2.2999427795410154C95.749658203125,2.3999427795410155,90.949658203125,5.7999427795410154,87.149658203125,9.699942779541015C82.449658203125,14.699942779541015,75.149658203125,15.999942779541016,68.649658203125,13.699942779541015C66.549658203125,12.999942779541016,64.349658203125,12.999942779541016,62.149658203125,14.499942779541016C62.149658203125,14.499942779541016,66.749648203125,19.899942779541014,75.749658203125,18.299942779541016C84.749658203125,16.699942779541015,91.249658203125,12.799942779541016,97.349658203125,18.599942779541017C103.449658203125,24.499942779541016,106.649658203125,11.599942779541015,124.249658203125,11.599942779541015C133.049658203125,11.599942779541015,140.049658203125,18.199942779541015,145.549658203125,14.499942779541016C153.849658203125,8.899942779541016,159.749658203125,14.199942779541015,161.649658203125,15.799942779541016C163.549658203125,17.399942779541014,173.149658203125,11.599942779541015,178.349658203125,20.099942779541017C181.949658203125,25.899942779541014,186.349658203125,20.299942779541016,191.349658203125,21.599942779541017C196.349658203125,22.899942779541014,197.149658203125,23.799942779541016,201.549658203125,22.199942779541015C199.249658203125,21.499942779541016,197.249658203125,19.799942779541016,196.449658203125,17.599942779541017C195.949658203125,16.099942779541017,195.249658203125,14.999942779541016,194.449658203125,14.399942779541016Z" fill="#5E4949" fill-opacity="1"/></g><g><path d="M100.749619921875,81.09995277954101C85.449619921875,83.59994277954101,70.649619921875,79.89994277954102,56.749619921875,73.49994277954102C55.249619921875,81.39994277954102,53.849623921875,92.19994277954102,54.249624121875,105.49994277954102C55.049623921875,134.099942779541,77.049619921875,146.599942779541,77.049619921875,146.599942779541C77.049619921875,146.599942779541,89.149619921875,142.39994277954102,89.149619921875,142.39994277954102C89.149619921875,142.39994277954102,84.449619921875,140.79994277954103,79.949619921875,137.49994277954102C64.349619921875,125.69994277954102,69.149619921875,104.19994277954102,79.749619921875,102.89994277954102C90.34961992187499,101.49994277954102,94.84961992187499,109.19994277954102,96.549619921875,113.39994277954102C97.249619921875,103.59994277954101,89.84961992187499,92.89994277954102,95.34961992187499,88.89994277954102C97.149619921875,87.49994277954102,99.049619921875,84.59994277954101,100.749619921875,81.09995277954101Z" fill="#99807F" fill-opacity="1"/></g><g><path d="M74.049560546875,87.19992074829102C74.049560546875,87.19992074829102,74.049560546875,87.69992074829102,74.049560546875,87.69992074829102C74.049560546875,88.39992074829101,74.449566546875,88.99992074829102,75.149570546875,89.19992074829102C78.249570546875,90.19992074829102,87.149560546875,92.79991074829101,93.349560546875,92.49991074829101C93.549560546875,90.99991074829101,94.149560546875,89.69991074829102,95.349560546875,88.79991074829101C95.849560546875,88.49991074829101,96.249560546875,87.99991074829101,96.749560546875,87.49991074829101C96.249560546875,87.49991074829101,82.949560546875,87.49991074829101,76.049560546875,85.59991354829101C75.049560546875,85.39991374829101,74.049560546875,86.09991974829101,74.049560546875,87.19992074829102Z" fill="#423232" fill-opacity="1"/></g><g><path d="M82.049648203125,95.79997465798829C81.049652203125,95.69997463798828,80.149658203125,96.39998093798827,80.149658203125,97.39998393798828C80.149658203125,98.19998393798828,80.649661203125,98.79997393798828,81.449658203125,98.99997393798829C83.849658203125,99.49997393798829,89.149658203125,100.49998393798828,94.649658203125,100.89998393798828C94.249658203125,99.19998393798828,93.849658203125,97.69997393798828,93.649658203125,96.29997493798828C91.349658203125,96.39997493798828,86.549648203125,96.49997493798828,82.049648203125,95.79997465798829Z" fill="#423232" fill-opacity="1"/></g></g></svg>