<svg xmlns="http://www.w3.org/2000/svg" xmlns:xlink="http://www.w3.org/1999/xlink" fill="none" version="1.1" width="250" height="182.988525390625" viewBox="0 0 250 182.988525390625"><g><g><path d="M180.312,37.8886C174.412,43.3886,167.512,48.5886,156.812,44.3886C145.1121,39.7886,127.5121,22.8886,102.8121,49.5886C94.91210000000001,62.6886,102.8121,67.2886,97.21209999999999,85.7886C95.5121,81.5886,91.0121,73.9886,80.4121,75.2886C69.8121,76.6886,65.0121,98.0886,80.5121,109.889C85.0121,113.189,89.71209999999999,114.789,89.71209999999999,114.789C89.71209999999999,114.789,77.6121,118.989,77.6121,118.989C77.6121,118.989,59.71211,105.989,54.812112,77.7886C49.81211,48.5886,67.21209999999999,-2.4114,126.2121,0.0886017C182.012,2.4886,188.812,35.4886,188.812,35.4886C188.812,35.4886,183.812,34.5886,180.312,37.8886Z" fill="#99807F" fill-opacity="1"/></g></g></svg>