<svg xmlns="http://www.w3.org/2000/svg" xmlns:xlink="http://www.w3.org/1999/xlink" fill="none" version="1.1" width="250" height="209.24951171875" viewBox="0 0 250 209.24951171875"><g><g><path d="M191.15138815307617,65.90641335144043C190.65138815307617,64.30641335144043,189.45138815307618,63.10641335144043,187.85138815307616,62.806413351440426C182.65138815307617,61.90641335144043,175.85138815307616,67.20641335144043,168.65138815307617,66.20641335144043C145.65148815307617,63.10641335144043,132.25148815307617,50.70641335144043,110.75148815307617,59.10641335144043C88.55148815307618,67.80641335144043,101.05148815307618,103.50601335144043,96.45148815307617,109.00601335144043C95.75148815307617,106.20601335144043,91.75148815307617,94.80641335144043,78.95148815307617,96.40641335144043C66.75148815307617,98.00641335144043,62.251488153076174,125.90601335144044,87.25148815307617,135.50601335144043C87.25148815307617,135.50601335144043,87.15148815307617,143.70601335144042,78.65148815307617,158.90601335144044C78.65148815307617,158.90601335144044,76.55148815307618,150.50601335144043,72.25148815307617,142.80601335144044C69.25148815307617,137.40601335144044,63.851488153076176,131.40601335144044,59.05148815307617,122.80601335144043C53.65147815307617,114.10601335144042,45.65147815307617,96.50641335144043,47.15147415307617,69.40641335144043C49.65147815307617,23.80641335144043,64.45148815307617,2.6064533514404298,73.15148815307617,24.40641335144043C73.15148815307617,24.40641335144043,69.05148815307618,2.9064433514404295,79.95148815307617,0.3064443514404297C90.85148815307616,-2.29355664855957,101.15148815307617,12.506413351440429,101.15148815307617,12.506413351440429C101.15148815307617,12.506413351440429,95.65148815307617,0.0064489014404296875,110.15148815307617,0.0064489014404296875C128.45148815307618,0.0064489014404296875,141.65148815307617,14.10641335144043,141.65148815307617,14.10641335144043C141.65148815307617,14.10641335144043,138.75148815307617,1.5064533514404297,149.65138815307617,3.5064533514404297C164.95138815307615,6.30645335144043,176.05138815307618,27.00641335144043,176.05138815307618,27.00641335144043C176.05138815307618,27.00641335144043,178.45138815307618,17.30641335144043,185.75138815307616,24.50641335144043C189.25138815307616,27.90641335144043,192.65138815307617,34.20641335144043,195.05138815307618,41.50641335144043C219.75138815307616,46.306413351440426,193.75138815307616,76.60641335144042,192.35138815307616,70.50641335144043C191.95138815307618,68.90641335144043,191.55138815307618,67.40641335144043,191.15138815307617,65.90641335144043Z" fill="#423232" fill-opacity="1"/></g></g></svg>