<svg xmlns="http://www.w3.org/2000/svg" xmlns:xlink="http://www.w3.org/1999/xlink" fill="none" version="1.1" width="250" height="197.2689208984375" viewBox="0 0 250 197.2689208984375"><g><g><path d="M161.17805078125,17.737300273437498C115.67825078125,-0.7626697265624998,66.77825078125,18.237300273437498,55.97823078125,54.6373302734375C45.17823078125,91.0373302734375,61.17823078125,115.9370302734375,69.17825078125,125.5370302734375C77.17825078125,135.13703027343752,87.07825078125,129.9370302734375,87.27825078125,124.4370302734375C62.27823078125,114.8370302734375,66.87825078125,86.8373302734375,78.97825078125,85.3373302734375C91.77825078125,83.7373302734375,95.67825078125,95.1373302734375,96.47825078125,97.9373302734375C101.17825078125,92.4373302734375,88.57825078125,56.6373302734375,110.77825078125,48.0373302734375C132.27825078125,39.6373302734375,147.57825078125,37.7373302734375,170.47805078125,40.8373302734375C177.67805078125,41.8373302734375,182.67805078125,50.8373302734375,187.87805078125,51.7373302734375C189.47805078125,52.0373302734375,190.67805078125,53.3373302734375,191.17805078125,54.8373302734375C191.67805078125,56.3373302734375,192.07805078125,57.9373302734375,192.37805078125,59.4373302734375C193.87805078125,66.6373302734375,243.77805078125,42.2373302734375,180.47805078125,30.1373302734375C173.67805078125,28.8373302734375,168.97805078125,20.9373302734375,161.17805078125,17.737300273437498Z" fill="#423232" fill-opacity="1"/></g><g><path d="M53.578255546875,99.137318359375C58.778255546875,115.237318359375,68.07823554687499,124.137318359375,72.378235546875,131.837318359375C76.778235546875,139.537318359375,78.778235546875,147.937318359375,78.778235546875,147.937318359375C87.178235546875,132.737318359375,87.378235546875,124.537318359375,87.378235546875,124.537318359375C71.678235546875,125.537318359375,68.478235546875,109.137318359375,63.678235546875,102.537318359375C58.778255546875,95.837308359375,48.378255546875,83.037318359375,53.578255546875,99.137318359375Z" fill="#423232" fill-opacity="1"/></g><g><path d="M82.87822765625,68.83731015625C106.77819765625,103.13731015625,135.57819765624998,73.63731015625001,143.87819765625,52.13731015625C152.17819765625,30.637310156250003,170.47819765625002,47.43731015625,170.47819765625002,47.43731015625C170.07819765624998,33.737310156250004,169.67819765625,29.43731015625,132.17819765625,18.23733015625C94.87819765625,7.13733015625,58.97819765625,34.53731015625,82.87822765625,68.83731015625Z" fill="#423232" fill-opacity="1"/></g><g><path d="M77.8781625,66.2373C52.9782025,73.4373,66.1781625,121.837,66.1781625,121.837C66.1781625,121.837,43.9782065,97.2373,44.8782061,68.9373C45.7782065,40.6373,69.1781625,32.4373,69.1781625,32.4373C77.27816250000001,1.5373,120.7782625,-7.2627,144.77826249999998,5.9373C168.77856250000002,19.1373,171.3785625,6.7373,195.3785625,13.5373C221.4785625,20.9373,224.8785625,52.7373,207.7785625,66.2373C188.5785625,81.3373,170.4785625,47.4373,170.4785625,47.4373C159.9785625,32.1373,142.67816249999998,34.1373,126.1781625,34.1373C109.6781625,34.1373,102.77816250000001,59.0373,77.8781625,66.2373Z" fill="#423232" fill-opacity="1"/></g></g></svg>