<svg xmlns="http://www.w3.org/2000/svg" xmlns:xlink="http://www.w3.org/1999/xlink" fill="none" version="1.1" width="250" height="193.983154296875" viewBox="0 0 250 193.983154296875"><g><g><path d="M158.42785546875,11.652253417358398C99.42805546875,-5.347756582641601,67.32805546875,15.652243417358399,56.52803546875,52.0522434173584C45.72803546875,88.4522434173584,61.72803546875,115.1521434173584,69.72805546875,124.7521434173584C77.72805546875,134.3521434173584,78.42805546875,141.6521434173584,78.42805546875,141.6521434173584C82.52805546875,139.3521434173584,87.62805546875,129.1521434173584,87.82805546875,123.6521434173584C62.82803546875,114.0521434173584,67.42805546875,86.0522434173584,79.52805546875,84.5522434173584C92.32805546875,82.9522434173584,96.22805546875,94.3522434173584,97.02805546875,97.15224341735839C101.72805546875,91.65224341735839,98.62805546875,55.5522434173584,111.32805546875,47.2522434173584C124.02805546875,38.952243417358396,142.52805546874998,45.1522434173584,165.42785546875,48.2522434173584C170.52785546875,48.952243417358396,180.82785546875,46.0522434173584,184.42785546875,47.8522434173584C188.62785546875,49.952243417358396,194.82785546875,58.1522434173584,194.12785546875,73.65224341735839C196.62785546875,73.7522434173584,198.92785546875,73.9522434173584,201.22785546875,74.0522434173584C201.62785546875,69.5522434173584,202.12785546875,61.2522434173584,200.72785546875,52.6522434173584C201.02785546875,53.3522434173584,204.72785546875,65.35224341735841,204.62785546875,74.2522434173584C206.12785546875,74.3522434173584,207.72785546875,74.4522434173584,209.22785546875,74.4522434173584C209.62785546875,71.8522434173584,210.12785546875,67.9522434173584,210.12785546875,66.0522434173584C210.12785546875,63.952243417358396,211.02785546875,70.3522434173584,211.52785546875,74.4522434173584C212.92785546875,74.4522434173584,216.02785546875,74.65224341735839,217.42785546875,74.65224341735839C222.42785546875,57.8522434173584,216.92785546875,35.2522434173584,204.72785546875,22.9522434173584C184.52785546875,2.2522534173583986,158.42785546875,11.652253417358398,158.42785546875,11.652253417358398Z" fill="#423232" fill-opacity="1"/></g><g><path d="M75.628,75.65220572204589C75.628,75.65220572204589,36.728,82.9522057220459,27.72801,70.4522057220459C18.72801,57.952205722045896,41.528,50.3522057220459,41.528,50.3522057220459C41.528,50.3522057220459,22.72801,43.0522057220459,29.12801,32.7522057220459C35.628,22.4522057220459,66.02799999999999,22.052205722045898,66.02799999999999,22.052205722045898C66.02799999999999,22.052205722045898,45.928,1.5522257220458984,86.628,0.15222672204589843C136.128,-1.5477742779541015,158.528,11.552205722045898,158.528,11.552205722045898C158.328,17.1522057220459,121.928,23.052205722045898,104.928,35.452205722045896C81.628,52.3522057220459,75.628,75.65220572204589,75.628,75.65220572204589Z" fill="#423232" fill-opacity="1"/></g></g></svg>