<svg xmlns="http://www.w3.org/2000/svg" xmlns:xlink="http://www.w3.org/1999/xlink" fill="none" version="1.1" width="250" height="196.62025451660156" viewBox="0 0 250 196.62025451660156"><g><g><path d="M180.8467145690918,31.696538189697264C175.7467145690918,26.996538189697265,169.3467145690918,22.496538189697265,161.5467145690918,19.296508189697263C116.0469145690918,0.7965381896972659,67.14691456909179,19.796518189697267,56.346894569091795,56.196538189697264C45.5468945690918,92.59653818969727,61.5468945690918,117.49623818969727,69.5469145690918,127.09623818969726C77.5469145690918,136.69623818969728,78.2469145690918,143.99623818969727,78.2469145690918,143.99623818969727C82.3469145690918,141.69623818969725,87.4469145690918,131.49623818969727,87.64691456909179,125.99623818969727C62.6468945690918,116.39623818969727,67.2469145690918,88.39653818969727,79.3469145690918,86.89653818969727C92.14691456909179,85.29653818969726,96.0469145690918,96.69653818969726,96.8469145690918,99.49653818969726C101.5469145690918,93.99653818969726,99.0469145690918,52.196538189697264,111.14691456909179,49.59653818969726C130.4469145690918,45.39653818969727,148.5469145690918,43.296538189697266,171.4467145690918,46.39653818969727C179.9467145690918,47.59653818969726,185.5467145690918,50.296538189697266,190.8467145690918,54.49653818969727C191.5467145690918,56.59653818969726,192.14671456909178,58.696538189697264,192.64671456909178,60.89653818969727C194.2467145690918,67.99653818969728,195.0467145690918,73.99653818969728,192.3467145690918,89.19653818969726C195.3467145690918,85.39653818969727,196.8467145690918,80.19653818969726,197.3467145690918,74.79653818969726C199.2467145690918,58.696538189697264,192.8467145690918,42.696538189697264,180.8467145690918,31.696538189697264Z" fill="#423232" fill-opacity="1"/></g><g><path d="M92.24687122314454,74.89651787719727C147.24684122314454,88.89651787719727,176.74684122314454,43.696517877197266,176.74684122314454,43.696517877197266C171.14684122314452,34.69656787719727,128.24684122314454,27.496567877197265,104.84684122314454,37.69656787719727C81.54687122314454,47.99651787719726,92.24687122314454,74.89651787719727,92.24687122314454,74.89651787719727Z" fill="#423232" fill-opacity="1"/></g><g><path d="M204.24682658691407,73.59658233032226C196.24682658691407,73.39658233032227,189.84682658691406,68.79658233032227,184.94682658691406,63.296582330322266C177.44684658691406,54.796582330322266,173.64685758691405,44.296582330322266,173.64685758691405,44.296582330322266C173.64685758691405,44.296582330322266,171.14684658691405,25.096562330322264,188.94682658691406,35.79656233032227C206.74682658691407,46.39658233032227,204.24682658691407,73.59658233032226,204.24682658691407,73.59658233032226Z" fill="#423232" fill-opacity="1"/></g><g><path d="M47.446786880493164,158.29700381469726C50.946786880493164,142.09700381469727,50.34678688049316,130.49700381469728,50.34678688049316,130.49700381469728C45.14678688049317,158.49700381469728,25.446786880493164,172.79700381469726,25.446786880493164,172.79700381469726C42.64678688049317,144.29700381469726,11.746786880493165,49.49650381469726,40.046786880493165,13.196503814697266C68.34678688049317,-23.103496185302735,100.54678688049316,26.996503814697267,100.54678688049316,26.996503814697267C89.24678688049316,34.39650381469727,68.34678688049317,76.39650381469727,68.34678688049317,105.29700381469726C68.34678688049317,134.19700381469727,47.446786880493164,158.29700381469726,47.446786880493164,158.29700381469726Z" fill="#423232" fill-opacity="1"/></g><g><path d="M180.34668731689453,42.496507568740846C168.54668731689452,14.596497568740844,107.84668731689453,29.196507568740845,107.84668731689453,29.196507568740845C107.84668731689453,29.196507568740845,172.54668731689452,6.396507568740844,202.54668731689452,28.796507568740843C238.14668731689454,55.29650756874084,194.14668731689454,125.19660756874084,194.14668731689454,125.19660756874084C194.14668731689454,125.19660756874084,197.74668731689454,98.69650756874084,194.14668731689454,83.39650756874084C193.64668731689454,81.29650756874085,196.24668731689454,75.49650756874084,195.74668731689454,73.99650756874084C192.34668731689453,58.996507568740846,191.14668731689454,67.69650756874084,180.34668731689453,42.496507568740846Z" fill="#423232" fill-opacity="1"/></g></g></svg>