<svg xmlns="http://www.w3.org/2000/svg" xmlns:xlink="http://www.w3.org/1999/xlink" fill="none" version="1.1" width="250" height="198.169677734375" viewBox="0 0 250 198.169677734375"><g><g><path d="M58.05569864501953,49.394517729187015C58.05569864501953,49.394517729187015,47.05566864501953,53.09451772918701,44.15567064501953,70.79451772918702C43.25567074501953,76.49451772918701,42.35566464501953,83.794517729187,44.55566864501953,92.59451772918702C50.45566864501953,116.594117729187,66.25569864501954,133.194117729187,76.45569864501954,141.794117729187C80.25569864501952,138.99411772918702,83.55569864501953,135.09411772918702,84.05569864501953,130.494117729187C62.35569864501953,119.89411772918702,67.05569864501953,94.19451772918701,78.65569864501953,92.69451772918701C87.55569864501953,91.59451772918702,92.25569864501952,96.794517729187,94.45569864501954,100.99451772918701C95.35569864501953,102.19451772918701,83.45569864501954,35.29451772918701,152.55579864501954,57.19451772918701C172.15579864501953,63.394517729187015,192.45579864501954,68.49451772918701,199.55579864501954,42.794517729187014C206.65579864501953,17.094477729187012,143.65579864501953,11.294475729187011,110.75569864501954,10.794475629187012C77.95569864501954,10.094475729187012,58.45569864501953,30.694517729187012,58.05569864501953,49.394517729187015Z" fill="#423232" fill-opacity="1"/></g><g><path d="M187.95563049316405,38.99449462036133C183.35563049316406,36.09449862036133,178.25563049316406,34.994507620361325,173.25563049316406,35.394507820361326C183.25563049316406,43.39450462036133,189.25563049316406,54.19450462036133,192.05563049316407,66.69450462036133C193.35563049316406,72.79450462036132,194.15563049316407,77.99450462036133,192.65563049316407,88.89450462036133C196.55563049316407,85.19450462036133,199.35563049316406,80.19450462036133,200.35563049316406,73.69450462036133C201.25563049316406,67.29450462036132,197.85563049316406,62.69450462036133,197.05563049316407,58.39450462036133C194.55563049316407,43.59450462036133,187.95563049316405,38.99449462036133,187.95563049316405,38.99449462036133Z" fill="#423232" fill-opacity="1"/></g><g><path d="M190.15562286376954,46.694519073486326C197.05562286376954,53.49451907348633,195.95562286376952,60.194519073486326,196.65562286376954,69.59451907348632C197.35562286376953,78.99451907348633,192.55562286376954,88.79451907348633,192.55562286376954,88.79451907348633C192.55562286376954,88.79451907348633,206.45562286376952,81.79451907348633,207.75562286376953,70.39451907348632C208.85562286376953,61.29451907348633,198.15562286376954,58.49451907348633,198.15562286376954,58.49451907348633C204.95562286376952,52.594519073486325,216.85562286376953,36.49451907348633,206.55562286376954,24.094519073486328C196.25562286376953,11.694519073486328,177.25562286376953,16.494519073486327,177.25562286376953,16.494519073486327C177.25562286376953,16.494519073486327,181.25562286376953,5.0945090734863285,170.15562286376954,0.9945100734863281C156.75562286376953,-3.905490926513672,118.75562286376953,10.894519073486329,118.75562286376953,10.894519073486329C118.75562286376953,10.894519073486329,131.55562286376954,28.69451907348633,149.15562286376954,37.49451907348633C166.85562286376953,46.29451907348633,183.25562286376953,39.79451907348633,190.15562286376954,46.694519073486326Z" fill="#423232" fill-opacity="1"/></g></g></svg>