<svg xmlns="http://www.w3.org/2000/svg" xmlns:xlink="http://www.w3.org/1999/xlink" fill="none" version="1.1" width="250" height="192.2918701171875" viewBox="0 0 250 192.2918701171875"><g><g><path d="M207.71989434814452,134.43103910064698C208.21989434814452,140.33103910064696,206.81989434814454,142.03103910064698,203.61989434814453,143.03103910064698C197.81989434814454,144.83103910064696,191.61989434814453,132.43103910064698,191.21989434814452,128.53103910064698C191.51989434814453,132.23103910064697,193.61989434814453,150.63103910064697,189.11989434814453,156.13103910064697C183.31989434814454,163.23103910064697,178.61989434814453,156.43103910064698,179.21989434814452,151.03103910064698C192.91989434814454,132.83103910064696,186.41989434814454,113.23103910064697,190.61989434814453,93.83123910064697C191.31989434814454,90.33123910064697,191.91989434814454,87.33123910064697,192.41989434814454,84.53123910064697C192.51989434814453,83.63123910064698,192.71989434814452,82.83123910064697,192.81989434814454,82.03123910064697C192.91989434814454,81.93123910064698,192.91989434814454,81.73123910064697,192.91989434814454,81.63123910064698C193.01989434814453,80.93123910064698,193.11989434814453,80.33123910064697,193.21989434814452,79.73123910064697C193.21989434814452,79.43123910064698,193.31989434814454,79.03123910064697,193.31989434814454,78.73123910064697C193.41989434814454,78.33123910064697,193.41989434814454,77.93123910064698,193.51989434814453,77.53123910064697C193.61989434814453,77.03123910064697,193.71989434814452,76.53123910064697,193.71989434814452,76.13123910064698C193.71989434814452,75.83123910064697,193.81989434814454,75.63123910064698,193.81989434814454,75.33123910064697C193.81989434814454,74.83123910064697,193.91989434814454,74.43123910064698,193.91989434814454,73.93123910064698C194.01989434814453,73.73123910064697,194.01989434814453,73.53123910064697,194.01989434814453,73.33123910064697C194.11989434814453,73.03123910064697,194.11989434814453,72.83123910064697,194.11989434814453,72.53123910064697C194.51989434814453,66.23123910064697,194.01989434814453,62.03123910064697,193.11989434814453,57.731239100646974C193.01989434814453,57.231239100646974,192.91989434814454,56.731239100646974,192.81989434814454,56.231239100646974C192.71989434814452,55.93123910064697,192.51989434814453,55.13123910064697,192.11989434814453,54.231239100646974C184.21989434814452,58.43123910064697,174.11989434814453,59.731239100646974,163.91989434814454,57.231239100646974C160.51989434814453,56.43123910064697,156.11989434814453,55.13123910064697,151.21989434814452,53.43123910064697C150.01989434814453,57.331239100646975,144.61989434814453,59.13123910064697,137.01989434814453,55.331239100646975C132.91969434814453,53.231239100646974,129.61969434814455,50.331239100646975,127.21969434814453,47.231239100646974C126.21969434814453,50.13123910064697,125.51969434814453,52.731239100646974,125.31969434814454,54.93123910064697C124.71969434814453,61.53123910064697,115.11969434814453,64.33123910064697,112.81969434814454,55.231239100646974C110.61969434814453,59.03123910064697,109.31969434814454,63.63123910064697,109.61969434814453,68.73123910064697C109.81969434814454,72.03123910064697,110.61969434814453,75.53123910064697,112.11969434814453,79.33123910064697C113.71969434814453,83.53123910064697,110.41969434814453,85.63123910064698,106.61969434814453,84.63123910064698C107.21969434814453,88.33123910064697,108.11969434814453,91.83123910064697,109.11969434814453,94.93123910064698C113.91969434814453,109.73103910064697,106.51969434814453,113.03103910064698,102.21969434814453,108.33103910064698C99.81969434814454,105.63103910064697,98.21969434814453,100.03103910064698,97.11969434814453,95.33123910064697C97.11969434814453,95.33123910064697,94.01969434814453,80.23123910064697,79.41969434814453,82.13123910064698C66.71969434814453,83.73123910064697,62.31969434814453,113.73103910064697,90.71969434814453,122.23103910064697C89.01969434814453,132.23103910064697,87.91969434814453,141.43103910064698,88.31969434814454,148.03103910064698C89.21969434814453,162.83103910064696,73.61969434814453,160.93103910064698,73.41969434814453,139.03103910064698C73.31969434814454,138.13103910064697,73.21969434814453,137.13103910064697,73.21969434814453,136.13103910064697C71.61969434814453,141.83103910064696,70.11969434814453,146.33103910064696,69.51969434814453,147.43103910064698C63.81969434814453,158.33103910064696,52.41969434814453,156.33103910064696,54.81969434814453,140.63103910064697C55.119694348144535,138.83103910064696,55.619694348144535,136.23103910064697,56.31969434814453,133.23103910064697C52.81969434814453,149.23103910064697,35.01970834814453,150.63103910064697,38.21970434814453,134.83103910064696C38.01970434814453,134.43103910064698,37.81971434814453,134.13103910064697,37.619714348144534,133.83103910064696C30.91971434814453,122.23103910064697,35.11970534814453,108.73103910064697,41.919704348144535,96.03123910064697C48.21969434814453,84.23123910064697,51.41969434814453,71.13123910064698,51.91969434814453,57.831239100646975C52.41969434814453,46.63123910064697,55.31969434814453,32.231239100646974,65.51969434814453,19.631239100646972C71.31969434814454,12.531239100646973,78.91969434814453,7.631239100646972,87.21969434814453,4.531239100646973C92.31969434814454,2.4312391006469727,97.81969434814454,1.2312391006469727,103.41969434814453,0.6312351006469726C108.01969434814453,0.13123510064697266,112.71969434814453,-0.06876379935302734,117.21969434814453,0.031236200646972655C143.31989434814454,0.43123610064697265,165.51989434814453,-1.0687608993530273,177.61989434814453,1.9312391006469727C197.31989434814454,6.731239100646973,210.81989434814454,19.431239100646973,206.71989434814452,36.03123910064697C205.81989434814454,39.831239100646975,204.11989434814453,43.231239100646974,201.81989434814454,46.13123910064697C205.11989434814453,51.63123910064697,207.91989434814454,59.53123910064697,208.21989434814452,70.23123910064697C208.41989434814454,77.43123910064698,204.51989434814453,83.53123910064697,201.51989434814453,81.53123910064697C201.91989434814454,85.73123910064697,203.21989434814452,92.03123910064697,207.91989434814454,96.33123910064697C214.21989434814452,102.03103910064698,205.71989434814452,110.93103910064697,199.71989434814452,105.83103910064698C200.61989434814453,117.93103910064697,207.11989434814453,126.13103910064697,207.71989434814452,134.43103910064698Z" fill="#423232" fill-opacity="1"/></g></g></svg>