<svg xmlns="http://www.w3.org/2000/svg" xmlns:xlink="http://www.w3.org/1999/xlink" fill="none" version="1.1" width="250" height="200.84938049316406" viewBox="0 0 250 200.84938049316406"><g><g><path d="M158.22331896484374,182.682421875C151.02331896484375,181.882421875,147.72332896484374,177.082421875,149.92333396484375,170.382421875C158.12332896484375,168.682421875,165.52333896484376,165.082421875,171.32333896484374,160.082421875C184.52333896484376,148.682421875,187.42333896484377,136.582421875,188.22333896484375,124.282421875C188.62333896484375,118.782421875,188.52333896484376,113.282421875,188.82333896484374,107.682421875C189.02333896484376,103.482421875,189.42333896484377,99.182421875,190.32333896484374,94.982421875C190.02333896484376,96.582421875,191.02333896484376,107.482421875,200.82333896484374,117.482421875C211.12333896484375,127.982421875,216.12333896484375,135.882421875,212.22333896484375,146.982421875C208.32333896484374,158.182421875,212.62333896484375,156.482421875,218.22333896484375,168.882421875C223.82333896484374,181.282421875,209.12333896484375,207.282421875,184.72333896484375,199.382421875C168.42333896484377,194.282421875,165.42333896484377,183.482421875,158.22331896484374,182.682421875Z" fill="#423232" fill-opacity="1"/></g><g><path d="M96.7233818069458,95.78239713897705C96.0233818069458,92.98239713897705,92.0233818069458,81.58239713897706,79.2233818069458,83.18239713897705C67.02338180694579,84.78239713897705,62.5233818069458,112.68199713897705,87.5233818069458,122.28199713897705C87.5233818069458,122.28199713897705,103.7233818069458,130.48199713897705,96.9233818069458,148.68199713897704C95.5233818069458,152.38199713897706,91.2233818069458,159.28199713897706,91.2233818069458,159.28199713897706C91.2233818069458,159.28199713897706,102.1233818069458,181.78199713897706,93.3233818069458,192.98199713897705C89.0233818069458,198.48199713897705,78.1233818069458,204.78199713897706,56.2233818069458,190.88199713897706C41.7233818069458,181.68199713897704,27.4233818069458,198.68199713897704,19.423381806945798,190.28199713897706C4.023421806945801,174.28199713897706,30.4233818069458,156.28199713897706,22.423381806945798,153.68199713897704C3.1234218069458004,147.48199713897705,1.723421806945801,117.18199713897705,29.1233818069458,105.58199713897704C52.7233818069458,95.58239713897706,51.823381806945804,80.58239713897706,50.9233818069458,66.68239713897705C47.0233818069458,3.182427138977051,96.9233818069458,-7.017562861022949,145.0232818069458,3.682437138977051C157.3232818069458,6.382427138977051,167.1232818069458,-0.6175648610229493,174.6232818069458,0.9824351389770508C195.5232818069458,5.482437138977051,197.3232818069458,23.88239713897705,194.8232818069458,27.58239713897705C228.8232818069458,46.78239713897705,191.6232818069458,92.18239713897705,192.1232818069458,85.78239713897705C192.9232818069458,74.28239713897705,192.7232818069458,70.08239713897706,192.3232818069458,68.58239713897706C191.9232818069458,67.18239713897705,189.2232818069458,43.98239713897705,177.6232818069458,45.78239713897705C176.5232818069458,47.98239713897705,174.7232818069458,48.98239713897705,172.6232818069458,47.88239713897705C163.2232818069458,42.78239713897705,151.4232818069458,40.18239713897705,129.8232818069458,75.78239713897705C108.0233818069458,111.38199713897706,96.7233818069458,95.78239713897705,96.7233818069458,95.78239713897705Z" fill="#423232" fill-opacity="1"/></g></g></svg>