<svg xmlns="http://www.w3.org/2000/svg" xmlns:xlink="http://www.w3.org/1999/xlink" fill="none" version="1.1" width="250" height="230.25558471679688" viewBox="0 0 250 230.25558471679688"><g><g><path d="M161.574046875,15.85558640625C116.074246875,-2.6443835937499998,67.174246875,16.355586406249998,56.374226875,52.75561640625C45.574226875,89.15561640625,61.574226875,114.05531640625,69.574246875,123.65531640625C77.574246875,133.25531640625002,87.474246875,128.05531640625,87.674246875,122.55531640625C62.674226875,112.95531640625,67.274246875,84.95561640625,79.374246875,83.45561640625C92.174246875,81.85561640625,96.074246875,93.25561640625,96.874246875,96.05561640625C101.574246875,90.55561640625,88.974246875,54.75561640625,111.174246875,46.15561640625C132.674246875,37.75561640625,147.974246875,47.45561640625,170.874046875,50.55561640625C178.074046875,51.55561640625,183.074046875,48.95561640625,188.274046875,49.85561640625C189.874046875,50.15561640625,191.074046875,51.45561640625,191.574046875,52.95561640625C192.074046875,54.45561640625,192.474046875,56.05561640625,192.774046875,57.55561640625C194.274046875,64.75561640625,194.174046875,33.155616406250005,180.874046875,28.25561640625C174.374046875,25.95561640625,169.374046875,19.05561640625,161.574046875,15.85558640625Z" fill="#423232" fill-opacity="1"/></g><g><path d="M54.77417578125,90.0556030859375C59.97417578125,106.1556130859375,68.47412578125,122.2556130859375,72.77412578125,129.9556130859375C77.17412578125,137.6556130859375,79.17422578125,146.0556130859375,79.17422578125,146.0556130859375C87.57422578125,130.8556130859375,87.77412578125,122.6556130859375,87.77412578125,122.6556130859375C72.07412578125,123.6556130859375,68.87422578125,107.2556130859375,64.07422578125,100.6556130859375C59.17417578125,93.9556130859375,49.57417578125,73.9556030859375,54.77417578125,90.0556030859375Z" fill="#423232" fill-opacity="1"/></g><g><path d="M59.17418359375,199.9555908203125C90.67418359375,222.5555908203125,101.07418359375,230.2555908203125,101.07418359375,230.2555908203125C107.67418359375,204.6555908203125,106.67418359375,180.4555908203125,88.77418359375,156.8555908203125C70.87418359374999,133.2555908203125,73.67418359375,114.5555908203125,73.67418359375,114.5555908203125C73.27418359375,104.5555908203125,61.57418359375,102.3555908203125,61.47418359375,102.3555908203125C20.07418359375,138.7555908203125,27.674163593750002,177.3555908203125,59.17418359375,199.9555908203125Z" fill="#423232" fill-opacity="1"/></g><g><path d="M81.67414375,67.6556C61.57414375,82.9556,70.37414375,119.956,70.37414375,119.956C70.37414375,119.956,48.87412775,96.7556,49.67412815,70.1556C49.77412775,68.1556,49.97412775,66.1556,50.17412775,64.1556C53.77412375,35.2556,74.57414375,9.45563,103.77414375000001,2.95563C189.07434375,-16.2444,195.87434375,64.8556,182.17434375,52.4556C170.57434375,41.9556,162.67434375,38.3556,157.37434374999998,37.9556C153.07434375,37.6556,149.07414375000002,36.1556,145.37414375,33.8556C143.17414374999998,32.5556,138.07414375000002,37.3556,128.47414375,37.4556C112.57414374999999,37.4556,99.87414375,53.7556,81.67414375,67.6556Z" fill="#423232" fill-opacity="1"/></g><g><path d="M193.474072265625,69.555636328125C178.474072265625,70.055636328125,148.174072265625,12.355636328125,148.174072265625,12.355636328125C148.174072265625,12.355636328125,170.074072265625,-8.244383671875,192.274072265625,4.255616328125C224.074072265625,22.055636328125,208.474072265625,69.055636328125,193.474072265625,69.555636328125Z" fill="#423232" fill-opacity="1"/></g><g><path d="M141.174061171875,60.4556185546875C153.774101171875,66.9556185546875,161.674101171875,54.0556185546875,161.674101171875,54.0556185546875C161.674101171875,54.0556185546875,168.074101171875,67.0556185546875,174.774101171875,62.7556185546875C186.474101171875,55.1556185546875,161.674101171875,28.6556385546875,161.674101171875,28.6556385546875C154.074101171875,18.355638554687502,136.974051171875,35.5556185546875,136.974051171875,35.5556185546875C136.974051171875,35.5556185546875,128.574061171875,54.0556185546875,141.174061171875,60.4556185546875Z" fill="#423232" fill-opacity="1"/></g><g><path d="M113.77421875,68.9556193359375C134.97421875,64.9556193359375,139.47421875,37.6556493359375,139.47421875,37.6556493359375C121.47421875,16.6556193359375,90.07421875,51.1556193359375,90.07421875,51.1556193359375C90.07421875,51.1556193359375,92.57421875,72.9556193359375,113.77421875,68.9556193359375Z" fill="#423232" fill-opacity="1"/></g><g><path d="M204.1740234375,61.3556140625C204.8740234375,79.0556640625,192.3740234375,86.15556406249999,192.3740234375,86.15556406249999C195.1740234375,71.1555640625,194.1740434375,55.655604062500004,194.1740434375,55.655604062500004C194.1740434375,55.655604062500004,203.4740234375,43.6556140625,204.1740234375,61.3556140625Z" fill="#423232" fill-opacity="1"/></g></g></svg>