<svg xmlns="http://www.w3.org/2000/svg" xmlns:xlink="http://www.w3.org/1999/xlink" fill="none" version="1.1" width="250" height="201.6146240234375" viewBox="0 0 250 201.6146240234375"><g><g><path d="M187.55305859375,7.059904686889649C167.05305859375,-9.440095313110351,140.45255859374998,8.059904686889649,136.65255859375,8.759904686889648C132.85255859375002,9.459904686889649,114.65255859375,-0.24009631311035157,97.65255859375,5.3599046868896485C71.35255859375,13.95994468688965,72.35255859375,29.359944686889648,69.25255859375,31.45994468688965C66.15255859375,33.55994468688965,54.15259859375,37.659944686889645,48.55259859375,55.45994468688965C45.25259859375,65.85994468688965,46.65258959375,74.45994468688964,48.45258859375,80.15994468688965C50.05258859375,85.05994468688965,50.15259859375,90.35994468688965,48.55259859375,95.25994468688965C46.95259559375,100.35994468688965,45.95259559375,107.45994468688964,49.55259859375,115.05994468688965C57.852558593750004,132.55994468688965,73.05255859375,132.15994468688965,72.95255859375,137.45994468688966C72.45255859375,163.45994468688966,87.25255859375,140.15994468688965,87.55255859375,130.85994468688966C62.55255859375,121.25994468688965,67.15255859375,93.25994468688965,79.25255859375,91.75994468688965C92.05255859375,90.15994468688965,95.95255859375,101.55994468688965,96.75255859375,104.35994468688965C101.45255859375,98.85994468688965,101.45255859375,93.55994468688965,100.45255859375,88.05994468688965C96.95255859375,67.95994468688964,116.05255859375,75.65994468688965,118.95255859375,55.45994468688965C118.95255859375,55.45994468688965,121.85255859375,62.05994468688965,132.55255859375,63.159944686889645C142.55255859375,64.25994468688965,148.25305859374998,59.55994468688965,148.25305859374998,59.55994468688965C148.25305859374998,59.55994468688965,175.15305859375,74.65994468688965,190.85305859375,59.35994468688965C191.55305859375,61.459844686889646,192.15305859375,63.55994468688965,192.65305859375,65.75994468688965C194.25305859375,72.85994468688965,195.05305859375,78.85994468688965,192.35305859375,94.05994468688965C196.65305859375,89.25994468688965,202.75305859375,81.15994468688965,205.55305859375,72.45994468688964C212.35305859375,51.45994468688965,199.95305859375,41.95994468688965,199.95305859375,41.95994468688965C199.95305859375,41.95994468688965,207.35305859375,23.059944686889647,187.55305859375,7.059904686889649Z" fill="#423232" fill-opacity="1"/></g></g></svg>