<svg xmlns="http://www.w3.org/2000/svg" xmlns:xlink="http://www.w3.org/1999/xlink" fill="none" version="1.1" width="250" height="205.9871826171875" viewBox="0 0 250 205.9871826171875"><g transform="translate(0 -3)"><g><path d="M180.60499627685547,42.01855609779358C175.50499627685548,37.318556097793575,169.10499627685547,32.818556097793575,161.30499627685546,29.618526097793577C115.80519627685547,11.11855609779358,66.90519627685546,30.11853609779358,56.10517627685547,66.51855609779358C45.30517627685547,102.91855609779358,61.30517627685547,127.81825609779358,69.30519627685547,137.41825609779357C77.30519627685547,147.0182560977936,78.00519627685547,154.31825609779358,78.00519627685547,154.31825609779358C82.10519627685547,152.01825609779357,87.20519627685547,141.81825609779358,87.40519627685546,136.31825609779358C62.40517627685547,126.71825609779359,67.00519627685547,98.71855609779358,79.10519627685547,97.21855609779358C91.90519627685546,95.61855609779357,95.80519627685547,107.01855609779358,96.60519627685547,109.81855609779358C101.30519627685547,104.31855609779358,101.30519627685547,99.01855609779358,100.30519627685547,93.51855609779358C96.80519627685547,73.41855609779358,98.80519627685547,62.51855609779358,110.90519627685546,59.91855609779358C130.20519627685547,55.71855609779358,147.70519627685547,65.51855609779358,170.60499627685547,68.61855609779357C179.20499627685547,69.81855609779359,184.40499627685546,62.01855609779358,190.70499627685547,64.81855609779359C191.40499627685546,66.91855609779358,192.00499627685548,69.01855609779358,192.50499627685548,71.21855609779358C194.10499627685547,78.31855609779359,194.90499627685546,84.31855609779359,192.20499627685547,99.51855609779358C195.20499627685547,95.71855609779358,196.70499627685547,90.51855609779358,197.10499627685547,85.11855609779357C199.00499627685548,69.01855609779358,192.60499627685547,53.01855609779358,180.60499627685547,42.01855609779358Z" fill="#423232" fill-opacity="1"/></g><g><path d="M27.10513315185547,67.8184C20.30513315185547,49.4184,52.60514315185547,46.8184,52.60514315185547,46.8184C52.60514315185547,46.8184,30.805143151855468,33.6184,39.50514315185547,21.5184C48.60514315185547,8.91842,69.40514315185547,27.5184,69.40514315185547,27.5184C64.00514315185546,15.6184,58.005143151855464,-3.38158,75.40514315185547,0.518416C92.80514315185548,4.41842,89.90514315185547,36.5184,89.90514315185547,36.5184C89.80514315185548,43.4184,69.40514315185547,62.2184,69.40514315185547,62.2184C69.40514315185547,62.2184,34.00513315185547,86.2184,27.10513315185547,67.8184Z" fill="#423232" fill-opacity="1"/></g></g></svg>