<svg xmlns="http://www.w3.org/2000/svg" xmlns:xlink="http://www.w3.org/1999/xlink" fill="none" version="1.1" width="250" height="193.21435546875" viewBox="0 0 250 193.21435546875"><g><g><path d="M67.8751838684082,99.44592906005859C67.8751838684082,99.44592906005859,67.8751838684082,91.24593206005859,67.8751838684082,90.7459322600586C67.8751838684082,90.1459320600586,65.17517386840821,98.64592906005859,65.17517386840821,98.64592906005859C65.17517386840821,98.64592906005859,57.0751838684082,97.94592906005859,57.0751838684082,97.94592906005859C61.3751838684082,115.8458990600586,70.7751838684082,121.6458990600586,73.97518386840821,127.1458990600586C78.1751838684082,134.2458990600586,79.1751838684082,147.3458990600586,79.1751838684082,147.3458990600586C79.1751838684082,147.3458990600586,83.1751838684082,121.8458990600586,83.1751838684082,121.8458990600586C73.5751838684082,116.1458990600586,70.0751838684082,107.1458990600586,70.3751838684082,99.64592906005859C70.3751838684082,99.64592906005859,67.8751838684082,99.44592906005859,67.8751838684082,99.44592906005859Z" fill="#99807F" fill-opacity="1"/></g><g><path d="M196.9751838684082,30.545922888183593C189.2751838684082,14.545922888183593,127.5751838684082,-0.9540671118164062,114.6751838684082,0.04593278818359375C105.5751838684082,0.7459328881835937,98.2751838684082,7.1459328881835935,94.7751838684082,10.745922888183594C94.7751838684082,10.745922888183594,92.97518386840821,9.645932888183594,89.3751838684082,9.645932888183594C84.7751838684082,9.645932888183594,77.0751838684082,11.545922888183593,66.2751838684082,20.245922888183593C47.175183868408205,35.64592288818359,42.0751838684082,96.44592288818359,42.0751838684082,96.44592288818359C42.0751838684082,96.44592288818359,57.0751838684082,97.8459228881836,57.0751838684082,97.8459228881836C57.0751838684082,97.8459228881836,65.1751838684082,98.5459228881836,65.1751838684082,98.5459228881836C65.1751838684082,98.5459228881836,67.8751838684082,90.14592288818359,67.8751838684082,90.64592288818359C67.8751838684082,91.14592288818359,67.8751838684082,99.3459228881836,67.8751838684082,99.3459228881836C67.8751838684082,99.3459228881836,70.3751838684082,99.5459228881836,70.3751838684082,99.5459228881836C70.6751838684082,92.14592288818359,74.6751838684082,85.94592288818359,80.1751838684082,85.2459228881836C94.7751838684082,83.44592288818359,97.8751838684082,98.44592288818359,97.8751838684082,98.44592288818359C97.8751838684082,98.44592288818359,98.7751838684082,102.6460228881836,98.7751838684082,102.6460228881836C98.7751838684082,102.6460228881836,118.97518386840821,104.1460228881836,118.97518386840821,104.1460228881836C118.97518386840821,104.1460228881836,119.3751838684082,90.3459228881836,121.6751838684082,74.8459228881836C121.3751838684082,80.44592288818359,121.47518386840821,84.0459228881836,121.47518386840821,84.0459228881836C121.47518386840821,84.0459228881836,132.2751838684082,85.14592288818359,132.2751838684082,85.14592288818359C132.2751838684082,85.14592288818359,132.87518386840821,53.345922888183594,143.6751838684082,41.14592288818359C147.4751838684082,38.845922888183594,154.9751838684082,37.0459228881836,163.6751838684082,49.64592288818359C163.6751838684082,49.64592288818359,163.9751838684082,46.945922888183595,162.9751838684082,43.74592288818359C165.4751838684082,46.64592288818359,166.9751838684082,49.24592288818359,166.9751838684082,49.24592288818359C167.0751838684082,48.445922888183595,166.9751838684082,47.445922888183595,166.87518386840821,46.445922888183595C168.9751838684082,49.445922888183595,170.0751838684082,51.74592288818359,170.0751838684082,51.74592288818359C170.0751838684082,51.74592288818359,171.87518386840821,50.14592288818359,174.37518386840821,48.5459228881836C174.37518386840821,48.5459228881836,173.4751838684082,50.64592288818359,173.4751838684082,50.64592288818359C173.87518386840821,50.345922888183594,182.37518386840821,44.345922888183594,187.0751838684082,48.5459228881836C191.0751838684082,54.345922888183594,195.0751838684082,66.2459228881836,193.4751838684082,80.8459228881836C191.7751838684082,97.0459228881836,190.0751838684082,104.1460228881836,190.0751838684082,104.1460228881836C190.0751838684082,104.1460228881836,201.5751838684082,104.1460228881836,201.5751838684082,104.1460228881836C201.5751838684082,104.1460228881836,201.9751838684082,96.8459228881836,202.1751838684082,86.7459228881836C202.1751838684082,86.7459228881836,209.7751838684082,85.14592288818359,209.7751838684082,85.14592288818359C207.2751838684082,58.14592288818359,200.37518386840821,38.74592288818359,197.7751838684082,32.5459228881836C197.5751838684082,31.845922888183594,197.2751838684082,31.145922888183595,196.9751838684082,30.545922888183593Z" fill="#423232" fill-opacity="1"/></g></g></svg>