<svg xmlns="http://www.w3.org/2000/svg" xmlns:xlink="http://www.w3.org/1999/xlink" fill="none" version="1.1" width="250" height="193.87017822265625" viewBox="0 0 250 193.87017822265625"><g><g><path d="M161.01959144042968,29.299996185302735C161.91959144042968,27.499996185302734,159.2196014404297,27.499996185302734,160.11960144042968,25.699996185302734C157.7196014404297,23.999996185302734,155.11960144042968,22.799996185302735,152.4196014404297,21.899996185302733C154.61960144042968,9.499996185302734,165.51960144042968,-0.000003814697265625,178.61960144042968,-0.000003814697265625C193.3196014404297,-0.000003814697265625,205.2196014404297,11.899996185302735,205.2196014404297,26.599996185302736C205.2196014404297,38.599996185302736,197.2196014404297,48.79999618530273,186.3196014404297,52.099996185302736C179.51960144042968,42.39999618530273,171.8196014404297,34.29999618530273,161.01959144042968,29.299996185302735Z" fill="#423232" fill-opacity="1"/></g><g><path d="M180.91963250732422,28.700070122528075C175.81963250732423,24.000070122528076,169.41963250732422,19.500070122528076,161.6196325073242,16.300040122528074C116.11983250732422,-2.1999298774719236,67.21983250732421,16.800050122528077,56.41981250732422,53.200070122528075C45.61981250732422,89.60007012252808,61.61981250732422,114.49977012252808,69.61983250732422,124.09977012252807C77.61983250732422,133.6997701225281,78.31983250732422,140.99977012252808,78.31983250732422,140.99977012252808C82.41983250732422,138.69977012252807,87.51983250732422,128.49977012252808,87.71983250732421,122.99977012252808C62.71981250732422,113.39977012252808,67.31983250732422,85.40007012252808,79.41983250732422,83.90007012252808C92.21983250732421,82.30007012252807,96.11983250732422,93.70007012252807,96.91983250732422,96.50007012252807C101.61983250732422,91.00007012252807,99.11983250732422,49.200070122528075,111.21983250732421,46.600070122528074C130.51983250732422,42.40007012252808,148.61983250732422,40.300070122528076,171.51963250732422,43.40007012252808C180.01963250732422,44.600070122528074,185.6196325073242,47.300070122528076,190.91963250732422,51.50007012252808C191.6196325073242,53.600070122528074,192.2196325073242,55.700070122528075,192.7196325073242,57.90007012252808C194.31963250732423,65.00007012252809,195.1196325073242,71.00007012252809,192.41963250732422,86.20007012252807C195.41963250732422,82.40007012252808,196.91963250732422,77.20007012252807,197.41963250732422,71.80007012252807C199.31963250732423,55.700070122528075,192.91963250732422,39.700070122528075,180.91963250732422,28.700070122528075Z" fill="#423232" fill-opacity="1"/></g><g><path d="M90.11960716247559,29.599996185302736Q90.11960716247559,30.326596185302733,90.08390716247558,31.052396185302733Q90.0483071624756,31.778196185302733,89.97710716247559,32.501296185302735Q89.90580716247558,33.22439618530274,89.7992071624756,33.94319618530273Q89.69260716247558,34.66199618530273,89.55080716247559,35.37469618530273Q89.40910716247558,36.08729618530273,89.23250716247559,36.792196185302736Q89.0560071624756,37.49709618530274,88.84500716247558,38.192396185302734Q88.63410716247559,38.88779618530273,88.38930716247559,39.571896185302734Q88.14450716247558,40.25609618530274,87.86640716247558,40.92739618530273Q87.58840716247559,41.59879618530273,87.2777071624756,42.255596185302736Q86.9670071624756,42.912496185302736,86.6245071624756,43.553296185302735Q86.28190716247559,44.19419618530274,85.90840716247558,44.817396185302734Q85.53480716247559,45.440696185302734,85.13110716247559,46.04489618530273Q84.72740716247559,46.64909618530273,84.29450716247558,47.232696185302736Q83.8617071624756,47.81629618530273,83.40070716247558,48.377996185302734Q82.93970716247559,48.939696185302736,82.45170716247559,49.47809618530273Q81.96380716247558,50.016496185302735,81.45000716247559,50.530396185302735Q80.9361071624756,51.04419618530273,80.39770716247558,51.53219618530274Q79.85930716247559,52.020096185302734,79.29760716247559,52.48109618530273Q78.73590716247558,52.94209618530274,78.15230716247558,53.37489618530273Q77.56870716247559,53.807796185302735,76.96450716247558,54.211496185302735Q76.36030716247558,54.615196185302736,75.73700716247558,54.98879618530273Q75.11380716247558,55.36229618530273,74.4729071624756,55.70489618530274Q73.83210716247558,56.04739618530274,73.17520716247559,56.358096185302735Q72.51840716247558,56.66879618530273,71.84700716247559,56.94679618530274Q71.17570716247559,57.22489618530273,70.49150716247559,57.46969618530274Q69.80740716247558,57.714496185302735,69.11200716247558,57.92539618530274Q68.41670716247559,58.136396185302736,67.7118071624756,58.31289618530273Q67.00690716247558,58.489496185302734,66.29430716247558,58.631196185302734Q65.58160716247559,58.77299618530274,64.86280716247558,58.87959618530274Q64.14400716247559,58.986296185302734,63.42090716247559,59.05749618530273Q62.697807162475584,59.128696185302736,61.972007162475585,59.16429618530273Q61.246207162475585,59.19999618530274,60.51960716247559,59.19999618530274Q59.79300716247559,59.19999618530274,59.06720716247558,59.16429618530273Q58.34140716247559,59.128696185302736,57.61830716247559,59.05749618530273Q56.89510716247558,58.98619618530273,56.176407162475584,58.87959618530274Q55.45760716247558,58.77299618530274,54.744907162475585,58.631196185302734Q54.032207162475586,58.489496185302734,53.32740716247559,58.31289618530273Q52.622507162475586,58.136396185302736,51.92720716247558,57.92539618530274Q51.23180716247559,57.714496185302735,50.54770716247559,57.46969618530274Q49.863507162475585,57.22489618530273,49.19220716247558,56.94679618530274Q48.520807162475585,56.66879618530273,47.86400716247559,56.358096185302735Q47.20710716247559,56.04739618530274,46.56630716247558,55.70489618530274Q45.92540716247559,55.36229618530273,45.30220716247558,54.98879618530273Q44.67890716247558,54.615196185302736,44.07470716247558,54.211496185302735Q43.470507162475585,53.807796185302735,42.88690716247559,53.37489618530273Q42.30330716247558,52.94209618530274,41.74160716247559,52.48109618530273Q41.17990716247559,52.020096185302734,40.64145716247559,51.53219618530274Q40.10305716247559,51.04419618530273,39.58924716247559,50.530396185302735Q39.07543716247559,50.016496185302735,38.58745716247559,49.47809618530273Q38.099467162475584,48.939696185302736,37.63849716247559,48.377996185302734Q37.177527162475585,47.81629618530273,36.74466716247559,47.232696185302736Q36.31180716247559,46.64909618530273,35.90810716247559,46.04489618530273Q35.50440716247559,45.440696185302734,35.130837162475586,44.817396185302734Q34.75727716247559,44.19419618530274,34.41473716247559,43.553296185302735Q34.07219716247559,42.912496185302736,33.76152716247559,42.255596185302736Q33.45084716247558,41.59879618530273,33.17277716247558,40.92739618530273Q32.89469716247559,40.25609618530274,32.649907162475586,39.571896185302734Q32.40510716247559,38.88779618530273,32.19417716247558,38.192396185302734Q31.983237162475586,37.49709618530274,31.806682162475585,36.792196185302736Q31.630123162475584,36.08729618530273,31.488363162475586,35.37469618530273Q31.346602162475588,34.66199618530273,31.239982162475584,33.94319618530273Q31.133362162475585,33.22439618530274,31.062139162475585,32.501296185302735Q30.990916162475585,31.778196185302733,30.955261662475586,31.052396185302733Q30.919607162475586,30.326596185302733,30.919607162475586,29.599996185302736Q30.919607162475586,28.873396185302735,30.955261662475586,28.147596185302735Q30.990916162475585,27.421796185302735,31.062139162475585,26.698696185302733Q31.133362162475585,25.975596185302734,31.239982162475584,25.256796185302733Q31.346602162475588,24.537996185302735,31.488363162475586,23.825296185302733Q31.630123162475584,23.112596185302735,31.806682162475585,22.407796185302736Q31.983237162475586,21.702896185302734,32.19417716247558,21.007596185302734Q32.40510716247559,20.312196185302735,32.649907162475586,19.628096185302734Q32.89469716247559,18.943896185302734,33.17277716247558,18.272596185302735Q33.45084716247558,17.601196185302733,33.76152716247559,16.944396185302736Q34.07219716247559,16.287496185302736,34.41473716247559,15.646696185302734Q34.75727716247559,15.005796185302735,35.130837162475586,14.382596185302734Q35.50440716247559,13.759296185302734,35.90810716247559,13.155096185302734Q36.31180716247559,12.550896185302735,36.74466716247559,11.967296185302734Q37.177527162475585,11.383696185302734,37.63849716247559,10.821996185302734Q38.099467162475584,10.260296185302735,38.58745716247559,9.721856185302734Q39.07543716247559,9.183446185302735,39.58924716247559,8.669636185302734Q40.10305716247559,8.155826185302734,40.64145716247559,7.667846185302734Q41.17990716247559,7.179866185302735,41.74160716247559,6.718886185302734Q42.30330716247558,6.257916185302735,42.88690716247559,5.825056185302734Q43.470507162475585,5.392196185302734,44.07470716247558,4.9884961853027345Q44.67890716247558,4.584796185302735,45.30220716247558,4.211226185302734Q45.92540716247559,3.8376661853027345,46.56630716247558,3.4951261853027344Q47.20710716247559,3.1525961853027344,47.86400716247559,2.8419161853027344Q48.520807162475585,2.5312361853027343,49.19220716247558,2.2531661853027343Q49.863507162475585,1.9750861853027344,50.54770716247559,1.7302961853027343Q51.23180716247559,1.4854961853027344,51.92720716247558,1.2745661853027344Q52.622507162475586,1.0636261853027345,53.32740716247559,0.8870711853027343Q54.032207162475586,0.7105121853027344,54.744907162475585,0.5687521853027344Q55.45760716247558,0.4269911853027344,56.176407162475584,0.3203711853027344Q56.895207162475586,0.21375118530273438,57.61830716247559,0.14252818530273437Q58.34140716247559,0.07130518530273437,59.06720716247558,0.035650685302734374Q59.79300716247559,-0.000003814697265625,60.51960716247559,-0.000003814697265625Q61.246207162475585,-0.000003814697265625,61.972007162475585,0.035650685302734374Q62.697807162475584,0.07130518530273437,63.42090716247559,0.14252818530273437Q64.14400716247559,0.21375118530273438,64.86280716247558,0.3203711853027344Q65.58160716247559,0.4269911853027344,66.29430716247558,0.5687521853027344Q67.00690716247558,0.7105121853027344,67.7118071624756,0.8870711853027343Q68.41670716247559,1.0636261853027345,69.11200716247558,1.2745661853027344Q69.80740716247558,1.4854961853027344,70.49150716247559,1.7302961853027343Q71.17570716247559,1.9750861853027344,71.84700716247559,2.2531661853027343Q72.51840716247558,2.5312361853027343,73.17520716247559,2.8419161853027344Q73.83210716247558,3.1525961853027344,74.4729071624756,3.4951261853027344Q75.11380716247558,3.8376661853027345,75.73700716247558,4.211226185302734Q76.36030716247558,4.584796185302735,76.96450716247558,4.9884961853027345Q77.56860716247559,5.392196185302734,78.15230716247558,5.825056185302734Q78.73590716247558,6.257916185302735,79.29760716247559,6.718886185302734Q79.85930716247559,7.179866185302735,80.39770716247558,7.667846185302734Q80.9361071624756,8.155826185302734,81.45000716247559,8.669636185302734Q81.96380716247558,9.183446185302735,82.45180716247559,9.721856185302734Q82.93970716247559,10.260296185302735,83.40070716247558,10.821996185302734Q83.8617071624756,11.383696185302734,84.29450716247558,11.967296185302734Q84.72740716247559,12.550896185302735,85.13110716247559,13.155096185302734Q85.53480716247559,13.759296185302734,85.90840716247558,14.382596185302734Q86.28190716247559,15.005796185302735,86.6245071624756,15.646696185302734Q86.9670071624756,16.287496185302736,87.2777071624756,16.944396185302736Q87.58840716247559,17.601196185302733,87.86640716247558,18.272596185302735Q88.14450716247558,18.943896185302734,88.38930716247559,19.628096185302734Q88.63410716247559,20.312196185302735,88.84500716247558,21.007596185302734Q89.0560071624756,21.702896185302734,89.23250716247559,22.407796185302736Q89.40910716247558,23.112596185302735,89.55080716247559,23.825296185302733Q89.69260716247558,24.537996185302735,89.7992071624756,25.256796185302733Q89.90580716247558,25.975596185302734,89.97710716247559,26.698696185302733Q90.0483071624756,27.421796185302735,90.08390716247558,28.147596185302735Q90.11960716247559,28.873396185302735,90.11960716247559,29.599996185302736Z" fill="#423232" fill-opacity="1"/></g><g><path d="M100.01970672607422,46.599980169677735C100.01970672607422,46.599980169677735,102.21971672607422,86.29998016967772,102.21971672607422,86.29998016967772C102.21971672607422,86.29998016967772,124.31970672607422,83.79998016967772,149.1197067260742,83.59998016967774C149.41970672607422,79.39998016967773,150.1197067260742,71.09998016967774,149.91970672607422,67.19998016967773C149.91970672607422,67.19998016967773,152.01970672607422,76.09998016967774,152.91970672607422,83.59998016967774C153.91970672607422,83.59998016967774,154.81970672607423,83.59998016967774,155.81970672607423,83.59998016967774C157.31970672607423,83.59998016967774,159.01970672607422,83.69998016967773,160.7197067260742,83.69998016967773C161.1197067260742,80.19998016967773,161.6197067260742,73.69998016967773,161.6197067260742,70.79998016967772C161.6197067260742,70.79998016967772,162.91970672607422,77.79998016967772,163.31970672607423,83.79998016967772C170.1197067260742,83.99998016967774,178.01970672607422,84.49998016967774,185.01970672607422,85.29998016967772C185.41970672607422,82.69998016967773,186.51970672607422,75.89998016967773,186.7197067260742,71.79998016967772C186.7197067260742,71.79998016967772,188.41970672607422,77.79998016967772,187.7197067260742,85.69998016967773C192.6197067260742,86.39998016967773,196.81970672607423,87.39998016967773,199.6197067260742,88.59998016967774C199.6197067260742,88.59998016967774,207.81970672607423,61.69998016967774,194.01970672607422,33.299990169677734C186.41970672607422,17.499990169677734,109.51970672607422,26.499990169677734,100.01970672607422,46.599980169677735Z" fill="#423232" fill-opacity="1"/></g><g><path d="M191.6197967529297,90.40000237060546C195.5197967529297,90.90000237060546,199.6197967529297,88.60000237060547,199.6197967529297,88.60000237060547C198.1197967529297,87.60000237060547,192.4198087529297,86.49999237060547,192.31980875292967,86.49999237060547C192.21980875292968,87.29999237060547,191.6197967529297,90.40000237060546,191.6197967529297,90.40000237060546Z" fill="#423232" fill-opacity="1"/></g></g></svg>