<svg xmlns="http://www.w3.org/2000/svg" xmlns:xlink="http://www.w3.org/1999/xlink" fill="none" version="1.1" width="250" height="208.94729614257812" viewBox="0 0 250 208.94729614257812"><g><g><path d="M202.78488388061524,87.3000057220459C202.18488388061525,92.60000572204589,198.98488388061523,98.0000057220459,192.38488388061523,101.60000572204589C195.08488388061522,86.4000057220459,194.28488388061524,80.4000057220459,192.68488388061525,73.3000057220459C192.18488388061525,71.10000572204589,191.58488388061522,69.0000057220459,190.88488388061523,66.9000057220459C187.28488388061524,62.2000057220459,179.28488388061524,70.60000572204589,170.78488388061524,69.4000057220459C147.78488388061524,66.3000057220459,128.98488388061523,53.7000057220459,111.08488388061524,62.0000057220459C90.98488388061523,71.4000057220459,110.48488388061523,103.10000572204589,96.78488388061524,111.9000057220459C96.08488388061524,109.10000572204589,92.08488388061524,97.7000057220459,79.28488388061524,99.3000057220459C67.08488388061524,100.9000057220459,62.58488388061524,128.8000057220459,87.58488388061524,138.4000057220459C87.58488388061524,138.5000057220459,87.58488388061524,138.5000057220459,87.58488388061524,138.6000057220459C87.18488388061523,146.6000057220459,76.68488388061523,149.5000057220459,72.08488388061524,142.9000057220459C71.28488388061524,141.8000057220459,70.48488388061523,140.7000057220459,69.48488388061523,139.5000057220459C68.68488388061523,138.5000057220459,67.78488388061524,137.4000057220459,66.88488388061523,136.1000057220459C65.18488388061523,136.8000057220459,63.28488388061523,137.0000057220459,61.28488388061523,136.6000057220459C57.984883880615236,135.9000057220459,55.28488388061523,133.3000057220459,54.384883880615234,130.0000057220459C53.78488388061523,128.1000057220459,53.984883880615236,126.2000057220459,54.484883880615236,124.60000572204589C46.28488388061523,123.7000057220459,39.884883880615234,116.7000057220459,39.884883880615234,108.3000057220459C39.884883880615234,103.8000057220459,41.78487388061524,99.7000057220459,44.78488388061523,96.7000057220459C37.38487388061523,92.9000057220459,32.384883880615234,85.2000057220459,32.384883880615234,76.4000057220459C32.384883880615234,64.7000057220459,41.28488388061523,55.0000057220459,52.68488388061523,53.800005722045896C51.68488388061523,51.4000057220459,51.18488388061523,48.800005722045896,51.384883880615234,46.1000057220459C51.984883880615236,38.0000057220459,58.58488388061524,31.400005722045897,66.68488388061523,30.900005722045897C68.78488388061524,30.8000057220459,70.88488388061523,31.1000057220459,72.78488388061524,31.700005722045898C73.38488388061523,19.6000057220459,83.38488388061523,10.000005722045898,95.58488388061524,10.000005722045898C102.58488388061524,10.000005722045898,108.88488388061523,13.200005722045898,113.08488388061524,18.200005722045898C116.88488388061523,7.600005722045898,126.98488388061523,0.0000057220458984375,138.88488388061523,0.0000057220458984375C150.08488388061522,0.0000057220458984375,159.78488388061524,6.800005722045898,163.98488388061523,16.5000057220459C166.68488388061525,14.500005722045898,169.98488388061523,13.200005722045898,173.48488388061523,13.000005722045898C182.38488388061523,12.400005722045899,190.18488388061525,18.5000057220459,192.18488388061525,27.200005722045898C192.78488388061524,29.900005722045897,192.68488388061525,32.5000057220459,192.08488388061522,35.0000057220459C203.58488388061522,38.300005722045896,212.08488388061522,48.800005722045896,212.08488388061522,61.4000057220459C212.08488388061522,69.60000572204589,208.48488388061523,76.9000057220459,202.88488388061523,81.8000057220459C202.98488388061523,83.60000572204589,202.98488388061523,85.5000057220459,202.78488388061524,87.3000057220459Z" fill="#423232" fill-opacity="1"/></g></g></svg>