<svg xmlns="http://www.w3.org/2000/svg" xmlns:xlink="http://www.w3.org/1999/xlink" fill="none" version="1.1" width="250" height="201.3359375" viewBox="0 0 250 201.3359375"><g><g><path d="M111.47069473266602,9.621100463256836C78.67069473266602,8.921100463256836,59.170694732666014,29.521090463256837,58.770694732666016,48.221090463256836C58.770694732666016,48.221090463256836,45.270694732666016,55.82109046325684,45.270694732666016,82.62109046325683C45.37069473266602,102.52099046325684,74.77069473266602,132.72099046325684,78.27069473266602,146.92099046325683C78.27069473266602,146.92099046325683,88.67069473266602,148.72099046325684,84.87069473266601,129.42099046325683C63.07069473266601,118.82099046325683,67.67069473266602,93.02109046325684,79.37069473266601,91.52109046325684C88.27069473266602,90.42109046325683,92.97069473266602,95.62109046325683,95.17069473266602,99.82109046325684C96.07069473266601,101.12099046325683,104.57069473266601,111.42099046325684,104.77069473266602,77.42109046325683C104.87069473266601,54.221090463256836,127.47069473266602,46.621090463256834,153.17069473266602,56.02109046325683C172.470694732666,63.02109046325683,193.07069473266603,67.32109046325684,200.17069473266602,41.621090463256834C207.27069473266602,15.921090463256835,177.17069473266602,-6.278899536743164,170.77069473266602,1.621100463256836C164.370694732666,9.321100463256835,144.27069473266602,10.221090463256836,111.47069473266602,9.621100463256836Z" fill="#423232" fill-opacity="1"/></g><g><path d="M173.87078857421875,34.221139366381834C183.87078857421875,42.22113616638184,189.87078857421875,53.02113616638184,192.67078857421876,65.52113616638184C193.97078857421874,71.62113616638183,194.77078857421876,76.82113616638183,193.27078857421876,87.72113616638184C197.17078857421876,84.02113616638184,199.97078857421874,79.02113616638184,200.97078857421874,72.52113616638184C205.07078857421874,44.421136166381835,188.57078857421874,37.721126166381836,188.57078857421874,37.82112616638184C183.97078857421874,34.921130166381836,178.87078857421875,33.82113916638183,173.87078857421875,34.221139366381834Z" fill="#423232" fill-opacity="1"/></g></g></svg>