<svg xmlns="http://www.w3.org/2000/svg" xmlns:xlink="http://www.w3.org/1999/xlink" fill="none" version="1.1" width="250" height="195.4512939453125" viewBox="0 0 250 195.4512939453125"><g><g><path d="M153.32313273620605,185.2730123977661C150.62313273620606,180.57301239776612,149.42313273620604,176.17301239776612,149.02313273620607,173.17301239776612C157.72313273620605,171.47301239776613,165.12313273620606,167.47301239776613,170.42313273620604,162.8730123977661C194.02313273620607,142.3730123977661,184.62313273620606,119.87301239776612,189.52313273620607,97.57331239776612C191.12313273620606,90.47331239776611,184.52313273620607,84.57331239776612,180.92313273620604,78.57331239776612C172.82313273620605,65.17331239776611,176.12313273620606,62.27331239776611,170.92313273620604,58.373312397766114C167.22313273620605,55.57331239776612,167.62313273620606,34.77331239776611,152.92313273620604,54.973312397766115C145.62313273620606,65.07331239776612,146.72313273620605,63.77331239776611,132.22313273620605,80.57331239776612C118.72283273620606,96.27331239776612,98.62283273620605,102.17301239776612,94.82283273620605,95.67331239776611C94.52283273620606,95.07331239776612,94.22283273620606,94.57331239776612,94.02283273620606,93.97331239776611C91.72283273620606,89.87331239776611,87.12283273620605,84.97331239776611,78.42283273620606,86.07331239776612C65.92283273620606,87.67331239776611,61.422832736206054,117.27301239776611,89.12283273620605,125.97301239776611C88.92283273620606,127.77301239776611,88.82283273620605,129.67301239776612,88.82283273620605,131.67301239776612C89.12283273620605,161.3730123977661,114.12283273620605,165.8730123977661,106.02283273620606,185.7730123977661C76.32283273620605,183.97301239776613,47.22283273620606,178.07301239776612,19.322863736206056,165.57301239776612C15.322862736206055,139.97301239776613,33.422832736206054,131.97301239776613,28.922832736206054,116.77301239776611C20.022872736206054,86.77331239776612,39.422832736206054,86.37331239776611,43.72283273620606,71.87331239776611C48.12283273620605,56.873312397766114,43.022832736206055,45.77331239776611,60.422832736206054,24.573312397766113C80.92283273620606,-0.6267026022338867,136.02313273620604,-8.926697602233887,175.42313273620604,11.473312397766113C210.42313273620604,29.573312397766113,206.52313273620607,60.17331239776611,200.52313273620607,88.47331239776611C199.72313273620605,92.27331239776612,199.22313273620605,94.67331239776611,206.02313273620607,111.47301239776611C210.62313273620606,122.87301239776612,202.62313273620606,125.77301239776611,210.22313273620605,140.67301239776612C216.62313273620606,153.17301239776612,218.22313273620605,166.3730123977661,215.02313273620607,177.47301239776613C194.42313273620604,180.97301239776613,173.82313273620605,183.8730123977661,153.32313273620605,185.2730123977661Z" fill="#423232" fill-opacity="1"/></g><g><path d="M94.92297358105469,95.57330627441407C94.6229735810547,95.07330627441407,94.32297058105469,94.47330627441406,94.12297058105469,93.87330627441406C94.42297058105468,94.47330627441406,94.72297358105469,95.07330627441407,94.92297358105469,95.57330627441407Z" fill="#FEE4BF" fill-opacity="1"/></g><g><path d="M158.32296237792968,8.673254897766114C176.92296237792968,4.773254897766114,189.52296237792967,8.973244897766113,197.42296237792968,23.07327489776611C203.1229623779297,33.273274897766115,203.42296237792968,49.17327489776611,208.92296237792968,63.17327489776611C218.9229623779297,88.57327489776611,192.52296237792967,97.17327489776612,192.52296237792967,97.17327489776612C192.52296237792967,97.17327489776612,184.52296237792967,53.873274897766116,181.42296237792968,30.773274897766115C178.2229623779297,7.673256897766113,126.32296237792968,15.373254897766113,158.32296237792968,8.673254897766114Z" fill="#423232" fill-opacity="1"/></g></g></svg>