<svg xmlns="http://www.w3.org/2000/svg" xmlns:xlink="http://www.w3.org/1999/xlink" fill="none" version="1.1" width="250" height="206.65277099609375" viewBox="0 0 250 206.65277099609375"><g><g><path d="M96.90517025146485,109.02913894653321C96.20517025146484,106.2291389465332,92.20517025146484,94.8291389465332,79.40517025146485,96.4291389465332C67.20517025146485,98.02913894653321,62.705220251464844,125.9291389465332,87.70527025146484,135.5291389465332C87.60527025146484,140.92913894653321,82.40527025146484,151.2291389465332,78.30527025146485,153.5291389465332C78.30527025146485,153.5291389465332,77.60527025146484,146.2291389465332,69.60527025146484,136.6291389465332C62.605230251464846,128.2291389465332,49.50522025146484,108.1291389465332,53.50522525146484,78.9291389465332C70.50527025146485,79.02913894653321,87.50527025146485,75.9291389465332,103.60527025146484,70.1291389465332C99.90527025146484,83.6291389465332,100.10527025146484,105.2291389465332,96.90517025146485,109.02913894653321Z" fill="#99807F" fill-opacity="1"/></g><g><path d="M192.40521087646485,98.82921186141968C195.10521087646484,83.62921186141968,194.30521087646486,77.62921186141968,192.70521087646483,70.52921186141967C192.20521087646483,68.32921186141968,191.60521087646484,66.22921186141969,190.90521087646485,64.12921186141968C186.50521087646484,53.32921186141968,180.00521087646484,57.22921186141968,171.50521087646484,56.029211861419675C148.60521087646484,52.929211861419674,130.50521087646484,55.029211861419675,111.20521087646485,59.22921186141968C107.50521087646484,60.029211861419675,105.20521087646485,64.42921186141967,103.60521087646484,70.22921186141969C87.60521087646484,75.92921186141967,70.50521087646484,79.12921186141968,53.505210876464844,79.02921186141967C54.105210876464845,74.82921186141968,55.00520087646484,70.42921186141967,56.405200876464846,65.82921186141968C67.10521087646484,29.32924186141968,116.00521087646484,10.429211861419677,161.60521087646484,28.92925186141968C169.40521087646485,32.029211861419675,174.70521087646483,38.32921186141968,180.90521087646485,41.32921186141968C199.20521087646483,50.12921186141968,200.70521087646483,65.72921186141969,197.50521087646484,84.42921186141967C196.50521087646484,89.72921186141967,194.20521087646483,95.92921186141967,192.40521087646485,98.82921186141968Z" fill="#423232" fill-opacity="1"/></g><g><path d="M136.80572259521483,58.829190463256836C126.00532259521485,65.22919046325684,121.00522259521485,76.12919046325683,110.40532259521484,82.42919046325683C90.00522259521485,94.52919046325684,36.30527959521484,93.82919046325684,36.50527973921484,77.22919046325684C36.80527959521484,55.02919046325684,56.30532259521485,44.729190463256835,56.30532259521485,44.729190463256835C56.30532259521485,44.729190463256835,32.50527259521484,33.229190463256835,58.205322595214845,20.129190463256837C87.70532259521485,5.1292004632568355,115.10532259521484,15.129190463256837,115.10532259521484,15.129190463256837C115.10532259521484,15.129190463256837,101.50522259521485,-0.770802536743164,123.90532259521484,0.029197463256835938C150.00572259521485,1.029200463256836,161.60572259521484,19.629190463256837,161.60572259521484,19.629190463256837C153.10572259521484,-9.970799536743163,197.20572259521484,5.029200463256836,202.40572259521485,49.42919046325684C203.50572259521485,58.92919046325684,202.90572259521485,67.32919046325684,201.60572259521484,74.32919046325684C200.70572259521484,79.12919046325683,194.60572259521484,79.52919046325684,193.60572259521484,74.72919046325684C191.00572259521485,61.42919046325684,182.50572259521485,52.829190463256836,170.70572259521484,63.62919046325683C160.60572259521484,73.02919046325684,155.70572259521484,47.52919046325684,136.80572259521483,58.829190463256836Z" fill="#423232" fill-opacity="1"/></g></g></svg>