<svg xmlns="http://www.w3.org/2000/svg" xmlns:xlink="http://www.w3.org/1999/xlink" fill="none" version="1.1" width="250" height="201.978515625" viewBox="0 0 250 201.978515625"><g><g><path d="M181.027123046875,35.9227306640625C174.227123046875,34.6227306640625,169.527123046875,26.7227306640625,161.727123046875,23.522700664062498C116.227323046875,5.0227306640625,67.327323046875,24.022700664062498,56.527303046875,60.4227306640625C45.727303046875,96.8227306640625,61.727303046875,121.7224306640625,69.727323046875,131.3224306640625C77.727323046875,140.92243066406252,87.627323046875,135.7224306640625,87.827323046875,130.2224306640625C62.827303046875,120.6224306640625,67.427323046875,92.6227306640625,79.527323046875,91.1227306640625C92.327323046875,89.5227306640625,96.227323046875,100.9227306640625,97.027323046875,103.7227306640625C101.727323046875,98.2227306640625,89.127323046875,62.4227306640625,111.327323046875,53.8227306640625C132.827323046875,45.5227306640625,146.327323046875,57.8227306640625,169.227123046875,60.9227306640625C176.427123046875,61.9227306640625,183.227123046875,56.6227306640625,188.427123046875,57.5227306640625C190.027123046875,57.8227306640625,191.227123046875,59.1227306640625,191.727123046875,60.6227306640625C192.227123046875,62.1227306640625,192.627123046875,63.7227306640625,192.927123046875,65.22273066406251C194.427123046875,72.4227306640625,198.227123046875,129.3224306640625,198.727123046875,123.8224306640625C200.627123046875,107.7227306640625,244.227123046875,47.9227306640625,181.027123046875,35.9227306640625Z" fill="#423232" fill-opacity="1"/></g><g><path d="M58.52731078125,110.5227163671875C63.82731078125,126.6227263671875,68.62735078125,129.9227263671875,72.92735078125,137.6227263671875C77.32735078125,145.3227263671875,79.32735078125,153.7227263671875,79.32735078125,153.7227263671875C87.72735078125,138.5227263671875,87.92735078125,130.3227263671875,87.92735078125,130.3227263671875C72.22735078125,131.3227263671875,69.02725078125,114.9227263671875,64.12730078125,108.2227163671875C59.32730078125,101.6227173671875,53.22731078125,94.4227163671875,58.52731078125,110.5227163671875Z" fill="#423232" fill-opacity="1"/></g><g><path d="M54.52734375,9.8227696875C76.82734375,12.2227696875,113.92734375,-0.17724031250000039,150.12734375,17.522769687500002C186.32734375,35.2227296875,176.32734375,54.8227296875,176.32734375,54.8227296875C176.32734375,54.8227296875,131.12734375,35.6227296875,105.42734375,31.2227296875C79.72734375,26.8227296875,54.52734375,9.8227696875,54.52734375,9.8227696875Z" fill="#423232" fill-opacity="1"/></g><g><path d="M36.227294921875,71.4227341796875C56.227294921875,19.2227061796875,104.927294921875,19.7227108466875,104.927294921875,19.7227108466875C117.327294921875,22.3227141796875,112.827294921875,53.8227341796875,84.427294921875,56.4227341796875C56.027294921875,59.0227341796875,36.227294921875,71.4227341796875,36.227294921875,71.4227341796875Z" fill="#423232" fill-opacity="1"/></g><g><path d="M99.827392578125,2.22271C99.827392578125,2.22271,171.027392578125,-9.37729,193.127392578125,20.4227C212.227392578125,46.3227,181.527392578125,57.1227,181.527392578125,57.1227C173.327392578125,63.5227,146.827392578125,38.9227,136.227392578125,23.9227C125.527392578125,9.02271,99.827392578125,2.22271,99.827392578125,2.22271Z" fill="#423232" fill-opacity="1"/></g><g><path d="M97.62722365625,73.32279199218749C97.32722315625,104.0227919921875,115.42723515624999,136.7227919921875,115.42723515624999,136.7227919921875C115.42723515624999,136.7227919921875,111.42723515624999,71.9227919921875,126.82723515625,58.722791992187496C139.12723515625,48.222791992187496,159.32723515625,59.0227919921875,159.32723515625,59.0227919921875C157.42723515625,54.222791992187496,141.62723515625,37.5227519921875,126.82723515625,36.2227519921875C112.02723515625,34.9227519921875,97.92722315625,42.6227419921875,97.62722365625,73.32279199218749Z" fill="#423232" fill-opacity="1"/></g><g><path d="M132.827417890625,85.12262890625C134.727417890625,29.82267890625,171.027437890625,61.12262890625,171.027437890625,61.12262890625C169.027437890625,41.92267890625,139.92743789062501,20.92272890625,130.627407890625,47.22272890625C121.327407890625,73.52272890625,132.827417890625,85.12262890625,132.827417890625,85.12262890625Z" fill="#423232" fill-opacity="1"/></g></g></svg>