<svg xmlns="http://www.w3.org/2000/svg" xmlns:xlink="http://www.w3.org/1999/xlink" fill="none" version="1.1" width="250" height="193.2427978515625" viewBox="0 0 250 193.2427978515625"><g><g><path d="M200.2661287689209,77.00548474121094C201.3661287689209,76.50548474121094,202.3661287689209,75.80548474121093,202.7661287689209,74.60558474121093C204.0661287689209,70.70558474121094,209.2661287689209,27.605484741210937,194.16612876892088,13.805484741210938C179.0661287689209,0.0055341712109375,122.1661287689209,0.0055385512109375,122.1661287689209,0.0055385512109375C87.9663287689209,-0.2944612587890625,62.1663287689209,11.505484741210937,50.8663287689209,48.505484741210935C43.966328768920896,71.10548474121094,53.2663287689209,56.60558474121094,22.1663287689209,94.70558474121094C9.466378768920897,111.50598474121094,9.566378768920899,127.50598474121094,16.266378768920898,140.80598474121095C33.666428768920895,175.00598474121094,95.3663287689209,190.70598474121093,95.3663287689209,153.00598474121094C95.3663287689209,146.50598474121094,93.6664287689209,138.60598474121093,89.7663287689209,129.10598474121093C88.8663287689209,126.90598474121094,88.3663287689209,124.80598474121093,88.2663287689209,122.70598474121094C62.6664287689209,113.30598474121093,67.16632876892089,85.00558474121094,79.3663287689209,83.40558474121094C88.0663287689209,82.30558474121094,92.66632876892089,87.20558474121094,94.9663287689209,91.30548474121093C95.3663287689209,92.20558474121094,95.6664287689209,92.90558474121094,96.0664287689209,93.60558474121093C101.5664287689209,103.90598474121094,104.66632876892089,88.70548474121094,104.3663287689209,75.00548474121094C105.3663287689209,74.90548474121094,111.3663287689209,74.60558474121093,120.2661287689209,74.40558474121094C123.9661287689209,74.30558474121094,126.8661287689209,71.20548474121094,126.6661287689209,67.50548474121094C126.4661287689209,63.20548474121094,126.4661287689209,59.005484741210935,127.7661287689209,55.005484741210935C128.9661287689209,59.505484741210935,129.66612876892088,63.90548474121094,130.16612876892088,68.30548474121093C130.4661287689209,71.70558474121094,133.2661287689209,74.20558474121094,136.66612876892088,74.20558474121094C144.3661287689209,74.20558474121094,152.8661287689209,74.30558474121094,161.4661287689209,74.70558474121094C164.7661287689209,74.90558474121094,167.66612876892088,72.60558474121093,168.2661287689209,69.30548474121093C168.7661287689209,66.60558474121093,169.2661287689209,64.00558474121094,169.7661287689209,61.40558474121094C170.16612876892088,61.50558474121094,169.9661287689209,61.40548474121094,170.3661287689209,61.505484741210935C170.2661287689209,64.00548474121094,170.2661287689209,66.50548474121094,170.16612876892088,69.00548474121094C170.16612876892088,72.50548474121094,172.7661287689209,75.40558474121094,176.2661287689209,75.70558474121094C176.2661287689209,75.70558474121094,176.3661287689209,75.70558474121094,176.3661287689209,75.70558474121094C179.3661287689209,75.90558474121094,182.2661287689209,74.00548474121094,183.16612876892088,71.00548474121094C183.66612876892088,69.10548474121094,184.3661287689209,67.10558474121093,184.9661287689209,65.20558474121094C185.3661287689209,65.20558474121094,185.2661287689209,65.20558474121094,185.66612876892088,65.30548474121093C185.5661287689209,66.90548474121094,185.4661287689209,68.40558474121094,185.2661287689209,69.90558474121094C184.8661287689209,73.50558474121094,187.2661287689209,76.80548474121093,190.8661287689209,77.30548474121093C191.7661287689209,77.50548474121094,192.66612876892088,77.60558474121093,193.4661287689209,77.70558474121094C192.8661287689209,82.20558474121094,191.9661287689209,87.80548474121093,190.3661287689209,95.00548474121094C185.4661287689209,117.40598474121094,194.8661287689209,139.90598474121094,171.2661287689209,160.30598474121095C165.9661287689209,164.90598474121094,159.4661287689209,168.20598474121093,152.16612876892088,170.10598474121093C195.0661287689209,187.80598474121095,223.9661287689209,154.50598474121094,208.66612876892088,119.50598474121094C201.66612876892088,103.60598474121093,199.66612876892088,96.70558474121094,200.2661287689209,77.00548474121094Z" fill="#423232" fill-opacity="1"/></g><g><path d="M96.06632622314453,93.70538024902343C95.66632222314453,93.00538024902343,95.36631622314454,92.30538024902344,94.96631622314453,91.40538024902344C95.36631622314454,92.20538024902343,95.76632222314453,93.00538024902343,96.06632622314453,93.70538024902343Z" fill="#FEE4BF" fill-opacity="1"/></g></g></svg>