<svg xmlns="http://www.w3.org/2000/svg" xmlns:xlink="http://www.w3.org/1999/xlink" fill="none" version="1.1" width="250" height="201.5498046875" viewBox="0 0 250 201.5498046875"><g><g><path d="M181.0897107849121,36.40965817337036C175.98971078491212,31.70965817337036,169.5897107849121,27.20965817337036,161.7897107849121,24.00962817337036C116.28991078491211,5.509658173370362,67.3899107849121,24.50962817337036,56.58989078491211,60.90965817337036C45.78989078491211,97.30965817337037,61.789900784912106,122.20935817337036,69.78991078491211,131.80935817337036C77.78991078491211,141.40935817337038,78.48991078491211,148.70935817337036,78.48991078491211,148.70935817337036C82.5899107849121,146.40935817337035,87.68991078491212,136.20935817337036,87.8899107849121,130.70935817337036C62.88989078491211,121.10935817337037,67.48991078491211,93.10965817337036,79.5899107849121,91.60965817337036C92.3899107849121,90.00965817337035,96.28991078491211,101.40965817337036,97.0899107849121,104.20965817337036C101.78991078491211,98.70965817337036,99.28991078491211,56.90965817337036,111.3899107849121,54.30965817337036C130.68991078491212,50.10965817337036,148.7899107849121,48.00965817337036,171.6897107849121,51.10965817337036C180.1897107849121,52.30965817337036,185.7897107849121,55.00965817337036,191.0897107849121,59.209658173370364C191.7897107849121,61.30965817337036,192.3897107849121,63.40965817337036,192.8897107849121,65.60965817337036C194.3897107849121,72.70965817337037,187.6897107849121,36.50965817337036,184.98971078491212,51.709658173370364C187.98971078491212,47.809658173370366,187.2897107849121,53.10965817337036,187.98971078491212,47.90965817337036C189.8897107849121,31.70965817337036,193.0897107849121,47.40965817337036,181.0897107849121,36.40965817337036Z" fill="#423232" fill-opacity="1"/></g><g><path d="M92.39001392333985,79.5096119934082C147.28998392333983,93.5096119934082,174.88998392333986,47.6096119934082,174.88998392333986,47.6096119934082C169.28998392333983,38.6095719934082,128.38998392333986,32.1095919934082,104.98998392333985,42.309591993408205C81.69001392333985,52.6096119934082,92.39001392333985,79.5096119934082,92.39001392333985,79.5096119934082Z" fill="#423232" fill-opacity="1"/></g><g><path d="M194.2899692871094,42.409608594970706C192.68996928710936,35.1096085949707,191.18996928710936,68.2096285949707,183.98996928710937,60.6096285949707C176.2899692871094,52.409628594970705,165.29000028710936,50.309628594970704,165.29000028710936,50.309628594970704C165.29000028710936,50.309628594970704,162.78998928710936,31.1096085949707,180.58996928710937,41.809608594970705C198.38996928710938,52.409628594970705,194.2899692871094,42.409608594970706,194.2899692871094,42.409608594970706Z" fill="#423232" fill-opacity="1"/></g><g><path d="M83.4898844406128,135.30966893310546C83.4898844406128,135.30966893310546,102.88988444061279,144.10966893310547,98.4898844406128,155.20966893310546C94.68988444061279,164.90966893310548,86.18988444061279,159.30966893310546,86.18988444061279,159.30966893310546C86.18988444061279,159.30966893310546,94.18988444061279,178.00966893310547,78.4898844406128,180.70966893310546C65.7898844406128,182.90966893310548,62.889884440612796,168.80966893310546,62.889884440612796,168.80966893310546C62.889884440612796,168.80966893310546,56.58988444061279,186.00966893310547,44.18988444061279,179.90966893310548C31.989884440612794,173.90966893310548,40.289884440612795,160.60966893310547,40.289884440612795,160.60966893310547C40.289884440612795,160.60966893310547,22.689924440612792,168.10966893310547,16.889924440612795,155.20966893310546C9.689924440612792,139.20966893310546,29.089884440612792,131.70966893310546,29.089884440612792,131.70966893310546C18.789924440612793,133.20966893310546,10.389924440612793,112.90966893310546,26.48988444061279,105.80964893310546C44.289884440612795,98.00964893310547,56.48988444061279,105.80964893310546,56.48988444061279,105.80964893310546C56.48988444061279,105.80964893310546,61.18988444061279,93.40964893310547,62.18988444061279,102.70964893310547C63.08988444061279,111.90966893310546,83.4898844406128,135.30966893310546,83.4898844406128,135.30966893310546Z" fill="#423232" fill-opacity="1"/></g><g><path d="M202.38988647460937,126.70960447998047C203.0898864746094,126.40960447998047,214.98988647460936,120.60960447998048,208.5898864746094,106.50956447998047C205.88988647460937,100.60956447998046,195.68988647460938,100.80955447998046,190.28988647460938,104.70955447998047C189.5898864746094,108.50955447998047,189.28988647460938,112.20960447998047,189.0898864746094,116.00960447998047C188.78988647460938,121.60960447998048,188.88988647460937,127.10950447998047,188.48988647460936,132.60950447998047C187.68988647460938,144.90950447998046,184.78988647460938,157.00960447998045,171.5898864746094,168.4096044799805C166.98988647460936,172.4096044799805,161.38988647460937,175.4096044799805,155.28988647460938,177.4096044799805C156.98988647460936,179.80960447998046,159.18986647460937,182.30960447998046,161.98986647460939,184.70960447998047C176.68988647460938,197.30960447998046,187.48988647460936,181.3095044799805,184.48988647460936,171.60950447998047C184.48988647460936,171.60950447998047,201.0898864746094,187.30960447998046,210.98988647460936,172.9096044799805C219.28988647460938,160.90960447998046,205.18988647460938,151.30960447998046,205.18988647460938,151.30960447998046C205.18988647460938,151.30960447998046,222.28988647460938,154.00960447998045,222.0898864746094,137.90960447998046C221.98988647460936,122.60960447998048,203.18988647460938,126.50960447998047,202.38988647460937,126.70960447998047Z" fill="#423232" fill-opacity="1"/></g><g><path d="M88.5898002380371,52.009658477783205C57.98980023803711,62.3096584777832,56.58981023803711,105.8096584777832,56.58981023803711,105.8096584777832C45.48981023803711,84.1096584777832,47.289810238037106,38.8096584777832,78.4898002380371,20.809658477783202C115.38980023803711,-0.49034152221679683,161.88990023803711,16.709628477783202,161.88990023803711,16.709628477783202C189.1899002380371,8.609628477783204,206.4899002380371,22.009658477783205,210.0899002380371,44.9096584777832C214.78990023803712,74.9096584777832,192.9899002380371,59.609658477783206,192.9899002380371,59.609658477783206C192.9899002380371,59.609658477783206,192.6899002380371,52.3096584777832,165.18990023803713,43.009658477783205C137.6898002380371,33.70965847778321,119.08980023803711,41.70965847778321,88.5898002380371,52.009658477783205Z" fill="#423232" fill-opacity="1"/></g><g><path d="M151.09000913085939,0.20961555590820313C167.09000913085939,2.6096185559082032,170.09000913085939,21.109588555908203,170.09000913085939,21.109588555908203C164.59000913085939,25.409588555908204,142.08997913085938,16.809588555908203,142.08997913085938,16.809588555908203C142.08997913085938,16.809588555908203,134.98997913085938,-2.190381444091797,151.09000913085939,0.20961555590820313Z" fill="#423232" fill-opacity="1"/></g><g><path d="M122.98980814208984,4.309668048095703C138.98980814208983,2.109663048095703,147.38980814208983,13.709673048095704,147.38980814208983,13.709673048095704C150.88980814208983,28.709693048095705,117.08980814208985,19.609693048095703,117.08980814208985,19.609693048095703C117.08980814208985,19.609693048095703,106.98980814208984,6.509663048095703,122.98980814208984,4.309668048095703Z" fill="#423232" fill-opacity="1"/></g><g><path d="M188.68993530273437,67.10953425903321C181.58993530273438,56.8095342590332,170.08993530273438,51.709534259033205,170.08993530273438,51.709534259033205C175.18993530273437,31.509564259033205,212.28993530273436,36.9095642590332,210.3899353027344,55.90953425903321C208.58993530273438,75.0095342590332,195.78993530273436,77.4095342590332,188.68993530273437,67.10953425903321Z" fill="#423232" fill-opacity="1"/></g></g></svg>