<svg xmlns="http://www.w3.org/2000/svg" xmlns:xlink="http://www.w3.org/1999/xlink" fill="none" version="1.1" width="250" height="209.455078125" viewBox="0 0 250 209.455078125"><g><g><path d="M203.2487614440918,171.91501525878905C203.2487614440918,171.91501525878905,188.6487614440918,170.91501525878905,179.7487614440918,167.51501525878905C185.8487614440918,158.91501525878905,187.5487614440918,150.01501525878905,188.1487614440918,141.01501525878905C188.5487614440918,135.51501525878905,188.4487614440918,130.01501525878905,188.7487614440918,124.41501525878907C189.0487614440918,120.11501525878906,189.4487614440918,115.91501525878907,190.3487614440918,111.61501525878906C191.6487614440918,105.41501525878907,192.5487614440918,100.41501525878907,193.1487614440918,96.21481525878906C193.2487614440918,95.61481525878906,193.2487614440918,95.01481525878906,193.3487614440918,94.41481525878906C193.3487614440918,94.31481525878907,193.3487614440918,94.21481525878906,193.3487614440918,94.11481525878906C193.4487614440918,93.51481525878906,193.4487614440918,92.91481525878906,193.5487614440918,92.41481525878906C193.5487614440918,92.31481525878907,193.5487614440918,92.31481525878907,193.5487614440918,92.21481525878906C193.5487614440918,91.71481525878906,193.6487614440918,91.21481525878906,193.6487614440918,90.71481525878906C193.6487614440918,90.61481525878906,193.6487614440918,90.51481525878906,193.6487614440918,90.41481525878906C193.6487614440918,89.91481525878906,193.7487614440918,89.51481525878906,193.7487614440918,89.01481525878906C193.7487614440918,88.91481525878906,193.7487614440918,88.81481525878907,193.7487614440918,88.71481525878906C193.8487614440918,88.21481525878906,193.8487614440918,87.81481525878907,193.8487614440918,87.41481525878906C193.8487614440918,87.41481525878906,193.8487614440918,87.31481525878907,193.8487614440918,87.31481525878907C193.8487614440918,86.91481525878906,193.8487614440918,86.51481525878906,193.8487614440918,86.11481525878906C193.8487614440918,85.91481525878906,193.8487614440918,85.81481525878907,193.8487614440918,85.71481525878906C193.8487614440918,85.31481525878907,193.8487614440918,85.01481525878906,193.8487614440918,84.61481525878906C193.8487614440918,84.51481525878906,193.8487614440918,84.41481525878906,193.8487614440918,84.31481525878907C193.8487614440918,84.11481525878906,193.8487614440918,83.81481525878907,193.8487614440918,83.51481525878906C193.8487614440918,83.31481525878907,193.8487614440918,83.21481525878906,193.8487614440918,83.11481525878906C193.7487614440918,82.81481525878907,193.7487614440918,82.51481525878906,193.7487614440918,82.21481525878906C193.7487614440918,82.01481525878906,193.7487614440918,81.91481525878906,193.7487614440918,81.71481525878906C193.6487614440918,81.51481525878906,193.6487614440918,81.31481525878907,193.6487614440918,81.11481525878906C193.6487614440918,80.91481525878906,193.5487614440918,80.61481525878906,193.5487614440918,80.41481525878906C193.4487614440918,80.21481525878906,193.4487614440918,80.01481525878906,193.4487614440918,79.91481525878906C193.4487614440918,79.71481525878906,193.3487614440918,79.51481525878906,193.3487614440918,79.31481525878907C193.3487614440918,79.31481525878907,193.3487614440918,79.21481525878906,193.3487614440918,79.21481525878906C193.2487614440918,78.71481525878906,193.2487614440918,78.31481525878907,193.1487614440918,77.91481525878906C189.5487614440918,57.71481525878906,173.1487614440918,67.31481525878907,165.9487614440918,68.01481525878906C161.6487614440918,68.51481525878906,157.3487614440918,65.81481525878907,152.94876144409182,64.41481525878906C108.2486614440918,50.21481525878906,102.9486614440918,72.31481525878907,101.54866144409179,93.51481525878906C100.7486614440918,106.91501525878907,95.2486614440918,108.51501525878906,94.9486614440918,108.11501525878906C92.7486614440918,103.91501525878907,88.0486614440918,98.71481525878906,79.1486614440918,99.81481525878907C67.5486614440918,101.31501525878906,62.848661444091796,127.01501525878906,84.5486614440918,137.61501525878907C84.5486614440918,137.61501525878907,87.6486614440918,171.01501525878905,87.6486614440918,171.01501525878905C74.0486614440918,175.21501525878907,36.648641444091794,158.91501525878905,36.648641444091794,158.91501525878905C25.048641444091796,100.11501525878906,58.748661444091795,53.614815258789065,58.748661444091795,53.614815258789065C58.748661444091795,53.614815258789065,51.748661444091795,23.514815258789064,83.0486614440918,9.114775258789063C107.6486614440918,-2.1852247412109373,124.9486614440918,12.314815258789062,124.9486614440918,12.314815258789062C124.9486614440918,12.314815258789062,132.7486614440918,-1.3852247412109375,155.54876144409178,0.1147772587890625C176.1487614440918,1.5147752587890626,181.1487614440918,17.814815258789064,181.1487614440918,17.814815258789064C220.7487614440918,18.914815258789062,204.0487614440918,74.21481525878906,203.4487614440918,74.71481525878906C207.6487614440918,91.81481525878907,218.8487614440918,145.41501525878905,203.2487614440918,171.91501525878905Z" fill="#423232" fill-opacity="1"/></g></g></svg>