<svg xmlns="http://www.w3.org/2000/svg" xmlns:xlink="http://www.w3.org/1999/xlink" fill="none" version="1.1" width="250" height="196.33935546875" viewBox="0 0 250 196.33935546875"><g><g><path d="M162.749828125,17.423701640624998C117.250028125,-1.0762683593749998,68.350028125,17.923701640624998,57.550008125,54.323731640625C46.750008125,90.723731640625,62.750008125,115.623431640625,70.750028125,125.223431640625C78.750028125,134.82343164062502,77.950028125,141.923431640625,88.850028125,124.123431640625C63.850008125,114.523431640625,68.450028125,86.523731640625,80.550028125,85.023731640625C93.350028125,83.423731640625,97.250028125,94.823731640625,98.050028125,97.623731640625C113.950028125,87.423731640625,90.150028125,56.323731640625,112.350028125,47.723731640625C133.850028125,39.323731640625,149.150028125,37.423731640625,172.049828125,40.523731640625C179.249828125,41.523731640625,184.249828125,50.523731640625,189.449828125,51.423731640625C191.049828125,51.723731640625,192.249828125,53.023731640625,192.749828125,54.523731640625C193.249828125,56.023731640625,193.649828125,57.623731640625,193.949828125,59.123731640625C195.449828125,66.323731640625,245.349828125,41.923731640625,182.049828125,29.823731640625C175.249828125,28.523731640625,170.549828125,20.623731640625,162.749828125,17.423701640624998Z" fill="#423232" fill-opacity="1"/></g><g><path d="M81.1500040625,61.32365546875C95.9499640625,82.62365546875,113.7500640625,64.32365546874999,118.8500640625,51.02365546875C123.95006406249999,37.72366546875,132.4499640625,40.223655468749996,132.4499640625,40.223655468749996C132.1499640625,31.72366546875,134.7499640625,36.92366546875,111.6499640625,30.02366546875C88.5499640625,23.123665468749998,66.34996406249999,40.12365546875,81.1500040625,61.32365546875Z" fill="#423232" fill-opacity="1"/></g><g><path d="M79.44993984375,65.9237C54.54997984375,73.1237,67.74993984375,121.524,67.74993984375,121.524C67.74993984375,121.524,45.54998384375,96.9237,46.44998344375,68.6237C46.94998384375,54.4237,52.94997984375,45.3237,58.94993984375,39.7237C64.74993984375,34.3237,68.44993984375,27.4237,72.54993984375,20.6237C88.94993984375,-6.37627,123.85003984375,-1.57627,146.35003984374998,5.62373C161.35033984375002,10.4237,188.25033984375,1.72373,196.95033984375,13.2237C204.25033984375,22.8237,193.75033984375,35.7237,184.45033984375,39.2237C169.65033984375,44.8237,147.15033984375,30.5237,147.15033984375,30.5237C136.54993984375,15.2237,144.24993984374998,33.8237,127.74993984375,33.8237C111.24993984375,33.8237,104.34993984375001,58.7237,79.44993984375,65.9237Z" fill="#423232" fill-opacity="1"/></g><g><path d="M200.75008515625,64.5237220703125C187.15008515625,65.8237220703125,169.05007515625,43.223722070312505,169.05007515625,43.223722070312505C169.05007515625,43.223722070312505,154.85008515625,14.0237320703125,192.25008515625,24.0237320703125C229.65008515625,34.0237220703125,214.35008515625,63.2237220703125,200.75008515625,64.5237220703125Z" fill="#423232" fill-opacity="1"/></g><g><path d="M175.95001875,73.1237017578125C144.35001875,69.6237017578125,132.44999875,40.2237017578125,132.44999875,40.2237017578125C132.44999875,40.2237017578125,123.64998875,7.7236817578125,172.05001875,13.2236817578125C220.45001875,18.7236817578125,207.65001875000002,76.7237017578125,175.95001875,73.1237017578125Z" fill="#423232" fill-opacity="1"/></g><g><path d="M130.15003046875,61.523712890625C114.55004046875,60.023712890625,107.15004446875,26.423712890624998,107.15004446875,26.423712890624998C107.15004446875,26.423712890624998,100.75004046875,13.623732890625,121.15003046875,16.623735890625C141.55003046875,19.623732890625,145.75003046875,63.023712890625,130.15003046875,61.523712890625Z" fill="#423232" fill-opacity="1"/></g></g></svg>