<svg xmlns="http://www.w3.org/2000/svg" xmlns:xlink="http://www.w3.org/1999/xlink" fill="none" version="1.1" width="30" height="16" viewBox="0 0 30 16"><g><g><path d="M9.737231,1.009185Q13.50854,3.5862499999999997,17.724600000000002,4.32181Q22.0574,5.07775,24.8336,3.46023Q24.982799999999997,3.36463,25.1528,3.31481Q25.3228,3.2649999999999997,25.5,3.2649999999999997Q25.5607,3.2649999999999997,25.621,3.27095Q25.6814,3.27689,25.7409,3.28873Q25.8004,3.30057,25.8585,3.31818Q25.9166,3.3357900000000003,25.9726,3.35901Q26.0287,3.38223,26.0822,3.41083Q26.1357,3.4394299999999998,26.1861,3.4731300000000003Q26.2366,3.50684,26.2835,3.54533Q26.3304,3.5838200000000002,26.3733,3.6267199999999997Q26.4162,3.66962,26.4547,3.71652Q26.4932,3.76342,26.5269,3.81387Q26.5606,3.86432,26.5892,3.91782Q26.6178,3.97133,26.641,4.0273900000000005Q26.6642,4.0834399999999995,26.6818,4.141500000000001Q26.6994,4.19956,26.7113,4.25906Q26.7231,4.318569999999999,26.7291,4.37895Q26.735,4.43933,26.735,4.5Q26.735,4.667590000000001,26.6903,4.82912Q26.6457,4.9906500000000005,26.5596,5.13443Q26.4735,5.27822,26.3522,5.39386Q26.2309,5.509510000000001,26.0832,5.58864Q22.527,7.66505,17.3004,6.75319Q12.556280000000001,5.92549,8.342656,3.0455300000000003Q8.210016,2.962132,8.102402,2.848258Q7.99479,2.734385,7.91902,2.597246Q7.84325,2.460107,7.80412,2.308393Q7.765,2.156678,7.765,2Q7.765,1.9393283,7.77095,1.878949Q7.77689,1.818569,7.78873,1.759063Q7.8005700000000004,1.6995580000000001,7.81818,1.641498Q7.83579,1.583439,7.85901,1.527386Q7.88223,1.471333,7.91083,1.4178250000000001Q7.93943,1.364317,7.97314,1.313871Q8.006842,1.263424,8.045332,1.2165240000000002Q8.083822,1.169624,8.126723,1.1267230000000001Q8.169624,1.083822,8.216524,1.0453320000000001Q8.263424,1.006842,8.313871,0.9731399999999999Q8.364317,0.93943,8.417825,0.91083Q8.471333,0.8822300000000001,8.527386,0.85901Q8.583439,0.83579,8.641498,0.8181799999999999Q8.699558,0.80057,8.759063,0.7887299999999999Q8.818569,0.7768900000000001,8.878949,0.77095Q8.9393283,0.7649999999999999,9,0.7649999999999999Q9.199206,0.7649999999999999,9.388309,0.8276300000000001Q9.577412,0.8902699999999999,9.737231,1.009185Z" fill-rule="evenodd" fill="#FEE4BF" fill-opacity="1"/></g></g></svg>