<svg xmlns="http://www.w3.org/2000/svg" xmlns:xlink="http://www.w3.org/1999/xlink" fill="none" version="1.1" width="30" height="17.5" viewBox="0 0 30 17.5"><g><g><path d="M2.84269,2.454272Q2.67654,2.25277,2.58827,2.00697Q2.5,1.761169,2.5,1.5Q2.5,1.4263097,2.5072200000000002,1.3529740000000001Q2.51445,1.279639,2.52882,1.207365Q2.5431999999999997,1.13509,2.56459,1.064573Q2.58598,0.994056,2.61418,0.925975Q2.64238,0.857894,2.67712,0.792905Q2.7118599999999997,0.727916,2.7527999999999997,0.666645Q2.7937399999999997,0.605373,2.84048,0.54841Q2.8872299999999997,0.49144999999999994,2.93934,0.43934000000000006Q2.99145,0.38722999999999996,3.04841,0.3404799999999999Q3.105373,0.2937399999999999,3.166645,0.2527999999999999Q3.227916,0.21185999999999994,3.292905,0.17711999999999994Q3.357894,0.14237999999999995,3.425975,0.11417999999999995Q3.494056,0.08597999999999995,3.564573,0.06458999999999993Q3.63509,0.043199999999999905,3.7073650000000002,0.028820000000000068Q3.779639,0.014450000000000074,3.852974,0.007220000000000004Q3.9263097,0,4,0Q4.165907,0,4.327805,0.03625999999999996Q4.489702,0.07251000000000007,4.639762,0.14327Q4.789823,0.21404,4.9207920000000005,0.31587999999999994Q5.05176,0.4177200000000001,5.15731,0.545728Q6.754770000000001,2.483069,9.19786,4.06005Q11.62183,5.6247,14.3283,6.48262Q17.081200000000003,7.35528,19.5184,7.29884Q22.0057,7.24124,23.7316,6.21177Q23.9058,6.10782,24.1015,6.05391Q24.2971,6,24.5,6Q24.5737,6,24.647,6.00722Q24.7204,6.01445,24.7926,6.02882Q24.8649,6.0432,24.9354,6.06459Q25.0059,6.08598,25.074,6.11418Q25.1421,6.14238,25.2071,6.17712Q25.2721,6.21185,25.3334,6.25279Q25.3946,6.29374,25.4516,6.34048Q25.5086,6.38723,25.5607,6.43934Q25.6128,6.49145,25.6595,6.54841Q25.7063,6.60537,25.7472,6.66664Q25.7881,6.72792,25.8229,6.7929Q25.8576,6.85789,25.8858,6.92597Q25.914,6.99406,25.9354,7.06457Q25.9568,7.13509,25.9712,7.20736Q25.9856,7.27964,25.9928,7.35297Q26,7.42631,26,7.5Q26,7.69476,25.9503,7.88307Q25.9005,8.07137,25.8043,8.24073Q25.7082,8.41009,25.5719,8.54927Q25.4357,8.68846,25.2684,8.78823Q22.8645,10.22216,19.587899999999998,10.29804Q16.651,10.36604,13.42174,9.34238Q10.332370000000001,8.36307,7.57089,6.58057Q4.73647,4.75098,2.84269,2.454272Z" fill-rule="evenodd" fill="#423232" fill-opacity="1"/></g></g></svg>