<svg xmlns="http://www.w3.org/2000/svg" xmlns:xlink="http://www.w3.org/1999/xlink" fill="none" version="1.1" width="30" height="19.0716552734375" viewBox="0 0 30 19.0716552734375"><g><g><path d="M11.69699,16.52044140625C21.197,20.42044140625,26.097,12.02044140625,25.997,8.72045140625C23.797,8.72045140625,19.697,8.02045140625,12.89701,3.72045140625C-0.10299000000000014,-4.57954859375,2.59699,12.82044140625,11.69699,16.52044140625Z" fill="#FFFFFF" fill-opacity="1"/></g><g><path d="M24.34657421875,10.10648140625Q24.30657421875,10.10188140625,24.26637421875,10.09705140625Q19.12657421875,9.480551406250001,12.08526421875,4.98191140625Q8.20497421875,2.48528240625,6.5023642187499995,3.1074614062499997Q5.44983421875,3.49208140625,5.54528421875,5.55099140625Q5.66757421875,8.18898140625,7.48675421875,10.97151140625Q9.461784218750001,13.99244140625,12.26654421875,15.13284140625Q17.68557421875,17.35744140625,21.47607421875,14.13944140625Q23.81897421875,12.15044140625,24.34657421875,10.10648140625ZM27.41787421875,10.05862140625Q26.92077421875,13.45244140625,23.41767421875,16.42644140625Q18.23527421875,20.82614140625,11.127224218750001,17.90804140625Q7.4636542187499995,16.41854140625,4.97577221875,12.61314140625Q2.70869421875,9.14553140625,2.5485042187499998,5.68991140625Q2.3510442187500002,1.43043090625,5.47267421875,0.28970140625000007Q8.57499421875,-0.8439685937500001,13.70852421875,2.45900740625Q20.16427421875,6.58352140625,24.62357421875,7.11840140625Q26.54637421875,7.34904140625,27.17647421875,7.00481140625L27.17687421875,7.00455140625Q27.51337421875,6.82046140625,27.89687421875,6.82046140625Q27.97057421875,6.82046140625,28.04397421875,6.82768140625Q28.11727421875,6.83490140625,28.18957421875,6.84928140625Q28.26177421875,6.86366140625,28.33227421875,6.88505140625Q28.40287421875,6.90644140625,28.47087421875,6.93464140625Q28.53897421875,6.96284140625,28.60397421875,6.99758140625Q28.66897421875,7.03231140625,28.73027421875,7.07325140625Q28.79147421875,7.11419140625,28.84847421875,7.16094140625Q28.90547421875,7.20769140625,28.95757421875,7.25980140625Q29.00967421875,7.31191140625,29.05637421875,7.36887140625Q29.10317421875,7.42583140625,29.14407421875,7.48710140625Q29.18507421875,7.54837140625,29.21977421875,7.61336140625Q29.25447421875,7.67835140625,29.28267421875,7.74643140625Q29.31087421875,7.81451140625,29.33227421875,7.88503140625Q29.35367421875,7.95555140625,29.36807421875,8.02782140625Q29.38247421875,8.100101406250001,29.38967421875,8.17343140625Q29.39687421875,8.24677140625,29.39687421875,8.32046140625Q29.39687421875,8.42090140625,29.38347421875,8.52045140625Q29.37007421875,8.61999140625,29.34357421875,8.71686140625Q29.31707421875,8.81373140625,29.27777421875,8.90620140625Q29.23857421875,8.99867140625,29.18737421875,9.08508140625Q29.13617421875,9.17149140625,29.07387421875,9.250311406249999Q29.01167421875,9.32912140625,28.93947421875,9.39893140625Q28.86717421875,9.46874140625,28.78637421875,9.52830140625Q28.70547421875,9.58786140625,28.61737421875,9.63610140625L28.61687421875,9.63637140625Q28.10287421875,9.91758140625,27.41787421875,10.05862140625Z" fill-rule="evenodd" fill="#423232" fill-opacity="1"/></g><g><path d="M4.924749828125,4.969578984375Q6.574583828125,6.061426984375,8.472503828125,7.107627984375Q10.096053828125001,8.002578984374999,11.233423828125,8.455138984375Q12.351203828125,8.899898984375,12.602753828125,8.849588984375Q12.643583828125,8.841428984375,12.684793828125,8.835538984374999Q13.570483828125,8.709008984375,14.383823828125,9.026228984374999Q14.807423828125,9.191468984375,15.540523828125,9.662298984375Q16.809923828125,10.477548984375,18.054023828125,10.866978984374999Q20.394623828125,11.599638984375,24.244223828125,11.721208984375Q24.316423828125,11.723488984374999,24.388023828125,11.732688984374999Q24.459623828125,11.741888984374999,24.530023828125,11.757918984375Q24.600423828125,11.773958984375,24.669023828125,11.796688984374999Q24.737523828125,11.819408984375,24.803623828125,11.848618984375001Q24.869623828125,11.877818984375,24.932523828125,11.913228984375Q24.995523828125,11.948648984375,25.054723828125,11.989938984375Q25.113923828125,12.031228984375,25.168923828125,12.078018984375Q25.223923828125,12.124808984375,25.274223828125,12.176668984374999Q25.324423828125,12.228528984375,25.369423828125,12.284968984375Q25.414523828125,12.341418984375,25.453923828125,12.401928984375001Q25.493323828125,12.462428984375,25.526723828125,12.526448984375001Q25.560123828125,12.590458984375001,25.587223828125,12.657388984375Q25.614323828125,12.724318984375,25.634923828125,12.793538984375001Q25.655423828125,12.862758984374999,25.669223828125,12.933628984375Q25.683023828125,13.004508984375,25.690023828125,13.076378984375001Q25.696923828125,13.148248984375,25.696923828125,13.220458984375Q25.696923828125,13.294148984375,25.689723828125,13.367488984375Q25.682423828125,13.440818984375,25.668123828125,13.513088984374999Q25.653723828125,13.585368984375,25.632323828125,13.655888984375Q25.610923828125,13.726398984374999,25.582723828125,13.794478984375Q25.554523828125,13.862568984374999,25.519823828125,13.927548984375Q25.485023828125,13.992538984374999,25.444123828125,14.053808984375Q25.403223828125,14.115088984375,25.356423828125,14.172048984375Q25.309723828125,14.229008984375,25.257523828125,14.281118984375Q25.205423828125,14.333228984375,25.148523828125,14.379978984375Q25.091523828125,14.426718984375,25.030223828125,14.467658984375Q24.969023828125,14.508598984375,24.904023828125,14.543338984375Q24.839023828125,14.578078984375,24.770923828125,14.606278984375Q24.702823828125,14.634478984375,24.632323828125,14.655868984375Q24.561823828125,14.677258984375,24.489523828125,14.691638984375Q24.417323828125,14.706008984375,24.343923828125,14.713238984375Q24.270623828125,14.720458984375,24.196923828125,14.720458984375Q24.173223828125,14.720458984375,24.149523828125,14.719708984375L24.148923828125,14.719688984375L24.146823828125,14.719628984375Q19.889023828124998,14.584918984375,17.157823828125,13.729998984375001Q15.528423828125,13.219958984375001,13.919383828125,12.186538984375Q13.438303828125,11.877568984375,13.293683828125,11.821168984375Q13.221313828125,11.792938984374999,13.126813828125,11.803158984374999Q11.325713828125,12.106008984375,7.024263828125,9.734908984375Q5.020862828125,8.630558984375,3.270430828125,7.472218984375L3.269098828125,7.471338984375L4.924723828125,4.969558984375L4.924749828125,4.969578984375Z" fill-rule="evenodd" fill="#423232" fill-opacity="1"/></g></g></svg>