<svg xmlns="http://www.w3.org/2000/svg" xmlns:xlink="http://www.w3.org/1999/xlink" fill="none" version="1.1" width="32.300048828125" height="16" viewBox="0 0 32.300048828125 16"><g><g><path d="M11.303962,3.62245L11.303176,3.622862Q11.212738,3.670305,11.129565,3.729568Q11.046392,3.788831,10.97202,3.85882Q10.89765,3.9288093,10.83345,4.00823324Q10.76925,4.0876572,10.7164,4.17505Q10.66356,4.262443,10.62305,4.356191Q10.58254,4.44994,10.555109999999999,4.5483139999999995Q10.52768,4.646688,10.51384,4.747872Q10.5,4.849056,10.5,4.951183Q10.5,5.02487,10.50722,5.09821Q10.51445,5.17154,10.52882,5.2438199999999995Q10.5432,5.31609,10.564589999999999,5.38661Q10.58598,5.45713,10.61418,5.5252099999999995Q10.64238,5.59329,10.67712,5.6582799999999995Q10.71186,5.72327,10.7528,5.78454Q10.79374,5.84581,10.84048,5.90277Q10.88723,5.95974,10.93934,6.011839999999999Q10.99145,6.06395,11.04841,6.1107Q11.105373,6.15745,11.166645,6.19839Q11.227916,6.23933,11.292905,6.27406Q11.357894,6.3088,11.425975,6.337Q11.494056,6.3652,11.564573,6.38659Q11.63509,6.40798,11.707365,6.422359999999999Q11.779639,6.43674,11.852974,6.443960000000001Q11.9263097,6.45118,12,6.45118Q12.369563,6.45118,12.696827,6.2795000000000005L12.697353,6.27923Q15.98732,4.55381,23.2924,6.548220000000001Q25.676299999999998,7.19905,28.1738,8.17619Q29.4118,8.66058,30.1624,9.008949999999999Q30.1652,9.01025,30.168,9.01155Q30.4686,9.15118,30.8,9.15118Q30.8737,9.15118,30.947,9.14396Q31.0203,9.13673,31.0926,9.12236Q31.1649,9.107980000000001,31.2354,9.086590000000001Q31.3059,9.0652,31.374,9.036999999999999Q31.4421,9.0088,31.5071,8.97406Q31.5721,8.93932,31.6333,8.89838Q31.6946,8.85744,31.7516,8.8107Q31.8085,8.763950000000001,31.8606,8.711839999999999Q31.9128,8.65973,31.9595,8.60277Q32.006299999999996,8.54581,32.047200000000004,8.48453Q32.0881,8.423259999999999,32.1229,8.358270000000001Q32.1576,8.293289999999999,32.1858,8.225200000000001Q32.214,8.157119999999999,32.2354,8.08661Q32.2568,8.01609,32.2712,7.94381Q32.2855,7.8715399999999995,32.2928,7.79821Q32.3,7.72487,32.3,7.65118Q32.3,7.54451,32.2849,7.43891Q32.269800000000004,7.3333200000000005,32.2399,7.230919999999999Q32.21,7.12852,32.166,7.03139Q32.1219,6.9342500000000005,32.064499999999995,6.84432Q32.0071,6.7544,31.9376,6.673500000000001Q31.8681,6.5926,31.7878,6.52236Q31.7075,6.452109999999999,31.6181,6.39393Q31.5287,6.33575,31.432,6.2908100000000005L31.4317,6.29068L31.4302,6.29Q30.5947,5.90193,29.2668,5.38242Q26.6206,4.347054,24.0826,3.654141Q15.63903,1.3489300000000002,11.303962,3.62245Z" fill-rule="evenodd" fill="#423232" fill-opacity="1"/></g></g></svg>