<svg xmlns="http://www.w3.org/2000/svg" xmlns:xlink="http://www.w3.org/1999/xlink" fill="none" version="1.1" width="30" height="16" viewBox="0 0 30 16"><g><g><path d="M23.7201,5.85325Q17.2447,4.6110299999999995,6.589073,7.646273Q6.4722100000000005,7.679562,6.362229,7.731226Q6.252248,7.78289,6.152017,7.851583Q6.051786,7.920276,5.96392,8.00421Q5.87605,8.08814,5.80284,8.18512Q5.72963,8.2821,5.67298,8.38959Q5.61633,8.49709,5.57772,8.61231Q5.5391200000000005,8.72752,5.51956,8.84745Q5.5,8.96738,5.5,9.08889Q5.5,9.16258,5.50722,9.23591Q5.51445,9.30925,5.52882,9.38152Q5.5432,9.453800000000001,5.56459,9.52432Q5.58598,9.59483,5.61418,9.66291Q5.64238,9.73099,5.67712,9.79598Q5.71186,9.86097,5.7528,9.92224Q5.79374,9.98352,5.8404799999999994,10.04048Q5.88723,10.09744,5.93934,10.14955Q5.99145,10.20166,6.04841,10.2484Q6.105373,10.29515,6.166645,10.33609Q6.2279160000000005,10.37703,6.292905,10.41177Q6.357894,10.44651,6.425975,10.47471Q6.4940560000000005,10.50291,6.564573,10.5243Q6.63509,10.54569,6.707365,10.56007Q6.779639,10.57444,6.852974,10.581669999999999Q6.9263097,10.58889,7,10.58889Q7.20947,10.58889,7.410927,10.5315Q17.3803,7.691744,23.1549,8.79953Q24.8189,9.11875,25.8644,9.72536Q26.1464,9.88899,26.3293,10.04311Q26.3534,10.0635,26.3767,10.08298Q26.5693,10.30058,26.8292,10.430530000000001Q27.1459,10.58889,27.5,10.58889Q27.5737,10.58889,27.647,10.581669999999999Q27.7204,10.57444,27.7926,10.56007Q27.8649,10.54569,27.9354,10.5243Q28.0059,10.50291,28.074,10.47471Q28.1421,10.44651,28.2071,10.41177Q28.2721,10.37703,28.3334,10.33609Q28.3946,10.29515,28.4516,10.2484Q28.5086,10.20166,28.5607,10.14955Q28.6128,10.09744,28.6595,10.04048Q28.7063,9.98352,28.7472,9.92224Q28.7881,9.86097,28.8229,9.79598Q28.8576,9.73099,28.8858,9.66291Q28.914,9.59483,28.9354,9.52432Q28.9568,9.453800000000001,28.9712,9.38152Q28.9856,9.30925,28.9928,9.23591Q29,9.16258,29,9.08889Q29,8.8217,28.9077,8.57094Q28.8155,8.32019,28.6423,8.11671L28.6415,8.11578L28.641,8.1152L28.6398,8.11378L28.6373,8.11084Q28.6346,8.1077,28.6319,8.10458Q28.6261,8.09786,28.6198,8.09079Q28.6058,8.07496,28.5905,8.05843Q28.5535,8.01833,28.5109,7.975812Q28.3995,7.864518,28.2625,7.749114Q27.879,7.425889,27.37,7.130541Q25.8842,6.2684,23.7201,5.85325Z" fill-rule="evenodd" fill="#423232" fill-opacity="1"/></g></g></svg>