<svg xmlns="http://www.w3.org/2000/svg" xmlns:xlink="http://www.w3.org/1999/xlink" fill="none" version="1.1" width="30.300048828125" height="16" viewBox="0 0 30.300048828125 16"><g><g><path d="M7.23812,3.15321Q8.0705,4.36967,9.02976,4.7611930000000005Q9.61701,5.00088,10.959679999999999,5.07831Q11.97337,5.13677,12.51003,5.23994Q13.502600000000001,5.43076,14.28046,5.91882Q16.297,7.10131,17.5587,7.0875900000000005Q18.549500000000002,7.07682,20.5683,6.13949Q22.2693,5.31054,23.8496,5.2078299999999995Q24.7887,5.14679,26.2006,5.39301Q26.973,5.52772,27.3008,5.52561Q27.7512,5.52271,28.1959,5.32704Q28.4846,5.20001,28.8,5.20001Q28.8737,5.20001,28.947,5.2072400000000005Q29.0204,5.21446,29.0927,5.22883Q29.1649,5.2432099999999995,29.2354,5.2646Q29.306,5.28599,29.374,5.31419Q29.4421,5.34239,29.5071,5.37713Q29.5721,5.41187,29.6334,5.4528099999999995Q29.6946,5.49375,29.7516,5.5405Q29.8086,5.58725,29.8607,5.63935Q29.9128,5.69146,29.9595,5.74842Q30.0063,5.80539,30.0472,5.8666599999999995Q30.0882,5.92793,30.1229,5.99292Q30.1576,6.05791,30.1858,6.12599Q30.214,6.19407,30.2354,6.26459Q30.2568,6.335100000000001,30.2712,6.40738Q30.2856,6.4796499999999995,30.2928,6.552989999999999Q30.3,6.62632,30.3,6.70001Q30.3,6.8086,30.2844,6.91606Q30.2687,7.0235199999999995,30.2378,7.12761Q30.2068,7.23169,30.1612,7.33024Q30.1156,7.42878,30.0562,7.5197199999999995Q29.9969,7.61066,29.9251,7.69211Q29.8532,7.77356,29.7704,7.8438099999999995Q29.6876,7.91406,29.5956,7.97166Q29.5035,8.029250000000001,29.4041,8.07299Q28.3912,8.518650000000001,27.3201,8.525549999999999Q26.723,8.52939,25.6852,8.348410000000001Q24.626,8.1637,24.0442,8.201509999999999Q23.0527,8.26595,21.831699999999998,8.86051Q20.558999999999997,9.451419999999999,19.7533,9.7107Q18.6173,10.076260000000001,17.5913,10.08742Q15.48898,10.11027,12.73947,8.49291Q12.716840000000001,8.4796,12.69469,8.465499999999999Q12.390419999999999,8.27188,11.94365,8.18599Q11.6022,8.12035,10.78696,8.07333Q8.94571,7.96715,7.89609,7.53875Q6.103214,6.806979999999999,4.76236,4.847499L4.76204,4.847026Q4.63401,4.65991,4.56701,4.443316Q4.5,4.226722,4.5,4Q4.5,3.9263097,4.50722,3.852974Q4.51445,3.779639,4.52882,3.7073650000000002Q4.5432,3.63509,4.56459,3.564573Q4.58598,3.494056,4.61418,3.425975Q4.64238,3.357894,4.67712,3.292905Q4.71186,3.227916,4.7528,3.166645Q4.79374,3.105373,4.8404799999999994,3.04841Q4.88723,2.99145,4.93934,2.93934Q4.99145,2.8872299999999997,5.04841,2.84048Q5.105373,2.7937399999999997,5.166645,2.7527999999999997Q5.2279160000000005,2.7118599999999997,5.292905,2.67712Q5.357894,2.64238,5.425975,2.61418Q5.4940560000000005,2.58598,5.564573,2.56459Q5.63509,2.5431999999999997,5.707365,2.52882Q5.779639,2.51445,5.852974,2.5072200000000002Q5.9263097,2.5,6,2.5Q6.182914,2.5,6.360467,2.54396Q6.53802,2.58791,6.699808,2.67325Q6.861595,2.7585800000000003,6.998134,2.8803Q7.13467,3.002014,7.23796,3.152974L7.23812,3.15321Z" fill-rule="evenodd" fill="#423232" fill-opacity="1"/></g></g></svg>