<svg xmlns="http://www.w3.org/2000/svg" xmlns:xlink="http://www.w3.org/1999/xlink" fill="none" version="1.1" width="33.96142578125" height="18.4141845703125" viewBox="0 0 33.96142578125 18.4141845703125"><g><g><path d="M30.98574,6.805010703125L30.98977,6.799550703125L30.9588,6.786440703125Q30.97218,6.795550703125,30.98574,6.805010703125ZM29.20372,9.209930703125Q29.20835,9.213460703125001,29.21547,9.219060703124999Q29.24916,9.245520703124999,29.29079,9.280650703125Q29.43858,9.405360703125,29.58983,9.557360703125Q30.07171,10.041620703125,30.36035,10.566960703125Q31.14669,11.998120703125,30.09999,13.407120703125Q29.09179,14.751420703125,27.4549,15.213620703125Q26.638422,15.444120703125,26.0935651,15.410020703125Q26.0468281,15.407120703125,26,15.407120703125Q25.9263097,15.407120703125,25.852974,15.414320703125Q25.779639,15.421620703125,25.707365,15.435920703125Q25.63509,15.450320703125,25.564573,15.471720703125Q25.494056,15.493120703125,25.425975,15.521320703125Q25.357894,15.549520703125,25.292905,15.584220703125Q25.227916,15.619020703125,25.166645,15.659920703125Q25.105373,15.700920703125,25.04841,15.747620703125Q24.99145,15.794420703125,24.93934,15.846520703125Q24.88723,15.898620703125,24.84048,15.955520703125Q24.79374,16.012520703125,24.7528,16.073820703125Q24.71186,16.135020703125,24.67712,16.200020703125Q24.64238,16.265020703125,24.61418,16.333120703124997Q24.58598,16.401220703125,24.56459,16.471720703125Q24.5432,16.542220703125,24.52882,16.614520703125002Q24.51445,16.686820703125,24.50722,16.760120703125Q24.5,16.833420703125,24.5,16.907120703125003Q24.5,16.977920703125,24.50666,17.048320703125Q24.51332,17.118820703125,24.52658,17.188320703125Q24.53985,17.257820703125,24.55959,17.325720703125Q24.57934,17.393720703125,24.60539,17.459520703125Q24.63145,17.525220703125,24.66358,17.588320703125Q24.69571,17.651320703125,24.73363,17.711120703125Q24.77156,17.770820703125,24.81493,17.826720703125Q24.85831,17.882620703125,24.90676,17.934220703125Q24.95521,17.985720703125,25.008295,18.032520703125Q25.061382000000002,18.079320703125,25.118637,18.120920703125Q25.175892,18.162420703125,25.236806,18.198420703125Q25.297719999999998,18.234420703125,25.361753,18.264620703125Q25.425786,18.294720703125,25.492369,18.318620703125Q25.558951,18.342620703125,25.627492,18.360120703125Q25.696033,18.377720703125,25.765924,18.388720703125Q25.835815,18.399820703125,25.9064348,18.404220703125Q26.961569,18.470120703125,28.27009,18.100720703125Q30.88318,17.362920703125,32.49999,15.207120703125Q33.68759,13.608420703125,33.70925,11.864820703125Q33.72665,10.463710703125,32.98961,9.122310703124999Q32.67318,8.546410703125,32.237899999999996,8.016740703125Q32.56317,7.637200703125,32.85826,7.210950703125Q34.7517,4.4759907031249995,33.39564,2.1513307031249997Q32.055930000000004,-0.1453192968749999,29.48545,0.009810703125000098Q28.33103,0.079480703125,27.38926,0.586198703125L27.38883,0.586430703125Q27.2998,0.634366703125,27.21802,0.693814703125Q27.13624,0.753263703125,27.06317,0.823149703125Q26.990102,0.893035703125,26.927075,0.972095703125Q26.864048,1.051154703125,26.812202,1.137957703125Q26.760355,1.224760703125,26.720626,1.3177357031249999Q26.680897,1.410711403125,26.654005,1.508177373125Q26.627113,1.605643703125,26.613544,1.705836703125Q26.599976,1.806029703125,26.599976,1.907137703125Q26.599976,1.9808277031250001,26.607198,2.054163703125Q26.614421,2.127498703125,26.628798,2.199773703125Q26.643174,2.272047703125,26.664565,2.342564703125Q26.685956,2.413081703125,26.714156,2.481162703125Q26.742356,2.549240703125,26.777093999999998,2.614230703125Q26.811831,2.679220703125,26.852771,2.7404907031250003Q26.893711,2.801760703125,26.94046,2.858730703125Q26.987208,2.9156907031249997,27.03932,2.967800703125Q27.09142,3.019900703125,27.14839,3.066650703125Q27.20535,3.113400703125,27.26662,3.154340703125Q27.32789,3.195280703125,27.392879999999998,3.2300207031249997Q27.45787,3.264760703125,27.52595,3.292960703125Q27.59403,3.321160703125,27.66455,3.342550703125Q27.73507,3.363940703125,27.80734,3.378310703125Q27.87961,3.392690703125,27.95295,3.399910703125Q28.02629,3.407140703125,28.09998,3.407140703125Q28.47789,3.407140703125,28.8107,3.2280707031249998L28.81113,3.227840703125Q29.17123,3.034230703125,29.66617,3.004360703125Q30.39449,2.960410703125,30.80431,3.662940703125Q31.19825,4.338280703125,30.39169,5.503320703125Q29.84316,6.295630703125,29.16715,6.832460703125Q29.01082,6.956610703125,28.89239,7.117330703125Q28.84883,7.176450703125,28.81125,7.239550703125Q28.77367,7.302640703125,28.74243,7.369100703125Q28.711199999999998,7.435560703125,28.6866,7.504760703125Q28.66201,7.573960703125,28.644289999999998,7.645220703125Q28.62657,7.716490703125,28.6159,7.789150703125Q28.60523,7.861810703125,28.6017,7.935160703125Q28.59818,8.008510703125001,28.60184,8.081860703124999Q28.6055,8.155210703125,28.6163,8.227840703125Q28.627110000000002,8.300480703125,28.64496,8.371710703125Q28.66281,8.442950703125,28.68753,8.512100703125Q28.71225,8.581250703125,28.74361,8.647660703125Q28.77497,8.714060703125,28.81267,8.777090703125001Q28.85036,8.840110703125,28.89403,8.899150703124999Q28.9377,8.958190703125,28.98693,9.012680703125Q29.03616,9.067180703125,29.09048,9.116600703125Q29.1448,9.166020703125,29.20368,9.209900703125001Q29.39058,9.351800703125,29.62563,9.430150703125001Q29.73728,9.467370703124999,29.85338,9.486720703125L29.21018,9.214710703125Q29.20694,9.212330703125,29.20372,9.209930703125L29.20311,9.209470703125L29.20368,9.209900703125001L29.20372,9.209930703125Z" fill-rule="evenodd" fill="#423232" fill-opacity="1"/></g></g></svg>