<svg xmlns="http://www.w3.org/2000/svg" xmlns:xlink="http://www.w3.org/1999/xlink" fill="none" version="1.1" width="30" height="16.5" viewBox="0 0 30 16.5"><g><g><path d="M15.05925934375,3.6526899999999998Q18.31172234375,5.242672,21.49255234375,5.466188Q24.732602343750003,5.693869,26.94310234375,4.404907L26.94410234375,4.404329Q27.29440234375,4.199997,27.69990234375,4.199997Q27.77360234375,4.199997,27.84690234375,4.2072199999999995Q27.920302343750002,4.214443,27.992502343749997,4.228819Q28.06480234375,4.243195,28.13530234375,4.2645859999999995Q28.20580234375,4.285978,28.273902343750002,4.314178Q28.34200234375,4.342378,28.40700234375,4.377115Q28.47200234375,4.411852,28.53330234375,4.452793Q28.59450234375,4.493733,28.65150234375,4.540481Q28.70850234375,4.58723,28.76060234375,4.639337Q28.81270234375,4.691444,28.85940234375,4.748407Q28.90620234375,4.80537,28.94710234375,4.866642Q28.98800234375,4.9279128,29.02280234375,4.99290184Q29.057502343750002,5.0578909,29.08570234375,5.125972Q29.11390234375,5.194053,29.13530234375,5.26457Q29.15670234375,5.335087,29.17110234375,5.407361Q29.185502343750002,5.479636,29.19270234375,5.552971Q29.19990234375,5.626307,29.19990234375,5.699997Q29.19990234375,5.896622,29.149202343749998,6.0866Q29.09850234375,6.27659,29.00060234375,6.44709Q28.90270234375,6.61759,28.76410234375,6.75709Q28.62550234375,6.89659,28.455702343749998,6.9956700000000005Q25.44590234375,8.75139,21.28226234375,8.45881Q17.51854234375,8.19433,13.74108734375,6.34758Q13.64693434375,6.30155,13.56009734375,6.24287Q13.47326034375,6.18419,13.395422343749999,6.11401Q13.31759234375,6.04383,13.25027234375,5.9635110000000005Q13.18295234375,5.883188,13.12746234375,5.794285Q13.07196234375,5.705382,13.02937234375,5.609625Q12.98678234375,5.513869,12.95791234375,5.413119Q12.92905234375,5.31237,12.914472343749999,5.208586Q12.89990234375,5.104802,12.89990234375,5Q12.89990234375,4.9263097,12.90712234375,4.852974Q12.91435234375,4.779639,12.92872234375,4.707365Q12.94310234375,4.63509,12.964492343749999,4.564573Q12.98588234375,4.4940560000000005,13.01408234375,4.425975Q13.04228234375,4.357894,13.07702234375,4.292905Q13.11176234375,4.2279160000000005,13.15270234375,4.166645Q13.19364234375,4.105373,13.24038234375,4.04841Q13.28713234375,3.99145,13.33924234375,3.93934Q13.39135234375,3.8872299999999997,13.44831234375,3.84048Q13.50527534375,3.7937399999999997,13.56654734375,3.7527999999999997Q13.62781834375,3.7118599999999997,13.69280734375,3.67712Q13.75779634375,3.64238,13.82587734375,3.61418Q13.89395834375,3.58598,13.96447534375,3.56459Q14.03499234375,3.5431999999999997,14.10726734375,3.52882Q14.17954134375,3.51445,14.25287634375,3.5072200000000002Q14.32621204375,3.5,14.39990234375,3.5Q14.74694234375,3.5,15.05871734375,3.65242L15.05925934375,3.6526899999999998Z" fill-rule="evenodd" fill="#423232" fill-opacity="1"/></g><g><path d="M16.40001,1.50414712Q16.3995,1.907257,16.3013,2.4724180000000002Q16.11447,3.5476,15.64907,4.554399999999999Q14.16342,7.76823,10.518181,9.10765L10.517226,9.108Q10.266794,9.2,10,9.2Q9.9263097,9.2,9.852974,9.19277Q9.779639,9.18555,9.707365,9.17117Q9.63509,9.1568,9.564573,9.13541Q9.494056,9.11402,9.425975,9.08581Q9.357894,9.05762,9.292905,9.02288Q9.227916,8.98814,9.166645,8.947199999999999Q9.105373,8.90626,9.04841,8.85951Q8.99145,8.81276,8.93934,8.76066Q8.88723,8.708549999999999,8.84048,8.651589999999999Q8.79374,8.594619999999999,8.7528,8.53335Q8.71186,8.47208,8.67712,8.40709Q8.64238,8.3421,8.61418,8.27402Q8.58598,8.20594,8.564589999999999,8.13542Q8.5432,8.064910000000001,8.52882,7.99263Q8.51445,7.92036,8.50722,7.84702Q8.5,7.77369,8.5,7.7Q8.5,7.58552,8.51737,7.47236Q8.53475,7.35921,8.56909,7.25Q8.60343,7.1408,8.65395,7.03807Q8.70447,6.93534,8.76999,6.84146Q8.83552,6.74759,8.91453,6.66474Q8.99354,6.5819,9.084203,6.51201Q9.174869,6.44212,9.275093,6.38679Q9.375316,6.33147,9.482775,6.29199Q9.484022,6.29153,9.48527,6.29108Q11.96226,5.3802900000000005,12.92594,3.29559Q13.22616,2.64615,13.34559,1.958831Q13.40001,1.645645,13.40001,1.49999691342Q13.40001,1.4263068,13.40723,1.352972Q13.41445,1.279636,13.42883,1.207362Q13.44321,1.135088,13.4646,1.064571Q13.485990000000001,0.994054,13.51419,0.925973Q13.542390000000001,0.857892,13.57713,0.792903Q13.61186,0.727915,13.6528,0.666644Q13.69374,0.605372,13.74049,0.548409Q13.78724,0.49144999999999994,13.83935,0.43934000000000006Q13.89146,0.38722999999999996,13.94842,0.3404799999999999Q14.005379999999999,0.2937399999999999,14.06665,0.2527999999999999Q14.12792,0.21185999999999994,14.192910000000001,0.17711999999999994Q14.2579,0.14237999999999995,14.325980000000001,0.11417999999999995Q14.39406,0.08597999999999995,14.46458,0.06458999999999993Q14.5351,0.043199999999999905,14.60737,0.028820000000000068Q14.679649999999999,0.014450000000000074,14.75298,0.007220000000000004Q14.826319999999999,0,14.90001,0Q14.973700000000001,0,15.04703,0.007220000000000004Q15.120370000000001,0.014450000000000074,15.19264,0.028820000000000068Q15.26492,0.043199999999999905,15.33544,0.06458999999999993Q15.40595,0.08597999999999995,15.474029999999999,0.11417999999999995Q15.542110000000001,0.14237999999999995,15.607099999999999,0.17711999999999994Q15.67209,0.21185999999999994,15.733360000000001,0.2527999999999999Q15.794640000000001,0.2937399999999999,15.851600000000001,0.3404799999999999Q15.90856,0.38722999999999996,15.96067,0.43934000000000006Q16.01278,0.49144999999999994,16.05952,0.54841Q16.106270000000002,0.605373,16.14721,0.666645Q16.18815,0.727916,16.22289,0.792905Q16.25763,0.857894,16.28583,0.925975Q16.31403,0.994056,16.33542,1.064573Q16.35681,1.13509,16.37119,1.207365Q16.385559999999998,1.279639,16.392789999999998,1.3529740000000001Q16.40001,1.4263097,16.40001,1.5L16.40001,1.50414712Z" fill-rule="evenodd" fill="#423232" fill-opacity="1"/></g></g></svg>