<svg xmlns="http://www.w3.org/2000/svg" xmlns:xlink="http://www.w3.org/1999/xlink" fill="none" version="1.1" width="31.5311279296875" height="16.5294189453125" viewBox="0 0 31.5311279296875 16.5294189453125"><g><g><path d="M1.5159897703125,7.8745030859375C1.6159895703125,8.9745030859375,1.8159865703125,10.1744930859375,2.2159865703125,11.4745130859375C4.2159845703125,18.5745130859375,13.6159345703125,13.2745130859375,19.1159345703125,13.1745130859375C23.5159345703125,13.0745130859375,25.9160345703125,15.6745130859375,27.1160345703125,10.3745030859375C27.4160345703125,9.3745030859375,27.5159345703125,8.174493085937499,27.7159345703125,6.4744930859375C26.3159345703125,6.6744930859375,23.9159345703125,6.5744930859375,20.1159345703125,4.9744930859375C10.3159845703125,1.1744906859375,0.5159895703125,-2.1254969140625,1.5159897703125,7.8745030859375Z" fill="#FFFFFF" fill-opacity="1"/></g><g><path d="M24.7284242109375,8.776732890625L27.2935912109375,9.061762890625Q27.3556512109375,9.065432890625,27.4170912109375,9.074936890625Q27.4785312109375,9.084444890625,27.5387912109375,9.099706890625Q27.5990612109375,9.114968890625,27.6576212109375,9.135848890625Q27.7161812109375,9.156728890625,27.7725012109375,9.183039890625Q27.8288312109375,9.209350890625,27.8824212109375,9.240858890625Q27.9360212109375,9.272366890625,27.9864012109375,9.308789890625Q28.036781210937498,9.345213890625,28.0835012109375,9.386227890625Q28.1302212109375,9.427241890625,28.1728712109375,9.472480890625Q28.2155112109375,9.517719890625,28.2536912109375,9.566779890625Q28.2918812109375,9.615840890625,28.3252712109375,9.668284890625Q28.3586512109375,9.720728890625,28.3869412109375,9.776087890625Q28.4152312109375,9.831447890625,28.4381712109375,9.889229890625Q28.4611112109375,9.947011890625,28.4785012109375,10.006699990625Q28.4958812109375,10.066388310625,28.5075612109375,10.127450790625Q28.5192412109375,10.188512890625,28.5251112109375,10.250404890625Q28.5309712109375,10.312296890625,28.5309712109375,10.374465890625Q28.5309712109375,10.439067890625,28.5246412109375,10.503358890625Q28.5183112109375,10.567648890625,28.5057012109375,10.631009890625Q28.4931012109375,10.694369890625,28.4743512109375,10.756189890625Q28.455601210937502,10.818009890625,28.4308712109375,10.877694890625Q28.4061512109375,10.937378890625,28.3757012109375,10.994352890625Q28.345241210937502,11.051325890625,28.3093512109375,11.105042890625Q28.2734612109375,11.158752890625,28.2324812109375,11.208692890625Q28.1915012109375,11.258632890625,28.1458212109375,11.304312890625Q28.1001412109375,11.349992890625,28.0502012109375,11.390972890625001Q28.0002612109375,11.431952890625,27.9465512109375,11.467852890625Q27.8928312109375,11.503742890625,27.8358612109375,11.534192890625Q27.7788812109375,11.564642890625,27.7192012109375,11.589362890625Q27.6595212109375,11.614092890625,27.5977012109375,11.632842890625Q27.5358812109375,11.651592890625,27.4725212109375,11.664202890624999Q27.4091512109375,11.676802890625,27.344861210937502,11.683132890625Q27.2805712109375,11.689462890625,27.2159712109375,11.689462890625Q27.1090512109375,11.689462890625,27.0035412109375,11.672192890625L24.4383708109375,11.387172890625Q24.3763102109375,11.383502890625,24.3148722109375,11.373992890625Q24.2534342109375,11.364482890625,24.1931682109375,11.349222890625Q24.1329012109375,11.333962890625,24.0743432109375,11.313082890625001Q24.0157852109375,11.292202890625,23.9594582109375,11.265892890625Q23.9031312109375,11.239572890625,23.8495382109375,11.208072890625001Q23.7959442109375,11.176562890625,23.7455632109375,11.140142890625Q23.6951812109375,11.103712890625,23.6484602109375,11.062700890624999Q23.6017392109375,11.021686890625,23.5590962109375,10.976447890625Q23.5164532109375,10.931208890625,23.4782712109375,10.882148890625Q23.4400812109375,10.833087890625,23.4067012109375,10.780644890625Q23.3733112109375,10.728199890625,23.3450212109375,10.672840890625Q23.3167312109375,10.617480890625,23.2937912109375,10.559698890625Q23.2708512109375,10.501916890625001,23.253461210937502,10.442228890625Q23.2360812109375,10.382540890625,23.2244012109375,10.321477890625Q23.2127212109375,10.260415890625,23.2068612109375,10.198523890625Q23.2009912109375,10.136631990625,23.2009912109375,10.074462890625Q23.2009912109375,10.009861090625,23.2073212109375,9.945569890625Q23.2136512109375,9.881279890625,23.2262612109375,9.817918890625Q23.2388612109375,9.754558890625,23.2576112109375,9.692738890625Q23.2763712109375,9.630918890625,23.3010912109375,9.571233890625Q23.3258112109375,9.511549890625,23.3562612109375,9.454575890625Q23.386721210937502,9.397602890625,23.4226112109375,9.343887890625Q23.4585012109375,9.290173890625,23.4994812109375,9.240235890625Q23.5404652109375,9.190297890625,23.5861462109375,9.144617890625Q23.6318262109375,9.098936890625,23.6817642109375,9.057952890625Q23.7317022109375,9.016972890625,23.7854162109375,8.981082890625Q23.8391312109375,8.945192890625,23.8961042109375,8.914732890625Q23.9530782109375,8.884282890625,24.0127622109375,8.859562890625Q24.0724472109375,8.834842890625,24.1342672109375,8.816082890625Q24.1960872109375,8.797332890625,24.2594472109375,8.784732890625Q24.3228082109375,8.772122890624999,24.3870982109375,8.765792890625Q24.4513894109375,8.759462890625,24.5159912109375,8.759462890625Q24.6229102109375,8.759462890625,24.7284242109375,8.776732890625Z" fill-rule="evenodd" fill="#423232" fill-opacity="1"/></g><g><path d="M26.2478626953125,7.872938515625Q25.7801626953125,11.464678515625,24.9628626953125,12.257178515625Q24.5709626953125,12.637278515625,22.5608626953125,12.295978515625Q20.4382626953125,11.935578515625,19.0908626953125,11.961478515625Q17.3790626953125,11.992678515625,13.4230626953125,12.928278515625Q8.705912695312499,14.043978515625,6.8295726953125,13.885578515625Q4.2142326953125,13.664778515625,3.4739626953125,11.197168515625Q2.1006576953125,6.521308515625,2.9198126953125003,4.3931485156250005Q3.5050726953125,2.872648515625,5.6012226953125,2.655798515625Q9.3338426953125,2.269668515625,19.6379626953125,6.297638515625Q23.4939626953125,7.804598515625,26.2478626953125,7.872938515625ZM28.9356626953125,7.515848515625Q28.3326626953125,12.648078515625,26.7913626953125,14.142778515625Q25.4437626953125,15.449578515625,22.1212626953125,14.885378515625Q20.2419626953125,14.566378515625,19.1413626953125,14.587478515625Q17.7089626953125,14.613578515625,14.0276626953125,15.484278515625Q8.9025726953125,16.696478515625,6.6085926953125,16.502778515625Q2.2121256953125,16.131578515625,0.9582306953124999,11.951878515625Q-0.6700673046875001,6.407978515625,0.4686266953125,3.449648515625Q1.6325296953125,0.42584151562500006,5.3309626953125,0.043248515624999984Q9.6970026953125,-0.40841148437499997,20.5942626953125,3.851408515625Q25.6017626953125,5.808358515625,28.0362626953125,5.046248515625Q28.8400626953125,4.794618515625,28.9844626953125,4.513678515625Q29.0194626953125,4.420148515625,29.0681626953125,4.332978515624999Q29.1168626953125,4.245798515625,29.1782626953125,4.166988515625Q29.2395626953125,4.088168515625,29.3120626953125,4.019518515625Q29.3846626953125,3.950868515625,29.4666626953125,3.893958515625Q29.5487626953125,3.837038515625,29.6384626953125,3.793178515625Q29.7281626953125,3.749308515625,29.8234626953125,3.719498515625Q29.9187626953125,3.689678515625,30.0174626953125,3.674598515625Q30.1162626953125,3.659518515625,30.2160626953125,3.659518515625Q30.2806626953125,3.659518515625,30.3449626953125,3.665848515625Q30.4092626953125,3.672178515625,30.4726626953125,3.684788515625Q30.5359626953125,3.697388515625,30.5977626953125,3.716138515625Q30.6596626953125,3.734888515625,30.7192626953125,3.759618515625Q30.7789626953125,3.784338515625,30.8359626953125,3.814788515625Q30.8929626953125,3.845238515625,30.9466626953125,3.881138515625Q31.0003626953125,3.917028515625,31.0502626953125,3.958008515625Q31.1002626953125,3.998988515625,31.1459626953125,4.044668515625Q31.1915626953125,4.090348515625,31.2325626953125,4.140288515625Q31.2735626953125,4.190228515625,31.3094626953125,4.2439385156250005Q31.3453626953125,4.297658515625,31.3757626953125,4.354628515625Q31.4062626953125,4.411608515625,31.4309626953125,4.471288515625Q31.4556626953125,4.530968515625,31.4744626953125,4.592788515625Q31.4931626953125,4.654608515625,31.5057626953125,4.7179685156249995Q31.5184626953125,4.781328515625,31.5247626953125,4.845628515625Q31.5310626953125,4.909918515625,31.5310626953125,4.974518515625Q31.5310626953125,5.275268515625,31.4003626953125,5.546128515625Q30.8123626953125,6.894158515625,28.9356626953125,7.515848515625Z" fill-rule="evenodd" fill="#423232" fill-opacity="1"/></g><g><path d="M17.2677912109375,10.5658054296875Q13.9207912109375,10.0991354296875,12.8482912109375,9.769305429687499Q12.7404912109375,9.7997454296875,12.5217912109375,9.8739954296875Q11.4037012109375,10.2535654296875,10.6689312109375,10.1908054296875Q9.2588112109375,10.0703654296875,8.3321512109375,8.7160054296875Q7.9080112109375,8.0961124296875,3.6615912109375,8.9155554296875Q2.7912912109375,9.083495429687499,2.4367332109374997,9.1359254296875Q1.8097942109375,9.2286254296875,1.4099872109375,9.1851654296875Q1.3489082109375,9.1802254296875,1.2885542109374999,9.1696254296875Q1.2281992109375,9.1590254296875,1.1690922109375,9.1428654296875Q1.1099852109375,9.1266954296875,1.0526372109375,9.1051054296875Q0.9952892109375,9.0835154296875,0.9401982109375,9.0566854296875Q0.8851062109375,9.0298554296875,0.8327492109375,8.9980154296875Q0.7803912109375,8.9661754296875,0.7312222109375,8.9296054296875Q0.6820522109375,8.893035429687501,0.6364962109375,8.8520554296875Q0.5909412109375,8.811065429687499,0.5493942109375,8.7660254296875Q0.5078512109375,8.7209854296875,0.4706712109375,8.6722754296875Q0.4334912109375,8.6235554296875,0.4010012109375001,8.5716054296875Q0.3685212109375,8.5196454296875,0.3410012109375,8.4648954296875Q0.3134912109375001,8.4101354296875,0.29118121093750005,8.3530654296875Q0.26888121093750006,8.2959854296875,0.2519812109374999,8.2370854296875Q0.2350812109375,8.1781854296875,0.2237412109375001,8.1179664296875Q0.2123912109374999,8.0577484296875,0.2066912109375001,7.9967354296875Q0.20099121093750005,7.9357234296875,0.20099121093750005,7.8744454296875Q0.20099121093750005,7.8098434296875,0.2073212109375,7.7455524296875Q0.21365121093749995,7.6812624296875,0.22626121093749996,7.6179014296875Q0.2388612109374999,7.5545414296875,0.25761121093749995,7.4927214296875Q0.27637121093750006,7.4309004296875,0.3010912109374999,7.3712164296875Q0.3258112109375,7.3115324296875,0.3562612109375001,7.2545584296875Q0.3867212109375,7.1975849296875,0.4226112109375,7.1438704596875Q0.45850121093749996,7.0901560296875,0.4994812109375,7.0402184296875Q0.5404652109375,6.9902804296875,0.5861462109375,6.9445994296875Q0.6318262109375,6.8989194296875,0.6817642109375,6.8579364296875Q0.7317022109375,6.8169534296875,0.7854162109375,6.7810624296875Q0.8391312109375,6.7451714296875,0.8961042109375,6.7147184296875Q0.9530782109375,6.6842654296875,1.0127622109374999,6.6595434296875Q1.0724472109375,6.6348214296875,1.1342672109375,6.6160684296875Q1.1960872109375,6.5973154296875,1.2594472109375001,6.5847124296875Q1.3228082109375001,6.5721094296875,1.3870982109375,6.5657774296875Q1.4513894109375,6.5594454296875,1.5159912109375,6.5594454296875Q1.6509962109375,6.5594454296875,1.7831852109375,6.5868764296875Q1.8973262109375,6.5810534296875,3.1639312109375,6.3366334296875Q5.5791612109375,5.8705654296875,6.8155112109375,5.8384154296875Q9.498001210937499,5.7686654296875,10.4998212109375,7.2328644296875Q10.7232212109375,7.5593774296875,10.8924512109375,7.5738314296875Q11.0797112109375,7.5898264296875,11.6774912109375,7.3869014296875Q12.1453912109375,7.2280639296875,12.3992912109375,7.1769348296875Q13.0478912109375,7.0463434296875,13.5770912109375,7.2448020296875Q14.2343912109375,7.4912774296875,17.6297912109375,7.9643704296875Q17.7515912109375,7.9749534296875,17.8694912109375,8.0078364296875Q17.9872912109375,8.0407184296875,18.0969912109375,8.0947714296875Q18.2067912109375,8.1488254296875,18.3046912109375,8.222195429687499Q18.4025912109375,8.2955654296875,18.4851912109375,8.3857254296875Q18.5678912109375,8.4758954296875,18.6324912109375,8.5797654296875Q18.6971912109375,8.683625429687499,18.7414912109375,8.7976354296875Q18.7858912109375,8.9116454296875,18.8083912109375,9.0318754296875Q18.8309912109375,9.1521054296875,18.8309912109375,9.2744354296875Q18.8309912109375,9.3390454296875,18.8246912109375,9.4033354296875Q18.8182912109375,9.4676254296875,18.8056912109375,9.530985429687501Q18.7930912109375,9.5943454296875,18.7743912109375,9.6561654296875Q18.7555912109375,9.7179854296875,18.7308912109375,9.7776654296875Q18.7061912109375,9.8373554296875,18.6756912109375,9.8943254296875Q18.6452912109375,9.9512954296875,18.6093912109375,10.0050154296875Q18.5734912109375,10.0587254296875,18.5324912109375,10.1086654296875Q18.4914912109375,10.1586054296875,18.4457912109375,10.2042854296875Q18.4001912109375,10.2499654296875,18.3501912109375,10.2909454296875Q18.3002912109375,10.3319354296875,18.2465912109375,10.3678254296875Q18.1928912109375,10.4037154296875,18.1358912109375,10.4341654296875Q18.0788912109375,10.4646154296875,18.0191912109375,10.4893454296875Q17.9594912109375,10.5140654296875,17.8976912109375,10.5328154296875Q17.8358912109375,10.5515654296875,17.7724912109375,10.5641754296875Q17.7091912109375,10.5767754296875,17.6448912109375,10.5831054296875Q17.5805912109375,10.5894354296875,17.5159912109375,10.5894354296875Q17.3907912109375,10.5894354296875,17.2677912109375,10.5658054296875Z" fill-rule="evenodd" fill="#423232" fill-opacity="1"/></g></g></svg>