<svg xmlns="http://www.w3.org/2000/svg" xmlns:xlink="http://www.w3.org/1999/xlink" fill="none" version="1.1" width="30" height="19.0716552734375" viewBox="0 0 30 19.0716552734375"><g><g><path d="M6.258196484375,11.82041484375C6.258196484375,11.82041484375,11.358196484375,8.22038484375,22.658146484375,15.12041484375C24.858146484375,13.12041484375,26.058246484375,10.32039484375,25.958246484375,8.72039484375C23.758246484375,8.72039484375,19.658246484375,8.020394843750001,12.858206484375,3.72039484375C3.158206484375,-2.5796051562500004,2.258196484375,5.72040484375,6.258196484375,11.82041484375Z" fill="#423232" fill-opacity="1"/></g><g><path d="M11.75830078125,16.5204238671875C16.65830078125,18.5204238671875,20.25830078125,17.2204138671875,22.65830078125,15.1204138671875C11.35829078125,8.2204138671875,6.25830078125,11.8204258671875,6.25830078125,11.8204258671875C7.65830078125,13.8204238671875,9.45830078125,15.620423867187501,11.75830078125,16.5204238671875Z" fill="#FE9DAB" fill-opacity="1"/></g><g><path d="M24.308,10.10648140625Q24.268,10.10188140625,24.2278,10.09705140625Q19.088,9.480551406250001,12.04669,4.98191140625Q8.1664,2.48528240625,6.4637899999999995,3.1074614062499997Q5.41126,3.49208140625,5.50671,5.55099140625Q5.629,8.18898140625,7.44818,10.97151140625Q9.423210000000001,13.99244140625,12.22797,15.13284140625Q17.647,17.35744140625,21.4375,14.13944140625Q23.7804,12.15044140625,24.308,10.10648140625ZM27.3793,10.05862140625Q26.8822,13.45244140625,23.3791,16.42644140625Q18.1967,20.82614140625,11.088650000000001,17.90804140625Q7.4250799999999995,16.41854140625,4.937198,12.61314140625Q2.67012,9.14553140625,2.5099299999999998,5.68991140625Q2.3124700000000002,1.43043090625,5.4341,0.28970140625000007Q8.53642,-0.8439685937500001,13.66995,2.45900740625Q20.1257,6.58352140625,24.585,7.11840140625Q26.5078,7.34904140625,27.1379,7.00481140625L27.1383,7.00455140625Q27.4748,6.82046140625,27.8583,6.82046140625Q27.932,6.82046140625,28.0054,6.82768140625Q28.0787,6.83490140625,28.151,6.84928140625Q28.2232,6.86366140625,28.2937,6.88505140625Q28.3643,6.90644140625,28.4323,6.93464140625Q28.5004,6.96284140625,28.5654,6.99758140625Q28.6304,7.03231140625,28.6917,7.07325140625Q28.7529,7.11419140625,28.8099,7.16094140625Q28.8669,7.20769140625,28.919,7.25980140625Q28.9711,7.31191140625,29.0178,7.36887140625Q29.0646,7.42583140625,29.1055,7.48710140625Q29.1465,7.54837140625,29.1812,7.61336140625Q29.2159,7.67835140625,29.2441,7.74643140625Q29.2723,7.81451140625,29.2937,7.88503140625Q29.3151,7.95555140625,29.3295,8.02782140625Q29.3439,8.100101406250001,29.3511,8.17343140625Q29.3583,8.24677140625,29.3583,8.32046140625Q29.3583,8.42090140625,29.3449,8.52045140625Q29.3315,8.61999140625,29.305,8.71686140625Q29.2785,8.81373140625,29.2392,8.90620140625Q29.2,8.99867140625,29.1488,9.08508140625Q29.0976,9.17149140625,29.0353,9.250311406249999Q28.9731,9.32912140625,28.9009,9.39893140625Q28.8286,9.46874140625,28.7478,9.52830140625Q28.6669,9.58786140625,28.5788,9.63610140625L28.5783,9.63637140625Q28.0643,9.91758140625,27.3793,10.05862140625Z" fill-rule="evenodd" fill="#423232" fill-opacity="1"/></g><g><path d="M7.12333078125,13.045873867187499Q7.27243078125,12.9409638671875,7.7295707812500005,12.780713867187501Q8.80843078125,12.4025138671875,10.24366078125,12.3827438671875Q15.18512078125,12.3146738671875,21.876600781249998,16.400613867187502Q22.053100781250002,16.5084238671875,22.25230078125,16.5644138671875Q22.45140078125,16.6204138671875,22.65830078125,16.6204138671875Q22.73200078125,16.6204138671875,22.80530078125,16.6131938671875Q22.87870078125,16.605963867187498,22.95090078125,16.5915938671875Q23.02320078125,16.5772138671875,23.09370078125,16.5558238671875Q23.16420078125,16.534433867187502,23.23230078125,16.5062338671875Q23.30040078125,16.4780338671875,23.36540078125,16.4432938671875Q23.43040078125,16.4085538671875,23.49160078125,16.3676138671875Q23.55290078125,16.326673867187502,23.60990078125,16.2799238671875Q23.66680078125,16.2331838671875,23.71900078125,16.1810738671875Q23.77110078125,16.1289638671875,23.81780078125,16.0720038671875Q23.86460078125,16.0150438671875,23.90550078125,15.9537638671875Q23.94640078125,15.8924938671875,23.98120078125,15.827503867187499Q24.01590078125,15.7625238671875,24.04410078125,15.694433867187499Q24.07230078125,15.6263538671875,24.09370078125,15.5558438671875Q24.11510078125,15.4853238671875,24.12950078125,15.4130438671875Q24.14380078125,15.340773867187501,24.15110078125,15.267443867187499Q24.15830078125,15.1941038671875,24.15830078125,15.1204138671875Q24.15830078125,14.9276238671875,24.10950078125,14.7411038671875Q24.06080078125,14.5545738671875,23.96650078125,14.3864438671875Q23.87210078125,14.2183138671875,23.73830078125,14.0794938671875Q23.60450078125,13.9406838671875,23.44000078125,13.8402138671875L23.43960078125,13.8399538671875L23.43860078125,13.8393338671875Q16.009000781250002,9.3030438671875,10.202340781250001,9.3830338671875Q8.27779078125,9.4095438671875,6.73712478125,9.9496288671875Q5.88658978125,10.2477878671875,5.39618778125,10.5929228671875Q5.39496678125,10.5937808671875,5.39374678125,10.5946408671875L5.39327478125,10.5949758671875L7.12333078125,13.045873867187499Z" fill-rule="evenodd" fill="#423232" fill-opacity="1"/></g></g></svg>